<?xml version="1.0" encoding="UTF-8"?>
<svg width="100%" height="100%" version="1.1" viewBox="-120 -168 165.58 261.58" xmlns="http://www.w3.org/2000/svg">
<g transform="matrix(.12677 0 0 .1304 -118.73 -165.39)">
<path d="m0 2.5v1657.5l110-110-0.0176-126.23c105.3-87.528 180.26-182.16 233.8-282.25-1.8724 3.5134-3.7754 7.0487-5.7422 10.635 139.34-34.523 228.76-151.94 326.88-251.22 98.724-99.899 202.37-184.19 377.62-174.98 7.5259-8.9343 14.813-17.827 21.885-26.592-4.2773-0.38012-8.5067-0.68935-12.711-0.96484 1.155 0.0596 2.3131 0.12324 3.4668 0.18164l-0.3808-234.67c-6.4807-3.039-12.977-5.8123-19.758-8.4688l0.096 242.09c0.6912 0.0365 1.3827 0.0727 2.0742 0.10937-159.05-6.0449-265.3 63.26-356.08 148.36 22.002-20.658 44.856-40.363 69.137-58.227l-0.13671-180.63c-13.882 7.3803-27.815 14.802-41.711 22.193-0.63591 3.9262-2.0246 7.8773-3.418 10.664 5 10 10.599 34.355-20 20 15 30-10 25-20 20-9.483 4.7415-32.455 9.4826-22.014-15.623l29.811-16.09c-29.269 15.574-58.509 31.124-87.797 46.713l-5.0352-2.8008 0.25782 256.52c-29.078 30.451-58.047 60.053-88.42 86.33 11.695-10.162 23.153-20.849 34.416-31.988-30.273-24.218-62.124-47.482-101.28-67.924-6.813 24.55-14.315 48.867-22.598 73.062l67.293 44.893 0.1836 0.1602c-34.985 27.602-72.212 50.298-113.85 64.631 95.578-192 116.2-403.26 123.26-622.42-17.428-7.7466-13.268-13.828-27.006-26.035 0.0407-0.67002 0.0711-1.285 0.11719-1.9844-21.336-39.237-62.35-118.99-62.35-142.44v-70c0-10-5-30-5-40s10-80 10-80l-10 5c-21.326 60.667-18.827 125.69-24.732 189.61-0.26808-24.612-50.268-27.882-50.268 15.389 0 37.916 49.696 36.786 71.482 5.9062-8.8094 15.273-2.7588 42.101 1.5859 64.871-2.9952 47.504-28.272 44.57-38.068 44.223-6.7952-0.24059-10.502-3.3494-11.604-7.6035 3.975 10.676 29.023 7.363 31.604-17.396 3.774-36.204-60-20-55 25 1.2256 11.03 7.2568 19.357 15.369 24.953 0 0 34.631 25.047 69.631 15.047 5.7686-1.6482 10.586-4.3834 14.627-7.6113 15.899-2.1211 31.18-4.4041 41.859-5.875-10.317 337.82-49.098 647.02-341.49 900.69l-0.0215 15.73-0.11914-838.24c-4.8023-9.8849-4.8127-24.568-6e-3 -44.078v-0.54101c-12.259 6.3672-12.329-6.2652-14.853-15.072 0 0-8.6953 11.232-18.695 26.232-1.8376 2.7563-4.2274 4.45-6.8086 5.2676l1.877 0.39453c6.1568 2.2398 9.9316 5.2625 9.9316 8.5898 0 6.9035-16.254 12.5-36.305 12.5s-36.305-5.5965-36.305-12.5c0-6.9036 16.254-12.5 36.305-12.5 3.5303 0 6.943 0.17254 10.17 0.49609l1.0664 0.22461c-5.9224-4.6925-8.7185-13.729-1.2363-23.705 15-20 16.464-26.464 20-30 4.1473-4.1473 18.62-4.842 34.848-2.1094l-0.04493-317.89h30.197zm284.05 43.188c-67.294 8.8818-51.957 101.49-109.05 144.31 93.311 27.993 143.09-35.436 161.52-80.607zm355.95 79.312c63.111 116.22 35 199.88 35 305 0 39.694 23.81 56.979 46.227 54.82 43.937-3.5057 110.42-43.307 166.38-66.15 17.398-4.6458 32.398-21.364 32.398-48.67 0-10-5.0004-40.001-39.271-35.008 5.0464-66.1 26.239-132.38-15.729-209.99zm249.13 293.31-4.0938 2.0371 0.0801 296.92c6.6916-2.108 13.377-4.0542 20.031-5.8906l-0.41211-290.59c-5.3068-0.83013-10.441-1.6466-15.605-2.4726zm-549.13 16.689c-2.6072 2.9391-4.4085 5.6352-5.5527 8.0703 1.1706-2.7775 3.0468-5.5644 5.5527-8.0703zm-69.898 67.754c-27.606 0.24528-50.727 14.121-75.102 22.246-5.6027-0.61674-10.988-1.6998-20 5-1.7036 40.187-7.5005 76.003-15 110 7e-3 9.9803 6.6426 13.344 20 10 25.063 17.576 57.075 51.196 86.773 69.311 4.9875-20.198-2.4843-46.614-21.773-74.311 12.993 4.3542 31.508-2.8474 50-10-10.938-17.689-23.686-30.315-44.385-37.537 23.155-0.03189 39.351-9.0134 49.385-22.463-10.786-14.059-23.418-26.339-45-30 18.668-6.6759 33.492-17.007 35-40-6.919-1.6333-13.528-2.3027-19.898-2.2461zm-230.96 57.246a35.858 12.5 0 0 1 35.857 12.5 35.858 12.5 0 0 1-35.857 12.5 35.858 12.5 0 0 1-35.859-12.5 35.858 12.5 0 0 1 35.859-12.5zm-1.8848 27.5a32.742 12.5 0 0 1 32.742 12.5 32.742 12.5 0 0 1-32.742 12.5 32.742 12.5 0 0 1-32.742-12.5 32.742 12.5 0 0 1 32.742-12.5zm2.7422 25a35 12.5 0 0 1 35 12.5 35 12.5 0 0 1-35 12.5 35 12.5 0 0 1-35-12.5 35 12.5 0 0 1 35-12.5zm610.32 108.72c5.0684 0.0293 10.928 1.9043 14.678 3.7793 10-5 35-10 20 20 30-15 25 10 20 20 5 10 10.599 34.355-20 20 15 30-10 25-20 20-10 5-35 10-20-20-30 15-25-10-20-20-5-10-10-35 20-20-9.375-18.75-3.125-23.828 5.3223-23.779zm0 125c5.0684 0.0293 10.928 1.9043 14.678 3.7793 3.9329-1.9665 10.187-3.9322 15.414-3.7695l-14.746 14.529c0.95121-0.92676 1.915-1.84 2.8691-2.7637-4.8676 4.7056-9.696 9.4476-14.488 14.221 0.1457-0.14536 0.28977-0.2922 0.43555-0.4375l-33.262 32.771c0.05944-5.039 1.918-10.832 3.7773-14.551-5-10-10-35 20-20-9.375-18.75-3.125-23.828 5.3223-23.779z" fill="#fc4"/>
</g>
<g transform="matrix(-.12677 0 0 -.1304 46.068 95.408)">
<path d="m0 2.5v1657.5l110-110-0.0176-126.23c105.3-87.528 180.26-182.16 233.8-282.25-1.8724 3.5134-3.7754 7.0487-5.7422 10.635 139.34-34.523 228.76-151.94 326.88-251.22 98.724-99.899 202.37-184.19 377.62-174.98 7.5259-8.9343 14.813-17.827 21.885-26.592-4.2773-0.38012-8.5067-0.68935-12.711-0.96484 1.155 0.0596 2.3131 0.12324 3.4668 0.18164l-0.3808-234.67c-6.4807-3.039-12.977-5.8123-19.758-8.4688l0.096 242.09c0.6912 0.0365 1.3827 0.0727 2.0742 0.10937-159.05-6.0449-265.3 63.26-356.08 148.36 22.002-20.658 44.856-40.363 69.137-58.227l-0.13671-180.63c-13.882 7.3803-27.815 14.802-41.711 22.193-0.63591 3.9262-2.0246 7.8773-3.418 10.664 5 10 10.599 34.355-20 20 15 30-10 25-20 20-9.483 4.7415-32.455 9.4826-22.014-15.623l29.811-16.09c-29.269 15.574-58.509 31.124-87.797 46.713l-5.0352-2.8008 0.25782 256.52c-29.078 30.451-58.047 60.053-88.42 86.33 11.695-10.162 23.153-20.849 34.416-31.988-30.273-24.218-62.124-47.482-101.28-67.924-6.813 24.55-14.315 48.867-22.598 73.062l67.293 44.893 0.1836 0.1602c-34.985 27.602-72.212 50.298-113.85 64.631 95.578-192 116.2-403.26 123.26-622.42-17.428-7.7466-13.268-13.828-27.006-26.035 0.0407-0.67002 0.0711-1.285 0.11719-1.9844-21.336-39.237-62.35-118.99-62.35-142.44v-70c0-10-5-30-5-40s10-80 10-80l-10 5c-21.326 60.667-18.827 125.69-24.732 189.61-0.26808-24.612-50.268-27.882-50.268 15.389 0 37.916 49.696 36.786 71.482 5.9062-8.8094 15.273-2.7588 42.101 1.5859 64.871-2.9952 47.504-28.272 44.57-38.068 44.223-6.7952-0.24059-10.502-3.3494-11.604-7.6035 3.975 10.676 29.023 7.363 31.604-17.396 3.774-36.204-60-20-55 25 1.2256 11.03 7.2568 19.357 15.369 24.953 0 0 34.631 25.047 69.631 15.047 5.7686-1.6482 10.586-4.3834 14.627-7.6113 15.899-2.1211 31.18-4.4041 41.859-5.875-10.317 337.82-49.098 647.02-341.49 900.69l-0.0215 15.73-0.11914-838.24c-4.8023-9.8849-4.8127-24.568-6e-3 -44.078v-0.54101c-12.259 6.3672-12.329-6.2652-14.853-15.072 0 0-8.6953 11.232-18.695 26.232-1.8376 2.7563-4.2274 4.45-6.8086 5.2676l1.877 0.39453c6.1568 2.2398 9.9316 5.2625 9.9316 8.5898 0 6.9035-16.254 12.5-36.305 12.5s-36.305-5.5965-36.305-12.5c0-6.9036 16.254-12.5 36.305-12.5 3.5303 0 6.943 0.17254 10.17 0.49609l1.0664 0.22461c-5.9224-4.6925-8.7185-13.729-1.2363-23.705 15-20 16.464-26.464 20-30 4.1473-4.1473 18.62-4.842 34.848-2.1094l-0.04493-317.89h30.197zm284.05 43.188c-67.294 8.8818-51.957 101.49-109.05 144.31 93.311 27.993 143.09-35.436 161.52-80.607zm355.95 79.312c63.111 116.22 35 199.88 35 305 0 39.694 23.81 56.979 46.227 54.82 43.937-3.5057 110.42-43.307 166.38-66.15 17.398-4.6458 32.398-21.364 32.398-48.67 0-10-5.0004-40.001-39.271-35.008 5.0464-66.1 26.239-132.38-15.729-209.99zm249.13 293.31-4.0938 2.0371 0.0801 296.92c6.6916-2.108 13.377-4.0542 20.031-5.8906l-0.41211-290.59c-5.3068-0.83013-10.441-1.6466-15.605-2.4726zm-549.13 16.689c-2.6072 2.9391-4.4085 5.6352-5.5527 8.0703 1.1706-2.7775 3.0468-5.5644 5.5527-8.0703zm-69.898 67.754c-27.606 0.24528-50.727 14.121-75.102 22.246-5.6027-0.61674-10.988-1.6998-20 5-1.7036 40.187-7.5005 76.003-15 110 7e-3 9.9803 6.6426 13.344 20 10 25.063 17.576 57.075 51.196 86.773 69.311 4.9875-20.198-2.4843-46.614-21.773-74.311 12.993 4.3542 31.508-2.8474 50-10-10.938-17.689-23.686-30.315-44.385-37.537 23.155-0.03189 39.351-9.0134 49.385-22.463-10.786-14.059-23.418-26.339-45-30 18.668-6.6759 33.492-17.007 35-40-6.919-1.6333-13.528-2.3027-19.898-2.2461zm-230.96 57.246a35.858 12.5 0 0 1 35.857 12.5 35.858 12.5 0 0 1-35.857 12.5 35.858 12.5 0 0 1-35.859-12.5 35.858 12.5 0 0 1 35.859-12.5zm-1.8848 27.5a32.742 12.5 0 0 1 32.742 12.5 32.742 12.5 0 0 1-32.742 12.5 32.742 12.5 0 0 1-32.742-12.5 32.742 12.5 0 0 1 32.742-12.5zm2.7422 25a35 12.5 0 0 1 35 12.5 35 12.5 0 0 1-35 12.5 35 12.5 0 0 1-35-12.5 35 12.5 0 0 1 35-12.5zm610.32 108.72c5.0684 0.0293 10.928 1.9043 14.678 3.7793 10-5 35-10 20 20 30-15 25 10 20 20 5 10 10.599 34.355-20 20 15 30-10 25-20 20-10 5-35 10-20-20-30 15-25-10-20-20-5-10-10-35 20-20-9.375-18.75-3.125-23.828 5.3223-23.779zm0 125c5.0684 0.0293 10.928 1.9043 14.678 3.7793 3.9329-1.9665 10.187-3.9322 15.414-3.7695l-14.746 14.529c0.95121-0.92676 1.915-1.84 2.8691-2.7637-4.8676 4.7056-9.696 9.4476-14.488 14.221 0.1457-0.14536 0.28977-0.2922 0.43555-0.4375l-33.262 32.771c0.05944-5.039 1.918-10.832 3.7773-14.551-5-10-10-35 20-20-9.375-18.75-3.125-23.828 5.3223-23.779z" fill="#fc4"/>
</g>
<g transform="matrix(.12677 0 0 .1304 -118.73 -165.39)">
<path d="m246.47 0 123.53 150c180.66-37.466 351.91-15.7 520 10l133.33-160zm638.32 420.9-314.79 159.1-91.814-52.258c-0.87498 19.933-1.7868 39.647-2.6543 58.811l104.47 58.447 305.05-159.79-0.05273-0.81055zm190.27 52.945 0.2656 213.35c33.759-38.278 71.635-75.149 114.62-110.73l0.09-16.514c-34.8-32.654-68.884-62.029-114.97-86.098zm-754.41 25.67-31.623 9.6543-4.3789 13.883 38.002-11.602zm3.4707 35.115-54.023 3.1777-10.244 7.1152 10.877 4.8691 54.576-3.209zm560.87 0.48632-114.76 61.469-0.31446 177.2c34.85-23.34 72.832-43.004 115.19-56.514zm-587.78 36.512c-0.58924 2.6774-2.4801 10.377-3.6621 11.793l31.779 1.9863 8e-3 -12.021zm-3.6621 11.793-0.63868-0.0391c0.16751 0.37468 0.38802 0.33934 0.63868 0.0391zm-35.928 11.471c-6.0313 0.0905 10.896 11.592 14.592 14.352l52.041 6.123 0.47461-12.027-61.166-7.1953c-2.9213-0.8939-4.8245-1.2687-5.9414-1.252zm33.008 33.078c12.431 3.6584-11.979 11.314-6.1777 11.207l36.916 5.5449 1.4688-11.914zm181.43 8.5195c-5.895 81.123-15.634 160.54-32.645 237.54 45.209 18.345 84.338 42.848 120.36 70.484l0.0117-262.83zm-312.06 3.5117c-16.58 5.5609-33.037 6.4151-49.689 2.5l-0.1543 344.1c88.828-105.75 107.28-197.6 126.27-289.58-20.082-16.607-39.786-35.348-56.426-47.018-13.357 3.3442-19.993-0.0197-20-10zm524.89 2.0742-29.963 15.211c2.957 1.7261 6.3974 2.7148 10.068 2.7148 10.345 0 18.857-7.8548 19.895-17.926zm-437.26 5.832 6.8652 13.521 63.545 12.096 0.89648-12.043zm14.979 30.312 3.5605 13.258 47.111 10.033 2.3555-10.035zm402.39 66.781a20 20 0 0 0-20 20 20 20 0 0 0 20 20 20 20 0 0 0 20-20 20 20 0 0 0-20-20z" fill="#f00"/>
</g>
<g transform="matrix(-.12677 0 0 -.1304 46.068 95.408)">
<path d="m246.47 0 123.53 150c180.66-37.466 351.91-15.7 520 10l133.33-160zm638.32 420.9-314.79 159.1-91.814-52.258c-0.87498 19.933-1.7868 39.647-2.6543 58.811l104.47 58.447 305.05-159.79-0.05273-0.81055zm190.27 52.945 0.2656 213.35c33.759-38.278 71.635-75.149 114.62-110.73l0.09-16.514c-34.8-32.654-68.884-62.029-114.97-86.098zm-754.41 25.67-31.623 9.6543-4.3789 13.883 38.002-11.602zm3.4707 35.115-54.023 3.1777-10.244 7.1152 10.877 4.8691 54.576-3.209zm560.87 0.48632-114.76 61.469-0.31446 177.2c34.85-23.34 72.832-43.004 115.19-56.514zm-587.78 36.512c-0.58924 2.6774-2.4801 10.377-3.6621 11.793l31.779 1.9863 8e-3 -12.021zm-3.6621 11.793-0.63868-0.0391c0.16751 0.37468 0.38802 0.33934 0.63868 0.0391zm-35.928 11.471c-6.0313 0.0905 10.896 11.592 14.592 14.352l52.041 6.123 0.47461-12.027-61.166-7.1953c-2.9213-0.8939-4.8245-1.2687-5.9414-1.252zm33.008 33.078c12.431 3.6584-11.979 11.314-6.1777 11.207l36.916 5.5449 1.4688-11.914zm181.43 8.5195c-5.895 81.123-15.634 160.54-32.645 237.54 45.209 18.345 84.338 42.848 120.36 70.484l0.0117-262.83zm-312.06 3.5117c-16.58 5.5609-33.037 6.4151-49.689 2.5l-0.1543 344.1c88.828-105.75 107.28-197.6 126.27-289.58-20.082-16.607-39.786-35.348-56.426-47.018-13.357 3.3442-19.993-0.0197-20-10zm524.89 2.0742-29.963 15.211c2.957 1.7261 6.3974 2.7148 10.068 2.7148 10.345 0 18.857-7.8548 19.895-17.926zm-437.26 5.832 6.8652 13.521 63.545 12.096 0.89648-12.043zm14.979 30.312 3.5605 13.258 47.111 10.033 2.3555-10.035zm402.39 66.781a20 20 0 0 0-20 20 20 20 0 0 0 20 20 20 20 0 0 0 20-20 20 20 0 0 0-20-20z" fill="#f00"/>
</g>
<g transform="matrix(.12677 0 0 .1304 -118.73 -165.39)">
<path d="m599.75 695h130.34l-0.20525 15h-129.72zm0 130h103.86l-15.189 15h-87.849zm305.34-350.9-0.0996 41.316 8.0547 12.08-8.1113 12.168-0.0996 41.611 35.854-53.779zm129.52-4.5645-38.641 57.961 39.025 58.537-0.1367-41.668-11.246-16.869 11.135-16.701zm-107.16-44.822 40.881 61.32 29.141-43.711-23.674-5.9531-5.4668 8.2012-7.668-11.506zm40.881 144.25-39.025 58.537 39.025 58.537 19.512-29.268 19.512-29.27-19.512-29.27zm0 41.463 0.375 0.5625 11.006 16.512-11.006 16.512-0.375 0.5625-11.383-17.074zm-63.348 100.99c6.9166-1.744 13.964-3.4132 21.508-4.7813l-21.22-31.594zm111.3-14.151 18.718-28.323 0.1359 28.572c-6.24-0.10629-12.531-0.20979-18.854-0.2491zm-660.34 420.55c17.996-36.037 33.178-72.46 46.355-109.48l67.413 44.868c-34.97 27.774-72.264 50.526-113.77 64.617zm642.89-335.53c-12.064 0.25657-24.521 0.61716-35.749 2.0902l-6.2637 0.82226 5.1758 36.404 5.9258-0.54883c2.1201-0.19614 4.2467-0.3849 6.3819-0.56367l7.8371-13.064c-3.1626 0.24001-6.2947 0.50536-9.4241 0.7707l-1.7109-12.023c6.3527-0.7028 12.818-1.2608 19.418-1.6204l25.792-38.153-6.2441 0.0312c-35.369 0.17264-67.446 4.4644-97.201 11.936l-6.4434 1.6172 15.004 47.361c-22.248 6.0632-42.873 14.283-62.326 24.422l-6.4844-10.062c10.007-5.2553 20.196-10.129 30.734-14.184l6.4531-2.4824-16.92-33.457-5.3457 2.1973c-29.992 12.327-57.417 28.353-83.215 47.127l-5.2285 3.8047 30.283 38.77c-19.261 14.385-37.967 30.71-56.785 48.676l-8.5859-9.0918c9.2479-8.7326 18.515-17.2 27.775-25.191l4.7891-4.1328-24.512-27.721-4.666 3.9336c-23.766 20.027-46.627 42.187-69.652 65.48l-6.0527 5.2754 36.041 35.895c-19.627 19.928-39.408 41.356-60.193 63.215l-9.1387-8.6621c5.4066-5.5795 10.742-11.155 15.857-16.631l4.2676-4.5664-9.1348-8.5332-4.2656 4.5664c-6.5357 6.9957-13.086 13.999-20.012 20.99l-4.4961 4.539 27.387 25.959 4.3008-4.4961c24.08-25.18 46.478-49.853 68.615-72.064l4.4121-4.4277-35.529-35.387c20.304-20.457 40.44-39.891 61.051-57.586l8.0352 9.0879c-9.3728 8.2213-18.736 16.745-28.057 25.664l-4.4863 4.293 25.793 27.316 4.5469-4.3984c21.802-21.086 43.159-39.847 65.184-55.799l5.25-3.8027-30.105-38.541c21.998-15.54 45.136-28.915 70.021-39.631l5.4941 10.865c-10.953 4.5359-21.63 9.5848-31.916 15.238l-5.875 3.2285 20.051 31.104 5.0957-2.7715c21.955-11.94 45.269-21.298 70.961-27.719l6.4512-1.6113-14.881-46.979c25.176-5.8528 52.104-9.3501 81.473-9.9199l0.029 5.0273m-1013.8 895.83 120-120m230-1060c3.2591 72.689 0.13311 146-10 220l-63.003-16.796c1.771 9.4485 1.7166 18.248-0.2239 26.106-10.168-6.2019-20.607-14.221-30.633-22.529-18.706 92.222-37.156 184.07-125.98 289.53l5e-3 225.47c138.68-126.68 254.48-405.98 240.77-713.96m77.322-237.82a10 20 0 0 1-10 20 10 20 0 0 1-10-20 10 20 0 0 1 10-20 10 20 0 0 1 10 20zm140.87 2.0319a10 20 0 0 1-10 20 10 20 0 0 1-10-20 10 20 0 0 1 10-20 10 20 0 0 1 10 20z" fill="#44f"/>
</g>
<g transform="matrix(-.12677 0 0 -.1304 46.068 95.408)">
<path d="m599.75 695h130.34l-0.20525 15h-129.72zm0 130h103.86l-15.189 15h-87.849zm305.34-350.9-0.0996 41.316 8.0547 12.08-8.1113 12.168-0.0996 41.611 35.854-53.779zm129.52-4.5645-38.641 57.961 39.025 58.537-0.1367-41.668-11.246-16.869 11.135-16.701zm-107.16-44.822 40.881 61.32 29.141-43.711-23.674-5.9531-5.4668 8.2012-7.668-11.506zm40.881 144.25-39.025 58.537 39.025 58.537 19.512-29.268 19.512-29.27-19.512-29.27zm0 41.463 0.375 0.5625 11.006 16.512-11.006 16.512-0.375 0.5625-11.383-17.074zm-63.348 100.99c6.9166-1.744 13.964-3.4132 21.508-4.7813l-21.22-31.594zm111.3-14.151 18.718-28.323 0.1359 28.572c-6.24-0.10629-12.531-0.20979-18.854-0.2491zm-660.34 420.55c17.996-36.037 33.178-72.46 46.355-109.48l67.413 44.868c-34.97 27.774-72.264 50.526-113.77 64.617zm642.89-335.53c-12.064 0.25657-24.521 0.61716-35.749 2.0902l-6.2637 0.82226 5.1758 36.404 5.9258-0.54883c2.1201-0.19614 4.2467-0.3849 6.3819-0.56367l7.8371-13.064c-3.1626 0.24001-6.2947 0.50536-9.4241 0.7707l-1.7109-12.023c6.3527-0.7028 12.818-1.2608 19.418-1.6204l25.792-38.153-6.2441 0.0312c-35.369 0.17264-67.446 4.4644-97.201 11.936l-6.4434 1.6172 15.004 47.361c-22.248 6.0632-42.873 14.283-62.326 24.422l-6.4844-10.062c10.007-5.2553 20.196-10.129 30.734-14.184l6.4531-2.4824-16.92-33.457-5.3457 2.1973c-29.992 12.327-57.417 28.353-83.215 47.127l-5.2285 3.8047 30.283 38.77c-19.261 14.385-37.967 30.71-56.785 48.676l-8.5859-9.0918c9.2479-8.7326 18.515-17.2 27.775-25.191l4.7891-4.1328-24.512-27.721-4.666 3.9336c-23.766 20.027-46.627 42.187-69.652 65.48l-6.0527 5.2754 36.041 35.895c-19.627 19.928-39.408 41.356-60.193 63.215l-9.1387-8.6621c5.4066-5.5795 10.742-11.155 15.857-16.631l4.2676-4.5664-9.1348-8.5332-4.2656 4.5664c-6.5357 6.9957-13.086 13.999-20.012 20.99l-4.4961 4.539 27.387 25.959 4.3008-4.4961c24.08-25.18 46.478-49.853 68.615-72.064l4.4121-4.4277-35.529-35.387c20.304-20.457 40.44-39.891 61.051-57.586l8.0352 9.0879c-9.3728 8.2213-18.736 16.745-28.057 25.664l-4.4863 4.293 25.793 27.316 4.5469-4.3984c21.802-21.086 43.159-39.847 65.184-55.799l5.25-3.8027-30.105-38.541c21.998-15.54 45.136-28.915 70.021-39.631l5.4941 10.865c-10.953 4.5359-21.63 9.5848-31.916 15.238l-5.875 3.2285 20.051 31.104 5.0957-2.7715c21.955-11.94 45.269-21.298 70.961-27.719l6.4512-1.6113-14.881-46.979c25.176-5.8528 52.104-9.3501 81.473-9.9199l0.029 5.0273m-1013.8 895.83 120-120m230-1060c3.2591 72.689 0.13311 146-10 220l-63.003-16.796c1.771 9.4485 1.7166 18.248-0.2239 26.106-10.168-6.2019-20.607-14.221-30.633-22.529-18.706 92.222-37.156 184.07-125.98 289.53l5e-3 225.47c138.68-126.68 254.48-405.98 240.77-713.96m77.322-237.82a10 20 0 0 1-10 20 10 20 0 0 1-10-20 10 20 0 0 1 10-20 10 20 0 0 1 10 20zm140.87 2.0319a10 20 0 0 1-10 20 10 20 0 0 1-10-20 10 20 0 0 1 10-20 10 20 0 0 1 10 20z" fill="#44f"/>
</g>
<g transform="matrix(.12677 0 0 .1304 -118.73 -165.39)">
<path d="m585 695-112.86-59.18c0.73077-9.5527 1.3328-18.454 1.7212-27.602l106.13 61.782 305.04-160.32-0.0523 25.052zm-145.45 178.41c-2.1992 11.53-4.9112 23.275-7.8413 34.769 43.85 19.867 81.12 46.098 116.91 73.455 10.374-10.761 21.013-21.807 31.527-32.624l-0.11728-256.78-20.258-10.249 6e-3 262.53c-36.017-27.637-75.146-52.139-120.22-71.1zm310.72-85.641-0.60419-180.38 20.091-10.554 0.41163 176.78c-6.5442 4.5314-13.14 9.1817-19.899 14.152zm324.92-313.86c-6.3099-3.4334-13.043-6.7436-20.117-9.8896l-0.1888 234.53c2.9316 0.35718 6.0031 0.60513 9.3709 1.0088 3.6815-3.8772 7.134-7.8709 10.693-11.942zm-745.18 236.09c10.133-73.998 13.259-147.31 10-220l-18.949 7.8171c0.59197 4.4877 1.1228 9.0579 1.5966 13.631 6.1253 64.647 0.077 137.84-10.633 193.87zm-219.57 256h16.215l9.0312-12h-25.041zm-0.20525-30h38.588l6.1905-12h-45.599zm0.0823-60h72.578l4.9261-12h-78.084zm0.12292 30h56.65l6.1576-12h-63.013zm-0.12292-60h85.714l4.5156-12h-90.23zm0.58055-30h84.115c3.3469 0.0473 6.0854-2.6528 6.0854-6s-2.7386-6.0473-6.0854-6h-84.696zm-0.87082-33h64.986c4.057 0.0574 4.057-6.0574 0-6h-64.986zm0-30h44.986c4.057 0.0574 4.057-6.0574 0-6h-45.567zm145.62-40.064-1.3008 6.1973c-17.76 84.661-40.189 174.69-120.99 274.34l-1.3398 1.6523v163.47l10.682-13.32c76.408-95.292 141.95-241.85 171.15-411.16l0.9336-5.4043zm9.0938 14.846 36.275 9.6738c-27.925 157.17-87.591 294.07-157 386.41v-124.56c79.262-98.449 103.14-188.7 120.72-271.53zm489.61-174.92-25.055-53.688-59.849 30.324 25.747 55.172m17.321-54.669c6.9036 0 12.5 5.5964 12.5 12.5s-5.5964 12.5-12.5 12.5-12.5-5.5964-12.5-12.5 5.5964-12.5 12.5-12.5zm57.568-51.639 25.159 53.913 59.387-31.313-24.425-52.34zm42.432-0.86058c6.9036 0 12.5 5.5964 12.5 12.5s-5.5964 12.5-12.5 12.5-12.5-5.5964-12.5-12.5 5.5964-12.5 12.5-12.5zm-231.78 97.267 26.03 55.778 59.723-30.594-26.014-55.745zm41.775-2.267c6.9036 0 12.5 5.5964 12.5 12.5s-5.5964 12.5-12.5 12.5-12.5-5.5964-12.5-12.5 5.5964-12.5 12.5-12.5zm-111.57-25.996-25.942 45.228 58.425 32.917 25.905-45.162zm26.793 31.301c3.974 5.645 2.6193 13.443-3.0257 17.417s-13.443 2.6193-17.417-3.0257-2.6193-13.443 3.0257-17.417 13.443-2.6193 17.417 3.0257zm369.07-438.5-13.317-2.0362c-105.3-16.1-212.93-30.902-324.06-30.361-66.681 0.32424-134.62 6.1715-204.08 20.576l-12.119 2.4047 16.788 20.117c180.66-37.466 351.91-15.7 520 10l150-180"/>
</g>
<g transform="matrix(-.12677 0 0 -.1304 46.068 95.408)">
<path d="m585 695-112.86-59.18c0.73077-9.5527 1.3328-18.454 1.7212-27.602l106.13 61.782 305.04-160.32-0.0523 25.052zm-145.45 178.41c-2.1992 11.53-4.9112 23.275-7.8413 34.769 43.85 19.867 81.12 46.098 116.91 73.455 10.374-10.761 21.013-21.807 31.527-32.624l-0.11728-256.78-20.258-10.249 6e-3 262.53c-36.017-27.637-75.146-52.139-120.22-71.1zm310.72-85.641-0.60419-180.38 20.091-10.554 0.41163 176.78c-6.5442 4.5314-13.14 9.1817-19.899 14.152zm324.92-313.86c-6.3099-3.4334-13.043-6.7436-20.117-9.8896l-0.1888 234.53c2.9316 0.35718 6.0031 0.60513 9.3709 1.0088 3.6815-3.8772 7.134-7.8709 10.693-11.942zm-745.18 236.09c10.133-73.998 13.259-147.31 10-220l-18.949 7.8171c0.59197 4.4877 1.1228 9.0579 1.5966 13.631 6.1253 64.647 0.077 137.84-10.633 193.87zm-219.57 256h16.215l9.0312-12h-25.041zm-0.20525-30h38.588l6.1905-12h-45.599zm0.0823-60h72.578l4.9261-12h-78.084zm0.12292 30h56.65l6.1576-12h-63.013zm-0.12292-60h85.714l4.5156-12h-90.23zm0.58055-30h84.115c3.3469 0.0473 6.0854-2.6528 6.0854-6s-2.7386-6.0473-6.0854-6h-84.696zm-0.87082-33h64.986c4.057 0.0574 4.057-6.0574 0-6h-64.986zm0-30h44.986c4.057 0.0574 4.057-6.0574 0-6h-45.567zm145.62-40.064-1.3008 6.1973c-17.76 84.661-40.189 174.69-120.99 274.34l-1.3398 1.6523v163.47l10.682-13.32c76.408-95.292 141.95-241.85 171.15-411.16l0.9336-5.4043zm9.0938 14.846 36.275 9.6738c-27.925 157.17-87.591 294.07-157 386.41v-124.56c79.262-98.449 103.14-188.7 120.72-271.53zm489.61-174.92-25.055-53.688-59.849 30.324 25.747 55.172m17.321-54.669c6.9036 0 12.5 5.5964 12.5 12.5s-5.5964 12.5-12.5 12.5-12.5-5.5964-12.5-12.5 5.5964-12.5 12.5-12.5zm57.568-51.639 25.159 53.913 59.387-31.313-24.425-52.34zm42.432-0.86058c6.9036 0 12.5 5.5964 12.5 12.5s-5.5964 12.5-12.5 12.5-12.5-5.5964-12.5-12.5 5.5964-12.5 12.5-12.5zm-231.78 97.267 26.03 55.778 59.723-30.594-26.014-55.745zm41.775-2.267c6.9036 0 12.5 5.5964 12.5 12.5s-5.5964 12.5-12.5 12.5-12.5-5.5964-12.5-12.5 5.5964-12.5 12.5-12.5zm-111.57-25.996-25.942 45.228 58.425 32.917 25.905-45.162zm26.793 31.301c3.974 5.645 2.6193 13.443-3.0257 17.417s-13.443 2.6193-17.417-3.0257-2.6193-13.443 3.0257-17.417 13.443-2.6193 17.417 3.0257zm369.07-438.5-13.317-2.0362c-105.3-16.1-212.93-30.902-324.06-30.361-66.681 0.32424-134.62 6.1715-204.08 20.576l-12.119 2.4047 16.788 20.117c180.66-37.466 351.91-15.7 520 10l150-180"/>
</g>
<g transform="matrix(.12677 0 0 .1304 -118.73 -165.39)">
<path d="m921.56 121.33-25.06-3.8309c-105.51-16.132-214.3-31.175-327.25-30.609-67.768 0.33935-137.03 6.2984-207.98 21.012l-22.184 4.5999m85.916 302.5c5 25 5 75-30 85s-70-15-70-15m-215-6.5517v-318.45m-110 1500 110-110v-984.52m-0.048 858.32c314.13-261.1 358.27-584.62 369.29-928.33m-123.51 622.64c243.05-83.732 335.92-451.87 708.25-418.67m-726.18 453.23c139.58-35.032 229.01-152.45 327.12-251.73 98.724-99.899 202.37-184.19 377.15-175m-590.06-256.71c-9.5714 344.57-44.636 659.99-342.01 917.98m965-913.27v213.59m-20-223.45v234.33m-20-242.95v241.94m-130-276.62v290.56m-20-293.64v299.59m3.3515-299.04c165.34 24.801 232.03 75.754 301.7 142.32m-778.94 424.69c28.188 14.13 52.952 32.587 77.586 51.208m-63.621-101.33c39.019 20.444 70.871 43.709 100.96 67.668m-94.368-94.825c43.893 20.069 81.163 46.299 117.27 73.608m-109.74-107.91c45.425 18.698 84.554 43.2 120.34 70.782m-83.785-358.38 104.24 58.92 305.05-159.79m-411.36 122.78 106.31 62.012 305.08-159.8m-413.02 126.29 112.94 58.511 299.97-159.66m-324.97 146.82v262.41m20-252.54v257.33m20-262.41v240.49m130-309.62v185.68m20-196.25v180.72m20-191.08v176.71m-291.71-246 91.715 52.408 319.2-161.73m-204.2 346.73a20 20 0 0 0-20-20 20 20 0 0 0-20 20 20 20 0 0 0 20 20 20 20 0 0 0 20-20v0m-40-20c-15-30 10-25 20-20 10-5 35-10 20 20 30-15 25 10 20 20 5 10 10.599 34.355-20 20 15 30-10 25-20 20-10 5-35 10-20-20-30 15-25-10-20-20-5-10-10-35 20-20v0m-23.778 159.55c0.05944-5.039 1.9188-10.832 3.7782-14.551-5-10-10-35 20-20-15-30 10-25 20-20 3.9329-1.9665 10.186-3.9329 15.413-3.7702m-25.481-188.94c2.957 1.7261 6.3969 2.7151 10.068 2.7151 10.345 0 18.856-7.8547 19.894-17.926m23.576-13.042c-0.61177 4.0251-2.041 8.1092-3.4702 10.968 5 10 10.599 34.355-20 20 15 30-10 25-20 20-9.483 4.7415-32.455 9.483-22.013-15.623m-240.49 343.95 67.145 44.763m435.72-620.05 129.76 194.65m0.2333-0.73227-47.642 71.463m-81.899-64.693 45.682 68.523m68.494-252.24c-38.213 57.32-77.156 115.73-114.01 171.02m-0.43254 53.762 21.318 31.977m89.298-9.553 18.834-28.25m-596.07 331.71 12.606-23.725c12.105-20.216 39.571-3.424 28.547 17.131l-14.461 24.478m14.461-24.478c12.105-20.216 37.365-2.3566 26.341 18.198l-12.107 20.494m-83.201-47.52 14.081-26.502c12.105-20.216 37.365-2.3564 26.341 18.198m-381.53-489.88v-287.07h-70m70 366.09v-11.905m0 64.245v-40.025m-70 1021.6 70-70v-898.64m-70-471.36h140l-140-157.5m0 127.5h80l-80-80m315 845a7.5 7.5 0 0 1-7.5 7.5 7.5 7.5 0 0 1-7.5-7.5 7.5 7.5 0 0 1 7.5-7.5 7.5 7.5 0 0 1 7.5 7.5v0m0 0c30-40 80 5 90-10m-90 15c9.9202 49.006 72.409 27.159 75 45m-72.033-48.796c32.887-17.899 82.033 28.796 87.033-11.204m-15 60c5-30-66.33-20.364-72.418-46.242 24.689 24.532 67.418 31.242 77.418 21.242m0 0c4.0311-20.98-63.401-33.217-80-20m17.448-74.874a7.4603 7.5 0 0 1-7.0219 7.9163 7.4603 7.5 0 0 1-7.8744-7.0592 7.4603 7.5 0 0 1 7.0219-7.9163 7.4603 7.5 0 0 1 7.8744 7.0592v0m0 0c27.519-41.649 79.731 0.42097 88.809-15.126m-88.525 20.118c12.637 48.359 73.452 22.978 77.039 40.641m-74.308-44.601c31.642-19.749 83.102 24.062 85.794-16.158m-11.486 60.759c3.2604-30.237-67.029-16.541-74.545-42.029 25.912 23.081 68.727 27.339 78.089 16.784m0 0c2.8108-21.176-64.85-29.54-80.583-15.396m14.369-81.813a7.1244 7.5 0 0 1-6.53 8.0774 7.1244 7.5 0 0 1-7.6729-6.8743 7.1244 7.5 0 0 1 6.53-8.0774 7.1244 7.5 0 0 1 7.6729 6.8743v0m0 0c25.358-42.277 76.13-1.4328 84.456-17.186m-84.075 22.17c13.127 48.052 70.631 21.264 74.443 38.839m-71.923-42.862c29.776-20.479 79.868 22.124 81.555-18.148m-9.6315 61.01c2.4486-30.304-64.357-14.978-72.093-40.284 25.246 22.473 66.216 25.734 74.922 14.964m0 0c2.2184-21.236-62.563-28.025-77.273-13.519m11.128-73.529a6.8524 7.5 0 0 1-5.6236 8.638 6.8524 7.5 0 0 1-7.8921-6.1551 6.8524 7.5 0 0 1 5.6236-8.638 6.8524 7.5 0 0 1 7.8921 6.1551v0m0 0c20.982-44.414 72.84-8.3112 79.582-24.76m-78.826 29.691c16.35 46.688 69.351 14.799 74.384 31.965m-72.285-36.2c26.926-23.096 78.271 14.821 76.726-25.455m-4.4417 61.655c-0.0318-30.414-62.847-9.1038-72.245-33.617 25.956 20.107 65.471 19.651 72.969 8.1341m0 0c0.45923-21.358-62.151-22.264-75.108-6.4819m7.3021-82.279a6.7618 7.5 0 0 1-5.5492 8.638 6.7618 7.5 0 0 1-7.7877-6.1551 6.7618 7.5 0 0 1 5.5492-8.638 6.7618 7.5 0 0 1 7.7877 6.1551v0m0 0c20.705-44.414 71.877-8.3112 78.53-24.76m-77.783 29.691c16.134 46.688 68.434 14.799 73.4 31.965m-71.329-36.2c26.57-23.096 77.235 14.821 75.712-25.455m-4.3829 61.655c-0.0314-30.414-62.016-9.1038-71.29-33.617 25.613 20.107 64.605 19.651 72.004 8.1341m0 0c0.45316-21.358-61.329-22.264-74.115-6.4819m-0.61688-70.649a6.924 7.5 0 0 1-5.4818 8.7888 6.924 7.5 0 0 1-8.1138-5.9378 6.924 7.5 0 0 1 5.4818-8.7888 6.924 7.5 0 0 1 8.1138 5.9378v0m0 0c20.172-44.973 73.387-10.296 79.819-26.923m-78.941 31.832c17.59 46.227 70.395 12.902 75.874 29.925m-73.85-34.216c26.667-23.823 79.405 12.68 76.918-27.541m-3.0676 61.757c-0.73212-30.403-63.693-7.3861-73.751-31.635 26.682 19.392 66.587 17.859 73.896 6.1405m0 0c-0.0277-21.364-63.293-20.561-76.019-4.4304m-75.003 422.41a7.7298 8.033 0 0 1-8.6145 6.9938 7.7298 8.033 0 0 1-6.7298-8.9524 7.7298 8.033 0 0 1 8.6145-6.9938 7.7298 8.033 0 0 1 6.7298 8.9524v0m0 0c35.714-38.606 81.208 15.762 93.322 1.1212m-93.95 4.1942c3.9902 53.393 70.658 38.328 71.067 57.632m-67.555-61.28c35.891-14.734 80.297 41.325 90.438-0.54564m-22.883 61.826c8.8842-31.239-65.294-30.31-68.269-58.615 22.173 29.303 65.039 42.016 76.525 32.691m0 0c6.7597-21.777-60.682-43.591-79.323-31.708m-29.437 64.735a7.6725 8.013 0 0 1-8.6114 6.8943 7.6725 8.013 0 0 1-6.6014-8.9936 7.6725 8.013 0 0 1 8.6114-6.8943 7.6725 8.013 0 0 1 6.6014 8.9936v0m0 0c35.786-38.169 80.465 16.492 92.617 2.0034m-93.287 3.2925c3.494 53.295 69.797 38.9 70.034 58.16m-66.516-61.765c35.752-14.356 79.338 41.981 89.769 0.3134m-23.253 61.452c9.091-31.076-64.543-30.852-67.249-59.113 21.752 29.439 64.188 42.526 75.67 33.333m0 0c6.8997-21.658-59.849-44.056-78.455-32.38m-36.445 62.887a7.8984 8.1522 0 0 1-9.7686 5.5913 7.8984 8.1522 0 0 1-5.417-10.083 7.8984 8.1522 0 0 1 9.7686-5.5911 7.8984 8.1522 0 0 1 5.417 10.082v0m0 0c41.975-32.814 79.539 29.179 94.014 16.5m-95.465-11.275c-4.174 54.177 65.425 50.06 62.873 69.478m-58.768-72.556c38.486-8.8558 74.694 54.653 91.36 14.353m-32.592 58.203c13.765-29.85-61.243-41.14-59.898-70.002 17.877 33.026 59.188 52.832 72.213 45.377m0 0c10.167-20.716-54.549-53.693-75.187-44.852m-46.546 63.696a8.0838 8.1217 0 0 1-10.525 4.4844 8.0838 8.1217 0 0 1-4.4634-10.574 8.0838 8.1217 0 0 1 10.525-4.4842 8.0838 8.1217 0 0 1 4.4634 10.574v0m0 0c46.141-27.976 77.917 37.499 93.971 26.5m-95.991-21.481c-9.8908 53.225 61.377 56.663 56.757 75.625m-52.258-78.231c40.094-4.6174 70.332 62.213 91.492 24.087m-39.234 54.144c17.119-28.087-58.05-47.373-53.675-75.823 14.756 34.651 54.74 58.735 68.774 52.755m0 0c12.506-19.426-49.929-59.087-71.856-52.557m-49.471 52.579a8.4145 8.7148 0 0 1-11.224 4.0936 8.4145 8.7148 0 0 1-3.9524-11.625 8.4145 8.7148 0 0 1 11.224-4.0934 8.4145 8.7148 0 0 1 3.9524 11.625v0m0 0c49.745-26.853 78.519 45.407 95.909 34.71m-98.332-29.47c-13.721 56.334 60.095 64.816 54.068 84.812m-49.226-87.3c41.952-2.2441 69.039 71.364 93.49 31.959m-44.264 55.342c19.603-28.926-57.24-54.644-50.853-84.816 13.087 38.103 53.066 66.588 68.032 61.13m0 0c14.25-19.961-48.045-66.641-71.247-61.125m-13.256-21.474c138.54-127.44 254.35-406.8 240.61-714.84m-222.43 865.7c8.1985-9.5924-2.3138-28.257-18.501-43.393m0 40c7.7382 5.0394 13.609 4.7074 18.501 3.3931m-18.501 21.607c5.3064-6.5242 4.3552-12.857 1.0034-19.872m-1.0034-45.128c17.689 18.562 31.778 36.964 48.471 14.665m-47.767-38.872c22.171 15.196 35.716 44.344 47.538 38.425m-47.928-347.38c88.672-105.99 107.12-197.83 126.14-289.79m-221.45-497.04c0 24.267 20 45.733 20 70s-20 45.733-20 70m2.2575 294.91c5.2318 18.46 17.743 35.901 17.743 55.094 0 24.267-20 45.733-20 70m1.1989-150.68c-0.44803 2.0815-0.78643 4.1784-0.98759 6.2945m-0.21134-275.62c0 24.267 20 45.733 20 70s-20 45.733-20 70c0 18.667 11.834 35.676 17.296 53.577m-17.296 226.42c0 24.267 20 45.733 20 70s-20 45.733-20 70 20 45.733 20 70-20 45.733-20 70 20 45.733 20 70-20 45.733-20 70 20 45.733 20 70-20 45.733-20 70 20 45.733 20 70-20 45.733-20 70 20 45.733 20 70c0 17.992-10.994 34.445-16.68 51.641m11.68-1381.6c0 24.267 20 45.733 20 70s-20 45.733-20 70m3.1474 297.83c5.6324 17.387 16.853 33.992 16.853 52.168 0 24.267-20 45.733-20 70m0-420c0 24.267 20 45.733 20 70s-20 45.733-20 70c0 18.209 11.261 34.842 16.883 52.264m-16.883 227.74c0 24.267 20 45.733 20 70s-20 45.733-20 70 20 45.733 20 70-20 45.733-20 70 20 45.733 20 70-20 45.733-20 70 20 45.733 20 70-20 45.733-20 70 20 45.733 20 70-20 45.733-20 70 20 45.733 20 70c0 8.7432-2.5962 17.123-5.9179 25.401m0.91787-1355.4c0 24.267 20 45.733 20 70s-20 45.733-20 70m2.7742 296.65c5.4926 17.818 17.226 34.761 17.226 53.348 0 24.267-20 45.733-20 70m0-420c0 24.267 20 45.733 20 70s-20 45.733-20 70c0 11.029 4.1308 21.479 8.6378 31.876m-8.6378 248.12c0 24.267 20 45.733 20 70s-20 45.733-20 70 20 45.733 20 70-20 45.733-20 70 20 45.733 20 70-20 45.733-20 70 20 45.733 20 70-20 45.733-20 70 20 45.733 20 70-20 45.733-20 70 20 45.733 20 70c0 1.5019-0.07661 2.9931-0.22035 4.4749m-64.78-1419.5h64.039m-64.039-15h48.85m-48.851-15 35.304 3e-6m-35.304-15h20.525m119.47 510c-29.951-0.0164-40.027-19.94-30-60-12.409 6.549-12.465-6.157-15-15 0 0-8.6946 11.232-18.695 26.232s-36.305-1.2315-21.305-21.232 16.464-26.464 20-30c5-5 25-5 45 0s55 50 55 50c-1.7036 40.187-7.5005 76.003-15 110-16.58 5.5609-33.036 6.4157-49.377 2.9016m-39.25-106.01c6.1568 2.2398 9.9326 5.2634 9.9326 8.5907 0 6.9036-16.254 12.5-36.305 12.5s-36.305-5.5964-36.305-12.5 16.254-12.5 36.305-12.5c3.5303 0 6.9429 0.17349 10.17 0.49704m19.83 39.019a35.858 12.5 0 0 1-35.858 12.5 35.858 12.5 0 0 1-35.858-12.5 35.858 12.5 0 0 1 35.858-12.5 35.858 12.5 0 0 1 35.858 12.5v0m-5 27.5a32.742 12.5 0 0 1-32.742 12.5 32.742 12.5 0 0 1-32.742-12.5 32.742 12.5 0 0 1 32.742-12.5 32.742 12.5 0 0 1 32.742 12.5v0m5 25a35 12.5 0 0 1-35 12.5 35 12.5 0 0 1-35-12.5 35 12.5 0 0 1 35-12.5 35 12.5 0 0 1 35 12.5v0m100-95c9.0119-6.6998 14.397-5.6167 20-5 6.6024 53.925-5.1859 88.42-15 125-13.357 3.3442-19.993-0.0197-20-10m35-115c30-10 58.099-28.711 95-20-0.46475 7.087-2.1946 12.971-4.9121 17.916-6.0992 11.098-17.174 17.466-30.088 22.084 21.582 3.6613 34.214 15.941 45 30-10.033 13.449-26.229 22.431-49.384 22.463 20.699 7.222 33.446 19.848 44.384 37.537-18.492 7.1526-37.007 14.354-50 10 19.289 27.697 26.761 54.112 21.773 74.31-29.698-18.115-61.71-51.734-86.773-69.31m88.591-147.14c-19.968 23.702-42.549 42.82-71.627 50.534l0.31369 2.0138c27.151 1.8201 53.022 6.8506 72.722 18.898-24.548 10.717-49.297 15.727-74.99 12.402l-0.1556 2.7532c23.305 9.2992 50.114 12.986 65.146 35.534-27.967 3.8533-49.066-2.1965-70.957-7.7295l-1.2798 4.9106c23.946 23.099 43.122 50.723 57.776 82.638m164.13-212.13c15.885-2.427 31.2-4.7178 41.922-6.1621m-111.07 16.601c2.789-0.30006 10.017-1.3616 19.685-2.8316m-71.397 11.031 47.735-19.89 3.637 2.7783c2.9536 71.307-0.24476 143.22-10.182 215.78l-62.98-16.795m54.034-195.47c0.589 4.5672 1.1198 9.1374 1.5936 13.711 6.1253 64.647 0.077 137.84-10.709 193.96m331.86-573.23c58.157 112.52 31.197 194.88 31.197 297.82 0 75 85 70 85 5 0-50-60-45.311-60-5 0 30 45 30 45 10 0-10-5-15-10-20m-65.66-286.73c57.06 112.34 23.728 200.9 30.66 296.73m-4.8097-294.93c48.26 98.566 16.053 183.26 20.658 266.39m5.5028-263.87c45.155 96.517 4.1456 179.67 15.029 261.38m11.356-258.23c41.294 93.23-4.038 170.6 9.7121 252.6m16.506-249.8c37.352 87.708-1.183 161.46 6.958 238.51m19.498-235.01c33.11 81.81 1.0719 151.58 4.6163 223.48m22.071-219.18c28.605 75.469 2.7201 140.8 2.6506 207.3m23.587-203.94c24.951 69.449 4.4075 130.39 1.6985 191.73m24.67-187.79c21.365 63.523 5.3286 120 1.0266 176.35m-143.53 144.64c22.861 3.1794 47.802-14.425 47.802-49.634 0-35.779-30.724-43.554-48.2-30.312m24.594 75.296c21.612 0.61862 43.606-16.92 43.606-49.984 0-35.174-29.693-43.284-47.303-30.966m31.792 70.333c18.682-3.4019 35.51-20.445 35.51-49.367 0-38.859-36.24-44.685-52.39-26.43m36.808 65.81c18.71-3.3713 35.582-20.421 35.582-49.38 0-39.224-36.924-44.792-52.84-25.909m37.676 65.212c18.543-3.5482 35.165-20.559 35.165-49.303 0-39-36.504-44.727-52.566-26.23m33.91 70.213c17.926-4.163 33.656-21.021 33.656-48.983 0-34.529-28.614-42.977-46.321-31.623m34.026 70.265c17.354-4.6846 32.295-21.39 32.295-48.641 0-39.087-36.667-44.753-52.673-26.106m40.274 64.775c17.398-4.6458 32.399-21.363 32.399-48.669 0-38.91-36.337-44.701-52.455-26.357m-474.06-197.91c-2.7952 20.021-8.4876 61.721-8.4876 69.266 0 10 5 30 5 40v70c0 30 67.094 152.09 75 160 15 15 63.177 34.874 85 30 15.768-3.5218 96.225-30.183 127.66-63.115m-295.08-304.66c-19.308 60.437-16.473 124.92-22.576 187.77-1.7327 17.844-25.582 26.283-30 0m60-5c-10 50-80 60-80 15 0-43.271 50-40 50-15m21.642 21.232c-15 25 12.013 83.236 3.358 103.77-9.923 23.54-55 30-60 0-2.5994-15.596 15-20 15-20m42.947-20c-2.8741 48.281-28.151 45.347-37.947 45-14.991-0.53075-15-15-5-25m65.624-61.475c4.0311 25.81 0.4386 70.852-0.62369 81.475-5 50-90 50-95 5s58.774-61.204 55-25c-3.5436 33.995-49.455 27.568-25 0m140-5c5 10 20 20 40 10m-55-25 15-5c5 0 5 5 15 5s10-5 20-5 5 5 15 5 15-5 15-5m-155-190c11.318-14.134 56.376-43.415 80-10-1.3994-1.4957 1.2769 6.5388 0 5-25.008-30.136-66.371-7.7827-80 5v0m240 10c-5.4377-6.7904-22.697-30.539-45-35-25-5-40 0-59.073 15.401 1.3994-1.4957-1.4116 6.4162 0 5 34.343-34.454 95.161-8.3653 104.07 14.599v0m-160-15c18.673 51.658 0 74.505 0 100 0 15-6.0953 35.06-5 45 1.5946 14.471 15 15 20 25m45-10c-10-10-55-5-20 0s35-7.9289 35-15c0-5-5-15-15-15m-5-80s15-20 35-20 45 25 80 25c-30 0-50.011 9.3227-70 10-20.501 0.69467-35-15-45-15m-135-10c15-10 25-15 40-10s45 20 45 20m0 0c-20 5-40 15-55 15-14.142 0-30-20-30-20m-143.53-260 123.53 150c180.66-37.466 351.91-15.7 520 10l133.33-160m-116.54 139.3-13.317-2.0362c-105.3-16.1-212.93-30.902-324.06-30.361-66.681 0.32424-134.62 6.1715-204.08 20.576l-12.231 2.5372m-69.053-84.328c-67.294 8.8818-51.956 101.49-109.05 144.31 93.311 27.993 143.09-35.437 161.52-80.608m-161.52 80.608c59.989 9.2291 94.425-79.494 134.75-112.88m0.24728 52.881c3.6219-15.522-0.58651-31.178-6.6949-46.867m-48.305 1.867c18.364-7.9027 33.498-4.9099 48.503-1.4806m-63.503 36.481c13.663-9.2958 27.374-11.325 41.122-10.975m8.8776 45.975c3.2673-4.481-3.3935-36.023-7.7136-46.574m-57.286 46.574c11.905-7.5334 22.973-11.691 33.555-13.886m1.4455 33.886c0.69037-8.7316 0.61527-23.442-1.6162-34.617m-48.384 29.617c7.2696-1.2864 13.646-0.61252 19.568 1.0559m0.4318 13.944c4.4846-6.2535 3.9338-11.496 1.8001-16.426" fill="none" stroke="#44f" stroke-linecap="round" stroke-linejoin="round" stroke-width="6"/>
</g>
<g transform="matrix(-.12677 0 0 -.1304 46.068 95.408)">
<path d="m921.56 121.33-25.06-3.8309c-105.51-16.132-214.3-31.175-327.25-30.609-67.768 0.33935-137.03 6.2984-207.98 21.012l-22.184 4.5999m85.916 302.5c5 25 5 75-30 85s-70-15-70-15m-215-6.5517v-318.45m-110 1500 110-110v-984.52m-0.048 858.32c314.13-261.1 358.27-584.62 369.29-928.33m-123.51 622.64c243.05-83.732 335.92-451.87 708.25-418.67m-726.18 453.23c139.58-35.032 229.01-152.45 327.12-251.73 98.724-99.899 202.37-184.19 377.15-175m-590.06-256.71c-9.5714 344.57-44.636 659.99-342.01 917.98m965-913.27v213.59m-20-223.45v234.33m-20-242.95v241.94m-130-276.62v290.56m-20-293.64v299.59m3.3515-299.04c165.34 24.801 232.03 75.754 301.7 142.32m-778.94 424.69c28.188 14.13 52.952 32.587 77.586 51.208m-63.621-101.33c39.019 20.444 70.871 43.709 100.96 67.668m-94.368-94.825c43.893 20.069 81.163 46.299 117.27 73.608m-109.74-107.91c45.425 18.698 84.554 43.2 120.34 70.782m-83.785-358.38 104.24 58.92 305.05-159.79m-411.36 122.78 106.31 62.012 305.08-159.8m-413.02 126.29 112.94 58.511 299.97-159.66m-324.97 146.82v262.41m20-252.54v257.33m20-262.41v240.49m130-309.62v185.68m20-196.25v180.72m20-191.08v176.71m-291.71-246 91.715 52.408 319.2-161.73m-204.2 346.73a20 20 0 0 0-20-20 20 20 0 0 0-20 20 20 20 0 0 0 20 20 20 20 0 0 0 20-20v0m-40-20c-15-30 10-25 20-20 10-5 35-10 20 20 30-15 25 10 20 20 5 10 10.599 34.355-20 20 15 30-10 25-20 20-10 5-35 10-20-20-30 15-25-10-20-20-5-10-10-35 20-20v0m-23.778 159.55c0.05944-5.039 1.9188-10.832 3.7782-14.551-5-10-10-35 20-20-15-30 10-25 20-20 3.9329-1.9665 10.186-3.9329 15.413-3.7702m-25.481-188.94c2.957 1.7261 6.3969 2.7151 10.068 2.7151 10.345 0 18.856-7.8547 19.894-17.926m23.576-13.042c-0.61177 4.0251-2.041 8.1092-3.4702 10.968 5 10 10.599 34.355-20 20 15 30-10 25-20 20-9.483 4.7415-32.455 9.483-22.013-15.623m-240.49 343.95 67.145 44.763m435.72-620.05 129.76 194.65m0.2333-0.73227-47.642 71.463m-81.899-64.693 45.682 68.523m68.494-252.24c-38.213 57.32-77.156 115.73-114.01 171.02m-0.43254 53.762 21.318 31.977m89.298-9.553 18.834-28.25m-596.07 331.71 12.606-23.725c12.105-20.216 39.571-3.424 28.547 17.131l-14.461 24.478m14.461-24.478c12.105-20.216 37.365-2.3566 26.341 18.198l-12.107 20.494m-83.201-47.52 14.081-26.502c12.105-20.216 37.365-2.3564 26.341 18.198m-381.53-489.88v-287.07h-70m70 366.09v-11.905m0 64.245v-40.025m-70 1021.6 70-70v-898.64m-70-471.36h140l-140-157.5m0 127.5h80l-80-80m315 845a7.5 7.5 0 0 1-7.5 7.5 7.5 7.5 0 0 1-7.5-7.5 7.5 7.5 0 0 1 7.5-7.5 7.5 7.5 0 0 1 7.5 7.5v0m0 0c30-40 80 5 90-10m-90 15c9.9202 49.006 72.409 27.159 75 45m-72.033-48.796c32.887-17.899 82.033 28.796 87.033-11.204m-15 60c5-30-66.33-20.364-72.418-46.242 24.689 24.532 67.418 31.242 77.418 21.242m0 0c4.0311-20.98-63.401-33.217-80-20m17.448-74.874a7.4603 7.5 0 0 1-7.0219 7.9163 7.4603 7.5 0 0 1-7.8744-7.0592 7.4603 7.5 0 0 1 7.0219-7.9163 7.4603 7.5 0 0 1 7.8744 7.0592v0m0 0c27.519-41.649 79.731 0.42097 88.809-15.126m-88.525 20.118c12.637 48.359 73.452 22.978 77.039 40.641m-74.308-44.601c31.642-19.749 83.102 24.062 85.794-16.158m-11.486 60.759c3.2604-30.237-67.029-16.541-74.545-42.029 25.912 23.081 68.727 27.339 78.089 16.784m0 0c2.8108-21.176-64.85-29.54-80.583-15.396m14.369-81.813a7.1244 7.5 0 0 1-6.53 8.0774 7.1244 7.5 0 0 1-7.6729-6.8743 7.1244 7.5 0 0 1 6.53-8.0774 7.1244 7.5 0 0 1 7.6729 6.8743v0m0 0c25.358-42.277 76.13-1.4328 84.456-17.186m-84.075 22.17c13.127 48.052 70.631 21.264 74.443 38.839m-71.923-42.862c29.776-20.479 79.868 22.124 81.555-18.148m-9.6315 61.01c2.4486-30.304-64.357-14.978-72.093-40.284 25.246 22.473 66.216 25.734 74.922 14.964m0 0c2.2184-21.236-62.563-28.025-77.273-13.519m11.128-73.529a6.8524 7.5 0 0 1-5.6236 8.638 6.8524 7.5 0 0 1-7.8921-6.1551 6.8524 7.5 0 0 1 5.6236-8.638 6.8524 7.5 0 0 1 7.8921 6.1551v0m0 0c20.982-44.414 72.84-8.3112 79.582-24.76m-78.826 29.691c16.35 46.688 69.351 14.799 74.384 31.965m-72.285-36.2c26.926-23.096 78.271 14.821 76.726-25.455m-4.4417 61.655c-0.0318-30.414-62.847-9.1038-72.245-33.617 25.956 20.107 65.471 19.651 72.969 8.1341m0 0c0.45923-21.358-62.151-22.264-75.108-6.4819m7.3021-82.279a6.7618 7.5 0 0 1-5.5492 8.638 6.7618 7.5 0 0 1-7.7877-6.1551 6.7618 7.5 0 0 1 5.5492-8.638 6.7618 7.5 0 0 1 7.7877 6.1551v0m0 0c20.705-44.414 71.877-8.3112 78.53-24.76m-77.783 29.691c16.134 46.688 68.434 14.799 73.4 31.965m-71.329-36.2c26.57-23.096 77.235 14.821 75.712-25.455m-4.3829 61.655c-0.0314-30.414-62.016-9.1038-71.29-33.617 25.613 20.107 64.605 19.651 72.004 8.1341m0 0c0.45316-21.358-61.329-22.264-74.115-6.4819m-0.61688-70.649a6.924 7.5 0 0 1-5.4818 8.7888 6.924 7.5 0 0 1-8.1138-5.9378 6.924 7.5 0 0 1 5.4818-8.7888 6.924 7.5 0 0 1 8.1138 5.9378v0m0 0c20.172-44.973 73.387-10.296 79.819-26.923m-78.941 31.832c17.59 46.227 70.395 12.902 75.874 29.925m-73.85-34.216c26.667-23.823 79.405 12.68 76.918-27.541m-3.0676 61.757c-0.73212-30.403-63.693-7.3861-73.751-31.635 26.682 19.392 66.587 17.859 73.896 6.1405m0 0c-0.0277-21.364-63.293-20.561-76.019-4.4304m-75.003 422.41a7.7298 8.033 0 0 1-8.6145 6.9938 7.7298 8.033 0 0 1-6.7298-8.9524 7.7298 8.033 0 0 1 8.6145-6.9938 7.7298 8.033 0 0 1 6.7298 8.9524v0m0 0c35.714-38.606 81.208 15.762 93.322 1.1212m-93.95 4.1942c3.9902 53.393 70.658 38.328 71.067 57.632m-67.555-61.28c35.891-14.734 80.297 41.325 90.438-0.54564m-22.883 61.826c8.8842-31.239-65.294-30.31-68.269-58.615 22.173 29.303 65.039 42.016 76.525 32.691m0 0c6.7597-21.777-60.682-43.591-79.323-31.708m-29.437 64.735a7.6725 8.013 0 0 1-8.6114 6.8943 7.6725 8.013 0 0 1-6.6014-8.9936 7.6725 8.013 0 0 1 8.6114-6.8943 7.6725 8.013 0 0 1 6.6014 8.9936v0m0 0c35.786-38.169 80.465 16.492 92.617 2.0034m-93.287 3.2925c3.494 53.295 69.797 38.9 70.034 58.16m-66.516-61.765c35.752-14.356 79.338 41.981 89.769 0.3134m-23.253 61.452c9.091-31.076-64.543-30.852-67.249-59.113 21.752 29.439 64.188 42.526 75.67 33.333m0 0c6.8997-21.658-59.849-44.056-78.455-32.38m-36.445 62.887a7.8984 8.1522 0 0 1-9.7686 5.5913 7.8984 8.1522 0 0 1-5.417-10.083 7.8984 8.1522 0 0 1 9.7686-5.5911 7.8984 8.1522 0 0 1 5.417 10.082v0m0 0c41.975-32.814 79.539 29.179 94.014 16.5m-95.465-11.275c-4.174 54.177 65.425 50.06 62.873 69.478m-58.768-72.556c38.486-8.8558 74.694 54.653 91.36 14.353m-32.592 58.203c13.765-29.85-61.243-41.14-59.898-70.002 17.877 33.026 59.188 52.832 72.213 45.377m0 0c10.167-20.716-54.549-53.693-75.187-44.852m-46.546 63.696a8.0838 8.1217 0 0 1-10.525 4.4844 8.0838 8.1217 0 0 1-4.4634-10.574 8.0838 8.1217 0 0 1 10.525-4.4842 8.0838 8.1217 0 0 1 4.4634 10.574v0m0 0c46.141-27.976 77.917 37.499 93.971 26.5m-95.991-21.481c-9.8908 53.225 61.377 56.663 56.757 75.625m-52.258-78.231c40.094-4.6174 70.332 62.213 91.492 24.087m-39.234 54.144c17.119-28.087-58.05-47.373-53.675-75.823 14.756 34.651 54.74 58.735 68.774 52.755m0 0c12.506-19.426-49.929-59.087-71.856-52.557m-49.471 52.579a8.4145 8.7148 0 0 1-11.224 4.0936 8.4145 8.7148 0 0 1-3.9524-11.625 8.4145 8.7148 0 0 1 11.224-4.0934 8.4145 8.7148 0 0 1 3.9524 11.625v0m0 0c49.745-26.853 78.519 45.407 95.909 34.71m-98.332-29.47c-13.721 56.334 60.095 64.816 54.068 84.812m-49.226-87.3c41.952-2.2441 69.039 71.364 93.49 31.959m-44.264 55.342c19.603-28.926-57.24-54.644-50.853-84.816 13.087 38.103 53.066 66.588 68.032 61.13m0 0c14.25-19.961-48.045-66.641-71.247-61.125m-13.256-21.474c138.54-127.44 254.35-406.8 240.61-714.84m-222.43 865.7c8.1985-9.5924-2.3138-28.257-18.501-43.393m0 40c7.7382 5.0394 13.609 4.7074 18.501 3.3931m-18.501 21.607c5.3064-6.5242 4.3552-12.857 1.0034-19.872m-1.0034-45.128c17.689 18.562 31.778 36.964 48.471 14.665m-47.767-38.872c22.171 15.196 35.716 44.344 47.538 38.425m-47.928-347.38c88.672-105.99 107.12-197.83 126.14-289.79m-221.45-497.04c0 24.267 20 45.733 20 70s-20 45.733-20 70m2.2575 294.91c5.2318 18.46 17.743 35.901 17.743 55.094 0 24.267-20 45.733-20 70m1.1989-150.68c-0.44803 2.0815-0.78643 4.1784-0.98759 6.2945m-0.21134-275.62c0 24.267 20 45.733 20 70s-20 45.733-20 70c0 18.667 11.834 35.676 17.296 53.577m-17.296 226.42c0 24.267 20 45.733 20 70s-20 45.733-20 70 20 45.733 20 70-20 45.733-20 70 20 45.733 20 70-20 45.733-20 70 20 45.733 20 70-20 45.733-20 70 20 45.733 20 70-20 45.733-20 70 20 45.733 20 70c0 17.992-10.994 34.445-16.68 51.641m11.68-1381.6c0 24.267 20 45.733 20 70s-20 45.733-20 70m3.1474 297.83c5.6324 17.387 16.853 33.992 16.853 52.168 0 24.267-20 45.733-20 70m0-420c0 24.267 20 45.733 20 70s-20 45.733-20 70c0 18.209 11.261 34.842 16.883 52.264m-16.883 227.74c0 24.267 20 45.733 20 70s-20 45.733-20 70 20 45.733 20 70-20 45.733-20 70 20 45.733 20 70-20 45.733-20 70 20 45.733 20 70-20 45.733-20 70 20 45.733 20 70-20 45.733-20 70 20 45.733 20 70c0 8.7432-2.5962 17.123-5.9179 25.401m0.91787-1355.4c0 24.267 20 45.733 20 70s-20 45.733-20 70m2.7742 296.65c5.4926 17.818 17.226 34.761 17.226 53.348 0 24.267-20 45.733-20 70m0-420c0 24.267 20 45.733 20 70s-20 45.733-20 70c0 11.029 4.1308 21.479 8.6378 31.876m-8.6378 248.12c0 24.267 20 45.733 20 70s-20 45.733-20 70 20 45.733 20 70-20 45.733-20 70 20 45.733 20 70-20 45.733-20 70 20 45.733 20 70-20 45.733-20 70 20 45.733 20 70-20 45.733-20 70 20 45.733 20 70c0 1.5019-0.07661 2.9931-0.22035 4.4749m-64.78-1419.5h64.039m-64.039-15h48.85m-48.851-15 35.304 3e-6m-35.304-15h20.525m119.47 510c-29.951-0.0164-40.027-19.94-30-60-12.409 6.549-12.465-6.157-15-15 0 0-8.6946 11.232-18.695 26.232s-36.305-1.2315-21.305-21.232 16.464-26.464 20-30c5-5 25-5 45 0s55 50 55 50c-1.7036 40.187-7.5005 76.003-15 110-16.58 5.5609-33.036 6.4157-49.377 2.9016m-39.25-106.01c6.1568 2.2398 9.9326 5.2634 9.9326 8.5907 0 6.9036-16.254 12.5-36.305 12.5s-36.305-5.5964-36.305-12.5 16.254-12.5 36.305-12.5c3.5303 0 6.9429 0.17349 10.17 0.49704m19.83 39.019a35.858 12.5 0 0 1-35.858 12.5 35.858 12.5 0 0 1-35.858-12.5 35.858 12.5 0 0 1 35.858-12.5 35.858 12.5 0 0 1 35.858 12.5v0m-5 27.5a32.742 12.5 0 0 1-32.742 12.5 32.742 12.5 0 0 1-32.742-12.5 32.742 12.5 0 0 1 32.742-12.5 32.742 12.5 0 0 1 32.742 12.5v0m5 25a35 12.5 0 0 1-35 12.5 35 12.5 0 0 1-35-12.5 35 12.5 0 0 1 35-12.5 35 12.5 0 0 1 35 12.5v0m100-95c9.0119-6.6998 14.397-5.6167 20-5 6.6024 53.925-5.1859 88.42-15 125-13.357 3.3442-19.993-0.0197-20-10m35-115c30-10 58.099-28.711 95-20-0.46475 7.087-2.1946 12.971-4.9121 17.916-6.0992 11.098-17.174 17.466-30.088 22.084 21.582 3.6613 34.214 15.941 45 30-10.033 13.449-26.229 22.431-49.384 22.463 20.699 7.222 33.446 19.848 44.384 37.537-18.492 7.1526-37.007 14.354-50 10 19.289 27.697 26.761 54.112 21.773 74.31-29.698-18.115-61.71-51.734-86.773-69.31m88.591-147.14c-19.968 23.702-42.549 42.82-71.627 50.534l0.31369 2.0138c27.151 1.8201 53.022 6.8506 72.722 18.898-24.548 10.717-49.297 15.727-74.99 12.402l-0.1556 2.7532c23.305 9.2992 50.114 12.986 65.146 35.534-27.967 3.8533-49.066-2.1965-70.957-7.7295l-1.2798 4.9106c23.946 23.099 43.122 50.723 57.776 82.638m164.13-212.13c15.885-2.427 31.2-4.7178 41.922-6.1621m-111.07 16.601c2.789-0.30006 10.017-1.3616 19.685-2.8316m-71.397 11.031 47.735-19.89 3.637 2.7783c2.9536 71.307-0.24476 143.22-10.182 215.78l-62.98-16.795m54.034-195.47c0.589 4.5672 1.1198 9.1374 1.5936 13.711 6.1253 64.647 0.077 137.84-10.709 193.96m331.86-573.23c58.157 112.52 31.197 194.88 31.197 297.82 0 75 85 70 85 5 0-50-60-45.311-60-5 0 30 45 30 45 10 0-10-5-15-10-20m-65.66-286.73c57.06 112.34 23.728 200.9 30.66 296.73m-4.8097-294.93c48.26 98.566 16.053 183.26 20.658 266.39m5.5028-263.87c45.155 96.517 4.1456 179.67 15.029 261.38m11.356-258.23c41.294 93.23-4.038 170.6 9.7121 252.6m16.506-249.8c37.352 87.708-1.183 161.46 6.958 238.51m19.498-235.01c33.11 81.81 1.0719 151.58 4.6163 223.48m22.071-219.18c28.605 75.469 2.7201 140.8 2.6506 207.3m23.587-203.94c24.951 69.449 4.4075 130.39 1.6985 191.73m24.67-187.79c21.365 63.523 5.3286 120 1.0266 176.35m-143.53 144.64c22.861 3.1794 47.802-14.425 47.802-49.634 0-35.779-30.724-43.554-48.2-30.312m24.594 75.296c21.612 0.61862 43.606-16.92 43.606-49.984 0-35.174-29.693-43.284-47.303-30.966m31.792 70.333c18.682-3.4019 35.51-20.445 35.51-49.367 0-38.859-36.24-44.685-52.39-26.43m36.808 65.81c18.71-3.3713 35.582-20.421 35.582-49.38 0-39.224-36.924-44.792-52.84-25.909m37.676 65.212c18.543-3.5482 35.165-20.559 35.165-49.303 0-39-36.504-44.727-52.566-26.23m33.91 70.213c17.926-4.163 33.656-21.021 33.656-48.983 0-34.529-28.614-42.977-46.321-31.623m34.026 70.265c17.354-4.6846 32.295-21.39 32.295-48.641 0-39.087-36.667-44.753-52.673-26.106m40.274 64.775c17.398-4.6458 32.399-21.363 32.399-48.669 0-38.91-36.337-44.701-52.455-26.357m-474.06-197.91c-2.7952 20.021-8.4876 61.721-8.4876 69.266 0 10 5 30 5 40v70c0 30 67.094 152.09 75 160 15 15 63.177 34.874 85 30 15.768-3.5218 96.225-30.183 127.66-63.115m-295.08-304.66c-19.308 60.437-16.473 124.92-22.576 187.77-1.7327 17.844-25.582 26.283-30 0m60-5c-10 50-80 60-80 15 0-43.271 50-40 50-15m21.642 21.232c-15 25 12.013 83.236 3.358 103.77-9.923 23.54-55 30-60 0-2.5994-15.596 15-20 15-20m42.947-20c-2.8741 48.281-28.151 45.347-37.947 45-14.991-0.53075-15-15-5-25m65.624-61.475c4.0311 25.81 0.4386 70.852-0.62369 81.475-5 50-90 50-95 5s58.774-61.204 55-25c-3.5436 33.995-49.455 27.568-25 0m140-5c5 10 20 20 40 10m-55-25 15-5c5 0 5 5 15 5s10-5 20-5 5 5 15 5 15-5 15-5m-155-190c11.318-14.134 56.376-43.415 80-10-1.3994-1.4957 1.2769 6.5388 0 5-25.008-30.136-66.371-7.7827-80 5v0m240 10c-5.4377-6.7904-22.697-30.539-45-35-25-5-40 0-59.073 15.401 1.3994-1.4957-1.4116 6.4162 0 5 34.343-34.454 95.161-8.3653 104.07 14.599v0m-160-15c18.673 51.658 0 74.505 0 100 0 15-6.0953 35.06-5 45 1.5946 14.471 15 15 20 25m45-10c-10-10-55-5-20 0s35-7.9289 35-15c0-5-5-15-15-15m-5-80s15-20 35-20 45 25 80 25c-30 0-50.011 9.3227-70 10-20.501 0.69467-35-15-45-15m-135-10c15-10 25-15 40-10s45 20 45 20m0 0c-20 5-40 15-55 15-14.142 0-30-20-30-20m-143.53-260 123.53 150c180.66-37.466 351.91-15.7 520 10l133.33-160m-116.54 139.3-13.317-2.0362c-105.3-16.1-212.93-30.902-324.06-30.361-66.681 0.32424-134.62 6.1715-204.08 20.576l-12.231 2.5372m-69.053-84.328c-67.294 8.8818-51.956 101.49-109.05 144.31 93.311 27.993 143.09-35.437 161.52-80.608m-161.52 80.608c59.989 9.2291 94.425-79.494 134.75-112.88m0.24728 52.881c3.6219-15.522-0.58651-31.178-6.6949-46.867m-48.305 1.867c18.364-7.9027 33.498-4.9099 48.503-1.4806m-63.503 36.481c13.663-9.2958 27.374-11.325 41.122-10.975m8.8776 45.975c3.2673-4.481-3.3935-36.023-7.7136-46.574m-57.286 46.574c11.905-7.5334 22.973-11.691 33.555-13.886m1.4455 33.886c0.69037-8.7316 0.61527-23.442-1.6162-34.617m-48.384 29.617c7.2696-1.2864 13.646-0.61252 19.568 1.0559m0.4318 13.944c4.4846-6.2535 3.9338-11.496 1.8001-16.426" fill="none" stroke="#44f" stroke-linecap="round" stroke-linejoin="round" stroke-width="6"/>
</g>
<g transform="matrix(.12677 0 0 .1304 -118.73 -165.39)">
<path d="m524.94 513.72 45.058 26.284 126.33-61.127m-635.2 56.167c-6.9525 8.5234-6.1315 13.187-1.5591 20.414m-2.1355 7.2952c-6.9525 8.5234-6.1315 13.187-1.5591 20.414m-1.5198 7.5004c-6.9525 8.5234-6.1315 13.187-1.5591 20.414m8.5377 4.4216c-6.9525 8.5234-6.1315 13.187-1.5591 20.414m-24.778-95.914c-3.9892 5.3279-1.1361 7.2347 0 10m-0.82102 17.915c-3.9892 5.3279-1.1361 7.2347 0 10m-2.6683 18.12c-3.9892 5.3279-1.1361 7.2347 0 10m-0.20526 14.631c-3.9892 5.3279-1.1361 7.2347 0 10m28.695-125.67c5 5-5 25-5 25m340-280c15-20 25-20 40-20s40 20 40 20m60 5c15-20 27.855-25.694 45-25 12.009 0.48604 30 15 30 15m-179.85 0.27223c2.9824 3.6554 4.8515 8.9006 4.8515 14.728 0 11.046-6.7157 20-15 20s-15-8.9543-15-20c0-6.1904 2.1093-11.724 5.4219-15.392m162.6 5.46c1.2582 2.9264 1.9775 6.3174 1.9775 9.9324 0 11.046-6.7157 20-15 20-8.2843 0-15.871-6.0516-15.871-17.097 0-6.3721 2.235-12.048 5.7168-15.711m60.154 262.81 78.911-37.135m-73.911 27.135 69.819-32.856m-204.82-7.1442c10.058-6.0494 25 0 35 5" fill="none" stroke="#44f" stroke-linecap="round" stroke-linejoin="round" stroke-width="3"/>
<g transform="matrix(.0625 0 0 .06075 504.5 728.49)">
<path d="m30 150c5 235 55 250 100 350h-260c45-100 95-115 100-350a10 10 0 0 0-20 0 210 210 0 1 1-74-201 10 10 0 0 0 14-14 230 230 0 1 1 220 0 10 10 0 0 0 14 14 210 210 0 1 1-74 201 10 10 0 0 0-20 0z"/>
</g>
<g transform="matrix(.0625 0 0 .06075 504.5 844.49)">
<path d="m30 150c5 235 55 250 100 350h-260c45-100 95-115 100-350a10 10 0 0 0-20 0 210 210 0 1 1-74-201 10 10 0 0 0 14-14 230 230 0 1 1 220 0 10 10 0 0 0 14 14 210 210 0 1 1-74 201 10 10 0 0 0-20 0z"/>
</g>
<g transform="matrix(.0625 0 0 .06075 826.5 643.49)">
<path d="m30 150c5 235 55 250 100 350h-260c45-100 95-115 100-350a10 10 0 0 0-20 0 210 210 0 1 1-74-201 10 10 0 0 0 14-14 230 230 0 1 1 220 0 10 10 0 0 0 14 14 210 210 0 1 1-74 201 10 10 0 0 0-20 0z"/>
</g>
</g>
<g transform="matrix(-.12677 0 0 -.1304 46.068 95.408)">
<path d="m524.94 513.72 45.058 26.284 126.33-61.127m-635.2 56.167c-6.9525 8.5234-6.1315 13.187-1.5591 20.414m-2.1355 7.2952c-6.9525 8.5234-6.1315 13.187-1.5591 20.414m-1.5198 7.5004c-6.9525 8.5234-6.1315 13.187-1.5591 20.414m8.5377 4.4216c-6.9525 8.5234-6.1315 13.187-1.5591 20.414m-24.778-95.914c-3.9892 5.3279-1.1361 7.2347 0 10m-0.82102 17.915c-3.9892 5.3279-1.1361 7.2347 0 10m-2.6683 18.12c-3.9892 5.3279-1.1361 7.2347 0 10m-0.20526 14.631c-3.9892 5.3279-1.1361 7.2347 0 10m28.695-125.67c5 5-5 25-5 25m340-280c15-20 25-20 40-20s40 20 40 20m60 5c15-20 27.855-25.694 45-25 12.009 0.48604 30 15 30 15m-179.85 0.27223c2.9824 3.6554 4.8515 8.9006 4.8515 14.728 0 11.046-6.7157 20-15 20s-15-8.9543-15-20c0-6.1904 2.1093-11.724 5.4219-15.392m162.6 5.46c1.2582 2.9264 1.9775 6.3174 1.9775 9.9324 0 11.046-6.7157 20-15 20-8.2843 0-15.871-6.0516-15.871-17.097 0-6.3721 2.235-12.048 5.7168-15.711m60.154 262.81 78.911-37.135m-73.911 27.135 69.819-32.856m-204.82-7.1442c10.058-6.0494 25 0 35 5" fill="none" stroke="#44f" stroke-linecap="round" stroke-linejoin="round" stroke-width="3"/>
<g transform="matrix(.0625 0 0 .06075 504.5 728.49)">
<path d="m30 150c5 235 55 250 100 350h-260c45-100 95-115 100-350a10 10 0 0 0-20 0 210 210 0 1 1-74-201 10 10 0 0 0 14-14 230 230 0 1 1 220 0 10 10 0 0 0 14 14 210 210 0 1 1-74 201 10 10 0 0 0-20 0z"/>
</g>
<g transform="matrix(.0625 0 0 .06075 504.5 844.49)">
<path d="m30 150c5 235 55 250 100 350h-260c45-100 95-115 100-350a10 10 0 0 0-20 0 210 210 0 1 1-74-201 10 10 0 0 0 14-14 230 230 0 1 1 220 0 10 10 0 0 0 14 14 210 210 0 1 1-74 201 10 10 0 0 0-20 0z"/>
</g>
<g transform="matrix(.0625 0 0 .06075 826.5 643.49)">
<path d="m30 150c5 235 55 250 100 350h-260c45-100 95-115 100-350a10 10 0 0 0-20 0 210 210 0 1 1-74-201 10 10 0 0 0 14-14 230 230 0 1 1 220 0 10 10 0 0 0 14 14 210 210 0 1 1-74 201 10 10 0 0 0-20 0z"/>
</g>
</g>
</svg>
