<?xml version="1.0" encoding="UTF-8"?>
<svg width="100%" height="100%" version="1.1" viewBox="-120 -168 165.58 261.58" xmlns="http://www.w3.org/2000/svg">
<g transform="matrix(.12677 0 0 .1304 -119.61 -167.61)">
<path d="m798.12 0 198.03 316.93c30.485-16.067 60.625-26.799 98.85-11.934-29.752-93.653-66.268-185.7 11.684-305zm-303.18 58.916c-67.134 89.21-137.18 256.44-209.18 473.76l15.621-9.0371-18.012 10.963c89.61 62.08 188.59 99.795 291.5 113.72 29.424 82.442 45.915 177.7 53.135 263.44 16.143 5.1103 33.435 11.684 51.535 19.52 42.503 18.4 67.673 23.563 85.709 23.795 4.5344-101.69 14.779-219.61 49.416-315.82l-2.0723 0.0781c63.317-13.023 126.57-34.417 188.58-64.102l-19.453-18.438c-230.69 107.48-475.36 97.049-674.77-36.377l116.44-67.357c26.775-78.128 53.874-148.55 80.727-209.18-4.718-36.806-9.1211-75.756-9.1211-83.883zm770.05 456.08c-52.303 7.9422-64.694 51.592-55 115 61.95-13.835 19.389-83.158 55-115zm-1019.5 53.699c-24.812 25.295-42.278 53.292-50.633 79.777-1.6648 5.2776-2.9824 10.587-3.8789 15.51-4.7555-3.9128-11.305-10.163-20.195-24.133-7.0711 7.0711-17.678 24.747-10.607 31.818-7.0711-7.0711-24.747 3.5364-31.818 10.607 18.902 12.028 23.67 19.774 26.979 24.881-7.9094 0.93628-16.217 2.6888-24.447 5.2852-27.12 8.5551-55.826 26.661-81.592 52.428-22.945 22.945-39.797 48.219-49.258 72.631v38.625c2.5486-0.53117 5.1396-0.85186 7.7422-0.94532 11.409-0.40965 23.007 3.4602 31.945 12.398 17.876 17.876 15.482 46.389-0.88477 62.756-10.096 10.096-24.812 14.864-38.803 12.846v67.809c7.3753-12.244 13.046-24.569 16.836-36.584 2.1293-6.7499 3.6888-13.551 4.8848-20.703 5.2249 2.7753 12.545 8.3937 23.27 25.246 7.0711-7.071 17.678-24.747 10.607-31.818 7.0711 7.0711 24.747-3.5363 31.818-10.607-15.693-9.9864-21.644-17.02-24.803-21.869 6.161-0.882 12.195-2.324 18.189-4.2148 27.12-8.5551 55.826-26.663 81.592-52.43 25.766-25.766 43.875-54.474 52.43-81.594 2.5652-8.132 4.306-16.336 4.9727-24.494 4.7704 2.979 12.655 7.3247 25.193 27.027 7.0711-7.0711 17.678-24.747 10.607-31.818 7.0711 7.0711 24.747-3.5364 31.818-10.607-14.14-8.9985-20.371-15.601-23.975-20.322 5.0644-0.84537 10.223-2.134 15.352-3.752 14.918-4.7058 30.315-12.303 45.439-22.475-155.46 181.18-124.46 482.7-166.28 612.26 0 0 17.157 27.767 22.342 13.207 10.084-28.318 15.252-61.986 20.088-99.738 7.3221-57.164 12.255-123.79 22.188-192.23 19.164-132.07 56.757-268.63 159.93-356.36l-3.7676-29.156 10.914-8.6894-30.338-13.59c-5.9017 7.8415-12.634 15.636-20.137 23.139-23.012 23.012-48.755 38.775-70.236 45.551-3.5066 1.1062-6.8368 1.9625-9.8652 1.9551 9.7394-9.0772 12.905-20.867 60.166-59.391-6.4818-6.4818-26.516-12.375-40.658 1.7676 14.142-14.142 8.2494-34.176 1.7676-40.658-39.746 48.761-51.035 50.583-59.947 61.477 0.24766-3.144 1.2061-7.0368 2.5117-11.176 6.7761-21.481 22.538-47.224 45.551-70.236 0.64983-0.64983 1.303-1.2934 1.957-1.9316zm865.96 8.8477c-10.264-0.13388-20.856 2.108-31.414 7.4531 46.039-3.5732 39.697 80.56 115 60-8.1179-29.829-43.319-66.928-83.586-67.453zm-79.525 25.834c-25.484 49.987-30.128 144.17-42.439 250.29l-2.1426-0.0352c-3.41-0.90985-6.8883-1.6577-10.432-2.2363-70.246-11.471-139.22 47.998-154.07 132.83-14.009 80.071 25.217 154.12 88.91 171.57 24.059-46.957 40.628-97.762 52.615-149.19-11.965 51.385-28.472 102.12-52.438 148.94l-1.916 56.029 24.17-44.639c54.856-107.17 71.63-230.67 83.096-336.74 5.7327-53.035 10.082-101.79 16.539-141.35 5.8736-22.701 8.5169-47.911 17.871-69.008zm-822.01 71.775c10.707 0.12035 21.425 4.0462 29.805 12.426 17.876 17.876 15.482 46.389-0.88477 62.756-16.367 16.367-44.879 18.761-62.756 0.88477-17.876-17.876-15.482-46.389 0.88476-62.756 8.1835-8.1835 19.402-12.874 30.811-13.283 0.71303-0.0256 1.4268-0.0354 2.1406-0.0273zm-58.311 62.797c-7.1881 8.6819-16.259 22.289-55.074 53.928 6.4818 6.4818 26.516 12.375 40.658-1.7676-14.142 14.142-8.2494 34.176-1.7676 40.658 31.756-38.958 45.346-47.953 53.969-55.08-0.53953 3.5616-1.4384 7.1136-2.623 10.869-6.7762 21.481-22.54 47.224-45.553 70.236-23.012 23.012-48.755 38.777-70.236 45.553-3.4559 1.0902-6.7393 1.9388-9.9434 2.1465 8.3652-8.81 13.882-21.419 58.234-57.572-6.4818-6.4818-26.516-12.375-40.658 1.7676 14.142-14.142 8.2494-34.176 1.7676-40.658-37.616 46.147-49.743 50.253-58.207 59.467 0.58897-3.431 1.5236-7.189 2.7812-11.176 6.7761-21.481 22.538-47.224 45.551-70.236 23.012-23.012 48.757-38.777 70.238-45.553 3.7818-1.193 7.3567-2.0953 10.863-2.582zm1148.4 50.564-198.98 184.24-5 30 203.98-188.87zm-1135 141.48a15 15 0 0 0-15 15 15 15 0 0 0 15 15 15 15 0 0 0 15-15 15 15 0 0 0-15-15zm-126.57 117.38a15 15 0 0 0-15 15 15 15 0 0 0 15 15 15 15 0 0 0 15-15 15 15 0 0 0-15-15z" fill="#fc4"/>
</g>
<g transform="matrix(-.12677 0 0 -.1304 45.19 93.192)">
<path d="m798.12 0 198.03 316.93c30.485-16.067 60.625-26.799 98.85-11.934-29.752-93.653-66.268-185.7 11.684-305zm-303.18 58.916c-67.134 89.21-137.18 256.44-209.18 473.76l15.621-9.0371-18.012 10.963c89.61 62.08 188.59 99.795 291.5 113.72 29.424 82.442 45.915 177.7 53.135 263.44 16.143 5.1103 33.435 11.684 51.535 19.52 42.503 18.4 67.673 23.563 85.709 23.795 4.5344-101.69 14.779-219.61 49.416-315.82l-2.0723 0.0781c63.317-13.023 126.57-34.417 188.58-64.102l-19.453-18.438c-230.69 107.48-475.36 97.049-674.77-36.377l116.44-67.357c26.775-78.128 53.874-148.55 80.727-209.18-4.718-36.806-9.1211-75.756-9.1211-83.883zm770.05 456.08c-52.303 7.9422-64.694 51.592-55 115 61.95-13.835 19.389-83.158 55-115zm-1019.5 53.699c-24.812 25.295-42.278 53.292-50.633 79.777-1.6648 5.2776-2.9824 10.587-3.8789 15.51-4.7555-3.9128-11.305-10.163-20.195-24.133-7.0711 7.0711-17.678 24.747-10.607 31.818-7.0711-7.0711-24.747 3.5364-31.818 10.607 18.902 12.028 23.67 19.774 26.979 24.881-7.9094 0.93628-16.217 2.6888-24.447 5.2852-27.12 8.5551-55.826 26.661-81.592 52.428-22.945 22.945-39.797 48.219-49.258 72.631v38.625c2.5486-0.53117 5.1396-0.85186 7.7422-0.94532 11.409-0.40965 23.007 3.4602 31.945 12.398 17.876 17.876 15.482 46.389-0.88477 62.756-10.096 10.096-24.812 14.864-38.803 12.846v67.809c7.3753-12.244 13.046-24.569 16.836-36.584 2.1293-6.7499 3.6888-13.551 4.8848-20.703 5.2249 2.7753 12.545 8.3937 23.27 25.246 7.0711-7.071 17.678-24.747 10.607-31.818 7.0711 7.0711 24.747-3.5363 31.818-10.607-15.693-9.9864-21.644-17.02-24.803-21.869 6.161-0.882 12.195-2.324 18.189-4.2148 27.12-8.5551 55.826-26.663 81.592-52.43 25.766-25.766 43.875-54.474 52.43-81.594 2.5652-8.132 4.306-16.336 4.9727-24.494 4.7704 2.979 12.655 7.3247 25.193 27.027 7.0711-7.0711 17.678-24.747 10.607-31.818 7.0711 7.0711 24.747-3.5364 31.818-10.607-14.14-8.9985-20.371-15.601-23.975-20.322 5.0644-0.84537 10.223-2.134 15.352-3.752 14.918-4.7058 30.315-12.303 45.439-22.475-155.46 181.18-124.46 482.7-166.28 612.26 0 0 17.157 27.767 22.342 13.207 10.084-28.318 15.252-61.986 20.088-99.738 7.3221-57.164 12.255-123.79 22.188-192.23 19.164-132.07 56.757-268.63 159.93-356.36l-3.7676-29.156 10.914-8.6894-30.338-13.59c-5.9017 7.8415-12.634 15.636-20.137 23.139-23.012 23.012-48.755 38.775-70.236 45.551-3.5066 1.1062-6.8368 1.9625-9.8652 1.9551 9.7394-9.0772 12.905-20.867 60.166-59.391-6.4818-6.4818-26.516-12.375-40.658 1.7676 14.142-14.142 8.2494-34.176 1.7676-40.658-39.746 48.761-51.035 50.583-59.947 61.477 0.24766-3.144 1.2061-7.0368 2.5117-11.176 6.7761-21.481 22.538-47.224 45.551-70.236 0.64983-0.64983 1.303-1.2934 1.957-1.9316zm865.96 8.8477c-10.264-0.13388-20.856 2.108-31.414 7.4531 46.039-3.5732 39.697 80.56 115 60-8.1179-29.829-43.319-66.928-83.586-67.453zm-79.525 25.834c-25.484 49.987-30.128 144.17-42.439 250.29l-2.1426-0.0352c-3.41-0.90985-6.8883-1.6577-10.432-2.2363-70.246-11.471-139.22 47.998-154.07 132.83-14.009 80.071 25.217 154.12 88.91 171.57 24.059-46.957 40.628-97.762 52.615-149.19-11.965 51.385-28.472 102.12-52.438 148.94l-1.916 56.029 24.17-44.639c54.856-107.17 71.63-230.67 83.096-336.74 5.7327-53.035 10.082-101.79 16.539-141.35 5.8736-22.701 8.5169-47.911 17.871-69.008zm-822.01 71.775c10.707 0.12035 21.425 4.0462 29.805 12.426 17.876 17.876 15.482 46.389-0.88477 62.756-16.367 16.367-44.879 18.761-62.756 0.88477-17.876-17.876-15.482-46.389 0.88476-62.756 8.1835-8.1835 19.402-12.874 30.811-13.283 0.71303-0.0256 1.4268-0.0354 2.1406-0.0273zm-58.311 62.797c-7.1881 8.6819-16.259 22.289-55.074 53.928 6.4818 6.4818 26.516 12.375 40.658-1.7676-14.142 14.142-8.2494 34.176-1.7676 40.658 31.756-38.958 45.346-47.953 53.969-55.08-0.53953 3.5616-1.4384 7.1136-2.623 10.869-6.7762 21.481-22.54 47.224-45.553 70.236-23.012 23.012-48.755 38.777-70.236 45.553-3.4559 1.0902-6.7393 1.9388-9.9434 2.1465 8.3652-8.81 13.882-21.419 58.234-57.572-6.4818-6.4818-26.516-12.375-40.658 1.7676 14.142-14.142 8.2494-34.176 1.7676-40.658-37.616 46.147-49.743 50.253-58.207 59.467 0.58897-3.431 1.5236-7.189 2.7812-11.176 6.7761-21.481 22.538-47.224 45.551-70.236 23.012-23.012 48.757-38.777 70.238-45.553 3.7818-1.193 7.3567-2.0953 10.863-2.582zm1148.4 50.564-198.98 184.24-5 30 203.98-188.87zm-1135 141.48a15 15 0 0 0-15 15 15 15 0 0 0 15 15 15 15 0 0 0 15-15 15 15 0 0 0-15-15zm-126.57 117.38a15 15 0 0 0-15 15 15 15 0 0 0 15 15 15 15 0 0 0 15-15 15 15 0 0 0-15-15z" fill="#fc4"/>
</g>
<g transform="matrix(.12677 0 0 .1304 -119.61 -167.61)">
<path d="m746.04 0 206.09 341.31c15.258-7.8974 29.4-16.481 43.92-24.318l-197.93-316.99zm128.96 35c-31.092 8.3141-41.518 4.3978-53.969 1.6797l57.988 92.059c6.9516-19.448 14.228-38.923 25.98-58.738-2.1372-16.474 2.2861-21.782 5-30-17.314 2.0373-27.148-0.83108-35-5zm165 245c-15.296 3.8241-45.217 4.7234-66.084 0.46094l23.332 36.012c26.139-13.724 51.823-23.142 82.586-16.338-15.235-5.7615-30.898-11.259-39.834-20.135zm130 20c0 14.476-11.343 28.059-19.58 38.242-28.503-21.355-68.6 20.925-47.736 47.355-9.7615 8.1736-23.28 19.402-37.684 19.402 14.287 0 27.704 11.049 38.06 18.709-22.706 26.031 19.184 70.555 47.391 47.26 7.4722 10.111 19.549 24.095 19.549 39.031 0-16.166 14.145-31.216 21.488-41.594 28.973 29.698 76.233-20.126 48.354-46.713 9.7851-7.4759 22.109-16.693 35.158-16.693-12.819 0-24.937-8.8943-34.832-16.559 27.385-26.864-19.695-76.438-48.846-47.145-7.6569-10.596-21.322-25.408-21.322-41.297zm-0.045 36.957a3.0003 3.0003 0 0 1 3.045 3.043v22.623c20.775 1.5164 37.86 18.602 39.377 39.377h27.623a3.0003 3.0003 0 1 1 0 6h-27.623c-1.5165 20.775-18.602 37.861-39.377 39.377v27.623a3.0003 3.0003 0 1 1-6 0v-27.623c-20.775-1.5164-37.86-18.602-39.377-39.377h-27.623a3.0003 3.0003 0 1 1 0-6h27.623c1.5165-20.775 18.602-37.861 39.377-39.377v-22.623a3.0003 3.0003 0 0 1 2.9551-3.043zm-692.11 84.545-56.74 32.926c169.11 93.385 326.44 62.845 482.07 15.605-11.298-14.857-22.135-30.339-32.578-46.6l-0.3711-0.80859c-134.97 39.939-257.93 61.773-392.38-1.123zm-87.26 228.13-12.514 8.0703c9.9046 58.467 14.521 126.9 10.342 186.23 31.251 8.7117 56.596 31.015 73.1 61.361 15.58-4.1313 31.753-7.5572 49.326-9.1602 6.2972-0.57442 12.651-0.89187 19.076-0.95117 23.494-0.217 47.93 3.0007 73.793 9.5449-6.7548-67.02-19.692-143.35-38.711-207.42-59.554-8.7299-118.09-24.43-174.41-47.676zm504.79 20.119-70.145 17.49c-23.969 84.299-30.937 172.32-34.76 263.52 13.061-2.3788 28.421-9.1892 50.66-20.199l0.00791-0.56836c14.214-27.104 34.595-48.927 58.195-63.057zm-686.68 35.266a13.75 15 45 0 0-10.557 4.6602 13.75 15 45 0 0-0.88476 20.33 13.75 15 45 0 0 20.33-0.88477 13.75 15 45 0 0 0.88282-20.33 13.75 15 45 0 0-9.7715-3.7754zm1047 36.811c14.778 7.7056 29.539 15.281 44.273 22.82v-0.0684zm-1247 163.19a13.75 15 45 0 0-8.7012 3.084v23.965a13.75 15 45 0 0 17.59-2.9434 13.75 15 45 0 0 0.88281-20.33 13.75 15 45 0 0-9.7715-3.7754zm531.3 49.98a10 10 0 0 0-10 10 10 10 0 0 0 10 10 10 10 0 0 0 10-10 10 10 0 0 0-10-10zm110 35a10 10 0 0 0-10 10 10 10 0 0 0 10 10 10 10 0 0 0 10-10 10 10 0 0 0-10-10z" fill="#f00"/>
</g>
<g transform="matrix(-.12677 0 0 -.1304 45.19 93.192)">
<path d="m746.04 0 206.09 341.31c15.258-7.8974 29.4-16.481 43.92-24.318l-197.93-316.99zm128.96 35c-31.092 8.3141-41.518 4.3978-53.969 1.6797l57.988 92.059c6.9516-19.448 14.228-38.923 25.98-58.738-2.1372-16.474 2.2861-21.782 5-30-17.314 2.0373-27.148-0.83108-35-5zm165 245c-15.296 3.8241-45.217 4.7234-66.084 0.46094l23.332 36.012c26.139-13.724 51.823-23.142 82.586-16.338-15.235-5.7615-30.898-11.259-39.834-20.135zm130 20c0 14.476-11.343 28.059-19.58 38.242-28.503-21.355-68.6 20.925-47.736 47.355-9.7615 8.1736-23.28 19.402-37.684 19.402 14.287 0 27.704 11.049 38.06 18.709-22.706 26.031 19.184 70.555 47.391 47.26 7.4722 10.111 19.549 24.095 19.549 39.031 0-16.166 14.145-31.216 21.488-41.594 28.973 29.698 76.233-20.126 48.354-46.713 9.7851-7.4759 22.109-16.693 35.158-16.693-12.819 0-24.937-8.8943-34.832-16.559 27.385-26.864-19.695-76.438-48.846-47.145-7.6569-10.596-21.322-25.408-21.322-41.297zm-0.045 36.957a3.0003 3.0003 0 0 1 3.045 3.043v22.623c20.775 1.5164 37.86 18.602 39.377 39.377h27.623a3.0003 3.0003 0 1 1 0 6h-27.623c-1.5165 20.775-18.602 37.861-39.377 39.377v27.623a3.0003 3.0003 0 1 1-6 0v-27.623c-20.775-1.5164-37.86-18.602-39.377-39.377h-27.623a3.0003 3.0003 0 1 1 0-6h27.623c1.5165-20.775 18.602-37.861 39.377-39.377v-22.623a3.0003 3.0003 0 0 1 2.9551-3.043zm-692.11 84.545-56.74 32.926c169.11 93.385 326.44 62.845 482.07 15.605-11.298-14.857-22.135-30.339-32.578-46.6l-0.3711-0.80859c-134.97 39.939-257.93 61.773-392.38-1.123zm-87.26 228.13-12.514 8.0703c9.9046 58.467 14.521 126.9 10.342 186.23 31.251 8.7117 56.596 31.015 73.1 61.361 15.58-4.1313 31.753-7.5572 49.326-9.1602 6.2972-0.57442 12.651-0.89187 19.076-0.95117 23.494-0.217 47.93 3.0007 73.793 9.5449-6.7548-67.02-19.692-143.35-38.711-207.42-59.554-8.7299-118.09-24.43-174.41-47.676zm504.79 20.119-70.145 17.49c-23.969 84.299-30.937 172.32-34.76 263.52 13.061-2.3788 28.421-9.1892 50.66-20.199l0.00791-0.56836c14.214-27.104 34.595-48.927 58.195-63.057zm-686.68 35.266a13.75 15 45 0 0-10.557 4.6602 13.75 15 45 0 0-0.88476 20.33 13.75 15 45 0 0 20.33-0.88477 13.75 15 45 0 0 0.88282-20.33 13.75 15 45 0 0-9.7715-3.7754zm1047 36.811c14.778 7.7056 29.539 15.281 44.273 22.82v-0.0684zm-1247 163.19a13.75 15 45 0 0-8.7012 3.084v23.965a13.75 15 45 0 0 17.59-2.9434 13.75 15 45 0 0 0.88281-20.33 13.75 15 45 0 0-9.7715-3.7754zm531.3 49.98a10 10 0 0 0-10 10 10 10 0 0 0 10 10 10 10 0 0 0 10-10 10 10 0 0 0-10-10zm110 35a10 10 0 0 0-10 10 10 10 0 0 0 10 10 10 10 0 0 0 10-10 10 10 0 0 0-10-10z" fill="#f00"/>
</g>
<g transform="matrix(.12677 0 0 .1304 -119.61 -167.61)">
<path d="m526.44 166.7a12.5 20.069 0 0 0-12.5 20.068 12.5 20.069 0 0 0 12.5 20.068 12.5 20.069 0 0 0 12.5-20.068 12.5 20.069 0 0 0-12.5-20.068zm152.38 2.4746a12.5 20.069 0 0 0-12.5 20.068 12.5 20.069 0 0 0 12.5 20.068 12.5 20.069 0 0 0 12.5-20.068 12.5 20.069 0 0 0-12.5-20.068zm-200.18 254.76-9.7012 2.4238 1.2109 4.8516 11.537 46.148 36.535-19.016 14.379 33.785 35.807-20.461 22.602 34.314 32.992-27.203 26.432 31.555 29.783-30.643 30.436 27.652 23.955-31.078 29.285 26.377 25.17-38.994 37.713 23.324 20.209-35.367 38.18 19.322 6.5918-15.512-6.6465-9.9238-4.9668 11.686-37.123-18.787-19.791 34.631-37.248-23.037-24.121 37.369-28.582-25.744-23.926 31.041-29.564-26.861-28.803 29.631-25.689-30.668-32.057 26.434-21.643-32.857-34.193 19.539-14.209-33.385-34.877 18.154-8.4629-33.852zm-57.342 30.381-114.5 66.258c199.46 133.27 444.19 143.72 674.13 36.01-27.706-26.002-53.38-54.402-77.529-86.273-5.425 1.6347-10.852 3.2417-16.281 4.832l56.918 44.07 6.7226 19.914c12.792 37.899-28.306 41.217-37.9 12.793l-25.898-76.73c-1.2782 0.37431-2.5575 0.73783-3.8359 1.1094l25.496 81.254c11.976 38.165-29.182 40.6-38.164 11.977l-25.449-81.102 31.381-10.176c-11.94 3.4206-23.894 6.6953-35.863 9.8027l18.717 85.553c8.5483 39.076-32.665 37.856-39.076 8.5488l-18.166-83.037 33.525-9.7773c-11.64 2.9711-23.296 5.7849-34.973 8.3574l13.623 86.195c6.2444 39.51-34.825 35.876-39.508 6.2441l-13.27-83.957 21.436-4.7656c-7.4846 1.4954-14.978 2.8896-22.482 4.1738l6.4453 85.217c3.0172 39.886-37.624 32.932-39.887 3.0176l-6.2441-82.553c-1.692 0.19213-3.3849 0.37203-5.0781 0.55078l7.0449 82.852c3.389 39.856-37.314 33.281-39.855 3.3887l-7.0879-83.342c-0.71528 0.0272-1.431 0.0517-2.1465 0.0762v84.09c0 40-40 30-40 0v-84.225c-1.4073-0.0589-2.8142-0.11266-4.2227-0.18359l-7.9648 82.473c-3.8459 39.815-42.701 26.015-39.816-3.8457l7.9492-82.289c-1.82-0.24421-3.6389-0.48946-5.4609-0.75586l-7.7461 79.514c-3.8785 39.812-42.721 25.98-39.812-3.8789l8.1035-83.176c-0.89679-0.21219-1.7941-0.43429-2.6914-0.65234l-20.762 79.119c-10.153 38.69-46.304 18.865-38.689-10.152l15.689-59.787-22.754 55.875c-15.086 37.046-48.361 12.699-37.047-15.086l27.299-67.031-37.217 69.73c-18.834 35.289-49.414 7.6325-35.289-18.834l37.82-70.863-53.898 64c-25.767 30.595-49.921-2.8211-30.596-25.768l8.5723-10.18 77.584-31.168 0.53906-1.0098 0.9082 0.42774 6e-3 -2e-3 -4e-3 4e-3 0.33984 0.16016c-4.3524-2.2534-8.7104-4.569-13.078-6.9863zm572.54 178.68c-32.993 14.843-65.949 26.892-98.861 36.879l4.7109 196.86c20.173-11.654 42.263-17.696 64.926-16.695 0.49896-3.3706 0.87631-6.6739 1.2461-9.9668 8.9654-79.837 12.574-152.2 27.979-207.08zm-207.23 11.195c-23.743 4.0613-47.594 6.9135-71.588 8.6035 47.184 3.2256 63.191 22.539 7.0449 27.49 38.722 4.926 44.1 19.55-7.0644 24.715 39.999 4.0401 53.548 23.377-1.5195 32.617 34.786 4.8422 43.165 22.433-0.62695 27.383v7.2188c32.002 6.4503 40.403 19.467-0.40821 22.535l-0.14843 8.1328c30.463 5.0435 37.389 16.297-0.38672 21.33l-0.082 4.4961c25.35 5.1228 30.484 14.819-0.35937 19.836l-0.0918 5.0762c25.867 5.1244 31.192 14.98-0.36328 20.004l-0.0879 4.9082c26.38 5.1226 31.876 15.132-0.36523 20.162l-0.0156 0.83008c21.084 5.0477 24.912 13.47-0.33398 18.363l-0.0274 1.5527c21.493 5.0602 25.431 13.601-0.33593 18.512l-0.0977 5.3848c11.78 4.0536 22.058 6.9441 30.756 8.7637 4.052-97.405 13.957-212.67 46.102-307.91zm-184.52 7.1582c30.017 86.817 45.436 181.08 51.969 269.53 8.1338 3.1056 16.714 6.6058 25.484 10.402 5.168 2.2372 10.079 4.2794 14.93 6.3945l-0.82813-16.973c-41.022-2.5628-48.055-16.723-1.1094-22.725l-0.16406-3.3398c-42.022-2.4308-49.289-16.895-1.1172-22.877l-0.043-0.89844c-44.051-2.1493-51.821-17.252-1.1328-23.182l-0.14258-2.9082c-45.028-2.0099-53.083-17.415-1.1367-23.311l-0.0625-1.2676c-47.391-1.8361-56.193-19.839-1.2852-26.314l-0.0762-1.5488c-51.163-1.1348-61.001-20.483-1.3066-26.764l-0.11523-2.3789c-49.981-1.3607-59.473-20.289-1.3007-26.639l-0.0762-1.5606c-56.128-0.11938-67.562-22.899-1.4297-29.289l-0.0215-0.4082c-63.898 1.8483-77.878-24.127-1.4531-29.775l-0.0391-0.78516c-56.398 2.3826-77.672-12.672-39.227-20.727-13.544-0.45894-27-1.3419-40.316-2.6562zm653.63 90.48c6.2064 3.2362 12.412 6.451 18.615 9.6504 8.5624 4.4161 17.116 8.7971 25.658 13.168v-0.0664zm18.615 9.6504c-0.7477-0.38573-1.4943-0.77014-2.2422-1.1562l-2.8808 2.416c13.961 7.24 1.8654 26.482-27.957 28.852-0.6666 0.053-1.3267 0.10269-1.5429 0.20312-2.8868 19.364-21.042 42.851-34.719 48.205-18.527 7.2535-62.318 13.871-86.9-6.9922-4.8223 45.976-9.7283 97.031-17.41 149.5l199.31-184.32v-23.316c-8.496-4.5302-17.066-8.9583-25.658-13.391z" fill="#44f"/>
</g>
<g transform="matrix(-.12677 0 0 -.1304 45.19 93.192)">
<path d="m526.44 166.7a12.5 20.069 0 0 0-12.5 20.068 12.5 20.069 0 0 0 12.5 20.068 12.5 20.069 0 0 0 12.5-20.068 12.5 20.069 0 0 0-12.5-20.068zm152.38 2.4746a12.5 20.069 0 0 0-12.5 20.068 12.5 20.069 0 0 0 12.5 20.068 12.5 20.069 0 0 0 12.5-20.068 12.5 20.069 0 0 0-12.5-20.068zm-200.18 254.76-9.7012 2.4238 1.2109 4.8516 11.537 46.148 36.535-19.016 14.379 33.785 35.807-20.461 22.602 34.314 32.992-27.203 26.432 31.555 29.783-30.643 30.436 27.652 23.955-31.078 29.285 26.377 25.17-38.994 37.713 23.324 20.209-35.367 38.18 19.322 6.5918-15.512-6.6465-9.9238-4.9668 11.686-37.123-18.787-19.791 34.631-37.248-23.037-24.121 37.369-28.582-25.744-23.926 31.041-29.564-26.861-28.803 29.631-25.689-30.668-32.057 26.434-21.643-32.857-34.193 19.539-14.209-33.385-34.877 18.154-8.4629-33.852zm-57.342 30.381-114.5 66.258c199.46 133.27 444.19 143.72 674.13 36.01-27.706-26.002-53.38-54.402-77.529-86.273-5.425 1.6347-10.852 3.2417-16.281 4.832l56.918 44.07 6.7226 19.914c12.792 37.899-28.306 41.217-37.9 12.793l-25.898-76.73c-1.2782 0.37431-2.5575 0.73783-3.8359 1.1094l25.496 81.254c11.976 38.165-29.182 40.6-38.164 11.977l-25.449-81.102 31.381-10.176c-11.94 3.4206-23.894 6.6953-35.863 9.8027l18.717 85.553c8.5483 39.076-32.665 37.856-39.076 8.5488l-18.166-83.037 33.525-9.7773c-11.64 2.9711-23.296 5.7849-34.973 8.3574l13.623 86.195c6.2444 39.51-34.825 35.876-39.508 6.2441l-13.27-83.957 21.436-4.7656c-7.4846 1.4954-14.978 2.8896-22.482 4.1738l6.4453 85.217c3.0172 39.886-37.624 32.932-39.887 3.0176l-6.2441-82.553c-1.692 0.19213-3.3849 0.37203-5.0781 0.55078l7.0449 82.852c3.389 39.856-37.314 33.281-39.855 3.3887l-7.0879-83.342c-0.71528 0.0272-1.431 0.0517-2.1465 0.0762v84.09c0 40-40 30-40 0v-84.225c-1.4073-0.0589-2.8142-0.11266-4.2227-0.18359l-7.9648 82.473c-3.8459 39.815-42.701 26.015-39.816-3.8457l7.9492-82.289c-1.82-0.24421-3.6389-0.48946-5.4609-0.75586l-7.7461 79.514c-3.8785 39.812-42.721 25.98-39.812-3.8789l8.1035-83.176c-0.89679-0.21219-1.7941-0.43429-2.6914-0.65234l-20.762 79.119c-10.153 38.69-46.304 18.865-38.689-10.152l15.689-59.787-22.754 55.875c-15.086 37.046-48.361 12.699-37.047-15.086l27.299-67.031-37.217 69.73c-18.834 35.289-49.414 7.6325-35.289-18.834l37.82-70.863-53.898 64c-25.767 30.595-49.921-2.8211-30.596-25.768l8.5723-10.18 77.584-31.168 0.53906-1.0098 0.9082 0.42774 6e-3 -2e-3 -4e-3 4e-3 0.33984 0.16016c-4.3524-2.2534-8.7104-4.569-13.078-6.9863zm572.54 178.68c-32.993 14.843-65.949 26.892-98.861 36.879l4.7109 196.86c20.173-11.654 42.263-17.696 64.926-16.695 0.49896-3.3706 0.87631-6.6739 1.2461-9.9668 8.9654-79.837 12.574-152.2 27.979-207.08zm-207.23 11.195c-23.743 4.0613-47.594 6.9135-71.588 8.6035 47.184 3.2256 63.191 22.539 7.0449 27.49 38.722 4.926 44.1 19.55-7.0644 24.715 39.999 4.0401 53.548 23.377-1.5195 32.617 34.786 4.8422 43.165 22.433-0.62695 27.383v7.2188c32.002 6.4503 40.403 19.467-0.40821 22.535l-0.14843 8.1328c30.463 5.0435 37.389 16.297-0.38672 21.33l-0.082 4.4961c25.35 5.1228 30.484 14.819-0.35937 19.836l-0.0918 5.0762c25.867 5.1244 31.192 14.98-0.36328 20.004l-0.0879 4.9082c26.38 5.1226 31.876 15.132-0.36523 20.162l-0.0156 0.83008c21.084 5.0477 24.912 13.47-0.33398 18.363l-0.0274 1.5527c21.493 5.0602 25.431 13.601-0.33593 18.512l-0.0977 5.3848c11.78 4.0536 22.058 6.9441 30.756 8.7637 4.052-97.405 13.957-212.67 46.102-307.91zm-184.52 7.1582c30.017 86.817 45.436 181.08 51.969 269.53 8.1338 3.1056 16.714 6.6058 25.484 10.402 5.168 2.2372 10.079 4.2794 14.93 6.3945l-0.82813-16.973c-41.022-2.5628-48.055-16.723-1.1094-22.725l-0.16406-3.3398c-42.022-2.4308-49.289-16.895-1.1172-22.877l-0.043-0.89844c-44.051-2.1493-51.821-17.252-1.1328-23.182l-0.14258-2.9082c-45.028-2.0099-53.083-17.415-1.1367-23.311l-0.0625-1.2676c-47.391-1.8361-56.193-19.839-1.2852-26.314l-0.0762-1.5488c-51.163-1.1348-61.001-20.483-1.3066-26.764l-0.11523-2.3789c-49.981-1.3607-59.473-20.289-1.3007-26.639l-0.0762-1.5606c-56.128-0.11938-67.562-22.899-1.4297-29.289l-0.0215-0.4082c-63.898 1.8483-77.878-24.127-1.4531-29.775l-0.0391-0.78516c-56.398 2.3826-77.672-12.672-39.227-20.727-13.544-0.45894-27-1.3419-40.316-2.6562zm653.63 90.48c6.2064 3.2362 12.412 6.451 18.615 9.6504 8.5624 4.4161 17.116 8.7971 25.658 13.168v-0.0664zm18.615 9.6504c-0.7477-0.38573-1.4943-0.77014-2.2422-1.1562l-2.8808 2.416c13.961 7.24 1.8654 26.482-27.957 28.852-0.6666 0.053-1.3267 0.10269-1.5429 0.20312-2.8868 19.364-21.042 42.851-34.719 48.205-18.527 7.2535-62.318 13.871-86.9-6.9922-4.8223 45.976-9.7283 97.031-17.41 149.5l199.31-184.32v-23.316c-8.496-4.5302-17.066-8.9583-25.658-13.391z" fill="#44f"/>
</g>
<g transform="matrix(.12677 0 0 .1304 -119.61 -167.61)">
<path d="m676.07 0 363.93 600 50-30-343.96-570zm-171.93 244.03c-26.871 60.49-53.971 130.91-80.924 209.14l122.22-70.969c-17.007-29.422-28.204-58.269-30.436-67.195-2.2841-9.1363-6.654-39.14-10.859-70.975zm-244.67 304.3-24.027 13.426c100.21 74.155 212.68 118.88 329.56 135.56 19.019 64.071 31.958 140.4 38.457 207.36 7.8228 1.9858 15.914 4.3043 24.604 7.1094-6.479-76.912-20.46-161.5-44.396-237.53-114.77-13.351-225.32-55.079-324.19-125.92zm762.3 44.68c-70.665 34.824-143.22 59.193-215.76 72.4-27.715 90.503-36.598 196.85-41.055 289.67 3.352 0.074 6.8336-0.0769 10.08-0.37305 4.9576-0.45223 9.9296-1.3548 15.475-3.9394 3.7899-91.191 10.757-179.22 34.727-263.52 56.386-11.548 112.82-29.494 168.6-54.248-15.405 54.878-19.013 127.24-27.979 207.08-0.36978 3.2929-0.74645 6.5965-1.5156 9.9551 3.9085 0.22506 8.2198 0.66249 12.535 1.3672 3.5433 0.57863 7.0211 1.3263 11.543 1.9785 13.378-106.17 18.029-200.09 43.471-250z"/>
</g>
<g transform="matrix(-.12677 0 0 -.1304 45.19 93.192)">
<path d="m676.07 0 363.93 600 50-30-343.96-570zm-171.93 244.03c-26.871 60.49-53.971 130.91-80.924 209.14l122.22-70.969c-17.007-29.422-28.204-58.269-30.436-67.195-2.2841-9.1363-6.654-39.14-10.859-70.975zm-244.67 304.3-24.027 13.426c100.21 74.155 212.68 118.88 329.56 135.56 19.019 64.071 31.958 140.4 38.457 207.36 7.8228 1.9858 15.914 4.3043 24.604 7.1094-6.479-76.912-20.46-161.5-44.396-237.53-114.77-13.351-225.32-55.079-324.19-125.92zm762.3 44.68c-70.665 34.824-143.22 59.193-215.76 72.4-27.715 90.503-36.598 196.85-41.055 289.67 3.352 0.074 6.8336-0.0769 10.08-0.37305 4.9576-0.45223 9.9296-1.3548 15.475-3.9394 3.7899-91.191 10.757-179.22 34.727-263.52 56.386-11.548 112.82-29.494 168.6-54.248-15.405 54.878-19.013 127.24-27.979 207.08-0.36978 3.2929-0.74645 6.5965-1.5156 9.9551 3.9085 0.22506 8.2198 0.66249 12.535 1.3672 3.5433 0.57863 7.0211 1.3263 11.543 1.9785 13.378-106.17 18.029-200.09 43.471-250z"/>
</g>
<g transform="matrix(.12677 0 0 .1304 -119.61 -167.61)">
<path d="m545.84 382.41-545.84 316.01m210 268.61-210 194.45m911.9-5.9411c99.387-194.17 70.757-455.58 119.99-552.16m-643.43 240.57c63.517 17.706 102.74 91.752 88.735 171.82-14.842 84.832-83.82 144.3-154.07 132.83-3.5433-0.5786-7.0222-1.3267-10.432-2.2366m597.29 65.205 24.171-44.638c54.856-107.17 71.63-230.67 83.096-336.74 5.7327-53.035 10.082-101.79 16.539-141.35 5.8736-22.701 8.5174-47.91 17.872-69.007m67.841 45.307c-9.9478 28.196-15.078 61.66-19.881 99.154-7.3221 57.164-12.255 123.79-22.188 192.23-19.164 132.07-56.757 268.63-159.93 356.36m-539.42-655.19c9.9046 58.467 14.52 126.9 10.3 186.22m-230.42 478.31c46.142-142.96 3.6278-495.27 220.78-664.28l10.914-8.6878m866.08 92.57c14.798 7.7163 29.597 15.312 44.352 22.862m-549.38-641.6c68.418 306.47 221.93 452.11 390.97 555.15m-858.28-143.64c211.01 146.18 473.96 157.36 717.8 40.635m-741.7-26.906c98.869 70.843 209.43 112.57 324.3 126m222.08-8.4095c72.693-13.72 145.25-38.089 215.91-72.914m-40.047-36.21c-230.74 107.5-475.47 97.046-674.9-36.465m794.2 452.43 198.98-184.24m-404.79-118.56 4.1626 196.82m-74.41-179.37c56.655-11.711 113.08-29.657 168.47-53.741m-757.99-71.916c100.21 74.155 212.68 118.88 329.73 135.11m429.06-64.538c-15.802 55.549-19.411 127.91-28.376 207.75-0.36978 3.2929-0.74635 6.5965-1.1305 9.9099m-249.92-197.15-4.6988 290.74m-29.437-289.57 13.985 283.93m120.02-298.67c-34.637 96.214-44.882 214.13-49.259 315.82m-190.56-306.81c29.437 82.456 45.933 177.74 53.643 263.69m162.27 37.637c3.533-90.019 10.501-178.04 34.74-262.51m-39.016-42.905c-32.023 95.257-41.929 210.52-46.152 307.88m-85.999-31.084c-6.8072-88.543-22.226-182.81-51.944-269.7m-37.562 46.486c19.193 63.624 32.131 139.96 38.753 206.93m72.485-904.68 363.93 600 50-30-343.97-570m206.22 341.31c48.665-25.414 87.155-57.926 142.74-36.309-29.747-93.639-66.266-185.67 11.64-304.94m-110.05 316.53-198.45-316.58m190.38 303.79-43.722 25.505m34.4-40.9-43.237 25.222m33.506-40.379-43.084 25.133m33.45-40.346-43.36 25.293m33.967-40.648-30.222 17.629m20.502-32.793-22.525 13.139m121.81-95.641c-45 15-83.59-37.436-115-15-35 25 5.6207 69.69 25 60 20-10 15-40-5-40s-10 15-10 15m105-20c-35.233 31.759-8.6313 91.182-43.635 107.45-39.004 18.13-57.865-39.242-39.881-51.327 18.559-12.472 42.197 6.6658 32.338 24.067-9.8584 17.401-17.98 1.3069-17.98 1.3069m-43.479-19.964c26.765-8.2327 51.765-24.324 77.637-36.535m-50 25c22.594-17.664 26.08-20.229 30-35m-30 35c17.823-3.5059 40-2.7303 50 5m-41.76 63.595c26.921 10.702 56.76 6.4046 81.76-8.5954 10.162 20.306 32.016 34.07 50 50m-121.08-24.539c20.867 4.2624 50.788 3.3631 66.084-0.46103 8.9362 8.8754 24.598 14.372 40 20m-258.97-263.32c12.451 2.7181 22.877 6.6348 53.969-1.6793 7.8516 4.1689 17.686 7.0373 35 5-2.7139 8.2179-7.1372 13.526-5 30-11.752 19.816-19.029 39.289-25.981 58.737m18.705 30.614c4.6394-23.73 2.0171-48.188 32.276-69.351 1.6155-29.331 6.9112-59.477 13.847-89.987m-522.77 454.24c169.14 93.562 326.47 63.021 482.21 15.869m-33.057-47.494c-134.97 39.939-257.93 61.773-392.67-1.2253m664.28 257s16.2-16.444 18.156-18.4c5-5 27.755 2.1466 39.384-13.489 16.846-22.651 34.829-5.6946 17.537 13.284-14.287 15.681-36.921 27.397-36.921 27.397 10.522 34.893 5.9503 67.291-10 97.808m60-140c40-50 60.47-13.562 25 20-39.863 37.719-63.642 28.302-25-20v0m5.5241 35.004c52.181-37.11 61.871 3.5454 18.555 26.091-48.68 25.337-68.964 9.7594-18.555-26.091v0m0.2171 35.44c54.242-29.751 58.195 11.838 14.231 28.35-49.408 18.557-66.632 0.39139-14.231-28.35v0m-0.4486 37.091c55.074-12.596 48.823 25.653 5.9684 29.058-48.162 3.8263-59.172-16.89-5.9684-29.058v0m4.8619 29.316c-3.3225 19.308-21.478 42.795-35.154 48.149-18.527 7.2535-62.318 13.872-86.952-6.5508m-531.45 154.23c6.931 1.796 14.16 3.9369 21.73 6.4474m-128.5-5.3741c5.0874-1.6437 10.202-3.0835 15.394-4.2913m345.91-43.896c-31.007 15.351-48.642 22.538-66.102 24.131-18.435 1.6817-44.48-1.3374-95.486-23.418-56.213-24.335-104.65-36.509-149.62-36.094-6.4255 0.0593-12.779 0.37675-19.076 0.95117-17.573 1.603-33.745 5.0295-48.869 9.5686m34.631 53.096c-6.1225 1.2544-12.102 2.803-17.995 4.6005m136.68 7.2498c-11.602-3.917-22.529-7.0374-32.902-9.4214m64.852 21.516c-2.438-1.0135-4.8478-1.9965-7.2305-2.9494m105.96 33.949c-21.425-2.6444-46.391-9.4416-77.457-22.036m151.94 13.634c-13.177 4.6655-26.135 7.8425-39.975 9.105-2.4482 0.2233-4.9335 0.3886-7.4624 0.4919m-248.56-74.619c-3.2071 0.13076-6.3808 0.34038-9.5257 0.62725-13.547 1.2358-26.213 3.8348-38.379 7.4008m173.23 19.219c-36.139-14.773-66.928-23.19-94.677-26.167m184.86 56.333c-16.314-2.7247-35.18-8.0144-57.935-16.804m140.08 7.7796c-14.687 5.731-28.384 9.4676-42.982 10.799m-259.07-73.984c-2.17 0.12805-4.3283 0.29013-6.476 0.48604-14.277 1.3024-27.589 3.999-40.267 7.6526m352.21 37.407c-17.401 7.5008-32.154 12.078-47.754 13.501-24.824 2.2644-56.475-2.535-110.13-25.762-40.946-17.726-76.094-28.152-107.98-31.971m362.76 206.62c-1.3157-0.6092-2.703-1.112-4.1542-1.495-48.715-13.58-83.015-73.743-70.822-143.43 12.918-73.833 71.299-121.3 125.41-112.47 2.7295 0.44573 5.3998 1.0208 8.0156 1.7188 1.8473 0.52403 3.7045 0.82603 5.5431 0.92205m-31.404 161.29c-19.33 0-35-17.909-35-40 0-22.091 15.67-40 35-40 6.6094 0 12.791 2.0937 18.064 5.7325m-10.56 49.114c-2.2073 1.4604-4.7705 2.2964-7.5045 2.2964-8.2843 0-15-7.6752-15-17.143 3e-5 -9.4677 6.7158-17.143 15-17.143 5.2551 0 9.879 3.0884 12.558 7.7638m-26.719-27.254-20.839-48.367-32.702-5 2.7019 40-35 15 15 40-23.182 30 33.182 20-10 40h40l5 35m5-215 20-35 35 20-12.62 60.658m12.62-60.658 10.255-10.255m-75.255 205.26 29.339-59.522m-59.339 19.522 46.217-32.354m-56.217-17.646 50.11-2.7875m-30.11-52.212 36.293 26.487m-21.293-41.487 27.706 34.189m17.294-59.189 2.8705 49.49m-72.871 20.51 41.198 10.371m-46.198 39.629 46.856-16.687m-21.856 56.687 32.523-39.453m-17.523 99.453 11.121-4.4483m8.8793-35.552 11.825-50.925m-729.24-309.95a13.75 15 45 0 1-20.329 0.88388 13.75 15 45 0 1 0.88387-20.329 13.75 15 45 0 1 20.329-0.88388 13.75 15 45 0 1-0.88388 20.329v0m2.2168 16.294c4.2522 3.0047 7.236 8.2019 6.6899 19.499m7.1752-33.905c3.3935 3.897 8.9563 6.4145 20.555 5.0941m-73.3-29.196c-3.0047-4.2523-8.2019-7.2359-19.499-6.6899m33.905-7.1753c-3.897-3.3935-6.4146-8.9563-5.0941-20.555m9.9689 67.535c-6.3545 5.5516-11.803 13.412-14.731 27.695m1.7678-40.659c-5.5516 6.3545-13.412 11.803-27.695 14.731m68.943-30.052c5.5516-6.3545 13.412-11.803 27.695-14.731m-40.659 1.7678c6.3546-5.5516 11.803-13.412 14.731-27.695m-17.088 81.907c0.45476 28.009 7.0711 7.0711 31.82 45.962 7.0711-7.0711 17.678-24.749 10.607-31.82 7.0711 7.0711 24.749-3.5355 31.82-10.607-38.891-24.749-17.953-31.365-45.962-31.82m-67.175-10.607c-28.009-0.45476-7.0711-7.0711-45.962-31.82 7.0711-7.0711 24.749-17.678 31.82-10.607-7.0711-7.0711 3.5355-24.749 10.607-31.82 24.749 38.891 31.365 17.953 31.82 45.962m4.1248 60.693c-15.835 41.093-14.142 14.142-71.3 84.264-6.4818-6.4818-12.374-26.517 1.7678-40.659-14.142 14.142-34.177 8.2496-40.659 1.7678 70.121-57.158 43.171-55.465 84.264-71.3m54.212-2.357c41.093-15.835 14.142-14.142 84.264-71.3-6.4818-6.4818-26.517-12.374-40.659 1.7678 14.142-14.142 8.2496-34.177 1.7678-40.659-57.158 70.121-55.465 43.171-71.3 84.264m-209.06 215.79a13.75 15 45 0 1 18.483 0.70551 13.75 15 45 0 1-0.88388 20.329 13.75 15 45 0 1-17.597 2.9582m19.813 13.335c4.2522 3.0048 7.2359 8.202 6.6899 19.499m7.1752-33.905c3.3935 3.897 8.9563 6.4146 20.555 5.0941m-54.02 3.9189c-0.07192 0.0628-0.14372 0.12596-0.21541 0.18939m28.5-28.474c5.5516-6.3545 13.412-11.803 27.695-14.731m-40.659 1.7678c6.3545-5.5516 11.803-13.412 14.731-27.695m-17.088 81.907c0.45472 28.009 7.0711 7.0711 31.82 45.962 7.0711-7.071 17.678-24.749 10.607-31.82 7.0711 7.0711 24.749-3.5355 31.82-10.607-38.891-24.749-17.953-31.365-45.962-31.82m-41.455-54.08c1.6874 2.5151 2.4225 6.493 2.5637 15.189m4.1248 60.693c-2.5351 6.5789-4.621 11.414-6.571 15.182m34.855-43.466c41.093-15.835 14.142-14.142 84.264-71.3-6.4818-6.4818-26.517-12.374-40.659 1.7678 14.142-14.142 8.2496-34.177 1.7678-40.659-57.158 70.121-55.465 43.171-71.3 84.264m13.037-24.709c0.64414-3.5196 1.579-7.2766 2.8367-11.263 6.7761-21.481 22.54-47.225 45.552-70.237 23.012-23.012 48.756-38.776 70.237-45.552 3.7818-1.193 7.3568-2.0955 10.719-2.735m38.029 38.112c-0.63865 3.3414-1.537 6.893-2.7216 10.649-6.7762 21.481-22.54 47.225-45.552 70.237-23.012 23.012-48.756 38.776-70.237 45.552-3.4559 1.0902-6.7391 1.9378-9.8447 2.5638m1.7111 29.762c5.9631-0.90155 11.998-2.3444 17.992-4.2353 27.12-8.5551 55.826-26.663 81.592-52.43 25.766-25.766 43.875-54.472 52.43-81.592 2.5652-8.132 4.3059-16.338 4.9891-24.34m-64.333-64.648c-8.0934 0.66548-16.4 2.4171-24.631 5.0135-27.12 8.5551-55.826 26.663-81.592 52.43-22.969 22.969-39.852 48.274-49.308 72.709m263.44-101.32c5.118-0.90346 10.276-2.1934 15.406-3.8113 14.981-4.7256 30.445-12.366 45.63-22.602m-78.973-141.15c-24.812 25.295-42.277 53.292-50.632 79.777-1.6648 5.2776-2.9823 10.586-3.8889 15.85m29.07 5.6735c0.64573-3.6351 1.6035-7.5264 2.9092-11.665 6.7761-21.481 22.54-47.225 45.552-70.237 0.64983-0.64983 1.3018-1.2939 1.9559-1.9321m88.892 49.505c-5.9017 7.8415-12.634 15.635-20.137 23.138-23.012 23.012-48.756 38.776-70.237 45.552-3.5066 1.1062-6.8354 1.9626-9.9813 2.5912m-258.86 323.89c7.33-12.193 12.963-24.466 16.738-36.43 2.1293-6.7499 3.6904-13.551 4.5502-20.243m31.504 92.288 27.17 20.9m-77.925-59.942 29.004 22.311m7.412 27.24 28.803 22.156m-67.354-51.81 24.267 18.666m-24.266 2.8722 54.647 42.036m-54.648-20.498 41.942 32.263m-41.941-10.724 29.235 22.488m-29.235-0.9501 15 11.539m1.4849-149.63 88.986 68.451m-95.499-51.922 82.792 63.686m-18.331-143.33 94.567 72.744m-85.754-44.426 73.048 56.191m-90.018-47.706 77.312 59.471m-87.499-45.768 74.794 57.534m-83.751-42.885 71.043 54.649m-97.134-74.719 19.76 15.2m137.23-131.36 49.281 37.908m-90.954-69.965 17.624 13.557m-78.665-60.512 56.359 43.353m-131.68-101.29 50.741 39.032m115.9 110.69 55.734 42.872m-159.52-122.7 79.707 61.313m-142.57-109.67 38.786 29.835m115.4 110.31 63.579 48.907m-105.95-81.502 18.103 13.925m-43.356-33.351 8.3808 6.4468m-42.963-33.049 17.659 13.584m-69.632-53.563 28.07 21.592m112.83 108.33 72.572 55.824m-115.02-88.474 17.573 13.518m-74.018-56.937 16.369 12.591m-58.377-44.906 18.156 13.966m161.27 145.59 27.689 21.299m-80.459-61.892c10.471 8.0546 20.942 16.109 31.413 24.164m-72.104-55.465c5.1173 3.9364 10.235 7.8728 15.352 11.809m-67.79-52.146 12.78 9.8312m-46.311-35.624 9.1736 7.0566m156.31 141.78 28.927 22.252m-83.15-63.962 37.342 28.725m-74.504-57.311 10.875 8.3657m-58.717-45.167c2.3921 1.8401 4.7841 3.6801 7.1762 5.5202m60.157 67.813 88.116 67.782m-118.69-91.302 2.9986 2.3066m151.89-120.08 40.259 30.969m-197.43-151.87 65.885 50.681m86.666 88.205 37.855 29.119m-67.056-51.581 3.8957 2.9967m-52.574-40.442 7.9024 6.0788m-98.551-75.808 63.772 49.055m97.653 96.656 38.403 29.541m-73.575-56.596 10.764 8.2802m-63.621-48.939 13.37 10.285m-102.74-79.033 63.479 48.83m105.44 102.65 40.697 31.306m-79.398-61.075 14.515 11.165m-71.352-54.886 16.814 12.934m-106.17-81.673 64.278 49.445m111.44 107.26 44.065 33.896m-84.893-65.302 16.668 12.821m-40.716-31.32 6.1938 4.7644m-41.819-32.168 17.915 13.781m-105.94-81.493 63.507 48.852m212.9 13.001 5.7596 4.4304m-173.5-133.47 44.537 34.259m105.26 102.51 15.289 11.761m-181.07-139.28 41.928 32.252m117.86 112.2 13.279 10.214m-189.04-145.42 70.638 54.337m133.12-26.829 14.686 11.297m-65.748-50.575 11.405 8.7731m-68.247-52.498 32.545 25.035m99.447 98.036 6.3772 4.9056m-41.66-32.046 8.6029 6.6176m-55.24-42.492 4.8781 3.7524m-70.926-54.559 41.47 31.9m89.392 90.301 13.43 10.33m-160.27-123.28 51.856 39.889m74.339 78.722 24.469 18.822m-166.64-128.18 36.201 27.847m125.78-32.474 50.618 38.937m-79.314-61.011 17.906 13.774m-55.339-42.568 13.469 10.361m71.844 76.803 18.752 14.425m-77.409-59.545 17.684 13.603m-60.317-46.397 18.951 14.578m69.324 74.865c5.8378 4.4906 11.676 8.9812 17.513 13.472m-72.787-55.99c5.2227 4.0174 10.445 8.0349 15.668 12.052m-64.646-49.728 25.185 19.373m56.07-21.484 79.34 61.031m-112.67-86.667 8.92 6.8616m388.14-53.824v84.336c0 30 40 40 40 0v-84.25m-34.659 0.19326c19.602 54.513 14.659 94.057 14.659 94.057m16.958-94.137c-16.958 35.909-16.958 94.137-16.958 94.137m22.131-94.356 7.1027 83.532c2.5417 29.892 43.245 36.467 39.856-3.389l-7.0622-83.055m-34.389 2.6842c23.937 52.435 22.371 92.03 22.371 92.03m8.6076-94.381c-13.466 37.243-8.6076 94.381-8.6076 94.381m17.101-95.222 6.2568 82.713c2.2629 29.915 42.903 36.869 39.886-3.0172l-6.4556-85.341m-33.997 5.1452c23.185 52.377 21.264 91.676 21.264 91.676m10.318-96.448c-14.814 37.011-10.318 96.448-10.318 96.448m13.79-96.106 13.269 83.958c4.6833 29.632 45.754 33.265 39.51-6.2444l-13.657-86.41m-34.183 7.9163c28.341 51.203 29.647 91.494 29.647 91.494m3.1737-99.188c-12.848 37.976-3.1737 99.188-3.1737 99.188m6.0175-97.774 18.165 83.036c6.4112 29.307 47.624 30.528 39.076-8.5483l-18.751-85.716m-33.605 10.159c31.292 49.455 34.956 89.6 34.956 89.6m-2.5517-99.533c-10.768 38.648 2.5517 99.533 2.5517 99.533m3.1673-99.223 25.449 81.101c8.9819 28.624 50.141 26.189 38.165-11.976l-25.563-81.465m-33.28 10.843c35.549 46.489 42.754 86.151 42.754 86.151m-11.787-96.384c-6.0913 39.409 11.787 96.384 11.787 96.384m0.59647-99.845c34.226 44.234 41.878 81.761 41.878 81.761m-48.124-80.039 25.976 76.96c9.5942 28.424 50.692 25.107 37.899-12.792l-6.7215-19.914m-22.646-25.875c3.4712 31.605 13.616 61.66 13.616 61.66m-345.52-44.218-7.9521 82.325c-2.8844 29.861 35.969 43.661 39.815 3.8459l7.9857-82.673m-33.99-2.6838c13.688 55.26 5.1355 93.387 5.1355 93.387m25.268-90.943c-19.792 34.245-25.268 90.943-25.268 90.943m-55.911-102.48-8.105 83.195c-2.9089 29.859 35.933 43.69 39.812 3.8785l7.754-79.592m-33.778-6.1499c13.77 55.467 5.1489 93.755 5.1489 93.755m23.903-88.351c-18.649 34.418-23.903 88.351-23.903 88.351m-51.949-106.88-21.027 80.129c-7.6147 29.018 28.537 48.843 38.69 10.153l20.774-79.162m-32.813-9.2016c4.6772 56.708-9.8438 92.96-9.8438 92.96m38.697-84.792c-24.534 30.82-38.697 84.792-38.697 84.792m-30.637-108.1-30.28 74.356c-11.315 27.785 21.96 52.132 37.046 15.086l30.692-75.367m-31.291-11.421c-3.1286 55.399-21.695 88.507-21.695 88.507m48.805-78.506c-28.039 27.512-48.805 78.506-48.805 78.506m-19.937-107.93-40.022 74.988c-14.125 26.466 16.455 54.122 35.289 18.834l40.962-76.749m-31.817-14.719c-8.2522 57.939-31.497 90.873-31.497 90.873m61.81-76.877c-32.931 22.767-61.81 76.877-61.81 76.877m-51.037-61.05-8.5729 10.179c-19.325 22.946 4.8286 56.362 30.595 25.767l57.014-67.699m-42.491 10.893c-17.716 34.414-36.262 51.571-36.262 51.571m77.988-62.948c-37.379 14.729-77.988 62.948-77.988 62.948m-69.459 8.7264c71.939-216.97 141.98-384.21 209.06-473.49m-171.92 452.08c58.639-174.45 115.99-315.12 171.47-406.64m-109.55 371.58c38.258-111.11 75.948-207.31 112.91-284.29m-75.031 261.61c27.397-78.251 54.496-148.67 81.237-209.66m-209.6 263.65 25.689 5.9283m-20.582-20.903 40.531 9.3534m-35.422-24.328 55.373 12.778m-50.266-27.754 70.215 16.203m-65.099-31.177 85.051 19.627m-79.635-34.531 99.584 22.981m-94.166-37.884 101.52 23.427m-96.1-38.331 101.47 23.417m-96.058-38.321 101.43 23.407m-82.947-36.065 88.578 20.441m-68.578-30.441 73.457 16.952m-43.457-26.952 49.424 11.406m40.576-366.41v160c0 15 15 135 20 155s55 140 110 140 105-55 105-55m88.688-44.6c-18.702 34.5-48.638 66.046-74.206 97.595m14.55-53.807c-15.633 19.882-32.921 39.141-48.284 58.456m78.832-79.436c-18.436 26.76-41.858 52.042-62.189 77.379m-22.215-27.417c-9.0759 10.758-18.119 21.428-26.523 32.124m10.984-27.103c43.909-10.771 110.28-61.055 137.79-85.222m5.2786 9.225c-18.102 32.621-46.063 62.632-70.577 92.554m77.602-79.266c-16.896 26.262-39.219 50.994-59.58 75.597m66.201-63.268c-14.489 20.299-31.612 39.789-47.778 59.15m54.35-47.783c-11.227 14.64-23.503 28.915-35.42 43.093m41.804-32.151c-7.2805 9.0342-14.832 17.953-22.313 26.82m-107.16-15.272c-11.941 14.34-24.201 28.453-35.376 42.606m-36.653-10.349c-3.2785 3.992-6.4978 7.982-9.6264 11.976m33.944-23.174c-6.462 7.6912-12.814 15.354-18.833 23.032m-53.144-8.5794c-1.5928 1.9597-3.1692 3.9193-4.7255 5.8795m17.553-3.1932c-1.2192 1.515-2.4276 3.0302-3.6234 4.5459m19.539-5.6816c-1.7764 2.198-3.5311 4.396-5.2587 6.5953m-51.908-28.06c-5.3825 6.3805-10.726 12.735-15.904 19.087m24.388-11.342c-3.9391 4.7027-7.8288 9.3964-11.618 14.091m21.033-7.3814c-2.6103 3.1591-5.1871 6.3163-7.715 9.4745m-32.475-51.225c-9.958 12.364-20.427 24.509-30.531 36.603m37.588-26.895c-8.4802 10.227-17.156 20.333-25.519 30.415m32.895-21.297c-6.9761 8.2912-13.982 16.521-20.74 24.741m-32.697-51.127c-8.2743 10.612-17.048 21.041-25.781 31.391m51.28-45.392c-12.251 17.089-26.347 33.609-40.139 49.966m46.869-38.844c-11.216 14.598-23.464 28.835-35.348 42.976m434.53-96.444c0.34096 3e-3 0.68155 5e-3 1.0218 5e-3m-133.76-11.221c20.894 12.031 50.768 29.651 82.544 42.241m-93.536-66.847c19.392 11.125 47.337 27.799 77.549 40.593m-87.181-64.415c17.874 10.23 43.359 25.484 71.283 38.005m-80.075-61.346c16.217 9.2763 38.761 22.744 63.728 34.549m-71.778-57.465c14.451 8.2769 33.813 19.779 55.389 30.465m-62.738-52.978c12.519 7.1883 28.534 16.627 46.387 25.831m-53.057-47.952c10.194 5.8696 22.532 13.074 36.188 20.378m-42.706-42.409c7.6979 4.4396 16.524 9.5562 26.15 14.859m44.061 171.8c22.313 12.875 53.543 30.934 86.188 42.926m-72.234-16.608c23.509 13.529 55.244 31.31 87.845 42.304m-71.42-14.595c24.235 13.772 55.351 30.38 86.795 39.998m-68.754-11.466c24.444 13.544 54.298 28.516 84.03 36.621m-62.558-6.4202c23.594 12.455 50.834 24.925 77.645 31.298m-51.847 0.64015c21.159 10.225 44.228 19.437 66.764 23.968m-37.614 8.5311c17.168 7.1526 35.021 12.996 52.416 15.816m-22.305 14.482c12.582 4.8301 25.423 8.8225 38.088 11.325m202.43-143.58c9.9384-3.7519 28.232-25.404 48.232-25.404-20 0-38.294-21.652-48.232-25.404-10.904-4.1166-26.768 0.4038-41.768 10.404 10-15 14.52-30.863 10.404-41.768-3.7519-9.9383-25.404-28.232-25.404-48.232 0 20-21.652 38.294-25.404 48.232-4.1166 10.904 0.4038 26.768 10.404 41.768-15-10-30.863-14.52-41.768-10.404-9.9384 3.7519-28.232 25.404-48.232 25.404 20 0 38.294 21.652 48.232 25.404 10.904 4.1166 26.768-0.4038 41.768-10.404-10 15-14.52 30.863-10.404 41.768 3.7519 9.9383 25.404 28.232 25.404 48.232 0-20 21.652-38.294 25.404-48.232 4.1166-10.904-0.4038-26.768-10.404-41.768 15 10 30.863 14.52 41.768 10.404v0m-124.47-45.294c-20.476-25.943 19.622-68.223 47.576-46.852m90.07 49.894c27.614-26.575-19.467-76.148-48.46-46.66m-88.184 82.198c-22.94 26.051 18.95 70.574 47.362 47.431m89.149-49.4c27.915 26.56-19.345 76.384-48.38 46.733m-36.427-78.454-35-35m65 35 35-35m-65 65-35 35m65-35 35 35m-59.622 31.421c3.8088 80.773 35.138 104.71 35.055 161.95m-19.827-157.71c4.3238 71.5 30.452 97.509 34.343 145.38m-14.948 8.9587c-10.187-37.433-63.024-86.315-115-60 46.039-3.5732 39.697 80.56 115 60v0m0.4326 3.1398c-17.506-27.477-38.918-38.031-60.433-48.14m75 30c-9.6941-63.408 2.6966-107.06 55-115-35.611 31.842 6.9504 101.16-55 115v0m0 0c4.9203-31.947 12.783-59.341 25-80m-612.06-549.95c18.254 56.906 55.479 84.504 107.51 89.228m-89.794-89.274c16.19 35.089 41.58 55.964 74.706 64.889m-51.483-64.529c9.3686 15.133 20.915 26.901 34.463 35.577m-203.04 66.146c69.534-38.943 74.654-70.305 83.298-102.08m-83.554 78.346c46.126-29.016 57.405-53.931 64.472-78.351m-64.662 48.327c23.509-17.211 35.294-33.042 42.392-48.322m67.749 330s-5-20-15-20-20.05-3.9393-20.05-18.939c0-10 23.76-81.567 15.05-141.06-27.24-19.336-56.037-29.644-90-10 1.7105-0.37051 3.4687 0.15895 5.1288-0.37589 29.871-9.6241 58.13-9.1876 84.871 10.376m35 0c35.938-42.84 75.413-22.419 115 0-37.611-16.488-75-35-109.47 0.18444-1.1489 1.1726-4.2754-1.3607-5.5262-0.18444v0m10 120c30.367-1.0098 25 35 10 35-6.5502 0-13.363-8.1682-18.664-8.617-16.336-1.383-16.336 8.617 3.6642 3.617m-50 50v10l5-5-5-5v0m95-5v10l-5-5 5-5m-90 10c11.947 6.2699 14.485-4.7528 20-5 5 0 10.657 4.6967 15.657 4.6967s12.828-6.1612 17.828-6.1612c17.815 10.952 19.334 1.8984 31.515 1.4645m-70 25c13.061 15.592 28.645 10.896 45 0-13.509 8.0315-29.041 5.1671-45 0v0m-95-190c3.6049-9.0123 14.375-17.166 25.371-17.095 19.506 0.12538 34.629 22.095 49.629 22.095m-77.197 1.5744c3.2947 9.6319 14.681 13.09 27.197 13.426 21.488 1.0473 35-10 50-15m55 0c21.97-0.78554 30.609-17.601 45-20 30-5 50 20 65 20m-90-5c-5 15 16.983 24.908 30 25 19.153 0.13539 45-20 60-20m-456.62 344.6c211.01 146.18 473.96 157.36 717.8 40.635m-821.18 369.77a15 15 0 0 1-15 15 15 15 0 0 1-15-15 15 15 0 0 1 15-15 15 15 0 0 1 15 15v0m0 0a15 15 0 0 1-15 15 15 15 0 0 1-15-15 15 15 0 0 1 15-15 15 15 0 0 1 15 15v0m-126.57 117.38a15 15 0 0 1-15 15 15 15 0 0 1-15-15 15 15 0 0 1 15-15 15 15 0 0 1 15 15v0m1042.6-59.622 203.98-188.87m-760 191.11c-36.79 22.232-13.096-13.806-10-30-16.194 3.0964-52.232 26.79-30-10-1.3815-2.286-2.538-4.3386-3.4882-6.177-14.342-27.748 18.3-6.727 33.488-3.823-3.0964-16.194-26.79-52.232 10-30 36.79-22.232 13.096 13.806 10 30 15.566-2.9761 49.463-24.981 32.331 5.9826-0.69222 1.2511-1.4678 2.5886-2.3312 4.0174 22.232 36.79-13.806 13.096-30 10 3.0964 16.194 26.79 52.232-10 30v0m90 29.641c-42.977 0.8589-4.439-18.504 6.3398-30.981-15.573-5.4157-58.63-2.9156-20.981-23.66-0.85894-42.977 18.504-4.439 30.981 6.3397 5.4157-15.573 2.9155-58.63 23.66-20.981 42.977-0.85896 4.439 18.504-6.3397 30.981 15.573 5.4156 58.63 2.9156 20.981 23.66 0.85893 42.977-18.504 4.439-30.981-6.3397-5.4157 15.573-2.9155 58.63-23.66 20.981v0m540-647.14c9.3096 0 17.5 8.1904 17.5 17.5s-8.1904 17.5-17.5 17.5-17.5-8.1904-17.5-17.5 8.1904-17.5 17.5-17.5v0" fill="none" stroke="#44f" stroke-linecap="round" stroke-linejoin="round" stroke-width="6"/>
</g>
<g transform="matrix(-.12677 0 0 -.1304 45.19 93.192)">
<path d="m545.84 382.41-545.84 316.01m210 268.61-210 194.45m911.9-5.9411c99.387-194.17 70.757-455.58 119.99-552.16m-643.43 240.57c63.517 17.706 102.74 91.752 88.735 171.82-14.842 84.832-83.82 144.3-154.07 132.83-3.5433-0.5786-7.0222-1.3267-10.432-2.2366m597.29 65.205 24.171-44.638c54.856-107.17 71.63-230.67 83.096-336.74 5.7327-53.035 10.082-101.79 16.539-141.35 5.8736-22.701 8.5174-47.91 17.872-69.007m67.841 45.307c-9.9478 28.196-15.078 61.66-19.881 99.154-7.3221 57.164-12.255 123.79-22.188 192.23-19.164 132.07-56.757 268.63-159.93 356.36m-539.42-655.19c9.9046 58.467 14.52 126.9 10.3 186.22m-230.42 478.31c46.142-142.96 3.6278-495.27 220.78-664.28l10.914-8.6878m866.08 92.57c14.798 7.7163 29.597 15.312 44.352 22.862m-549.38-641.6c68.418 306.47 221.93 452.11 390.97 555.15m-858.28-143.64c211.01 146.18 473.96 157.36 717.8 40.635m-741.7-26.906c98.869 70.843 209.43 112.57 324.3 126m222.08-8.4095c72.693-13.72 145.25-38.089 215.91-72.914m-40.047-36.21c-230.74 107.5-475.47 97.046-674.9-36.465m794.2 452.43 198.98-184.24m-404.79-118.56 4.1626 196.82m-74.41-179.37c56.655-11.711 113.08-29.657 168.47-53.741m-757.99-71.916c100.21 74.155 212.68 118.88 329.73 135.11m429.06-64.538c-15.802 55.549-19.411 127.91-28.376 207.75-0.36978 3.2929-0.74635 6.5965-1.1305 9.9099m-249.92-197.15-4.6988 290.74m-29.437-289.57 13.985 283.93m120.02-298.67c-34.637 96.214-44.882 214.13-49.259 315.82m-190.56-306.81c29.437 82.456 45.933 177.74 53.643 263.69m162.27 37.637c3.533-90.019 10.501-178.04 34.74-262.51m-39.016-42.905c-32.023 95.257-41.929 210.52-46.152 307.88m-85.999-31.084c-6.8072-88.543-22.226-182.81-51.944-269.7m-37.562 46.486c19.193 63.624 32.131 139.96 38.753 206.93m72.485-904.68 363.93 600 50-30-343.97-570m206.22 341.31c48.665-25.414 87.155-57.926 142.74-36.309-29.747-93.639-66.266-185.67 11.64-304.94m-110.05 316.53-198.45-316.58m190.38 303.79-43.722 25.505m34.4-40.9-43.237 25.222m33.506-40.379-43.084 25.133m33.45-40.346-43.36 25.293m33.967-40.648-30.222 17.629m20.502-32.793-22.525 13.139m121.81-95.641c-45 15-83.59-37.436-115-15-35 25 5.6207 69.69 25 60 20-10 15-40-5-40s-10 15-10 15m105-20c-35.233 31.759-8.6313 91.182-43.635 107.45-39.004 18.13-57.865-39.242-39.881-51.327 18.559-12.472 42.197 6.6658 32.338 24.067-9.8584 17.401-17.98 1.3069-17.98 1.3069m-43.479-19.964c26.765-8.2327 51.765-24.324 77.637-36.535m-50 25c22.594-17.664 26.08-20.229 30-35m-30 35c17.823-3.5059 40-2.7303 50 5m-41.76 63.595c26.921 10.702 56.76 6.4046 81.76-8.5954 10.162 20.306 32.016 34.07 50 50m-121.08-24.539c20.867 4.2624 50.788 3.3631 66.084-0.46103 8.9362 8.8754 24.598 14.372 40 20m-258.97-263.32c12.451 2.7181 22.877 6.6348 53.969-1.6793 7.8516 4.1689 17.686 7.0373 35 5-2.7139 8.2179-7.1372 13.526-5 30-11.752 19.816-19.029 39.289-25.981 58.737m18.705 30.614c4.6394-23.73 2.0171-48.188 32.276-69.351 1.6155-29.331 6.9112-59.477 13.847-89.987m-522.77 454.24c169.14 93.562 326.47 63.021 482.21 15.869m-33.057-47.494c-134.97 39.939-257.93 61.773-392.67-1.2253m664.28 257s16.2-16.444 18.156-18.4c5-5 27.755 2.1466 39.384-13.489 16.846-22.651 34.829-5.6946 17.537 13.284-14.287 15.681-36.921 27.397-36.921 27.397 10.522 34.893 5.9503 67.291-10 97.808m60-140c40-50 60.47-13.562 25 20-39.863 37.719-63.642 28.302-25-20v0m5.5241 35.004c52.181-37.11 61.871 3.5454 18.555 26.091-48.68 25.337-68.964 9.7594-18.555-26.091v0m0.2171 35.44c54.242-29.751 58.195 11.838 14.231 28.35-49.408 18.557-66.632 0.39139-14.231-28.35v0m-0.4486 37.091c55.074-12.596 48.823 25.653 5.9684 29.058-48.162 3.8263-59.172-16.89-5.9684-29.058v0m4.8619 29.316c-3.3225 19.308-21.478 42.795-35.154 48.149-18.527 7.2535-62.318 13.872-86.952-6.5508m-531.45 154.23c6.931 1.796 14.16 3.9369 21.73 6.4474m-128.5-5.3741c5.0874-1.6437 10.202-3.0835 15.394-4.2913m345.91-43.896c-31.007 15.351-48.642 22.538-66.102 24.131-18.435 1.6817-44.48-1.3374-95.486-23.418-56.213-24.335-104.65-36.509-149.62-36.094-6.4255 0.0593-12.779 0.37675-19.076 0.95117-17.573 1.603-33.745 5.0295-48.869 9.5686m34.631 53.096c-6.1225 1.2544-12.102 2.803-17.995 4.6005m136.68 7.2498c-11.602-3.917-22.529-7.0374-32.902-9.4214m64.852 21.516c-2.438-1.0135-4.8478-1.9965-7.2305-2.9494m105.96 33.949c-21.425-2.6444-46.391-9.4416-77.457-22.036m151.94 13.634c-13.177 4.6655-26.135 7.8425-39.975 9.105-2.4482 0.2233-4.9335 0.3886-7.4624 0.4919m-248.56-74.619c-3.2071 0.13076-6.3808 0.34038-9.5257 0.62725-13.547 1.2358-26.213 3.8348-38.379 7.4008m173.23 19.219c-36.139-14.773-66.928-23.19-94.677-26.167m184.86 56.333c-16.314-2.7247-35.18-8.0144-57.935-16.804m140.08 7.7796c-14.687 5.731-28.384 9.4676-42.982 10.799m-259.07-73.984c-2.17 0.12805-4.3283 0.29013-6.476 0.48604-14.277 1.3024-27.589 3.999-40.267 7.6526m352.21 37.407c-17.401 7.5008-32.154 12.078-47.754 13.501-24.824 2.2644-56.475-2.535-110.13-25.762-40.946-17.726-76.094-28.152-107.98-31.971m362.76 206.62c-1.3157-0.6092-2.703-1.112-4.1542-1.495-48.715-13.58-83.015-73.743-70.822-143.43 12.918-73.833 71.299-121.3 125.41-112.47 2.7295 0.44573 5.3998 1.0208 8.0156 1.7188 1.8473 0.52403 3.7045 0.82603 5.5431 0.92205m-31.404 161.29c-19.33 0-35-17.909-35-40 0-22.091 15.67-40 35-40 6.6094 0 12.791 2.0937 18.064 5.7325m-10.56 49.114c-2.2073 1.4604-4.7705 2.2964-7.5045 2.2964-8.2843 0-15-7.6752-15-17.143 3e-5 -9.4677 6.7158-17.143 15-17.143 5.2551 0 9.879 3.0884 12.558 7.7638m-26.719-27.254-20.839-48.367-32.702-5 2.7019 40-35 15 15 40-23.182 30 33.182 20-10 40h40l5 35m5-215 20-35 35 20-12.62 60.658m12.62-60.658 10.255-10.255m-75.255 205.26 29.339-59.522m-59.339 19.522 46.217-32.354m-56.217-17.646 50.11-2.7875m-30.11-52.212 36.293 26.487m-21.293-41.487 27.706 34.189m17.294-59.189 2.8705 49.49m-72.871 20.51 41.198 10.371m-46.198 39.629 46.856-16.687m-21.856 56.687 32.523-39.453m-17.523 99.453 11.121-4.4483m8.8793-35.552 11.825-50.925m-729.24-309.95a13.75 15 45 0 1-20.329 0.88388 13.75 15 45 0 1 0.88387-20.329 13.75 15 45 0 1 20.329-0.88388 13.75 15 45 0 1-0.88388 20.329v0m2.2168 16.294c4.2522 3.0047 7.236 8.2019 6.6899 19.499m7.1752-33.905c3.3935 3.897 8.9563 6.4145 20.555 5.0941m-73.3-29.196c-3.0047-4.2523-8.2019-7.2359-19.499-6.6899m33.905-7.1753c-3.897-3.3935-6.4146-8.9563-5.0941-20.555m9.9689 67.535c-6.3545 5.5516-11.803 13.412-14.731 27.695m1.7678-40.659c-5.5516 6.3545-13.412 11.803-27.695 14.731m68.943-30.052c5.5516-6.3545 13.412-11.803 27.695-14.731m-40.659 1.7678c6.3546-5.5516 11.803-13.412 14.731-27.695m-17.088 81.907c0.45476 28.009 7.0711 7.0711 31.82 45.962 7.0711-7.0711 17.678-24.749 10.607-31.82 7.0711 7.0711 24.749-3.5355 31.82-10.607-38.891-24.749-17.953-31.365-45.962-31.82m-67.175-10.607c-28.009-0.45476-7.0711-7.0711-45.962-31.82 7.0711-7.0711 24.749-17.678 31.82-10.607-7.0711-7.0711 3.5355-24.749 10.607-31.82 24.749 38.891 31.365 17.953 31.82 45.962m4.1248 60.693c-15.835 41.093-14.142 14.142-71.3 84.264-6.4818-6.4818-12.374-26.517 1.7678-40.659-14.142 14.142-34.177 8.2496-40.659 1.7678 70.121-57.158 43.171-55.465 84.264-71.3m54.212-2.357c41.093-15.835 14.142-14.142 84.264-71.3-6.4818-6.4818-26.517-12.374-40.659 1.7678 14.142-14.142 8.2496-34.177 1.7678-40.659-57.158 70.121-55.465 43.171-71.3 84.264m-209.06 215.79a13.75 15 45 0 1 18.483 0.70551 13.75 15 45 0 1-0.88388 20.329 13.75 15 45 0 1-17.597 2.9582m19.813 13.335c4.2522 3.0048 7.2359 8.202 6.6899 19.499m7.1752-33.905c3.3935 3.897 8.9563 6.4146 20.555 5.0941m-54.02 3.9189c-0.07192 0.0628-0.14372 0.12596-0.21541 0.18939m28.5-28.474c5.5516-6.3545 13.412-11.803 27.695-14.731m-40.659 1.7678c6.3545-5.5516 11.803-13.412 14.731-27.695m-17.088 81.907c0.45472 28.009 7.0711 7.0711 31.82 45.962 7.0711-7.071 17.678-24.749 10.607-31.82 7.0711 7.0711 24.749-3.5355 31.82-10.607-38.891-24.749-17.953-31.365-45.962-31.82m-41.455-54.08c1.6874 2.5151 2.4225 6.493 2.5637 15.189m4.1248 60.693c-2.5351 6.5789-4.621 11.414-6.571 15.182m34.855-43.466c41.093-15.835 14.142-14.142 84.264-71.3-6.4818-6.4818-26.517-12.374-40.659 1.7678 14.142-14.142 8.2496-34.177 1.7678-40.659-57.158 70.121-55.465 43.171-71.3 84.264m13.037-24.709c0.64414-3.5196 1.579-7.2766 2.8367-11.263 6.7761-21.481 22.54-47.225 45.552-70.237 23.012-23.012 48.756-38.776 70.237-45.552 3.7818-1.193 7.3568-2.0955 10.719-2.735m38.029 38.112c-0.63865 3.3414-1.537 6.893-2.7216 10.649-6.7762 21.481-22.54 47.225-45.552 70.237-23.012 23.012-48.756 38.776-70.237 45.552-3.4559 1.0902-6.7391 1.9378-9.8447 2.5638m1.7111 29.762c5.9631-0.90155 11.998-2.3444 17.992-4.2353 27.12-8.5551 55.826-26.663 81.592-52.43 25.766-25.766 43.875-54.472 52.43-81.592 2.5652-8.132 4.3059-16.338 4.9891-24.34m-64.333-64.648c-8.0934 0.66548-16.4 2.4171-24.631 5.0135-27.12 8.5551-55.826 26.663-81.592 52.43-22.969 22.969-39.852 48.274-49.308 72.709m263.44-101.32c5.118-0.90346 10.276-2.1934 15.406-3.8113 14.981-4.7256 30.445-12.366 45.63-22.602m-78.973-141.15c-24.812 25.295-42.277 53.292-50.632 79.777-1.6648 5.2776-2.9823 10.586-3.8889 15.85m29.07 5.6735c0.64573-3.6351 1.6035-7.5264 2.9092-11.665 6.7761-21.481 22.54-47.225 45.552-70.237 0.64983-0.64983 1.3018-1.2939 1.9559-1.9321m88.892 49.505c-5.9017 7.8415-12.634 15.635-20.137 23.138-23.012 23.012-48.756 38.776-70.237 45.552-3.5066 1.1062-6.8354 1.9626-9.9813 2.5912m-258.86 323.89c7.33-12.193 12.963-24.466 16.738-36.43 2.1293-6.7499 3.6904-13.551 4.5502-20.243m31.504 92.288 27.17 20.9m-77.925-59.942 29.004 22.311m7.412 27.24 28.803 22.156m-67.354-51.81 24.267 18.666m-24.266 2.8722 54.647 42.036m-54.648-20.498 41.942 32.263m-41.941-10.724 29.235 22.488m-29.235-0.9501 15 11.539m1.4849-149.63 88.986 68.451m-95.499-51.922 82.792 63.686m-18.331-143.33 94.567 72.744m-85.754-44.426 73.048 56.191m-90.018-47.706 77.312 59.471m-87.499-45.768 74.794 57.534m-83.751-42.885 71.043 54.649m-97.134-74.719 19.76 15.2m137.23-131.36 49.281 37.908m-90.954-69.965 17.624 13.557m-78.665-60.512 56.359 43.353m-131.68-101.29 50.741 39.032m115.9 110.69 55.734 42.872m-159.52-122.7 79.707 61.313m-142.57-109.67 38.786 29.835m115.4 110.31 63.579 48.907m-105.95-81.502 18.103 13.925m-43.356-33.351 8.3808 6.4468m-42.963-33.049 17.659 13.584m-69.632-53.563 28.07 21.592m112.83 108.33 72.572 55.824m-115.02-88.474 17.573 13.518m-74.018-56.937 16.369 12.591m-58.377-44.906 18.156 13.966m161.27 145.59 27.689 21.299m-80.459-61.892c10.471 8.0546 20.942 16.109 31.413 24.164m-72.104-55.465c5.1173 3.9364 10.235 7.8728 15.352 11.809m-67.79-52.146 12.78 9.8312m-46.311-35.624 9.1736 7.0566m156.31 141.78 28.927 22.252m-83.15-63.962 37.342 28.725m-74.504-57.311 10.875 8.3657m-58.717-45.167c2.3921 1.8401 4.7841 3.6801 7.1762 5.5202m60.157 67.813 88.116 67.782m-118.69-91.302 2.9986 2.3066m151.89-120.08 40.259 30.969m-197.43-151.87 65.885 50.681m86.666 88.205 37.855 29.119m-67.056-51.581 3.8957 2.9967m-52.574-40.442 7.9024 6.0788m-98.551-75.808 63.772 49.055m97.653 96.656 38.403 29.541m-73.575-56.596 10.764 8.2802m-63.621-48.939 13.37 10.285m-102.74-79.033 63.479 48.83m105.44 102.65 40.697 31.306m-79.398-61.075 14.515 11.165m-71.352-54.886 16.814 12.934m-106.17-81.673 64.278 49.445m111.44 107.26 44.065 33.896m-84.893-65.302 16.668 12.821m-40.716-31.32 6.1938 4.7644m-41.819-32.168 17.915 13.781m-105.94-81.493 63.507 48.852m212.9 13.001 5.7596 4.4304m-173.5-133.47 44.537 34.259m105.26 102.51 15.289 11.761m-181.07-139.28 41.928 32.252m117.86 112.2 13.279 10.214m-189.04-145.42 70.638 54.337m133.12-26.829 14.686 11.297m-65.748-50.575 11.405 8.7731m-68.247-52.498 32.545 25.035m99.447 98.036 6.3772 4.9056m-41.66-32.046 8.6029 6.6176m-55.24-42.492 4.8781 3.7524m-70.926-54.559 41.47 31.9m89.392 90.301 13.43 10.33m-160.27-123.28 51.856 39.889m74.339 78.722 24.469 18.822m-166.64-128.18 36.201 27.847m125.78-32.474 50.618 38.937m-79.314-61.011 17.906 13.774m-55.339-42.568 13.469 10.361m71.844 76.803 18.752 14.425m-77.409-59.545 17.684 13.603m-60.317-46.397 18.951 14.578m69.324 74.865c5.8378 4.4906 11.676 8.9812 17.513 13.472m-72.787-55.99c5.2227 4.0174 10.445 8.0349 15.668 12.052m-64.646-49.728 25.185 19.373m56.07-21.484 79.34 61.031m-112.67-86.667 8.92 6.8616m388.14-53.824v84.336c0 30 40 40 40 0v-84.25m-34.659 0.19326c19.602 54.513 14.659 94.057 14.659 94.057m16.958-94.137c-16.958 35.909-16.958 94.137-16.958 94.137m22.131-94.356 7.1027 83.532c2.5417 29.892 43.245 36.467 39.856-3.389l-7.0622-83.055m-34.389 2.6842c23.937 52.435 22.371 92.03 22.371 92.03m8.6076-94.381c-13.466 37.243-8.6076 94.381-8.6076 94.381m17.101-95.222 6.2568 82.713c2.2629 29.915 42.903 36.869 39.886-3.0172l-6.4556-85.341m-33.997 5.1452c23.185 52.377 21.264 91.676 21.264 91.676m10.318-96.448c-14.814 37.011-10.318 96.448-10.318 96.448m13.79-96.106 13.269 83.958c4.6833 29.632 45.754 33.265 39.51-6.2444l-13.657-86.41m-34.183 7.9163c28.341 51.203 29.647 91.494 29.647 91.494m3.1737-99.188c-12.848 37.976-3.1737 99.188-3.1737 99.188m6.0175-97.774 18.165 83.036c6.4112 29.307 47.624 30.528 39.076-8.5483l-18.751-85.716m-33.605 10.159c31.292 49.455 34.956 89.6 34.956 89.6m-2.5517-99.533c-10.768 38.648 2.5517 99.533 2.5517 99.533m3.1673-99.223 25.449 81.101c8.9819 28.624 50.141 26.189 38.165-11.976l-25.563-81.465m-33.28 10.843c35.549 46.489 42.754 86.151 42.754 86.151m-11.787-96.384c-6.0913 39.409 11.787 96.384 11.787 96.384m0.59647-99.845c34.226 44.234 41.878 81.761 41.878 81.761m-48.124-80.039 25.976 76.96c9.5942 28.424 50.692 25.107 37.899-12.792l-6.7215-19.914m-22.646-25.875c3.4712 31.605 13.616 61.66 13.616 61.66m-345.52-44.218-7.9521 82.325c-2.8844 29.861 35.969 43.661 39.815 3.8459l7.9857-82.673m-33.99-2.6838c13.688 55.26 5.1355 93.387 5.1355 93.387m25.268-90.943c-19.792 34.245-25.268 90.943-25.268 90.943m-55.911-102.48-8.105 83.195c-2.9089 29.859 35.933 43.69 39.812 3.8785l7.754-79.592m-33.778-6.1499c13.77 55.467 5.1489 93.755 5.1489 93.755m23.903-88.351c-18.649 34.418-23.903 88.351-23.903 88.351m-51.949-106.88-21.027 80.129c-7.6147 29.018 28.537 48.843 38.69 10.153l20.774-79.162m-32.813-9.2016c4.6772 56.708-9.8438 92.96-9.8438 92.96m38.697-84.792c-24.534 30.82-38.697 84.792-38.697 84.792m-30.637-108.1-30.28 74.356c-11.315 27.785 21.96 52.132 37.046 15.086l30.692-75.367m-31.291-11.421c-3.1286 55.399-21.695 88.507-21.695 88.507m48.805-78.506c-28.039 27.512-48.805 78.506-48.805 78.506m-19.937-107.93-40.022 74.988c-14.125 26.466 16.455 54.122 35.289 18.834l40.962-76.749m-31.817-14.719c-8.2522 57.939-31.497 90.873-31.497 90.873m61.81-76.877c-32.931 22.767-61.81 76.877-61.81 76.877m-51.037-61.05-8.5729 10.179c-19.325 22.946 4.8286 56.362 30.595 25.767l57.014-67.699m-42.491 10.893c-17.716 34.414-36.262 51.571-36.262 51.571m77.988-62.948c-37.379 14.729-77.988 62.948-77.988 62.948m-69.459 8.7264c71.939-216.97 141.98-384.21 209.06-473.49m-171.92 452.08c58.639-174.45 115.99-315.12 171.47-406.64m-109.55 371.58c38.258-111.11 75.948-207.31 112.91-284.29m-75.031 261.61c27.397-78.251 54.496-148.67 81.237-209.66m-209.6 263.65 25.689 5.9283m-20.582-20.903 40.531 9.3534m-35.422-24.328 55.373 12.778m-50.266-27.754 70.215 16.203m-65.099-31.177 85.051 19.627m-79.635-34.531 99.584 22.981m-94.166-37.884 101.52 23.427m-96.1-38.331 101.47 23.417m-96.058-38.321 101.43 23.407m-82.947-36.065 88.578 20.441m-68.578-30.441 73.457 16.952m-43.457-26.952 49.424 11.406m40.576-366.41v160c0 15 15 135 20 155s55 140 110 140 105-55 105-55m88.688-44.6c-18.702 34.5-48.638 66.046-74.206 97.595m14.55-53.807c-15.633 19.882-32.921 39.141-48.284 58.456m78.832-79.436c-18.436 26.76-41.858 52.042-62.189 77.379m-22.215-27.417c-9.0759 10.758-18.119 21.428-26.523 32.124m10.984-27.103c43.909-10.771 110.28-61.055 137.79-85.222m5.2786 9.225c-18.102 32.621-46.063 62.632-70.577 92.554m77.602-79.266c-16.896 26.262-39.219 50.994-59.58 75.597m66.201-63.268c-14.489 20.299-31.612 39.789-47.778 59.15m54.35-47.783c-11.227 14.64-23.503 28.915-35.42 43.093m41.804-32.151c-7.2805 9.0342-14.832 17.953-22.313 26.82m-107.16-15.272c-11.941 14.34-24.201 28.453-35.376 42.606m-36.653-10.349c-3.2785 3.992-6.4978 7.982-9.6264 11.976m33.944-23.174c-6.462 7.6912-12.814 15.354-18.833 23.032m-53.144-8.5794c-1.5928 1.9597-3.1692 3.9193-4.7255 5.8795m17.553-3.1932c-1.2192 1.515-2.4276 3.0302-3.6234 4.5459m19.539-5.6816c-1.7764 2.198-3.5311 4.396-5.2587 6.5953m-51.908-28.06c-5.3825 6.3805-10.726 12.735-15.904 19.087m24.388-11.342c-3.9391 4.7027-7.8288 9.3964-11.618 14.091m21.033-7.3814c-2.6103 3.1591-5.1871 6.3163-7.715 9.4745m-32.475-51.225c-9.958 12.364-20.427 24.509-30.531 36.603m37.588-26.895c-8.4802 10.227-17.156 20.333-25.519 30.415m32.895-21.297c-6.9761 8.2912-13.982 16.521-20.74 24.741m-32.697-51.127c-8.2743 10.612-17.048 21.041-25.781 31.391m51.28-45.392c-12.251 17.089-26.347 33.609-40.139 49.966m46.869-38.844c-11.216 14.598-23.464 28.835-35.348 42.976m434.53-96.444c0.34096 3e-3 0.68155 5e-3 1.0218 5e-3m-133.76-11.221c20.894 12.031 50.768 29.651 82.544 42.241m-93.536-66.847c19.392 11.125 47.337 27.799 77.549 40.593m-87.181-64.415c17.874 10.23 43.359 25.484 71.283 38.005m-80.075-61.346c16.217 9.2763 38.761 22.744 63.728 34.549m-71.778-57.465c14.451 8.2769 33.813 19.779 55.389 30.465m-62.738-52.978c12.519 7.1883 28.534 16.627 46.387 25.831m-53.057-47.952c10.194 5.8696 22.532 13.074 36.188 20.378m-42.706-42.409c7.6979 4.4396 16.524 9.5562 26.15 14.859m44.061 171.8c22.313 12.875 53.543 30.934 86.188 42.926m-72.234-16.608c23.509 13.529 55.244 31.31 87.845 42.304m-71.42-14.595c24.235 13.772 55.351 30.38 86.795 39.998m-68.754-11.466c24.444 13.544 54.298 28.516 84.03 36.621m-62.558-6.4202c23.594 12.455 50.834 24.925 77.645 31.298m-51.847 0.64015c21.159 10.225 44.228 19.437 66.764 23.968m-37.614 8.5311c17.168 7.1526 35.021 12.996 52.416 15.816m-22.305 14.482c12.582 4.8301 25.423 8.8225 38.088 11.325m202.43-143.58c9.9384-3.7519 28.232-25.404 48.232-25.404-20 0-38.294-21.652-48.232-25.404-10.904-4.1166-26.768 0.4038-41.768 10.404 10-15 14.52-30.863 10.404-41.768-3.7519-9.9383-25.404-28.232-25.404-48.232 0 20-21.652 38.294-25.404 48.232-4.1166 10.904 0.4038 26.768 10.404 41.768-15-10-30.863-14.52-41.768-10.404-9.9384 3.7519-28.232 25.404-48.232 25.404 20 0 38.294 21.652 48.232 25.404 10.904 4.1166 26.768-0.4038 41.768-10.404-10 15-14.52 30.863-10.404 41.768 3.7519 9.9383 25.404 28.232 25.404 48.232 0-20 21.652-38.294 25.404-48.232 4.1166-10.904-0.4038-26.768-10.404-41.768 15 10 30.863 14.52 41.768 10.404v0m-124.47-45.294c-20.476-25.943 19.622-68.223 47.576-46.852m90.07 49.894c27.614-26.575-19.467-76.148-48.46-46.66m-88.184 82.198c-22.94 26.051 18.95 70.574 47.362 47.431m89.149-49.4c27.915 26.56-19.345 76.384-48.38 46.733m-36.427-78.454-35-35m65 35 35-35m-65 65-35 35m65-35 35 35m-59.622 31.421c3.8088 80.773 35.138 104.71 35.055 161.95m-19.827-157.71c4.3238 71.5 30.452 97.509 34.343 145.38m-14.948 8.9587c-10.187-37.433-63.024-86.315-115-60 46.039-3.5732 39.697 80.56 115 60v0m0.4326 3.1398c-17.506-27.477-38.918-38.031-60.433-48.14m75 30c-9.6941-63.408 2.6966-107.06 55-115-35.611 31.842 6.9504 101.16-55 115v0m0 0c4.9203-31.947 12.783-59.341 25-80m-612.06-549.95c18.254 56.906 55.479 84.504 107.51 89.228m-89.794-89.274c16.19 35.089 41.58 55.964 74.706 64.889m-51.483-64.529c9.3686 15.133 20.915 26.901 34.463 35.577m-203.04 66.146c69.534-38.943 74.654-70.305 83.298-102.08m-83.554 78.346c46.126-29.016 57.405-53.931 64.472-78.351m-64.662 48.327c23.509-17.211 35.294-33.042 42.392-48.322m67.749 330s-5-20-15-20-20.05-3.9393-20.05-18.939c0-10 23.76-81.567 15.05-141.06-27.24-19.336-56.037-29.644-90-10 1.7105-0.37051 3.4687 0.15895 5.1288-0.37589 29.871-9.6241 58.13-9.1876 84.871 10.376m35 0c35.938-42.84 75.413-22.419 115 0-37.611-16.488-75-35-109.47 0.18444-1.1489 1.1726-4.2754-1.3607-5.5262-0.18444v0m10 120c30.367-1.0098 25 35 10 35-6.5502 0-13.363-8.1682-18.664-8.617-16.336-1.383-16.336 8.617 3.6642 3.617m-50 50v10l5-5-5-5v0m95-5v10l-5-5 5-5m-90 10c11.947 6.2699 14.485-4.7528 20-5 5 0 10.657 4.6967 15.657 4.6967s12.828-6.1612 17.828-6.1612c17.815 10.952 19.334 1.8984 31.515 1.4645m-70 25c13.061 15.592 28.645 10.896 45 0-13.509 8.0315-29.041 5.1671-45 0v0m-95-190c3.6049-9.0123 14.375-17.166 25.371-17.095 19.506 0.12538 34.629 22.095 49.629 22.095m-77.197 1.5744c3.2947 9.6319 14.681 13.09 27.197 13.426 21.488 1.0473 35-10 50-15m55 0c21.97-0.78554 30.609-17.601 45-20 30-5 50 20 65 20m-90-5c-5 15 16.983 24.908 30 25 19.153 0.13539 45-20 60-20m-456.62 344.6c211.01 146.18 473.96 157.36 717.8 40.635m-821.18 369.77a15 15 0 0 1-15 15 15 15 0 0 1-15-15 15 15 0 0 1 15-15 15 15 0 0 1 15 15v0m0 0a15 15 0 0 1-15 15 15 15 0 0 1-15-15 15 15 0 0 1 15-15 15 15 0 0 1 15 15v0m-126.57 117.38a15 15 0 0 1-15 15 15 15 0 0 1-15-15 15 15 0 0 1 15-15 15 15 0 0 1 15 15v0m1042.6-59.622 203.98-188.87m-760 191.11c-36.79 22.232-13.096-13.806-10-30-16.194 3.0964-52.232 26.79-30-10-1.3815-2.286-2.538-4.3386-3.4882-6.177-14.342-27.748 18.3-6.727 33.488-3.823-3.0964-16.194-26.79-52.232 10-30 36.79-22.232 13.096 13.806 10 30 15.566-2.9761 49.463-24.981 32.331 5.9826-0.69222 1.2511-1.4678 2.5886-2.3312 4.0174 22.232 36.79-13.806 13.096-30 10 3.0964 16.194 26.79 52.232-10 30v0m90 29.641c-42.977 0.8589-4.439-18.504 6.3398-30.981-15.573-5.4157-58.63-2.9156-20.981-23.66-0.85894-42.977 18.504-4.439 30.981 6.3397 5.4157-15.573 2.9155-58.63 23.66-20.981 42.977-0.85896 4.439 18.504-6.3397 30.981 15.573 5.4156 58.63 2.9156 20.981 23.66 0.85893 42.977-18.504 4.439-30.981-6.3397-5.4157 15.573-2.9155 58.63-23.66 20.981v0m540-647.14c9.3096 0 17.5 8.1904 17.5 17.5s-8.1904 17.5-17.5 17.5-17.5-8.1904-17.5-17.5 8.1904-17.5 17.5-17.5v0" fill="none" stroke="#44f" stroke-linecap="round" stroke-linejoin="round" stroke-width="6"/>
</g>
<g transform="matrix(.12677 0 0 .1304 -119.61 -167.61)">
<path d="m1197.9 650c10.057 2.9146 25.508-8.8384 25.508-8.8384m-6.2142 23.838c12.841 5 12.841 20 12.841 20m-11.178 8.4081c10.346 9.1018 5.1999 23.191 5.1999 23.191m-4.022 13.4c9.3763 10.098 2.8368 23.597 2.8368 23.597m-7.4345 5.0114c9.2828 10.184 2.619 23.623 2.619 23.623m21.979-137.23c5.0425 2.3567 8.7799 5.4591 10 10m-7.0625 30.789c4.2582 3.5844 7.0625 7.5504 7.0625 12.252m-7.1141 23.876c3.69 4.167 5.8861 8.4995 5.2005 13.151m-6.9082 24.304c1.8977 5.2326 2.3453 10.069 0 14.142m-646.18-368.51c12.683-6.0607 25.889-7.2503 40 0m-140-240c20-20 45-20 60-5m-35 70c20 5 40-15 40-15m90-50c30-15 60 0 75 15v0m-55 50c35 0 55-20 55-20m-183.47-37.665c1.5332 3.5062 2.4128 7.5937 2.4128 11.958 0 13.026-7.835 23.586-17.5 23.586s-17.5-10.56-17.5-23.586c0-4.9016 1.1094-9.454 3.0082-13.226m180.91 0.0755c3.019 4.2382 4.8746 9.9932 4.8746 16.332 0 13.026-7.835 23.586-17.5 23.586s-17.5-10.56-17.5-23.586c0-5.6373 1.4674-10.813 3.9156-14.87" fill="none" stroke="#44f" stroke-linecap="round" stroke-linejoin="round" stroke-width="3"/>
<g transform="matrix(.054127 .030375 -.03125 .052611 967.18 1188.7)">
<path d="m0-300c0-100 100-200 200-200s200 100 200 250c0 250-400 650-400 750 0-100-400-500-400-750 0-150 100-250 200-250s200 100 200 200z" fill="#f00"/>
</g>
<g transform="matrix(.06037 .015723 -.016176 .05868 1013.4 1067.6)">
<path d="m0-300c0-100 100-200 200-200s200 100 200 250c0 250-400 650-400 750 0-100-400-500-400-750 0-150 100-250 200-250s200 100 200 200z" fill="#f00"/>
</g>
<g transform="matrix(.062414 .0031794 -.003271 .060667 1041.5 942.51)">
<path d="m0-300c0-100 100-200 200-200s200 100 200 250c0 250-400 650-400 750 0-100-400-500-400-750 0-150 100-250 200-250s200 100 200 200z" fill="#f00"/>
</g>
<g transform="matrix(.062262 .0052947 -.0054472 .060519 1054.5 816.53)">
<path d="m0-300c0-100 100-200 200-200s200 100 200 250c0 250-400 650-400 750 0-100-400-500-400-750 0-150 100-250 200-250s200 100 200 200z" fill="#f00"/>
</g>
<g transform="matrix(.06155 .010549 -.010853 .059827 1068.4 699.56)">
<path d="m0-300c0-100 100-200 200-200s200 100 200 250c0 250-400 650-400 750 0-100-400-500-400-750 0-150 100-250 200-250s200 100 200 200z" fill="#f00"/>
</g>
</g>
<g transform="matrix(-.12677 0 0 -.1304 45.19 93.192)">
<path d="m1197.9 650c10.057 2.9146 25.508-8.8384 25.508-8.8384m-6.2142 23.838c12.841 5 12.841 20 12.841 20m-11.178 8.4081c10.346 9.1018 5.1999 23.191 5.1999 23.191m-4.022 13.4c9.3763 10.098 2.8368 23.597 2.8368 23.597m-7.4345 5.0114c9.2828 10.184 2.619 23.623 2.619 23.623m21.979-137.23c5.0425 2.3567 8.7799 5.4591 10 10m-7.0625 30.789c4.2582 3.5844 7.0625 7.5504 7.0625 12.252m-7.1141 23.876c3.69 4.167 5.8861 8.4995 5.2005 13.151m-6.9082 24.304c1.8977 5.2326 2.3453 10.069 0 14.142m-646.18-368.51c12.683-6.0607 25.889-7.2503 40 0m-140-240c20-20 45-20 60-5m-35 70c20 5 40-15 40-15m90-50c30-15 60 0 75 15v0m-55 50c35 0 55-20 55-20m-183.47-37.665c1.5332 3.5062 2.4128 7.5937 2.4128 11.958 0 13.026-7.835 23.586-17.5 23.586s-17.5-10.56-17.5-23.586c0-4.9016 1.1094-9.454 3.0082-13.226m180.91 0.0755c3.019 4.2382 4.8746 9.9932 4.8746 16.332 0 13.026-7.835 23.586-17.5 23.586s-17.5-10.56-17.5-23.586c0-5.6373 1.4674-10.813 3.9156-14.87" fill="none" stroke="#44f" stroke-linecap="round" stroke-linejoin="round" stroke-width="3"/>
<g transform="matrix(.054127 .030375 -.03125 .052611 967.18 1188.7)">
<path d="m0-300c0-100 100-200 200-200s200 100 200 250c0 250-400 650-400 750 0-100-400-500-400-750 0-150 100-250 200-250s200 100 200 200z" fill="#f00"/>
</g>
<g transform="matrix(.06037 .015723 -.016176 .05868 1013.4 1067.6)">
<path d="m0-300c0-100 100-200 200-200s200 100 200 250c0 250-400 650-400 750 0-100-400-500-400-750 0-150 100-250 200-250s200 100 200 200z" fill="#f00"/>
</g>
<g transform="matrix(.062414 .0031794 -.003271 .060667 1041.5 942.51)">
<path d="m0-300c0-100 100-200 200-200s200 100 200 250c0 250-400 650-400 750 0-100-400-500-400-750 0-150 100-250 200-250s200 100 200 200z" fill="#f00"/>
</g>
<g transform="matrix(.062262 .0052947 -.0054472 .060519 1054.5 816.53)">
<path d="m0-300c0-100 100-200 200-200s200 100 200 250c0 250-400 650-400 750 0-100-400-500-400-750 0-150 100-250 200-250s200 100 200 200z" fill="#f00"/>
</g>
<g transform="matrix(.06155 .010549 -.010853 .059827 1068.4 699.56)">
<path d="m0-300c0-100 100-200 200-200s200 100 200 250c0 250-400 650-400 750 0-100-400-500-400-750 0-150 100-250 200-250s200 100 200 200z" fill="#f00"/>
</g>
</g>
</svg>