<?xml version="1.0" encoding="UTF-8"?>
<svg width="100%" height="100%" version="1.1" viewBox="-120 -168 165.58 261.58" xmlns="http://www.w3.org/2000/svg">
<g transform="matrix(.12677 0 0 .1304 -119.6 -167.61)">
<path d="m0 27.174v74.783l60 73.043v479.35l45-31.199v-290.81c47.547 13.885 57.732 59.911 59.799 112.82 42.385-78.834 7.4515-103.3-9.7988-140.17 22.435-6.7944 44.101-15.652 60-40-19.522-21.34-39.812-27.132-60-35 45.6-69.699 20.411-97.002-2.0762-126.05 4.2622 33.894 6.3836 68.407-47.381 116.95l-0.54297 59.85v-125.75zm616.34 92.865c-90.016 0.02135-177.16 15.772-250.18 35.988-51.609 122.47 17.697 219.06-46.164 323.97 20-55-81.657-74.736-75 5 1.6217 19.425 15.247 28.676 31.951 29.883-4.328-0.20376-8.2668-0.74477-11.527-1.7246l-45.066 31.086-4e-3 -6e-3 -220.35 151.97v30l235.47-162.39-14.711-19.047 276.74 357.73 0.03711 17.5h304.96v-17.5c28.548-117.15 72.473-223.81 144.93-319.04l-103.84-76.062c-18.965 21.006-35.781 42.993-50.818 65.793l2.1016-3.1894h-384.59l-50.283-65h-21.818c7.0311-2.0893 14.314-4.3835 21.775-6.8106 3.8198-0.61198 7.658-1.2023 11.504-1.7852l-11.461 8.5957 11.695 15h459.65l12.201-12.578-23.545-17.422h-407.1c34.859-5.9077 68.524-14.106 95.883-32.449 7.3526-4.9296 12.789-12.427 20.594-17.135 11.293-6.8124 22.21-13.531 28.297-25.416l-25.602 9.5859 25.207-9.5098c8.9748-2.7118 15.273-10.185 22.719-25.076 60.119-120.24-19.763-129.97 64.359-269.45-9.361-0.34689-18.704-0.51393-28.016-0.51172zm547.15 344.54c-23.907-0.20893-52.475 9.6598-73.496 25.426-40 30-80 15-75-25-70 30-5 140 65 95 42.196-27.126 105-40 115-5 31.743-65.249 5.7911-90.1-31.504-90.426zm-868.37 48.732-2.7363 1.0254c-2.7696 0.29378-5.4837 0.48671-8.1172 0.58203 3.5681-0.21551 7.2102-0.7583 10.854-1.6074zm497.47 60.156c-65.17 98.935-96.87 213.15-125.16 328.96l-253.98-328.32 9.1816 10.898h362.36zm226.85 63.707c-52.412 65.676-90.819 136.71-119.54 212.92l21.531 23.418c27.583-79.521 64.959-153.58 116.84-221.97-5.4115 26.806-8.2734 54.748-8.2734 83.465 0 136.64 64.808 255.72 160.74 318.29l-2.5957-1.5899c-45.752 115.83-115.54 225.87-185.65 304.26l13.85 17.496c72.416-75.901 146.45-187.78 195.84-307.03l-6.2675-3.8379c29.107 16.624 60.756 28.176 94.082 33.701v-18.471c-143.48-19.162-255-163.61-255-339.01 0-26.57 2.5625-52.429 7.4043-77.252l-14.016-10.17c0.1069-0.14093 0.2113-0.28295 0.3183-0.42383zm88.402 64.605 17.75 13.197c-0.4431 6.6084-0.668 13.287-0.668 20.027 0 122.96 75.111 225.59 175.07 249.66v-30.736c-85.541-23.521-149.18-112.61-149.18-218.92 0-0.68109-6e-4 -1.3614 0.01-2.041zm-20.275 13.242c-11.012-0.22638-20.789 7.2283-14.314 26.105-44.412-8.7213-25.537 58.643 7.2949 29.1 7.5142 43.327 68.569-5.0066 20.602-20.629 18.918-19.531 1.5087-34.266-13.582-34.576zm-254.97 86.537-29.986 105.49c48.755 35.02 80.42 91.607 80.42 155.46 0 37.016-10.642 71.592-29.088 100.94l67.256 87.81c42.988-51.354 68.795-117.09 68.795-188.75 0-112.48-63.586-210.38-157.4-260.95zm276.73 19.518c-12.986-7e-3 -25.24 9.4417-13.352 29.029-45.25 0.95904-12.432 62.742 13.338 26.871 16.589 40.725 65.921-19.527 15.725-24.551 12.766-20.619-1.8873-31.342-15.711-31.35zm59.832 95.607c-15.415 0.1637-32.128 14.613-11.727 32.826-42.995 14.138 6.4427 63.635 20.607 21.801 27.764 34.101 57.34-37.934 7.8653-28.072 5.0597-19.186-5.4976-26.674-16.746-26.555zm92.318 75.375c-17.158-0.3911-37.538 22.874-8.5742 35.959-36.78 26.376 25.224 58.778 26.197 14.621 8.7819 5.7917 15.837 5.7501 20.891 2.6777v-35.299c-5.0219-2.2384-12.218-1.7718-21.805 3.4804-0.7188-15.416-8.3297-21.248-16.709-21.439z" fill="#fc4"/>
</g>
<g transform="matrix(-.12677 0 0 -.1304 45.197 93.191)">
<path d="m0 27.174v74.783l60 73.043v479.35l45-31.199v-290.81c47.547 13.885 57.732 59.911 59.799 112.82 42.385-78.834 7.4515-103.3-9.7988-140.17 22.435-6.7944 44.101-15.652 60-40-19.522-21.34-39.812-27.132-60-35 45.6-69.699 20.411-97.002-2.0762-126.05 4.2622 33.894 6.3836 68.407-47.381 116.95l-0.54297 59.85v-125.75zm616.34 92.865c-90.016 0.02135-177.16 15.772-250.18 35.988-51.609 122.47 17.697 219.06-46.164 323.97 20-55-81.657-74.736-75 5 1.6217 19.425 15.247 28.676 31.951 29.883-4.328-0.20376-8.2668-0.74477-11.527-1.7246l-45.066 31.086-4e-3 -6e-3 -220.35 151.97v30l235.47-162.39-14.711-19.047 276.74 357.73 0.03711 17.5h304.96v-17.5c28.548-117.15 72.473-223.81 144.93-319.04l-103.84-76.062c-18.965 21.006-35.781 42.993-50.818 65.793l2.1016-3.1894h-384.59l-50.283-65h-21.818c7.0311-2.0893 14.314-4.3835 21.775-6.8106 3.8198-0.61198 7.658-1.2023 11.504-1.7852l-11.461 8.5957 11.695 15h459.65l12.201-12.578-23.545-17.422h-407.1c34.859-5.9077 68.524-14.106 95.883-32.449 7.3526-4.9296 12.789-12.427 20.594-17.135 11.293-6.8124 22.21-13.531 28.297-25.416l-25.602 9.5859 25.207-9.5098c8.9748-2.7118 15.273-10.185 22.719-25.076 60.119-120.24-19.763-129.97 64.359-269.45-9.361-0.34689-18.704-0.51393-28.016-0.51172zm547.15 344.54c-23.907-0.20893-52.475 9.6598-73.496 25.426-40 30-80 15-75-25-70 30-5 140 65 95 42.196-27.126 105-40 115-5 31.743-65.249 5.7911-90.1-31.504-90.426zm-868.37 48.732-2.7363 1.0254c-2.7696 0.29378-5.4837 0.48671-8.1172 0.58203 3.5681-0.21551 7.2102-0.7583 10.854-1.6074zm497.47 60.156c-65.17 98.935-96.87 213.15-125.16 328.96l-253.98-328.32 9.1816 10.898h362.36zm226.85 63.707c-52.412 65.676-90.819 136.71-119.54 212.92l21.531 23.418c27.583-79.521 64.959-153.58 116.84-221.97-5.4115 26.806-8.2734 54.748-8.2734 83.465 0 136.64 64.808 255.72 160.74 318.29l-2.5957-1.5899c-45.752 115.83-115.54 225.87-185.65 304.26l13.85 17.496c72.416-75.901 146.45-187.78 195.84-307.03l-6.2675-3.8379c29.107 16.624 60.756 28.176 94.082 33.701v-18.471c-143.48-19.162-255-163.61-255-339.01 0-26.57 2.5625-52.429 7.4043-77.252l-14.016-10.17c0.1069-0.14093 0.2113-0.28295 0.3183-0.42383zm88.402 64.605 17.75 13.197c-0.4431 6.6084-0.668 13.287-0.668 20.027 0 122.96 75.111 225.59 175.07 249.66v-30.736c-85.541-23.521-149.18-112.61-149.18-218.92 0-0.68109-6e-4 -1.3614 0.01-2.041zm-20.275 13.242c-11.012-0.22638-20.789 7.2283-14.314 26.105-44.412-8.7213-25.537 58.643 7.2949 29.1 7.5142 43.327 68.569-5.0066 20.602-20.629 18.918-19.531 1.5087-34.266-13.582-34.576zm-254.97 86.537-29.986 105.49c48.755 35.02 80.42 91.607 80.42 155.46 0 37.016-10.642 71.592-29.088 100.94l67.256 87.81c42.988-51.354 68.795-117.09 68.795-188.75 0-112.48-63.586-210.38-157.4-260.95zm276.73 19.518c-12.986-7e-3 -25.24 9.4417-13.352 29.029-45.25 0.95904-12.432 62.742 13.338 26.871 16.589 40.725 65.921-19.527 15.725-24.551 12.766-20.619-1.8873-31.342-15.711-31.35zm59.832 95.607c-15.415 0.1637-32.128 14.613-11.727 32.826-42.995 14.138 6.4427 63.635 20.607 21.801 27.764 34.101 57.34-37.934 7.8653-28.072 5.0597-19.186-5.4976-26.674-16.746-26.555zm92.318 75.375c-17.158-0.3911-37.538 22.874-8.5742 35.959-36.78 26.376 25.224 58.778 26.197 14.621 8.7819 5.7917 15.837 5.7501 20.891 2.6777v-35.299c-5.0219-2.2384-12.218-1.7718-21.805 3.4804-0.7188-15.416-8.3297-21.248-16.709-21.439z" fill="#fc4"/>
</g>
<g transform="matrix(.12677 0 0 .1304 -119.6 -167.61)">
<path d="m199.65 0 156.05 158.86c128.47-36.744 302.87-60.997 459.3-8.8555l145.46-150h-86.256l-72.256 88.408-2.959-0.60352c-35.208-7.1846-69.718-11.908-103.33-14.809l-5.0293-0.43359 6.959-72.562h-67.604l-0.084 70.975-4.998-0.0059c-38.885-0.03567-76.4 2.6986-112.47 7.1738l-4.6484 0.57817-15.002-78.721h-77.479l32.893 88.25-5.8281 1.1016c-28.865 5.4603-56.359 11.819-82.547 18.523l-3.4355 0.88086-72.395-108.76zm96.344 0 64.801 97.352c23.534-5.9718 48.189-11.616 73.916-16.621l-30.092-80.73zm206.96 0 12.902 67.705c33.443-3.9974 68.149-6.4698 104.05-6.6543l0.07226-61.051zm204.67 0-6.0918 63.533c31.424 2.8721 63.623 7.3309 96.459 13.91l63.293-77.443zm-707.62 101.96v594.53l60-42.137v-479.35zm434.9 426.8c-6.16 0-12.292 3.65-5.2871 10.936a7.5 7.5 0 0 1 5.2871-2.1855 7.5 7.5 0 0 1 5.2871 2.1875c7.0062-7.2863 0.8732-10.938-5.2871-10.938zm5.2871 10.938c-0.102 0.10608-0.17948 0.20487-0.28711 0.3125 0.10799-0.10799 0.20802-0.18478 0.31445-0.28711a7.5 7.5 0 0 0-0.0273-0.0254zm0.0273 0.0254a7.5 7.5 0 0 1 2.1856 5.2871 7.5 7.5 0 0 1-2.1875 5.2871c14.572 14.012 14.573-24.584 2e-3 -10.574zm-2e-3 10.574c-0.10608-0.102-0.20487-0.17948-0.3125-0.28711 0.10799 0.10799 0.18478 0.20802 0.28711 0.31445a7.5 7.5 0 0 0 0.0254-0.0273zm-0.0254 0.0273a7.5 7.5 0 0 1-5.2871 2.1856 7.5 7.5 0 0 1-5.2871-2.1875c-14.012 14.572 24.584 14.573 10.574 2e-3zm-10.574-2e-3c0.102-0.10608 0.17948-0.20487 0.28711-0.3125-0.10799 0.10799-0.20803 0.18478-0.31446 0.28711a7.5 7.5 0 0 0 0.0274 0.0254zm-0.0274-0.0254a7.5 7.5 0 0 1-2.1855-5.2871 7.5 7.5 0 0 1 2.1875-5.2871c-14.572-14.012-14.573 24.584-2e-3 10.574zm2e-3 -10.574c0.10608 0.102 0.20487 0.17948 0.3125 0.28711-0.10799-0.10799-0.18478-0.20803-0.28711-0.31446a7.5 7.5 0 0 0-0.0254 0.0274zm71.816-10.963c-6.16 0-12.292 3.65-5.2871 10.936a7.5 7.5 0 0 1 5.2871-2.1855 7.5 7.5 0 0 1 5.2871 2.1875c7.0062-7.2863 0.8732-10.938-5.2871-10.938zm5.2871 10.938c-0.102 0.10608-0.17948 0.20487-0.28711 0.3125 0.10799-0.10799 0.20803-0.18478 0.31446-0.28711a7.5 7.5 0 0 0-0.0273-0.0254zm0.0273 0.0254a7.5 7.5 0 0 1 2.1855 5.2871 7.5 7.5 0 0 1-2.1875 5.2871c14.572 14.012 14.573-24.584 2e-3 -10.574zm-2e-3 10.574c-0.10608-0.102-0.20487-0.17948-0.3125-0.28711 0.10799 0.10799 0.18478 0.20802 0.28711 0.31445a7.5 7.5 0 0 0 0.0254-0.0273zm-0.0254 0.0273a7.5 7.5 0 0 1-5.2871 2.1856 7.5 7.5 0 0 1-5.2871-2.1875c-14.012 14.572 24.584 14.573 10.574 2e-3zm-10.574-2e-3c0.102-0.10608 0.17948-0.20487 0.28711-0.3125-0.10799 0.10799-0.20802 0.18478-0.31445 0.28711a7.5 7.5 0 0 0 0.0273 0.0254zm-0.0273-0.0254a7.5 7.5 0 0 1-2.1856-5.2871 7.5 7.5 0 0 1 2.1875-5.2871c-14.572-14.012-14.573 24.584-2e-3 10.574zm2e-3 -10.574c0.10608 0.102 0.20487 0.17948 0.3125 0.28711-0.10799-0.10799-0.18478-0.20803-0.28711-0.31446a7.5 7.5 0 0 0-0.0254 0.0274zm71.816-10.963c-6.16 0-12.292 3.65-5.2871 10.936a7.5 7.5 0 0 1 5.2871-2.1855 7.5 7.5 0 0 1 5.2871 2.1875c7.0062-7.2863 0.8732-10.938-5.2871-10.938zm5.2871 10.938c-0.102 0.10608-0.17948 0.20487-0.28711 0.3125 0.10799-0.10799 0.20802-0.18478 0.31445-0.28711a7.5 7.5 0 0 0-0.0273-0.0254zm0.0273 0.0254a7.5 7.5 0 0 1 2.1856 5.2871 7.5 7.5 0 0 1-2.1875 5.2871c14.572 14.012 14.573-24.584 2e-3 -10.574zm-2e-3 10.574c-0.10608-0.102-0.20487-0.17948-0.3125-0.28711 0.10799 0.10799 0.18478 0.20802 0.28711 0.31445a7.5 7.5 0 0 0 0.0254-0.0273zm-0.0254 0.0273a7.5 7.5 0 0 1-5.2871 2.1856 7.5 7.5 0 0 1-5.2871-2.1875c-14.012 14.572 24.584 14.573 10.574 2e-3zm-10.574-2e-3c0.102-0.10608 0.17948-0.20487 0.28711-0.3125-0.10799 0.10799-0.20802 0.18478-0.31445 0.28711a7.5 7.5 0 0 0 0.0273 0.0254zm-0.0273-0.0254a7.5 7.5 0 0 1-2.1856-5.2871 7.5 7.5 0 0 1 2.1875-5.2871c-14.572-14.012-14.573 24.584-2e-3 10.574zm2e-3 -10.574c0.10608 0.102 0.20487 0.17948 0.3125 0.28711-0.10799-0.10799-0.18478-0.20803-0.28711-0.31446a7.5 7.5 0 0 0-0.0254 0.0274zm71.814-10.963c-6.16 0-12.292 3.65-5.2871 10.936a7.5 7.5 0 0 1 5.2871-2.1855 7.5 7.5 0 0 1 5.2871 2.1875c7.0062-7.2863 0.8732-10.938-5.2871-10.938zm5.2871 10.938c-0.102 0.10608-0.17948 0.20487-0.28711 0.3125 0.10799-0.10799 0.20803-0.18478 0.31446-0.28711a7.5 7.5 0 0 0-0.0274-0.0254zm0.0274 0.0254a7.5 7.5 0 0 1 2.1855 5.2871 7.5 7.5 0 0 1-2.1875 5.2871c14.572 14.012 14.573-24.584 2e-3 -10.574zm-2e-3 10.574c-0.10608-0.102-0.20487-0.17948-0.3125-0.28711 0.10799 0.10799 0.18478 0.20802 0.28711 0.31445a7.5 7.5 0 0 0 0.0254-0.0273zm-0.0254 0.0273a7.5 7.5 0 0 1-5.2871 2.1856 7.5 7.5 0 0 1-5.2871-2.1875c-14.012 14.572 24.584 14.573 10.574 2e-3zm-10.574-2e-3c0.102-0.10608 0.17948-0.20487 0.28711-0.3125-0.10799 0.10799-0.20802 0.18478-0.31445 0.28711a7.5 7.5 0 0 0 0.0273 0.0254zm-0.0273-0.0254a7.5 7.5 0 0 1-2.1856-5.2871 7.5 7.5 0 0 1 2.1875-5.2871c-14.572-14.012-14.573 24.584-2e-3 10.574zm2e-3 -10.574c0.10608 0.102 0.20487 0.17948 0.3125 0.28711-0.10799-0.10799-0.18478-0.20803-0.28711-0.31446a7.5 7.5 0 0 0-0.0254 0.0274zm71.816-10.963c-6.16 0-12.292 3.65-5.2871 10.936a7.5 7.5 0 0 1 5.2871-2.1855 7.5 7.5 0 0 1 5.2871 2.1875c7.0062-7.2863 0.8732-10.938-5.2871-10.938zm5.2871 10.938c-0.102 0.10608-0.17948 0.20487-0.28711 0.3125 0.10799-0.10799 0.20802-0.18478 0.31445-0.28711a7.5 7.5 0 0 0-0.0273-0.0254zm0.0273 0.0254a7.5 7.5 0 0 1 2.1856 5.2871 7.5 7.5 0 0 1-2.1875 5.2871c14.572 14.012 14.573-24.584 2e-3 -10.574zm-2e-3 10.574c-0.10608-0.102-0.20487-0.17948-0.3125-0.28711 0.10799 0.10799 0.18478 0.20802 0.28711 0.31445a7.5 7.5 0 0 0 0.0254-0.0273zm-0.0254 0.0273a7.5 7.5 0 0 1-5.2871 2.1856 7.5 7.5 0 0 1-5.2871-2.1875c-14.012 14.572 24.584 14.573 10.574 2e-3zm-10.574-2e-3c0.102-0.10608 0.17948-0.20487 0.28711-0.3125-0.10799 0.10799-0.20802 0.18478-0.31445 0.28711a7.5 7.5 0 0 0 0.0273 0.0254zm-0.0273-0.0254a7.5 7.5 0 0 1-2.1856-5.2871 7.5 7.5 0 0 1 2.1875-5.2871c-14.572-14.012-14.573 24.584-2e-3 10.574zm2e-3 -10.574c0.10608 0.102 0.20487 0.17948 0.3125 0.28711-0.10799-0.10799-0.18478-0.20803-0.28711-0.31446a7.5 7.5 0 0 0-0.0254 0.0274zm71.814-10.963c-6.16 0-12.292 3.65-5.2871 10.936a7.5 7.5 0 0 1 5.2871-2.1855 7.5 7.5 0 0 1 5.2871 2.1875c7.0062-7.2863 0.8732-10.938-5.2871-10.938zm5.2871 10.938c-0.102 0.10608-0.17948 0.20487-0.28711 0.3125 0.10799-0.10799 0.20803-0.18478 0.31446-0.28711a7.5 7.5 0 0 0-0.0273-0.0254zm0.0273 0.0254a7.5 7.5 0 0 1 2.1855 5.2871 7.5 7.5 0 0 1-2.1875 5.2871c14.572 14.012 14.573-24.584 2e-3 -10.574zm-2e-3 10.574c-0.10608-0.102-0.20487-0.17948-0.3125-0.28711 0.10799 0.10799 0.18478 0.20802 0.28711 0.31445a7.5 7.5 0 0 0 0.0254-0.0273zm-0.0254 0.0273a7.5 7.5 0 0 1-5.2871 2.1856 7.5 7.5 0 0 1-5.2871-2.1875c-14.012 14.572 24.584 14.573 10.574 2e-3zm-10.574-2e-3c0.102-0.10608 0.17948-0.20487 0.28711-0.3125-0.10799 0.10799-0.20802 0.18478-0.31445 0.28711a7.5 7.5 0 0 0 0.0273 0.0254zm-0.0273-0.0254a7.5 7.5 0 0 1-2.1856-5.2871 7.5 7.5 0 0 1 2.1875-5.2871c-14.572-14.012-14.573 24.584-2e-3 10.574zm2e-3 -10.574c0.10608 0.102 0.20487 0.17948 0.3125 0.28711-0.10799-0.10799-0.18478-0.20803-0.28711-0.31446a7.5 7.5 0 0 0-0.0254 0.0274zm-292.1 60.284 185 240c17.499-85.451 45-165 85-240zm680.83 132.96c-0.01 0.67966-0.01 1.3599-0.01 2.041 0 106.31 63.636 195.4 149.18 218.92v-62.346c-46.109-17.785-81.745-62.134-93.359-117.39zm-295.49 118.64c-5.1224 0.0907-10.463 2.5449-15.346 8.4043l-19.178 23.014 34.645 30.426 19.533-23.439c11.484-13.781-2.921-38.701-19.654-38.404zm48.607 53.824c-3.6587 0.0964-7.6754 1.3439-11.951 4.0957l-25.887 16.66 24.732 38.896 25.562-16.451c16.624-10.699 7.3-43.722-12.457-43.201zm-101.34 1.625-0.0879 11.303a3.0003 3.0003 0 0 0-2.5742-1.3906 3.0003 3.0003 0 0 0-2.9551 3.043v20a3.0003 3.0003 0 0 0 5.3457 1.9102l-0.3457 44.191c42.307 39.722 28.551 84.921 15.529 130.05l36.42 47.289c18.446-29.348 29.088-63.924 29.088-100.94 0-63.848-31.665-120.43-80.42-155.46zm-302.66 9.9121a3.0003 3.0003 0 0 0-2.9551 3.043v20a3.0003 3.0003 0 1 0 6 0v-20a3.0003 3.0003 0 0 0-3.0449-3.043zm15 0a3.0003 3.0003 0 0 0-2.9551 3.043v20a3.0003 3.0003 0 1 0 6 0v-20a3.0003 3.0003 0 0 0-3.0449-3.043zm15 0a3.0003 3.0003 0 0 0-2.9551 3.043v20a3.0003 3.0003 0 1 0 6 0v-20a3.0003 3.0003 0 0 0-3.0449-3.043zm15 0a3.0003 3.0003 0 0 0-2.9551 3.043v20a3.0003 3.0003 0 1 0 6 0v-20a3.0003 3.0003 0 0 0-3.0449-3.043zm15 0a3.0003 3.0003 0 0 0-2.9551 3.043v20a3.0003 3.0003 0 1 0 6 0v-20a3.0003 3.0003 0 0 0-3.0449-3.043zm15 0a3.0003 3.0003 0 0 0-2.9551 3.043v20a3.0003 3.0003 0 1 0 6 0v-20a3.0003 3.0003 0 0 0-3.0449-3.043zm15 0a3.0003 3.0003 0 0 0-2.9551 3.043v20a3.0003 3.0003 0 1 0 6 0v-20a3.0003 3.0003 0 0 0-3.0449-3.043zm15 0a3.0003 3.0003 0 0 0-2.9551 3.043v20a3.0003 3.0003 0 1 0 6 0v-20a3.0003 3.0003 0 0 0-3.0449-3.043zm15 0a3.0003 3.0003 0 0 0-2.9551 3.043v20a3.0003 3.0003 0 1 0 6 0v-20a3.0003 3.0003 0 0 0-3.0449-3.043zm15 0a3.0003 3.0003 0 0 0-2.9551 3.043v20a3.0003 3.0003 0 1 0 6 0v-20a3.0003 3.0003 0 0 0-3.0449-3.043zm15 0a3.0003 3.0003 0 0 0-2.9551 3.043v20a3.0003 3.0003 0 1 0 6 0v-20a3.0003 3.0003 0 0 0-3.0449-3.043zm15 0a3.0003 3.0003 0 0 0-2.9551 3.043v20a3.0003 3.0003 0 1 0 6 0v-20a3.0003 3.0003 0 0 0-3.0449-3.043zm15 0a3.0003 3.0003 0 0 0-2.9551 3.043v20a3.0003 3.0003 0 1 0 6 0v-20a3.0003 3.0003 0 0 0-3.0449-3.043zm15 0a3.0003 3.0003 0 0 0-2.9551 3.043v20a3.0003 3.0003 0 1 0 6 0v-20a3.0003 3.0003 0 0 0-3.0449-3.043zm15 0a3.0003 3.0003 0 0 0-2.9551 3.043v20a3.0003 3.0003 0 1 0 6 0v-20a3.0003 3.0003 0 0 0-3.0449-3.043zm15 0a3.0003 3.0003 0 0 0-2.9551 3.043v20a3.0003 3.0003 0 1 0 6 0v-20a3.0003 3.0003 0 0 0-3.0449-3.043zm15 0a3.0003 3.0003 0 0 0-2.9551 3.043v20a3.0003 3.0003 0 1 0 6 0v-20a3.0003 3.0003 0 0 0-3.0449-3.043zm15 0a3.0003 3.0003 0 0 0-2.9551 3.043v20a3.0003 3.0003 0 1 0 6 0v-20a3.0003 3.0003 0 0 0-3.0449-3.043zm15 0a3.0003 3.0003 0 0 0-2.9551 3.043v20a3.0003 3.0003 0 1 0 6 0v-20a3.0003 3.0003 0 0 0-3.0449-3.043zm15 0a3.0003 3.0003 0 0 0-2.9551 3.043v20a3.0003 3.0003 0 1 0 6 0v-20a3.0003 3.0003 0 0 0-3.0449-3.043zm148.32 54.355c-2.1046-0.01-4.3886 0.26955-6.8555 0.88477l-28.98 7.2266 12.846 44.303 26.668-6.6504c20.958-5.227 21.157-45.649-3.6777-45.764zm-20.502 71.096-0.70507 46.092 25.527 0.7383c23.421 0.6763 34.5-45.117 1.9707-46.057zm-4.3984 67.328-14.518 43.906 28.377 6.9004c22.767 5.5376 43.136-36.944 11.516-44.635zm-19.982 55.225-14.916 23.971 25.914 32.992c16.53-3.8083 31.379-24.552 12.152-39.256z" fill="#f00"/>
</g>
<g transform="matrix(-.12677 0 0 -.1304 45.197 93.191)">
<path d="m199.65 0 156.05 158.86c128.47-36.744 302.87-60.997 459.3-8.8555l145.46-150h-86.256l-72.256 88.408-2.959-0.60352c-35.208-7.1846-69.718-11.908-103.33-14.809l-5.0293-0.43359 6.959-72.562h-67.604l-0.084 70.975-4.998-0.0059c-38.885-0.03567-76.4 2.6986-112.47 7.1738l-4.6484 0.57817-15.002-78.721h-77.479l32.893 88.25-5.8281 1.1016c-28.865 5.4603-56.359 11.819-82.547 18.523l-3.4355 0.88086-72.395-108.76zm96.344 0 64.801 97.352c23.534-5.9718 48.189-11.616 73.916-16.621l-30.092-80.73zm206.96 0 12.902 67.705c33.443-3.9974 68.149-6.4698 104.05-6.6543l0.07226-61.051zm204.67 0-6.0918 63.533c31.424 2.8721 63.623 7.3309 96.459 13.91l63.293-77.443zm-707.62 101.96v594.53l60-42.137v-479.35zm434.9 426.8c-6.16 0-12.292 3.65-5.2871 10.936a7.5 7.5 0 0 1 5.2871-2.1855 7.5 7.5 0 0 1 5.2871 2.1875c7.0062-7.2863 0.8732-10.938-5.2871-10.938zm5.2871 10.938c-0.102 0.10608-0.17948 0.20487-0.28711 0.3125 0.10799-0.10799 0.20802-0.18478 0.31445-0.28711a7.5 7.5 0 0 0-0.0273-0.0254zm0.0273 0.0254a7.5 7.5 0 0 1 2.1856 5.2871 7.5 7.5 0 0 1-2.1875 5.2871c14.572 14.012 14.573-24.584 2e-3 -10.574zm-2e-3 10.574c-0.10608-0.102-0.20487-0.17948-0.3125-0.28711 0.10799 0.10799 0.18478 0.20802 0.28711 0.31445a7.5 7.5 0 0 0 0.0254-0.0273zm-0.0254 0.0273a7.5 7.5 0 0 1-5.2871 2.1856 7.5 7.5 0 0 1-5.2871-2.1875c-14.012 14.572 24.584 14.573 10.574 2e-3zm-10.574-2e-3c0.102-0.10608 0.17948-0.20487 0.28711-0.3125-0.10799 0.10799-0.20803 0.18478-0.31446 0.28711a7.5 7.5 0 0 0 0.0274 0.0254zm-0.0274-0.0254a7.5 7.5 0 0 1-2.1855-5.2871 7.5 7.5 0 0 1 2.1875-5.2871c-14.572-14.012-14.573 24.584-2e-3 10.574zm2e-3 -10.574c0.10608 0.102 0.20487 0.17948 0.3125 0.28711-0.10799-0.10799-0.18478-0.20803-0.28711-0.31446a7.5 7.5 0 0 0-0.0254 0.0274zm71.816-10.963c-6.16 0-12.292 3.65-5.2871 10.936a7.5 7.5 0 0 1 5.2871-2.1855 7.5 7.5 0 0 1 5.2871 2.1875c7.0062-7.2863 0.8732-10.938-5.2871-10.938zm5.2871 10.938c-0.102 0.10608-0.17948 0.20487-0.28711 0.3125 0.10799-0.10799 0.20803-0.18478 0.31446-0.28711a7.5 7.5 0 0 0-0.0273-0.0254zm0.0273 0.0254a7.5 7.5 0 0 1 2.1855 5.2871 7.5 7.5 0 0 1-2.1875 5.2871c14.572 14.012 14.573-24.584 2e-3 -10.574zm-2e-3 10.574c-0.10608-0.102-0.20487-0.17948-0.3125-0.28711 0.10799 0.10799 0.18478 0.20802 0.28711 0.31445a7.5 7.5 0 0 0 0.0254-0.0273zm-0.0254 0.0273a7.5 7.5 0 0 1-5.2871 2.1856 7.5 7.5 0 0 1-5.2871-2.1875c-14.012 14.572 24.584 14.573 10.574 2e-3zm-10.574-2e-3c0.102-0.10608 0.17948-0.20487 0.28711-0.3125-0.10799 0.10799-0.20802 0.18478-0.31445 0.28711a7.5 7.5 0 0 0 0.0273 0.0254zm-0.0273-0.0254a7.5 7.5 0 0 1-2.1856-5.2871 7.5 7.5 0 0 1 2.1875-5.2871c-14.572-14.012-14.573 24.584-2e-3 10.574zm2e-3 -10.574c0.10608 0.102 0.20487 0.17948 0.3125 0.28711-0.10799-0.10799-0.18478-0.20803-0.28711-0.31446a7.5 7.5 0 0 0-0.0254 0.0274zm71.816-10.963c-6.16 0-12.292 3.65-5.2871 10.936a7.5 7.5 0 0 1 5.2871-2.1855 7.5 7.5 0 0 1 5.2871 2.1875c7.0062-7.2863 0.8732-10.938-5.2871-10.938zm5.2871 10.938c-0.102 0.10608-0.17948 0.20487-0.28711 0.3125 0.10799-0.10799 0.20802-0.18478 0.31445-0.28711a7.5 7.5 0 0 0-0.0273-0.0254zm0.0273 0.0254a7.5 7.5 0 0 1 2.1856 5.2871 7.5 7.5 0 0 1-2.1875 5.2871c14.572 14.012 14.573-24.584 2e-3 -10.574zm-2e-3 10.574c-0.10608-0.102-0.20487-0.17948-0.3125-0.28711 0.10799 0.10799 0.18478 0.20802 0.28711 0.31445a7.5 7.5 0 0 0 0.0254-0.0273zm-0.0254 0.0273a7.5 7.5 0 0 1-5.2871 2.1856 7.5 7.5 0 0 1-5.2871-2.1875c-14.012 14.572 24.584 14.573 10.574 2e-3zm-10.574-2e-3c0.102-0.10608 0.17948-0.20487 0.28711-0.3125-0.10799 0.10799-0.20802 0.18478-0.31445 0.28711a7.5 7.5 0 0 0 0.0273 0.0254zm-0.0273-0.0254a7.5 7.5 0 0 1-2.1856-5.2871 7.5 7.5 0 0 1 2.1875-5.2871c-14.572-14.012-14.573 24.584-2e-3 10.574zm2e-3 -10.574c0.10608 0.102 0.20487 0.17948 0.3125 0.28711-0.10799-0.10799-0.18478-0.20803-0.28711-0.31446a7.5 7.5 0 0 0-0.0254 0.0274zm71.814-10.963c-6.16 0-12.292 3.65-5.2871 10.936a7.5 7.5 0 0 1 5.2871-2.1855 7.5 7.5 0 0 1 5.2871 2.1875c7.0062-7.2863 0.8732-10.938-5.2871-10.938zm5.2871 10.938c-0.102 0.10608-0.17948 0.20487-0.28711 0.3125 0.10799-0.10799 0.20803-0.18478 0.31446-0.28711a7.5 7.5 0 0 0-0.0274-0.0254zm0.0274 0.0254a7.5 7.5 0 0 1 2.1855 5.2871 7.5 7.5 0 0 1-2.1875 5.2871c14.572 14.012 14.573-24.584 2e-3 -10.574zm-2e-3 10.574c-0.10608-0.102-0.20487-0.17948-0.3125-0.28711 0.10799 0.10799 0.18478 0.20802 0.28711 0.31445a7.5 7.5 0 0 0 0.0254-0.0273zm-0.0254 0.0273a7.5 7.5 0 0 1-5.2871 2.1856 7.5 7.5 0 0 1-5.2871-2.1875c-14.012 14.572 24.584 14.573 10.574 2e-3zm-10.574-2e-3c0.102-0.10608 0.17948-0.20487 0.28711-0.3125-0.10799 0.10799-0.20802 0.18478-0.31445 0.28711a7.5 7.5 0 0 0 0.0273 0.0254zm-0.0273-0.0254a7.5 7.5 0 0 1-2.1856-5.2871 7.5 7.5 0 0 1 2.1875-5.2871c-14.572-14.012-14.573 24.584-2e-3 10.574zm2e-3 -10.574c0.10608 0.102 0.20487 0.17948 0.3125 0.28711-0.10799-0.10799-0.18478-0.20803-0.28711-0.31446a7.5 7.5 0 0 0-0.0254 0.0274zm71.816-10.963c-6.16 0-12.292 3.65-5.2871 10.936a7.5 7.5 0 0 1 5.2871-2.1855 7.5 7.5 0 0 1 5.2871 2.1875c7.0062-7.2863 0.8732-10.938-5.2871-10.938zm5.2871 10.938c-0.102 0.10608-0.17948 0.20487-0.28711 0.3125 0.10799-0.10799 0.20802-0.18478 0.31445-0.28711a7.5 7.5 0 0 0-0.0273-0.0254zm0.0273 0.0254a7.5 7.5 0 0 1 2.1856 5.2871 7.5 7.5 0 0 1-2.1875 5.2871c14.572 14.012 14.573-24.584 2e-3 -10.574zm-2e-3 10.574c-0.10608-0.102-0.20487-0.17948-0.3125-0.28711 0.10799 0.10799 0.18478 0.20802 0.28711 0.31445a7.5 7.5 0 0 0 0.0254-0.0273zm-0.0254 0.0273a7.5 7.5 0 0 1-5.2871 2.1856 7.5 7.5 0 0 1-5.2871-2.1875c-14.012 14.572 24.584 14.573 10.574 2e-3zm-10.574-2e-3c0.102-0.10608 0.17948-0.20487 0.28711-0.3125-0.10799 0.10799-0.20802 0.18478-0.31445 0.28711a7.5 7.5 0 0 0 0.0273 0.0254zm-0.0273-0.0254a7.5 7.5 0 0 1-2.1856-5.2871 7.5 7.5 0 0 1 2.1875-5.2871c-14.572-14.012-14.573 24.584-2e-3 10.574zm2e-3 -10.574c0.10608 0.102 0.20487 0.17948 0.3125 0.28711-0.10799-0.10799-0.18478-0.20803-0.28711-0.31446a7.5 7.5 0 0 0-0.0254 0.0274zm71.814-10.963c-6.16 0-12.292 3.65-5.2871 10.936a7.5 7.5 0 0 1 5.2871-2.1855 7.5 7.5 0 0 1 5.2871 2.1875c7.0062-7.2863 0.8732-10.938-5.2871-10.938zm5.2871 10.938c-0.102 0.10608-0.17948 0.20487-0.28711 0.3125 0.10799-0.10799 0.20803-0.18478 0.31446-0.28711a7.5 7.5 0 0 0-0.0273-0.0254zm0.0273 0.0254a7.5 7.5 0 0 1 2.1855 5.2871 7.5 7.5 0 0 1-2.1875 5.2871c14.572 14.012 14.573-24.584 2e-3 -10.574zm-2e-3 10.574c-0.10608-0.102-0.20487-0.17948-0.3125-0.28711 0.10799 0.10799 0.18478 0.20802 0.28711 0.31445a7.5 7.5 0 0 0 0.0254-0.0273zm-0.0254 0.0273a7.5 7.5 0 0 1-5.2871 2.1856 7.5 7.5 0 0 1-5.2871-2.1875c-14.012 14.572 24.584 14.573 10.574 2e-3zm-10.574-2e-3c0.102-0.10608 0.17948-0.20487 0.28711-0.3125-0.10799 0.10799-0.20802 0.18478-0.31445 0.28711a7.5 7.5 0 0 0 0.0273 0.0254zm-0.0273-0.0254a7.5 7.5 0 0 1-2.1856-5.2871 7.5 7.5 0 0 1 2.1875-5.2871c-14.572-14.012-14.573 24.584-2e-3 10.574zm2e-3 -10.574c0.10608 0.102 0.20487 0.17948 0.3125 0.28711-0.10799-0.10799-0.18478-0.20803-0.28711-0.31446a7.5 7.5 0 0 0-0.0254 0.0274zm-292.1 60.284 185 240c17.499-85.451 45-165 85-240zm680.83 132.96c-0.01 0.67966-0.01 1.3599-0.01 2.041 0 106.31 63.636 195.4 149.18 218.92v-62.346c-46.109-17.785-81.745-62.134-93.359-117.39zm-295.49 118.64c-5.1224 0.0907-10.463 2.5449-15.346 8.4043l-19.178 23.014 34.645 30.426 19.533-23.439c11.484-13.781-2.921-38.701-19.654-38.404zm48.607 53.824c-3.6587 0.0964-7.6754 1.3439-11.951 4.0957l-25.887 16.66 24.732 38.896 25.562-16.451c16.624-10.699 7.3-43.722-12.457-43.201zm-101.34 1.625-0.0879 11.303a3.0003 3.0003 0 0 0-2.5742-1.3906 3.0003 3.0003 0 0 0-2.9551 3.043v20a3.0003 3.0003 0 0 0 5.3457 1.9102l-0.3457 44.191c42.307 39.722 28.551 84.921 15.529 130.05l36.42 47.289c18.446-29.348 29.088-63.924 29.088-100.94 0-63.848-31.665-120.43-80.42-155.46zm-302.66 9.9121a3.0003 3.0003 0 0 0-2.9551 3.043v20a3.0003 3.0003 0 1 0 6 0v-20a3.0003 3.0003 0 0 0-3.0449-3.043zm15 0a3.0003 3.0003 0 0 0-2.9551 3.043v20a3.0003 3.0003 0 1 0 6 0v-20a3.0003 3.0003 0 0 0-3.0449-3.043zm15 0a3.0003 3.0003 0 0 0-2.9551 3.043v20a3.0003 3.0003 0 1 0 6 0v-20a3.0003 3.0003 0 0 0-3.0449-3.043zm15 0a3.0003 3.0003 0 0 0-2.9551 3.043v20a3.0003 3.0003 0 1 0 6 0v-20a3.0003 3.0003 0 0 0-3.0449-3.043zm15 0a3.0003 3.0003 0 0 0-2.9551 3.043v20a3.0003 3.0003 0 1 0 6 0v-20a3.0003 3.0003 0 0 0-3.0449-3.043zm15 0a3.0003 3.0003 0 0 0-2.9551 3.043v20a3.0003 3.0003 0 1 0 6 0v-20a3.0003 3.0003 0 0 0-3.0449-3.043zm15 0a3.0003 3.0003 0 0 0-2.9551 3.043v20a3.0003 3.0003 0 1 0 6 0v-20a3.0003 3.0003 0 0 0-3.0449-3.043zm15 0a3.0003 3.0003 0 0 0-2.9551 3.043v20a3.0003 3.0003 0 1 0 6 0v-20a3.0003 3.0003 0 0 0-3.0449-3.043zm15 0a3.0003 3.0003 0 0 0-2.9551 3.043v20a3.0003 3.0003 0 1 0 6 0v-20a3.0003 3.0003 0 0 0-3.0449-3.043zm15 0a3.0003 3.0003 0 0 0-2.9551 3.043v20a3.0003 3.0003 0 1 0 6 0v-20a3.0003 3.0003 0 0 0-3.0449-3.043zm15 0a3.0003 3.0003 0 0 0-2.9551 3.043v20a3.0003 3.0003 0 1 0 6 0v-20a3.0003 3.0003 0 0 0-3.0449-3.043zm15 0a3.0003 3.0003 0 0 0-2.9551 3.043v20a3.0003 3.0003 0 1 0 6 0v-20a3.0003 3.0003 0 0 0-3.0449-3.043zm15 0a3.0003 3.0003 0 0 0-2.9551 3.043v20a3.0003 3.0003 0 1 0 6 0v-20a3.0003 3.0003 0 0 0-3.0449-3.043zm15 0a3.0003 3.0003 0 0 0-2.9551 3.043v20a3.0003 3.0003 0 1 0 6 0v-20a3.0003 3.0003 0 0 0-3.0449-3.043zm15 0a3.0003 3.0003 0 0 0-2.9551 3.043v20a3.0003 3.0003 0 1 0 6 0v-20a3.0003 3.0003 0 0 0-3.0449-3.043zm15 0a3.0003 3.0003 0 0 0-2.9551 3.043v20a3.0003 3.0003 0 1 0 6 0v-20a3.0003 3.0003 0 0 0-3.0449-3.043zm15 0a3.0003 3.0003 0 0 0-2.9551 3.043v20a3.0003 3.0003 0 1 0 6 0v-20a3.0003 3.0003 0 0 0-3.0449-3.043zm15 0a3.0003 3.0003 0 0 0-2.9551 3.043v20a3.0003 3.0003 0 1 0 6 0v-20a3.0003 3.0003 0 0 0-3.0449-3.043zm15 0a3.0003 3.0003 0 0 0-2.9551 3.043v20a3.0003 3.0003 0 1 0 6 0v-20a3.0003 3.0003 0 0 0-3.0449-3.043zm15 0a3.0003 3.0003 0 0 0-2.9551 3.043v20a3.0003 3.0003 0 1 0 6 0v-20a3.0003 3.0003 0 0 0-3.0449-3.043zm148.32 54.355c-2.1046-0.01-4.3886 0.26955-6.8555 0.88477l-28.98 7.2266 12.846 44.303 26.668-6.6504c20.958-5.227 21.157-45.649-3.6777-45.764zm-20.502 71.096-0.70507 46.092 25.527 0.7383c23.421 0.6763 34.5-45.117 1.9707-46.057zm-4.3984 67.328-14.518 43.906 28.377 6.9004c22.767 5.5376 43.136-36.944 11.516-44.635zm-19.982 55.225-14.916 23.971 25.914 32.992c16.53-3.8083 31.379-24.552 12.152-39.256z" fill="#f00"/>
</g>
<g transform="matrix(.12677 0 0 .1304 -119.6 -167.61)">
<path d="m1011.2 1309.3-48.703-63.338c36.328-52.389 57.465-115.53 57.465-183.51 0-75.31-25.938-144.67-69.62-200.32 21.09-55.641 47.446-108.17 80.685-158.01-0.6883 10.083-1.0655 20.406-1.0655 30.832 0 123.54 52.969 232.75 134.42 299.04-37.026 100.82-93.294 198.03-153.18 275.31zm-263.24-943.35c20.005-2.5693 42.801-23.897 48-29 4.093-4.017 14.922 4.3397 14 10-19.782 10.298-48.043 21.628-62 19m-61-142c2.0468 3.4714 65.668-38.846 77-43 13.905-5.0973 26.594 6.6916 26 6l2 11s-16.409-11.864-25-9c-9 3-78.944 40.146-80 35zm101 9.5a8.5 15.5 0 0 1-8.5 15.5 8.5 15.5 0 0 1-8.5-15.5 8.5 15.5 0 0 1 8.5-15.5 8.5 15.5 0 0 1 8.5 15.5z" fill="#44f"/>
</g>
<g transform="matrix(-.12677 0 0 -.1304 45.197 93.191)">
<path d="m1011.2 1309.3-48.703-63.338c36.328-52.389 57.465-115.53 57.465-183.51 0-75.31-25.938-144.67-69.62-200.32 21.09-55.641 47.446-108.17 80.685-158.01-0.6883 10.083-1.0655 20.406-1.0655 30.832 0 123.54 52.969 232.75 134.42 299.04-37.026 100.82-93.294 198.03-153.18 275.31zm-263.24-943.35c20.005-2.5693 42.801-23.897 48-29 4.093-4.017 14.922 4.3397 14 10-19.782 10.298-48.043 21.628-62 19m-61-142c2.0468 3.4714 65.668-38.846 77-43 13.905-5.0973 26.594 6.6916 26 6l2 11s-16.409-11.864-25-9c-9 3-78.944 40.146-80 35zm101 9.5a8.5 15.5 0 0 1-8.5 15.5 8.5 15.5 0 0 1-8.5-15.5 8.5 15.5 0 0 1 8.5-15.5 8.5 15.5 0 0 1 8.5 15.5z" fill="#44f"/>
</g>
<g transform="matrix(.12677 0 0 .1304 -119.6 -167.61)">
<path d="m632.88 93.754c-110.56-0.52306-210.99 20.512-297.26 44.568l20.084 20.533c128.47-36.744 302.87-60.997 459.3-8.8555l26.967-28.018c-72.766-19.84-142.75-27.915-209.09-28.229zm-366.96 418.85-3.6836 2.3555-6.7988 22.098 11.08 12.824 48.814-7.5098-14.822 44.465 10.316 13.127 46.346-3.8613-11.92 51.648 11.389 12.111 45.498-7.582-11.92 55.623 11.422 11.959 44.039-7.3398-15.242 49.535 11.08 12.824 49.227-7.5742-15.307 49.75 9.5586 12.941h50.723l-15.121 41.582 9.3984 13.418h49.471l-7.8164 17.195 21.777 0.41992 10.672-23.477-9.1035-14.139h-50.723l15.121-41.582-9.3984-13.418h-51.459l16.018-52.059-11.08-12.824-49.227 7.5742 15.307-49.75-11.203-12.805-45.498 7.582 11.92-55.623-11.422-11.959-45.25 7.541 11.639-50.43-10.574-12.213-44.889 3.7402 15.205-45.613-11.008-13.045-49.227 7.5742 3.7695-12.25zm627.3 30.627-44.746 6.8848-8.2227 12.131 12.752 55.256-55.256 12.752-6.9824 13.59 21.154 50.77-50.77 21.154-5.3848 13.076 21.676 52.025-42.59 25.555-3.5977 13.43 20.896 37.615-43.4 34.721c-3.1114 2.3984-4.4162 6.2606-3.707 9.8613l22.803 0.47266 43.396-34.717 2.4961-12.664-20.303-36.547 41.705-25.023 4.0859-12.42-21.154-50.77 50.77-21.154 5.3848-13.076-20.447-49.072 53.465-12.338 7.4961-11.992-12.578-54.506 52.484-8.0762zm-543.22 6.7676a7.5 7.5 0 0 0-7.5 7.5 7.5 7.5 0 0 0 7.5 7.5 7.5 7.5 0 0 0 7.5-7.5 7.5 7.5 0 0 0-7.5-7.5zm-62.5 7.5a7.5 7.5 0 0 0-7.5 7.5 7.5 7.5 0 0 0 7.5 7.5 7.5 7.5 0 0 0 7.5-7.5 7.5 7.5 0 0 0-7.5-7.5zm605 20a7.5 7.5 0 0 0-7.5 7.5 7.5 7.5 0 0 0 7.5 7.5 7.5 7.5 0 0 0 7.5-7.5 7.5 7.5 0 0 0-7.5-7.5zm-452.5 7.5 220 285c24.379-100.97 56.858-199.87 105-285zm387.5 7.5a7.5 7.5 0 0 0-7.5 7.5 7.5 7.5 0 0 0 7.5 7.5 7.5 7.5 0 0 0 7.5-7.5 7.5 7.5 0 0 0-7.5-7.5zm-357.5 7.5h270c-40 75-67.501 154.55-85 240zm-137.5 7.5a7.5 7.5 0 0 0-7.5 7.5 7.5 7.5 0 0 0 7.5 7.5 7.5 7.5 0 0 0 7.5-7.5 7.5 7.5 0 0 0-7.5-7.5zm60 0a7.5 7.5 0 0 0-7.5 7.5 7.5 7.5 0 0 0 7.5 7.5 7.5 7.5 0 0 0 7.5-7.5 7.5 7.5 0 0 0-7.5-7.5zm646.01 43.645c-51.91 68.37-89.415 142.62-117.31 222.34 42.897 51.374 68.801 117.22 68.801 189.01 0 71.656-25.806 137.4-68.666 188.77l80.898 104.39c70.368-78.089 140.16-188.13 185.94-304.12-8.0489-5.3952-15.882-11.065-23.428-17.226-37.346 100.56-93.612 197.77-153.5 275.05l-48.703-63.338c36.328-52.389 57.465-115.53 57.465-183.51 0-4.8592-0.1124-9.6924-0.3262-14.5h30.326a3.0003 3.0003 0 1 0 0-6h-30.65c-0.5096-8.0838-1.3301-16.084-2.4277-24h45.578a3.0003 3.0003 0 1 0 0-6h-46.465c-1.2796-8.0997-2.8527-16.106-4.7266-24h53.691a3.0003 3.0003 0 1 0 0-6h-55.182c-1.8291-7.0929-3.8888-14.097-6.1817-21h76.363a6.0006 6.0006 0 0 0 4.3965-1.834c-2.1617-3.3432-4.2641-6.7386-6.3301-10.166h-78.68c-2.2927-6.0859-4.7693-12.087-7.4141-18h73.027a6.0006 6.0006 0 0 0 2.5684-0.54492c-2-3.7748-3.9402-7.5945-5.8262-11.455h-75.436c-3.0359-6.1052-6.2543-12.109-9.6582-18h76.848c-1.6961-3.9611-3.3312-7.962-4.9082-12h-79.219c-3.9046-6.1374-8.0189-12.135-12.316-18h84.978c-1.3369-3.965-2.6-7.9716-3.8222-12h-86.6c2.3143-6.0348 4.6796-12.038 7.1211-18h74.453c-1.0126-3.9738-1.9725-7.9734-2.8731-12h-66.547c2.582-6.0357 5.2235-12.039 7.9453-18h54.992c-0.7097-3.9781-1.3673-7.9778-1.9668-12h-47.416c2.8784-6.0367 5.8235-12.04 8.8555-18h36.262c-0.4222-3.9816-0.7903-7.9817-1.1035-12h-28.904c11.729-22.086 24.556-43.65 38.629-64.703 1.34-18.056 3.7721-35.746 7.4532-53.152zm-196.01 1.3555a7.5 7.5 0 0 0-7.5 7.5 7.5 7.5 0 0 0 7.5 7.5 7.5 7.5 0 0 0 7.5-7.5 7.5 7.5 0 0 0-7.5-7.5zm-465 15a7.5 7.5 0 0 0-7.5 7.5 7.5 7.5 0 0 0 7.5 7.5 7.5 7.5 0 0 0 7.5-7.5 7.5 7.5 0 0 0-7.5-7.5zm60 0a7.5 7.5 0 0 0-7.5 7.5 7.5 7.5 0 0 0 7.5 7.5 7.5 7.5 0 0 0 7.5-7.5 7.5 7.5 0 0 0-7.5-7.5zm345 10a7.5 7.5 0 0 0-7.5 7.5 7.5 7.5 0 0 0 7.5 7.5 7.5 7.5 0 0 0 7.5-7.5 7.5 7.5 0 0 0-7.5-7.5zm-300 45a7.5 7.5 0 0 0-7.5 7.5 7.5 7.5 0 0 0 7.5 7.5 7.5 7.5 0 0 0 7.5-7.5 7.5 7.5 0 0 0-7.5-7.5zm-65 5a7.5 7.5 0 0 0-7.5 7.5 7.5 7.5 0 0 0 7.5 7.5 7.5 7.5 0 0 0 7.5-7.5 7.5 7.5 0 0 0-7.5-7.5zm387.5 7.5a7.5 7.5 0 0 0-7.5 7.5 7.5 7.5 0 0 0 7.5 7.5 7.5 7.5 0 0 0 7.5-7.5 7.5 7.5 0 0 0-7.5-7.5zm-55 30a7.5 7.5 0 0 0-7.5 7.5 7.5 7.5 0 0 0 7.5 7.5 7.5 7.5 0 0 0 7.5-7.5 7.5 7.5 0 0 0-7.5-7.5zm456.82 9.2559c11.444 55.19 47.068 99.532 93.176 117.32v-48.914c-31.005-22.779-62.007-45.556-93.176-68.402zm-744.32 8.2441a7.5 7.5 0 0 0-7.5 7.5 7.5 7.5 0 0 0 7.5 7.5 7.5 7.5 0 0 0 7.5-7.5 7.5 7.5 0 0 0-7.5-7.5zm65 0a7.5 7.5 0 0 0-7.5 7.5 7.5 7.5 0 0 0 7.5 7.5 7.5 7.5 0 0 0 7.5-7.5 7.5 7.5 0 0 0-7.5-7.5zm250 35a7.5 7.5 0 0 0-7.5 7.5 7.5 7.5 0 0 0 7.5 7.5 7.5 7.5 0 0 0 7.5-7.5 7.5 7.5 0 0 0-7.5-7.5zm-270 25a7.5 7.5 0 0 0-7.5 7.5 7.5 7.5 0 0 0 7.5 7.5 7.5 7.5 0 0 0 7.5-7.5 7.5 7.5 0 0 0-7.5-7.5zm65 0a7.5 7.5 0 0 0-7.5 7.5 7.5 7.5 0 0 0 7.5 7.5 7.5 7.5 0 0 0 7.5-7.5 7.5 7.5 0 0 0-7.5-7.5zm152.5 2.5a7.5 7.5 0 0 0-7.5 7.5 7.5 7.5 0 0 0 7.5 7.5 7.5 7.5 0 0 0 7.5-7.5 7.5 7.5 0 0 0-7.5-7.5z"/>
</g>
<g transform="matrix(-.12677 0 0 -.1304 45.197 93.191)">
<path d="m632.88 93.754c-110.56-0.52306-210.99 20.512-297.26 44.568l20.084 20.533c128.47-36.744 302.87-60.997 459.3-8.8555l26.967-28.018c-72.766-19.84-142.75-27.915-209.09-28.229zm-366.96 418.85-3.6836 2.3555-6.7988 22.098 11.08 12.824 48.814-7.5098-14.822 44.465 10.316 13.127 46.346-3.8613-11.92 51.648 11.389 12.111 45.498-7.582-11.92 55.623 11.422 11.959 44.039-7.3398-15.242 49.535 11.08 12.824 49.227-7.5742-15.307 49.75 9.5586 12.941h50.723l-15.121 41.582 9.3984 13.418h49.471l-7.8164 17.195 21.777 0.41992 10.672-23.477-9.1035-14.139h-50.723l15.121-41.582-9.3984-13.418h-51.459l16.018-52.059-11.08-12.824-49.227 7.5742 15.307-49.75-11.203-12.805-45.498 7.582 11.92-55.623-11.422-11.959-45.25 7.541 11.639-50.43-10.574-12.213-44.889 3.7402 15.205-45.613-11.008-13.045-49.227 7.5742 3.7695-12.25zm627.3 30.627-44.746 6.8848-8.2227 12.131 12.752 55.256-55.256 12.752-6.9824 13.59 21.154 50.77-50.77 21.154-5.3848 13.076 21.676 52.025-42.59 25.555-3.5977 13.43 20.896 37.615-43.4 34.721c-3.1114 2.3984-4.4162 6.2606-3.707 9.8613l22.803 0.47266 43.396-34.717 2.4961-12.664-20.303-36.547 41.705-25.023 4.0859-12.42-21.154-50.77 50.77-21.154 5.3848-13.076-20.447-49.072 53.465-12.338 7.4961-11.992-12.578-54.506 52.484-8.0762zm-543.22 6.7676a7.5 7.5 0 0 0-7.5 7.5 7.5 7.5 0 0 0 7.5 7.5 7.5 7.5 0 0 0 7.5-7.5 7.5 7.5 0 0 0-7.5-7.5zm-62.5 7.5a7.5 7.5 0 0 0-7.5 7.5 7.5 7.5 0 0 0 7.5 7.5 7.5 7.5 0 0 0 7.5-7.5 7.5 7.5 0 0 0-7.5-7.5zm605 20a7.5 7.5 0 0 0-7.5 7.5 7.5 7.5 0 0 0 7.5 7.5 7.5 7.5 0 0 0 7.5-7.5 7.5 7.5 0 0 0-7.5-7.5zm-452.5 7.5 220 285c24.379-100.97 56.858-199.87 105-285zm387.5 7.5a7.5 7.5 0 0 0-7.5 7.5 7.5 7.5 0 0 0 7.5 7.5 7.5 7.5 0 0 0 7.5-7.5 7.5 7.5 0 0 0-7.5-7.5zm-357.5 7.5h270c-40 75-67.501 154.55-85 240zm-137.5 7.5a7.5 7.5 0 0 0-7.5 7.5 7.5 7.5 0 0 0 7.5 7.5 7.5 7.5 0 0 0 7.5-7.5 7.5 7.5 0 0 0-7.5-7.5zm60 0a7.5 7.5 0 0 0-7.5 7.5 7.5 7.5 0 0 0 7.5 7.5 7.5 7.5 0 0 0 7.5-7.5 7.5 7.5 0 0 0-7.5-7.5zm646.01 43.645c-51.91 68.37-89.415 142.62-117.31 222.34 42.897 51.374 68.801 117.22 68.801 189.01 0 71.656-25.806 137.4-68.666 188.77l80.898 104.39c70.368-78.089 140.16-188.13 185.94-304.12-8.0489-5.3952-15.882-11.065-23.428-17.226-37.346 100.56-93.612 197.77-153.5 275.05l-48.703-63.338c36.328-52.389 57.465-115.53 57.465-183.51 0-4.8592-0.1124-9.6924-0.3262-14.5h30.326a3.0003 3.0003 0 1 0 0-6h-30.65c-0.5096-8.0838-1.3301-16.084-2.4277-24h45.578a3.0003 3.0003 0 1 0 0-6h-46.465c-1.2796-8.0997-2.8527-16.106-4.7266-24h53.691a3.0003 3.0003 0 1 0 0-6h-55.182c-1.8291-7.0929-3.8888-14.097-6.1817-21h76.363a6.0006 6.0006 0 0 0 4.3965-1.834c-2.1617-3.3432-4.2641-6.7386-6.3301-10.166h-78.68c-2.2927-6.0859-4.7693-12.087-7.4141-18h73.027a6.0006 6.0006 0 0 0 2.5684-0.54492c-2-3.7748-3.9402-7.5945-5.8262-11.455h-75.436c-3.0359-6.1052-6.2543-12.109-9.6582-18h76.848c-1.6961-3.9611-3.3312-7.962-4.9082-12h-79.219c-3.9046-6.1374-8.0189-12.135-12.316-18h84.978c-1.3369-3.965-2.6-7.9716-3.8222-12h-86.6c2.3143-6.0348 4.6796-12.038 7.1211-18h74.453c-1.0126-3.9738-1.9725-7.9734-2.8731-12h-66.547c2.582-6.0357 5.2235-12.039 7.9453-18h54.992c-0.7097-3.9781-1.3673-7.9778-1.9668-12h-47.416c2.8784-6.0367 5.8235-12.04 8.8555-18h36.262c-0.4222-3.9816-0.7903-7.9817-1.1035-12h-28.904c11.729-22.086 24.556-43.65 38.629-64.703 1.34-18.056 3.7721-35.746 7.4532-53.152zm-196.01 1.3555a7.5 7.5 0 0 0-7.5 7.5 7.5 7.5 0 0 0 7.5 7.5 7.5 7.5 0 0 0 7.5-7.5 7.5 7.5 0 0 0-7.5-7.5zm-465 15a7.5 7.5 0 0 0-7.5 7.5 7.5 7.5 0 0 0 7.5 7.5 7.5 7.5 0 0 0 7.5-7.5 7.5 7.5 0 0 0-7.5-7.5zm60 0a7.5 7.5 0 0 0-7.5 7.5 7.5 7.5 0 0 0 7.5 7.5 7.5 7.5 0 0 0 7.5-7.5 7.5 7.5 0 0 0-7.5-7.5zm345 10a7.5 7.5 0 0 0-7.5 7.5 7.5 7.5 0 0 0 7.5 7.5 7.5 7.5 0 0 0 7.5-7.5 7.5 7.5 0 0 0-7.5-7.5zm-300 45a7.5 7.5 0 0 0-7.5 7.5 7.5 7.5 0 0 0 7.5 7.5 7.5 7.5 0 0 0 7.5-7.5 7.5 7.5 0 0 0-7.5-7.5zm-65 5a7.5 7.5 0 0 0-7.5 7.5 7.5 7.5 0 0 0 7.5 7.5 7.5 7.5 0 0 0 7.5-7.5 7.5 7.5 0 0 0-7.5-7.5zm387.5 7.5a7.5 7.5 0 0 0-7.5 7.5 7.5 7.5 0 0 0 7.5 7.5 7.5 7.5 0 0 0 7.5-7.5 7.5 7.5 0 0 0-7.5-7.5zm-55 30a7.5 7.5 0 0 0-7.5 7.5 7.5 7.5 0 0 0 7.5 7.5 7.5 7.5 0 0 0 7.5-7.5 7.5 7.5 0 0 0-7.5-7.5zm456.82 9.2559c11.444 55.19 47.068 99.532 93.176 117.32v-48.914c-31.005-22.779-62.007-45.556-93.176-68.402zm-744.32 8.2441a7.5 7.5 0 0 0-7.5 7.5 7.5 7.5 0 0 0 7.5 7.5 7.5 7.5 0 0 0 7.5-7.5 7.5 7.5 0 0 0-7.5-7.5zm65 0a7.5 7.5 0 0 0-7.5 7.5 7.5 7.5 0 0 0 7.5 7.5 7.5 7.5 0 0 0 7.5-7.5 7.5 7.5 0 0 0-7.5-7.5zm250 35a7.5 7.5 0 0 0-7.5 7.5 7.5 7.5 0 0 0 7.5 7.5 7.5 7.5 0 0 0 7.5-7.5 7.5 7.5 0 0 0-7.5-7.5zm-270 25a7.5 7.5 0 0 0-7.5 7.5 7.5 7.5 0 0 0 7.5 7.5 7.5 7.5 0 0 0 7.5-7.5 7.5 7.5 0 0 0-7.5-7.5zm65 0a7.5 7.5 0 0 0-7.5 7.5 7.5 7.5 0 0 0 7.5 7.5 7.5 7.5 0 0 0 7.5-7.5 7.5 7.5 0 0 0-7.5-7.5zm152.5 2.5a7.5 7.5 0 0 0-7.5 7.5 7.5 7.5 0 0 0 7.5 7.5 7.5 7.5 0 0 0 7.5-7.5 7.5 7.5 0 0 0-7.5-7.5z"/>
</g>
<g transform="matrix(.12677 0 0 .1304 -119.6 -167.61)">
<path d="m497.5 1097.5v-195h305m-304.96 17.5h304.6m-304.39 20h304.8m-305.05-37.5-277.25-358.4m307.25 358.4-287.62-371.8m397.62 371.8-305.46-394.86m335.46 394.86-307.5-397.5m483.55 2.4214c-101.28 112.21-141.29 252.45-176.05 395.08m194.1-381.39c-92.553 109.82-130.75 244.5-164.1 381.39m230.27-333.22c-78.514 99.123-125.34 210.4-155.27 333.22m174.61-319.44c-72.139 95.622-116.06 202.28-144.61 319.44m216.95-265.33c-52.412 65.676-90.817 136.71-119.54 212.92m138.8-199.13c-52.106 68.556-89.611 142.81-117.27 222.55m-88.831-71.954c93.81 50.57 157.4 148.47 157.4 260.95 0 71.656-25.807 137.4-68.796 188.75m-111.74-375.97c62.645 39.589 104.13 108.65 104.13 187.22 0 47.078-14.894 90.741-40.31 126.7m-70.671-282.15c48.755 35.02 80.42 91.608 80.42 155.46 0 37.016-10.643 71.591-29.089 100.94m-443.5-593.44h384.61m-423.36-50h459.65m-451.34-30h440l480 352.65m-1033.9-329.94-266.07 183.49m235.47-132.39-235.47 162.39m950.48 136.34c43.585 55.276 69.523 124.64 69.523 199.95 0 67.984-21.137 131.12-57.313 183.43m337.29-149.63c-152.64-25.313-269.98-177.43-269.98-361.3 0-28.79 2.8766-56.801 8.3149-83.669m261.68 333.33c-99.957-24.068-175.07-126.7-175.07-249.66 0-6.7402 0.2257-13.419 0.6688-20.028m174.33 238.94c-85.509-23.548-149.11-112.62-149.11-218.91 0-0.68109 0-1.3615 0.01-2.0411m149.15 158.63c-46.105-17.787-81.731-62.149-93.344-117.41m5.5435 292.24c-49.392 119.25-123.42 231.13-195.84 307.03m171.8-321.76c-45.752 115.83-115.54 225.87-185.65 304.26m162.32-321.66c-37.421 100.57-93.69 197.78-153.48 274.92m-48.954-63.12 48.757 63.385m19.875-605.19c-33.188 49.72-59.544 102.25-80.73 157.52m-527.65-276.81h362.26m515.08 492.84c-143.47-19.167-254.98-163.65-254.98-339.04 0-26.881 2.6195-53.037 7.572-78.126m6.8268 80.43c0-0.7675-0.01-1.5356-0.01-2.3044 0-23.564 2.1189-46.54 6.1428-68.676m12.38 186.23c-8.1994-24.991-13.861-51.486-16.611-79.042m79.018 191.77c-20.107-23.635-37.136-50.952-50.307-81.03m151.47 156.42c-31.032-13.014-59.491-32.494-84.226-57.078m142.7 73.235c-8.0784-1.1381-16.049-2.6948-23.895-4.6511m-199.55-337.72c0.705-12.565 2.0523-24.92 4.0032-37.022m13.191 169.12c-8.1545-24.563-13.696-50.687-16.218-77.89m72.541 180.37c-17.576-21.101-32.571-45.235-44.38-71.68m147.02 147.09c-28.585-11.096-54.959-27.99-78.135-49.511m-81.277-262.91c0.5275-7.8428 1.3227-15.596 2.3747-23.247m7.2641 129.45c-2.8744-11.182-5.1848-22.656-6.8916-34.376m54.814 137.28c-7.8627-10.799-15.053-22.307-21.494-34.431m112.13 111.92c-13.808-6.7237-26.972-14.931-39.349-24.455m-92.982-246.44c0.2141-9.4409 0.844-18.759 1.8687-27.929m-1.92 30.736c0.013-0.93684 0.03-1.8725 0.051-2.8069m0.2427 21.69c-0.2155-4.7742-0.3247-9.582-0.3247-14.42 0-1.4905 0.01-2.9782 0.031-4.4628m11.771 89.733c-3.907-13.663-6.9011-27.827-8.8959-42.388m19.078 71.965c-1.0209-2.518-2.0094-5.0581-2.9647-7.6195m38.852 70.849c-8.7223-11.416-16.618-23.738-23.575-36.833m46.542 62.922c-1.163-1.1455-2.316-2.3047-3.4589-3.4774m113.56 61.718c-32.013-5.54-61.824-19.135-87.926-38.996m-87.004-109.79c24.758-39.989-53.606-42.759-29.062-2.3204-45.25 0.95904-12.431 62.742 13.338 26.872 16.589 40.725 65.921-19.527 15.724-24.551v0m-23.889-102.83c32.722-33.783-43.244-53.216-27.897-8.47-44.412-8.7213-25.537 58.643 7.2955 29.099 7.5142 43.327 68.57-5.007 20.602-20.629v0m84.757 193.64c11.993-45.477-63.761-25.231-28.472 6.2723-42.995 14.138 6.4431 63.636 20.608 21.802 27.764 34.101 57.339-37.936 7.8643-28.074v0m114.22 66.835c-5.0274-2.3059-12.268-1.873-21.939 3.4253-2.1906-46.981-68.392-4.9574-25.283 14.519-36.78 26.376 25.223 58.779 26.196 14.622 8.8116 5.8113 15.89 5.7573 20.947 2.654m-497.71-4.0044c12.292-6.0883 37.197-17.856 52.655-21.284 31.902-7.0763 33.675 38.555 5 40-14.795 0.7454-43.333 3.1297-57.139 4.3161m-0.6023-11.131 32.741-8.1854m-31.998-27.773c8.4164-9.3606 23.833-25.793 34.759-33.279 23.75-16.274 40.204 20.442 17.24 31.052-15.996 7.3905-51.487 25.46-51.487 25.46m-0.87149-9.9265 26.991-19.574m-26.832-42.387c3.8724-6.9803 7.9842-13.67 11.743-18.34 18.053-22.427 44.389 7.9906 25.456 24.767-9.8321 8.7123-28.329 26.23-37.107 34.582m-0.33121-15.415 11.982-15.727m-11.864-62.202c12.411 0.87889 23.559 16.505 13.283 30.13-3.4959 4.6355-8.3097 11.292-13.193 18.135m0.43739 103.3c13.221-1.6585 41.624-4.7271 57.747-2.8041 32.447 3.8698 19.033 47.521-8.5069 39.404-12.405-3.6565-35.107-9.5972-49.603-13.339m0.27143-11.915 30.698 2.8324m-30.99 9.4503c13.122 3.4126 40.07 10.939 54.14 18.568 25.829 14.005 5.3266 44.21-15.498 37.286m-30.268-38.778 14.273 7.2529m-4.6492-232.75 19.178-23.013c20.833-25 50 12 35 30l-19.533 23.44m10.648 12.736 25.888-16.661c27.365-17.612 44.11 26.426 24.407 39.106l-25.561 16.451m6.5891 14.353 28.981-7.2276c31.576-7.8748 33.267 39.208 10.533 44.878l-26.668 6.6507m2.4892 18.682 26.792 0.7737c32.529 0.9394 21.451 46.732-1.9705 46.056l-25.527-0.7372m-3.6947 21.235 25.375 6.1722c31.621 7.6911 11.251 50.174-11.516 44.636l-28.376-6.9018m-5.4662 11.319 23.151 17.706c19.226 14.704 4.3767 35.449-12.153 39.257m-68.767-416.04c8.3108 11.194 11.712 25.644 4.9326 37.823 33.98-40.776 81.551 19.572 57.086 48.931 44.633-28.725 71.944 43.101 39.808 63.783 51.501-12.844 54.259 63.95 17.179 73.198 53.056 1.5321 34.986 76.221-3.2139 75.118 51.574 12.544 18.351 81.835-18.782 72.803 29.402 22.486 9.9444 53.634-14.821 62.553m-912.81-1212.9 105 127.83v468.15m-105-521.2 60 73.044v479.35m45.543-433.45c66.345-59.905 47.591-98.442 44.457-140.9 151.15 128.77 109.83 254.77 15 380-0.73133-59.309-8.1796-112.84-60.466-127.8m48.534-228.21c22.344 29.006 47.533 56.307 1.9329 126.01 20.188 7.8685 40.478 13.66 60 35-15.899 24.348-37.565 33.206-60 40 17.25 36.869 52.183 61.332 9.9394 139.95m921.1 240.61c1.7233-14.747 5.1887-42.096 8.9606-45.554 5.2413-4.806 44.331-54.331 50-60 5-5 35-10 40-10s26.73 9.5306 30 25c9.5798 45.312-10.243 75.366-35 10-10 10-15 10-30 10 42.719 33.895 28.888 60.209-15 80m54.832-125.17c3.7063-4.7959 8.7183-9.8127 15.168-14.83 30.749-23.916 77.015-7.6115 30 30-6.8761 5.5008-13.279 9.5833-19.093 12.442m15.06-9.2072c37.403-11.47 66.809 9.2015 8.4314 42.197-55.596 31.424-78.104 13.095-54.412-13.083m53.107 13.571c34.281-2.6533 54.672 18.516-2.5656 38.272-59.976 20.701-76.954-1.8715-43.853-22.363m45.822 21.752c34.149-2.0523 55.894 22.657 0.3302 36.419-57.162 14.158-68.359-12.308-31.514-28.411m-28.489 76.721c22.272-6.8921 50.558-31.936 53.306-46.624m-62.557-34.09c4.8788 19.335-15.884 43.747-18.572 42.404m-135-250c-5 40 35 55 75 25 53.814-40.361 157.09-42.075 105 65-10-35-72.804-22.126-115 5-70 45-135-65-65-95v0m0 0c-45.453 52.655 14.216 101.96 90 50 74.272-50.92 112.52 23.688 90 40l-5 15m-16.173-104.72c8.6562 16.019 15.13 32.113 16.274 48.388m-39.75-48.355c9.9197 11.142 17.946 22.907 22.308 35.877m-62.768-23.222c9.1807 6.8231 17.741 14.141 24.698 22.411m-58.237-1.7664c12.964 2.4726 25.084 6.1563 35.631 12.093m-62.977-4.6855c9.8926 7.5019 18.578 15.684 25.12 25.074m-54.327-39.752c7.3907 15.133 13.117 30.231 14.738 45.244m130.48-2.6197c5.593-10.021 4.31-21.725 0.053-35.11m-23.111 36.61c4.6695-10.081 3.3875-22.601 0.018-37.077m-40.832 49.948c4.6469-8.7605 5.254-20.122 4.4572-33.296m-53.32 55.416c7.1559-8.4076 10.151-21.051 12.291-36.07m-60.044 18.127c6.7414-4.0774 12.714-10.692 18.646-18.784m-216.04-386.66c5.7435 18.201 12.863 41.966 12.863 47.932 0 11.18-5 13.128-5 20 0 5 40 70 40 90s-20 20-25 20 0 20 0 25-5 15-5 15 5 7.9289 5 15c0 15-30 15-30 15s5 15 5 20 20 0 20 25c0 10-30 35-40 35s-20-10-30-10-25 10-35 10-61.026-20.513-80-30c-10-5-8.577-19.972-25.6-26.568-10.395-4.0277-21.739-19.195-30.499-36.124m216.1-87.308c-39.021 3.5029-15.755 40.282 20 15 8.1651-5.7733 0 5 0 5-9.0832 0-18.017 4.731-25 4m-47 47c20.005-2.5693 42.801-23.897 48-29 4.093-4.017 14.922 4.3397 14 10-19.782 10.298-48.043 21.628-62 19m36 8c14.112-2.1801 28.148-0.78183 41-10m-138-140c2.0468 3.4714 65.668-38.846 77-43 13.905-5.0973 26.594 6.6916 26 6l2 11s-16.409-11.864-25-9c-9 3-78.944 40.146-80 35v0m28 21c33.347-2.1678 60.226-31.538 87-30m-57.04 21.788c-12.434 28.455 40.764 7.8272 58.04 17.212m17 236-24.893-18.67m-428.66-315.28c-51.895 122.44 17.412 219.03-46.449 323.95-9.5324 15.66-50 25-55 0-8.8252-44.126 50.246-27.892 35-10m88.831-319.8c-57.812 124.53 6.9574 218.22-48.831 329.8-20 40-91.159 51.01-95 5-6.6567-79.736 95-60 75-5m91.713-335.82c-62.806 127.55 4.9714 222.45-51.713 335.82-12.344 24.689-44.178 38.333-67.644 34.343m141.79-375.06c-67.44 130.03-1.7393 225.9-59.146 340.71-8.5468 17.094-22.772 24.414-38.504 25.976m119.85-370.9c-71.057 131.48-3.3297 218.89-61.348 334.92-12.344 24.689-36.535 38.99-60 35m143.35-373.58c-74.315 133.26-4.7946 216.47-63.348 333.58-11.864 23.728-30.051 33.243-52.279 30.405m137.56-367.4c-77.441 135.26-6.227 218.89-65.279 337-12.344 24.689-26.535 28.99-50 25m136.68-364.43c-79.701 136.69-7.2786 220.62-66.683 339.43-12.344 24.689-31.535 28.99-55 25m143.02-366.69c-81.836 137.88-8.2831 212.23-68.015 331.69-12.344 24.689-26.535 33.99-50 30m138.98-363.32c-83.382 138.88-9.0178 208.38-68.984 328.32-12.344 24.689-26.535 33.99-50 30m139.58-359.31c-84.333 139.52-9.4721 204.09-69.581 324.31-10.357 20.714-18.493 27.076-34.703 26.232m124.7-351.23c-85 140-9.792 189.58-70 310-9.2146 18.429-16.672 28.284-29.621 30.438m119.62-340.44c-85 140-9.792 179.58-70 300-6.1531 12.306-15.249 18.305-25.732 20.732m115.36-320.11c-84.386 139.41-4.5045 149.14-64.623 269.38-7.4454 14.891-13.743 22.365-22.718 25.077m-221.66-276.84c138.04-38.401 312.31-69.157 506.31-16.415m-642.28-121.82 156.05 158.86c128.47-36.744 302.87-60.997 459.3-8.8555l145.45-150" fill="none" stroke="#44f" stroke-linecap="round" stroke-linejoin="round" stroke-width="6"/>
</g>
<g transform="matrix(-.12677 0 0 -.1304 45.197 93.191)">
<path d="m497.5 1097.5v-195h305m-304.96 17.5h304.6m-304.39 20h304.8m-305.05-37.5-277.25-358.4m307.25 358.4-287.62-371.8m397.62 371.8-305.46-394.86m335.46 394.86-307.5-397.5m483.55 2.4214c-101.28 112.21-141.29 252.45-176.05 395.08m194.1-381.39c-92.553 109.82-130.75 244.5-164.1 381.39m230.27-333.22c-78.514 99.123-125.34 210.4-155.27 333.22m174.61-319.44c-72.139 95.622-116.06 202.28-144.61 319.44m216.95-265.33c-52.412 65.676-90.817 136.71-119.54 212.92m138.8-199.13c-52.106 68.556-89.611 142.81-117.27 222.55m-88.831-71.954c93.81 50.57 157.4 148.47 157.4 260.95 0 71.656-25.807 137.4-68.796 188.75m-111.74-375.97c62.645 39.589 104.13 108.65 104.13 187.22 0 47.078-14.894 90.741-40.31 126.7m-70.671-282.15c48.755 35.02 80.42 91.608 80.42 155.46 0 37.016-10.643 71.591-29.089 100.94m-443.5-593.44h384.61m-423.36-50h459.65m-451.34-30h440l480 352.65m-1033.9-329.94-266.07 183.49m235.47-132.39-235.47 162.39m950.48 136.34c43.585 55.276 69.523 124.64 69.523 199.95 0 67.984-21.137 131.12-57.313 183.43m337.29-149.63c-152.64-25.313-269.98-177.43-269.98-361.3 0-28.79 2.8766-56.801 8.3149-83.669m261.68 333.33c-99.957-24.068-175.07-126.7-175.07-249.66 0-6.7402 0.2257-13.419 0.6688-20.028m174.33 238.94c-85.509-23.548-149.11-112.62-149.11-218.91 0-0.68109 0-1.3615 0.01-2.0411m149.15 158.63c-46.105-17.787-81.731-62.149-93.344-117.41m5.5435 292.24c-49.392 119.25-123.42 231.13-195.84 307.03m171.8-321.76c-45.752 115.83-115.54 225.87-185.65 304.26m162.32-321.66c-37.421 100.57-93.69 197.78-153.48 274.92m-48.954-63.12 48.757 63.385m19.875-605.19c-33.188 49.72-59.544 102.25-80.73 157.52m-527.65-276.81h362.26m515.08 492.84c-143.47-19.167-254.98-163.65-254.98-339.04 0-26.881 2.6195-53.037 7.572-78.126m6.8268 80.43c0-0.7675-0.01-1.5356-0.01-2.3044 0-23.564 2.1189-46.54 6.1428-68.676m12.38 186.23c-8.1994-24.991-13.861-51.486-16.611-79.042m79.018 191.77c-20.107-23.635-37.136-50.952-50.307-81.03m151.47 156.42c-31.032-13.014-59.491-32.494-84.226-57.078m142.7 73.235c-8.0784-1.1381-16.049-2.6948-23.895-4.6511m-199.55-337.72c0.705-12.565 2.0523-24.92 4.0032-37.022m13.191 169.12c-8.1545-24.563-13.696-50.687-16.218-77.89m72.541 180.37c-17.576-21.101-32.571-45.235-44.38-71.68m147.02 147.09c-28.585-11.096-54.959-27.99-78.135-49.511m-81.277-262.91c0.5275-7.8428 1.3227-15.596 2.3747-23.247m7.2641 129.45c-2.8744-11.182-5.1848-22.656-6.8916-34.376m54.814 137.28c-7.8627-10.799-15.053-22.307-21.494-34.431m112.13 111.92c-13.808-6.7237-26.972-14.931-39.349-24.455m-92.982-246.44c0.2141-9.4409 0.844-18.759 1.8687-27.929m-1.92 30.736c0.013-0.93684 0.03-1.8725 0.051-2.8069m0.2427 21.69c-0.2155-4.7742-0.3247-9.582-0.3247-14.42 0-1.4905 0.01-2.9782 0.031-4.4628m11.771 89.733c-3.907-13.663-6.9011-27.827-8.8959-42.388m19.078 71.965c-1.0209-2.518-2.0094-5.0581-2.9647-7.6195m38.852 70.849c-8.7223-11.416-16.618-23.738-23.575-36.833m46.542 62.922c-1.163-1.1455-2.316-2.3047-3.4589-3.4774m113.56 61.718c-32.013-5.54-61.824-19.135-87.926-38.996m-87.004-109.79c24.758-39.989-53.606-42.759-29.062-2.3204-45.25 0.95904-12.431 62.742 13.338 26.872 16.589 40.725 65.921-19.527 15.724-24.551v0m-23.889-102.83c32.722-33.783-43.244-53.216-27.897-8.47-44.412-8.7213-25.537 58.643 7.2955 29.099 7.5142 43.327 68.57-5.007 20.602-20.629v0m84.757 193.64c11.993-45.477-63.761-25.231-28.472 6.2723-42.995 14.138 6.4431 63.636 20.608 21.802 27.764 34.101 57.339-37.936 7.8643-28.074v0m114.22 66.835c-5.0274-2.3059-12.268-1.873-21.939 3.4253-2.1906-46.981-68.392-4.9574-25.283 14.519-36.78 26.376 25.223 58.779 26.196 14.622 8.8116 5.8113 15.89 5.7573 20.947 2.654m-497.71-4.0044c12.292-6.0883 37.197-17.856 52.655-21.284 31.902-7.0763 33.675 38.555 5 40-14.795 0.7454-43.333 3.1297-57.139 4.3161m-0.6023-11.131 32.741-8.1854m-31.998-27.773c8.4164-9.3606 23.833-25.793 34.759-33.279 23.75-16.274 40.204 20.442 17.24 31.052-15.996 7.3905-51.487 25.46-51.487 25.46m-0.87149-9.9265 26.991-19.574m-26.832-42.387c3.8724-6.9803 7.9842-13.67 11.743-18.34 18.053-22.427 44.389 7.9906 25.456 24.767-9.8321 8.7123-28.329 26.23-37.107 34.582m-0.33121-15.415 11.982-15.727m-11.864-62.202c12.411 0.87889 23.559 16.505 13.283 30.13-3.4959 4.6355-8.3097 11.292-13.193 18.135m0.43739 103.3c13.221-1.6585 41.624-4.7271 57.747-2.8041 32.447 3.8698 19.033 47.521-8.5069 39.404-12.405-3.6565-35.107-9.5972-49.603-13.339m0.27143-11.915 30.698 2.8324m-30.99 9.4503c13.122 3.4126 40.07 10.939 54.14 18.568 25.829 14.005 5.3266 44.21-15.498 37.286m-30.268-38.778 14.273 7.2529m-4.6492-232.75 19.178-23.013c20.833-25 50 12 35 30l-19.533 23.44m10.648 12.736 25.888-16.661c27.365-17.612 44.11 26.426 24.407 39.106l-25.561 16.451m6.5891 14.353 28.981-7.2276c31.576-7.8748 33.267 39.208 10.533 44.878l-26.668 6.6507m2.4892 18.682 26.792 0.7737c32.529 0.9394 21.451 46.732-1.9705 46.056l-25.527-0.7372m-3.6947 21.235 25.375 6.1722c31.621 7.6911 11.251 50.174-11.516 44.636l-28.376-6.9018m-5.4662 11.319 23.151 17.706c19.226 14.704 4.3767 35.449-12.153 39.257m-68.767-416.04c8.3108 11.194 11.712 25.644 4.9326 37.823 33.98-40.776 81.551 19.572 57.086 48.931 44.633-28.725 71.944 43.101 39.808 63.783 51.501-12.844 54.259 63.95 17.179 73.198 53.056 1.5321 34.986 76.221-3.2139 75.118 51.574 12.544 18.351 81.835-18.782 72.803 29.402 22.486 9.9444 53.634-14.821 62.553m-912.81-1212.9 105 127.83v468.15m-105-521.2 60 73.044v479.35m45.543-433.45c66.345-59.905 47.591-98.442 44.457-140.9 151.15 128.77 109.83 254.77 15 380-0.73133-59.309-8.1796-112.84-60.466-127.8m48.534-228.21c22.344 29.006 47.533 56.307 1.9329 126.01 20.188 7.8685 40.478 13.66 60 35-15.899 24.348-37.565 33.206-60 40 17.25 36.869 52.183 61.332 9.9394 139.95m921.1 240.61c1.7233-14.747 5.1887-42.096 8.9606-45.554 5.2413-4.806 44.331-54.331 50-60 5-5 35-10 40-10s26.73 9.5306 30 25c9.5798 45.312-10.243 75.366-35 10-10 10-15 10-30 10 42.719 33.895 28.888 60.209-15 80m54.832-125.17c3.7063-4.7959 8.7183-9.8127 15.168-14.83 30.749-23.916 77.015-7.6115 30 30-6.8761 5.5008-13.279 9.5833-19.093 12.442m15.06-9.2072c37.403-11.47 66.809 9.2015 8.4314 42.197-55.596 31.424-78.104 13.095-54.412-13.083m53.107 13.571c34.281-2.6533 54.672 18.516-2.5656 38.272-59.976 20.701-76.954-1.8715-43.853-22.363m45.822 21.752c34.149-2.0523 55.894 22.657 0.3302 36.419-57.162 14.158-68.359-12.308-31.514-28.411m-28.489 76.721c22.272-6.8921 50.558-31.936 53.306-46.624m-62.557-34.09c4.8788 19.335-15.884 43.747-18.572 42.404m-135-250c-5 40 35 55 75 25 53.814-40.361 157.09-42.075 105 65-10-35-72.804-22.126-115 5-70 45-135-65-65-95v0m0 0c-45.453 52.655 14.216 101.96 90 50 74.272-50.92 112.52 23.688 90 40l-5 15m-16.173-104.72c8.6562 16.019 15.13 32.113 16.274 48.388m-39.75-48.355c9.9197 11.142 17.946 22.907 22.308 35.877m-62.768-23.222c9.1807 6.8231 17.741 14.141 24.698 22.411m-58.237-1.7664c12.964 2.4726 25.084 6.1563 35.631 12.093m-62.977-4.6855c9.8926 7.5019 18.578 15.684 25.12 25.074m-54.327-39.752c7.3907 15.133 13.117 30.231 14.738 45.244m130.48-2.6197c5.593-10.021 4.31-21.725 0.053-35.11m-23.111 36.61c4.6695-10.081 3.3875-22.601 0.018-37.077m-40.832 49.948c4.6469-8.7605 5.254-20.122 4.4572-33.296m-53.32 55.416c7.1559-8.4076 10.151-21.051 12.291-36.07m-60.044 18.127c6.7414-4.0774 12.714-10.692 18.646-18.784m-216.04-386.66c5.7435 18.201 12.863 41.966 12.863 47.932 0 11.18-5 13.128-5 20 0 5 40 70 40 90s-20 20-25 20 0 20 0 25-5 15-5 15 5 7.9289 5 15c0 15-30 15-30 15s5 15 5 20 20 0 20 25c0 10-30 35-40 35s-20-10-30-10-25 10-35 10-61.026-20.513-80-30c-10-5-8.577-19.972-25.6-26.568-10.395-4.0277-21.739-19.195-30.499-36.124m216.1-87.308c-39.021 3.5029-15.755 40.282 20 15 8.1651-5.7733 0 5 0 5-9.0832 0-18.017 4.731-25 4m-47 47c20.005-2.5693 42.801-23.897 48-29 4.093-4.017 14.922 4.3397 14 10-19.782 10.298-48.043 21.628-62 19m36 8c14.112-2.1801 28.148-0.78183 41-10m-138-140c2.0468 3.4714 65.668-38.846 77-43 13.905-5.0973 26.594 6.6916 26 6l2 11s-16.409-11.864-25-9c-9 3-78.944 40.146-80 35v0m28 21c33.347-2.1678 60.226-31.538 87-30m-57.04 21.788c-12.434 28.455 40.764 7.8272 58.04 17.212m17 236-24.893-18.67m-428.66-315.28c-51.895 122.44 17.412 219.03-46.449 323.95-9.5324 15.66-50 25-55 0-8.8252-44.126 50.246-27.892 35-10m88.831-319.8c-57.812 124.53 6.9574 218.22-48.831 329.8-20 40-91.159 51.01-95 5-6.6567-79.736 95-60 75-5m91.713-335.82c-62.806 127.55 4.9714 222.45-51.713 335.82-12.344 24.689-44.178 38.333-67.644 34.343m141.79-375.06c-67.44 130.03-1.7393 225.9-59.146 340.71-8.5468 17.094-22.772 24.414-38.504 25.976m119.85-370.9c-71.057 131.48-3.3297 218.89-61.348 334.92-12.344 24.689-36.535 38.99-60 35m143.35-373.58c-74.315 133.26-4.7946 216.47-63.348 333.58-11.864 23.728-30.051 33.243-52.279 30.405m137.56-367.4c-77.441 135.26-6.227 218.89-65.279 337-12.344 24.689-26.535 28.99-50 25m136.68-364.43c-79.701 136.69-7.2786 220.62-66.683 339.43-12.344 24.689-31.535 28.99-55 25m143.02-366.69c-81.836 137.88-8.2831 212.23-68.015 331.69-12.344 24.689-26.535 33.99-50 30m138.98-363.32c-83.382 138.88-9.0178 208.38-68.984 328.32-12.344 24.689-26.535 33.99-50 30m139.58-359.31c-84.333 139.52-9.4721 204.09-69.581 324.31-10.357 20.714-18.493 27.076-34.703 26.232m124.7-351.23c-85 140-9.792 189.58-70 310-9.2146 18.429-16.672 28.284-29.621 30.438m119.62-340.44c-85 140-9.792 179.58-70 300-6.1531 12.306-15.249 18.305-25.732 20.732m115.36-320.11c-84.386 139.41-4.5045 149.14-64.623 269.38-7.4454 14.891-13.743 22.365-22.718 25.077m-221.66-276.84c138.04-38.401 312.31-69.157 506.31-16.415m-642.28-121.82 156.05 158.86c128.47-36.744 302.87-60.997 459.3-8.8555l145.45-150" fill="none" stroke="#44f" stroke-linecap="round" stroke-linejoin="round" stroke-width="6"/>
</g>
<g transform="matrix(.12677 0 0 .1304 -119.6 -167.61)">
<path d="m115 211.84v124.2m10-134.87v140.31m10-152.88v160.71m10-177.43v189.58m10-271.47v292.2m10-288.79v361.6m10-351.96v343.24m10-332.82v318.72m10-307.42v292.41m10-279.94v263.63m10-249.62v231.98m10-215.4v195.68m977 316.5c9.8093 8.7885 7.628 26.84 4 27m-12-58c9.8093 8.7885 7.628 26.84 4 27m17-73c-9 5-4 36-4 36m10 9c3.2158 4.7124 3.8261 10.284 4 16m6 18c3.2158 4.7124 3.8261 10.284 4 16m-431-444c-2.9148-2.5514-26.04 5.3764-27 11m26-51c-12 3-23-10-37-10-4.1231 0-22 8-22 8m41.397 5.9903c3.6348 2.7787 5.5137 8.2671 5.6034 14.51 0 10.217-6.4919 18.5-14.5 18.5s-14.5-8.2827-14.5-18.5c0-1.545 0.14844-3.0457 0.4281-4.4802m-168.22 171.98h-19.499m33.456 15h-50.493m70.197 15h-79.844m91.749 15h-113.51m143.73 15h-160m135 15h-170.25" fill="none" stroke="#44f" stroke-linecap="round" stroke-linejoin="round" stroke-width="3"/>
<g transform="matrix(.083333 0 0 .081 546 1e3)">
<path d="m0-300c0-100 100-200 200-200s200 100 200 250c0 250-400 650-400 750 0-100-400-500-400-750 0-150 100-250 200-250s200 100 200 200z" fill="#f00"/>
</g>
<g transform="matrix(-.083333 0 0 -.081 615 1e3)">
<path d="m0-300c0-100 100-200 200-200s200 100 200 250c0 250-400 650-400 750 0-100-400-500-400-750 0-150 100-250 200-250s200 100 200 200z" fill="#f00"/>
</g>
<g transform="matrix(.054127 .030375 -.03125 .052611 883.18 776.66)">
<path d="m0-300c0-100 100-200 200-200s200 100 200 250c0 250-400 650-400 750 0-100-400-500-400-750 0-150 100-250 200-250s200 100 200 200z" fill="#f00"/>
</g>
<g transform="matrix(.054127 .030375 -.03125 .052611 915.18 711.66)">
<path d="m0-300c0-100 100-200 200-200s200 100 200 250c0 250-400 650-400 750 0-100-400-500-400-750 0-150 100-250 200-250s200 100 200 200z" fill="#f00"/>
</g>
<g transform="matrix(.054127 .030375 -.03125 .052611 954.18 646.66)">
<path d="m0-300c0-100 100-200 200-200s200 100 200 250c0 250-400 650-400 750 0-100-400-500-400-750 0-150 100-250 200-250s200 100 200 200z" fill="#f00"/>
</g>
<g transform="matrix(.03125 .052611 -.054127 .030375 219.82 633.66)">
<path d="m0-300c0-100 100-200 200-200s200 100 200 250c0 250-400 650-400 750 0-100-400-500-400-750 0-150 100-250 200-250s200 100 200 200z" fill="#f00"/>
</g>
<g transform="matrix(.03125 .052611 -.054127 .030375 154.82 728.66)">
<path d="m0-300c0-100 100-200 200-200s200 100 200 250c0 250-400 650-400 750 0-100-400-500-400-750 0-150 100-250 200-250s200 100 200 200z" fill="#f00"/>
</g>
<g transform="matrix(.03125 .052611 -.054127 .030375 51.817 728.66)">
<path d="m0-300c0-100 100-200 200-200s200 100 200 250c0 250-400 650-400 750 0-100-400-500-400-750 0-150 100-250 200-250s200 100 200 200z" fill="#f00"/>
</g>
<g transform="matrix(.03125 .052611 -.054127 .030375 95.817 825.66)">
<path d="m0-300c0-100 100-200 200-200s200 100 200 250c0 250-400 650-400 750 0-100-400-500-400-750 0-150 100-250 200-250s200 100 200 200z" fill="#f00"/>
</g>
</g>
<g transform="matrix(-.12677 0 0 -.1304 45.197 93.191)">
<path d="m115 211.84v124.2m10-134.87v140.31m10-152.88v160.71m10-177.43v189.58m10-271.47v292.2m10-288.79v361.6m10-351.96v343.24m10-332.82v318.72m10-307.42v292.41m10-279.94v263.63m10-249.62v231.98m10-215.4v195.68m977 316.5c9.8093 8.7885 7.628 26.84 4 27m-12-58c9.8093 8.7885 7.628 26.84 4 27m17-73c-9 5-4 36-4 36m10 9c3.2158 4.7124 3.8261 10.284 4 16m6 18c3.2158 4.7124 3.8261 10.284 4 16m-431-444c-2.9148-2.5514-26.04 5.3764-27 11m26-51c-12 3-23-10-37-10-4.1231 0-22 8-22 8m41.397 5.9903c3.6348 2.7787 5.5137 8.2671 5.6034 14.51 0 10.217-6.4919 18.5-14.5 18.5s-14.5-8.2827-14.5-18.5c0-1.545 0.14844-3.0457 0.4281-4.4802m-168.22 171.98h-19.499m33.456 15h-50.493m70.197 15h-79.844m91.749 15h-113.51m143.73 15h-160m135 15h-170.25" fill="none" stroke="#44f" stroke-linecap="round" stroke-linejoin="round" stroke-width="3"/>
<g transform="matrix(.083333 0 0 .081 546 1e3)">
<path d="m0-300c0-100 100-200 200-200s200 100 200 250c0 250-400 650-400 750 0-100-400-500-400-750 0-150 100-250 200-250s200 100 200 200z" fill="#f00"/>
</g>
<g transform="matrix(-.083333 0 0 -.081 615 1e3)">
<path d="m0-300c0-100 100-200 200-200s200 100 200 250c0 250-400 650-400 750 0-100-400-500-400-750 0-150 100-250 200-250s200 100 200 200z" fill="#f00"/>
</g>
<g transform="matrix(.054127 .030375 -.03125 .052611 883.18 776.66)">
<path d="m0-300c0-100 100-200 200-200s200 100 200 250c0 250-400 650-400 750 0-100-400-500-400-750 0-150 100-250 200-250s200 100 200 200z" fill="#f00"/>
</g>
<g transform="matrix(.054127 .030375 -.03125 .052611 915.18 711.66)">
<path d="m0-300c0-100 100-200 200-200s200 100 200 250c0 250-400 650-400 750 0-100-400-500-400-750 0-150 100-250 200-250s200 100 200 200z" fill="#f00"/>
</g>
<g transform="matrix(.054127 .030375 -.03125 .052611 954.18 646.66)">
<path d="m0-300c0-100 100-200 200-200s200 100 200 250c0 250-400 650-400 750 0-100-400-500-400-750 0-150 100-250 200-250s200 100 200 200z" fill="#f00"/>
</g>
<g transform="matrix(.03125 .052611 -.054127 .030375 219.82 633.66)">
<path d="m0-300c0-100 100-200 200-200s200 100 200 250c0 250-400 650-400 750 0-100-400-500-400-750 0-150 100-250 200-250s200 100 200 200z" fill="#f00"/>
</g>
<g transform="matrix(.03125 .052611 -.054127 .030375 154.82 728.66)">
<path d="m0-300c0-100 100-200 200-200s200 100 200 250c0 250-400 650-400 750 0-100-400-500-400-750 0-150 100-250 200-250s200 100 200 200z" fill="#f00"/>
</g>
<g transform="matrix(.03125 .052611 -.054127 .030375 51.817 728.66)">
<path d="m0-300c0-100 100-200 200-200s200 100 200 250c0 250-400 650-400 750 0-100-400-500-400-750 0-150 100-250 200-250s200 100 200 200z" fill="#f00"/>
</g>
<g transform="matrix(.03125 .052611 -.054127 .030375 95.817 825.66)">
<path d="m0-300c0-100 100-200 200-200s200 100 200 250c0 250-400 650-400 750 0-100-400-500-400-750 0-150 100-250 200-250s200 100 200 200z" fill="#f00"/>
</g>
</g>
</svg>
