<?xml version="1.0" encoding="UTF-8"?>
<svg width="100%" height="100%" version="1.1" viewBox="-120 -168 165.58 261.58" xmlns="http://www.w3.org/2000/svg">
<g transform="matrix(.12677 0 0 .1304 -119.6 -167.53)">
<path d="m1220 34.26c-31.411 0-56.875 47.01-56.875 105 0.016 40.087 12.395 76.66 31.904 94.26l-45.74 45.74 45.775 45.775c-19.517 17.576-31.909 54.135-31.94 94.225 0 33.251 8.3726 62.892 21.438 82.131 0.9359 3.7778 47.697 25.613 51.822 18.447 23.424-12.987 40.49-53.103 40.49-100.58-0.0164-40.087-12.395-76.66-31.904-94.26l45.74-45.74-45.775-45.775c19.517-17.576 31.909-54.135 31.94-94.225 0-57.99-25.464-105-56.875-105zm0 45c17.949 0 32.5 26.863 32.5 60s-14.551 60-32.5 60-32.5-26.863-32.5-60 14.551-60 32.5-60zm-525.99 89.875c-63.888 6.439-127.84 16.954-191.06 30.264 17.516 63.191-52.031 103.21-42.982 175.6 1.8183 14.546 11.572 23.142 23.318 26.568-3.2542 26.675-20.68 58.987-43.074 53.242 7.5687 0.24094 14.737-4.7622 14.756-14.811 0.0457-25-50-40.227-50 15 0 26.45 31.971 41.442 60.645 32.246-5.2102 1.7975-10.493 2.9404-15.67 3.6309l0.0781 267.12c-10.435-10.949-26.729-18.002-45.053-18.002-31.5 0-57.035 20.819-57.035 46.5 1e-3 1.0343 0.0459 2.0678 0.13282 3.0996h-0.13282l-0.041 7.125c24.462 30.001 46.929 62.78 67.725 98.105l334.15 0.16992 0.20508-74.244h-0.15039c0.0834-0.72647 0.13377-1.4547 0.15039-2.1836 1e-5 -18.09-20.147-32.756-45-32.756-9.3762 0.59726-16.979 2.6319-23.643 5.9238 5.9073-2.95 12.529-4.9392 20.475-5.8047l10.533-15.461 64.762 44.113 10.307-14.789-64.469-44.322-6.7461 9.3418 125.96-184.88 64.361 44.25 9.8125-15.131-63.992-43.994-3.3027 4.7793 51.697-75.883 64.342 44.234 10.621-14.572-57.68-39.656-8.0391 1.0371-8.7461 8.2266 3.9922-5.8594c-3.7831 1.6546-8.8632 2.6328-15.246 2.6328-25 0-55-5-75-5-9.7473 0-27.808-5.939-44.799-11.939-10.374 3.4499-27.352 8.727-40.201 11.939-17.632 4.408-50.808-10.615-58.533-14.361-10.537 15.724-24.314 25.315-38.316 29.898 26.181-8.6569 51.552-34.883 56.256-86.09 24.739-5.4887 45.594-23.155 45.594-44.447 0-55.227-55-45-55-10 0 9.5401 3.4117 14.963 8.1035 17.482-80.306-31.389 38.064-123.36 5.9375-208.35zm525.99 80.836 29.289 29.289-29.289 29.289-29.289-29.289zm0 109.29c17.949 0 32.5 26.863 32.5 60s-14.551 60-32.5 60-32.5-26.863-32.5-60 14.551-60 32.5-60zm-734.62 116.87c0.0199 0.1606 0.0469 0.31527 0.0684 0.47461-0.0144-0.1039-0.0332-0.20416-0.0469-0.30859-0.3811 0.24777-0.76543 0.51244-1.1504 0.77929 0.37815-0.31113 0.75592-0.62208 1.1289-0.94531zm-5.5781 4.2578 0.17188 34.617h380l-199.96 287.21-0.04297 6.4883v-9.3125h-0.1582c0.088-0.93551 0.14068-1.8719 0.1582-2.8105 1e-5 -23.296-21.266-42.182-47.5-42.182-24 0-43.843 15.807-47.305 34.867-1.5712-25.298-24.09-44.266-51.678-44.266-17.981 0-33.796 8.0633-43.002 20.223 2.6239-3.4914 5.7763-6.6726 9.3906-9.4414l-0.11328-275.38c0.0117-8e-3 0.0235-0.0156 0.0351-0.0234zm93.699 3.8984c0.14529 0.26042 0.3062 0.51164 0.45899 0.76758-0.10849-0.17778-0.22126-0.35324-0.32617-0.53321-15.416 16.862-37.059 24.866-55.102 23.094 18.021 1.7151 39.625-6.3495 54.969-23.328zm407.19 32.014-230.71 338.71v40l175.37-257.9-117.82 173.64c36.997 2.2175 73.31 9.251 108.23 20.754-34.921-11.474-71.255-18.488-108.29-20.67l-19.682 28.854c62.063 1.184 122.67 16.544 177.82 44.676l6.4766 3.377c41.326 22.005 79.452 51.257 112.67 86.998 80.183 86.267 125.23 203.27 125.23 325.27 0 34.756-3.6557 69.106-10.85 102.48 8.2799 4.2883 16.801 8.4473 25.652 12.512 8.6624-37.515 13.082-75.735 13.082-114.99 0-98.303-27.457-193.56-77.514-273.69-0.3615-0.2659-0.721-0.5392-1.082-0.8066 42.156 31.268 89.847 55.215 140.71 70.936v-196.93c-51.712-25.693-109.97-86.673-101.29-151.57-35.121-24.628-71.449-48.975-108.84-72.967 74.94 48.014 145.35 97.111 210.13 146.24v-112.77c-104.61-68.651-200.64-128.4-299.56-181.97l-0.076 0.11328zm-645.71 3.7051-20 8.4805v229.73l20 22.578zm55 18.598c-13.902 0-27.804 8.5982-10.607 25.795-34.393-34.393-34.393 55.608 0 21.215-34.393 34.393 55.608 34.393 21.215 0 26.217 26.217 32.801-20.199 18.947-28.246-4.3203-2.5094-10.627-1.2889-18.947 7.0312 17.197-17.197 3.2942-25.795-10.607-25.795zm90 31.402v25h324.06l15.941-25zm518.95 48.588c0.2944 0.17653 0.58463 0.35467 0.87891 0.53125-0.29364-0.17612-0.58516-0.35323-0.87891-0.5293zm-609.55 34.404c-13.902 0-27.802 8.5982-10.605 25.795-34.393-34.393-34.393 55.606 0 21.213-34.393 34.393 55.606 34.393 21.213 0 26.217 26.217 32.803-20.199 18.949-28.246-4.3203-2.5094-10.629-1.2869-18.949 7.0332 17.197-17.197 3.2942-25.795-10.607-25.795zm398.22 7.2422-10.24 14.834 64.652 44.449 10.238-14.836zm-317.4 105.4c-0.20747 0.28063-0.4109 0.56283-0.61133 0.84766 0.19946-0.28501 0.40492-0.56658 0.61133-0.84766zm-8.2715 23.836c0.0227 0.12092 0.0553 0.23109 0.0957 0.32617v6e-3c-0.0415-0.0963-0.0726-0.20892-0.0957-0.33203zm218.41 2.7871c-0.48371 0.25169-0.96319 0.51022-1.4375 0.77539 0.47334-0.26674 0.95499-0.52188 1.4375-0.77539zm337.21 51.076c0.3141 0.79139 0.632 1.5815 0.9512 2.3711-0.319-0.78974-0.6372-1.5795-0.9512-2.3711zm3.0821 7.5332c0.3083 0.73287 0.611 1.468 0.9238 2.1992-0.3126-0.73147-0.6156-1.4661-0.9238-2.1992zm3.6816 8.4942c0.5139 1.1462 1.0395 2.2877 1.5645 3.4297-0.5245-1.142-1.0511-2.2834-1.5645-3.4297zm3.0879 6.707c0.597 1.2684 1.1941 2.5359 1.8047 3.7988-0.6101-1.263-1.2083-2.5304-1.8047-3.7988zm2.7324 5.6836c1.3209 2.6959 2.6697 5.3807 4.0528 8.0508-1.3822-2.6705-2.7328-5.3541-4.0528-8.0508zm5.0293 9.9297c0.8177 1.5586 1.6417 3.1146 2.4805 4.6641-0.8383-1.5495-1.6633-3.1052-2.4805-4.6641zm2.7715 5.1914c1.8882 3.4754 3.8264 6.9298 5.8203 10.357 3.0941 5.3189 6.3144 10.578 9.6602 15.775-2.8443-4.4084-5.6065-8.8546-8.2617-13.348-0.4756-0.80484-0.9288-1.6201-1.3985-2.4277-1.9936-3.428-3.9326-6.8808-5.8203-10.357zm-243.16 17.867c2.4438 7.2194 4.9435 14.36 7.4785 21.449l-2.2598-6.1875h-370l12.707 24.699 366.21-0.29883-0.23633-0.65039c1.4134 3.7773 2.8361 7.5405 4.2754 11.275 202.05 4.9742 319.66 193.07 296.89 394.81 11.2 7.6075 22.842 15.12 34.775 22.375-6.5059-9.679-6.5121-16.274 2.0176-18.82 2.2283-17.597 3.3633-35.431 3.3633-53.391 0-5.3582-0.1017-10.704-0.3027-16.037-13.439-10.034-11.804-19.084-1.9395-27.594-2.5698-24.912-7.3261-49.394-14.146-73.135-18.283-13.575-11.454-18.32-7.7441-24.162-8.2138-23.168-18.448-45.491-30.582-66.658-8.3662-4.1011-14.681-8.7163-9.7657-16.145-12.678-19.88-27.105-38.604-43.174-55.892-5.1036-5.4909-10.342-10.805-15.707-15.936-3.9753-2.3756-8.0992-4.4442-10.641-9.793-23.462-20.774-49.104-38.225-76.285-52.068l-5.5644-2.7734c-27.634-13.472-56.792-23.251-86.816-29.045l-12.717-2.207c-13.146-2.0279-26.437-3.2945-39.834-3.8164zm259.01 8.832c0.9989 1.546 2.0064 3.0883 3.0274 4.623-1.0226-1.5344-2.027-3.0781-3.0274-4.623zm-536.11 50.332c-13.902 0-27.802 8.5982-10.605 25.795-34.393-34.393-34.393 55.606 0 21.213-34.393 34.393 55.606 34.393 21.213 0 26.217 26.218 32.801-20.199 18.947-28.246-4.3203-2.5094-10.627-1.2869-18.947 7.0332 17.197-17.197 3.2942-25.795-10.607-25.795zm88.131 0c-13.902 0-27.802 8.5982-10.605 25.795-34.393-34.393-34.393 55.606 0 21.213-34.393 34.393 55.606 34.393 21.213 0 26.217 26.218 32.803-20.199 18.949-28.246-4.3203-2.5094-10.629-1.2869-18.949 7.0332 17.197-17.197 3.2942-25.795-10.607-25.795zm227.35 41.049 17.113 35.029c102.38 30.854 178.31 129.82 182.9 248.61l27.856 24.229c0.166-4.2507 0.25-8.5238 0.25-12.818 0-147.05-98.337-269.39-228.12-295.05z" fill="#fc4"/>
</g>
<g transform="matrix(-.12677 0 0 -.1304 45.201 93.27)">
<path d="m1220 34.26c-31.411 0-56.875 47.01-56.875 105 0.016 40.087 12.395 76.66 31.904 94.26l-45.74 45.74 45.775 45.775c-19.517 17.576-31.909 54.135-31.94 94.225 0 33.251 8.3726 62.892 21.438 82.131 0.9359 3.7778 47.697 25.613 51.822 18.447 23.424-12.987 40.49-53.103 40.49-100.58-0.0164-40.087-12.395-76.66-31.904-94.26l45.74-45.74-45.775-45.775c19.517-17.576 31.909-54.135 31.94-94.225 0-57.99-25.464-105-56.875-105zm0 45c17.949 0 32.5 26.863 32.5 60s-14.551 60-32.5 60-32.5-26.863-32.5-60 14.551-60 32.5-60zm-525.99 89.875c-63.888 6.439-127.84 16.954-191.06 30.264 17.516 63.191-52.031 103.21-42.982 175.6 1.8183 14.546 11.572 23.142 23.318 26.568-3.2542 26.675-20.68 58.987-43.074 53.242 7.5687 0.24094 14.737-4.7622 14.756-14.811 0.0457-25-50-40.227-50 15 0 26.45 31.971 41.442 60.645 32.246-5.2102 1.7975-10.493 2.9404-15.67 3.6309l0.0781 267.12c-10.435-10.949-26.729-18.002-45.053-18.002-31.5 0-57.035 20.819-57.035 46.5 1e-3 1.0343 0.0459 2.0678 0.13282 3.0996h-0.13282l-0.041 7.125c24.462 30.001 46.929 62.78 67.725 98.105l334.15 0.16992 0.20508-74.244h-0.15039c0.0834-0.72647 0.13377-1.4547 0.15039-2.1836 1e-5 -18.09-20.147-32.756-45-32.756-9.3762 0.59726-16.979 2.6319-23.643 5.9238 5.9073-2.95 12.529-4.9392 20.475-5.8047l10.533-15.461 64.762 44.113 10.307-14.789-64.469-44.322-6.7461 9.3418 125.96-184.88 64.361 44.25 9.8125-15.131-63.992-43.994-3.3027 4.7793 51.697-75.883 64.342 44.234 10.621-14.572-57.68-39.656-8.0391 1.0371-8.7461 8.2266 3.9922-5.8594c-3.7831 1.6546-8.8632 2.6328-15.246 2.6328-25 0-55-5-75-5-9.7473 0-27.808-5.939-44.799-11.939-10.374 3.4499-27.352 8.727-40.201 11.939-17.632 4.408-50.808-10.615-58.533-14.361-10.537 15.724-24.314 25.315-38.316 29.898 26.181-8.6569 51.552-34.883 56.256-86.09 24.739-5.4887 45.594-23.155 45.594-44.447 0-55.227-55-45-55-10 0 9.5401 3.4117 14.963 8.1035 17.482-80.306-31.389 38.064-123.36 5.9375-208.35zm525.99 80.836 29.289 29.289-29.289 29.289-29.289-29.289zm0 109.29c17.949 0 32.5 26.863 32.5 60s-14.551 60-32.5 60-32.5-26.863-32.5-60 14.551-60 32.5-60zm-734.62 116.87c0.0199 0.1606 0.0469 0.31527 0.0684 0.47461-0.0144-0.1039-0.0332-0.20416-0.0469-0.30859-0.3811 0.24777-0.76543 0.51244-1.1504 0.77929 0.37815-0.31113 0.75592-0.62208 1.1289-0.94531zm-5.5781 4.2578 0.17188 34.617h380l-199.96 287.21-0.04297 6.4883v-9.3125h-0.1582c0.088-0.93551 0.14068-1.8719 0.1582-2.8105 1e-5 -23.296-21.266-42.182-47.5-42.182-24 0-43.843 15.807-47.305 34.867-1.5712-25.298-24.09-44.266-51.678-44.266-17.981 0-33.796 8.0633-43.002 20.223 2.6239-3.4914 5.7763-6.6726 9.3906-9.4414l-0.11328-275.38c0.0117-8e-3 0.0235-0.0156 0.0351-0.0234zm93.699 3.8984c0.14529 0.26042 0.3062 0.51164 0.45899 0.76758-0.10849-0.17778-0.22126-0.35324-0.32617-0.53321-15.416 16.862-37.059 24.866-55.102 23.094 18.021 1.7151 39.625-6.3495 54.969-23.328zm407.19 32.014-230.71 338.71v40l175.37-257.9-117.82 173.64c36.997 2.2175 73.31 9.251 108.23 20.754-34.921-11.474-71.255-18.488-108.29-20.67l-19.682 28.854c62.063 1.184 122.67 16.544 177.82 44.676l6.4766 3.377c41.326 22.005 79.452 51.257 112.67 86.998 80.183 86.267 125.23 203.27 125.23 325.27 0 34.756-3.6557 69.106-10.85 102.48 8.2799 4.2883 16.801 8.4473 25.652 12.512 8.6624-37.515 13.082-75.735 13.082-114.99 0-98.303-27.457-193.56-77.514-273.69-0.3615-0.2659-0.721-0.5392-1.082-0.8066 42.156 31.268 89.847 55.215 140.71 70.936v-196.93c-51.712-25.693-109.97-86.673-101.29-151.57-35.121-24.628-71.449-48.975-108.84-72.967 74.94 48.014 145.35 97.111 210.13 146.24v-112.77c-104.61-68.651-200.64-128.4-299.56-181.97l-0.076 0.11328zm-645.71 3.7051-20 8.4805v229.73l20 22.578zm55 18.598c-13.902 0-27.804 8.5982-10.607 25.795-34.393-34.393-34.393 55.608 0 21.215-34.393 34.393 55.608 34.393 21.215 0 26.217 26.217 32.801-20.199 18.947-28.246-4.3203-2.5094-10.627-1.2889-18.947 7.0312 17.197-17.197 3.2942-25.795-10.607-25.795zm90 31.402v25h324.06l15.941-25zm518.95 48.588c0.2944 0.17653 0.58463 0.35467 0.87891 0.53125-0.29364-0.17612-0.58516-0.35323-0.87891-0.5293zm-609.55 34.404c-13.902 0-27.802 8.5982-10.605 25.795-34.393-34.393-34.393 55.606 0 21.213-34.393 34.393 55.606 34.393 21.213 0 26.217 26.217 32.803-20.199 18.949-28.246-4.3203-2.5094-10.629-1.2869-18.949 7.0332 17.197-17.197 3.2942-25.795-10.607-25.795zm398.22 7.2422-10.24 14.834 64.652 44.449 10.238-14.836zm-317.4 105.4c-0.20747 0.28063-0.4109 0.56283-0.61133 0.84766 0.19946-0.28501 0.40492-0.56658 0.61133-0.84766zm-8.2715 23.836c0.0227 0.12092 0.0553 0.23109 0.0957 0.32617v6e-3c-0.0415-0.0963-0.0726-0.20892-0.0957-0.33203zm218.41 2.7871c-0.48371 0.25169-0.96319 0.51022-1.4375 0.77539 0.47334-0.26674 0.95499-0.52188 1.4375-0.77539zm337.21 51.076c0.3141 0.79139 0.632 1.5815 0.9512 2.3711-0.319-0.78974-0.6372-1.5795-0.9512-2.3711zm3.0821 7.5332c0.3083 0.73287 0.611 1.468 0.9238 2.1992-0.3126-0.73147-0.6156-1.4661-0.9238-2.1992zm3.6816 8.4942c0.5139 1.1462 1.0395 2.2877 1.5645 3.4297-0.5245-1.142-1.0511-2.2834-1.5645-3.4297zm3.0879 6.707c0.597 1.2684 1.1941 2.5359 1.8047 3.7988-0.6101-1.263-1.2083-2.5304-1.8047-3.7988zm2.7324 5.6836c1.3209 2.6959 2.6697 5.3807 4.0528 8.0508-1.3822-2.6705-2.7328-5.3541-4.0528-8.0508zm5.0293 9.9297c0.8177 1.5586 1.6417 3.1146 2.4805 4.6641-0.8383-1.5495-1.6633-3.1052-2.4805-4.6641zm2.7715 5.1914c1.8882 3.4754 3.8264 6.9298 5.8203 10.357 3.0941 5.3189 6.3144 10.578 9.6602 15.775-2.8443-4.4084-5.6065-8.8546-8.2617-13.348-0.4756-0.80484-0.9288-1.6201-1.3985-2.4277-1.9936-3.428-3.9326-6.8808-5.8203-10.357zm-243.16 17.867c2.4438 7.2194 4.9435 14.36 7.4785 21.449l-2.2598-6.1875h-370l12.707 24.699 366.21-0.29883-0.23633-0.65039c1.4134 3.7773 2.8361 7.5405 4.2754 11.275 202.05 4.9742 319.66 193.07 296.89 394.81 11.2 7.6075 22.842 15.12 34.775 22.375-6.5059-9.679-6.5121-16.274 2.0176-18.82 2.2283-17.597 3.3633-35.431 3.3633-53.391 0-5.3582-0.1017-10.704-0.3027-16.037-13.439-10.034-11.804-19.084-1.9395-27.594-2.5698-24.912-7.3261-49.394-14.146-73.135-18.283-13.575-11.454-18.32-7.7441-24.162-8.2138-23.168-18.448-45.491-30.582-66.658-8.3662-4.1011-14.681-8.7163-9.7657-16.145-12.678-19.88-27.105-38.604-43.174-55.892-5.1036-5.4909-10.342-10.805-15.707-15.936-3.9753-2.3756-8.0992-4.4442-10.641-9.793-23.462-20.774-49.104-38.225-76.285-52.068l-5.5644-2.7734c-27.634-13.472-56.792-23.251-86.816-29.045l-12.717-2.207c-13.146-2.0279-26.437-3.2945-39.834-3.8164zm259.01 8.832c0.9989 1.546 2.0064 3.0883 3.0274 4.623-1.0226-1.5344-2.027-3.0781-3.0274-4.623zm-536.11 50.332c-13.902 0-27.802 8.5982-10.605 25.795-34.393-34.393-34.393 55.606 0 21.213-34.393 34.393 55.606 34.393 21.213 0 26.217 26.218 32.801-20.199 18.947-28.246-4.3203-2.5094-10.627-1.2869-18.947 7.0332 17.197-17.197 3.2942-25.795-10.607-25.795zm88.131 0c-13.902 0-27.802 8.5982-10.605 25.795-34.393-34.393-34.393 55.606 0 21.213-34.393 34.393 55.606 34.393 21.213 0 26.217 26.218 32.803-20.199 18.949-28.246-4.3203-2.5094-10.629-1.2869-18.949 7.0332 17.197-17.197 3.2942-25.795-10.607-25.795zm227.35 41.049 17.113 35.029c102.38 30.854 178.31 129.82 182.9 248.61l27.856 24.229c0.166-4.2507 0.25-8.5238 0.25-12.818 0-147.05-98.337-269.39-228.12-295.05z" fill="#fc4"/>
</g>
<g transform="matrix(.12677 0 0 .1304 -119.6 -167.53)">
<path d="m339.99 0c47.44 47.6 100.55 102.81 140.34 165.77 119.76-48.484 358.76-76.598 478.27-25.84 42.552-50.599 93.847-96.335 148.71-139.93zm880.04 79.26a32.5 60 0 0 0-32.5 60 32.5 60 0 0 0 32.5 60 32.5 60 0 0 0 32.5-60 32.5 60 0 0 0-32.5-60zm0 170.71-29.289 29.289 29.289 29.289 29.289-29.289zm0 109.29a32.5 60 0 0 0-32.5 60 32.5 60 0 0 0 32.5 60 32.5 60 0 0 0 32.5-60 32.5 60 0 0 0-32.5-60zm-231.07 184.3-20.252 29.541c120.63 70.147 232.41 144.67 331.29 219.34v-47.484c-93.594-69.531-198.44-135.48-311.04-201.4zm-708.95 1.6387c-47.874 23.233-95.508 47.342-142.25 72.621 53.195 30.118 100.36 65.097 142.42 105.29zm110.21 14.801a15 15 0 0 0-10.826 4.3906 15 15 0 0 0 0 21.215 15 15 0 0 0 21.215 0 15 15 0 0 0 0-21.215 15 15 0 0 0-10.389-4.3906zm89.781 75.209 0.34961 120.24c9.2584-6.5767 20.694-10.455 33.168-10.455 27.587 0 50.107 18.968 51.678 44.266 3.4621-19.06 23.305-34.867 47.305-34.867 26.234 0 47.5 18.886 47.5 42.182-0.0175 0.93864-0.0702 1.875-0.1582 2.8105h0.1582l0.043 2.9688 115.78-166.95zm-90.387 39.184a15 15 0 0 0-10.826 4.3926 15 15 0 0 0 0 21.213 15 15 0 0 0 21.213 0 15 15 0 0 0 0-21.213 15 15 0 0 0-10.387-4.3926zm887.9 130.15c-11.905 22.593 8.8818 47.772 22.49 59.201v-42.523c-7.3359-5.5574-14.753-11.115-22.49-16.678zm-468.6 139.85c0.0754 0.20121 0.15304 0.39852 0.22851 0.59961h0.38282zm-157.63 0.12891-207.93 0.4707-0.64258-0.30078c17.481 34.53 33.433 71.124 47.986 109.85l-0.2168 0.4531h160.9zm161.66 10.471 20.225 49.951c129.78 25.661 228.12 148 228.12 295.05 0 4.2946-0.084 8.5677-0.25 12.818l48.965 37.182c22.608-201.9-94.999-390-297.06-395zm-295.26 8.9023c13.902 0 27.804 8.5982 10.607 25.795 8.3201-8.3201 14.627-9.5426 18.947-7.0332 13.854 8.0467 7.2702 54.464-18.947 28.246 34.393 34.393-55.606 34.393-21.213 0-34.393 34.393-34.393-55.606 0-21.213-17.197-17.197-3.2962-25.795 10.605-25.795zm-10.605 25.795a15 15 0 0 0 0 21.213 15 15 0 0 0 21.213 0 15 15 0 0 0 0-21.213 15 15 0 0 0-21.213 0zm98.736-25.795c13.902 0 27.804 8.5982 10.607 25.795 8.3201-8.3201 14.629-9.5426 18.949-7.0332 13.854 8.0467 7.2682 54.464-18.949 28.246 34.393 34.393-55.606 34.393-21.213 0-34.393 34.393-34.393-55.606 0-21.213-17.197-17.197-3.2962-25.795 10.605-25.795zm-10.605 25.795a15 15 0 0 0 0 21.213 15 15 0 0 0 21.213 0 15 15 0 0 0 0-21.213 15 15 0 0 0-21.213 0zm254.88 50.475c47.763 99.005 107.68 181.41 182.8 248.65-4.2979-119.02-80.226-217.99-182.8-248.65zm360.39 18.264c35.988 73.868 55.295 156.65 55.295 241.56 0 43.186-4.9929 85.818-14.438 127.03 15.9 6.7874 32.086 13.22 48.67 19.332v-349.93c-31.215-9.6475-61.238-22.384-89.527-37.994z" fill="#f00"/>
</g>
<g transform="matrix(-.12677 0 0 -.1304 45.201 93.27)">
<path d="m339.99 0c47.44 47.6 100.55 102.81 140.34 165.77 119.76-48.484 358.76-76.598 478.27-25.84 42.552-50.599 93.847-96.335 148.71-139.93zm880.04 79.26a32.5 60 0 0 0-32.5 60 32.5 60 0 0 0 32.5 60 32.5 60 0 0 0 32.5-60 32.5 60 0 0 0-32.5-60zm0 170.71-29.289 29.289 29.289 29.289 29.289-29.289zm0 109.29a32.5 60 0 0 0-32.5 60 32.5 60 0 0 0 32.5 60 32.5 60 0 0 0 32.5-60 32.5 60 0 0 0-32.5-60zm-231.07 184.3-20.252 29.541c120.63 70.147 232.41 144.67 331.29 219.34v-47.484c-93.594-69.531-198.44-135.48-311.04-201.4zm-708.95 1.6387c-47.874 23.233-95.508 47.342-142.25 72.621 53.195 30.118 100.36 65.097 142.42 105.29zm110.21 14.801a15 15 0 0 0-10.826 4.3906 15 15 0 0 0 0 21.215 15 15 0 0 0 21.215 0 15 15 0 0 0 0-21.215 15 15 0 0 0-10.389-4.3906zm89.781 75.209 0.34961 120.24c9.2584-6.5767 20.694-10.455 33.168-10.455 27.587 0 50.107 18.968 51.678 44.266 3.4621-19.06 23.305-34.867 47.305-34.867 26.234 0 47.5 18.886 47.5 42.182-0.0175 0.93864-0.0702 1.875-0.1582 2.8105h0.1582l0.043 2.9688 115.78-166.95zm-90.387 39.184a15 15 0 0 0-10.826 4.3926 15 15 0 0 0 0 21.213 15 15 0 0 0 21.213 0 15 15 0 0 0 0-21.213 15 15 0 0 0-10.387-4.3926zm887.9 130.15c-11.905 22.593 8.8818 47.772 22.49 59.201v-42.523c-7.3359-5.5574-14.753-11.115-22.49-16.678zm-468.6 139.85c0.0754 0.20121 0.15304 0.39852 0.22851 0.59961h0.38282zm-157.63 0.12891-207.93 0.4707-0.64258-0.30078c17.481 34.53 33.433 71.124 47.986 109.85l-0.2168 0.4531h160.9zm161.66 10.471 20.225 49.951c129.78 25.661 228.12 148 228.12 295.05 0 4.2946-0.084 8.5677-0.25 12.818l48.965 37.182c22.608-201.9-94.999-390-297.06-395zm-295.26 8.9023c13.902 0 27.804 8.5982 10.607 25.795 8.3201-8.3201 14.627-9.5426 18.947-7.0332 13.854 8.0467 7.2702 54.464-18.947 28.246 34.393 34.393-55.606 34.393-21.213 0-34.393 34.393-34.393-55.606 0-21.213-17.197-17.197-3.2962-25.795 10.605-25.795zm-10.605 25.795a15 15 0 0 0 0 21.213 15 15 0 0 0 21.213 0 15 15 0 0 0 0-21.213 15 15 0 0 0-21.213 0zm98.736-25.795c13.902 0 27.804 8.5982 10.607 25.795 8.3201-8.3201 14.629-9.5426 18.949-7.0332 13.854 8.0467 7.2682 54.464-18.949 28.246 34.393 34.393-55.606 34.393-21.213 0-34.393 34.393-34.393-55.606 0-21.213-17.197-17.197-3.2962-25.795 10.605-25.795zm-10.605 25.795a15 15 0 0 0 0 21.213 15 15 0 0 0 21.213 0 15 15 0 0 0 0-21.213 15 15 0 0 0-21.213 0zm254.88 50.475c47.763 99.005 107.68 181.41 182.8 248.65-4.2979-119.02-80.226-217.99-182.8-248.65zm360.39 18.264c35.988 73.868 55.295 156.65 55.295 241.56 0 43.186-4.9929 85.818-14.438 127.03 15.9 6.7874 32.086 13.22 48.67 19.332v-349.93c-31.215-9.6475-61.238-22.384-89.527-37.994z" fill="#f00"/>
</g>
<g transform="matrix(.12677 0 0 .1304 -119.6 -167.53)">
<path d="m515 515v55h55v-55zm27.5 10a17.5 17.5 0 0 1 17.5 17.5 17.5 17.5 0 0 1-17.5 17.5 17.5 17.5 0 0 1-17.5-17.5 17.5 17.5 0 0 1 17.5-17.5zm92.5-10v55h55v-55zm27.5 10a17.5 17.5 0 0 1 17.5 17.5 17.5 17.5 0 0 1-17.5 17.5 17.5 17.5 0 0 1-17.5-17.5 17.5 17.5 0 0 1 17.5-17.5zm92.5-10v55h55v-55zm27.5 10a17.5 17.5 0 0 1 17.5 17.5 17.5 17.5 0 0 1-17.5 17.5 17.5 17.5 0 0 1-17.5-17.5 17.5 17.5 0 0 1 17.5-17.5zm-270 245a37.5 37.5 0 0 0-37.5 37.5 37.5 37.5 0 0 0 0.0879 2.5h-0.0879v85h75v-85h-0.125a37.5 37.5 0 0 0 0.125-2.5 37.5 37.5 0 0 0-37.5-37.5zm-107.96 0c-20.711 0-37.5 16.789-37.5 37.5 1e-3 0.83408 0.0308 1.6679 0.0879 2.5h-0.0879v12.25l48.399 72.75h26.601v-85h-0.125c0.0695-0.83171 0.11117-1.6655 0.125-2.5 0-20.711-16.789-37.5-37.5-37.5zm208.03 17.857a32.438 32.143 0 0 0-32.438 32.143 32.438 32.143 0 0 0 0.076 2.1429h-0.076v72.857h64.875v-72.857h-0.10812a32.438 32.143 0 0 0 0.10812-2.1429 32.438 32.143 0 0 0-32.438-32.143zm90 22.143a27.438 25.929 0 0 0-27.438 25.929 27.438 25.929 0 0 0 0.0643 1.7286h-0.0643v58.771h54.875v-58.771h-0.0915a27.438 25.929 0 0 0 0.0915-1.7286 27.438 25.929 0 0 0-27.438-25.929zm308.25-253.6-18.305 30.584 34.25 20.664 18.201-30.412zm63.314 38.625-17.896 29.902 33.609 21.732 18.305-30.584zm63.057 39.055-18.586 31.053 33.148 22.504 19.252-32.166zm62.393 40.164-19.252 32.164 32.434 23.697 19.941-33.316zm61.088 42.342-19.557 32.678 32.56 23.484 19.609-32.764zm-409.55 31.354 23.882 17.058c50 35 90-35 50-70l-26.957-17.971zm48.882-27.942c8.2843 0 15 6.7157 15 15s-6.7157 15-15 15-15-6.7157-15-15 6.7157-15 15-15zm98.39-101.74-42.328-24.751-36.535 51.871 20.473 14.623c20.554 14.388 39.417 11.032 51.729-0.34135zm-33.39-3.2564c8.2843 0 15 6.7157 15 15s-6.7157 15-15 15-15-6.7157-15-15 6.7157-15 15-15zm-155 195 55.745 7.9354c-1.5989-10.027-6.5653-19.903-15.745-27.935l-19.349-12.899zm183.34-60.138-58.954 88.209c39.148 14.882 76.532 35.642 110.85 61.702-27.363-46.311-45.1-97.165-51.896-149.91zm-68.336-354.86s-15-5-20-5-10 15-20 15-10 5-10 5c-0.61904 0.31621 22.903 3.6253 30-5 3.177-3.861 20.184-2.235 20.184-2.235m-75.184-7.765c15 0 35.006-26.643 45-27l25-1-4 8s-13 2-18 2-23 23-33 23-15-5-15-5zm62-43c26.021-3.8594 44.26-17.774 28-17-21 1-29 11-33 16m2-154-8 8s-31-12-48-10c-16.167 1.902-78 33-78 33 14-18 87-62 134-31zm-38 50.5a8 17.5 0 0 1-8 17.5 8 17.5 0 0 1-8-17.5 8 17.5 0 0 1 8-17.5 8 17.5 0 0 1 8 17.5" fill="#44f"/>
</g>
<g transform="matrix(-.12677 0 0 -.1304 45.201 93.27)">
<path d="m515 515v55h55v-55zm27.5 10a17.5 17.5 0 0 1 17.5 17.5 17.5 17.5 0 0 1-17.5 17.5 17.5 17.5 0 0 1-17.5-17.5 17.5 17.5 0 0 1 17.5-17.5zm92.5-10v55h55v-55zm27.5 10a17.5 17.5 0 0 1 17.5 17.5 17.5 17.5 0 0 1-17.5 17.5 17.5 17.5 0 0 1-17.5-17.5 17.5 17.5 0 0 1 17.5-17.5zm92.5-10v55h55v-55zm27.5 10a17.5 17.5 0 0 1 17.5 17.5 17.5 17.5 0 0 1-17.5 17.5 17.5 17.5 0 0 1-17.5-17.5 17.5 17.5 0 0 1 17.5-17.5zm-270 245a37.5 37.5 0 0 0-37.5 37.5 37.5 37.5 0 0 0 0.0879 2.5h-0.0879v85h75v-85h-0.125a37.5 37.5 0 0 0 0.125-2.5 37.5 37.5 0 0 0-37.5-37.5zm-107.96 0c-20.711 0-37.5 16.789-37.5 37.5 1e-3 0.83408 0.0308 1.6679 0.0879 2.5h-0.0879v12.25l48.399 72.75h26.601v-85h-0.125c0.0695-0.83171 0.11117-1.6655 0.125-2.5 0-20.711-16.789-37.5-37.5-37.5zm208.03 17.857a32.438 32.143 0 0 0-32.438 32.143 32.438 32.143 0 0 0 0.076 2.1429h-0.076v72.857h64.875v-72.857h-0.10812a32.438 32.143 0 0 0 0.10812-2.1429 32.438 32.143 0 0 0-32.438-32.143zm90 22.143a27.438 25.929 0 0 0-27.438 25.929 27.438 25.929 0 0 0 0.0643 1.7286h-0.0643v58.771h54.875v-58.771h-0.0915a27.438 25.929 0 0 0 0.0915-1.7286 27.438 25.929 0 0 0-27.438-25.929zm308.25-253.6-18.305 30.584 34.25 20.664 18.201-30.412zm63.314 38.625-17.896 29.902 33.609 21.732 18.305-30.584zm63.057 39.055-18.586 31.053 33.148 22.504 19.252-32.166zm62.393 40.164-19.252 32.164 32.434 23.697 19.941-33.316zm61.088 42.342-19.557 32.678 32.56 23.484 19.609-32.764zm-409.55 31.354 23.882 17.058c50 35 90-35 50-70l-26.957-17.971zm48.882-27.942c8.2843 0 15 6.7157 15 15s-6.7157 15-15 15-15-6.7157-15-15 6.7157-15 15-15zm98.39-101.74-42.328-24.751-36.535 51.871 20.473 14.623c20.554 14.388 39.417 11.032 51.729-0.34135zm-33.39-3.2564c8.2843 0 15 6.7157 15 15s-6.7157 15-15 15-15-6.7157-15-15 6.7157-15 15-15zm-155 195 55.745 7.9354c-1.5989-10.027-6.5653-19.903-15.745-27.935l-19.349-12.899zm183.34-60.138-58.954 88.209c39.148 14.882 76.532 35.642 110.85 61.702-27.363-46.311-45.1-97.165-51.896-149.91zm-68.336-354.86s-15-5-20-5-10 15-20 15-10 5-10 5c-0.61904 0.31621 22.903 3.6253 30-5 3.177-3.861 20.184-2.235 20.184-2.235m-75.184-7.765c15 0 35.006-26.643 45-27l25-1-4 8s-13 2-18 2-23 23-33 23-15-5-15-5zm62-43c26.021-3.8594 44.26-17.774 28-17-21 1-29 11-33 16m2-154-8 8s-31-12-48-10c-16.167 1.902-78 33-78 33 14-18 87-62 134-31zm-38 50.5a8 17.5 0 0 1-8 17.5 8 17.5 0 0 1-8-17.5 8 17.5 0 0 1 8-17.5 8 17.5 0 0 1 8 17.5" fill="#44f"/>
</g>
<g transform="matrix(.12677 0 0 .1304 -119.6 -167.53)">
<path d="m280 545 35-16.519v229.55l-34.825-34.919zm150.21 375-15.213-25h376.46l8.5883 25zm49.787-325h324.06l-28.447 40h-295.61zm744.88 820.02c8.5865-37.55 13.006-75.771 13.006-115.02 0-98.303-27.456-193.56-77.682-273.82 16.515 12.176 33.745 23.163 50.964 32.635 35.295 73.487 54.602 156.26 54.602 241.18 0 43.186-4.9932 85.818-15.428 126.6-9.1746-4.0236-17.438-7.7427-25.462-11.58zm-269.57-568.37 29.689-46.655c5.5337 23.766 11.843 47.199 18.271 70.58m-522.79-704.58c6.981 11.235 13.505 22.497 19.515 33.996 143.73-30.414 291.69-46.681 435-30 7.4786-10.101 15.302-19.991 23.62-30.093-119.52-50.739-358.53-22.626-478.13 26.097z"/>
</g>
<g transform="matrix(-.12677 0 0 -.1304 45.201 93.27)">
<path d="m280 545 35-16.519v229.55l-34.825-34.919zm150.21 375-15.213-25h376.46l8.5883 25zm49.787-325h324.06l-28.447 40h-295.61zm744.88 820.02c8.5865-37.55 13.006-75.771 13.006-115.02 0-98.303-27.456-193.56-77.682-273.82 16.515 12.176 33.745 23.163 50.964 32.635 35.295 73.487 54.602 156.26 54.602 241.18 0 43.186-4.9932 85.818-15.428 126.6-9.1746-4.0236-17.438-7.7427-25.462-11.58zm-269.57-568.37 29.689-46.655c5.5337 23.766 11.843 47.199 18.271 70.58m-522.79-704.58c6.981 11.235 13.505 22.497 19.515 33.996 143.73-30.414 291.69-46.681 435-30 7.4786-10.101 15.302-19.991 23.62-30.093-119.52-50.739-358.53-22.626-478.13 26.097z"/>
</g>
<g transform="matrix(.12677 0 0 .1304 -119.6 -167.53)">
<path d="m1299.9 708.36c-134.67-88.378-255.09-161.95-386.24-226.56m-134.87 372.64c90.113 301.87 247.36 490.95 521.13 591.9m-508.46-551.34h-375.62m384.24 25h-369.87m378.08 25h-364.94m461.45-457.36-203.1 298.17m279.02-269.51c-76.614 113.24-154.47 225.65-230.84 339.05m-332.68-374.08c-94.149 42.491-187.73 87.113-279.98 136.69m197.79-97.837v260.67m115-288.91v266.33m-170-212.99v178.1m35-194.79v229.68m165-277.79v275.18m0-240.6h380l-199.91 287.68m-180.09-232.68h340.89m-340.89 25h324.06m-324.06 40h295.61m-375-70.607a15 15 0 0 1 0 21.213 15 15 0 0 1-21.213 0 15 15 0 0 1 0-21.213 15 15 0 0 1 21.213 0v0m0 0c8.3201-8.3201 14.628-9.5422 18.948-7.0329 13.854 8.0467 7.269 54.464-18.948 28.246 34.393 34.393-55.607 34.393-21.213 0-34.393 34.393-34.393-55.607 0-21.213-34.393-34.393 55.607-34.393 21.213 0v0m-0.6066 114.39a15 15 0 0 1 0 21.213 15 15 0 0 1-21.213 0 15 15 0 0 1 0-21.213 15 15 0 0 1 21.213 0v0m0 0c8.3201-8.3201 14.628-9.5422 18.948-7.0329 13.854 8.0467 7.269 54.464-18.948 28.246 34.393 34.393-55.607 34.393-21.213 0-34.393 34.393-34.393-55.607 0-21.213-34.393-34.393 55.607-34.393 21.213 0v0m-65-58.787h115m-115 20h115m-43.181 20h43.181m-115 0h36.841m52.83 20h25.33m-115 0h19.415m69.965 20h25.62m-115 0h19.86m51.233 20h43.907m-115 0h37.857m50.072-160h27.071m-115 0h22.327m69.085 20h23.588m-115 0h18.844m54.717 20h41.44m-115 0h36.26m4.9346-100h73.805m-117.08 20h117.08m-50.003 20h50.003m-115 0h44.968m-44.968 200h115m-115 20h22.617m-22.617 20h10.861m182.43 209.7a15 15 0 0 1 0 21.213 15 15 0 0 1-21.213 0 15 15 0 0 1 0-21.213 15 15 0 0 1 21.213 0v0m88.131 0a15 15 0 0 1 0 21.213 15 15 0 0 1-21.213 0 15 15 0 0 1 0-21.213 15 15 0 0 1 21.213 0v0m-88.131 0c8.3201-8.3201 14.628-9.5422 18.948-7.0329 13.854 8.0467 7.269 54.464-18.948 28.246 34.393 34.393-55.607 34.393-21.213 0-34.393 34.393-34.393-55.607 0-21.213-34.393-34.393 55.607-34.393 21.213 0v0m88.131 0c8.3201-8.3201 14.628-9.5422 18.948-7.0329 13.854 8.0467 7.269 54.464-18.948 28.246 34.393 34.393-55.607 34.393-21.213 0-34.393 34.393-34.393-55.607 0-21.213-34.393-34.393 55.607-34.393 21.213 0v0m133.58-94.697v-74.245h-0.15004c0.0834-0.72647 0.13342-1.4548 0.15004-2.1837 1e-5 -18.09-20.147-32.755-45-32.755-20.619 1.3134-32.663 9.5707-45 22.886v-9.3114h-0.15833c0.088-0.93551 0.14081-1.8734 0.15833-2.812 1e-5 -23.296-21.266-42.18-47.5-42.18-24 0-43.842 15.805-47.304 34.866-1.5712-25.298-24.09-44.265-51.678-44.265-28.433 0-51.482 20.147-51.482 44.8-0.33192-0.77011-0.017-2.5216 1e-5 -3.3 0-25.681-25.536-46.5-57.036-46.5-31.5 0-57.036 20.819-57.036 46.5 1e-3 1.0343 0.0468 2.0682 0.13369 3.1h-0.13369v7.6085m652.67-270.79-250.63 368.58m168.04-411.04 57.683 39.657m-198.35 151.45 64.654 44.449m-54.413-59.284 64.782 44.537m-10.283-124.88 64.429 44.295m-54.18-59.124 63.992 43.994m-15.758-115.21 64.502 44.345m-252.05 232.34 64.079 44.054m-54.163-59.112 64.741 44.509m168.36-206.48c125.65 72.812 241.83 150.24 344.01 227.75m-331.42-248.34c120.72 70.348 232.56 144.9 331.47 219.59m-311.34-248.72c112.82 65.736 217.73 131.71 311.36 201.28m-0.2326 257.84c-129.4-50.732-219.92-167.26-219.92-302.9 0-10.247 0.5166-20.385 1.5274-30.393m218.43 426.82c-65.948-20.389-126.57-54.605-176.69-100.68-85.329-78.436-133.27-184.82-133.27-295.74 0-27.631 2.9745-54.981 8.7605-81.686m301.17 360.38c-112.37-49.89-189.93-155.93-189.93-278.69 0-4.0108 0.083-8.0037 0.2469-11.977m189.69 272.35c-101.9-48.662-171.57-146.99-171.57-260.37m171.59 358.21c-57.894-18.849-111.09-48.937-155.48-88.738-79.703-71.468-124.48-168.4-124.48-269.47 0-21.892 2.1008-43.59 6.2022-64.877m5.1585 95.16c-0.9037-10.037-1.3607-20.139-1.3607-30.283 0-19.933 1.7646-39.703 5.2158-59.138m25.96 201.4c-15.198-33.322-25.059-68.626-29.097-104.85m90.139 197.73c-23.371-26.07-42.628-54.722-57.391-85.124m139.08 154.49c-18.526-11.92-36.048-25.27-52.353-39.969-7.0342-6.3413-13.79-12.887-20.26-19.621m152.66 99.877c-20.096-7.6283-39.527-16.685-58.102-27.098m-185.44-301.2c-0.272-5.4848-0.4088-10.986-0.4088-16.5 0-15.856 1.1087-31.476 3.2595-46.802m20.697 171.21c-9.8882-24.89-16.822-50.778-20.601-77.229m70.834 164.64c-13.523-17.358-25.32-35.699-35.287-54.801m108.73 126.48c-10.046-7.4963-19.73-15.459-29.01-23.871-0.98-0.88842-1.9544-1.7809-2.9233-2.6775m120.11 76.64c-7.0487-2.9381-14.006-6.0605-20.863-9.3639m-282.84-136.48c41.326 22.005 79.451 51.257 112.67 86.998 80.183 86.267 125.23 203.27 125.23 325.27 0 34.756-3.6559 69.106-10.738 102.46m-233.64-518.1c2.1678 1.1058 4.3272 2.2314 6.4779 3.3766m-184.35-47.697c62.115 0.82925 122.72 16.189 177.87 44.321m228.87 494.92c-0.4606 2.8069-0.9482 5.6104-1.4633 8.4109m4.9538-34.358c-0.33 3.1236-0.6912 6.2413-1.0841 9.3538m3.785-67.731c0.017 1.6811 0.026 3.3633 0.026 5.0464v0c0 12.671-0.4306 25.198-1.3302 37.618m0.5375-65.327c0.2323 4.0533 0.4138 8.1145 0.5443 12.183m-3.1848-42.029c0.6287 5.2465 1.1722 10.511 1.6295 15.791m-12.271-73.995c4.0148 16.224 7.1926 32.719 9.5052 49.411m-15.187-70.322c1.1727 3.9578 2.2949 7.9342 3.366 11.928m-11.897-37.935c1.415 3.9263 2.7789 7.8743 4.0913 11.843m-28.202-67.245c7.1784 13.941 13.658 28.272 19.415 42.93m-30.407-63.03c1.1168 1.9261 2.2198 3.8608 3.3087 5.8039m-18.369-29.998c2.1729 3.2575 4.3037 6.5438 6.3919 9.8579m-48.858-63.962c12.64 13.746 24.375 28.278 35.163 43.488m-50.706-59.543c1.5749 1.545 3.14 3.1041 4.695 4.6771m-23.156-21.756c1.8506 1.6136 3.6895 3.2453 5.5165 4.8948m-60.291-45.345c14.272 8.8325 28.084 18.588 41.358 29.23m-60.374-40.305c1.4402 0.78769 2.8763 1.5844 4.3082 2.3902m-25.475-13.176c1.406 0.66528 2.8087 1.3389 4.2079 2.0208m-73.854-27.381c17.617 4.6052 34.914 10.432 51.783 17.432m-73.577-22.471c2.775 0.55879 5.5433 1.1475 8.3046 1.7661m-33.768-6.0242c2.9607 0.395 5.9153 0.82381 8.8634 1.2862m-60.345-4.7062c11.823 0 23.593 0.53851 35.284 1.6029m373.68 446.02c0 0.7928 0.01 1.5858 0.01 2.3791 0 12.208-0.4715 24.363-1.4037 36.437m-0.8882-82.928c0.06 0.6049 0.1182 1.21 0.1756 1.8153m-11.052-66.069c3.423 14.159 6.1952 28.526 8.2969 43.048m-46.144-145.11c6.6538 12.956 12.691 26.256 18.091 39.847m-85.279-136.46c11.953 13.002 23.078 26.723 33.339 41.067m-120.56-113.29c13.859 8.5555 27.277 18 40.176 28.3m-146.23-73.984c16.858 4.4523 33.413 10.049 49.567 16.747m-149.04-29.425c0.66124-3e-3 1.3226-5e-3 1.9842-5e-3 11.359 0 22.67 0.50842 33.905 1.5136m365.76 435.51c0.01 0.991 0.01 1.9824 0.01 2.9742 0 12.546-0.5096 25.034-1.5164 37.435m-11.656-146.92c3.5692 14.583 6.4315 29.392 8.5642 44.37m-45.975-144.27c6.9108 13.338 13.151 27.052 18.698 41.082m-85.208-135.79c0.01 0.0112 0.021 0.0223 0.031 0.0335 12.593 13.549 24.26 27.909 34.955 42.966m-121.05-113.34c14.759 8.9658 29.015 18.958 42.671 29.934m-145.72-73.581c17.62 4.5605 34.906 10.399 51.741 17.463m-142.36-29.376c10.727 0.0825 21.407 0.6287 32.018 1.6283m352.64 422.41c0.026 1.9824 0.039 3.9664 0.039 5.9519 0 13.691-0.6258 27.312-1.8605 40.82m-11.912-150.99c4.2445 16.666 7.5338 33.648 9.8317 50.85m-47.036-147.39c7.9717 15.026 15.059 30.557 21.226 46.5m-87.587-138.68c1.2826 1.3422 2.5574 2.6949 3.8244 4.058 13.185 14.186 25.323 29.289 36.358 45.169m-125.12-116.56c17.312 10.137 33.938 21.714 49.717 34.659m-149.19-75.046c20.165 4.9263 39.898 11.573 59.014 19.859m-138.69-30.154c10.837 0.18423 21.623 0.85634 32.331 2.005m338.98 404.82c0.078 3.359 0.1164 6.7229 0.1164 10.091 0 15.302-0.8024 30.514-2.3823 45.572m-12.379-158.05c5.2225 19.497 9.0977 39.453 11.564 59.71m-48.927-153.18c9.511 17.397 17.793 35.514 24.786 54.194m-91.65-144.24c2.8391 2.871 5.6411 5.7934 8.4047 8.7667 14.192 15.269 27.138 31.628 38.766 48.895m-131.85-122.23c20.77 11.594 40.578 25.286 59.139 40.951m-155.62-77.969c23.806 5.3652 47.027 13.183 69.345 23.312m-138.13-31.833c11.691 0.28669 23.317 1.156 34.844 2.5927m323.8 387.47c0.201 5.3328 0.3021 10.68 0.3021 16.038 0 17.96-1.1356 35.793-3.3639 53.39m-13.024-170.16c6.8204 23.741 11.575 48.223 14.145 73.135m-52.471-163.96c12.134 21.168 22.367 43.49 30.581 66.658m-40.348-82.803c0.1493 0.2341 0.2983 0.4683 0.4471 0.7027m-59.328-72.529c5.3646 5.1308 10.603 10.444 15.706 15.934 16.069 17.288 30.496 36.012 43.174 55.892m-145.81-133.69c27.181 13.844 52.823 31.295 76.285 52.069m-81.85-54.842c1.8621 0.90777 3.7172 1.8323 5.5652 2.7735m-92.382-31.818c30.025 5.7939 59.182 15.573 86.816 29.045m-139.35-35.031c13.384 0.48371 26.676 1.7515 39.822 3.7794m-21.675 46.445c202.06 5 319.67 193.1 297.06 395m-276.83-345.05c129.78 25.661 228.12 148 228.12 295.05 0 4.2946-0.084 8.5681-0.25 12.819m-210.76-272.84c102.38 30.854 178.31 129.82 182.9 248.61m126.91-262.5c50.343 80.345 77.799 175.6 77.799 273.9 0 39.253-4.4197 77.474-12.884 115m-417.22-604.24c85.668 5.1325 167.9 36.182 237.42 89.013m165.26 158.69c35.998 73.843 55.305 156.62 55.305 241.54 0 43.186-4.9932 85.818-14.636 127m-66.133-272c1.5931 6.7172-11.273 15.52-28.738 19.663-17.465 4.1421-32.914 2.0546-34.507-4.6626-1.5931-6.7172 11.273-15.52 28.738-19.663s32.914-2.0546 34.507 4.6626v0m-60.902 8.6342c1.5986-6.5544 7.3813-15.459 15.902-23.634 12.952-12.426 27.327-18.462 32.106-13.48 3.5939 3.746 1.3195 12.074-5.825 21.547m7.1721 20.739c9.837 3.822 14.626 9.1352 13.808 13.872-1.1754 6.8028-16.466 9.8402-34.154 6.7843-14.641-2.5296-26.335-8.4415-29.261-14.262m81.154 89.799c0.388 6.8927-13.825 13.298-31.746 14.307-17.921 1.0088-32.763-3.7609-33.151-10.654-0.388-6.8926 13.825-13.298 31.746-14.307 17.921-1.0087 32.763 3.761 33.151 10.654v0m-61.472-2.2017c2.7254-6.1715 9.9829-13.922 19.808-20.472 14.934-9.9572 30.145-13.373 33.975-7.6286 2.8797 4.3192-0.8227 12.118-9.5205 20.188m3.4163 21.677c9.0123 5.4911 12.794 11.563 11.156 16.082-2.3525 6.4905-17.939 6.7937-34.814 0.6774-13.969-5.063-24.442-12.938-26.3-19.181m62.595 98.78c-1.3958 6.761-16.778 9.3-34.356 5.6709-17.578-3.6291-30.697-12.052-29.301-18.813 1.3958-6.7609 16.777-9.3 34.356-5.6709 17.578 3.6291 30.697 12.052 29.302 18.813v0m-58.843-17.92c4.2194-5.2642 13.224-10.89 24.402-14.696 16.991-5.7863 32.569-5.1792 34.795 1.3559 1.6734 4.914-3.9083 11.5-14.387 17.064m-48.786 11.226c-0.7085-1.6584-1.1009-3.2007-1.1414-4.5744m47.66 15.175c7.2991 7.6222 9.3936 14.462 6.6497 18.409m-54.192-348.96c3.7319 5.8079-5.4842 18.382-20.585 28.085-15.1 9.7029-30.367 12.86-34.099 7.0526-3.7319-5.8079 5.4841-18.382 20.585-28.085 15.101-9.703 30.367-12.861 34.099-7.0528v0m-54.586 28.355c-0.6671-6.7135 1.833-17.033 7.1583-27.572 8.0947-16.02 19.652-26.484 25.813-23.37 4.6333 2.3411 5.2515 10.952 1.6552 22.259m13.648 17.184c10.548 0.3411 16.829 3.7638 17.629 8.5036 1.1486 6.8074-12.268 14.747-29.967 17.734-14.651 2.4724-27.644 0.7759-32.336-3.7431m-24.015-134.35c4.6986 5.0578-2.1528 19.062-15.303 31.278-13.15 12.216-27.62 18.02-32.318 12.962-4.6987-5.0578 2.1527-19.061 15.303-31.278 13.15-12.217 27.62-18.02 32.319-12.962v0m-48.723 37.547c-1.8418-6.4903-1.2027-17.089 2.1782-28.403 5.1392-17.198 14.667-29.537 21.282-27.56 4.9738 1.4863 7.1025 9.8528 5.5589 21.617m16.467 14.504c10.442-1.5264 17.229 0.73357 18.853 5.2577 2.3324 6.4977-9.4717 16.681-26.366 22.746-13.984 5.02-27.072 5.6441-32.489 2.0244m-51.763-117.73c5.8008 3.7428 2.6145 19.004-7.1169 34.086-9.7314 15.082-22.323 24.275-28.124 20.532-5.8008-3.7428-2.6146-19.004 7.1168-34.086 9.7314-15.082 22.323-24.275 28.124-20.532v0m-37.958 48.403c-3.3855-5.8356-5.38-16.264-4.8936-28.063 0.73924-17.934 6.9301-32.242 13.828-31.958 5.1867 0.21383 9.313 7.797 10.718 19.578m19.536 9.9954c9.7435-4.0546 16.878-3.538 19.568 0.44576 3.8628 5.7218-5.0654 18.502-19.942 28.545-12.314 8.3138-24.844 12.146-30.986 9.9741m-86.497-93.96c6.7017 1.6569 8.6425 17.126 4.3346 34.55-4.3079 17.425-13.233 30.207-19.935 28.55-6.7017-1.6569-8.6425-17.125-4.3346-34.55 4.3078-17.425 13.233-30.207 19.935-28.55v0m-20.188 58.104c-5.0967-4.4204-10.369-13.637-13.739-24.954-5.1231-17.203-3.9126-32.745 2.7039-34.716 4.9752-1.4816 11.34 4.3512 16.494 15.038m21.723 3.1118c7.8994-6.9982 14.815-8.8258 18.653-5.931 5.5111 4.1578 1.2156 19.144-9.5945 33.473-8.9483 11.861-19.555 19.554-26.07 19.493m18.844 100.72 14.13-49.456m38.89 73.018 27.277-47.734m15.37 78.286 38.569-42.075m0.23159 82.579 46.158-31.956m-12.778 85.727 49.922-21.395m-28.928 78.493 51.747-10.349m-42.126 62.557h51.088m-282.65-275.98 47.183-31 38.939 72.845 81.216-11.523 0.23159 82.579 83.302 32.376-28.928 78.493 60.631 52.208-42.681 49.562m-256.05-364.56 49.257 57.306 80.297-24.172 15.37 78.286 84.959 8.548-12.778 85.727 72.358 46.824-41.744 62.481 51.462 54.437-16.398 15.709m-23.409-18.552 40.061 2.8615m152.62 108.35v-242.81m15 248.83v-238.83m15 244.99v-234.99m-240.23-358.93c36.785-10.586 25.203 47.882 76.035 16.617m-40.827-90.436c-56.952 26.845-5.2511 49.721-35.892 72.302m67.304 97.642c29.345-13.893 35.536 40.248 74.977-4.4232m-65.228-74.5c-45.772 40.184 4.0265 48.741-12.084 76.043m94.257 75.307c22.994-12.038 42.632 30.836 67.862-23.852m-83.347-52.623c-32.861 48.928 10.495 47.177 8.641 72.541m74.702-19.918c-18.662 48.534 6.5311 48.678 18.994 60.839m-278.25-320.95c40.802 0.46532 9.283 53.476 67.827 40.606m-9.6366-98.793c-62.251 7.2198-19.164 46.432-58.298 57.084m20.036-88.99c3.4238 15.26 1.4996 33.099 38.262 31.711m2.2252 59.849c-8.3633 2.374-16.843 4.5267-27.325 2.8675m10-25c0.5852 17.408 8.793 17.8 16.88 18.462m0.5059 6.5467c-7.6056 5.0299-16.194 11.522-17.386 19.991m41.529 63.177c-7.9017 5.1129-15.732 10.298-27.114 11.892m2.2677-26.83c6.1264 17.898 14.995 13.974 23.58 12.304m1.4609 5.2058c-6.0736 7.2438-13.324 16.539-11.906 25.531m67.74 58.067c-2.5972 8.2905-5.4457 16.557-12.574 24.409m-15.428-22.067c15.791 9.6064 20.261 1.5301 25.614-5.1668m4.8546 6.3573c0.1528 8.6384 1.2087 18.249 7.169 23.476m68.812 37.555c-2.2944 6.6645-5.2596 13.264-11.007 19.595m-15.428-22.067c12.148 7.3901 17.596 4.3154 21.9-0.54552m8.6915 5.3112c0.409 7.6033 1.8985 15.387 7.0459 19.901m24.975-191.57c-11.672 22.62 9.2337 47.843 22.858 59.259m-50.456-80.093c-44.63-8.5535-117.28-16.949-109.58-43.703 2.9782-8.9346 11.278-16.095 17.504-20.425m8.9002 46.626c-40.416 31.35-11.981 47.824 107.4 53.162m-93.66-9.9816c-27.583 58.676 44.248 32.392 96.167 23.126m-76.708 14.091c-13.217 54.272 30.455 34.159 84.751 0.15437m-63.832 32.548c7.836 58.415 38.304 28.026 73.489-20.866m-44.747 49.476c27.89 70.964 38.938 3.9002 50.734-37.555m-17.677 57.736c8.165 16.942 13.815 24.745 17.709 26.21m-406.25-154.4-1.4734 2.175m68.879-101.68-2.5462 3.7587m-53.245 98.362-6.753 9.9687m74.564-110.07-8.4227 12.433m-44.738 85.804-17.512 25.851m87.075-128.54-21.526 31.776m-26.259 58.525-28.606 42.228m77.166-113.91-26.448 39.043m-13.931-60.625c47.071 37.657-7.7785 124.06-56.084 104.85-3.0062-1.1953-5.987-2.7996-8.9163-4.8502m104.67-95.776c-12.719 5.1861-26.698 4.8541-39.667-4.2244m-65 100c10.822 8.6579 16.257 19.893 17.622 31.828m317.41-467.57c17.949 0 32.5 26.863 32.5 60s-14.551 60-32.5 60-32.5-26.863-32.5-60 14.551-60 32.5-60v0m0-109.29 29.289 29.289-29.289 29.289-29.289-29.289 29.289-29.289v0m0-170.71c17.949 0 32.5 26.863 32.5 60s-14.551 60-32.5 60-32.5-26.863-32.5-60 14.551-60 32.5-60v0m16.126 440.72c23.557-12.835 40.749-53.071 40.749-100.72-0.0164-40.087-12.395-76.66-31.904-94.26l45.74-45.74-45.775-45.775c19.517-17.576 31.909-54.135 31.94-94.225 0-57.99-25.464-105-56.875-105s-56.875 47.01-56.875 105c0.016 40.087 12.395 76.66 31.904 94.26l-45.74 45.74 45.775 45.775c-19.517 17.576-31.909 54.135-31.94 94.225 0 33.822 8.6621 63.909 22.114 83.113m-89.752 77.551c2.2181-13.415 11.2-39.855 19.484-44.924 9.5306-5.8321 45-35 60-35s30 20 60 20c25 0 20 20 0 20s-35-5-35-5c-15.017 16.853-25.13 15.341-35 20-10.111 4.7722 15-5 20 5 4.4145 8.8291-14.557 52.737-19.06 62.898m83.353-87.313c17.735 1.8041 30.707 7.5749 30.707 14.415 0 8.2843-19.028 15-42.5 15s-42.5-6.7157-42.5-15c0-4.9206 6.7131-9.2879 17.083-12.023m35.726 26.322c17.824-0.29572 31.385 3.9082 32.19 10.701 0.975 8.2267-17.13 17.135-40.439 19.898-23.309 2.7625-42.995-1.667-43.97-9.8937-0.5791-4.8864 9.4093-15.004 34.409-20.004m18.249 29.401c17.824-0.29572 31.385 3.9082 32.19 10.701 0.975 8.2267-17.13 17.135-40.439 19.898-23.309 2.7625-42.995-1.667-43.97-9.8937-0.5582-4.71 8.7018-14.28 31.76-19.443m19.522 29.435c15.641 1.6692 32.737 8.9061 32.688 15.611-0.059 8.121-16.901 14.811-37.619 14.943s-37.465-6.3451-37.407-14.466c0.034-4.6495 9.2039-12.955 29.968-15.453m-304.88-456.4c0.04862 25.776-10.023 49.912-9.0642 55.665 1.644 9.8639 49.733 90.172 52 105 4.1389 27.071-37.097 27.445-39 31-1.3349 2.4936 1 19 1 19 0 5-10 20-10 20s0 10 5 15-25 20-25 20 15 20 15 30-5 25-30 25-55-5-75-5-75-25-85-25m-58.418 10.766c7.6085 3.6189 40.785 18.642 58.418 14.234 12.85-3.2124 29.827-8.4887 40.324-11.851m154.68-78.149s-15-3-20-3-10 13-20 13-10 5-10 5c-0.61904 0.31621 22.903 3.6253 30-5 3.177-3.861 20.184-2.235 20.184-2.235m-75.184-7.765c15 0 35.006-26.643 45-27l25-1-4 8s-13 2-18 2-23 23-33 23-15-5-15-5v0m62-74c-15.119 0.10227-26.392 34.914 0 31 26.021-3.8594 44.26-17.774 28-17-21 1-29 11-33 16m2-154-8 8s-31-12-48-10c-16.167 1.902-78 33-78 33 14-18 87-62 134-31v0m-114 59c32 5 47-31 103-31m-68 22c-32 29 66 20 66 20m-393.08-67.562c17.581 63.151-51.965 103.17-42.917 175.56 5 40 70 35 70 0 0-25-30-20-30-5s10 20 10 20m13.082-194.77c19.867 64.441-51.42 104.55-42.266 177.78 2.3656 18.925 15.741 22.625 29.178 17.564m29.675-198.73c25.3 66.308-46.02 105.45-39.669 178.16m58.388-181.32c26.985 64.09-37.166 103.38-39.893 168.97m58.214-172.69c30.755 66.89-43.929 118.19-46.709 185.04m62.928-187.4c32.856 69.93-46.198 118.31-47.052 184.48-0.87646 67.914 74.124 52.914 74.124 17.914s-51.825-36.649-50-5 38.517 12.693 30 5m13.388-205.94c28.949 66.232-46.492 117.82-47.341 183.62-0.20118 15.589 3.8497 25.987 10.211 32.334m57.975-218.9c25.537 63.44-43.112 119.56-48.86 181.86m34.673 27.205c30.415 55.867 114.95 27.7 114.95-15.17 0-55.227-55-45-55-10 0 34.65 45 15 25-5m-49.779-181.64c22.82 64.582-45.221 138.81-45.221 176.64 0 5.0925 1.283 9.8007 2.3004 14.215m62.044-193.27c25.243 64.013-45.535 127.15-39.344 189.06 5 50 80 42.131 80 15 0-10-10-20-10-20m-11.077-186.14c32.244 85.257-86.126 177.23-5.6545 208.71m-202.84 98.306c-31.085 27.17-80.427 11.984-80.427-20.875 0-55.227 50.046-40 50-15-0.0376 20.557-30 20-30-5m84.928-34.41c0.92351 17.774-1.0296 32.522-4.9789 44.565m-9.5597-42.229c10.286 59.622-69.542 90.387-75.39 52.074-0.75438-4.9428 0-10 5-20m58.387-33.371c-3.3239 26.614-20.749 58.927-43.387 53.371m133.47 29.539c-31.208 34.33-88.47 31.919-88.47-14.539 0-30.414 50-35 50-10 0 30-30 20-30 10m86.762-56.231c1.2937 7.9347 1.6756 15.4 1.2851 22.382m-16.809-21.911c0.74166 13.434-0.26377 38.129-11.238 50.76-29.332 33.759-58.511 14.889-60 5-0.75959-5.0444 1.6666-7.2141 5-10m53.844-50.537c-5.943 44.407-17.429 71.915-38.678 69.66m27.832-80.489c-5.3402 22.708-11.041 44.185-17.997 61.366m11.472-83.3c-7.3676 23.266-17.816 49.939-27.696 67.154m170.61-29.462c-10.541 115.06-125.33 104.08-119.39 50.608 5-45 48.843-29.973 50-5 1.1845 25.561-30 25-30 5m84.251-48.742c-6.6817 41.859-47.137 95.079-75.457 62.598m59.84-63.75c-4.8155 30.364-15.689 53.831-42.588 59.055m27.323-65.18c-4.0788 23.445-14.001 38.516-23.646 50.383m9.7212-61.272c-1.9055 17.578-8.1516 33.697-15.081 48.143m-8.5142-37.785c2.1493 9.9888 1.7298 20.299 0.13958 30.755m-266.6-439.81c56.007 56.179 120.04 122.98 160.61 200.61 143.73-30.414 291.69-46.681 435-30 46.784-63.186 107.05-118.15 172.36-170.04m-626.92 165.83c119.65-48.512 358.66-76.625 478.36-26.286" fill="none" stroke="#44f" stroke-linecap="round" stroke-linejoin="round" stroke-width="6"/>
</g>
<g transform="matrix(-.12677 0 0 -.1304 45.201 93.27)">
<path d="m1299.9 708.36c-134.67-88.378-255.09-161.95-386.24-226.56m-134.87 372.64c90.113 301.87 247.36 490.95 521.13 591.9m-508.46-551.34h-375.62m384.24 25h-369.87m378.08 25h-364.94m461.45-457.36-203.1 298.17m279.02-269.51c-76.614 113.24-154.47 225.65-230.84 339.05m-332.68-374.08c-94.149 42.491-187.73 87.113-279.98 136.69m197.79-97.837v260.67m115-288.91v266.33m-170-212.99v178.1m35-194.79v229.68m165-277.79v275.18m0-240.6h380l-199.91 287.68m-180.09-232.68h340.89m-340.89 25h324.06m-324.06 40h295.61m-375-70.607a15 15 0 0 1 0 21.213 15 15 0 0 1-21.213 0 15 15 0 0 1 0-21.213 15 15 0 0 1 21.213 0v0m0 0c8.3201-8.3201 14.628-9.5422 18.948-7.0329 13.854 8.0467 7.269 54.464-18.948 28.246 34.393 34.393-55.607 34.393-21.213 0-34.393 34.393-34.393-55.607 0-21.213-34.393-34.393 55.607-34.393 21.213 0v0m-0.6066 114.39a15 15 0 0 1 0 21.213 15 15 0 0 1-21.213 0 15 15 0 0 1 0-21.213 15 15 0 0 1 21.213 0v0m0 0c8.3201-8.3201 14.628-9.5422 18.948-7.0329 13.854 8.0467 7.269 54.464-18.948 28.246 34.393 34.393-55.607 34.393-21.213 0-34.393 34.393-34.393-55.607 0-21.213-34.393-34.393 55.607-34.393 21.213 0v0m-65-58.787h115m-115 20h115m-43.181 20h43.181m-115 0h36.841m52.83 20h25.33m-115 0h19.415m69.965 20h25.62m-115 0h19.86m51.233 20h43.907m-115 0h37.857m50.072-160h27.071m-115 0h22.327m69.085 20h23.588m-115 0h18.844m54.717 20h41.44m-115 0h36.26m4.9346-100h73.805m-117.08 20h117.08m-50.003 20h50.003m-115 0h44.968m-44.968 200h115m-115 20h22.617m-22.617 20h10.861m182.43 209.7a15 15 0 0 1 0 21.213 15 15 0 0 1-21.213 0 15 15 0 0 1 0-21.213 15 15 0 0 1 21.213 0v0m88.131 0a15 15 0 0 1 0 21.213 15 15 0 0 1-21.213 0 15 15 0 0 1 0-21.213 15 15 0 0 1 21.213 0v0m-88.131 0c8.3201-8.3201 14.628-9.5422 18.948-7.0329 13.854 8.0467 7.269 54.464-18.948 28.246 34.393 34.393-55.607 34.393-21.213 0-34.393 34.393-34.393-55.607 0-21.213-34.393-34.393 55.607-34.393 21.213 0v0m88.131 0c8.3201-8.3201 14.628-9.5422 18.948-7.0329 13.854 8.0467 7.269 54.464-18.948 28.246 34.393 34.393-55.607 34.393-21.213 0-34.393 34.393-34.393-55.607 0-21.213-34.393-34.393 55.607-34.393 21.213 0v0m133.58-94.697v-74.245h-0.15004c0.0834-0.72647 0.13342-1.4548 0.15004-2.1837 1e-5 -18.09-20.147-32.755-45-32.755-20.619 1.3134-32.663 9.5707-45 22.886v-9.3114h-0.15833c0.088-0.93551 0.14081-1.8734 0.15833-2.812 1e-5 -23.296-21.266-42.18-47.5-42.18-24 0-43.842 15.805-47.304 34.866-1.5712-25.298-24.09-44.265-51.678-44.265-28.433 0-51.482 20.147-51.482 44.8-0.33192-0.77011-0.017-2.5216 1e-5 -3.3 0-25.681-25.536-46.5-57.036-46.5-31.5 0-57.036 20.819-57.036 46.5 1e-3 1.0343 0.0468 2.0682 0.13369 3.1h-0.13369v7.6085m652.67-270.79-250.63 368.58m168.04-411.04 57.683 39.657m-198.35 151.45 64.654 44.449m-54.413-59.284 64.782 44.537m-10.283-124.88 64.429 44.295m-54.18-59.124 63.992 43.994m-15.758-115.21 64.502 44.345m-252.05 232.34 64.079 44.054m-54.163-59.112 64.741 44.509m168.36-206.48c125.65 72.812 241.83 150.24 344.01 227.75m-331.42-248.34c120.72 70.348 232.56 144.9 331.47 219.59m-311.34-248.72c112.82 65.736 217.73 131.71 311.36 201.28m-0.2326 257.84c-129.4-50.732-219.92-167.26-219.92-302.9 0-10.247 0.5166-20.385 1.5274-30.393m218.43 426.82c-65.948-20.389-126.57-54.605-176.69-100.68-85.329-78.436-133.27-184.82-133.27-295.74 0-27.631 2.9745-54.981 8.7605-81.686m301.17 360.38c-112.37-49.89-189.93-155.93-189.93-278.69 0-4.0108 0.083-8.0037 0.2469-11.977m189.69 272.35c-101.9-48.662-171.57-146.99-171.57-260.37m171.59 358.21c-57.894-18.849-111.09-48.937-155.48-88.738-79.703-71.468-124.48-168.4-124.48-269.47 0-21.892 2.1008-43.59 6.2022-64.877m5.1585 95.16c-0.9037-10.037-1.3607-20.139-1.3607-30.283 0-19.933 1.7646-39.703 5.2158-59.138m25.96 201.4c-15.198-33.322-25.059-68.626-29.097-104.85m90.139 197.73c-23.371-26.07-42.628-54.722-57.391-85.124m139.08 154.49c-18.526-11.92-36.048-25.27-52.353-39.969-7.0342-6.3413-13.79-12.887-20.26-19.621m152.66 99.877c-20.096-7.6283-39.527-16.685-58.102-27.098m-185.44-301.2c-0.272-5.4848-0.4088-10.986-0.4088-16.5 0-15.856 1.1087-31.476 3.2595-46.802m20.697 171.21c-9.8882-24.89-16.822-50.778-20.601-77.229m70.834 164.64c-13.523-17.358-25.32-35.699-35.287-54.801m108.73 126.48c-10.046-7.4963-19.73-15.459-29.01-23.871-0.98-0.88842-1.9544-1.7809-2.9233-2.6775m120.11 76.64c-7.0487-2.9381-14.006-6.0605-20.863-9.3639m-282.84-136.48c41.326 22.005 79.451 51.257 112.67 86.998 80.183 86.267 125.23 203.27 125.23 325.27 0 34.756-3.6559 69.106-10.738 102.46m-233.64-518.1c2.1678 1.1058 4.3272 2.2314 6.4779 3.3766m-184.35-47.697c62.115 0.82925 122.72 16.189 177.87 44.321m228.87 494.92c-0.4606 2.8069-0.9482 5.6104-1.4633 8.4109m4.9538-34.358c-0.33 3.1236-0.6912 6.2413-1.0841 9.3538m3.785-67.731c0.017 1.6811 0.026 3.3633 0.026 5.0464v0c0 12.671-0.4306 25.198-1.3302 37.618m0.5375-65.327c0.2323 4.0533 0.4138 8.1145 0.5443 12.183m-3.1848-42.029c0.6287 5.2465 1.1722 10.511 1.6295 15.791m-12.271-73.995c4.0148 16.224 7.1926 32.719 9.5052 49.411m-15.187-70.322c1.1727 3.9578 2.2949 7.9342 3.366 11.928m-11.897-37.935c1.415 3.9263 2.7789 7.8743 4.0913 11.843m-28.202-67.245c7.1784 13.941 13.658 28.272 19.415 42.93m-30.407-63.03c1.1168 1.9261 2.2198 3.8608 3.3087 5.8039m-18.369-29.998c2.1729 3.2575 4.3037 6.5438 6.3919 9.8579m-48.858-63.962c12.64 13.746 24.375 28.278 35.163 43.488m-50.706-59.543c1.5749 1.545 3.14 3.1041 4.695 4.6771m-23.156-21.756c1.8506 1.6136 3.6895 3.2453 5.5165 4.8948m-60.291-45.345c14.272 8.8325 28.084 18.588 41.358 29.23m-60.374-40.305c1.4402 0.78769 2.8763 1.5844 4.3082 2.3902m-25.475-13.176c1.406 0.66528 2.8087 1.3389 4.2079 2.0208m-73.854-27.381c17.617 4.6052 34.914 10.432 51.783 17.432m-73.577-22.471c2.775 0.55879 5.5433 1.1475 8.3046 1.7661m-33.768-6.0242c2.9607 0.395 5.9153 0.82381 8.8634 1.2862m-60.345-4.7062c11.823 0 23.593 0.53851 35.284 1.6029m373.68 446.02c0 0.7928 0.01 1.5858 0.01 2.3791 0 12.208-0.4715 24.363-1.4037 36.437m-0.8882-82.928c0.06 0.6049 0.1182 1.21 0.1756 1.8153m-11.052-66.069c3.423 14.159 6.1952 28.526 8.2969 43.048m-46.144-145.11c6.6538 12.956 12.691 26.256 18.091 39.847m-85.279-136.46c11.953 13.002 23.078 26.723 33.339 41.067m-120.56-113.29c13.859 8.5555 27.277 18 40.176 28.3m-146.23-73.984c16.858 4.4523 33.413 10.049 49.567 16.747m-149.04-29.425c0.66124-3e-3 1.3226-5e-3 1.9842-5e-3 11.359 0 22.67 0.50842 33.905 1.5136m365.76 435.51c0.01 0.991 0.01 1.9824 0.01 2.9742 0 12.546-0.5096 25.034-1.5164 37.435m-11.656-146.92c3.5692 14.583 6.4315 29.392 8.5642 44.37m-45.975-144.27c6.9108 13.338 13.151 27.052 18.698 41.082m-85.208-135.79c0.01 0.0112 0.021 0.0223 0.031 0.0335 12.593 13.549 24.26 27.909 34.955 42.966m-121.05-113.34c14.759 8.9658 29.015 18.958 42.671 29.934m-145.72-73.581c17.62 4.5605 34.906 10.399 51.741 17.463m-142.36-29.376c10.727 0.0825 21.407 0.6287 32.018 1.6283m352.64 422.41c0.026 1.9824 0.039 3.9664 0.039 5.9519 0 13.691-0.6258 27.312-1.8605 40.82m-11.912-150.99c4.2445 16.666 7.5338 33.648 9.8317 50.85m-47.036-147.39c7.9717 15.026 15.059 30.557 21.226 46.5m-87.587-138.68c1.2826 1.3422 2.5574 2.6949 3.8244 4.058 13.185 14.186 25.323 29.289 36.358 45.169m-125.12-116.56c17.312 10.137 33.938 21.714 49.717 34.659m-149.19-75.046c20.165 4.9263 39.898 11.573 59.014 19.859m-138.69-30.154c10.837 0.18423 21.623 0.85634 32.331 2.005m338.98 404.82c0.078 3.359 0.1164 6.7229 0.1164 10.091 0 15.302-0.8024 30.514-2.3823 45.572m-12.379-158.05c5.2225 19.497 9.0977 39.453 11.564 59.71m-48.927-153.18c9.511 17.397 17.793 35.514 24.786 54.194m-91.65-144.24c2.8391 2.871 5.6411 5.7934 8.4047 8.7667 14.192 15.269 27.138 31.628 38.766 48.895m-131.85-122.23c20.77 11.594 40.578 25.286 59.139 40.951m-155.62-77.969c23.806 5.3652 47.027 13.183 69.345 23.312m-138.13-31.833c11.691 0.28669 23.317 1.156 34.844 2.5927m323.8 387.47c0.201 5.3328 0.3021 10.68 0.3021 16.038 0 17.96-1.1356 35.793-3.3639 53.39m-13.024-170.16c6.8204 23.741 11.575 48.223 14.145 73.135m-52.471-163.96c12.134 21.168 22.367 43.49 30.581 66.658m-40.348-82.803c0.1493 0.2341 0.2983 0.4683 0.4471 0.7027m-59.328-72.529c5.3646 5.1308 10.603 10.444 15.706 15.934 16.069 17.288 30.496 36.012 43.174 55.892m-145.81-133.69c27.181 13.844 52.823 31.295 76.285 52.069m-81.85-54.842c1.8621 0.90777 3.7172 1.8323 5.5652 2.7735m-92.382-31.818c30.025 5.7939 59.182 15.573 86.816 29.045m-139.35-35.031c13.384 0.48371 26.676 1.7515 39.822 3.7794m-21.675 46.445c202.06 5 319.67 193.1 297.06 395m-276.83-345.05c129.78 25.661 228.12 148 228.12 295.05 0 4.2946-0.084 8.5681-0.25 12.819m-210.76-272.84c102.38 30.854 178.31 129.82 182.9 248.61m126.91-262.5c50.343 80.345 77.799 175.6 77.799 273.9 0 39.253-4.4197 77.474-12.884 115m-417.22-604.24c85.668 5.1325 167.9 36.182 237.42 89.013m165.26 158.69c35.998 73.843 55.305 156.62 55.305 241.54 0 43.186-4.9932 85.818-14.636 127m-66.133-272c1.5931 6.7172-11.273 15.52-28.738 19.663-17.465 4.1421-32.914 2.0546-34.507-4.6626-1.5931-6.7172 11.273-15.52 28.738-19.663s32.914-2.0546 34.507 4.6626v0m-60.902 8.6342c1.5986-6.5544 7.3813-15.459 15.902-23.634 12.952-12.426 27.327-18.462 32.106-13.48 3.5939 3.746 1.3195 12.074-5.825 21.547m7.1721 20.739c9.837 3.822 14.626 9.1352 13.808 13.872-1.1754 6.8028-16.466 9.8402-34.154 6.7843-14.641-2.5296-26.335-8.4415-29.261-14.262m81.154 89.799c0.388 6.8927-13.825 13.298-31.746 14.307-17.921 1.0088-32.763-3.7609-33.151-10.654-0.388-6.8926 13.825-13.298 31.746-14.307 17.921-1.0087 32.763 3.761 33.151 10.654v0m-61.472-2.2017c2.7254-6.1715 9.9829-13.922 19.808-20.472 14.934-9.9572 30.145-13.373 33.975-7.6286 2.8797 4.3192-0.8227 12.118-9.5205 20.188m3.4163 21.677c9.0123 5.4911 12.794 11.563 11.156 16.082-2.3525 6.4905-17.939 6.7937-34.814 0.6774-13.969-5.063-24.442-12.938-26.3-19.181m62.595 98.78c-1.3958 6.761-16.778 9.3-34.356 5.6709-17.578-3.6291-30.697-12.052-29.301-18.813 1.3958-6.7609 16.777-9.3 34.356-5.6709 17.578 3.6291 30.697 12.052 29.302 18.813v0m-58.843-17.92c4.2194-5.2642 13.224-10.89 24.402-14.696 16.991-5.7863 32.569-5.1792 34.795 1.3559 1.6734 4.914-3.9083 11.5-14.387 17.064m-48.786 11.226c-0.7085-1.6584-1.1009-3.2007-1.1414-4.5744m47.66 15.175c7.2991 7.6222 9.3936 14.462 6.6497 18.409m-54.192-348.96c3.7319 5.8079-5.4842 18.382-20.585 28.085-15.1 9.7029-30.367 12.86-34.099 7.0526-3.7319-5.8079 5.4841-18.382 20.585-28.085 15.101-9.703 30.367-12.861 34.099-7.0528v0m-54.586 28.355c-0.6671-6.7135 1.833-17.033 7.1583-27.572 8.0947-16.02 19.652-26.484 25.813-23.37 4.6333 2.3411 5.2515 10.952 1.6552 22.259m13.648 17.184c10.548 0.3411 16.829 3.7638 17.629 8.5036 1.1486 6.8074-12.268 14.747-29.967 17.734-14.651 2.4724-27.644 0.7759-32.336-3.7431m-24.015-134.35c4.6986 5.0578-2.1528 19.062-15.303 31.278-13.15 12.216-27.62 18.02-32.318 12.962-4.6987-5.0578 2.1527-19.061 15.303-31.278 13.15-12.217 27.62-18.02 32.319-12.962v0m-48.723 37.547c-1.8418-6.4903-1.2027-17.089 2.1782-28.403 5.1392-17.198 14.667-29.537 21.282-27.56 4.9738 1.4863 7.1025 9.8528 5.5589 21.617m16.467 14.504c10.442-1.5264 17.229 0.73357 18.853 5.2577 2.3324 6.4977-9.4717 16.681-26.366 22.746-13.984 5.02-27.072 5.6441-32.489 2.0244m-51.763-117.73c5.8008 3.7428 2.6145 19.004-7.1169 34.086-9.7314 15.082-22.323 24.275-28.124 20.532-5.8008-3.7428-2.6146-19.004 7.1168-34.086 9.7314-15.082 22.323-24.275 28.124-20.532v0m-37.958 48.403c-3.3855-5.8356-5.38-16.264-4.8936-28.063 0.73924-17.934 6.9301-32.242 13.828-31.958 5.1867 0.21383 9.313 7.797 10.718 19.578m19.536 9.9954c9.7435-4.0546 16.878-3.538 19.568 0.44576 3.8628 5.7218-5.0654 18.502-19.942 28.545-12.314 8.3138-24.844 12.146-30.986 9.9741m-86.497-93.96c6.7017 1.6569 8.6425 17.126 4.3346 34.55-4.3079 17.425-13.233 30.207-19.935 28.55-6.7017-1.6569-8.6425-17.125-4.3346-34.55 4.3078-17.425 13.233-30.207 19.935-28.55v0m-20.188 58.104c-5.0967-4.4204-10.369-13.637-13.739-24.954-5.1231-17.203-3.9126-32.745 2.7039-34.716 4.9752-1.4816 11.34 4.3512 16.494 15.038m21.723 3.1118c7.8994-6.9982 14.815-8.8258 18.653-5.931 5.5111 4.1578 1.2156 19.144-9.5945 33.473-8.9483 11.861-19.555 19.554-26.07 19.493m18.844 100.72 14.13-49.456m38.89 73.018 27.277-47.734m15.37 78.286 38.569-42.075m0.23159 82.579 46.158-31.956m-12.778 85.727 49.922-21.395m-28.928 78.493 51.747-10.349m-42.126 62.557h51.088m-282.65-275.98 47.183-31 38.939 72.845 81.216-11.523 0.23159 82.579 83.302 32.376-28.928 78.493 60.631 52.208-42.681 49.562m-256.05-364.56 49.257 57.306 80.297-24.172 15.37 78.286 84.959 8.548-12.778 85.727 72.358 46.824-41.744 62.481 51.462 54.437-16.398 15.709m-23.409-18.552 40.061 2.8615m152.62 108.35v-242.81m15 248.83v-238.83m15 244.99v-234.99m-240.23-358.93c36.785-10.586 25.203 47.882 76.035 16.617m-40.827-90.436c-56.952 26.845-5.2511 49.721-35.892 72.302m67.304 97.642c29.345-13.893 35.536 40.248 74.977-4.4232m-65.228-74.5c-45.772 40.184 4.0265 48.741-12.084 76.043m94.257 75.307c22.994-12.038 42.632 30.836 67.862-23.852m-83.347-52.623c-32.861 48.928 10.495 47.177 8.641 72.541m74.702-19.918c-18.662 48.534 6.5311 48.678 18.994 60.839m-278.25-320.95c40.802 0.46532 9.283 53.476 67.827 40.606m-9.6366-98.793c-62.251 7.2198-19.164 46.432-58.298 57.084m20.036-88.99c3.4238 15.26 1.4996 33.099 38.262 31.711m2.2252 59.849c-8.3633 2.374-16.843 4.5267-27.325 2.8675m10-25c0.5852 17.408 8.793 17.8 16.88 18.462m0.5059 6.5467c-7.6056 5.0299-16.194 11.522-17.386 19.991m41.529 63.177c-7.9017 5.1129-15.732 10.298-27.114 11.892m2.2677-26.83c6.1264 17.898 14.995 13.974 23.58 12.304m1.4609 5.2058c-6.0736 7.2438-13.324 16.539-11.906 25.531m67.74 58.067c-2.5972 8.2905-5.4457 16.557-12.574 24.409m-15.428-22.067c15.791 9.6064 20.261 1.5301 25.614-5.1668m4.8546 6.3573c0.1528 8.6384 1.2087 18.249 7.169 23.476m68.812 37.555c-2.2944 6.6645-5.2596 13.264-11.007 19.595m-15.428-22.067c12.148 7.3901 17.596 4.3154 21.9-0.54552m8.6915 5.3112c0.409 7.6033 1.8985 15.387 7.0459 19.901m24.975-191.57c-11.672 22.62 9.2337 47.843 22.858 59.259m-50.456-80.093c-44.63-8.5535-117.28-16.949-109.58-43.703 2.9782-8.9346 11.278-16.095 17.504-20.425m8.9002 46.626c-40.416 31.35-11.981 47.824 107.4 53.162m-93.66-9.9816c-27.583 58.676 44.248 32.392 96.167 23.126m-76.708 14.091c-13.217 54.272 30.455 34.159 84.751 0.15437m-63.832 32.548c7.836 58.415 38.304 28.026 73.489-20.866m-44.747 49.476c27.89 70.964 38.938 3.9002 50.734-37.555m-17.677 57.736c8.165 16.942 13.815 24.745 17.709 26.21m-406.25-154.4-1.4734 2.175m68.879-101.68-2.5462 3.7587m-53.245 98.362-6.753 9.9687m74.564-110.07-8.4227 12.433m-44.738 85.804-17.512 25.851m87.075-128.54-21.526 31.776m-26.259 58.525-28.606 42.228m77.166-113.91-26.448 39.043m-13.931-60.625c47.071 37.657-7.7785 124.06-56.084 104.85-3.0062-1.1953-5.987-2.7996-8.9163-4.8502m104.67-95.776c-12.719 5.1861-26.698 4.8541-39.667-4.2244m-65 100c10.822 8.6579 16.257 19.893 17.622 31.828m317.41-467.57c17.949 0 32.5 26.863 32.5 60s-14.551 60-32.5 60-32.5-26.863-32.5-60 14.551-60 32.5-60v0m0-109.29 29.289 29.289-29.289 29.289-29.289-29.289 29.289-29.289v0m0-170.71c17.949 0 32.5 26.863 32.5 60s-14.551 60-32.5 60-32.5-26.863-32.5-60 14.551-60 32.5-60v0m16.126 440.72c23.557-12.835 40.749-53.071 40.749-100.72-0.0164-40.087-12.395-76.66-31.904-94.26l45.74-45.74-45.775-45.775c19.517-17.576 31.909-54.135 31.94-94.225 0-57.99-25.464-105-56.875-105s-56.875 47.01-56.875 105c0.016 40.087 12.395 76.66 31.904 94.26l-45.74 45.74 45.775 45.775c-19.517 17.576-31.909 54.135-31.94 94.225 0 33.822 8.6621 63.909 22.114 83.113m-89.752 77.551c2.2181-13.415 11.2-39.855 19.484-44.924 9.5306-5.8321 45-35 60-35s30 20 60 20c25 0 20 20 0 20s-35-5-35-5c-15.017 16.853-25.13 15.341-35 20-10.111 4.7722 15-5 20 5 4.4145 8.8291-14.557 52.737-19.06 62.898m83.353-87.313c17.735 1.8041 30.707 7.5749 30.707 14.415 0 8.2843-19.028 15-42.5 15s-42.5-6.7157-42.5-15c0-4.9206 6.7131-9.2879 17.083-12.023m35.726 26.322c17.824-0.29572 31.385 3.9082 32.19 10.701 0.975 8.2267-17.13 17.135-40.439 19.898-23.309 2.7625-42.995-1.667-43.97-9.8937-0.5791-4.8864 9.4093-15.004 34.409-20.004m18.249 29.401c17.824-0.29572 31.385 3.9082 32.19 10.701 0.975 8.2267-17.13 17.135-40.439 19.898-23.309 2.7625-42.995-1.667-43.97-9.8937-0.5582-4.71 8.7018-14.28 31.76-19.443m19.522 29.435c15.641 1.6692 32.737 8.9061 32.688 15.611-0.059 8.121-16.901 14.811-37.619 14.943s-37.465-6.3451-37.407-14.466c0.034-4.6495 9.2039-12.955 29.968-15.453m-304.88-456.4c0.04862 25.776-10.023 49.912-9.0642 55.665 1.644 9.8639 49.733 90.172 52 105 4.1389 27.071-37.097 27.445-39 31-1.3349 2.4936 1 19 1 19 0 5-10 20-10 20s0 10 5 15-25 20-25 20 15 20 15 30-5 25-30 25-55-5-75-5-75-25-85-25m-58.418 10.766c7.6085 3.6189 40.785 18.642 58.418 14.234 12.85-3.2124 29.827-8.4887 40.324-11.851m154.68-78.149s-15-3-20-3-10 13-20 13-10 5-10 5c-0.61904 0.31621 22.903 3.6253 30-5 3.177-3.861 20.184-2.235 20.184-2.235m-75.184-7.765c15 0 35.006-26.643 45-27l25-1-4 8s-13 2-18 2-23 23-33 23-15-5-15-5v0m62-74c-15.119 0.10227-26.392 34.914 0 31 26.021-3.8594 44.26-17.774 28-17-21 1-29 11-33 16m2-154-8 8s-31-12-48-10c-16.167 1.902-78 33-78 33 14-18 87-62 134-31v0m-114 59c32 5 47-31 103-31m-68 22c-32 29 66 20 66 20m-393.08-67.562c17.581 63.151-51.965 103.17-42.917 175.56 5 40 70 35 70 0 0-25-30-20-30-5s10 20 10 20m13.082-194.77c19.867 64.441-51.42 104.55-42.266 177.78 2.3656 18.925 15.741 22.625 29.178 17.564m29.675-198.73c25.3 66.308-46.02 105.45-39.669 178.16m58.388-181.32c26.985 64.09-37.166 103.38-39.893 168.97m58.214-172.69c30.755 66.89-43.929 118.19-46.709 185.04m62.928-187.4c32.856 69.93-46.198 118.31-47.052 184.48-0.87646 67.914 74.124 52.914 74.124 17.914s-51.825-36.649-50-5 38.517 12.693 30 5m13.388-205.94c28.949 66.232-46.492 117.82-47.341 183.62-0.20118 15.589 3.8497 25.987 10.211 32.334m57.975-218.9c25.537 63.44-43.112 119.56-48.86 181.86m34.673 27.205c30.415 55.867 114.95 27.7 114.95-15.17 0-55.227-55-45-55-10 0 34.65 45 15 25-5m-49.779-181.64c22.82 64.582-45.221 138.81-45.221 176.64 0 5.0925 1.283 9.8007 2.3004 14.215m62.044-193.27c25.243 64.013-45.535 127.15-39.344 189.06 5 50 80 42.131 80 15 0-10-10-20-10-20m-11.077-186.14c32.244 85.257-86.126 177.23-5.6545 208.71m-202.84 98.306c-31.085 27.17-80.427 11.984-80.427-20.875 0-55.227 50.046-40 50-15-0.0376 20.557-30 20-30-5m84.928-34.41c0.92351 17.774-1.0296 32.522-4.9789 44.565m-9.5597-42.229c10.286 59.622-69.542 90.387-75.39 52.074-0.75438-4.9428 0-10 5-20m58.387-33.371c-3.3239 26.614-20.749 58.927-43.387 53.371m133.47 29.539c-31.208 34.33-88.47 31.919-88.47-14.539 0-30.414 50-35 50-10 0 30-30 20-30 10m86.762-56.231c1.2937 7.9347 1.6756 15.4 1.2851 22.382m-16.809-21.911c0.74166 13.434-0.26377 38.129-11.238 50.76-29.332 33.759-58.511 14.889-60 5-0.75959-5.0444 1.6666-7.2141 5-10m53.844-50.537c-5.943 44.407-17.429 71.915-38.678 69.66m27.832-80.489c-5.3402 22.708-11.041 44.185-17.997 61.366m11.472-83.3c-7.3676 23.266-17.816 49.939-27.696 67.154m170.61-29.462c-10.541 115.06-125.33 104.08-119.39 50.608 5-45 48.843-29.973 50-5 1.1845 25.561-30 25-30 5m84.251-48.742c-6.6817 41.859-47.137 95.079-75.457 62.598m59.84-63.75c-4.8155 30.364-15.689 53.831-42.588 59.055m27.323-65.18c-4.0788 23.445-14.001 38.516-23.646 50.383m9.7212-61.272c-1.9055 17.578-8.1516 33.697-15.081 48.143m-8.5142-37.785c2.1493 9.9888 1.7298 20.299 0.13958 30.755m-266.6-439.81c56.007 56.179 120.04 122.98 160.61 200.61 143.73-30.414 291.69-46.681 435-30 46.784-63.186 107.05-118.15 172.36-170.04m-626.92 165.83c119.65-48.512 358.66-76.625 478.36-26.286" fill="none" stroke="#44f" stroke-linecap="round" stroke-linejoin="round" stroke-width="6"/>
</g>
<g transform="matrix(.12677 0 0 .1304 -119.6 -167.53)">
<path d="m1225 520c0 10 25 10 25 10m-37.917 7.9769c6.055 8.81 1.0889 22.643 0 22.023m-0.033 14.307c6.055 8.81 1.0889 22.643 0 22.023m1.5106 5.5138c6.055 8.81 1.0889 22.643 0 22.023m8.4894 5.4399c6.055 8.81 1.0889 22.643 0 22.023m17.95-106.33c2.8165 4.3895 1.4689 7.2175 0 10m3.355 20.118c2.8165 4.3895 1.4689 7.2175 0 10m0 20c2.8165 4.3895 1.4689 7.2175 0 10m0 20c2.8165 4.3895 1.4689 7.2175 0 10m-309.36-260.12c-10.823 1.0609-23.081-1.3792-33 8m-21-125c-7 1-19 18-19 18m10.437-57.705c2.222 4.0984 3.5625 9.4064 3.5625 15.205 0 12.979-6.7157 23.5-15 23.5s-15-10.521-15-23.5c0-1.8888 0.14223-3.7255 0.41083-5.4854m-59.411 4.9854c28 0 58-31 77-31 11.499 0 12 13 12 13" fill="none" stroke="#44f" stroke-linecap="round" stroke-linejoin="round" stroke-width="3"/>
<g transform="matrix(.051197 .034845 -.035849 .049763 910.12 546.68)">
<path d="m0-500c100 250 355 400 355 685a150 150 0 0 1-300 0 10 10 0 0 0-20 0c0 200 50 215 95 315h-260c45-100 95-115 95-315a10 10 0 0 0-20 0 150 150 0 0 1-300 0c0-285 255-435 355-685z"/>
</g>
<g transform="matrix(.052417 .033087 -.03404 .050949 845.15 641.67)">
<path d="m0-500c100 250 355 400 355 685a150 150 0 0 1-300 0 10 10 0 0 0-20 0c0 200 50 215 95 315h-260c45-100 95-115 95-315a10 10 0 0 0-20 0 150 150 0 0 1-300 0c0-285 255-435 355-685z"/>
</g>
<g transform="matrix(.052417 .033087 -.03404 .050949 780.15 739.67)">
<path d="m0-500c100 250 355 400 355 685a150 150 0 0 1-300 0 10 10 0 0 0-20 0c0 200 50 215 95 315h-260c45-100 95-115 95-315a10 10 0 0 0-20 0 150 150 0 0 1-300 0c0-285 255-435 355-685z"/>
</g>
</g>
<g transform="matrix(-.12677 0 0 -.1304 45.201 93.27)">
<path d="m1225 520c0 10 25 10 25 10m-37.917 7.9769c6.055 8.81 1.0889 22.643 0 22.023m-0.033 14.307c6.055 8.81 1.0889 22.643 0 22.023m1.5106 5.5138c6.055 8.81 1.0889 22.643 0 22.023m8.4894 5.4399c6.055 8.81 1.0889 22.643 0 22.023m17.95-106.33c2.8165 4.3895 1.4689 7.2175 0 10m3.355 20.118c2.8165 4.3895 1.4689 7.2175 0 10m0 20c2.8165 4.3895 1.4689 7.2175 0 10m0 20c2.8165 4.3895 1.4689 7.2175 0 10m-309.36-260.12c-10.823 1.0609-23.081-1.3792-33 8m-21-125c-7 1-19 18-19 18m10.437-57.705c2.222 4.0984 3.5625 9.4064 3.5625 15.205 0 12.979-6.7157 23.5-15 23.5s-15-10.521-15-23.5c0-1.8888 0.14223-3.7255 0.41083-5.4854m-59.411 4.9854c28 0 58-31 77-31 11.499 0 12 13 12 13" fill="none" stroke="#44f" stroke-linecap="round" stroke-linejoin="round" stroke-width="3"/>
<g transform="matrix(.051197 .034845 -.035849 .049763 910.12 546.68)">
<path d="m0-500c100 250 355 400 355 685a150 150 0 0 1-300 0 10 10 0 0 0-20 0c0 200 50 215 95 315h-260c45-100 95-115 95-315a10 10 0 0 0-20 0 150 150 0 0 1-300 0c0-285 255-435 355-685z"/>
</g>
<g transform="matrix(.052417 .033087 -.03404 .050949 845.15 641.67)">
<path d="m0-500c100 250 355 400 355 685a150 150 0 0 1-300 0 10 10 0 0 0-20 0c0 200 50 215 95 315h-260c45-100 95-115 95-315a10 10 0 0 0-20 0 150 150 0 0 1-300 0c0-285 255-435 355-685z"/>
</g>
<g transform="matrix(.052417 .033087 -.03404 .050949 780.15 739.67)">
<path d="m0-500c100 250 355 400 355 685a150 150 0 0 1-300 0 10 10 0 0 0-20 0c0 200 50 215 95 315h-260c45-100 95-115 95-315a10 10 0 0 0-20 0 150 150 0 0 1-300 0c0-285 255-435 355-685z"/>
</g>
</g>
</svg>
