<?xml version="1.0" encoding="UTF-8"?>
<svg width="100%" height="100%" version="1.1" viewBox="-120 -168 165.58 261.58" xmlns="http://www.w3.org/2000/svg">
<g transform="matrix(.12677 0 0 .1304 -118.73 -167.61)">
<path d="m0 0v602.5a52.5 17.5 0 0 1 52.5-17.5 52.5 17.5 0 0 1 47.5 10.092v-197.7c108.29-41.157 147.22-107.88 165-182.39-50.477 41.168-105.8 67.41-165 81.691v-196.69zm0 602.5v32.5c0-7.2633 13.907-13.493 33.711-16.141l0.30078-2e-3a52.5 17.5 0 0 1-34.012-16.357zm0 32.5v35a52.5 17.5 0 0 1 52.5-17.5 52.5 17.5 0 0 1 47.5 10.092v-17.535c-9.9525 4.5004-26.391 7.4434-45 7.4434-30.376 0-55-7.835-55-17.5zm0 35v1040l100-100v-902.19c-7.7926 5.7412-23.892 9.6856-42.5 9.6856-26.234 0-47.5-7.835-47.5-17.5 0-5.8668 7.8369-11.059 19.863-14.234a52.5 17.5 0 0 1-29.863-15.766zm872.92-504.63c5.5526 19.875 17.078 62.04 17.078 69.631 0 10-10 40-10 55s-10 70-20 95-45 90-50.285 100.83c2.871 18.592 22.06 32.816 42.186 38.035l-1.4883-0.0332c-33.861 23.766-71.467 38.494-112.36 44.629-68.314 10.247-147.24-4.2162-232.5-47.141l-0.65625 0.29492c11.605-7.3626 23.09-21.337 32.703-45.244 17.198-42.769-22.598-146.37 57.402-301.37-67.978-1e-3 -133.6 4.1955-191.22 22.625-60.889 128.08-57.836 214.77-77.752 256.51 3.9688-39.138-86.031-64.139-86.031 10.861 0 20.578 15.555 49.798 43.029 51.09 65.149 21.071 129.95 36.622 202.68 12.24 2.3774-0.2151 4.7945-0.65535 7.2324-1.334l-10.629 4.7871c93.453 50.018 181.5 68.032 258.7 56.453 52.213-7.832 99.7-29.078 141.03-63.695l-1.7285-0.0391c9.5936-2.607 17.178-8.6536 20.148-18.941 24.05-28.32 34.2-44.003 46.781-61.896 2.8262-6.0058 3.9732-13.878 2.75-23.664-5-40-49.999-20-49.881-4.7266-3.3734-10.432-5.1198-21.981-4.9746-35.377 19.358 7.7256 44.855-5.7536 44.855-29.896 0-40-40-5-40-5s16.804-123.51-17.262-178.78zm88.279 300.82c-55.633 80.517-130.65 128.84-217.22 141.82-88.049 13.207-187.44-9.8312-290.96-69.645l-8.0273 1.6309 27.33 31.725c96.126 49.651 189.63 68.817 274.62 56.068 70.778-10.617 134.61-43.834 186.83-96.938l-2.9004 3.1758 17.164 274.63 17.586-58.613c-4.4275-70.84-9.6804-154.89-14.854-237.66 9.4076-10.912 18.381-22.524 26.883-34.828l3.6328-5.2578zm72.141 19.826c26.259 105.35 79.358 198.02 165.48 268.01l1.1054-38.525c-66.365-59.904-109.39-135.17-133.37-221.15zm-668.08 55.541 151.07 170.17c-0.86201-0.0593-1.7222-0.10314-2.5781-0.11524-1.2973-0.0183-2.5859 0.0172-3.8633 0.10547-10.219 0.70597-19.688 4.7871-26.588 11.688-11.544 11.544-15.19 30.278-8.3496 47.686-5.9282-1.8593-11.945-2.5417-17.723-2.1426-10.219 0.70597-19.689 4.7871-26.59 11.688-9.6703 9.6703-13.793 24.386-10.859 39.141-4.2258-0.84038-8.4489-1.1115-12.551-0.82812-10.219 0.70597-19.689 4.7871-26.59 11.688-9.617 9.617-13.748 24.224-10.908 38.896-0.28337-0.0598-0.56613-0.13305-0.84961-0.1875-0.98-0.2026-1.9778-0.30663-2.9785-0.31054-0.86967-3e-3 -1.7231 0.0672-2.5547 0.20703l0.38867 2.127c-21.617-108.04-70.889-218.34-155.99-326.48l-63.596 41.584c3.8254 14.65 9.8904 37.279 10.846 53.52 0.35155 5.9768-0.33635 13.376-1.4121 21.789 156.38 228.2 134.29 446.7 38.824 633.14 27.042 33.288 49.713 70.29 68.02 110.17 43.963-73.483 78.356-154.44 98.051-240.1l-0.30859 1.6231 295.53-300.14 121.16 136.48 21.035-21.363-387.89-436.94zm-265.26 68.344a52.5 17.5 0 0 1-26.826 8.6543l0.66211-6e-3c10.648 1.2349 19.751 3.4891 26.164 6.3887zm0 67.5a52.5 17.5 0 0 1-19.865 7.4434l1.0566-0.0195c8.0647 1.713 14.629 4.2754 18.809 7.3535zm738.64 20.332-25.588 8.2246c8.4495 25.619 22.491 63.801 36.947 84.039 10.843 15.18 28.269 35.064 44.529 52.715 0 0 23.036-12.071 16.199-19.656-13.488-14.964-26.827-30.596-35.729-43.059-14.126-19.776-27.856-56.685-36.359-82.264zm-51.791 14.543-26.717 4.6484c7.834 24.735 23.588 70.281 39.867 93.072 14.389 20.144 40.371 48.569 59.836 69.07 7.1333 7.5133 16.883-18.613 16.883-18.613-18.091-19.344-39.255-43.007-51.719-60.457-15.166-21.233-29.875-62.216-38.15-87.721z" fill="#fc4"/>
</g>
<g transform="matrix(-.12677 0 0 -.1304 46.068 93.191)">
<path d="m0 0v602.5a52.5 17.5 0 0 1 52.5-17.5 52.5 17.5 0 0 1 47.5 10.092v-197.7c108.29-41.157 147.22-107.88 165-182.39-50.477 41.168-105.8 67.41-165 81.691v-196.69zm0 602.5v32.5c0-7.2633 13.907-13.493 33.711-16.141l0.30078-2e-3a52.5 17.5 0 0 1-34.012-16.357zm0 32.5v35a52.5 17.5 0 0 1 52.5-17.5 52.5 17.5 0 0 1 47.5 10.092v-17.535c-9.9525 4.5004-26.391 7.4434-45 7.4434-30.376 0-55-7.835-55-17.5zm0 35v1040l100-100v-902.19c-7.7926 5.7412-23.892 9.6856-42.5 9.6856-26.234 0-47.5-7.835-47.5-17.5 0-5.8668 7.8369-11.059 19.863-14.234a52.5 17.5 0 0 1-29.863-15.766zm872.92-504.63c5.5526 19.875 17.078 62.04 17.078 69.631 0 10-10 40-10 55s-10 70-20 95-45 90-50.285 100.83c2.871 18.592 22.06 32.816 42.186 38.035l-1.4883-0.0332c-33.861 23.766-71.467 38.494-112.36 44.629-68.314 10.247-147.24-4.2162-232.5-47.141l-0.65625 0.29492c11.605-7.3626 23.09-21.337 32.703-45.244 17.198-42.769-22.598-146.37 57.402-301.37-67.978-1e-3 -133.6 4.1955-191.22 22.625-60.889 128.08-57.836 214.77-77.752 256.51 3.9688-39.138-86.031-64.139-86.031 10.861 0 20.578 15.555 49.798 43.029 51.09 65.149 21.071 129.95 36.622 202.68 12.24 2.3774-0.2151 4.7945-0.65535 7.2324-1.334l-10.629 4.7871c93.453 50.018 181.5 68.032 258.7 56.453 52.213-7.832 99.7-29.078 141.03-63.695l-1.7285-0.0391c9.5936-2.607 17.178-8.6536 20.148-18.941 24.05-28.32 34.2-44.003 46.781-61.896 2.8262-6.0058 3.9732-13.878 2.75-23.664-5-40-49.999-20-49.881-4.7266-3.3734-10.432-5.1198-21.981-4.9746-35.377 19.358 7.7256 44.855-5.7536 44.855-29.896 0-40-40-5-40-5s16.804-123.51-17.262-178.78zm88.279 300.82c-55.633 80.517-130.65 128.84-217.22 141.82-88.049 13.207-187.44-9.8312-290.96-69.645l-8.0273 1.6309 27.33 31.725c96.126 49.651 189.63 68.817 274.62 56.068 70.778-10.617 134.61-43.834 186.83-96.938l-2.9004 3.1758 17.164 274.63 17.586-58.613c-4.4275-70.84-9.6804-154.89-14.854-237.66 9.4076-10.912 18.381-22.524 26.883-34.828l3.6328-5.2578zm72.141 19.826c26.259 105.35 79.358 198.02 165.48 268.01l1.1054-38.525c-66.365-59.904-109.39-135.17-133.37-221.15zm-668.08 55.541 151.07 170.17c-0.86201-0.0593-1.7222-0.10314-2.5781-0.11524-1.2973-0.0183-2.5859 0.0172-3.8633 0.10547-10.219 0.70597-19.688 4.7871-26.588 11.688-11.544 11.544-15.19 30.278-8.3496 47.686-5.9282-1.8593-11.945-2.5417-17.723-2.1426-10.219 0.70597-19.689 4.7871-26.59 11.688-9.6703 9.6703-13.793 24.386-10.859 39.141-4.2258-0.84038-8.4489-1.1115-12.551-0.82812-10.219 0.70597-19.689 4.7871-26.59 11.688-9.617 9.617-13.748 24.224-10.908 38.896-0.28337-0.0598-0.56613-0.13305-0.84961-0.1875-0.98-0.2026-1.9778-0.30663-2.9785-0.31054-0.86967-3e-3 -1.7231 0.0672-2.5547 0.20703l0.38867 2.127c-21.617-108.04-70.889-218.34-155.99-326.48l-63.596 41.584c3.8254 14.65 9.8904 37.279 10.846 53.52 0.35155 5.9768-0.33635 13.376-1.4121 21.789 156.38 228.2 134.29 446.7 38.824 633.14 27.042 33.288 49.713 70.29 68.02 110.17 43.963-73.483 78.356-154.44 98.051-240.1l-0.30859 1.6231 295.53-300.14 121.16 136.48 21.035-21.363-387.89-436.94zm-265.26 68.344a52.5 17.5 0 0 1-26.826 8.6543l0.66211-6e-3c10.648 1.2349 19.751 3.4891 26.164 6.3887zm0 67.5a52.5 17.5 0 0 1-19.865 7.4434l1.0566-0.0195c8.0647 1.713 14.629 4.2754 18.809 7.3535zm738.64 20.332-25.588 8.2246c8.4495 25.619 22.491 63.801 36.947 84.039 10.843 15.18 28.269 35.064 44.529 52.715 0 0 23.036-12.071 16.199-19.656-13.488-14.964-26.827-30.596-35.729-43.059-14.126-19.776-27.856-56.685-36.359-82.264zm-51.791 14.543-26.717 4.6484c7.834 24.735 23.588 70.281 39.867 93.072 14.389 20.144 40.371 48.569 59.836 69.07 7.1333 7.5133 16.883-18.613 16.883-18.613-18.091-19.344-39.255-43.007-51.719-60.457-15.166-21.233-29.875-62.216-38.15-87.721z" fill="#fc4"/>
</g>
<g transform="matrix(.12677 0 0 .1304 -118.73 -167.61)">
<path d="m199.52 0 157.66 165.58 25.473-4.9023c149.96-27.996 296.78-37.138 441.39-36.51 20.66 0.0897 41.275 0.37782 61.848 0.83985l34.475 1.5703 120.58-126.58h-90.371l-73.627 108.7-3.2676-0.0723c-17.44-0.38354-35.101-0.6067-52.801-0.6836-14.191-0.0617-28.397-0.0289-43.678 0.15235l-7.916 0.0937 28.979-108.19h-102.04l-7.7734 110.4-5.3594 0.2207c-28.906 1.1945-58.058 2.9654-87.605 5.3594l-5.5137 0.44726-19.016-116.43h-123.06l45.314 126.52-7.3906 0.95703c-26.194 3.3912-52.95 7.4027-79.91 12.123l-3.543 0.62109-109.74-140.22zm108.35 0 99.543 127.2c23.432-4.0514 46.649-7.5404 69.502-10.588l-41.766-116.61zm275.24 0 16.924 103.63c25.991-2.041 51.693-3.6059 77.189-4.7207l6.9629-98.906zm227.58 0-25.73 96.07c12.299-0.10653 24.295-0.17577 35.975-0.125 16.664 0.07238 33.27 0.30198 49.725 0.64453l65.426-96.59zm-810.69 50v70l80 80v-70zm0 150v109.85c27.325-0.91104 54.014-3.7806 80-8.8164v-21.037zm225.9 66.748c-69.012 41.278-145.38 60.505-225.9 63.105v73.936c87.942-16.247 143.49-43.188 179.63-75.494 20.794-18.589 35.415-39.201 46.271-61.547zm-145.9 137.69c-23.576 7.691-50.13 14.285-80 19.656v10.906l80 80zm182.08 104.17-54.93 36.684c65.585 82.864 109.89 167.06 137.03 251.62l130.92-131.62-109.84-123.73c-34.415-10.878-70.714-12.66-103.18-32.951zm863.33 2.2402-42.344 33.27 9.8067 23.381h66.514l-40.512 50.641 14.359 21.424 61.381-10.23-17.67 63.613 12.203 12.115 10.982-39.539-0.5957-43.387-6.0684-7.8203-60.371 10.062 36.715-45.895-13.078-25.984h-60.057l46.652-36.656zm-1125.4 4.1504v87.5a52.5 17.5 0 0 1 52.5-17.5 52.5 17.5 0 0 1 18.664 1.1641zm0 87.5v32.5c0-7.2633 13.907-13.493 33.711-16.141l0.30078-2e-3a52.5 17.5 0 0 1-34.012-16.357zm0 32.5v35a52.5 17.5 0 0 1 52.5-17.5 52.5 17.5 0 0 1 27.5 2.6191v-4.5449c-7.5067 1.2225-15.988 1.9258-25 1.9258-30.376 0-55-7.835-55-17.5zm0 35v80l80 80v-114.59c-6.698 1.33-14.358 2.0859-22.5 2.0859-26.234 0-47.5-7.835-47.5-17.5 0-5.8668 7.8369-11.059 19.863-14.234a52.5 17.5 0 0 1-29.863-15.766zm170.15-103a3.0003 3.0003 0 1 0 0 6h8.8086a3.0003 3.0003 0 1 0 0-6h-0.38086zm-97.432 19.354a52.5 17.5 0 0 1 7.2793 1.2656v-1.2656zm74.277 0.64648a3.0003 3.0003 0 1 0 0 6h47.293a3.0003 3.0003 0 1 0 0-6h-0.35547zm15.473 20a3.0003 3.0003 0 1 0 0 6h46.166a3.0003 3.0003 0 1 0 0-6h-0.32422zm-82.471 10.393a52.5 17.5 0 0 1-6.8633 1.166l0.69922-6e-3c2.1255 0.24652 4.1703 0.54449 6.1641 0.86915zm96.955 9.6074a3.0003 3.0003 0 1 0 0 6h45.279a3.0003 3.0003 0 1 0 0-6h-0.29688zm13.672 20a3.0003 3.0003 0 1 0 0 6h44.469a3.0003 3.0003 0 1 0 0-6h-0.26953zm12.871 20a3.0003 3.0003 0 1 0 0 6h43.631a3.0003 3.0003 0 1 0 0-6h-0.25zm12.078 20a3.0003 3.0003 0 1 0 0 6h42.422a3.0003 3.0003 0 1 0 0-6zm597.48 18.961-26.203 6.3184c8.275 25.505 22.984 66.488 38.15 87.721 12.701 17.782 34.437 42.018 52.748 61.559l16.781-18.844c-16.26-17.651-33.686-37.535-44.529-52.715-14.456-20.238-28.498-58.42-36.947-84.039zm-586.21 1.0391a3.0003 3.0003 0 1 0 0 6h41.582a3.0003 3.0003 0 1 0 0-6zm10.307 20a3.0003 3.0003 0 1 0 0 6h41.021a3.0003 3.0003 0 1 0 0-6zm9.5566 20a3.0003 3.0003 0 1 0 0 6h40.467a3.0003 3.0003 0 1 0 0-6zm8.8145 20a3.0003 3.0003 0 1 0 0 6h39.916a3.0003 3.0003 0 1 0 0-6h-0.15625zm8.082 20a3.0003 3.0003 0 1 0 0 6h39.141a3.0003 3.0003 0 1 0 0-6zm7.3535 20a3.0003 3.0003 0 1 0 0 6h38.609a3.0003 3.0003 0 1 0 0-6zm6.5137 20a3.0003 3.0003 0 1 0 0 6h38.264a3.0003 3.0003 0 1 0 0-6zm-277.47 3v235l80 80v-235zm283.21 17a3.0003 3.0003 0 1 0 0 6h37.809a3.0003 3.0003 0 1 0 0-6zm5.043 20a3.0003 3.0003 0 1 0 0 6h37.439a3.0003 3.0003 0 1 0 0-6zm4.3535 20a3.0003 3.0003 0 1 0 0 6h37.152a3.0003 3.0003 0 1 0 0-6zm3.668 20a3.0003 3.0003 0 1 0 0 6h36.945a3.0003 3.0003 0 1 0 0-6zm2.9863 20a3.0003 3.0003 0 1 0 0 6h36.627a3.0003 3.0003 0 1 0 0-6zm2.1973 20a3.0003 3.0003 0 1 0 0 6h36.453a3.0003 3.0003 0 1 0 0-6zm1.4902 20a3.0003 3.0003 0 1 0 0 6h36.398a3.0003 3.0003 0 1 0 0-6zm0.83008 20a3.0003 3.0003 0 1 0 0 6h36.219a3.0003 3.0003 0 1 0 0-6zm0.17383 20a3.0003 3.0003 0 1 0 0 6h36.045a3.0003 3.0003 0 1 0 0-6zm-0.48438 20a3.0003 3.0003 0 1 0 0 6h36.412a3.0003 3.0003 0 1 0 0-6zm-1.1367 20a3.0003 3.0003 0 1 0 0 6h36.447a3.0003 3.0003 0 1 0 0-6zm-1.7871 20a3.0003 3.0003 0 1 0 0 6h36.555a3.0003 3.0003 0 1 0 0-6zm-2.5195 20a3.0003 3.0003 0 1 0 0 6h36.816a3.0003 3.0003 0 1 0 0-6zm-3.1836 20a3.0003 3.0003 0 1 0 0 6h37.115a3.0003 3.0003 0 1 0 0-6zm-3.8262 20a3.0003 3.0003 0 1 0 0 6h37.354a3.0003 3.0003 0 1 0 0-6zm-291.02 18v235l80 80v-235zm286.55 2a3.0003 3.0003 0 1 0 0 6h37.656a3.0003 3.0003 0 1 0 0-6zm-5.1094 20a3.0003 3.0003 0 1 0 0 6h38.023a3.0003 3.0003 0 1 0 0-6zm-5.75 20a3.0003 3.0003 0 1 0 0 6h38.445a3.0003 3.0003 0 1 0 0-6zm-6.3965 20a3.0003 3.0003 0 1 0 0 6h38.914a3.0003 3.0003 0 1 0 0-6zm-7.041 20a3.0003 3.0003 0 1 0 0 6h39.396a3.0003 3.0003 0 1 0 0-6zm-7.6914 20a3.0003 3.0003 0 1 0 0 6h39.844a3.0003 3.0003 0 1 0 0-6zm-8.3418 20a3.0003 3.0003 0 1 0 0 6h40.34a3.0003 3.0003 0 0 0 2e-3 0 3.0003 3.0003 0 0 0 6e-3 0h0.0391a3.0003 3.0003 0 0 0 0.16211-5.9961 3.0003 3.0003 0 0 0-0.17773 0h-0.0312zm-9 20a3.0003 3.0003 0 1 0 0 6h40.883a3.0003 3.0003 0 1 0 0-6zm-9.6602 20a3.0003 3.0003 0 1 0 0 6h41.463a3.0003 3.0003 0 1 0 0-6zm-9.125 20a3.0003 3.0003 0 1 0 0 6h40.877a3.0003 3.0003 0 1 0 0-6zm12.818 20a3.0003 3.0003 0 1 0 0 6h17.828a3.0003 3.0003 0 1 0 0-6h-0.125zm-231.25 112.96v200.04l80-80v-40.768z" fill="#f00"/>
</g>
<g transform="matrix(-.12677 0 0 -.1304 46.068 93.191)">
<path d="m199.52 0 157.66 165.58 25.473-4.9023c149.96-27.996 296.78-37.138 441.39-36.51 20.66 0.0897 41.275 0.37782 61.848 0.83985l34.475 1.5703 120.58-126.58h-90.371l-73.627 108.7-3.2676-0.0723c-17.44-0.38354-35.101-0.6067-52.801-0.6836-14.191-0.0617-28.397-0.0289-43.678 0.15235l-7.916 0.0937 28.979-108.19h-102.04l-7.7734 110.4-5.3594 0.2207c-28.906 1.1945-58.058 2.9654-87.605 5.3594l-5.5137 0.44726-19.016-116.43h-123.06l45.314 126.52-7.3906 0.95703c-26.194 3.3912-52.95 7.4027-79.91 12.123l-3.543 0.62109-109.74-140.22zm108.35 0 99.543 127.2c23.432-4.0514 46.649-7.5404 69.502-10.588l-41.766-116.61zm275.24 0 16.924 103.63c25.991-2.041 51.693-3.6059 77.189-4.7207l6.9629-98.906zm227.58 0-25.73 96.07c12.299-0.10653 24.295-0.17577 35.975-0.125 16.664 0.07238 33.27 0.30198 49.725 0.64453l65.426-96.59zm-810.69 50v70l80 80v-70zm0 150v109.85c27.325-0.91104 54.014-3.7806 80-8.8164v-21.037zm225.9 66.748c-69.012 41.278-145.38 60.505-225.9 63.105v73.936c87.942-16.247 143.49-43.188 179.63-75.494 20.794-18.589 35.415-39.201 46.271-61.547zm-145.9 137.69c-23.576 7.691-50.13 14.285-80 19.656v10.906l80 80zm182.08 104.17-54.93 36.684c65.585 82.864 109.89 167.06 137.03 251.62l130.92-131.62-109.84-123.73c-34.415-10.878-70.714-12.66-103.18-32.951zm863.33 2.2402-42.344 33.27 9.8067 23.381h66.514l-40.512 50.641 14.359 21.424 61.381-10.23-17.67 63.613 12.203 12.115 10.982-39.539-0.5957-43.387-6.0684-7.8203-60.371 10.062 36.715-45.895-13.078-25.984h-60.057l46.652-36.656zm-1125.4 4.1504v87.5a52.5 17.5 0 0 1 52.5-17.5 52.5 17.5 0 0 1 18.664 1.1641zm0 87.5v32.5c0-7.2633 13.907-13.493 33.711-16.141l0.30078-2e-3a52.5 17.5 0 0 1-34.012-16.357zm0 32.5v35a52.5 17.5 0 0 1 52.5-17.5 52.5 17.5 0 0 1 27.5 2.6191v-4.5449c-7.5067 1.2225-15.988 1.9258-25 1.9258-30.376 0-55-7.835-55-17.5zm0 35v80l80 80v-114.59c-6.698 1.33-14.358 2.0859-22.5 2.0859-26.234 0-47.5-7.835-47.5-17.5 0-5.8668 7.8369-11.059 19.863-14.234a52.5 17.5 0 0 1-29.863-15.766zm170.15-103a3.0003 3.0003 0 1 0 0 6h8.8086a3.0003 3.0003 0 1 0 0-6h-0.38086zm-97.432 19.354a52.5 17.5 0 0 1 7.2793 1.2656v-1.2656zm74.277 0.64648a3.0003 3.0003 0 1 0 0 6h47.293a3.0003 3.0003 0 1 0 0-6h-0.35547zm15.473 20a3.0003 3.0003 0 1 0 0 6h46.166a3.0003 3.0003 0 1 0 0-6h-0.32422zm-82.471 10.393a52.5 17.5 0 0 1-6.8633 1.166l0.69922-6e-3c2.1255 0.24652 4.1703 0.54449 6.1641 0.86915zm96.955 9.6074a3.0003 3.0003 0 1 0 0 6h45.279a3.0003 3.0003 0 1 0 0-6h-0.29688zm13.672 20a3.0003 3.0003 0 1 0 0 6h44.469a3.0003 3.0003 0 1 0 0-6h-0.26953zm12.871 20a3.0003 3.0003 0 1 0 0 6h43.631a3.0003 3.0003 0 1 0 0-6h-0.25zm12.078 20a3.0003 3.0003 0 1 0 0 6h42.422a3.0003 3.0003 0 1 0 0-6zm597.48 18.961-26.203 6.3184c8.275 25.505 22.984 66.488 38.15 87.721 12.701 17.782 34.437 42.018 52.748 61.559l16.781-18.844c-16.26-17.651-33.686-37.535-44.529-52.715-14.456-20.238-28.498-58.42-36.947-84.039zm-586.21 1.0391a3.0003 3.0003 0 1 0 0 6h41.582a3.0003 3.0003 0 1 0 0-6zm10.307 20a3.0003 3.0003 0 1 0 0 6h41.021a3.0003 3.0003 0 1 0 0-6zm9.5566 20a3.0003 3.0003 0 1 0 0 6h40.467a3.0003 3.0003 0 1 0 0-6zm8.8145 20a3.0003 3.0003 0 1 0 0 6h39.916a3.0003 3.0003 0 1 0 0-6h-0.15625zm8.082 20a3.0003 3.0003 0 1 0 0 6h39.141a3.0003 3.0003 0 1 0 0-6zm7.3535 20a3.0003 3.0003 0 1 0 0 6h38.609a3.0003 3.0003 0 1 0 0-6zm6.5137 20a3.0003 3.0003 0 1 0 0 6h38.264a3.0003 3.0003 0 1 0 0-6zm-277.47 3v235l80 80v-235zm283.21 17a3.0003 3.0003 0 1 0 0 6h37.809a3.0003 3.0003 0 1 0 0-6zm5.043 20a3.0003 3.0003 0 1 0 0 6h37.439a3.0003 3.0003 0 1 0 0-6zm4.3535 20a3.0003 3.0003 0 1 0 0 6h37.152a3.0003 3.0003 0 1 0 0-6zm3.668 20a3.0003 3.0003 0 1 0 0 6h36.945a3.0003 3.0003 0 1 0 0-6zm2.9863 20a3.0003 3.0003 0 1 0 0 6h36.627a3.0003 3.0003 0 1 0 0-6zm2.1973 20a3.0003 3.0003 0 1 0 0 6h36.453a3.0003 3.0003 0 1 0 0-6zm1.4902 20a3.0003 3.0003 0 1 0 0 6h36.398a3.0003 3.0003 0 1 0 0-6zm0.83008 20a3.0003 3.0003 0 1 0 0 6h36.219a3.0003 3.0003 0 1 0 0-6zm0.17383 20a3.0003 3.0003 0 1 0 0 6h36.045a3.0003 3.0003 0 1 0 0-6zm-0.48438 20a3.0003 3.0003 0 1 0 0 6h36.412a3.0003 3.0003 0 1 0 0-6zm-1.1367 20a3.0003 3.0003 0 1 0 0 6h36.447a3.0003 3.0003 0 1 0 0-6zm-1.7871 20a3.0003 3.0003 0 1 0 0 6h36.555a3.0003 3.0003 0 1 0 0-6zm-2.5195 20a3.0003 3.0003 0 1 0 0 6h36.816a3.0003 3.0003 0 1 0 0-6zm-3.1836 20a3.0003 3.0003 0 1 0 0 6h37.115a3.0003 3.0003 0 1 0 0-6zm-3.8262 20a3.0003 3.0003 0 1 0 0 6h37.354a3.0003 3.0003 0 1 0 0-6zm-291.02 18v235l80 80v-235zm286.55 2a3.0003 3.0003 0 1 0 0 6h37.656a3.0003 3.0003 0 1 0 0-6zm-5.1094 20a3.0003 3.0003 0 1 0 0 6h38.023a3.0003 3.0003 0 1 0 0-6zm-5.75 20a3.0003 3.0003 0 1 0 0 6h38.445a3.0003 3.0003 0 1 0 0-6zm-6.3965 20a3.0003 3.0003 0 1 0 0 6h38.914a3.0003 3.0003 0 1 0 0-6zm-7.041 20a3.0003 3.0003 0 1 0 0 6h39.396a3.0003 3.0003 0 1 0 0-6zm-7.6914 20a3.0003 3.0003 0 1 0 0 6h39.844a3.0003 3.0003 0 1 0 0-6zm-8.3418 20a3.0003 3.0003 0 1 0 0 6h40.34a3.0003 3.0003 0 0 0 2e-3 0 3.0003 3.0003 0 0 0 6e-3 0h0.0391a3.0003 3.0003 0 0 0 0.16211-5.9961 3.0003 3.0003 0 0 0-0.17773 0h-0.0312zm-9 20a3.0003 3.0003 0 1 0 0 6h40.883a3.0003 3.0003 0 1 0 0-6zm-9.6602 20a3.0003 3.0003 0 1 0 0 6h41.463a3.0003 3.0003 0 1 0 0-6zm-9.125 20a3.0003 3.0003 0 1 0 0 6h40.877a3.0003 3.0003 0 1 0 0-6zm12.818 20a3.0003 3.0003 0 1 0 0 6h17.828a3.0003 3.0003 0 1 0 0-6h-0.125zm-231.25 112.96v200.04l80-80v-40.768z" fill="#f00"/>
</g>
<g transform="matrix(.12677 0 0 .1304 -118.73 -167.61)">
<path d="m509 758c9 0 28.315-1.2365 32 4 19 27 34.047 54.141 62 66 5.8946 2.5007 10.258 21.901 2 26-38.418 19.069-54.167-44.095-64-71-7.2975-19.969-27.054-16.342-31-17-6-1-3.6874-8-1-8zm-52.661 57.231c9 0 28.315-1.2365 32 4 19 27 34.047 54.141 62 66 5.8946 2.5007 10.258 21.901 2 26-38.418 19.069-54.167-44.095-64-71-7.2975-19.969-27.054-16.342-31-17-6-1-3.6874-8-1-8zm-50 50c9 0 28.315-1.2365 32 4 19 27 34.047 54.141 62 66 5.8946 2.5007 10.258 21.901 2 26-38.418 19.069-54.167-44.095-64-71-7.2975-19.969-27.054-16.342-31-17-6-1-3.6874-8-1-8zm-35.09 49.918c7.5794 0.18799 14.956 1.0496 17.09 4.0824 19 27 34.047 54.141 62 66 5.8946 2.5007 10.258 21.901 2 26-38.418 19.069-54.167-44.095-64-71-3.5488-9.711-10.044-13.842-16.235-15.599m4.1859 94.433c7.0159 6.6818 14.831 12.255 24.049 16.166 5.8946 2.5007 10.258 21.901 2 26-10.879 5.4001-19.941 4.2057-27.565-0.8923m322.48-780.34a13.625 20 0 0 1-13.625 20 13.625 20 0 0 1-13.625-20 13.625 20 0 0 1 13.625-20 13.625 20 0 0 1 13.625 20zm162.75 4.5064a12.5 20.292 0 0 1-12.5 20.292 12.5 20.292 0 0 1-12.5-20.292 12.5 20.292 0 0 1 12.5-20.292 12.5 20.292 0 0 1 12.5 20.292zm179.29 309.79c-17.009-37.323-29.874-76.645-38.918-117.43l-19.08-4.5582-3.6332 5.2579c-8.474 12.264-17.414 23.846-26.839 34.714 5.1251 82.8 10.381 166.89 15.044 237.71 19.442-54.632 44.354-106.74 73.427-155.68zm105.31-78.325 55.194 14.905m-55.194-14.905c3.5097 27.018 30.401 77.532 54.943 106.17l0.2509-91.261m-1062.2 175.12c-4.3478 7.5685-8.8548 12.681-13.242 14.107-15.037 4.8877-24.328-10.131-24.328-10.131l0.0779 496.9c23.977 17.954 45.709 37.081 66.058 57.431 82.103-167.63 100.65-356.41-28.566-558.31zm-37.57 904-110 110m364.53-887.18 141.62-143.83 20.83 22.783c-1.0779-0.0888-2.1521-0.14044-3.2209-0.15555-1.2973-0.0183-2.5859 0.0172-3.8633 0.10547-10.219 0.70597-19.688 4.7871-26.588 11.688-11.544 11.544-15.19 30.278-8.3496 47.686-5.9282-1.8593-11.945-2.5417-17.723-2.1426-10.219 0.70597-19.689 4.7871-26.59 11.688-9.6703 9.6703-13.793 24.386-10.859 39.141-4.2258-0.84038-8.4489-1.1115-12.551-0.82812-10.219 0.70597-19.689 4.7871-26.59 11.688-9.617 9.617-13.748 24.224-10.908 38.896-0.28336-0.0598-0.56613-0.13305-0.84961-0.1875-0.98-0.2026-1.9778-0.30663-2.9785-0.31054-0.86967-3e-3 -1.7235 0.068-2.555 0.20782zm745.47-312.82a10 10 0 0 1-10 10 10 10 0 0 1-10-10 10 10 0 0 1 10-10 10 10 0 0 1 10 10zm30 65a10 10 0 0 1-10 10 10 10 0 0 1-10-10 10 10 0 0 1 10-10 10 10 0 0 1 10 10zm45 70a10 10 0 0 1-10 10 10 10 0 0 1-10-10 10 10 0 0 1 10-10 10 10 0 0 1 10 10z" fill="#44f"/>
</g>
<g transform="matrix(-.12677 0 0 -.1304 46.068 93.191)">
<path d="m509 758c9 0 28.315-1.2365 32 4 19 27 34.047 54.141 62 66 5.8946 2.5007 10.258 21.901 2 26-38.418 19.069-54.167-44.095-64-71-7.2975-19.969-27.054-16.342-31-17-6-1-3.6874-8-1-8zm-52.661 57.231c9 0 28.315-1.2365 32 4 19 27 34.047 54.141 62 66 5.8946 2.5007 10.258 21.901 2 26-38.418 19.069-54.167-44.095-64-71-7.2975-19.969-27.054-16.342-31-17-6-1-3.6874-8-1-8zm-50 50c9 0 28.315-1.2365 32 4 19 27 34.047 54.141 62 66 5.8946 2.5007 10.258 21.901 2 26-38.418 19.069-54.167-44.095-64-71-7.2975-19.969-27.054-16.342-31-17-6-1-3.6874-8-1-8zm-35.09 49.918c7.5794 0.18799 14.956 1.0496 17.09 4.0824 19 27 34.047 54.141 62 66 5.8946 2.5007 10.258 21.901 2 26-38.418 19.069-54.167-44.095-64-71-3.5488-9.711-10.044-13.842-16.235-15.599m4.1859 94.433c7.0159 6.6818 14.831 12.255 24.049 16.166 5.8946 2.5007 10.258 21.901 2 26-10.879 5.4001-19.941 4.2057-27.565-0.8923m322.48-780.34a13.625 20 0 0 1-13.625 20 13.625 20 0 0 1-13.625-20 13.625 20 0 0 1 13.625-20 13.625 20 0 0 1 13.625 20zm162.75 4.5064a12.5 20.292 0 0 1-12.5 20.292 12.5 20.292 0 0 1-12.5-20.292 12.5 20.292 0 0 1 12.5-20.292 12.5 20.292 0 0 1 12.5 20.292zm179.29 309.79c-17.009-37.323-29.874-76.645-38.918-117.43l-19.08-4.5582-3.6332 5.2579c-8.474 12.264-17.414 23.846-26.839 34.714 5.1251 82.8 10.381 166.89 15.044 237.71 19.442-54.632 44.354-106.74 73.427-155.68zm105.31-78.325 55.194 14.905m-55.194-14.905c3.5097 27.018 30.401 77.532 54.943 106.17l0.2509-91.261m-1062.2 175.12c-4.3478 7.5685-8.8548 12.681-13.242 14.107-15.037 4.8877-24.328-10.131-24.328-10.131l0.0779 496.9c23.977 17.954 45.709 37.081 66.058 57.431 82.103-167.63 100.65-356.41-28.566-558.31zm-37.57 904-110 110m364.53-887.18 141.62-143.83 20.83 22.783c-1.0779-0.0888-2.1521-0.14044-3.2209-0.15555-1.2973-0.0183-2.5859 0.0172-3.8633 0.10547-10.219 0.70597-19.688 4.7871-26.588 11.688-11.544 11.544-15.19 30.278-8.3496 47.686-5.9282-1.8593-11.945-2.5417-17.723-2.1426-10.219 0.70597-19.689 4.7871-26.59 11.688-9.6703 9.6703-13.793 24.386-10.859 39.141-4.2258-0.84038-8.4489-1.1115-12.551-0.82812-10.219 0.70597-19.689 4.7871-26.59 11.688-9.617 9.617-13.748 24.224-10.908 38.896-0.28336-0.0598-0.56613-0.13305-0.84961-0.1875-0.98-0.2026-1.9778-0.30663-2.9785-0.31054-0.86967-3e-3 -1.7235 0.068-2.555 0.20782zm745.47-312.82a10 10 0 0 1-10 10 10 10 0 0 1-10-10 10 10 0 0 1 10-10 10 10 0 0 1 10 10zm30 65a10 10 0 0 1-10 10 10 10 0 0 1-10-10 10 10 0 0 1 10-10 10 10 0 0 1 10 10zm45 70a10 10 0 0 1-10 10 10 10 0 0 1-10-10 10 10 0 0 1 10-10 10 10 0 0 1 10 10z" fill="#44f"/>
</g>
<g transform="matrix(.12677 0 0 .1304 -118.73 -167.61)">
<path d="m130 1057c-4.057-0.057-4.057 6.0574 0 6h60c4.057 0.057 4.057-6.0574 0-6zm-10 25c-4.057-0.057-4.057 6.0574 0 6h85c4.057 0.057 4.057-6.0574 0-6zm-20 27v12h118l2.3222-12zm0 25v12h112.19l2.6125-12zm0 25v12h104.35l3.7736-12zm0 25v12h96.806l3.4833-12zm17.561 37h68.505l4.9347-12h-87.372zm29.898 25h27.866l4.9346-12h-46.444zm738.44-1121c-20.572-0.46203-41.188-0.75012-61.848-0.83985-144.62-0.62811-291.43 8.5135-441.39 36.51l-25.893 4.4618 33.235 34.859c167.85-31.337 332.22-38.656 495-35l35.361-38.408zm48.586 474.12c-96.952 80.76-235.54 102.49-377.1 68.721l43.715 48.936c123.69 18.042 244.26-3.9459 336.97-69.989zm-117.55 361.09-372.51-419.61-36.418 4.0346 387.89 436.94zm-320.79-271.23-141.62 143.83-10.069-34.848 130.64-132.68zm381.57 208.63c-4.4274-4.5222-10.572-10.854-17.549-18.39l51.237-55.326c6.5493 7.1591 13.215 14.344 19.389 20.895m-737.81 450.73c94.897-187.04 116.98-405.55-39.015-633.2-4.9793 15.602-9.5041 32.46-16.219 43.261 129.04 202.31 110.49 391.09 29.078 558.57z"/>
</g>
<g transform="matrix(-.12677 0 0 -.1304 46.068 93.191)">
<path d="m130 1057c-4.057-0.057-4.057 6.0574 0 6h60c4.057 0.057 4.057-6.0574 0-6zm-10 25c-4.057-0.057-4.057 6.0574 0 6h85c4.057 0.057 4.057-6.0574 0-6zm-20 27v12h118l2.3222-12zm0 25v12h112.19l2.6125-12zm0 25v12h104.35l3.7736-12zm0 25v12h96.806l3.4833-12zm17.561 37h68.505l4.9347-12h-87.372zm29.898 25h27.866l4.9346-12h-46.444zm738.44-1121c-20.572-0.46203-41.188-0.75012-61.848-0.83985-144.62-0.62811-291.43 8.5135-441.39 36.51l-25.893 4.4618 33.235 34.859c167.85-31.337 332.22-38.656 495-35l35.361-38.408zm48.586 474.12c-96.952 80.76-235.54 102.49-377.1 68.721l43.715 48.936c123.69 18.042 244.26-3.9459 336.97-69.989zm-117.55 361.09-372.51-419.61-36.418 4.0346 387.89 436.94zm-320.79-271.23-141.62 143.83-10.069-34.848 130.64-132.68zm381.57 208.63c-4.4274-4.5222-10.572-10.854-17.549-18.39l51.237-55.326c6.5493 7.1591 13.215 14.344 19.389 20.895m-737.81 450.73c94.897-187.04 116.98-405.55-39.015-633.2-4.9793 15.602-9.5041 32.46-16.219 43.261 129.04 202.31 110.49 391.09 29.078 558.57z"/>
</g>
<g transform="matrix(.12677 0 0 .1304 -118.73 -167.61)">
<path d="m100 709.95v900.05l-100 100m100-1031.9v13.911m0-46.99v17.312m0-52.554v14.839m0-227.22v197.23m-100-594.64 100 100v196.63m0.15582 910.65c108 79.347 171.74 190.72 199.49 315.91m-92.342-977.93c238.08 301.58 196.38 620.4 53.375 860.34m97.499-238.99 295.53-300.15m-288.44-324.91 409.6 461.39m-124.87-132.72v134.76m-15-119.53v235.34m-15-220.1-1e-5 203.21m-15-187.97 1e-5 171.07m-15-155.84v138.94m-15-123.71v106.81m-15-91.578-2e-5 74.682m-15-59.447-1e-5 42.551m-15-27.316v10.42m-121.99-457.88 387.89 436.94m-351.48-440.97 372.51 419.61m-448.13 150.53 263.86-267.98m-278.13-9.9477 141.62-143.83m-151.69 108.98 130.64-132.68m-330.65-78.255 117.64-78.424m678.02-48.159 259.69 70.425m-317.74-6.3357c-41.333 34.618-88.82 55.864-141.03 63.696-77.195 11.579-165.25-6.4354-258.7-56.453m-29.288 6.5871c103.51 59.813 202.91 82.851 290.96 69.644 86.565-12.985 161.58-61.304 217.22-141.82m-110.79 57.636c-33.861 23.766-71.466 38.494-112.36 44.628-68.314 10.247-147.23-4.2159-232.5-47.14m51.833 146.54c141.56 33.774 280.15 12.039 377.1-68.721m-3.6074-65.101 17.164 274.63m2.7251-296.4c5.1758 82.814 10.432 166.91 14.861 237.78m-364.53-33.256c123.69 18.042 244.26-3.9459 336.97-69.989m-177.94 70.129c7.834 24.735 23.587 70.281 39.867 93.072 19.662 27.527 60.973 70.517 77.718 87.621m-90.869-185.34c8.275 25.505 22.985 66.488 38.151 87.721 12.464 17.45 33.628 41.114 51.719 60.458m-63.665-154.5c8.4495 25.619 22.491 63.801 36.947 84.039 10.843 15.18 28.27 35.063 44.53 52.714m-55.889-144.98c8.5035 25.579 22.233 62.487 36.358 82.263 13.414 18.779 36.904 44.756 55.795 64.8m-776.82-182.47c155.99 227.66 133.91 446.16 39.015 633.2m1006.9-580.03c-53.227-48.045-91.438-105.97-116.85-171.39-6.2732-16.146-11.767-32.747-16.514-49.768m132.26 259.68c-86.122-69.992-139.22-162.66-165.48-268.01m111.26 29.951c3.5097 27.018 30.401 77.532 54.943 106.17m-1119.5-382.14-80-80m2.9802e-7 -40 80 80m0 80-80-80m80 355-80-80m2.9802e-7 -40 80 80m0 355-80-80m2.9802e-7 -40 80 80m0 80-80-80m80 355-80-80m2.9802e-7 -40 80 80m0 80-80-80m80 355-80-80m2.9802e-7 -40 80 80m0 80-80-80m80-744.17v864.17l-80 80m80-1255.8v182.7m-80-536.91 80 80v170.96m512.66 581.81-100-110c-20-30 10-60 40-40l100 110m-94.138 95.607-98.524-108.38c-20-30 10-60 40-40l98.193 108.01m-89.308 90.761-98.885-108.77c-20-30 10-60 40-40l98.606 108.47m-162.55-64.385c4.519 0.86788 9.2318 2.7758 13.945 5.9177l98.886 108.77m-39.626 40.411-62.918-69.21m0.51486 21.566 52.371 57.608m-39.892 40.118-15.594-17.153m143.24-360.34c-1.0779-0.0888-2.1521-0.14044-3.2209-0.15555-1.2973-0.0183-2.5859 0.0172-3.8633 0.10547-10.219 0.70597-19.688 4.7871-26.588 11.688-11.544 11.544-15.19 30.278-8.3496 47.686-5.9282-1.8593-11.945-2.5417-17.723-2.1426-10.219 0.70597-19.689 4.7871-26.59 11.688-9.6703 9.6703-13.793 24.386-10.859 39.141-4.2258-0.84038-8.4489-1.1115-12.551-0.82812-10.219 0.70597-19.689 4.7871-26.59 11.688-9.617 9.617-13.748 24.224-10.908 38.896-0.28336-0.0598-0.56613-0.13305-0.84961-0.1875-0.98-0.2026-1.9778-0.30663-2.9785-0.31054-0.86967-3e-3 -1.7235 0.068-2.555 0.20782m548.15-45.143-51.301 54.965m-11.27-152.67c30.438-14.244 60.781-29.936 91.001-47.503m-79.702 74.228c27.325-12.679 54.575-26.511 81.729-41.804m-67.89 67.342c23.36-10.811 46.666-22.46 69.903-35.142m-51.546 58.583c17.883-8.3396 35.733-17.177 53.545-26.598m-33.556 49.258c11.862-5.5956 23.71-11.414 35.541-17.48m-27.996 48.272c6.2716-2.8753 12.539-5.8103 18.803-8.8086m-90.69-122.66 41.929-34.086-50.349 10.627m20.035 51.211 45.314-36.837-52.691 11.121m21.244 51.638 46.447-37.759-52.691 11.121m23.933 49.452 43.758-35.573-52.691 11.121m64.607 14.53-49.607 10.47m12.974 21.167 36.743-29.869m-2.4518 27.948-27.265 5.7544m4.5674 28.001 18.259-14.844m-143.39-28.452-61.745-5.8255 50-20m31.745 50.826-61.745-5.8255 45.995-18.398m35.749 49.224-61.745-5.8255 46.293-18.517m35.452 49.343-61.745-5.8255 48.076-19.231m22.411 49.466-55.487-5.2351 50-20m-88.125-133.84c-45.675 6.4434-87.52 11.323-128.23 13.293m128.1-13.624-61.745-5.8255 50-20m24.463 56.691c-37.56 5.8659-76.037 10.142-115.74 12.289m115.21-13.42-58.928-5.5598 48.666-19.466m26.877 55.193c-34.211 5.5123-69.172 9.723-105.12 12.221-0.11275 8e-3 -0.22552 0.0157-0.33829 0.0235m125.48 12.752c-33.673 5.4262-68.073 9.5914-103.43 12.104m125.32 12.589c-33.626 5.4703-67.975 9.6884-103.27 12.263m125.81 12.321c-33.784 5.5651-68.294 9.8735-103.76 12.527m102.93 14.978c-26.572 4.0343-53.609 7.2639-81.218 9.4993m49.582 22.21c-9.1178 0.98051-18.296 1.857-27.537 2.6225m40.625-15.363-15.626-1.4743 27.643-11.057m-719.89-213.35c129.04 202.31 110.49 391.09 29.078 558.57m-22.167-677.11c211.43 263.85 187.39 526.87 72.807 741.46m23.227 36.982c127.57-228.18 159.32-517.65-64.978-799.22m-30.94 20.857c211.32 263.77 187.28 526.79 73.073 741.74m-41.833-762.71c224 281.68 192.24 571.15 64.817 798.82m-140.84-654.99s9.291 14.995 24.328 10.107c15.34-4.9862 32.146-55.047 30.672-80.107-1.4679-24.957-15-65-15-70s1.9086-14.691 1.9086-34.691c0-30-31.909-45.309-34.073-2.5269-0.62681 12.392 2.164 17.218 7.164 32.218m0 0c-0.67582 4.5517-10 15-10 20 0 20 8.2864 22.809 8.2864 22.809m-113.29-5.3091a52.5 17.5 0 0 1 52.5-17.5 52.5 17.5 0 0 1 52.5 17.5 52.5 17.5 0 0 1-52.5 17.5 52.5 17.5 0 0 1-52.5-17.5m0 32.5v0c0-7.2633 13.907-13.493 33.71-16.141m40.126-0.30605c21.099 2.447 36.163 8.8871 36.163 16.447 0 9.665-24.624 17.5-55 17.5s-55-7.835-55-17.5m0 35a52.5 17.5 0 0 1 52.5-17.5 52.5 17.5 0 0 1 52.5 17.5 52.5 17.5 0 0 1-52.5 17.5 52.5 17.5 0 0 1-52.5-17.5m81.191 14.829c14.231 3.0227 23.809 8.685 23.809 15.171 0 9.665-21.266 17.5-47.5 17.5s-47.5-7.835-47.5-17.5c0-5.8703 7.8455-11.066 19.884-14.24m41.47-99.406-71.354-71.354m0.019528-205.15c97.534-3.248 187.03-31.277 264.98-94.855-22.418 93.966-78.453 175.54-264.81 209.08m-0.16597-94.219c80.508-2.6034 156.87-21.843 225.87-63.117-10.857 22.346-25.478 42.958-46.271 61.547-36.096 32.269-91.557 59.186-179.32 75.439m403.48-206.11c-67.521 142.03-56.413 233.16-83.784 267.38-20 25-55 30-55 0 0-35 34.9-14.626 35-10m120.15-260.26c-69.204 143.56-59.512 234.37-85.15 270.26-25 35-70 30-70 0m171.42-272.89c-70.646 145.04-61.358 236.26-86.417 272.89-65 95-110 35-110 0 0-75 90-50 85-10m127.67-265.49c-72.341 146.36-67.705 235.56-87.669 275.49-20 40-77.602 65.61-94.572 48.745m198.34-326.44c-73.481 147.67-68.699 237.57-88.763 277.69-20 40-64.5 68.136-85 55m189.86-334.9c-74.686 148.9-70.97 237.69-86.802 279.9-15 40-63.998 80.555-88.06 60m190.99-342.13c-75.72 150.32-68.162 241.76-84.868 283.88-21.121 53.251-54.565 85.898-82.248 66.013m183.21-352.06c-76.908 151.61-70.007 243.96-83.777 287.36-13.307 41.94-48.257 87.452-77.462 69.581m177.11-358.65c-77.812 152.62-69.804 245.36-79.837 289.94-8.1158 36.065-38.539 92.087-74.507 71.498m170.22-363.16c-78.666 153.69-61.875 251.63-76.344 295.16-12.488 37.568-39.311 80.99-68.301 71.273m160.53-368.15c-79.667 154.67-60.427 249.28-68.044 294.69-6.6687 39.754-36.097 76.466-68.194 69.629m151.53-364.88c-80 155-52.502 250.82-63.085 295.68-6.915 29.316-28.079 68.333-57.542 65.65m135.63-361.33c-80 155-40.203 258.6-57.401 301.37-14.963 37.211-34.463 50.386-51.885 51.962m387.21-362.96c5.5526 19.875 17.077 62.039 17.077 69.63 0 10-10 40-10 55s-10 70-20 95-45 90-50 100-9.8091 39.563-24.809 44.563-50.191 20.437-65.191 10.437-20-15-30-15-30 5-45 0-85-15-90-30c-4.3793-13.209-10-20-12.377-37.814m57.377-207.19c38.334-16.373 66.186-53.253 135-10v0l-5 5c-36.119-35.307-82.46-18.225-130 5v0m285-10c-35-15-45-30-95 5v0c30-15 66.711-25.583 95-5v0m-95 5c-5.6154 2.7958-7.2582 21.124-5 30 2.4657 9.6912 15 50 15 60s8.9347 52.186 8.9347 57.186c0 10-18.935 17.814-33.935 17.814m-35-40c-20.808 1.7076-37.884 39.089 9.3165 31.367 30.015-4.9103 10.684-11.367-19.316-1.367m-35 40v15l10-10-10-5v0m110-5-5 10-10-5 15-5v0m-105 10c15 0 30-10 35-10s15 10 20 10 15-10 20-10 10 5 15 5m-55 30c10.017 10.832 40 15 40-10m-180-175c35 5 80-30 120-30m-80 25c-5 15 55 25 70 15s20-5 20-5m65.923-4.7345c20 0 52.332-22.8 70-25s20 10 20 10m-90.923 14.735c20 10 33.071 20 52.775 20 19.704 0 37.225-15 37.225-15m2.739-123.78c34.066 55.271 16.548 119.19 17.261 178.78 0.8771 16.276 15 10 20 5m-44.129-27.097c-13.191 78.847 64.129 69.14 64.129 27.097 0-40-40-25-40-5m-5 35c0 45 20 70 35 45m-66.742-47.322c-0.10916 88.183 94.804 106.82 86.742 42.322-5-40-50-20-49.354-3.3237m-50.936-7.2568c3.9825 49.733 43.724 72.867 75.29 60.581 18.663-7.2641 21.42-17.97 21.126-24.435m-109.74-10.339c8.1735 42.724 66.435 68.944 93.619 34.773m-103.04-17.02c9.2301 40.691 44.654 58.763 73.332 47.601 9.3772-3.7895 17.976-11.415 19.488-21.63m-101.29-10.206c11.128 36.612 44.521 52.456 71.806 41.836 10.08-3.9232 15.519-8.8503 18.345-13.571m-99.206-10.358c6.1486 37.142 80.063 56.922 91.04 18.908m19.69-379.78-34.261-0.76972c-20.572-0.46203-41.188-0.75012-61.848-0.83985-144.62-0.62811-291.43 8.5135-441.39 36.51l-25.623 4.783m-157.51-165.46 190.48 200c167.85-31.337 332.22-38.656 495-35l156.08-165m-568.75 571.73c96.126 49.651 189.63 68.816 274.62 56.068 92.087-13.813 172.42-65.876 230.71-150.23l3.6332-5.2579" fill="none" stroke="#44f" stroke-linecap="round" stroke-linejoin="round" stroke-width="6"/>
</g>
<g transform="matrix(-.12677 0 0 -.1304 46.068 93.191)">
<path d="m100 709.95v900.05l-100 100m100-1031.9v13.911m0-46.99v17.312m0-52.554v14.839m0-227.22v197.23m-100-594.64 100 100v196.63m0.15582 910.65c108 79.347 171.74 190.72 199.49 315.91m-92.342-977.93c238.08 301.58 196.38 620.4 53.375 860.34m97.499-238.99 295.53-300.15m-288.44-324.91 409.6 461.39m-124.87-132.72v134.76m-15-119.53v235.34m-15-220.1-1e-5 203.21m-15-187.97 1e-5 171.07m-15-155.84v138.94m-15-123.71v106.81m-15-91.578-2e-5 74.682m-15-59.447-1e-5 42.551m-15-27.316v10.42m-121.99-457.88 387.89 436.94m-351.48-440.97 372.51 419.61m-448.13 150.53 263.86-267.98m-278.13-9.9477 141.62-143.83m-151.69 108.98 130.64-132.68m-330.65-78.255 117.64-78.424m678.02-48.159 259.69 70.425m-317.74-6.3357c-41.333 34.618-88.82 55.864-141.03 63.696-77.195 11.579-165.25-6.4354-258.7-56.453m-29.288 6.5871c103.51 59.813 202.91 82.851 290.96 69.644 86.565-12.985 161.58-61.304 217.22-141.82m-110.79 57.636c-33.861 23.766-71.466 38.494-112.36 44.628-68.314 10.247-147.23-4.2159-232.5-47.14m51.833 146.54c141.56 33.774 280.15 12.039 377.1-68.721m-3.6074-65.101 17.164 274.63m2.7251-296.4c5.1758 82.814 10.432 166.91 14.861 237.78m-364.53-33.256c123.69 18.042 244.26-3.9459 336.97-69.989m-177.94 70.129c7.834 24.735 23.587 70.281 39.867 93.072 19.662 27.527 60.973 70.517 77.718 87.621m-90.869-185.34c8.275 25.505 22.985 66.488 38.151 87.721 12.464 17.45 33.628 41.114 51.719 60.458m-63.665-154.5c8.4495 25.619 22.491 63.801 36.947 84.039 10.843 15.18 28.27 35.063 44.53 52.714m-55.889-144.98c8.5035 25.579 22.233 62.487 36.358 82.263 13.414 18.779 36.904 44.756 55.795 64.8m-776.82-182.47c155.99 227.66 133.91 446.16 39.015 633.2m1006.9-580.03c-53.227-48.045-91.438-105.97-116.85-171.39-6.2732-16.146-11.767-32.747-16.514-49.768m132.26 259.68c-86.122-69.992-139.22-162.66-165.48-268.01m111.26 29.951c3.5097 27.018 30.401 77.532 54.943 106.17m-1119.5-382.14-80-80m2.9802e-7 -40 80 80m0 80-80-80m80 355-80-80m2.9802e-7 -40 80 80m0 355-80-80m2.9802e-7 -40 80 80m0 80-80-80m80 355-80-80m2.9802e-7 -40 80 80m0 80-80-80m80 355-80-80m2.9802e-7 -40 80 80m0 80-80-80m80-744.17v864.17l-80 80m80-1255.8v182.7m-80-536.91 80 80v170.96m512.66 581.81-100-110c-20-30 10-60 40-40l100 110m-94.138 95.607-98.524-108.38c-20-30 10-60 40-40l98.193 108.01m-89.308 90.761-98.885-108.77c-20-30 10-60 40-40l98.606 108.47m-162.55-64.385c4.519 0.86788 9.2318 2.7758 13.945 5.9177l98.886 108.77m-39.626 40.411-62.918-69.21m0.51486 21.566 52.371 57.608m-39.892 40.118-15.594-17.153m143.24-360.34c-1.0779-0.0888-2.1521-0.14044-3.2209-0.15555-1.2973-0.0183-2.5859 0.0172-3.8633 0.10547-10.219 0.70597-19.688 4.7871-26.588 11.688-11.544 11.544-15.19 30.278-8.3496 47.686-5.9282-1.8593-11.945-2.5417-17.723-2.1426-10.219 0.70597-19.689 4.7871-26.59 11.688-9.6703 9.6703-13.793 24.386-10.859 39.141-4.2258-0.84038-8.4489-1.1115-12.551-0.82812-10.219 0.70597-19.689 4.7871-26.59 11.688-9.617 9.617-13.748 24.224-10.908 38.896-0.28336-0.0598-0.56613-0.13305-0.84961-0.1875-0.98-0.2026-1.9778-0.30663-2.9785-0.31054-0.86967-3e-3 -1.7235 0.068-2.555 0.20782m548.15-45.143-51.301 54.965m-11.27-152.67c30.438-14.244 60.781-29.936 91.001-47.503m-79.702 74.228c27.325-12.679 54.575-26.511 81.729-41.804m-67.89 67.342c23.36-10.811 46.666-22.46 69.903-35.142m-51.546 58.583c17.883-8.3396 35.733-17.177 53.545-26.598m-33.556 49.258c11.862-5.5956 23.71-11.414 35.541-17.48m-27.996 48.272c6.2716-2.8753 12.539-5.8103 18.803-8.8086m-90.69-122.66 41.929-34.086-50.349 10.627m20.035 51.211 45.314-36.837-52.691 11.121m21.244 51.638 46.447-37.759-52.691 11.121m23.933 49.452 43.758-35.573-52.691 11.121m64.607 14.53-49.607 10.47m12.974 21.167 36.743-29.869m-2.4518 27.948-27.265 5.7544m4.5674 28.001 18.259-14.844m-143.39-28.452-61.745-5.8255 50-20m31.745 50.826-61.745-5.8255 45.995-18.398m35.749 49.224-61.745-5.8255 46.293-18.517m35.452 49.343-61.745-5.8255 48.076-19.231m22.411 49.466-55.487-5.2351 50-20m-88.125-133.84c-45.675 6.4434-87.52 11.323-128.23 13.293m128.1-13.624-61.745-5.8255 50-20m24.463 56.691c-37.56 5.8659-76.037 10.142-115.74 12.289m115.21-13.42-58.928-5.5598 48.666-19.466m26.877 55.193c-34.211 5.5123-69.172 9.723-105.12 12.221-0.11275 8e-3 -0.22552 0.0157-0.33829 0.0235m125.48 12.752c-33.673 5.4262-68.073 9.5914-103.43 12.104m125.32 12.589c-33.626 5.4703-67.975 9.6884-103.27 12.263m125.81 12.321c-33.784 5.5651-68.294 9.8735-103.76 12.527m102.93 14.978c-26.572 4.0343-53.609 7.2639-81.218 9.4993m49.582 22.21c-9.1178 0.98051-18.296 1.857-27.537 2.6225m40.625-15.363-15.626-1.4743 27.643-11.057m-719.89-213.35c129.04 202.31 110.49 391.09 29.078 558.57m-22.167-677.11c211.43 263.85 187.39 526.87 72.807 741.46m23.227 36.982c127.57-228.18 159.32-517.65-64.978-799.22m-30.94 20.857c211.32 263.77 187.28 526.79 73.073 741.74m-41.833-762.71c224 281.68 192.24 571.15 64.817 798.82m-140.84-654.99s9.291 14.995 24.328 10.107c15.34-4.9862 32.146-55.047 30.672-80.107-1.4679-24.957-15-65-15-70s1.9086-14.691 1.9086-34.691c0-30-31.909-45.309-34.073-2.5269-0.62681 12.392 2.164 17.218 7.164 32.218m0 0c-0.67582 4.5517-10 15-10 20 0 20 8.2864 22.809 8.2864 22.809m-113.29-5.3091a52.5 17.5 0 0 1 52.5-17.5 52.5 17.5 0 0 1 52.5 17.5 52.5 17.5 0 0 1-52.5 17.5 52.5 17.5 0 0 1-52.5-17.5m0 32.5v0c0-7.2633 13.907-13.493 33.71-16.141m40.126-0.30605c21.099 2.447 36.163 8.8871 36.163 16.447 0 9.665-24.624 17.5-55 17.5s-55-7.835-55-17.5m0 35a52.5 17.5 0 0 1 52.5-17.5 52.5 17.5 0 0 1 52.5 17.5 52.5 17.5 0 0 1-52.5 17.5 52.5 17.5 0 0 1-52.5-17.5m81.191 14.829c14.231 3.0227 23.809 8.685 23.809 15.171 0 9.665-21.266 17.5-47.5 17.5s-47.5-7.835-47.5-17.5c0-5.8703 7.8455-11.066 19.884-14.24m41.47-99.406-71.354-71.354m0.019528-205.15c97.534-3.248 187.03-31.277 264.98-94.855-22.418 93.966-78.453 175.54-264.81 209.08m-0.16597-94.219c80.508-2.6034 156.87-21.843 225.87-63.117-10.857 22.346-25.478 42.958-46.271 61.547-36.096 32.269-91.557 59.186-179.32 75.439m403.48-206.11c-67.521 142.03-56.413 233.16-83.784 267.38-20 25-55 30-55 0 0-35 34.9-14.626 35-10m120.15-260.26c-69.204 143.56-59.512 234.37-85.15 270.26-25 35-70 30-70 0m171.42-272.89c-70.646 145.04-61.358 236.26-86.417 272.89-65 95-110 35-110 0 0-75 90-50 85-10m127.67-265.49c-72.341 146.36-67.705 235.56-87.669 275.49-20 40-77.602 65.61-94.572 48.745m198.34-326.44c-73.481 147.67-68.699 237.57-88.763 277.69-20 40-64.5 68.136-85 55m189.86-334.9c-74.686 148.9-70.97 237.69-86.802 279.9-15 40-63.998 80.555-88.06 60m190.99-342.13c-75.72 150.32-68.162 241.76-84.868 283.88-21.121 53.251-54.565 85.898-82.248 66.013m183.21-352.06c-76.908 151.61-70.007 243.96-83.777 287.36-13.307 41.94-48.257 87.452-77.462 69.581m177.11-358.65c-77.812 152.62-69.804 245.36-79.837 289.94-8.1158 36.065-38.539 92.087-74.507 71.498m170.22-363.16c-78.666 153.69-61.875 251.63-76.344 295.16-12.488 37.568-39.311 80.99-68.301 71.273m160.53-368.15c-79.667 154.67-60.427 249.28-68.044 294.69-6.6687 39.754-36.097 76.466-68.194 69.629m151.53-364.88c-80 155-52.502 250.82-63.085 295.68-6.915 29.316-28.079 68.333-57.542 65.65m135.63-361.33c-80 155-40.203 258.6-57.401 301.37-14.963 37.211-34.463 50.386-51.885 51.962m387.21-362.96c5.5526 19.875 17.077 62.039 17.077 69.63 0 10-10 40-10 55s-10 70-20 95-45 90-50 100-9.8091 39.563-24.809 44.563-50.191 20.437-65.191 10.437-20-15-30-15-30 5-45 0-85-15-90-30c-4.3793-13.209-10-20-12.377-37.814m57.377-207.19c38.334-16.373 66.186-53.253 135-10v0l-5 5c-36.119-35.307-82.46-18.225-130 5v0m285-10c-35-15-45-30-95 5v0c30-15 66.711-25.583 95-5v0m-95 5c-5.6154 2.7958-7.2582 21.124-5 30 2.4657 9.6912 15 50 15 60s8.9347 52.186 8.9347 57.186c0 10-18.935 17.814-33.935 17.814m-35-40c-20.808 1.7076-37.884 39.089 9.3165 31.367 30.015-4.9103 10.684-11.367-19.316-1.367m-35 40v15l10-10-10-5v0m110-5-5 10-10-5 15-5v0m-105 10c15 0 30-10 35-10s15 10 20 10 15-10 20-10 10 5 15 5m-55 30c10.017 10.832 40 15 40-10m-180-175c35 5 80-30 120-30m-80 25c-5 15 55 25 70 15s20-5 20-5m65.923-4.7345c20 0 52.332-22.8 70-25s20 10 20 10m-90.923 14.735c20 10 33.071 20 52.775 20 19.704 0 37.225-15 37.225-15m2.739-123.78c34.066 55.271 16.548 119.19 17.261 178.78 0.8771 16.276 15 10 20 5m-44.129-27.097c-13.191 78.847 64.129 69.14 64.129 27.097 0-40-40-25-40-5m-5 35c0 45 20 70 35 45m-66.742-47.322c-0.10916 88.183 94.804 106.82 86.742 42.322-5-40-50-20-49.354-3.3237m-50.936-7.2568c3.9825 49.733 43.724 72.867 75.29 60.581 18.663-7.2641 21.42-17.97 21.126-24.435m-109.74-10.339c8.1735 42.724 66.435 68.944 93.619 34.773m-103.04-17.02c9.2301 40.691 44.654 58.763 73.332 47.601 9.3772-3.7895 17.976-11.415 19.488-21.63m-101.29-10.206c11.128 36.612 44.521 52.456 71.806 41.836 10.08-3.9232 15.519-8.8503 18.345-13.571m-99.206-10.358c6.1486 37.142 80.063 56.922 91.04 18.908m19.69-379.78-34.261-0.76972c-20.572-0.46203-41.188-0.75012-61.848-0.83985-144.62-0.62811-291.43 8.5135-441.39 36.51l-25.623 4.783m-157.51-165.46 190.48 200c167.85-31.337 332.22-38.656 495-35l156.08-165m-568.75 571.73c96.126 49.651 189.63 68.816 274.62 56.068 92.087-13.813 172.42-65.876 230.71-150.23l3.6332-5.2579" fill="none" stroke="#44f" stroke-linecap="round" stroke-linejoin="round" stroke-width="6"/>
</g>
<g transform="matrix(.12677 0 0 .1304 -118.73 -167.61)">
<path d="m85 590c-4.7008 8.7251-5.1868 17.099 0 25m3.7101 6.8842c-4.7008 8.7251-5.1868 17.099 0 25m0 10c-4.7008 8.7251-5.1868 17.099 0 25m0 5c-4.7008 8.7251-5.1868 17.099 0 25m41.29-201.88c0 25 10 30 10 30m-89.072 57.5c-1.1305 2.5797-1.3389 5.774 0 10m0 23.024c-1.1305 2.5797-1.3389 5.774 0 10m0 24.476c-1.1305 2.5797-1.3389 5.774 0 10m0 25c-1.1305 2.5797-1.3389 5.774 0 10m0-13.841c-1.1305 2.5797-1.3389 5.774 0 10m674.07-206.16c25-10 40-10 50-5m-70-240c-30-20-60.951-7.2797-90 15m170 5c24.496-30.289 50.876-35.961 70-25m-162.46 8.604c5.7988 4.0092 9.6354 10.975 9.6354 18.896 0 12.426-9.4414 22.5-21.088 22.5s-21.088-10.074-21.088-22.5c0-3.2854 0.65995-6.4063 1.8461-9.22m191.28-6.541c6.9758 3.3991 11.876 11.415 11.876 20.761 0 12.426-8.6621 22.5-19.347 22.5s-19.347-10.074-19.347-22.5c0-3.8164 0.81704-7.4109 2.2588-10.56m6.4357 45.383c11.292 3.9688 26.1-0.36152 27.069-2.3235m-344.1 194.82c39.569 23.537 86.52 45.27 132.03 45.178m-124.63-56.734c40.103 24.126 88.119 46.828 134.63 46.734" fill="none" stroke="#44f" stroke-linecap="round" stroke-linejoin="round" stroke-width="3"/>
<g transform="matrix(.16667 0 0 .162 650 1e3)" stroke="#44f" stroke-linecap="round" stroke-linejoin="round" stroke-width="36">
<path d="M -400,0 C -350,0 0,-450 0,-500 0,-450 350,0 400,0 350,0 0,450 0,500 0,450 -350,0 -400,0 Z" fill="#f00"/>
</g>
<g transform="matrix(.03745 -.017754 .018265 .036401 894 598)">
<path d="M -400,0 C -350,0 0,-450 0,-500 0,-450 350,0 400,0 350,0 0,450 0,500 0,450 -350,0 -400,0 Z" fill="#f00"/>
</g>
<g transform="matrix(.038633 -.015172 .015609 .037551 852 623)">
<path d="M -400,0 C -350,0 0,-450 0,-500 0,-450 350,0 400,0 350,0 0,450 0,500 0,450 -350,0 -400,0 Z" fill="#f00"/>
</g>
<g transform="matrix(.040429 -.0097978 .01008 .039297 806 639)">
<path d="M -400,0 C -350,0 0,-450 0,-500 0,-450 350,0 400,0 350,0 0,450 0,500 0,450 -350,0 -400,0 Z" fill="#f00"/>
</g>
<g transform="matrix(.041438 -.0042334 .0043554 .040278 757 650)">
<path d="M -400,0 C -350,0 0,-450 0,-500 0,-450 350,0 400,0 350,0 0,450 0,500 0,450 -350,0 -400,0 Z" fill="#f00"/>
</g>
<g transform="matrix(.041667 0 0 .0405 706 655)">
<path d="M -400,0 C -350,0 0,-450 0,-500 0,-450 350,0 400,0 350,0 0,450 0,500 0,450 -350,0 -400,0 Z" fill="#f00"/>
</g>
<g transform="matrix(.041508 .0035298 -.0036315 .040346 656 653)">
<path d="M -400,0 C -350,0 0,-450 0,-500 0,-450 350,0 400,0 350,0 0,450 0,500 0,450 -350,0 -400,0 Z" fill="#f00"/>
</g>
<g transform="matrix(.041034 .0070328 -.0072353 .039885 607 647)">
<path d="M -400,0 C -350,0 0,-450 0,-500 0,-450 350,0 400,0 350,0 0,450 0,500 0,450 -350,0 -400,0 Z" fill="#f00"/>
</g>
<g transform="matrix(.040247 .010482 -.010784 .03912 560 637)">
<path d="M -400,0 C -350,0 0,-450 0,-500 0,-450 350,0 400,0 350,0 0,450 0,500 0,450 -350,0 -400,0 Z" fill="#f00"/>
</g>
</g>
<g transform="matrix(-.12677 0 0 -.1304 46.068 93.191)">
<path d="m85 590c-4.7008 8.7251-5.1868 17.099 0 25m3.7101 6.8842c-4.7008 8.7251-5.1868 17.099 0 25m0 10c-4.7008 8.7251-5.1868 17.099 0 25m0 5c-4.7008 8.7251-5.1868 17.099 0 25m41.29-201.88c0 25 10 30 10 30m-89.072 57.5c-1.1305 2.5797-1.3389 5.774 0 10m0 23.024c-1.1305 2.5797-1.3389 5.774 0 10m0 24.476c-1.1305 2.5797-1.3389 5.774 0 10m0 25c-1.1305 2.5797-1.3389 5.774 0 10m0-13.841c-1.1305 2.5797-1.3389 5.774 0 10m674.07-206.16c25-10 40-10 50-5m-70-240c-30-20-60.951-7.2797-90 15m170 5c24.496-30.289 50.876-35.961 70-25m-162.46 8.604c5.7988 4.0092 9.6354 10.975 9.6354 18.896 0 12.426-9.4414 22.5-21.088 22.5s-21.088-10.074-21.088-22.5c0-3.2854 0.65995-6.4063 1.8461-9.22m191.28-6.541c6.9758 3.3991 11.876 11.415 11.876 20.761 0 12.426-8.6621 22.5-19.347 22.5s-19.347-10.074-19.347-22.5c0-3.8164 0.81704-7.4109 2.2588-10.56m6.4357 45.383c11.292 3.9688 26.1-0.36152 27.069-2.3235m-344.1 194.82c39.569 23.537 86.52 45.27 132.03 45.178m-124.63-56.734c40.103 24.126 88.119 46.828 134.63 46.734" fill="none" stroke="#44f" stroke-linecap="round" stroke-linejoin="round" stroke-width="3"/>
<g transform="matrix(.16667 0 0 .162 650 1e3)" stroke="#44f" stroke-linecap="round" stroke-linejoin="round" stroke-width="36">
<path d="M -400,0 C -350,0 0,-450 0,-500 0,-450 350,0 400,0 350,0 0,450 0,500 0,450 -350,0 -400,0 Z" fill="#f00"/>
</g>
<g transform="matrix(.03745 -.017754 .018265 .036401 894 598)">
<path d="M -400,0 C -350,0 0,-450 0,-500 0,-450 350,0 400,0 350,0 0,450 0,500 0,450 -350,0 -400,0 Z" fill="#f00"/>
</g>
<g transform="matrix(.038633 -.015172 .015609 .037551 852 623)">
<path d="M -400,0 C -350,0 0,-450 0,-500 0,-450 350,0 400,0 350,0 0,450 0,500 0,450 -350,0 -400,0 Z" fill="#f00"/>
</g>
<g transform="matrix(.040429 -.0097978 .01008 .039297 806 639)">
<path d="M -400,0 C -350,0 0,-450 0,-500 0,-450 350,0 400,0 350,0 0,450 0,500 0,450 -350,0 -400,0 Z" fill="#f00"/>
</g>
<g transform="matrix(.041438 -.0042334 .0043554 .040278 757 650)">
<path d="M -400,0 C -350,0 0,-450 0,-500 0,-450 350,0 400,0 350,0 0,450 0,500 0,450 -350,0 -400,0 Z" fill="#f00"/>
</g>
<g transform="matrix(.041667 0 0 .0405 706 655)">
<path d="M -400,0 C -350,0 0,-450 0,-500 0,-450 350,0 400,0 350,0 0,450 0,500 0,450 -350,0 -400,0 Z" fill="#f00"/>
</g>
<g transform="matrix(.041508 .0035298 -.0036315 .040346 656 653)">
<path d="M -400,0 C -350,0 0,-450 0,-500 0,-450 350,0 400,0 350,0 0,450 0,500 0,450 -350,0 -400,0 Z" fill="#f00"/>
</g>
<g transform="matrix(.041034 .0070328 -.0072353 .039885 607 647)">
<path d="M -400,0 C -350,0 0,-450 0,-500 0,-450 350,0 400,0 350,0 0,450 0,500 0,450 -350,0 -400,0 Z" fill="#f00"/>
</g>
<g transform="matrix(.040247 .010482 -.010784 .03912 560 637)">
<path d="M -400,0 C -350,0 0,-450 0,-500 0,-450 350,0 400,0 350,0 0,450 0,500 0,450 -350,0 -400,0 Z" fill="#f00"/>
</g>
</g>
</svg>
