<?xml version="1.0" encoding="UTF-8"?>
<svg width="100%" height="100%" version="1.1" viewBox="-120 -168 165.58 261.58" xmlns="http://www.w3.org/2000/svg">
<g transform="matrix(.12677 0 0 .1304 -119.61 -164.86)">
<path d="m315.88 799.27c-12.562 0-24.692 1.8535-36.105 5.3711-0.48214 27.81-0.56402 55.373-0.33008 82.758-30.264 3.3286-59.226 9.7106-87.205 18.668-0.91775 6.0368-1.3594 12.068-1.3594 18.203 0 19.372 4.4073 37.715 12.396 53.82 85.715-21.842 147.42-22.492 227.93-6.0117 6.3007-14.68 9.6777-30.85 9.6777-47.809 0-9.4188-1.041-18.594-3.0996-27.301-28.568-6.2893-55.929-10.094-82.244-11.602-1.1702-27.087-2.7561-54.122-4.6953-81.094-11.011-3.2616-22.783-5.0039-34.961-5.0039zm-0.88477 65.727a15 15 0 0 1 15 15 15 15 0 0 1-15 15 15 15 0 0 1-15-15 15 15 0 0 1 15-15zm-50 45a15 15 0 0 1 15 15 15 15 0 0 1-15 15 15 15 0 0 1-15-15 15 15 0 0 1 15-15zm100 0a15 15 0 0 1 15 15 15 15 0 0 1-15 15 15 15 0 0 1-15-15 15 15 0 0 1 15-15zm-79.758-106.8a30.653 27.5 0 0 1-0.01-0.69971 30.653 27.5 0 0 1 30.653-27.5 30.653 27.5 0 0 1 30.653 27.5 30.653 27.5 0 0 1-0.0111 0.74119m-43.191-25.278c-3.1693-14.247-13.936-52.03-38.336-47.964-23.937 3.9895-41.639 59.017-20 70 16.945 8.6006 16.09-46.872 35-45 9.3526 0.92609 13.581 21.494 14.691 28.027m31.247-6.473c1.5073-26.148 5.6755-51.769 14.062-76.554l-25-30-25 30c8.4491 24.971 12.617 50.791 14.095 77.143m31.469 4.4463c1.424-7.6783 5.6888-25.724 14.435-26.59 18.91-1.8725 18.055 53.601 35 45 21.639-10.983 3.9368-66.011-20-70-24.002-4.0003-34.812 32.494-38.175 47.247m365.23 188.69c16.95-40.089-11.834-60.112-42.055-60.699-30.221 0.58749-59.004 20.61-42.055 60.699-45-34.547-65.377 2.234-65.636 34.062 0.25909 31.828 20.636 68.61 65.636 34.062-16.95 40.089 11.834 60.112 42.055 60.699 30.221-0.5874 59.004-20.61 42.055-60.699 45 34.547 65.377-2.234 65.636-34.062-0.25909-31.828-20.636-68.61-65.636-34.062zm-66.722-55.4c-1.2905-7.8721-2.5997-15.699-3.9277-23.484 1.3303 7.7877 2.6481 15.604 3.9414 23.479zm124.39 49.792 56.495-0.44198c0.75351-109.53 18.217-216.81 78.238-318.93l-163.81 78.676-154.5-69.477c-9.7476-29.54-20.637-57.824-32.992-84.678l-34.475-2.5977c41.321 84.043 67.265 185.87 87.854 299.42-30.212-83.707-76.693-146.8-135.99-190.55-57.095-42.122-124.88-65.967-198.72-76.393-16.482 7.7373-33.214 16.435-49.742 25.709 182 10.664 321.31 95.862 372.76 308.34 60.163-39.408 136.2-35.737 174.89 30.92zm-139.94-137.12c0.12821 0.65669 0.25896 1.3113 0.38672 1.9688-0.1277-0.65764-0.25858-1.3119-0.38672-1.9688zm3.334 17.41c0.18997 1.0129 0.37739 2.0323 0.56641 3.0469-0.18888-1.0148-0.37657-2.0338-0.56641-3.0469zm2.6934 14.621c0.35073 1.93 0.70122 3.861 1.0488 5.7969-0.34737-1.9367-0.69832-3.8661-1.0488-5.7969zm1.7227 9.5996c1.2277 6.8899 2.4365 13.817 3.6289 20.779-1.1912-6.965-2.4022-13.887-3.6289-20.779zm597.39 190.1a25 25 0 0 1 10.082 20.061 25 25 0 0 1-25 25 25 25 0 0 1-25-25 25 25 0 0 1 14.281-22.585m70.719-17.415a47.5 20 0 0 1-47.5 20 47.5 20 0 0 1-47.5-20 47.5 20 0 0 1 47.5-20 47.5 20 0 0 1 47.5 20zm-155-175c0-20 40-32.707 40 0 0 7.4529-10 7.5327-10 0 0-5-9.929-5.1239-10 5-0.2467 34.999 65-10 75-20 10 10 75.247 54.999 75 20-0.071-10.124-10-10-10-5 0 7.5327-10 7.4529-10 0 0-32.707 40-20 40 0 0 50-85 27.6-95 15-10 12.6-95 35-95-15zm-143.49-321.13-37.137-0.56692-204.8 98.606-166.84-75.381c-4.2092 1.5091-10.029 2.4851-17.731 3.4704l9.1773 25.88 175.82 79.12 218.71-105.45c7.3233-8.7499 14.87-17.238 22.798-25.678zm-646.83-562.95c55.011 81.034 88.648 134.92 113.4 184.05 187.31-23.752 340.51-19.215 490.88 1.2718 18.165-39.343 46.776-87.051 102.71-164.13m-215.4 962.89-58.252 3e-5 6.2176 15h51.22zm-254.3 7e-5 -59.368-2e-5 -0.09529 15h52.346z" fill="#fc4"/>
</g>
<g transform="matrix(-.12677 0 0 -.1304 45.189 95.94)">
<path d="m315.88 799.27c-12.562 0-24.692 1.8535-36.105 5.3711-0.48214 27.81-0.56402 55.373-0.33008 82.758-30.264 3.3286-59.226 9.7106-87.205 18.668-0.91775 6.0368-1.3594 12.068-1.3594 18.203 0 19.372 4.4073 37.715 12.396 53.82 85.715-21.842 147.42-22.492 227.93-6.0117 6.3007-14.68 9.6777-30.85 9.6777-47.809 0-9.4188-1.041-18.594-3.0996-27.301-28.568-6.2893-55.929-10.094-82.244-11.602-1.1702-27.087-2.7561-54.122-4.6953-81.094-11.011-3.2616-22.783-5.0039-34.961-5.0039zm-0.88477 65.727a15 15 0 0 1 15 15 15 15 0 0 1-15 15 15 15 0 0 1-15-15 15 15 0 0 1 15-15zm-50 45a15 15 0 0 1 15 15 15 15 0 0 1-15 15 15 15 0 0 1-15-15 15 15 0 0 1 15-15zm100 0a15 15 0 0 1 15 15 15 15 0 0 1-15 15 15 15 0 0 1-15-15 15 15 0 0 1 15-15zm-79.758-106.8a30.653 27.5 0 0 1-0.01-0.69971 30.653 27.5 0 0 1 30.653-27.5 30.653 27.5 0 0 1 30.653 27.5 30.653 27.5 0 0 1-0.0111 0.74119m-43.191-25.278c-3.1693-14.247-13.936-52.03-38.336-47.964-23.937 3.9895-41.639 59.017-20 70 16.945 8.6006 16.09-46.872 35-45 9.3526 0.92609 13.581 21.494 14.691 28.027m31.247-6.473c1.5073-26.148 5.6755-51.769 14.062-76.554l-25-30-25 30c8.4491 24.971 12.617 50.791 14.095 77.143m31.469 4.4463c1.424-7.6783 5.6888-25.724 14.435-26.59 18.91-1.8725 18.055 53.601 35 45 21.639-10.983 3.9368-66.011-20-70-24.002-4.0003-34.812 32.494-38.175 47.247m365.23 188.69c16.95-40.089-11.834-60.112-42.055-60.699-30.221 0.58749-59.004 20.61-42.055 60.699-45-34.547-65.377 2.234-65.636 34.062 0.25909 31.828 20.636 68.61 65.636 34.062-16.95 40.089 11.834 60.112 42.055 60.699 30.221-0.5874 59.004-20.61 42.055-60.699 45 34.547 65.377-2.234 65.636-34.062-0.25909-31.828-20.636-68.61-65.636-34.062zm-66.722-55.4c-1.2905-7.8721-2.5997-15.699-3.9277-23.484 1.3303 7.7877 2.6481 15.604 3.9414 23.479zm124.39 49.792 56.495-0.44198c0.75351-109.53 18.217-216.81 78.238-318.93l-163.81 78.676-154.5-69.477c-9.7476-29.54-20.637-57.824-32.992-84.678l-34.475-2.5977c41.321 84.043 67.265 185.87 87.854 299.42-30.212-83.707-76.693-146.8-135.99-190.55-57.095-42.122-124.88-65.967-198.72-76.393-16.482 7.7373-33.214 16.435-49.742 25.709 182 10.664 321.31 95.862 372.76 308.34 60.163-39.408 136.2-35.737 174.89 30.92zm-139.94-137.12c0.12821 0.65669 0.25896 1.3113 0.38672 1.9688-0.1277-0.65764-0.25858-1.3119-0.38672-1.9688zm3.334 17.41c0.18997 1.0129 0.37739 2.0323 0.56641 3.0469-0.18888-1.0148-0.37657-2.0338-0.56641-3.0469zm2.6934 14.621c0.35073 1.93 0.70122 3.861 1.0488 5.7969-0.34737-1.9367-0.69832-3.8661-1.0488-5.7969zm1.7227 9.5996c1.2277 6.8899 2.4365 13.817 3.6289 20.779-1.1912-6.965-2.4022-13.887-3.6289-20.779zm597.39 190.1a25 25 0 0 1 10.082 20.061 25 25 0 0 1-25 25 25 25 0 0 1-25-25 25 25 0 0 1 14.281-22.585m70.719-17.415a47.5 20 0 0 1-47.5 20 47.5 20 0 0 1-47.5-20 47.5 20 0 0 1 47.5-20 47.5 20 0 0 1 47.5 20zm-155-175c0-20 40-32.707 40 0 0 7.4529-10 7.5327-10 0 0-5-9.929-5.1239-10 5-0.2467 34.999 65-10 75-20 10 10 75.247 54.999 75 20-0.071-10.124-10-10-10-5 0 7.5327-10 7.4529-10 0 0-32.707 40-20 40 0 0 50-85 27.6-95 15-10 12.6-95 35-95-15zm-143.49-321.13-37.137-0.56692-204.8 98.606-166.84-75.381c-4.2092 1.5091-10.029 2.4851-17.731 3.4704l9.1773 25.88 175.82 79.12 218.71-105.45c7.3233-8.7499 14.87-17.238 22.798-25.678zm-646.83-562.95c55.011 81.034 88.648 134.92 113.4 184.05 187.31-23.752 340.51-19.215 490.88 1.2718 18.165-39.343 46.776-87.051 102.71-164.13m-215.4 962.89-58.252 3e-5 6.2176 15h51.22zm-254.3 7e-5 -59.368-2e-5 -0.09529 15h52.346z" fill="#fc4"/>
</g>
<g transform="matrix(.12677 0 0 .1304 -119.61 -164.86)">
<path d="m330 835a15 15 0 0 1-15 15 15 15 0 0 1-15-15 15 15 0 0 1 15-15 15 15 0 0 1 15 15zm0 90a15 15 0 0 1-15 15 15 15 0 0 1-15-15 15 15 0 0 1 15-15 15 15 0 0 1 15 15zm-95 10a15 15 0 0 1-15 15 15 15 0 0 1-15-15 15 15 0 0 1 15-15 15 15 0 0 1 15 15zm190-5a15 15 0 0 1-15 15 15 15 0 0 1-15-15 15 15 0 0 1 15-15 15 15 0 0 1 15 15zm-285.18 15.306c7.6202 3.7179 15.839 8.658 23.19 14.922l33.176-0.0484c-3.4534-11.245-5.3016-23.36-5.3016-35.905 1e-5 -58.338 39.964-107.34 94.008-121.13l0.34879 0.0536c-7e-3 -0.23319-0.01-0.46645-0.01-0.69971 0-7.8168 3.6352-14.872 9.4652-19.676-1.1168-6.3301-5.345-26.898-14.698-27.824-18.91-1.8725-18.055 53.601-35 45-21.639-10.983-3.9368-66.011 20-70 24.4-4.0667 35.167 33.716 38.336 47.964l0.75922-0.82016c-1.4784-26.353-5.646-52.173-14.095-77.143l25-30 25 30c-8.3862 24.785-12.554 50.406-14.062 76.554l0.88699 0.69325c3.3631-14.753 14.173-51.248 38.175-47.247 23.937 3.9895 41.639 59.017 20 70-16.945 8.6006-16.09-46.872-35-45-8.7467 0.86608-13.011 18.911-14.708 26.302 6.7488 4.7514 11.246 12.504 11.246 21.198 0 0-4e-3 0.49418 0.33492 0.73756 54.217 13.902 94.012 62.822 94.012 121.04 0 12.296-1.7754 24.177-5.1779 35.564l24.588 0.16215-0.0343-241.33c-67.099-62.058-155.93-91.59-258.1-97.65-21.19 11.91-42.063 24.819-62.295 38.421l0.1338 280.56zm460.25 54.694a20 20 0 0 1-20 20 20 20 0 0 1-20-20 20 20 0 0 1 20-20 20 20 0 0 1 20 20zm69.926-55.829a20 20 0 0 1-20 20 20 20 0 0 1-20-20 20 20 0 0 1 20-20 20 20 0 0 1 20 20zm-177.72 30.287c0.90253 16.641 1.104 34.162 1.1485 50.803l53.451-0.3407c-3.0262-7.7454-4.5006-16.506-4.5691-24.92 0.0701-8.6149 1.6141-17.593 4.7451-25.429m402.44-18.974c-40.89 11.85-72.976 43.679-85.452 84.269l-38.424 0.1269c-9.3137-175.27 7.1034-342.09 153.56-494.67l95.939 35.134c-106.99 118.02-131.23 241.74-125.62 375.14zm-80.306-419.76 55.182 2.4656-204.8 98.606-167.21-75.257c4.8025-1.4899 8.3642-3.5846 12.055-6.7596 20.586 25.107 50.586 5.1065 50.586-19.893 10 30 15 40 39.615 43.97 28.317-1.1685 56.271-2.887 77.742-14.417 16.018 6.9563 33.704 5.1184 42.247-4.0345 29.608 4.6956 64.647-11.968 69.86-23.703 8.3641 1.2774 17.089 1.0432 24.724-0.97667zm-484.12-452.04c10.924 7.5349 23.026 14.089 36.414 17.193 3.2668 10.612 6.9099 23.055 14.428 36.765 3.7266 6.7957 8.6588 13.439 14.083 19.651 56.069-6.6311 109.77-10.662 161.31-12.313 10.983-14.435 19.109-32.141 23.045-52.675 9.5339-4.3688 17.877-10.464 24.628-17.581 6.3342 7.5092 14.316 14.094 23.585 19.026 2.5502 19.152 8.8061 36.11 17.092 50.458 62.52 0.99603 122.87 5.5096 182.23 12.897 1.0366-1.0502 2.1718-2.2831 3.2788-3.5597 13.508-15.578 21.043-36.194 22.979-60.173 26.421-5.6088 46.231-13.179 61.298-20.946-37.415 57.321-54.087 93.091-66.473 127.9-140.51-18.324-283.07-22.316-457.02-2.2408-15.705-36.131-34.098-70.825-60.879-114.4z" fill="#f00"/>
</g>
<g transform="matrix(-.12677 0 0 -.1304 45.189 95.94)">
<path d="m330 835a15 15 0 0 1-15 15 15 15 0 0 1-15-15 15 15 0 0 1 15-15 15 15 0 0 1 15 15zm0 90a15 15 0 0 1-15 15 15 15 0 0 1-15-15 15 15 0 0 1 15-15 15 15 0 0 1 15 15zm-95 10a15 15 0 0 1-15 15 15 15 0 0 1-15-15 15 15 0 0 1 15-15 15 15 0 0 1 15 15zm190-5a15 15 0 0 1-15 15 15 15 0 0 1-15-15 15 15 0 0 1 15-15 15 15 0 0 1 15 15zm-285.18 15.306c7.6202 3.7179 15.839 8.658 23.19 14.922l33.176-0.0484c-3.4534-11.245-5.3016-23.36-5.3016-35.905 1e-5 -58.338 39.964-107.34 94.008-121.13l0.34879 0.0536c-7e-3 -0.23319-0.01-0.46645-0.01-0.69971 0-7.8168 3.6352-14.872 9.4652-19.676-1.1168-6.3301-5.345-26.898-14.698-27.824-18.91-1.8725-18.055 53.601-35 45-21.639-10.983-3.9368-66.011 20-70 24.4-4.0667 35.167 33.716 38.336 47.964l0.75922-0.82016c-1.4784-26.353-5.646-52.173-14.095-77.143l25-30 25 30c-8.3862 24.785-12.554 50.406-14.062 76.554l0.88699 0.69325c3.3631-14.753 14.173-51.248 38.175-47.247 23.937 3.9895 41.639 59.017 20 70-16.945 8.6006-16.09-46.872-35-45-8.7467 0.86608-13.011 18.911-14.708 26.302 6.7488 4.7514 11.246 12.504 11.246 21.198 0 0-4e-3 0.49418 0.33492 0.73756 54.217 13.902 94.012 62.822 94.012 121.04 0 12.296-1.7754 24.177-5.1779 35.564l24.588 0.16215-0.0343-241.33c-67.099-62.058-155.93-91.59-258.1-97.65-21.19 11.91-42.063 24.819-62.295 38.421l0.1338 280.56zm460.25 54.694a20 20 0 0 1-20 20 20 20 0 0 1-20-20 20 20 0 0 1 20-20 20 20 0 0 1 20 20zm69.926-55.829a20 20 0 0 1-20 20 20 20 0 0 1-20-20 20 20 0 0 1 20-20 20 20 0 0 1 20 20zm-177.72 30.287c0.90253 16.641 1.104 34.162 1.1485 50.803l53.451-0.3407c-3.0262-7.7454-4.5006-16.506-4.5691-24.92 0.0701-8.6149 1.6141-17.593 4.7451-25.429m402.44-18.974c-40.89 11.85-72.976 43.679-85.452 84.269l-38.424 0.1269c-9.3137-175.27 7.1034-342.09 153.56-494.67l95.939 35.134c-106.99 118.02-131.23 241.74-125.62 375.14zm-80.306-419.76 55.182 2.4656-204.8 98.606-167.21-75.257c4.8025-1.4899 8.3642-3.5846 12.055-6.7596 20.586 25.107 50.586 5.1065 50.586-19.893 10 30 15 40 39.615 43.97 28.317-1.1685 56.271-2.887 77.742-14.417 16.018 6.9563 33.704 5.1184 42.247-4.0345 29.608 4.6956 64.647-11.968 69.86-23.703 8.3641 1.2774 17.089 1.0432 24.724-0.97667zm-484.12-452.04c10.924 7.5349 23.026 14.089 36.414 17.193 3.2668 10.612 6.9099 23.055 14.428 36.765 3.7266 6.7957 8.6588 13.439 14.083 19.651 56.069-6.6311 109.77-10.662 161.31-12.313 10.983-14.435 19.109-32.141 23.045-52.675 9.5339-4.3688 17.877-10.464 24.628-17.581 6.3342 7.5092 14.316 14.094 23.585 19.026 2.5502 19.152 8.8061 36.11 17.092 50.458 62.52 0.99603 122.87 5.5096 182.23 12.897 1.0366-1.0502 2.1718-2.2831 3.2788-3.5597 13.508-15.578 21.043-36.194 22.979-60.173 26.421-5.6088 46.231-13.179 61.298-20.946-37.415 57.321-54.087 93.091-66.473 127.9-140.51-18.324-283.07-22.316-457.02-2.2408-15.705-36.131-34.098-70.825-60.879-114.4z" fill="#f00"/>
</g>
<g transform="matrix(.12677 0 0 .1304 -119.61 -164.86)">
<path d="m1200 135c-0.037 15.315 1.7168 33.768 1.7168 48.768s-15 62.053-15 77.053 10.484 45.412 10.484 65.412-16.307 64.104-16.307 84.104 15.559 56.307 15.559 76.307-10.559 45-10.559 65 13.842 48.621 13.842 73.621-18.842 55.895-18.842 75.895 9.8125 29.178 9.8125 54.178c0 23.257-10.175 80.864-10.748 104.86l20.449-14.576c1.9077-27.812 7.8315-71.454 7.3008-90.895-0.6821-24.991-10.74-33.898-11.285-53.891-0.5457-19.993 17.448-51.39 16.766-76.381-0.6821-24.991-15.302-53.224-15.848-73.217-0.5457-19.993 9.3269-45.271 8.7812-65.264-0.5457-19.993-17.089-55.859-17.635-75.852s14.552-64.527 14.006-84.52-11.856-50.105-12.266-65.1 13.302-62.439 12.893-77.434c-0.4092-14.994-2.6746-33.393-3.1211-48.072zm-547.74 159.03a10 17.5 0 0 0-10 17.5 10 17.5 0 0 0 10 17.5 10 17.5 0 0 0 10-17.5 10 17.5 0 0 0-10-17.5zm-150.04 5.1738a10 17.5 0 0 0-10 17.5 10 17.5 0 0 0 10 17.5 10 17.5 0 0 0 10-17.5 10 17.5 0 0 0-10-17.5zm47.785 120.8c-30 10-25 25-45 30l-0.53516 0.98633c14.603-0.02269 30.535-18.888 45.535-20.986zm50 0v10c32.317 0 45.721 21.485 67.297 20.986l-0.79102-0.98633c-29.558-5-14.408-25-66.506-30zm526 179.06c-110.18 112.44-133.56 223.16-127.12 352.56 49.771 5.7388 90.761 41.014 104.75 88.152l33.434 0.1543c-17.282-14.441-32.059-36.508-32.059-69.93 0-65 45-75 55-75 10.714 0 19.736 7.6457 25.881 18.133 3.5566-5.1982 14.418-10.991 32.49-14.863 66.707-14.294 60.623 22.506 20.529 29.049 36.973-3.5065 38.855 15.323 19.522 26.08 21.321 5.5626 13.378 23.555-10.728 29.428 31.239 4.0955 17.127 31.041-17.062 32.982 17.353 3.7677 29.369 10.889 29.369 19.191 0 1.8342-0.5859 3.61-1.627 5.1484l41.627-0.1191v-377.36l-55-20.164-0.1035 230.91c16.051 6.8256 30.219 7.9284 30.104-8.416-0.071-10.124-10-10-10-5 0 7.5327-10 7.4529-10 0 0-32.707 40-20 40 0 0 50-85 27.6-95 15-4.2058 5.2991-21.68 12.326-40.516 14.977-0.2694 0.0379-0.5387 0.0752-0.8086 0.11133-1.1328 0.15153-2.2694 0.29216-3.4082 0.41016-24.727 2.5618-50.268-3.0907-50.268-30.498 0-20 40-32.707 40 0 0 7.4529-10 7.5327-10 0 0-5-9.929-5.1239-10 5-0.1137 16.128 13.68 15.268 29.783 8.5508l0.2168-264.34zm112.9 328.26c-1.9692 0.18676-4.0112 0.4201-6.1816 0.73828 2.1404-0.16576 4.2022-0.41523 6.1816-0.73828zm-778.73-208.73-0.27735 241.41 90.754 0.07227 24.672-30.822c-22.643-93.147-62.249-161.87-115.15-210.66zm362.21 5.3281a10 10 0 0 0-10 10 10 10 0 0 0 10 10 10 10 0 0 0 10-10 10 10 0 0 0-10-10zm-202.38 11.084a10 10 0 0 0-10 10 10 10 0 0 0 10 10 10 10 0 0 0 10-10 10 10 0 0 0-10-10zm48.029 3.2832a10 10 0 0 0-10 10 10 10 0 0 0 10 10 10 10 0 0 0 10-10 10 10 0 0 0-10-10zm109.61 1.2324a10 10 0 0 0-10 10 10 10 0 0 0 10 10 10 10 0 0 0 10-10 10 10 0 0 0-10-10zm-76.764 15.189a10 10 0 0 0-10 10 10 10 0 0 0 10 10 10 10 0 0 0 10-10 10 10 0 0 0-10-10zm45.154 2.0527a10 10 0 0 0-10 10 10 10 0 0 0 10 10 10 10 0 0 0 10-10 10 10 0 0 0-10-10zm-693.53 15.742a7.5 7.5 0 0 0-7.5 7.5 7.5 7.5 0 0 0 7.5 7.5 7.5 7.5 0 0 0 7.5-7.5 7.5 7.5 0 0 0-7.5-7.5zm430 10c6.9036 0 12.5 5.5964 12.5 12.5s-5.5964 12.5-12.5 12.5-12.5-5.5964-12.5-12.5 5.5964-12.5 12.5-12.5zm144.89 3.4023a10 10 0 0 0-10 10 10 10 0 0 0 10 10 10 10 0 0 0 10-10 10 10 0 0 0-10-10zm154.76 2.875a10 10 0 0 0-10 10 10 10 0 0 0 10 10 10 10 0 0 0 10-10 10 10 0 0 0-10-10zm-111.66 0.82032a10 10 0 0 0-10 10 10 10 0 0 0 10 10 10 10 0 0 0 10-10 10 10 0 0 0-10-10zm-632.99 0.40234a7.5 7.5 0 0 0-7.5 7.5 7.5 7.5 0 0 0 7.5 7.5 7.5 7.5 0 0 0 7.5-7.5 7.5 7.5 0 0 0-7.5-7.5zm35 2.5a7.5 7.5 0 0 0-7.5 7.5 7.5 7.5 0 0 0 7.5 7.5 7.5 7.5 0 0 0 7.5-7.5 7.5 7.5 0 0 0-7.5-7.5zm-17.5 12.5-25 75 15-15 10 30 5-30 10 15zm648.33 1.0176a10 10 0 0 0-10 10 10 10 0 0 0 10 10 10 10 0 0 0 10-10 10 10 0 0 0-10-10zm47.207 0a10 10 0 0 0-10 10 10 10 0 0 0 10 10 10 10 0 0 0 10-10 10 10 0 0 0-10-10zm-373.89 9.0039c0.99694 15.698 1.9102 31.454 2.7246 47.219 15.947 1.6343 32.21 4.0458 48.732 7.0352-11.308-23.03-29.273-41.879-51.457-54.254zm-122.12 0.41602c-24.402 13.713-43.634 35.351-54.459 61.779 17.57-4.5658 35.727-8.5692 54.344-11.539-0.0358-16.674 0.0135-33.4 0.11524-50.24zm267.97 12.062c6.9036 0 12.5 5.5964 12.5 12.5s-5.5964 12.5-12.5 12.5-12.5-5.5964-12.5-12.5 5.5964-12.5 12.5-12.5zm110.23 13a10 10 0 0 0-10 10 10 10 0 0 0 10 10 10 10 0 0 0 10-10 10 10 0 0 0-10-10zm43.104 3.2852a10 10 0 0 0-10 10 10 10 0 0 0 10 10 10 10 0 0 0 10-10 10 10 0 0 0-10-10zm108.78 2.4629a10 10 0 0 0-10 10 10 10 0 0 0 10 10 10 10 0 0 0 10-10 10 10 0 0 0-10-10zm-75.943 13.957a10 10 0 0 0-10 10 10 10 0 0 0 10 10 10 10 0 0 0 10-10 10 10 0 0 0-10-10zm44.336 3.2852a10 10 0 0 0-10 10 10 10 0 0 0 10 10 10 10 0 0 0 10-10 10 10 0 0 0-10-10zm-438.01 1.5098a15 15 0 0 0-15 15 15 15 0 0 0 15 15 15 15 0 0 0 15-15 15 15 0 0 0-15-15zm167.5 2.5c6.9036 0 12.5 5.5964 12.5 12.5s-5.5964 12.5-12.5 12.5-12.5-5.5964-12.5-12.5 5.5964-12.5 12.5-12.5zm-170.46 2.4414a6.0259 6.0742 0 0 1 6.0273 6.0742 6.0259 6.0742 0 0 1-6.0273 6.0742 6.0259 6.0742 0 0 1-6.0254-6.0742 6.0259 6.0742 0 0 1 6.0254-6.0742zm477.91 22.693a10 10 0 0 0-10 10 10 10 0 0 0 10 10 10 10 0 0 0 10-10 10 10 0 0 0-10-10zm-111.66 6.5684a10 10 0 0 0-9.1055 5.8672l19.084 4.7832a10 10 0 0 0 0.0215-0.6504 10 10 0 0 0-10-10zm-140.79 5.7969c6.9036 0 12.5 5.5964 12.5 12.5s-5.5964 12.5-12.5 12.5-12.5-5.5964-12.5-12.5 5.5964-12.5 12.5-12.5zm220.84 4.877a10 10 0 0 0-10 10 10 10 0 0 0 10 10 10 10 0 0 0 10-10 10 10 0 0 0-10-10zm-493.34 0.12305a15 15 0 0 0-15 15 15 15 0 0 0 15 15 15 15 0 0 0 15-15 15 15 0 0 0-15-15zm100 0a15 15 0 0 0-15 15 15 15 0 0 0 15 15 15 15 0 0 0 15-15 15 15 0 0 0-15-15zm-3.3926 4.9414a6.0259 6.0742 0 0 1 6.0254 6.0742 6.0259 6.0742 0 0 1-6.0254 6.0742 6.0259 6.0742 0 0 1-6.0273-6.0742 6.0259 6.0742 0 0 1 6.0273-6.0742zm-100.58 0.05859a6.0259 6.0742 0 0 1 6.0273 6.0742 6.0259 6.0742 0 0 1-6.0273 6.0742 6.0259 6.0742 0 0 1-6.0254-6.0742 6.0259 6.0742 0 0 1 6.0254-6.0742zm450.11 0.62305a10 10 0 0 0-5.623 1.7324l15.465 10.043a10 10 0 0 0 0.1582-1.7754 10 10 0 0 0-10-10zm-385.54 69.748c-33.881 0.24625-68.068 5.0533-108.62 14.904 22.599 29.839 58.518 48.998 98.912 48.998 42.75 0 80.488-21.459 102.83-54.234-33.579-6.5524-63.236-9.8852-93.131-9.668z" fill="#44f"/>
</g>
<g transform="matrix(-.12677 0 0 -.1304 45.189 95.94)">
<path d="m1200 135c-0.037 15.315 1.7168 33.768 1.7168 48.768s-15 62.053-15 77.053 10.484 45.412 10.484 65.412-16.307 64.104-16.307 84.104 15.559 56.307 15.559 76.307-10.559 45-10.559 65 13.842 48.621 13.842 73.621-18.842 55.895-18.842 75.895 9.8125 29.178 9.8125 54.178c0 23.257-10.175 80.864-10.748 104.86l20.449-14.576c1.9077-27.812 7.8315-71.454 7.3008-90.895-0.6821-24.991-10.74-33.898-11.285-53.891-0.5457-19.993 17.448-51.39 16.766-76.381-0.6821-24.991-15.302-53.224-15.848-73.217-0.5457-19.993 9.3269-45.271 8.7812-65.264-0.5457-19.993-17.089-55.859-17.635-75.852s14.552-64.527 14.006-84.52-11.856-50.105-12.266-65.1 13.302-62.439 12.893-77.434c-0.4092-14.994-2.6746-33.393-3.1211-48.072zm-547.74 159.03a10 17.5 0 0 0-10 17.5 10 17.5 0 0 0 10 17.5 10 17.5 0 0 0 10-17.5 10 17.5 0 0 0-10-17.5zm-150.04 5.1738a10 17.5 0 0 0-10 17.5 10 17.5 0 0 0 10 17.5 10 17.5 0 0 0 10-17.5 10 17.5 0 0 0-10-17.5zm47.785 120.8c-30 10-25 25-45 30l-0.53516 0.98633c14.603-0.02269 30.535-18.888 45.535-20.986zm50 0v10c32.317 0 45.721 21.485 67.297 20.986l-0.79102-0.98633c-29.558-5-14.408-25-66.506-30zm526 179.06c-110.18 112.44-133.56 223.16-127.12 352.56 49.771 5.7388 90.761 41.014 104.75 88.152l33.434 0.1543c-17.282-14.441-32.059-36.508-32.059-69.93 0-65 45-75 55-75 10.714 0 19.736 7.6457 25.881 18.133 3.5566-5.1982 14.418-10.991 32.49-14.863 66.707-14.294 60.623 22.506 20.529 29.049 36.973-3.5065 38.855 15.323 19.522 26.08 21.321 5.5626 13.378 23.555-10.728 29.428 31.239 4.0955 17.127 31.041-17.062 32.982 17.353 3.7677 29.369 10.889 29.369 19.191 0 1.8342-0.5859 3.61-1.627 5.1484l41.627-0.1191v-377.36l-55-20.164-0.1035 230.91c16.051 6.8256 30.219 7.9284 30.104-8.416-0.071-10.124-10-10-10-5 0 7.5327-10 7.4529-10 0 0-32.707 40-20 40 0 0 50-85 27.6-95 15-4.2058 5.2991-21.68 12.326-40.516 14.977-0.2694 0.0379-0.5387 0.0752-0.8086 0.11133-1.1328 0.15153-2.2694 0.29216-3.4082 0.41016-24.727 2.5618-50.268-3.0907-50.268-30.498 0-20 40-32.707 40 0 0 7.4529-10 7.5327-10 0 0-5-9.929-5.1239-10 5-0.1137 16.128 13.68 15.268 29.783 8.5508l0.2168-264.34zm112.9 328.26c-1.9692 0.18676-4.0112 0.4201-6.1816 0.73828 2.1404-0.16576 4.2022-0.41523 6.1816-0.73828zm-778.73-208.73-0.27735 241.41 90.754 0.07227 24.672-30.822c-22.643-93.147-62.249-161.87-115.15-210.66zm362.21 5.3281a10 10 0 0 0-10 10 10 10 0 0 0 10 10 10 10 0 0 0 10-10 10 10 0 0 0-10-10zm-202.38 11.084a10 10 0 0 0-10 10 10 10 0 0 0 10 10 10 10 0 0 0 10-10 10 10 0 0 0-10-10zm48.029 3.2832a10 10 0 0 0-10 10 10 10 0 0 0 10 10 10 10 0 0 0 10-10 10 10 0 0 0-10-10zm109.61 1.2324a10 10 0 0 0-10 10 10 10 0 0 0 10 10 10 10 0 0 0 10-10 10 10 0 0 0-10-10zm-76.764 15.189a10 10 0 0 0-10 10 10 10 0 0 0 10 10 10 10 0 0 0 10-10 10 10 0 0 0-10-10zm45.154 2.0527a10 10 0 0 0-10 10 10 10 0 0 0 10 10 10 10 0 0 0 10-10 10 10 0 0 0-10-10zm-693.53 15.742a7.5 7.5 0 0 0-7.5 7.5 7.5 7.5 0 0 0 7.5 7.5 7.5 7.5 0 0 0 7.5-7.5 7.5 7.5 0 0 0-7.5-7.5zm430 10c6.9036 0 12.5 5.5964 12.5 12.5s-5.5964 12.5-12.5 12.5-12.5-5.5964-12.5-12.5 5.5964-12.5 12.5-12.5zm144.89 3.4023a10 10 0 0 0-10 10 10 10 0 0 0 10 10 10 10 0 0 0 10-10 10 10 0 0 0-10-10zm154.76 2.875a10 10 0 0 0-10 10 10 10 0 0 0 10 10 10 10 0 0 0 10-10 10 10 0 0 0-10-10zm-111.66 0.82032a10 10 0 0 0-10 10 10 10 0 0 0 10 10 10 10 0 0 0 10-10 10 10 0 0 0-10-10zm-632.99 0.40234a7.5 7.5 0 0 0-7.5 7.5 7.5 7.5 0 0 0 7.5 7.5 7.5 7.5 0 0 0 7.5-7.5 7.5 7.5 0 0 0-7.5-7.5zm35 2.5a7.5 7.5 0 0 0-7.5 7.5 7.5 7.5 0 0 0 7.5 7.5 7.5 7.5 0 0 0 7.5-7.5 7.5 7.5 0 0 0-7.5-7.5zm-17.5 12.5-25 75 15-15 10 30 5-30 10 15zm648.33 1.0176a10 10 0 0 0-10 10 10 10 0 0 0 10 10 10 10 0 0 0 10-10 10 10 0 0 0-10-10zm47.207 0a10 10 0 0 0-10 10 10 10 0 0 0 10 10 10 10 0 0 0 10-10 10 10 0 0 0-10-10zm-373.89 9.0039c0.99694 15.698 1.9102 31.454 2.7246 47.219 15.947 1.6343 32.21 4.0458 48.732 7.0352-11.308-23.03-29.273-41.879-51.457-54.254zm-122.12 0.41602c-24.402 13.713-43.634 35.351-54.459 61.779 17.57-4.5658 35.727-8.5692 54.344-11.539-0.0358-16.674 0.0135-33.4 0.11524-50.24zm267.97 12.062c6.9036 0 12.5 5.5964 12.5 12.5s-5.5964 12.5-12.5 12.5-12.5-5.5964-12.5-12.5 5.5964-12.5 12.5-12.5zm110.23 13a10 10 0 0 0-10 10 10 10 0 0 0 10 10 10 10 0 0 0 10-10 10 10 0 0 0-10-10zm43.104 3.2852a10 10 0 0 0-10 10 10 10 0 0 0 10 10 10 10 0 0 0 10-10 10 10 0 0 0-10-10zm108.78 2.4629a10 10 0 0 0-10 10 10 10 0 0 0 10 10 10 10 0 0 0 10-10 10 10 0 0 0-10-10zm-75.943 13.957a10 10 0 0 0-10 10 10 10 0 0 0 10 10 10 10 0 0 0 10-10 10 10 0 0 0-10-10zm44.336 3.2852a10 10 0 0 0-10 10 10 10 0 0 0 10 10 10 10 0 0 0 10-10 10 10 0 0 0-10-10zm-438.01 1.5098a15 15 0 0 0-15 15 15 15 0 0 0 15 15 15 15 0 0 0 15-15 15 15 0 0 0-15-15zm167.5 2.5c6.9036 0 12.5 5.5964 12.5 12.5s-5.5964 12.5-12.5 12.5-12.5-5.5964-12.5-12.5 5.5964-12.5 12.5-12.5zm-170.46 2.4414a6.0259 6.0742 0 0 1 6.0273 6.0742 6.0259 6.0742 0 0 1-6.0273 6.0742 6.0259 6.0742 0 0 1-6.0254-6.0742 6.0259 6.0742 0 0 1 6.0254-6.0742zm477.91 22.693a10 10 0 0 0-10 10 10 10 0 0 0 10 10 10 10 0 0 0 10-10 10 10 0 0 0-10-10zm-111.66 6.5684a10 10 0 0 0-9.1055 5.8672l19.084 4.7832a10 10 0 0 0 0.0215-0.6504 10 10 0 0 0-10-10zm-140.79 5.7969c6.9036 0 12.5 5.5964 12.5 12.5s-5.5964 12.5-12.5 12.5-12.5-5.5964-12.5-12.5 5.5964-12.5 12.5-12.5zm220.84 4.877a10 10 0 0 0-10 10 10 10 0 0 0 10 10 10 10 0 0 0 10-10 10 10 0 0 0-10-10zm-493.34 0.12305a15 15 0 0 0-15 15 15 15 0 0 0 15 15 15 15 0 0 0 15-15 15 15 0 0 0-15-15zm100 0a15 15 0 0 0-15 15 15 15 0 0 0 15 15 15 15 0 0 0 15-15 15 15 0 0 0-15-15zm-3.3926 4.9414a6.0259 6.0742 0 0 1 6.0254 6.0742 6.0259 6.0742 0 0 1-6.0254 6.0742 6.0259 6.0742 0 0 1-6.0273-6.0742 6.0259 6.0742 0 0 1 6.0273-6.0742zm-100.58 0.05859a6.0259 6.0742 0 0 1 6.0273 6.0742 6.0259 6.0742 0 0 1-6.0273 6.0742 6.0259 6.0742 0 0 1-6.0254-6.0742 6.0259 6.0742 0 0 1 6.0254-6.0742zm450.11 0.62305a10 10 0 0 0-5.623 1.7324l15.465 10.043a10 10 0 0 0 0.1582-1.7754 10 10 0 0 0-10-10zm-385.54 69.748c-33.881 0.24625-68.068 5.0533-108.62 14.904 22.599 29.839 58.518 48.998 98.912 48.998 42.75 0 80.488-21.459 102.83-54.234-33.579-6.5524-63.236-9.8852-93.131-9.668z" fill="#44f"/>
</g>
<g transform="matrix(.12677 0 0 .1304 -119.61 -164.86)">
<path d="m672.93 185.05c-70.695-0.11093-145.24 4.2451-226.6 14.096l10.719 26.285c165.82-19.487 302.23-15.744 436.89 2.1445l8.8203-26.432c-74.536-10.105-149.71-15.968-229.83-16.094zm-271.56 357.74c-51.871 11.766-101.65 29.669-149.64 52.605 73.92 10.384 141.71 34.23 198.8 76.352 59.302 43.75 105.78 106.84 135.99 190.55-20.589-113.55-46.533-215.38-87.854-299.42l-73.674-7.8828zm537.2 21.969-218.57 105.24-175.82-79.121 21.852 59.182 154.61 69.574 163.99-78.959zm161.95 24.988c-107.84 114.3-132.03 230.93-126.2 361.33l24.766 0.59375c-6.6433-129.46 16.729-240.18 127.05-352.53zm144.48 52.547v187.73l55-18.357v-149.05zm-1105.1 17.107c-13.638 9.1428-39.99 28.348-39.99 28.348l0.076172 212.25c13.807 0 25 11.193 25 25 0 4.9391-1.4315 9.5429-4.1836 13.057 5.0644 1.2808 12.006 3.796 19.5 7.4922l-0.31641-5.5488zm910.09 127.59c-4.057-0.0574-4.057 6.0574 0 6h75c4.057 0.0574 4.057-6.0574 0-6zm-27.457 25-1.1407 6h118.6v-6zm-4.1739 23.5-1.2421 9h77.268l7.2364-9zm-2.9961 25-0.8144 9h76.51l-1.0352-9zm-1.7265 25.5-0.4922 18h98.631l-13.719-18zm-0.6016 31 0.1328 6h86.402l3.0664-6zm0.4473 20 14.803 6h64.621l1.3945-6zm44.559 20 8.8652 6h23.383l0.3574-6zm25.17 20 5.5195 6h2.0352l-0.543-6zm-725.15 6.6484a3.0003 3.0003 0 0 0-1.6035 0.52929c-11.457 7.6625-25.357 12.096-40.584 12.096-13.727 0-26.375-3.6046-37.129-9.9277a3.0003 3.0003 0 1 0-3.041 5.1719c11.669 6.8611 25.391 10.756 40.17 10.756 16.394 0 31.485-4.7932 43.92-13.109a3.0003 3.0003 0 0 0-1.7324-5.5156zm33.119 3.6719a3.0003 3.0003 0 0 0-2.2969 1.0547c-17.731 20.208-43.762 32.898-73.01 32.898-27.389 0-51.952-11.128-69.527-29.137a3.0003 3.0003 0 1 0-4.2949 4.1894c18.666 19.127 44.806 30.947 73.822 30.947 30.986 0 58.688-13.479 77.52-34.941a3.0003 3.0003 0 0 0-2.2129-5.0117z"/>
</g>
<g transform="matrix(-.12677 0 0 -.1304 45.189 95.94)">
<path d="m672.93 185.05c-70.695-0.11093-145.24 4.2451-226.6 14.096l10.719 26.285c165.82-19.487 302.23-15.744 436.89 2.1445l8.8203-26.432c-74.536-10.105-149.71-15.968-229.83-16.094zm-271.56 357.74c-51.871 11.766-101.65 29.669-149.64 52.605 73.92 10.384 141.71 34.23 198.8 76.352 59.302 43.75 105.78 106.84 135.99 190.55-20.589-113.55-46.533-215.38-87.854-299.42l-73.674-7.8828zm537.2 21.969-218.57 105.24-175.82-79.121 21.852 59.182 154.61 69.574 163.99-78.959zm161.95 24.988c-107.84 114.3-132.03 230.93-126.2 361.33l24.766 0.59375c-6.6433-129.46 16.729-240.18 127.05-352.53zm144.48 52.547v187.73l55-18.357v-149.05zm-1105.1 17.107c-13.638 9.1428-39.99 28.348-39.99 28.348l0.076172 212.25c13.807 0 25 11.193 25 25 0 4.9391-1.4315 9.5429-4.1836 13.057 5.0644 1.2808 12.006 3.796 19.5 7.4922l-0.31641-5.5488zm910.09 127.59c-4.057-0.0574-4.057 6.0574 0 6h75c4.057 0.0574 4.057-6.0574 0-6zm-27.457 25-1.1407 6h118.6v-6zm-4.1739 23.5-1.2421 9h77.268l7.2364-9zm-2.9961 25-0.8144 9h76.51l-1.0352-9zm-1.7265 25.5-0.4922 18h98.631l-13.719-18zm-0.6016 31 0.1328 6h86.402l3.0664-6zm0.4473 20 14.803 6h64.621l1.3945-6zm44.559 20 8.8652 6h23.383l0.3574-6zm25.17 20 5.5195 6h2.0352l-0.543-6zm-725.15 6.6484a3.0003 3.0003 0 0 0-1.6035 0.52929c-11.457 7.6625-25.357 12.096-40.584 12.096-13.727 0-26.375-3.6046-37.129-9.9277a3.0003 3.0003 0 1 0-3.041 5.1719c11.669 6.8611 25.391 10.756 40.17 10.756 16.394 0 31.485-4.7932 43.92-13.109a3.0003 3.0003 0 0 0-1.7324-5.5156zm33.119 3.6719a3.0003 3.0003 0 0 0-2.2969 1.0547c-17.731 20.208-43.762 32.898-73.01 32.898-27.389 0-51.952-11.128-69.527-29.137a3.0003 3.0003 0 1 0-4.2949 4.1894c18.666 19.127 44.806 30.947 73.822 30.947 30.986 0 58.688-13.479 77.52-34.941a3.0003 3.0003 0 0 0-2.2129-5.0117z"/>
</g>
<g transform="matrix(.12677 0 0 .1304 -119.61 -164.86)">
<path d="m522.9 3.4796c9.2966 67.907 63.934 63.432 67.753 108.84 3.441 40.921-51.646 45.49-54.872 4.5513-2.1806-27.669 29.204-29.893 31.355-2.6008 1.0754 13.646-18.522 15.272-19.597 1.6255m-24.64-112.42c1.4578 68.557-53.171 73.145-49.829 118.6 3.0114 40.956 58.098 36.388 54.872-4.5513-2.1806-27.669-33.506-24.692-31.355 2.6007 1.0754 13.646 20.673 12.021 19.597-1.6255m287.34-118.49c-1.6173 68.432 60.021 74.375 56.2 119.75-3.4456 40.92-65.701 35.012-62.012-5.8862 2.4929-27.641 37.895-23.902 35.436 3.3636-1.2295 13.633-23.377 11.53-22.147-2.1022m-7.4977-115.12c-10.65 67.571-72.303 61.812-76.662 107.14-3.9312 40.874 58.324 46.784 62.012 5.8862 2.4929-27.641-32.977-30.629-35.436-3.3636-1.2295 13.633 20.918 15.735 22.147 2.1022m106.2 45.593c1.162-1.1906 2.2973-2.4235 3.4043-3.7001 13.508-15.578 21.043-36.194 22.979-60.173 26.421-5.6092 46.231-13.179 61.856-21.684m-129.24 80.801c27.817-11.554 43.905-36.164 40.852-82.081 88.422-13.035 96.24-42.478 134.5-65.724m-631.48 78.382c11.354 8.1511 23.456 14.705 36.844 17.809 3.2668 10.612 6.9099 23.055 14.428 36.765 3.7266 6.7957 8.6588 13.439 14.821 19.612m39.926-4.3272c-37.886-17.634-37.174-48.547-49.762-77.465-31.953 1.7579-70.436-38.212-104.53-75.779m275 145.38c10.925-14.516 19.051-32.222 22.987-52.756 9.5339-4.3688 17.877-10.464 24.628-17.581 6.3342 7.5092 14.316 14.094 23.585 19.026 2.5502 19.152 8.8061 36.11 17.69 50.523m-39.144-144.39c-6.2231 34.596-15.096 66.138-50.99 71.521-2.1115 36.652-16.567 59.957-38.31 75.357m162.66-1.506c-16.468-16.294-26.507-38.787-26.526-70.919-35.527-7.5234-42.589-39.543-46.833-74.453v0m358.31 0.21359c-89.105 123.15-107.6 170.49-125.54 227.52m-562.55-227.14c68.226 101.79 100.05 158.58 125.86 224.92m-10.859-26.378c173.56-21.015 316.13-17.023 456.43 1.9984m-445.71 24.288c165.82-19.487 302.23-15.745 436.89 2.144m-465.81-67.542c187.25-23.821 340.46-19.284 490.61 1.8767m-918.8 609.35c113.19-105.35 248.17-193.7 401.44-228.47m753.63 66.838-195.61-71.563m340.61 124.61-55-20.122m-320.63-104.26-204.8 98.606-167.3-75.284m-8.0958 29.254 175.82 79.12 218.57-105.24m-372.54 85.297 154.61 69.575 163.99-78.958m-306.74 47.621 143.17 64.427 140.14-67.476m-214.16 72.159 78.748 48.387 76.561-47.889m-153.3 50.762 81.47 50.197 74.01-47.519m-153.05 59.26 83.774 41.328 71.531-45.383m-6.2091-152.11 7.728 189.34m-182.35-193.85-36.854 20.102m57.944 27.377-45.62 26.06m47.63 25.198-37.577 23.997m40.006 37.94-30.533 14.272m181.4-126.97 28.806 8.1722m-24.372 100.47 4.6469 2.2164m-6.9001-57.421 14.644 6.0104m-213.41 142.65-6.5 1e-5m101.43 0-6.5-1e-5m-234.22 3e-5 -1e-5 -241.54m-19.115 205.81a125 125 0 0 1-125 125 125 125 0 0 1-125-125 125 125 0 0 1 125-125 125 125 0 0 1 125 125v0m520.62-385.4c-145.54 154.93-162.5 326.35-153.32 501.12m17.516-0.01c-9.3989-175.27 7.0182-342.08 153.72-494.57m-29.653 410.11c-5.8861-133.34 18.35-257.06 125.32-375.04m-76.011 371.19c-6.6433-129.46 16.73-240.18 127.05-352.53m-151.82 351.94c-5.8294-130.41 18.365-247.04 126.2-361.34m-423.02 410.25a27.5 27.5 0 0 1-27.5 27.5 27.5 27.5 0 0 1-27.5-27.5 27.5 27.5 0 0 1 27.5-27.5 27.5 27.5 0 0 1 27.5 27.5v0m14.555-34.062c16.95-40.089-11.834-60.112-42.055-60.699-30.221 0.58749-59.004 20.61-42.055 60.699-45-34.547-65.377 2.234-65.636 34.062 0.25909 31.828 20.636 68.61 65.636 34.062-16.95 40.089 11.834 60.112 42.055 60.699 30.221-0.5874 59.004-20.61 42.055-60.699 45 34.547 65.377-2.234 65.636-34.062-0.25909-31.828-20.636-68.61-65.636-34.062v0m-193.38-403.06c41.321 84.043 67.265 185.87 87.853 299.42-30.212-83.707-76.693-146.8-135.99-190.55-57.095-42.122-124.88-65.968-199.25-76.038m-55.079 364.29h-33.547m-22.654-300.64v280.64m-40-252.22v212.22m1114.9 154.94a25 25 0 0 1 10.082 20.061v0a25 25 0 0 1-25 25 25 25 0 0 1-25-25 25 25 0 0 1 14.281-22.585m-10.207 9.7707c-22.951-7.1403-74.074-30.022-74.074-92.185 0-65 45-75 55-75 20 0 34.105 26.642 34.105 46.642 0 40-39.105 33.772-39.105 3.358 0-20 10-30 10-30l-30 20m125 100a47.5 20 0 0 1-47.5 20 47.5 20 0 0 1-47.5-20 47.5 20 0 0 1 47.5-20 47.5 20 0 0 1 47.5 20v0m-66.151-95.558c5.6031-3.5576 14.336-6.9099 26.151-9.4417v0c70-15 59.845 26.263 15 30-21.683 1.8069-36.039-0.24194-43.223-4.0902m66.388-2.4205c25.294 6.4144 10.023 30.033-24.041 31.153-50.432 1.6588-60.461-15.413-33.333-25.699m46.744 23.891c31.398 4.0869 17.286 31.032-17.147 32.231-56.677 1.9729-59.351-22.549-13.184-30.637m-31.246-70.983c3.48-5.5108 14.34-11.303 32.413-15.176v0c70-15 59.845 26.263 15 30-20.954 1.7462-35.065-0.10857-42.474-3.7084m-33.8 32.761c5 20-12.097 67.678-12.097 67.678m10-151.57v-693.43l45-45 45 45v693.43m-140-13.428c0-20 40-32.707 40 0 0 7.4529-10 7.5327-10 0 0-5-9.929-5.1239-10 5-0.2467 34.999 65-10 75-20 10 10 75.247 54.999 75 20-0.071-10.124-10-10-10-5 0 7.5327-10 7.4529-10 0 0-32.707 40-20 40 0 0 50-85 27.6-95 15-10 12.6-95 35-95-15v0m95.408-14.376c1.9077-27.812 7.833-71.455 7.3023-90.895-0.6821-24.991-10.74-33.899-11.286-53.891-0.5457-19.993 17.447-51.39 16.765-76.381-0.6821-24.991-15.3-53.223-15.846-73.216-0.5457-19.993 9.3265-45.271 8.7808-65.264-0.5457-19.993-17.089-55.86-17.634-75.852s14.55-64.526 14.004-84.519-11.856-50.106-12.265-65.1 13.301-62.439 12.892-77.433c-0.4092-14.994-2.6738-33.394-3.1203-48.073-0.037 15.315 1.7159 33.768 1.7159 48.768s-15 62.053-15 77.053 10.484 45.411 10.484 65.411-16.305 64.105-16.305 84.105 15.558 56.305 15.558 76.305-10.558 45-10.558 65 13.842 48.621 13.842 73.621-18.842 55.895-18.842 75.895 9.8112 29.179 9.8112 54.179c0 23.257-10.174 80.862-10.747 104.86m-976.55 117.64c85.591-21.582 147.29-22.233 227.62-5.8176m-151.22-167.3c-0.5071 27.74-0.59057 55.303-0.35663 82.688-30.264 3.3286-59.225 9.7094-87.14 18.529m158.42-101.64c2.0568 26.958 3.6421 53.992 4.8124 81.079 26.316 1.5078 53.676 5.3129 82.16 11.718m-220.48 103.08c76.071-18.433 129.86-19.104 201.3-5.1651m-163.88-179.53c-0.21617 16.81-0.26541 33.535-0.22966 50.209-18.617 2.9699-36.774 6.9726-54.477 11.922m228.24-8.0572c-16.592-3.2566-32.855-5.668-48.802-7.3024-0.81436-15.765-1.7269-31.52-2.8126-47.256m-46.558 65.016a15 15 0 0 1-15 15 15 15 0 0 1-15-15 15 15 0 0 1 15-15 15 15 0 0 1 15 15v0m0-45a15 15 0 0 1-15 15 15 15 0 0 1-15-15 15 15 0 0 1 15-15 15 15 0 0 1 15 15v0m0 90a15 15 0 0 1-15 15 15 15 0 0 1-15-15 15 15 0 0 1 15-15 15 15 0 0 1 15 15v0m-50 0a15 15 0 0 1-15 15 15 15 0 0 1-15-15 15 15 0 0 1 15-15 15 15 0 0 1 15 15v0m-45 10a15 15 0 0 1-15 15 15 15 0 0 1-15-15 15 15 0 0 1 15-15 15 15 0 0 1 15 15v0m145-10a15 15 0 0 1-15 15 15 15 0 0 1-15-15 15 15 0 0 1 15-15 15 15 0 0 1 15 15v0m45 5a15 15 0 0 1-15 15 15 15 0 0 1-15-15 15 15 0 0 1 15-15 15 15 0 0 1 15 15v0m-139.76-126.8a30.653 27.5 0 0 1-0.01-0.69971 30.653 27.5 0 0 1 30.653-27.5 30.653 27.5 0 0 1 30.653 27.5v0a30.653 27.5 0 0 1-0.0111 0.74119m-43.191-25.278c-3.1693-14.247-13.936-52.03-38.336-47.964-23.937 3.9895-41.639 59.017-20 70 16.945 8.6006 16.09-46.872 35-45 9.3526 0.92609 13.581 21.494 14.691 28.027m9.4041-5.8838c4.4e-4 8e-3 8.8e-4 0.0157 1e-3 0.0236m21.842-0.61289c1.5073-26.148 5.6755-51.769 14.062-76.554l-25-30-25 30c8.4491 24.971 12.617 50.791 14.095 77.143m21.842-0.57353c3e-4 -5e-3 6.1e-4 -0.0105 9.1e-4 -0.0158m9.6262 5.0357c1.424-7.6783 5.6888-25.724 14.435-26.59 18.91-1.8725 18.055 53.601 35 45 21.639-10.983 3.9368-66.011-20-70-24.002-4.0003-34.812 32.494-38.175 47.247m-149.23 167.75-38.541 1e-5m37.121-15-36.176 2e-5m36.207-15-36.207-2e-5m38.039-15-38.039 1e-5m41.582-15-41.582 1e-5m47.125-15-47.125 3e-5m54.607-15-54.607-2e-5m64.609-15-64.609 3e-5m77.781-15-77.781 2e-5m93.264-15-93.264-3e-5m82.865-15-82.865-3e-5m80.217-15-80.217 2e-5m81.762-15-81.762 3e-5m86.447-15h-86.447m320 195h-5.8262m5.8262-15h-4.4062m4.4062-15h-4.4356m4.4355-15h-6.2715m6.2715-15h-9.8125m9.8125-15h-15.338m15.338-15h-22.811m22.811-15h-32.812m32.813-15-46.006 1e-5m46.006-15-63.174-1e-5m63.174-15h-52.885m52.885-15h-50.217m50.217-15h-51.762m51.762-15h-56.447m896.45 290h-41.57m-13.43-210 55-18.333m-434.46-274.83c25.59 3.7592 49.271-7.0426 49.106-33.284-0.15063-23.912-23.268-33.143-37.899-27.026m9.1484 61.489c25.59 3.7592 49.271-7.0426 49.106-33.284-0.14584-23.15-21.819-32.541-36.477-27.564m7.3715 60.848c25.59 3.7592 49.271-7.0426 49.106-33.284-0.15063-23.912-23.268-33.143-37.899-27.026m3.7936 60.31c25.59 3.7592 49.271-7.0426 49.106-33.284-0.14389-22.841-21.244-32.288-35.886-27.755m6.7807 61.039c25.59 3.7592 49.271-7.0426 49.106-33.284-0.15063-23.912-23.268-33.143-37.899-27.026m8.7936 60.31c25.59 3.7592 49.271-7.0426 49.106-33.284-0.1506-23.912-23.268-33.143-37.899-27.026m8.7936 60.31c25.59 3.7592 49.271-7.0426 49.106-33.284-0.1506-23.912-23.268-33.143-37.899-27.026m-237.16-262.87c58.346 120.26 27.109 213.53 28.095 252.47 1.9666 77.707 111.97 92.707 111.61 36.255-0.22048-34.999-49.644-38.549-49.644-8.5486-0.58884 16.604 31.333 20.568 25 0m-97.02-279.11c58.234 119.78 37.199 213.16 38.182 251.98 0.81966 32.388 23.432 43.343 49.503 41.019m-69.663-291.94c57.746 119.27 39.18 212.22 40.16 250.92 0.41416 16.365 6.3922 27.258 15.569 33.731m-35.696-282.99c47.442 81.937 34.363 176.11 41.472 260.65m-22.431-258.91c47.682 79.353 37.619 170.36 49.93 254.65m-31.654-252.88c45.916 80.088 39.247 178.28 59.153 252.78m-40.374-250.58c44.889 80.253 39.318 181.4 67.873 251.11m-48.929-248.89c44.622 81.12 39.369 189.05 76.428 250.12m-64.866-260.16c51.574 83.639 54.167 215.53 92.365 258.5m-215.48 86.152c29.688 4.0613 64.727-12.602 70.476-24.1m-90-322.05c91.368 218.51-34.006 227.8-30.938 300.89 0.84547 20.141 10.938 29.112 24.223 33.688m31.67-1.1941c21.553 5.2519 48.56-2.6001 66.067-11.301m-55.578-155.41c-9.302 47.959-51.778 73.173-48.878 123.24 0.65368 11.282 7.6204 16.121 11.394 23.114m36.736-131.55c-10.502 31.11-33.464 50.383-31.002 92.875 3.0993 53.494 45.332 53.94 77.633 45.163m-48.079-122.96c-8.7954 19.553-20.033 35.141-18.103 68.44 2.595 44.789 31.606 55.442 59.938 52.572m-130.08-27.574c-4.579 71.226 80 80 80 40 0-30-50-20-30 5m-67-39c0 30 24.833 77.835 51.129 54.581m-68.129-48.581c0 35 22.575 70.896 49.356 55.678m-66.356-49.678c0 30 16 62 46.421 53.226m-63.421-47.226c5 30 13 56 45.453 49.033m-62.453-43.033c10 30 15 40 39.615 43.97m-79.615-43.97c-10 23.797-15.385 26.851-40 30m23-34.759c-5 23.797-15.547 35.286-48 29.759m31-34.519c0 23.797-30.579 41.478-61 34.519m27-44.038c0 23.797-28.117 58.868-54.413 40.421m37.413-45.181c10 55.526-95 58.797-96.084 14.01-0.97313-40.216 56.084-35.213 56.084-5.2128 0 23.643-40.818 30.224-40 5 0.2664-8.2184 10-15 20-10m135 40c20 25 50 5 50-20m-91-14.278c0 20.171-20.534 37.883-45.319 38.573m-15.216-334.42c-12.002 40.572 6.5344 47.18 6.5344 100.13 0 55-65 45-65 5 0-30 40-25 40 0 0 18.405-30 20-30 5s15-10 15-10m26.513-100.17c-14.602 44.608-6.8555 72.643-11.642 107.21m-15.187 78.649s-15-5-15 10 30 13.405 30-5c0-25-44.105-30.411-44.105-0.41051 0 40 64.421 44.718 65-5 0.29862-25.664-5.5785-30.282 1.1576-67.644-16.736 27.362 0.16401 63.41-22.631 77.772m20.895-15.411c18.917 89.457 2.8301 125.1-30 135m30-265s20-20 40-20 27.543 6.0612 32.537 6.3054c5.5238 0.27011 12.463-6.3054 17.463-11.305v10s-12.053 4.6634-17.053 4.6634-26.044-5.8081-34.179-6.3054c-3.9731-0.24289-32.225 8.0369-38.768 16.642m275 10s-32.906-33.284-52.906-33.284-49.3 8.5243-54.294 8.7685c-5.5238 0.27011-17.8-0.4844-22.8-10.484v10s17.389 3.8424 22.389 3.8424 50.166-9.2342 55.936-8.7685c15.885 1.2823 45.131 21.321 51.675 29.926m-185-25s15 15 15 20c0 20-11.716 30.411-11.716 50.411s-13.284 59.589-12.874 68.284c0.23581 4.9944 14.589 11.305 19.589 11.305s5 20 5 20m35-55c25 5 28.974 36.325 10 30-45-15-45 10-12.537-2.463m-72.463 57.463v10l5-5-5-5v0m115 0v10l-5-5 5-5v0m-110 5c10 0 15-10 25-10s15 5 20 5 16.568-7.1264 21.568-7.1264 23.432 12.126 38.432 12.126m-75 20c5.8612 12.36 30 15 35 0m-130-175c10-5 20-10 35.747-9.179 15.79 0.82325 29.253 24.179 44.253 24.179-25 0-30 10-45 10s-25-5-35-10m150-10s20-20 35-20 50 20 60 20c-22.347-0.0507-44.764 15-60 15-20 0-35-15-35-15m-125 115c5.8191 1.4391 15-12.658 0-12.446-22.653 0.321-14.297 33.469 9.4643 33.432 14.603-0.02269 30.536-18.887 45.536-20.986v-10c-30 10-25 25-45 30m185-15c-12.381-5-19.673-21.471 2.4278-23.217 22.572-1.7831 17.572 38.217-25.131 39.203-21.576 0.49822-34.979-20.986-67.297-20.986v-10c52.098 5 36.947 25 66.505 30m91.342 550a107.85 96.548 0 0 1-107.85 96.548 107.85 96.548 0 0 1-107.85-96.548 107.85 96.548 0 0 1 107.85-96.548 107.85 96.548 0 0 1 107.85 96.548v0m-224.7-434.52c44.801 97.376 70.461 213.44 91.431 340.76m96.49-153.52 17.112 191.9m-92.644-225.88 7.2487 184.84m-100.82 56.422-116.35-4e-5m370.65-3e-5 -58.252 3e-5m-2e-3 -5e-3 59.21-37.006m-605.23-301.88c182.61 10.658 322.19 96.312 373.56 309.08m178.68 44.816h51.22m-312.95 0h52.346" fill="none" stroke="#44f" stroke-linecap="round" stroke-linejoin="round" stroke-width="6"/>
</g>
<g transform="matrix(-.12677 0 0 -.1304 45.189 95.94)">
<path d="m522.9 3.4796c9.2966 67.907 63.934 63.432 67.753 108.84 3.441 40.921-51.646 45.49-54.872 4.5513-2.1806-27.669 29.204-29.893 31.355-2.6008 1.0754 13.646-18.522 15.272-19.597 1.6255m-24.64-112.42c1.4578 68.557-53.171 73.145-49.829 118.6 3.0114 40.956 58.098 36.388 54.872-4.5513-2.1806-27.669-33.506-24.692-31.355 2.6007 1.0754 13.646 20.673 12.021 19.597-1.6255m287.34-118.49c-1.6173 68.432 60.021 74.375 56.2 119.75-3.4456 40.92-65.701 35.012-62.012-5.8862 2.4929-27.641 37.895-23.902 35.436 3.3636-1.2295 13.633-23.377 11.53-22.147-2.1022m-7.4977-115.12c-10.65 67.571-72.303 61.812-76.662 107.14-3.9312 40.874 58.324 46.784 62.012 5.8862 2.4929-27.641-32.977-30.629-35.436-3.3636-1.2295 13.633 20.918 15.735 22.147 2.1022m106.2 45.593c1.162-1.1906 2.2973-2.4235 3.4043-3.7001 13.508-15.578 21.043-36.194 22.979-60.173 26.421-5.6092 46.231-13.179 61.856-21.684m-129.24 80.801c27.817-11.554 43.905-36.164 40.852-82.081 88.422-13.035 96.24-42.478 134.5-65.724m-631.48 78.382c11.354 8.1511 23.456 14.705 36.844 17.809 3.2668 10.612 6.9099 23.055 14.428 36.765 3.7266 6.7957 8.6588 13.439 14.821 19.612m39.926-4.3272c-37.886-17.634-37.174-48.547-49.762-77.465-31.953 1.7579-70.436-38.212-104.53-75.779m275 145.38c10.925-14.516 19.051-32.222 22.987-52.756 9.5339-4.3688 17.877-10.464 24.628-17.581 6.3342 7.5092 14.316 14.094 23.585 19.026 2.5502 19.152 8.8061 36.11 17.69 50.523m-39.144-144.39c-6.2231 34.596-15.096 66.138-50.99 71.521-2.1115 36.652-16.567 59.957-38.31 75.357m162.66-1.506c-16.468-16.294-26.507-38.787-26.526-70.919-35.527-7.5234-42.589-39.543-46.833-74.453v0m358.31 0.21359c-89.105 123.15-107.6 170.49-125.54 227.52m-562.55-227.14c68.226 101.79 100.05 158.58 125.86 224.92m-10.859-26.378c173.56-21.015 316.13-17.023 456.43 1.9984m-445.71 24.288c165.82-19.487 302.23-15.745 436.89 2.144m-465.81-67.542c187.25-23.821 340.46-19.284 490.61 1.8767m-918.8 609.35c113.19-105.35 248.17-193.7 401.44-228.47m753.63 66.838-195.61-71.563m340.61 124.61-55-20.122m-320.63-104.26-204.8 98.606-167.3-75.284m-8.0958 29.254 175.82 79.12 218.57-105.24m-372.54 85.297 154.61 69.575 163.99-78.958m-306.74 47.621 143.17 64.427 140.14-67.476m-214.16 72.159 78.748 48.387 76.561-47.889m-153.3 50.762 81.47 50.197 74.01-47.519m-153.05 59.26 83.774 41.328 71.531-45.383m-6.2091-152.11 7.728 189.34m-182.35-193.85-36.854 20.102m57.944 27.377-45.62 26.06m47.63 25.198-37.577 23.997m40.006 37.94-30.533 14.272m181.4-126.97 28.806 8.1722m-24.372 100.47 4.6469 2.2164m-6.9001-57.421 14.644 6.0104m-213.41 142.65-6.5 1e-5m101.43 0-6.5-1e-5m-234.22 3e-5 -1e-5 -241.54m-19.115 205.81a125 125 0 0 1-125 125 125 125 0 0 1-125-125 125 125 0 0 1 125-125 125 125 0 0 1 125 125v0m520.62-385.4c-145.54 154.93-162.5 326.35-153.32 501.12m17.516-0.01c-9.3989-175.27 7.0182-342.08 153.72-494.57m-29.653 410.11c-5.8861-133.34 18.35-257.06 125.32-375.04m-76.011 371.19c-6.6433-129.46 16.73-240.18 127.05-352.53m-151.82 351.94c-5.8294-130.41 18.365-247.04 126.2-361.34m-423.02 410.25a27.5 27.5 0 0 1-27.5 27.5 27.5 27.5 0 0 1-27.5-27.5 27.5 27.5 0 0 1 27.5-27.5 27.5 27.5 0 0 1 27.5 27.5v0m14.555-34.062c16.95-40.089-11.834-60.112-42.055-60.699-30.221 0.58749-59.004 20.61-42.055 60.699-45-34.547-65.377 2.234-65.636 34.062 0.25909 31.828 20.636 68.61 65.636 34.062-16.95 40.089 11.834 60.112 42.055 60.699 30.221-0.5874 59.004-20.61 42.055-60.699 45 34.547 65.377-2.234 65.636-34.062-0.25909-31.828-20.636-68.61-65.636-34.062v0m-193.38-403.06c41.321 84.043 67.265 185.87 87.853 299.42-30.212-83.707-76.693-146.8-135.99-190.55-57.095-42.122-124.88-65.968-199.25-76.038m-55.079 364.29h-33.547m-22.654-300.64v280.64m-40-252.22v212.22m1114.9 154.94a25 25 0 0 1 10.082 20.061v0a25 25 0 0 1-25 25 25 25 0 0 1-25-25 25 25 0 0 1 14.281-22.585m-10.207 9.7707c-22.951-7.1403-74.074-30.022-74.074-92.185 0-65 45-75 55-75 20 0 34.105 26.642 34.105 46.642 0 40-39.105 33.772-39.105 3.358 0-20 10-30 10-30l-30 20m125 100a47.5 20 0 0 1-47.5 20 47.5 20 0 0 1-47.5-20 47.5 20 0 0 1 47.5-20 47.5 20 0 0 1 47.5 20v0m-66.151-95.558c5.6031-3.5576 14.336-6.9099 26.151-9.4417v0c70-15 59.845 26.263 15 30-21.683 1.8069-36.039-0.24194-43.223-4.0902m66.388-2.4205c25.294 6.4144 10.023 30.033-24.041 31.153-50.432 1.6588-60.461-15.413-33.333-25.699m46.744 23.891c31.398 4.0869 17.286 31.032-17.147 32.231-56.677 1.9729-59.351-22.549-13.184-30.637m-31.246-70.983c3.48-5.5108 14.34-11.303 32.413-15.176v0c70-15 59.845 26.263 15 30-20.954 1.7462-35.065-0.10857-42.474-3.7084m-33.8 32.761c5 20-12.097 67.678-12.097 67.678m10-151.57v-693.43l45-45 45 45v693.43m-140-13.428c0-20 40-32.707 40 0 0 7.4529-10 7.5327-10 0 0-5-9.929-5.1239-10 5-0.2467 34.999 65-10 75-20 10 10 75.247 54.999 75 20-0.071-10.124-10-10-10-5 0 7.5327-10 7.4529-10 0 0-32.707 40-20 40 0 0 50-85 27.6-95 15-10 12.6-95 35-95-15v0m95.408-14.376c1.9077-27.812 7.833-71.455 7.3023-90.895-0.6821-24.991-10.74-33.899-11.286-53.891-0.5457-19.993 17.447-51.39 16.765-76.381-0.6821-24.991-15.3-53.223-15.846-73.216-0.5457-19.993 9.3265-45.271 8.7808-65.264-0.5457-19.993-17.089-55.86-17.634-75.852s14.55-64.526 14.004-84.519-11.856-50.106-12.265-65.1 13.301-62.439 12.892-77.433c-0.4092-14.994-2.6738-33.394-3.1203-48.073-0.037 15.315 1.7159 33.768 1.7159 48.768s-15 62.053-15 77.053 10.484 45.411 10.484 65.411-16.305 64.105-16.305 84.105 15.558 56.305 15.558 76.305-10.558 45-10.558 65 13.842 48.621 13.842 73.621-18.842 55.895-18.842 75.895 9.8112 29.179 9.8112 54.179c0 23.257-10.174 80.862-10.747 104.86m-976.55 117.64c85.591-21.582 147.29-22.233 227.62-5.8176m-151.22-167.3c-0.5071 27.74-0.59057 55.303-0.35663 82.688-30.264 3.3286-59.225 9.7094-87.14 18.529m158.42-101.64c2.0568 26.958 3.6421 53.992 4.8124 81.079 26.316 1.5078 53.676 5.3129 82.16 11.718m-220.48 103.08c76.071-18.433 129.86-19.104 201.3-5.1651m-163.88-179.53c-0.21617 16.81-0.26541 33.535-0.22966 50.209-18.617 2.9699-36.774 6.9726-54.477 11.922m228.24-8.0572c-16.592-3.2566-32.855-5.668-48.802-7.3024-0.81436-15.765-1.7269-31.52-2.8126-47.256m-46.558 65.016a15 15 0 0 1-15 15 15 15 0 0 1-15-15 15 15 0 0 1 15-15 15 15 0 0 1 15 15v0m0-45a15 15 0 0 1-15 15 15 15 0 0 1-15-15 15 15 0 0 1 15-15 15 15 0 0 1 15 15v0m0 90a15 15 0 0 1-15 15 15 15 0 0 1-15-15 15 15 0 0 1 15-15 15 15 0 0 1 15 15v0m-50 0a15 15 0 0 1-15 15 15 15 0 0 1-15-15 15 15 0 0 1 15-15 15 15 0 0 1 15 15v0m-45 10a15 15 0 0 1-15 15 15 15 0 0 1-15-15 15 15 0 0 1 15-15 15 15 0 0 1 15 15v0m145-10a15 15 0 0 1-15 15 15 15 0 0 1-15-15 15 15 0 0 1 15-15 15 15 0 0 1 15 15v0m45 5a15 15 0 0 1-15 15 15 15 0 0 1-15-15 15 15 0 0 1 15-15 15 15 0 0 1 15 15v0m-139.76-126.8a30.653 27.5 0 0 1-0.01-0.69971 30.653 27.5 0 0 1 30.653-27.5 30.653 27.5 0 0 1 30.653 27.5v0a30.653 27.5 0 0 1-0.0111 0.74119m-43.191-25.278c-3.1693-14.247-13.936-52.03-38.336-47.964-23.937 3.9895-41.639 59.017-20 70 16.945 8.6006 16.09-46.872 35-45 9.3526 0.92609 13.581 21.494 14.691 28.027m9.4041-5.8838c4.4e-4 8e-3 8.8e-4 0.0157 1e-3 0.0236m21.842-0.61289c1.5073-26.148 5.6755-51.769 14.062-76.554l-25-30-25 30c8.4491 24.971 12.617 50.791 14.095 77.143m21.842-0.57353c3e-4 -5e-3 6.1e-4 -0.0105 9.1e-4 -0.0158m9.6262 5.0357c1.424-7.6783 5.6888-25.724 14.435-26.59 18.91-1.8725 18.055 53.601 35 45 21.639-10.983 3.9368-66.011-20-70-24.002-4.0003-34.812 32.494-38.175 47.247m-149.23 167.75-38.541 1e-5m37.121-15-36.176 2e-5m36.207-15-36.207-2e-5m38.039-15-38.039 1e-5m41.582-15-41.582 1e-5m47.125-15-47.125 3e-5m54.607-15-54.607-2e-5m64.609-15-64.609 3e-5m77.781-15-77.781 2e-5m93.264-15-93.264-3e-5m82.865-15-82.865-3e-5m80.217-15-80.217 2e-5m81.762-15-81.762 3e-5m86.447-15h-86.447m320 195h-5.8262m5.8262-15h-4.4062m4.4062-15h-4.4356m4.4355-15h-6.2715m6.2715-15h-9.8125m9.8125-15h-15.338m15.338-15h-22.811m22.811-15h-32.812m32.813-15-46.006 1e-5m46.006-15-63.174-1e-5m63.174-15h-52.885m52.885-15h-50.217m50.217-15h-51.762m51.762-15h-56.447m896.45 290h-41.57m-13.43-210 55-18.333m-434.46-274.83c25.59 3.7592 49.271-7.0426 49.106-33.284-0.15063-23.912-23.268-33.143-37.899-27.026m9.1484 61.489c25.59 3.7592 49.271-7.0426 49.106-33.284-0.14584-23.15-21.819-32.541-36.477-27.564m7.3715 60.848c25.59 3.7592 49.271-7.0426 49.106-33.284-0.15063-23.912-23.268-33.143-37.899-27.026m3.7936 60.31c25.59 3.7592 49.271-7.0426 49.106-33.284-0.14389-22.841-21.244-32.288-35.886-27.755m6.7807 61.039c25.59 3.7592 49.271-7.0426 49.106-33.284-0.15063-23.912-23.268-33.143-37.899-27.026m8.7936 60.31c25.59 3.7592 49.271-7.0426 49.106-33.284-0.1506-23.912-23.268-33.143-37.899-27.026m8.7936 60.31c25.59 3.7592 49.271-7.0426 49.106-33.284-0.1506-23.912-23.268-33.143-37.899-27.026m-237.16-262.87c58.346 120.26 27.109 213.53 28.095 252.47 1.9666 77.707 111.97 92.707 111.61 36.255-0.22048-34.999-49.644-38.549-49.644-8.5486-0.58884 16.604 31.333 20.568 25 0m-97.02-279.11c58.234 119.78 37.199 213.16 38.182 251.98 0.81966 32.388 23.432 43.343 49.503 41.019m-69.663-291.94c57.746 119.27 39.18 212.22 40.16 250.92 0.41416 16.365 6.3922 27.258 15.569 33.731m-35.696-282.99c47.442 81.937 34.363 176.11 41.472 260.65m-22.431-258.91c47.682 79.353 37.619 170.36 49.93 254.65m-31.654-252.88c45.916 80.088 39.247 178.28 59.153 252.78m-40.374-250.58c44.889 80.253 39.318 181.4 67.873 251.11m-48.929-248.89c44.622 81.12 39.369 189.05 76.428 250.12m-64.866-260.16c51.574 83.639 54.167 215.53 92.365 258.5m-215.48 86.152c29.688 4.0613 64.727-12.602 70.476-24.1m-90-322.05c91.368 218.51-34.006 227.8-30.938 300.89 0.84547 20.141 10.938 29.112 24.223 33.688m31.67-1.1941c21.553 5.2519 48.56-2.6001 66.067-11.301m-55.578-155.41c-9.302 47.959-51.778 73.173-48.878 123.24 0.65368 11.282 7.6204 16.121 11.394 23.114m36.736-131.55c-10.502 31.11-33.464 50.383-31.002 92.875 3.0993 53.494 45.332 53.94 77.633 45.163m-48.079-122.96c-8.7954 19.553-20.033 35.141-18.103 68.44 2.595 44.789 31.606 55.442 59.938 52.572m-130.08-27.574c-4.579 71.226 80 80 80 40 0-30-50-20-30 5m-67-39c0 30 24.833 77.835 51.129 54.581m-68.129-48.581c0 35 22.575 70.896 49.356 55.678m-66.356-49.678c0 30 16 62 46.421 53.226m-63.421-47.226c5 30 13 56 45.453 49.033m-62.453-43.033c10 30 15 40 39.615 43.97m-79.615-43.97c-10 23.797-15.385 26.851-40 30m23-34.759c-5 23.797-15.547 35.286-48 29.759m31-34.519c0 23.797-30.579 41.478-61 34.519m27-44.038c0 23.797-28.117 58.868-54.413 40.421m37.413-45.181c10 55.526-95 58.797-96.084 14.01-0.97313-40.216 56.084-35.213 56.084-5.2128 0 23.643-40.818 30.224-40 5 0.2664-8.2184 10-15 20-10m135 40c20 25 50 5 50-20m-91-14.278c0 20.171-20.534 37.883-45.319 38.573m-15.216-334.42c-12.002 40.572 6.5344 47.18 6.5344 100.13 0 55-65 45-65 5 0-30 40-25 40 0 0 18.405-30 20-30 5s15-10 15-10m26.513-100.17c-14.602 44.608-6.8555 72.643-11.642 107.21m-15.187 78.649s-15-5-15 10 30 13.405 30-5c0-25-44.105-30.411-44.105-0.41051 0 40 64.421 44.718 65-5 0.29862-25.664-5.5785-30.282 1.1576-67.644-16.736 27.362 0.16401 63.41-22.631 77.772m20.895-15.411c18.917 89.457 2.8301 125.1-30 135m30-265s20-20 40-20 27.543 6.0612 32.537 6.3054c5.5238 0.27011 12.463-6.3054 17.463-11.305v10s-12.053 4.6634-17.053 4.6634-26.044-5.8081-34.179-6.3054c-3.9731-0.24289-32.225 8.0369-38.768 16.642m275 10s-32.906-33.284-52.906-33.284-49.3 8.5243-54.294 8.7685c-5.5238 0.27011-17.8-0.4844-22.8-10.484v10s17.389 3.8424 22.389 3.8424 50.166-9.2342 55.936-8.7685c15.885 1.2823 45.131 21.321 51.675 29.926m-185-25s15 15 15 20c0 20-11.716 30.411-11.716 50.411s-13.284 59.589-12.874 68.284c0.23581 4.9944 14.589 11.305 19.589 11.305s5 20 5 20m35-55c25 5 28.974 36.325 10 30-45-15-45 10-12.537-2.463m-72.463 57.463v10l5-5-5-5v0m115 0v10l-5-5 5-5v0m-110 5c10 0 15-10 25-10s15 5 20 5 16.568-7.1264 21.568-7.1264 23.432 12.126 38.432 12.126m-75 20c5.8612 12.36 30 15 35 0m-130-175c10-5 20-10 35.747-9.179 15.79 0.82325 29.253 24.179 44.253 24.179-25 0-30 10-45 10s-25-5-35-10m150-10s20-20 35-20 50 20 60 20c-22.347-0.0507-44.764 15-60 15-20 0-35-15-35-15m-125 115c5.8191 1.4391 15-12.658 0-12.446-22.653 0.321-14.297 33.469 9.4643 33.432 14.603-0.02269 30.536-18.887 45.536-20.986v-10c-30 10-25 25-45 30m185-15c-12.381-5-19.673-21.471 2.4278-23.217 22.572-1.7831 17.572 38.217-25.131 39.203-21.576 0.49822-34.979-20.986-67.297-20.986v-10c52.098 5 36.947 25 66.505 30m91.342 550a107.85 96.548 0 0 1-107.85 96.548 107.85 96.548 0 0 1-107.85-96.548 107.85 96.548 0 0 1 107.85-96.548 107.85 96.548 0 0 1 107.85 96.548v0m-224.7-434.52c44.801 97.376 70.461 213.44 91.431 340.76m96.49-153.52 17.112 191.9m-92.644-225.88 7.2487 184.84m-100.82 56.422-116.35-4e-5m370.65-3e-5 -58.252 3e-5m-2e-3 -5e-3 59.21-37.006m-605.23-301.88c182.61 10.658 322.19 96.312 373.56 309.08m178.68 44.816h51.22m-312.95 0h52.346" fill="none" stroke="#44f" stroke-linecap="round" stroke-linejoin="round" stroke-width="6"/>
</g>
<g transform="matrix(.12677 0 0 .1304 -119.61 -164.86)">
<path d="m1205 585.22v-84.221m0 163.06v-78.84m0 150.84v-72.004m0-187.34v-336.73m30 728.54v-698.54m-10 692.95v-702.95m-10 696.57v-706.57m-10 699.23v-52.508m-10-566.69v-11.123m0 66.799v-55.676m0 140.15 1e-4 -27.113m-1e-4 96.994v-69.881m5.5583 533.92c3.8869 4.8614 4.6037 9.5723 2.4856 23.824m1.9561 7.0708c3.8869 4.8614 6.7076 14.032 2.537 24.384m-4.127-1.1984c3.8869 4.8614 4.6551 15.264 0.8949 23.768m-4.4581 7.8736c3.8869 4.8614 3.6288 14.443 0.074 22.537m40.079-105.11c1.2762 3.8438 1.458 7.2499 0 10m0.6155 21.961c1.2762 3.8438 1.458 7.2499 0 10m-2.463 18.284c1.2762 3.8438 1.458 7.2499 0 10m-1.5105 16.676c1.2762 3.8438 1.458 7.2499 0 10m-42.793-64.737c-16.714 0.55831-13.849 30.558-13.849 30.558m-700-665c5-10 19.189-20 35-20 15 0 30 20 30 20m85 2.1092s15.591-23.505 32.587-23.701c16.869-0.19431 30.733 9.6228 34.403 15.199m-76.99 16.393c5 15 14.811 31.867 40 30m-190-20c-3.2638 17.638 35 25 35 25m13.899-44.175c0.71086 2.4079 1.1009 5.0274 1.1009 7.7672 0 11.823-7.2643 21.408-16.225 21.408s-16.225-9.5846-16.225-21.408c0-4.1574 0.8982-8.038 2.4525-11.323m178.26-4.6284c1.5117 3.2529 2.3833 7.0796 2.3833 11.175 0 11.823-7.2643 21.408-16.225 21.408s-16.225-9.5846-16.225-21.408c0-3.6792 0.70344-7.1416 1.9425-10.166m-80.135 216.35c15-10 35-5 40 0" fill="none" stroke="#44f" stroke-linecap="round" stroke-linejoin="round" stroke-width="3"/>
<g transform="matrix(.074715 .0063536 -.0065367 .072623 893 859)">
<path d="m30 150c5 235 55 250 100 350h-260c45-100 95-115 100-350a10 10 0 0 0-20 0 210 210 0 1 1-74-201 10 10 0 0 0 14-14 230 230 0 1 1 220 0 10 10 0 0 0 14 14 210 210 0 1 1-74 201 10 10 0 0 0-20 0z"/>
</g>
<g transform="matrix(.072444 .018868 -.019411 .070416 927 721)">
<path d="m30 150c5 235 55 250 100 350h-260c45-100 95-115 100-350a10 10 0 0 0-20 0 210 210 0 1 1-74-201 10 10 0 0 0 14-14 230 230 0 1 1 220 0 10 10 0 0 0 14 14 210 210 0 1 1-74 201 10 10 0 0 0-20 0z"/>
</g>
<g transform="matrix(.067973 .030809 -.031696 .06607 992 601)">
<path d="m30 150c5 235 55 250 100 350h-260c45-100 95-115 100-350a10 10 0 0 0-20 0 210 210 0 1 1-74-201 10 10 0 0 0 14-14 230 230 0 1 1 220 0 10 10 0 0 0 14 14 210 210 0 1 1-74 201 10 10 0 0 0-20 0z"/>
</g>
</g>
<g transform="matrix(-.12677 0 0 -.1304 45.189 95.94)">
<path d="m1205 585.22v-84.221m0 163.06v-78.84m0 150.84v-72.004m0-187.34v-336.73m30 728.54v-698.54m-10 692.95v-702.95m-10 696.57v-706.57m-10 699.23v-52.508m-10-566.69v-11.123m0 66.799v-55.676m0 140.15 1e-4 -27.113m-1e-4 96.994v-69.881m5.5583 533.92c3.8869 4.8614 4.6037 9.5723 2.4856 23.824m1.9561 7.0708c3.8869 4.8614 6.7076 14.032 2.537 24.384m-4.127-1.1984c3.8869 4.8614 4.6551 15.264 0.8949 23.768m-4.4581 7.8736c3.8869 4.8614 3.6288 14.443 0.074 22.537m40.079-105.11c1.2762 3.8438 1.458 7.2499 0 10m0.6155 21.961c1.2762 3.8438 1.458 7.2499 0 10m-2.463 18.284c1.2762 3.8438 1.458 7.2499 0 10m-1.5105 16.676c1.2762 3.8438 1.458 7.2499 0 10m-42.793-64.737c-16.714 0.55831-13.849 30.558-13.849 30.558m-700-665c5-10 19.189-20 35-20 15 0 30 20 30 20m85 2.1092s15.591-23.505 32.587-23.701c16.869-0.19431 30.733 9.6228 34.403 15.199m-76.99 16.393c5 15 14.811 31.867 40 30m-190-20c-3.2638 17.638 35 25 35 25m13.899-44.175c0.71086 2.4079 1.1009 5.0274 1.1009 7.7672 0 11.823-7.2643 21.408-16.225 21.408s-16.225-9.5846-16.225-21.408c0-4.1574 0.8982-8.038 2.4525-11.323m178.26-4.6284c1.5117 3.2529 2.3833 7.0796 2.3833 11.175 0 11.823-7.2643 21.408-16.225 21.408s-16.225-9.5846-16.225-21.408c0-3.6792 0.70344-7.1416 1.9425-10.166m-80.135 216.35c15-10 35-5 40 0" fill="none" stroke="#44f" stroke-linecap="round" stroke-linejoin="round" stroke-width="3"/>
<g transform="matrix(.074715 .0063536 -.0065367 .072623 893 859)">
<path d="m30 150c5 235 55 250 100 350h-260c45-100 95-115 100-350a10 10 0 0 0-20 0 210 210 0 1 1-74-201 10 10 0 0 0 14-14 230 230 0 1 1 220 0 10 10 0 0 0 14 14 210 210 0 1 1-74 201 10 10 0 0 0-20 0z"/>
</g>
<g transform="matrix(.072444 .018868 -.019411 .070416 927 721)">
<path d="m30 150c5 235 55 250 100 350h-260c45-100 95-115 100-350a10 10 0 0 0-20 0 210 210 0 1 1-74-201 10 10 0 0 0 14-14 230 230 0 1 1 220 0 10 10 0 0 0 14 14 210 210 0 1 1-74 201 10 10 0 0 0-20 0z"/>
</g>
<g transform="matrix(.067973 .030809 -.031696 .06607 992 601)">
<path d="m30 150c5 235 55 250 100 350h-260c45-100 95-115 100-350a10 10 0 0 0-20 0 210 210 0 1 1-74-201 10 10 0 0 0 14-14 230 230 0 1 1 220 0 10 10 0 0 0 14 14 210 210 0 1 1-74 201 10 10 0 0 0-20 0z"/>
</g>
</g>
</svg>
