<?xml version="1.0" encoding="UTF-8"?>
<svg width="100%" height="100%" version="1.1" viewBox="-120 -168 165.58 261.58" xmlns="http://www.w3.org/2000/svg">
<g transform="matrix(.12677 0 0 .1304 -119.53 -167.6)">
<path d="m320.35 0c60.636 94.994 91.193 153.28 115.79 219.86 186.79-16.687 339.96-8.7121 490.73 14.793 21.092-60.143 42.586-110.34 138.85-234.65zm769.65 78.564c-15 0.061887-30 8.9355-30 31.436 0 20 14.992 80.996-5 95 26.055 40.329 25.883 70.236 3.9102 91.48 5.2859-7.5446 3.0768-21.749-12.342-23.123-24.901-2.2184-21.568 46.643 13.432 46.643 65.192 0 25-130 25-215 5 20 35 20 35-5 0-12.748-15-21.497-30-21.436zm140 106.44c-0.6335 0-1.2658 0.0446-1.8965 0.13477 0.2698 16.532-3.9814 32.956-13.363 49.256 3.8001 6.7291 9.3806 10.609 15.26 10.609 11.046 0 20-13.431 20-30s-8.9543-30-20-30zm20 30a22.5 25 0 0 0 22.5 25 22.5 25 0 0 0 22.5-25 22.5 25 0 0 0-22.5-25 22.5 25 0 0 0-22.5 25zm-49.881 119.84a25.002 25.002 0 0 0-11.299 2.7988c-35.528 17.764-52.113 17.764-87.641 0a25.002 25.002 0 1 0-22.359 44.723c28.37 14.185 56.309 19.305 84.367 15.393l-12.596 56.838c-3.547 16.006-9.343 32.204-17.385 48.609-8.7424-14.062-15.645-27.995-18.699-43.143l-11.721-58.129-33.434 48.975c-18.028 26.407-34.973 40.588-50.74 47.77-3.2078 5.616-19.317 21.99-28.877 29.156l-3.3379 0.30859c0.22478 0.51133 0.46238 1.0236 0.68945 1.5352-0.20832 0.13235-0.44016 0.29517-0.63672 0.41211 0.27433 6e-3 0.54805 2e-3 0.82227 6e-3 58.226 130.85 191.18 270.5 312.73 374.15v-40.715c-111.4-98.016-228-224.94-280.81-338.26 24.201-8.0396 47.876-26.675 70.809-60.266 6.6704 33.087 26.021 58.938 45 85 19.905-29.886 33.326-59.885 40-90 28.146 55.001 76.599 70.801 125 86.701v-2.834c-15.518-10.109-29.132-22.122-39.064-37.816-26.513-11.63-48.277-27.341-63.68-57.439l-26.66-52.096c13.47-2.6402 26.977-7.3509 40.584-14.154a25.002 25.002 0 0 0-11.061-47.521zm-478.99 203.5-24.783 24.312c-3.4397 6.3552-9.8025 12.743-17.629 17.307l-167.95 164.16c8.1848 26.378 15.65 53.223 22.34 80.496 15.821-16.563 15.728-42.643-0.22265-59.049-1.2946-1.3315-2.6766-2.5784-3.875-3.9863 1.3697 1.2344 2.5787 2.6531 3.875 3.9863 16.362 16.829 43.269 17.206 60.098 0.84375s17.208-43.269 0.8457-60.098c-1.3663-1.4053-2.8288-2.7133-4.0859-4.2012 1.45 1.297 2.7188 2.795 4.0859 4.2012 16.362 16.829 43.269 17.208 60.098 0.84571s17.208-43.269 0.8457-60.098c-1.4367-1.4777-2.9796-2.8496-4.2949-4.418 1.5284 1.3571 2.8572 2.9392 4.2949 4.418 16.362 16.829 43.269 17.208 60.098 0.8457 16.829-16.362 17.208-43.271 0.8457-60.1-1.5073-1.5503-3.1308-2.9832-4.5039-4.6328 1.6073 1.4167 2.9953 3.0812 4.5039 4.6328 9.8379 10.119 24.057 14.694 37.986 11.795 3.1908-15.779 6.6828-31.592 10.508-47.438-15.57-3.2034-30.436-7.746-43.082-13.822zm-6.2578 109.56c-16.829 16.362-17.208 43.269-0.8457 60.098 1.1193 1.1512 2.3031 2.2386 3.3496 3.4453-1.1776-1.0806-2.2306-2.2944-3.3496-3.4453-16.362-16.829-43.269-17.208-60.098-0.8457s-17.208 43.269-0.8457 60.098c1.1897 1.2236 2.4532 2.3757 3.5605 3.6621-1.2548-1.1431-2.3709-2.4385-3.5605-3.6621-16.362-16.829-43.269-17.208-60.098-0.8457-16.829 16.362-17.208 43.271-0.8457 60.1 1.26 1.296 2.6013 2.5096 3.7695 3.877-1.332-1.2047-2.5086-2.5801-3.7695-3.877-15.971-16.427-42.08-17.232-59.025-1.8809 6.795 27.704 12.79 55.85 17.916 84.4l183.16-179.25c3.062-31.157 7.2861-62.468 12.719-93.918-11.875-0.59219-23.502 3.7465-32.039 12.047zm241.98-69.66-12.512 22.57c9.7977 9.495 18.749 19.685 26.76 30.346 40.312 53.644 61.406 121 61.406 192.37 0 71.373-21.093 138.73-61.406 192.37-23.731 31.58-55.716 59.03-93.498 76.514l45.037 3.3399c26.851-17.853 49.978-40.256 68.447-64.834 43.835-58.332 66.42-131.09 66.42-207.39 0-76.299-22.586-149.06-66.42-207.39-10.076-13.408-21.538-26.169-34.234-37.896zm-204.82 29.742c-1.3359 6.7806-2.6167 13.662-3.8418 20.584 1.2245-6.8552 2.5-13.716 3.8418-20.584zm150.88 83.053c-43.345 110.77-55.473 213.15-43.953 308.99 14.996-9.7282 28.699-22.901 40.195-38.199 27.3-36.329 43.355-85.002 43.355-138.3 0-50.701-14.527-97.213-39.598-132.49zm227.1 50.264v288.7h105l15-17.574v-67.645l-43.512-53.4 33.828-37.889-43.32-41.572-36.996 41.441v-79.352zm-559.27 183.7-14.627 14.322 4.3438 30.227 9.5488-9.5488 20 20 20-20 20 20 20-20 20 20 20-20 20 20 20-20 2.2363 2.2363-2.418-37.236zm589.27 4.3144 39.627 48.631-39.627 39.629zm-70 80.686c-21.101 28.415-40.879 57.832-74.309 76.92a15.002 15.002 0 0 0-8.0644-2.7597 15.002 15.002 0 0 0-15.1 18.834c9.7147 38.859 9.6899 53.516 0.32227 81.619a15.002 15.002 0 0 0 25.971 14.207l71.18 71.18c3.7639-21.351 4.8361-44.933-20-90 29.406-9.9196 53.114-26.17 70-50-16.654-6.6592-39.961-13.326-70-20 22.693-36.974 25.104-69.341 20-100zm-30.66 72.209c-2.3985 5.1707-5.0978 10.453-8.5156 16.022l-16.504 26.891 30.799 6.8437c12.616 2.803 23.682 5.5942 33.682 8.3457-10.233 7.6164-22.108 13.686-35.992 18.369l-25.506 8.6055 12.992 23.574c3.1687 5.7497 5.7744 10.884 8.0547 15.67l-23.619-23.619c-2.5241-2.5906-5.5187-4.4386-8.7149-5.5489 4.8888-21.744 4.2881-42.223-1.6074-69.652 0.8234-0.3605 1.6338-0.7742 2.4277-1.2422 12.459-7.1126 23.026-15.421 32.504-24.258zm240.66 205.41c-63.402 53.97-136.27 97.473-213.89 136.4l22.383 22.426c68.061-34.6 132.96-73.233 191.51-119.96z" fill="#fc4"/>
</g>
<g transform="matrix(-.12677 0 0 -.1304 45.272 93.199)">
<path d="m320.35 0c60.636 94.994 91.193 153.28 115.79 219.86 186.79-16.687 339.96-8.7121 490.73 14.793 21.092-60.143 42.586-110.34 138.85-234.65zm769.65 78.564c-15 0.061887-30 8.9355-30 31.436 0 20 14.992 80.996-5 95 26.055 40.329 25.883 70.236 3.9102 91.48 5.2859-7.5446 3.0768-21.749-12.342-23.123-24.901-2.2184-21.568 46.643 13.432 46.643 65.192 0 25-130 25-215 5 20 35 20 35-5 0-12.748-15-21.497-30-21.436zm140 106.44c-0.6335 0-1.2658 0.0446-1.8965 0.13477 0.2698 16.532-3.9814 32.956-13.363 49.256 3.8001 6.7291 9.3806 10.609 15.26 10.609 11.046 0 20-13.431 20-30s-8.9543-30-20-30zm20 30a22.5 25 0 0 0 22.5 25 22.5 25 0 0 0 22.5-25 22.5 25 0 0 0-22.5-25 22.5 25 0 0 0-22.5 25zm-49.881 119.84a25.002 25.002 0 0 0-11.299 2.7988c-35.528 17.764-52.113 17.764-87.641 0a25.002 25.002 0 1 0-22.359 44.723c28.37 14.185 56.309 19.305 84.367 15.393l-12.596 56.838c-3.547 16.006-9.343 32.204-17.385 48.609-8.7424-14.062-15.645-27.995-18.699-43.143l-11.721-58.129-33.434 48.975c-18.028 26.407-34.973 40.588-50.74 47.77-3.2078 5.616-19.317 21.99-28.877 29.156l-3.3379 0.30859c0.22478 0.51133 0.46238 1.0236 0.68945 1.5352-0.20832 0.13235-0.44016 0.29517-0.63672 0.41211 0.27433 6e-3 0.54805 2e-3 0.82227 6e-3 58.226 130.85 191.18 270.5 312.73 374.15v-40.715c-111.4-98.016-228-224.94-280.81-338.26 24.201-8.0396 47.876-26.675 70.809-60.266 6.6704 33.087 26.021 58.938 45 85 19.905-29.886 33.326-59.885 40-90 28.146 55.001 76.599 70.801 125 86.701v-2.834c-15.518-10.109-29.132-22.122-39.064-37.816-26.513-11.63-48.277-27.341-63.68-57.439l-26.66-52.096c13.47-2.6402 26.977-7.3509 40.584-14.154a25.002 25.002 0 0 0-11.061-47.521zm-478.99 203.5-24.783 24.312c-3.4397 6.3552-9.8025 12.743-17.629 17.307l-167.95 164.16c8.1848 26.378 15.65 53.223 22.34 80.496 15.821-16.563 15.728-42.643-0.22265-59.049-1.2946-1.3315-2.6766-2.5784-3.875-3.9863 1.3697 1.2344 2.5787 2.6531 3.875 3.9863 16.362 16.829 43.269 17.206 60.098 0.84375s17.208-43.269 0.8457-60.098c-1.3663-1.4053-2.8288-2.7133-4.0859-4.2012 1.45 1.297 2.7188 2.795 4.0859 4.2012 16.362 16.829 43.269 17.208 60.098 0.84571s17.208-43.269 0.8457-60.098c-1.4367-1.4777-2.9796-2.8496-4.2949-4.418 1.5284 1.3571 2.8572 2.9392 4.2949 4.418 16.362 16.829 43.269 17.208 60.098 0.8457 16.829-16.362 17.208-43.271 0.8457-60.1-1.5073-1.5503-3.1308-2.9832-4.5039-4.6328 1.6073 1.4167 2.9953 3.0812 4.5039 4.6328 9.8379 10.119 24.057 14.694 37.986 11.795 3.1908-15.779 6.6828-31.592 10.508-47.438-15.57-3.2034-30.436-7.746-43.082-13.822zm-6.2578 109.56c-16.829 16.362-17.208 43.269-0.8457 60.098 1.1193 1.1512 2.3031 2.2386 3.3496 3.4453-1.1776-1.0806-2.2306-2.2944-3.3496-3.4453-16.362-16.829-43.269-17.208-60.098-0.8457s-17.208 43.269-0.8457 60.098c1.1897 1.2236 2.4532 2.3757 3.5605 3.6621-1.2548-1.1431-2.3709-2.4385-3.5605-3.6621-16.362-16.829-43.269-17.208-60.098-0.8457-16.829 16.362-17.208 43.271-0.8457 60.1 1.26 1.296 2.6013 2.5096 3.7695 3.877-1.332-1.2047-2.5086-2.5801-3.7695-3.877-15.971-16.427-42.08-17.232-59.025-1.8809 6.795 27.704 12.79 55.85 17.916 84.4l183.16-179.25c3.062-31.157 7.2861-62.468 12.719-93.918-11.875-0.59219-23.502 3.7465-32.039 12.047zm241.98-69.66-12.512 22.57c9.7977 9.495 18.749 19.685 26.76 30.346 40.312 53.644 61.406 121 61.406 192.37 0 71.373-21.093 138.73-61.406 192.37-23.731 31.58-55.716 59.03-93.498 76.514l45.037 3.3399c26.851-17.853 49.978-40.256 68.447-64.834 43.835-58.332 66.42-131.09 66.42-207.39 0-76.299-22.586-149.06-66.42-207.39-10.076-13.408-21.538-26.169-34.234-37.896zm-204.82 29.742c-1.3359 6.7806-2.6167 13.662-3.8418 20.584 1.2245-6.8552 2.5-13.716 3.8418-20.584zm150.88 83.053c-43.345 110.77-55.473 213.15-43.953 308.99 14.996-9.7282 28.699-22.901 40.195-38.199 27.3-36.329 43.355-85.002 43.355-138.3 0-50.701-14.527-97.213-39.598-132.49zm227.1 50.264v288.7h105l15-17.574v-67.645l-43.512-53.4 33.828-37.889-43.32-41.572-36.996 41.441v-79.352zm-559.27 183.7-14.627 14.322 4.3438 30.227 9.5488-9.5488 20 20 20-20 20 20 20-20 20 20 20-20 20 20 20-20 2.2363 2.2363-2.418-37.236zm589.27 4.3144 39.627 48.631-39.627 39.629zm-70 80.686c-21.101 28.415-40.879 57.832-74.309 76.92a15.002 15.002 0 0 0-8.0644-2.7597 15.002 15.002 0 0 0-15.1 18.834c9.7147 38.859 9.6899 53.516 0.32227 81.619a15.002 15.002 0 0 0 25.971 14.207l71.18 71.18c3.7639-21.351 4.8361-44.933-20-90 29.406-9.9196 53.114-26.17 70-50-16.654-6.6592-39.961-13.326-70-20 22.693-36.974 25.104-69.341 20-100zm-30.66 72.209c-2.3985 5.1707-5.0978 10.453-8.5156 16.022l-16.504 26.891 30.799 6.8437c12.616 2.803 23.682 5.5942 33.682 8.3457-10.233 7.6164-22.108 13.686-35.992 18.369l-25.506 8.6055 12.992 23.574c3.1687 5.7497 5.7744 10.884 8.0547 15.67l-23.619-23.619c-2.5241-2.5906-5.5187-4.4386-8.7149-5.5489 4.8888-21.744 4.2881-42.223-1.6074-69.652 0.8234-0.3605 1.6338-0.7742 2.4277-1.2422 12.459-7.1126 23.026-15.421 32.504-24.258zm240.66 205.41c-63.402 53.97-136.27 97.473-213.89 136.4l22.383 22.426c68.061-34.6 132.96-73.233 191.51-119.96z" fill="#fc4"/>
</g>
<g transform="matrix(.12677 0 0 .1304 -119.53 -167.6)">
<path d="m667.13 60.605c-7.7825 7.6033-17.327 14.042-28.16 18.557-4.9723 22.292-14.542 41.391-27.148 56.947-57.83 0.42638-118.2 3.301-181.55 8.9726-6.1816-6.9357-11.54-14.351-15.539-21.9-8.0682-15.23-11.816-28.962-15.193-40.678-14.958-3.7795-28.374-11.3-40.654-20.223 29.074 48.754 48.962 87.641 65.6 127.74 195.87-17.399 355.94-8.9775 513.15 15.521 14.906-38.016 34.875-77.296 79.129-139.66-17.867 9.1001-40.336 16.83-70.18 22.223-2.8394 26.208-11.877 48.573-27.486 65.252-1.2792 1.3668-2.5891 2.6841-3.9277 3.9551l-203.95-14.262 203.13 13.801c-65.998-9.4998-133.04-16.083-202.99-18.971-9.3614-15.969-15.921-34.721-18.256-55.77-10.278-5.6655-19.065-13.105-25.975-21.51zm422.87 284.39a15 15 0 0 0-15 15 15 15 0 0 0 15 15 15 15 0 0 0 15-15 15 15 0 0 0-15-15zm110 0a15 15 0 0 0-15 15 15 15 0 0 0 15 15 15 15 0 0 0 15-15 15 15 0 0 0-15-15zm-55 15a15 15 0 0 0-15 15 15 15 0 0 0 15 15 15 15 0 0 0 15-15 15 15 0 0 0-15-15zm-398 188-17.08 16.857c0.84953 1.9709 2.0886 3.8428 3.7188 5.5195 6.9438 7.1419 17.604 7.2915 24.746 0.34766 0.77283-0.75139 1.4652-1.5477 2.0742-2.377l3.3984-16.229zm-199.95 4.5801c-13.256 11.369-29.45 19.387-46.059 24.488-15.724 4.8298-32.378 7.7602-49.045 9.9941 18.804 42.608 35.625 86.046 50.391 130.66l111.37-108.91c-23.62-8.1636-47.028-26.43-66.66-56.229zm-44.713 165.14-0.0156 0.0156 0.1875 0.49609c-0.0565-0.17095-0.1153-0.3408-0.17187-0.51172zm190.19-116.29-23.439 22.947c0.84473 1.8723 2.0436 3.6496 3.5996 5.25 6.9438 7.1419 17.604 7.2914 24.746 0.34765 7.1419-6.9438 7.2934-17.604 0.34961-24.746-1.5863-1.6315-3.3679-2.8983-5.2559-3.7988zm50.359 59.363c-3.7998 0.36904-7.5244 2.0433-10.598 5.0312-7.1419 6.9438-7.2915 17.604-0.34766 24.746 0.74094 0.76208 2.5343 1.9505 4.0742 2.916zm-111.02 0.0273-23.59 23.092c0.83612 1.7684 1.9914 3.4473 3.4688 4.9668 6.9438 7.1419 17.604 7.2934 24.746 0.34961 7.1419-6.9438 7.2914-17.606 0.34765-24.748-1.5075-1.5506-3.1888-2.7698-4.9726-3.6602zm668.13 29.19-170.84 0.10156c51.649 61.762 111.97 121.61 170.84 173.4zm-616.2 29.959c-4.4259-0.0622-8.8763 1.6355-12.447 5.1074-7.1419 6.9438-7.2915 17.604-0.34766 24.746 1.2325 1.2677 2.5816 2.316 4.0078 3.1426l24.055-23.551c-0.77745-1.4099-1.7666-2.7518-2.9688-3.9883-3.4719-3.571-7.873-5.3948-12.299-5.457zm-112.59 0.2461-23.73 23.232c0.82383 1.6647 1.9336 3.2472 3.332 4.6856 6.9438 7.1419 17.604 7.2914 24.746 0.34765 7.142-6.9438 7.2914-17.604 0.34765-24.746-1.429-1.4698-3.0145-2.6429-4.6953-3.5195zm331.21 15.656c-12.14 3.7183-20.203 15.212-20.203 28.17 0 16.569 13.016 30 29.072 30 2.2309 0 4.4539-0.26541 6.7656 0.12891-0.61279 0.85842-1.3665 0.82812-2.1211 0.82812-16.056 0-29.072 13.431-29.072 30s13.016 30 29.072 30c0.6151 0 1.2294-0.0193 1.6992 1.2285-2.5473 0.63894-5.0197 0.30859-7.5039 0.30859-16.056 1e-5 -29.072 13.431-29.072 30 0 10.741 5.5542 20.471 14.24 25.85-3.236-1.2119-6.6616-1.8574-10.133-1.8574-16.056 0-29.072 13.431-29.072 30 0 9.2445 4.1299 17.972 11.521 23.424 32.924-33.389 52.393-85.104 52.393-140.43 0-30.751-6.0359-60.829-17.586-87.654zm-171.39 32.18-159.82 156.49 158.58 0.33984c-2.7225-51.569-2.4122-103.86 1.2422-156.83zm429.22 5.0371-0.2422 78.85 36.947-41.236c-12.348-13.431-24.516-25.885-36.705-37.613zm-537.38 6.1328c-4.4258-0.0623-8.8763 1.6375-12.447 5.1094-7.1419 6.9438-7.2934 17.604-0.34961 24.746 1.3115 1.3489 2.7572 2.4475 4.2852 3.2969l23.928-23.432c-0.79865-1.5109-1.8368-2.9467-3.1172-4.2637-3.4719-3.571-7.873-5.3948-12.299-5.457zm-60.943 59.254c-4.4258-0.0623-8.8763 1.6355-12.447 5.1074-7.1419 6.9438-7.2934 17.604-0.34961 24.746 1.3894 1.429 2.9276 2.5789 4.5566 3.4473l23.801-23.303c-0.8163-1.613-1.9028-3.1453-3.2617-4.543-3.4719-3.571-7.873-5.3928-12.299-5.4551zm678.4 15.016-33.828 37.889 43.512 53.4v-82.447zm29.49 25.582 0.3125 150.93h29.881v-125.74c-10.062-8.5216-20.156-17.081-30.193-25.186zm-109.81 50.24v88.26l39.627-39.629zm90 83.578-17.682 17.107h17.787zm50 17.119-207.92 0.2403c0.9807 24.864-4.3785 50.904-22.082 79.748 30.039 6.6742 53.346 13.341 70 20-4.2126 5.9448-8.8503 11.418-14.428 16.93 68.456-14.519 130.47-70.541 174.43-108.88zm-1.7363 164.57-48.064 35.9 33.17 43.131-28.812 19.615-13.892-15.891 3.0918-2.2266 7.9238 9.961 23.426-14.978-29.789-36.447-48.121 34.863 30.887 43.734-29.664 18.227-13.135-16.522 3.1914-2.0801 7.4512 10.32 24.1-13.867-28.08-37.834-49.141 32.764 28.688 45.504-30.644 16.443-12.146-17.26 3.3086-1.8907 6.834 10.738 24.869-12.436-25.82-39.412-51.275 30.016 28.875 45.801-30.644 16.443-12.146-17.26 3.3086-1.8907 6.834 10.738 24.869-12.436-25.75-39.305-49.443 27.469 8.0098 9.2754 37.508-20.838 12.248 18.695-3.129 1.5645-7.166-11.262-24.691 14.109 25.854 36.74 51.356-27.557-29.125-46.199 30.725-17.984 12.178 18.588-3.129 1.5645-7.166-11.262-24.691 14.109 25.854 36.74 51.356-27.557-29.312-46.496 29.914-19.947 13.244 17.846-3.0332 1.7441-7.8125-10.822-23.824 15.527 27.957 35.166 49.623-30.49-31.426-44.5 29.352-21.266 14.092 17.242-2.9492 1.8848-8.3086-10.447-23.072 16.625 29.568 33.82 47.48-32.322v-1.2539l-32.869-42.74 29.111-21.744 3.7578 4.5977v-18.961zm0.7597 25.104-23.072 16.625 24.049 27.508v-18.232l-6.3359-7.248 3.0918-2.2266 3.2441 4.0782v-19.275z" fill="#f00"/>
</g>
<g transform="matrix(-.12677 0 0 -.1304 45.272 93.199)">
<path d="m667.13 60.605c-7.7825 7.6033-17.327 14.042-28.16 18.557-4.9723 22.292-14.542 41.391-27.148 56.947-57.83 0.42638-118.2 3.301-181.55 8.9726-6.1816-6.9357-11.54-14.351-15.539-21.9-8.0682-15.23-11.816-28.962-15.193-40.678-14.958-3.7795-28.374-11.3-40.654-20.223 29.074 48.754 48.962 87.641 65.6 127.74 195.87-17.399 355.94-8.9775 513.15 15.521 14.906-38.016 34.875-77.296 79.129-139.66-17.867 9.1001-40.336 16.83-70.18 22.223-2.8394 26.208-11.877 48.573-27.486 65.252-1.2792 1.3668-2.5891 2.6841-3.9277 3.9551l-203.95-14.262 203.13 13.801c-65.998-9.4998-133.04-16.083-202.99-18.971-9.3614-15.969-15.921-34.721-18.256-55.77-10.278-5.6655-19.065-13.105-25.975-21.51zm422.87 284.39a15 15 0 0 0-15 15 15 15 0 0 0 15 15 15 15 0 0 0 15-15 15 15 0 0 0-15-15zm110 0a15 15 0 0 0-15 15 15 15 0 0 0 15 15 15 15 0 0 0 15-15 15 15 0 0 0-15-15zm-55 15a15 15 0 0 0-15 15 15 15 0 0 0 15 15 15 15 0 0 0 15-15 15 15 0 0 0-15-15zm-398 188-17.08 16.857c0.84953 1.9709 2.0886 3.8428 3.7188 5.5195 6.9438 7.1419 17.604 7.2915 24.746 0.34766 0.77283-0.75139 1.4652-1.5477 2.0742-2.377l3.3984-16.229zm-199.95 4.5801c-13.256 11.369-29.45 19.387-46.059 24.488-15.724 4.8298-32.378 7.7602-49.045 9.9941 18.804 42.608 35.625 86.046 50.391 130.66l111.37-108.91c-23.62-8.1636-47.028-26.43-66.66-56.229zm-44.713 165.14-0.0156 0.0156 0.1875 0.49609c-0.0565-0.17095-0.1153-0.3408-0.17187-0.51172zm190.19-116.29-23.439 22.947c0.84473 1.8723 2.0436 3.6496 3.5996 5.25 6.9438 7.1419 17.604 7.2914 24.746 0.34765 7.1419-6.9438 7.2934-17.604 0.34961-24.746-1.5863-1.6315-3.3679-2.8983-5.2559-3.7988zm50.359 59.363c-3.7998 0.36904-7.5244 2.0433-10.598 5.0312-7.1419 6.9438-7.2915 17.604-0.34766 24.746 0.74094 0.76208 2.5343 1.9505 4.0742 2.916zm-111.02 0.0273-23.59 23.092c0.83612 1.7684 1.9914 3.4473 3.4688 4.9668 6.9438 7.1419 17.604 7.2934 24.746 0.34961 7.1419-6.9438 7.2914-17.606 0.34765-24.748-1.5075-1.5506-3.1888-2.7698-4.9726-3.6602zm668.13 29.19-170.84 0.10156c51.649 61.762 111.97 121.61 170.84 173.4zm-616.2 29.959c-4.4259-0.0622-8.8763 1.6355-12.447 5.1074-7.1419 6.9438-7.2915 17.604-0.34766 24.746 1.2325 1.2677 2.5816 2.316 4.0078 3.1426l24.055-23.551c-0.77745-1.4099-1.7666-2.7518-2.9688-3.9883-3.4719-3.571-7.873-5.3948-12.299-5.457zm-112.59 0.2461-23.73 23.232c0.82383 1.6647 1.9336 3.2472 3.332 4.6856 6.9438 7.1419 17.604 7.2914 24.746 0.34765 7.142-6.9438 7.2914-17.604 0.34765-24.746-1.429-1.4698-3.0145-2.6429-4.6953-3.5195zm331.21 15.656c-12.14 3.7183-20.203 15.212-20.203 28.17 0 16.569 13.016 30 29.072 30 2.2309 0 4.4539-0.26541 6.7656 0.12891-0.61279 0.85842-1.3665 0.82812-2.1211 0.82812-16.056 0-29.072 13.431-29.072 30s13.016 30 29.072 30c0.6151 0 1.2294-0.0193 1.6992 1.2285-2.5473 0.63894-5.0197 0.30859-7.5039 0.30859-16.056 1e-5 -29.072 13.431-29.072 30 0 10.741 5.5542 20.471 14.24 25.85-3.236-1.2119-6.6616-1.8574-10.133-1.8574-16.056 0-29.072 13.431-29.072 30 0 9.2445 4.1299 17.972 11.521 23.424 32.924-33.389 52.393-85.104 52.393-140.43 0-30.751-6.0359-60.829-17.586-87.654zm-171.39 32.18-159.82 156.49 158.58 0.33984c-2.7225-51.569-2.4122-103.86 1.2422-156.83zm429.22 5.0371-0.2422 78.85 36.947-41.236c-12.348-13.431-24.516-25.885-36.705-37.613zm-537.38 6.1328c-4.4258-0.0623-8.8763 1.6375-12.447 5.1094-7.1419 6.9438-7.2934 17.604-0.34961 24.746 1.3115 1.3489 2.7572 2.4475 4.2852 3.2969l23.928-23.432c-0.79865-1.5109-1.8368-2.9467-3.1172-4.2637-3.4719-3.571-7.873-5.3948-12.299-5.457zm-60.943 59.254c-4.4258-0.0623-8.8763 1.6355-12.447 5.1074-7.1419 6.9438-7.2934 17.604-0.34961 24.746 1.3894 1.429 2.9276 2.5789 4.5566 3.4473l23.801-23.303c-0.8163-1.613-1.9028-3.1453-3.2617-4.543-3.4719-3.571-7.873-5.3928-12.299-5.4551zm678.4 15.016-33.828 37.889 43.512 53.4v-82.447zm29.49 25.582 0.3125 150.93h29.881v-125.74c-10.062-8.5216-20.156-17.081-30.193-25.186zm-109.81 50.24v88.26l39.627-39.629zm90 83.578-17.682 17.107h17.787zm50 17.119-207.92 0.2403c0.9807 24.864-4.3785 50.904-22.082 79.748 30.039 6.6742 53.346 13.341 70 20-4.2126 5.9448-8.8503 11.418-14.428 16.93 68.456-14.519 130.47-70.541 174.43-108.88zm-1.7363 164.57-48.064 35.9 33.17 43.131-28.812 19.615-13.892-15.891 3.0918-2.2266 7.9238 9.961 23.426-14.978-29.789-36.447-48.121 34.863 30.887 43.734-29.664 18.227-13.135-16.522 3.1914-2.0801 7.4512 10.32 24.1-13.867-28.08-37.834-49.141 32.764 28.688 45.504-30.644 16.443-12.146-17.26 3.3086-1.8907 6.834 10.738 24.869-12.436-25.82-39.412-51.275 30.016 28.875 45.801-30.644 16.443-12.146-17.26 3.3086-1.8907 6.834 10.738 24.869-12.436-25.75-39.305-49.443 27.469 8.0098 9.2754 37.508-20.838 12.248 18.695-3.129 1.5645-7.166-11.262-24.691 14.109 25.854 36.74 51.356-27.557-29.125-46.199 30.725-17.984 12.178 18.588-3.129 1.5645-7.166-11.262-24.691 14.109 25.854 36.74 51.356-27.557-29.312-46.496 29.914-19.947 13.244 17.846-3.0332 1.7441-7.8125-10.822-23.824 15.527 27.957 35.166 49.623-30.49-31.426-44.5 29.352-21.266 14.092 17.242-2.9492 1.8848-8.3086-10.447-23.072 16.625 29.568 33.82 47.48-32.322v-1.2539l-32.869-42.74 29.111-21.744 3.7578 4.5977v-18.961zm0.7597 25.104-23.072 16.625 24.049 27.508v-18.232l-6.3359-7.248 3.0918-2.2266 3.2441 4.0782v-19.275z" fill="#f00"/>
</g>
<g transform="matrix(.12677 0 0 .1304 -119.53 -167.6)">
<path d="m603.15 277.13a10 16.642 0 0 0-10 16.641 10 16.642 0 0 0 10 16.643 10 16.642 0 0 0 10-16.643 10 16.642 0 0 0-10-16.641zm-123.15 1.2305a10 16.642 0 0 0-10 16.643 10 16.642 0 0 0 10 16.643 10 16.642 0 0 0 10-16.643 10 16.642 0 0 0-10-16.643zm720.08 21.562c-15.677 11.835-37.854 20.08-55.082 20.08-16.299 0-32.597-8.8561-44.219-17.086l1.6329 35.299c34.293 17.189 50.878 17.19 86.406-0.57422 3.4936-1.8089 7.3638-2.7678 11.238-2.7949zm-670.08 120.08c-10 10-24.607 13.168-25.584 14.406l-4.416 5.5938c8.8269-11.184 57.87-5.191 88.768-8.2461l-8.7676-1.7539c-10 0-20-10-20-10s-6.7168 10-16.717 10c-13.284 0-13.283-10-13.283-10zm58.768 11.754 16.232 3.2461-5-5c-3.3277 0.78742-7.1262 1.3479-11.232 1.7539zm586.23 28.246c-6.6736 30.115-20.095 60.114-40 90-18.979-26.062-38.33-51.913-45-85-22.902 33.546-46.544 52.183-70.799 60.172 24.822 53.374 63.838 109.79 109.86 164.81l170.94 0.01758v-143.3c-48.401-15.9-96.854-31.7-125-86.701zm-188.6 68.139c-5.778 9.1816-11.348 18.312-16.768 27.652 15.487 14.084 29.388 29.297 41.436 45.328 47.354 63.015 71.434 141.18 71.434 222.41 0 81.232-24.078 159.39-71.434 222.41-3.3384 4.4425-6.8191 8.8217-10.373 13.275 2.7 0.03 5.2864-0.1387 7.9336-0.033 1.4841 0.059 2.865 0.2775 4.2714 0.4551 22.057-16.129 38.059-38.99 57.031-64.539l20.07 14.904c1.0497 6.3058 1.7822 12.684 2.0547 19.58l37.807 0.4199 0.6602-289.32c-60.507-69.222-113.2-142.19-144.12-212.54zm-71.094 26.615a5 5 0 0 0-4.3633 2.8789 5 5 0 0 0 2.4102 6.6465 5 5 0 0 0 6.6484-2.4102 5 5 0 0 0-2.4102-6.6465 5 5 0 0 0-2.2852-0.46875zm-118.52 8.6699a5 5 0 0 0-4.9648 4.1035 5 5 0 0 0 4.0234 5.8145 5 5 0 0 0 5.8144-4.0234 5 5 0 0 0-4.0234-5.8144 5 5 0 0 0-0.84961-0.0801zm96.459 3.0898a5 5 0 0 0-4.3633 2.8789 5 5 0 0 0 2.4102 6.6465 5 5 0 0 0 6.6484-2.4102 5 5 0 0 0-2.4102-6.6465 5 5 0 0 0-2.2852-0.46875zm-66.943 2.2871a5 5 0 0 0-4.9668 4.1035 5 5 0 0 0 4.0234 5.8144 5 5 0 0 0 5.8145-4.0215 5 5 0 0 0-4.0234-5.8164 5 5 0 0 0-0.84766-0.0801zm-15.701 7.2305-20.592 57.234 12.525-12.965 1.334 20.574 6.2148-19.957 9.4394 17.727zm109.82 3.1934a5 5 0 0 0-4.3633 2.8789 5 5 0 0 0 2.4102 6.6484 5 5 0 0 0 6.6484-2.4102 5 5 0 0 0-2.4102-6.6484 5 5 0 0 0-2.2852-0.46875zm-15.539 3.1719-34.482 50.109 15.414-9.3496-3.9453 20.234 11.09-17.717 4.6152 19.543zm-167.76 27.424c0.79969 5.533 0.72062 11.166-0.23437 16.674 3.9058-0.56448 7.861-0.69119 11.787-0.38086l2.9297-15.787c-4.8233 0.49326-9.6999 0.32333-14.482-0.50586zm92.875 51.41a5 5 0 0 0-4.707 3.8047 5 5 0 0 0 3.6621 6.0488 5 5 0 0 0 6.0488-3.6621 5 5 0 0 0-3.6621-6.0488 5 5 0 0 0-1.3418-0.14258zm-153.82 7.8438c0.79969 5.533 0.72061 11.166-0.23437 16.674 5.533-0.79967 11.166-0.72064 16.674 0.23437-0.79969-5.533-0.72061-11.166 0.23437-16.674-5.533 0.79967-11.166 0.72065-16.674-0.23437zm134.48 7.998a5 5 0 0 0-4.707 3.8047 5 5 0 0 0 3.6621 6.0488 5 5 0 0 0 6.0488-3.6621 5 5 0 0 0-3.6621-6.0488 5 5 0 0 0-1.3418-0.14257zm29.133 7.1602a5 5 0 0 0-4.707 3.8047 5 5 0 0 0 3.6621 6.0488 5 5 0 0 0 6.0488-3.6621 5 5 0 0 0-3.6621-6.0488 5 5 0 0 0-1.3418-0.14258zm-15.611 6.2734-24.033 55.879 13.291-12.18 0.082 20.615 7.416-19.541 8.3438 18.266zm-208.94 37.82c0.7997 5.5329 0.72061 11.166-0.23438 16.674 5.533-0.79967 11.166-0.72064 16.674 0.23438-0.7997-5.533-0.72062-11.166 0.23437-16.674-5.533 0.79966-11.166 0.72063-16.674-0.23438zm147.97 51.855a5 5 0 0 0-5.2031 4.4023 5 5 0 0 0 4.3711 5.5566 5 5 0 0 0 5.5566-4.373 5 5 0 0 0-4.3711-5.5566 5 5 0 0 0-0.35352-0.0293zm110.4 2.2891c-10.961 44.137-16.844 86.611-18.26 127.85l0.19336 0.50781c4.2834-4.4705 9.5207-7.9947 15.379-10.203-1.5341-4.4555-2.3594-9.2068-2.3594-14.086 0-13.505 6.3358-25.728 16.191-33.564-6.4655-7.527-10.387-17.353-10.387-27.973 0-10.72 3.9924-20.632 10.566-28.186-4.7192-3.9877-8.5678-9.0087-11.324-14.344zm-319.31 5.1094c0.7997 5.533 0.7206 11.164-0.23438 16.672 5.533-0.79966 11.166-0.72063 16.674 0.23438-0.7997-5.5329-0.72062-11.164 0.23437-16.672-5.533 0.79967-11.166 0.72064-16.674-0.23437zm275.48 2.7246a5 5 0 0 0-4.7051 4.4023 5 5 0 0 0 4.373 5.5566 5 5 0 0 0 5.5566-4.3711 5 5 0 0 0-4.373-5.5586 5 5 0 0 0-0.35156-0.0293 5 5 0 0 0-0.5 0zm-84.338 7.959a5 5 0 0 0-4.7051 4.4024 5 5 0 0 0 4.373 5.5566 5 5 0 0 0 5.5566-4.373 5 5 0 0 0-4.3711-5.5566 5 5 0 0 0-0.35352-0.0293 5 5 0 0 0-0.5 0zm30.145 3.5488a5 5 0 0 0-0.35547 6e-3 5 5 0 0 0-4.7051 4.4023 5 5 0 0 0 4.373 5.5566 5 5 0 0 0 5.5566-4.373 5 5 0 0 0-4.3711-5.5566 5 5 0 0 0-0.49805-0.0352zm36.93 6.5742a5 5 0 0 0-4.7051 4.4023 5 5 0 0 0 4.373 5.5566 5 5 0 0 0 5.5566-4.3711 5 5 0 0 0-4.373-5.5586 5 5 0 0 0-0.35156-0.0293 5 5 0 0 0-0.5 0zm-52.512 1.6133-17.039 58.393 11.707-13.709 2.5957 20.451 4.9766-20.301 10.51 17.113zm82.654 1.9356a5 5 0 0 0-0.35352 6e-3 5 5 0 0 0-4.7051 4.4023 5 5 0 0 0 4.3711 5.5566 5 5 0 0 0 5.5586-4.373 5 5 0 0 0-4.373-5.5566 5 5 0 0 0-0.49804-0.0351zm-15.58 8.1875-17.039 58.393 11.707-13.709 2.5957 20.451 4.9766-20.301 10.51 17.113zm-37.074 84.877a5 5 0 0 0-5 5 5 5 0 0 0 5 5 5 5 0 0 0 5-5 5 5 0 0 0-5-5zm-15 20a5 5 0 0 0-5 5 5 5 0 0 0 5 5 5 5 0 0 0 5-5 5 5 0 0 0-5-5zm30 0a5 5 0 0 0-5 5 5 5 0 0 0 5 5 5 5 0 0 0 5-5 5 5 0 0 0-5-5zm-15 10-10 60 10-15 5 20 2.5371-20.748 12.463 15.748zm41.168 85.121a5 5 0 0 0-0.5 0 5 5 0 0 0-4.7031 5.2812 5 5 0 0 0 5.2812 4.7032 5 5 0 0 0 4.7031-5.2813 5 5 0 0 0-4.7812-4.707zm-70.5 2.9922a5 5 0 0 0-0.99609 0.074 5 5 0 0 0-4.0547 5.793 5 5 0 0 0 5.793 4.0547 5 5 0 0 0 4.0547-5.793 5 5 0 0 0-4.7969-4.1289zm539.33 15.438c-44.498 38.33-106.27 93.932-174.58 108.53-14.742 14.61-33.499 25.524-55.422 32.92 24.836 45.067 23.764 68.649 20 90l-71.174-71.176c-3.7859 4.8702-10.371 7.0815-16.574 5.0137-5.2891-1.7629-8.9306-6.1824-9.961-11.27-13.782 4.5938-43.373 14.458-63.361 21.008 21.407 40.022 46.899 78.808 75.711 116.18 109.28-57.818 212.28-117.48 295.36-193.25zm-307.71 154.02c0.18084-0.06 0.59036-0.1955 0.76562-0.2539l-0.91602-0.5977c0.0409 0.2862 0.0932 0.5691 0.1504 0.8516zm-144.99-153.35a5 5 0 0 0-0.5 0 5 5 0 0 0-4.7031 5.2813 5 5 0 0 0 5.2793 4.7031 5 5 0 0 0 4.7031-5.2813 5 5 0 0 0-4.7793-4.707zm-68.383 0.9805a5 5 0 0 0-0.9961 0.074 5 5 0 0 0-4.0547 5.793 5 5 0 0 0 5.793 4.0546 5 5 0 0 0 4.0547-5.7929 5 5 0 0 0-4.7969-4.1289zm38.432 0.7539a5 5 0 0 0-0.5 0 5 5 0 0 0-4.7031 5.2793 5 5 0 0 0 5.2812 4.7031 5 5 0 0 0 4.7031-5.2812 5 5 0 0 0-4.7812-4.7051zm-67.977 4.4609a5 5 0 0 0-0.99414 0.074 5 5 0 0 0-4.0547 5.793 5 5 0 0 0 5.793 4.0547 5 5 0 0 0 4.0547-5.793 5 5 0 0 0-4.7988-4.1289zm83.029 4.6582-4.7266 43.863 21.557-1.6719zm-67.514 2.6563 0.58008 60.824 7.2402-16.51 8.4004 18.828-1.1074-20.873 15.01 13.342zm153.3 174.53-3.1856 17.744-12.562-16.346 5.9492 20.037-17.711-9.4687 42.275 47.041zm-86.875 19.826-4.4492 17.469-11.361-17.203 4.5 20.412-16.986-10.713 38.797 49.949zm117.34 32.783a5 5 0 0 0-1.9434 0.416 5 5 0 0 0-2.5898 6.5801 5 5 0 0 0 6.5801 2.5899 5 5 0 0 0 2.5898-6.5801 5 5 0 0 0-4.6367-3.0059zm-27.51 11.969a5 5 0 0 0-1.9434 0.414 5 5 0 0 0-2.5898 6.5801 5 5 0 0 0 6.5801 2.5899 5 5 0 0 0 2.5898-6.5801 5 5 0 0 0-4.6367-3.0039zm-63.359 9.8965a5 5 0 0 0-0.35352 0 5 5 0 0 0-1.4668 0.2793 5 5 0 0 0-3.0547 6.377 5 5 0 0 0 6.377 3.0547 5 5 0 0 0 3.0547-6.377 5 5 0 0 0-4.5566-3.3359zm85.094 2.459a5 5 0 0 0-1.9434 0.414 5 5 0 0 0-2.5918 6.5801 5 5 0 0 0 6.5801 2.5898 5 5 0 0 0 2.5898-6.5781 5 5 0 0 0-4.6348-3.0058zm-113.39 7.5078a5 5 0 0 0-0.35156 0 5 5 0 0 0-1.4688 0.2793 5 5 0 0 0-3.0547 6.377 5 5 0 0 0 6.377 3.0547 5 5 0 0 0 3.0547-6.377 5 5 0 0 0-4.5566-3.3359zm82.398 0.373-1.8809 17.93-13.723-15.385 7.3965 19.549-18.354-8.1485 45.598 43.828zm-61.605 13.508a5 5 0 0 0-0.35351 0 5 5 0 0 0-1.4668 0.2793 5 5 0 0 0-3.0547 6.3769 5 5 0 0 0 6.377 3.0547 5 5 0 0 0 3.0547-6.3769 5 5 0 0 0-4.5566-3.336zm96.33 36.721a5 5 0 0 0-2.4082 0.5723 5 5 0 0 0-2.1016 6.75 5 5 0 0 0 6.75 2.1035 5 5 0 0 0 2.1035-6.75 5 5 0 0 0-4.3438-2.6758zm-26.562 13.945a5 5 0 0 0-2.4062 0.5723 5 5 0 0 0-2.1035 6.75 5 5 0 0 0 6.752 2.1035 5 5 0 0 0 2.1016-6.7519 5 5 0 0 0-4.3438-2.6739zm83.164 6.6621-1.8808 17.93-13.725-15.385 7.3984 19.549-18.354-8.1484 45.596 43.826zm-60.586 4.0723a5 5 0 0 0-2.4082 0.5723 5 5 0 0 0-2.1016 6.7519 5 5 0 0 0 6.75 2.1035 5 5 0 0 0 2.1035-6.7519 5 5 0 0 0-4.3438-2.6758zm-28.383 15.498-4.2383 17.523-11.566-17.064 4.7441 20.356-17.113-10.508 18.98 23.838 16.611 5.3711zm123.69 30.656a5 5 0 0 0-2.4082 0.5723 5 5 0 0 0-2.1015 6.7519 5 5 0 0 0 6.75 2.1035 5 5 0 0 0 2.1035-6.7519 5 5 0 0 0-4.3438-2.6758zm-26.562 13.945a5 5 0 0 0-2.4062 0.5723 5 5 0 0 0-2.1035 6.7519 5 5 0 0 0 6.75 2.1016 5 5 0 0 0 2.1035-6.75 5 5 0 0 0-4.3438-2.6758zm-70.357 9.7305a5 5 0 0 0-1.4648 0.2988 5 5 0 0 0-2.5957 2.166l2.543 7.2051a5 5 0 0 0 3.4883 0.02 5 5 0 0 0 2.9785-6.4121 5 5 0 0 0-4.4492-3.2773 5 5 0 0 0-0.5 0zm92.936 1.0059a5 5 0 0 0-2.4082 0.5722 5 5 0 0 0-2.1016 6.75 5 5 0 0 0 6.75 2.1035 5 5 0 0 0 2.1035-6.75 5 5 0 0 0-4.3437-2.6757z" fill="#44f"/>
</g>
<g transform="matrix(-.12677 0 0 -.1304 45.272 93.199)">
<path d="m603.15 277.13a10 16.642 0 0 0-10 16.641 10 16.642 0 0 0 10 16.643 10 16.642 0 0 0 10-16.643 10 16.642 0 0 0-10-16.641zm-123.15 1.2305a10 16.642 0 0 0-10 16.643 10 16.642 0 0 0 10 16.643 10 16.642 0 0 0 10-16.643 10 16.642 0 0 0-10-16.643zm720.08 21.562c-15.677 11.835-37.854 20.08-55.082 20.08-16.299 0-32.597-8.8561-44.219-17.086l1.6329 35.299c34.293 17.189 50.878 17.19 86.406-0.57422 3.4936-1.8089 7.3638-2.7678 11.238-2.7949zm-670.08 120.08c-10 10-24.607 13.168-25.584 14.406l-4.416 5.5938c8.8269-11.184 57.87-5.191 88.768-8.2461l-8.7676-1.7539c-10 0-20-10-20-10s-6.7168 10-16.717 10c-13.284 0-13.283-10-13.283-10zm58.768 11.754 16.232 3.2461-5-5c-3.3277 0.78742-7.1262 1.3479-11.232 1.7539zm586.23 28.246c-6.6736 30.115-20.095 60.114-40 90-18.979-26.062-38.33-51.913-45-85-22.902 33.546-46.544 52.183-70.799 60.172 24.822 53.374 63.838 109.79 109.86 164.81l170.94 0.01758v-143.3c-48.401-15.9-96.854-31.7-125-86.701zm-188.6 68.139c-5.778 9.1816-11.348 18.312-16.768 27.652 15.487 14.084 29.388 29.297 41.436 45.328 47.354 63.015 71.434 141.18 71.434 222.41 0 81.232-24.078 159.39-71.434 222.41-3.3384 4.4425-6.8191 8.8217-10.373 13.275 2.7 0.03 5.2864-0.1387 7.9336-0.033 1.4841 0.059 2.865 0.2775 4.2714 0.4551 22.057-16.129 38.059-38.99 57.031-64.539l20.07 14.904c1.0497 6.3058 1.7822 12.684 2.0547 19.58l37.807 0.4199 0.6602-289.32c-60.507-69.222-113.2-142.19-144.12-212.54zm-71.094 26.615a5 5 0 0 0-4.3633 2.8789 5 5 0 0 0 2.4102 6.6465 5 5 0 0 0 6.6484-2.4102 5 5 0 0 0-2.4102-6.6465 5 5 0 0 0-2.2852-0.46875zm-118.52 8.6699a5 5 0 0 0-4.9648 4.1035 5 5 0 0 0 4.0234 5.8145 5 5 0 0 0 5.8144-4.0234 5 5 0 0 0-4.0234-5.8144 5 5 0 0 0-0.84961-0.0801zm96.459 3.0898a5 5 0 0 0-4.3633 2.8789 5 5 0 0 0 2.4102 6.6465 5 5 0 0 0 6.6484-2.4102 5 5 0 0 0-2.4102-6.6465 5 5 0 0 0-2.2852-0.46875zm-66.943 2.2871a5 5 0 0 0-4.9668 4.1035 5 5 0 0 0 4.0234 5.8144 5 5 0 0 0 5.8145-4.0215 5 5 0 0 0-4.0234-5.8164 5 5 0 0 0-0.84766-0.0801zm-15.701 7.2305-20.592 57.234 12.525-12.965 1.334 20.574 6.2148-19.957 9.4394 17.727zm109.82 3.1934a5 5 0 0 0-4.3633 2.8789 5 5 0 0 0 2.4102 6.6484 5 5 0 0 0 6.6484-2.4102 5 5 0 0 0-2.4102-6.6484 5 5 0 0 0-2.2852-0.46875zm-15.539 3.1719-34.482 50.109 15.414-9.3496-3.9453 20.234 11.09-17.717 4.6152 19.543zm-167.76 27.424c0.79969 5.533 0.72062 11.166-0.23437 16.674 3.9058-0.56448 7.861-0.69119 11.787-0.38086l2.9297-15.787c-4.8233 0.49326-9.6999 0.32333-14.482-0.50586zm92.875 51.41a5 5 0 0 0-4.707 3.8047 5 5 0 0 0 3.6621 6.0488 5 5 0 0 0 6.0488-3.6621 5 5 0 0 0-3.6621-6.0488 5 5 0 0 0-1.3418-0.14258zm-153.82 7.8438c0.79969 5.533 0.72061 11.166-0.23437 16.674 5.533-0.79967 11.166-0.72064 16.674 0.23437-0.79969-5.533-0.72061-11.166 0.23437-16.674-5.533 0.79967-11.166 0.72065-16.674-0.23437zm134.48 7.998a5 5 0 0 0-4.707 3.8047 5 5 0 0 0 3.6621 6.0488 5 5 0 0 0 6.0488-3.6621 5 5 0 0 0-3.6621-6.0488 5 5 0 0 0-1.3418-0.14257zm29.133 7.1602a5 5 0 0 0-4.707 3.8047 5 5 0 0 0 3.6621 6.0488 5 5 0 0 0 6.0488-3.6621 5 5 0 0 0-3.6621-6.0488 5 5 0 0 0-1.3418-0.14258zm-15.611 6.2734-24.033 55.879 13.291-12.18 0.082 20.615 7.416-19.541 8.3438 18.266zm-208.94 37.82c0.7997 5.5329 0.72061 11.166-0.23438 16.674 5.533-0.79967 11.166-0.72064 16.674 0.23438-0.7997-5.533-0.72062-11.166 0.23437-16.674-5.533 0.79966-11.166 0.72063-16.674-0.23438zm147.97 51.855a5 5 0 0 0-5.2031 4.4023 5 5 0 0 0 4.3711 5.5566 5 5 0 0 0 5.5566-4.373 5 5 0 0 0-4.3711-5.5566 5 5 0 0 0-0.35352-0.0293zm110.4 2.2891c-10.961 44.137-16.844 86.611-18.26 127.85l0.19336 0.50781c4.2834-4.4705 9.5207-7.9947 15.379-10.203-1.5341-4.4555-2.3594-9.2068-2.3594-14.086 0-13.505 6.3358-25.728 16.191-33.564-6.4655-7.527-10.387-17.353-10.387-27.973 0-10.72 3.9924-20.632 10.566-28.186-4.7192-3.9877-8.5678-9.0087-11.324-14.344zm-319.31 5.1094c0.7997 5.533 0.7206 11.164-0.23438 16.672 5.533-0.79966 11.166-0.72063 16.674 0.23438-0.7997-5.5329-0.72062-11.164 0.23437-16.672-5.533 0.79967-11.166 0.72064-16.674-0.23437zm275.48 2.7246a5 5 0 0 0-4.7051 4.4023 5 5 0 0 0 4.373 5.5566 5 5 0 0 0 5.5566-4.3711 5 5 0 0 0-4.373-5.5586 5 5 0 0 0-0.35156-0.0293 5 5 0 0 0-0.5 0zm-84.338 7.959a5 5 0 0 0-4.7051 4.4024 5 5 0 0 0 4.373 5.5566 5 5 0 0 0 5.5566-4.373 5 5 0 0 0-4.3711-5.5566 5 5 0 0 0-0.35352-0.0293 5 5 0 0 0-0.5 0zm30.145 3.5488a5 5 0 0 0-0.35547 6e-3 5 5 0 0 0-4.7051 4.4023 5 5 0 0 0 4.373 5.5566 5 5 0 0 0 5.5566-4.373 5 5 0 0 0-4.3711-5.5566 5 5 0 0 0-0.49805-0.0352zm36.93 6.5742a5 5 0 0 0-4.7051 4.4023 5 5 0 0 0 4.373 5.5566 5 5 0 0 0 5.5566-4.3711 5 5 0 0 0-4.373-5.5586 5 5 0 0 0-0.35156-0.0293 5 5 0 0 0-0.5 0zm-52.512 1.6133-17.039 58.393 11.707-13.709 2.5957 20.451 4.9766-20.301 10.51 17.113zm82.654 1.9356a5 5 0 0 0-0.35352 6e-3 5 5 0 0 0-4.7051 4.4023 5 5 0 0 0 4.3711 5.5566 5 5 0 0 0 5.5586-4.373 5 5 0 0 0-4.373-5.5566 5 5 0 0 0-0.49804-0.0351zm-15.58 8.1875-17.039 58.393 11.707-13.709 2.5957 20.451 4.9766-20.301 10.51 17.113zm-37.074 84.877a5 5 0 0 0-5 5 5 5 0 0 0 5 5 5 5 0 0 0 5-5 5 5 0 0 0-5-5zm-15 20a5 5 0 0 0-5 5 5 5 0 0 0 5 5 5 5 0 0 0 5-5 5 5 0 0 0-5-5zm30 0a5 5 0 0 0-5 5 5 5 0 0 0 5 5 5 5 0 0 0 5-5 5 5 0 0 0-5-5zm-15 10-10 60 10-15 5 20 2.5371-20.748 12.463 15.748zm41.168 85.121a5 5 0 0 0-0.5 0 5 5 0 0 0-4.7031 5.2812 5 5 0 0 0 5.2812 4.7032 5 5 0 0 0 4.7031-5.2813 5 5 0 0 0-4.7812-4.707zm-70.5 2.9922a5 5 0 0 0-0.99609 0.074 5 5 0 0 0-4.0547 5.793 5 5 0 0 0 5.793 4.0547 5 5 0 0 0 4.0547-5.793 5 5 0 0 0-4.7969-4.1289zm539.33 15.438c-44.498 38.33-106.27 93.932-174.58 108.53-14.742 14.61-33.499 25.524-55.422 32.92 24.836 45.067 23.764 68.649 20 90l-71.174-71.176c-3.7859 4.8702-10.371 7.0815-16.574 5.0137-5.2891-1.7629-8.9306-6.1824-9.961-11.27-13.782 4.5938-43.373 14.458-63.361 21.008 21.407 40.022 46.899 78.808 75.711 116.18 109.28-57.818 212.28-117.48 295.36-193.25zm-307.71 154.02c0.18084-0.06 0.59036-0.1955 0.76562-0.2539l-0.91602-0.5977c0.0409 0.2862 0.0932 0.5691 0.1504 0.8516zm-144.99-153.35a5 5 0 0 0-0.5 0 5 5 0 0 0-4.7031 5.2813 5 5 0 0 0 5.2793 4.7031 5 5 0 0 0 4.7031-5.2813 5 5 0 0 0-4.7793-4.707zm-68.383 0.9805a5 5 0 0 0-0.9961 0.074 5 5 0 0 0-4.0547 5.793 5 5 0 0 0 5.793 4.0546 5 5 0 0 0 4.0547-5.7929 5 5 0 0 0-4.7969-4.1289zm38.432 0.7539a5 5 0 0 0-0.5 0 5 5 0 0 0-4.7031 5.2793 5 5 0 0 0 5.2812 4.7031 5 5 0 0 0 4.7031-5.2812 5 5 0 0 0-4.7812-4.7051zm-67.977 4.4609a5 5 0 0 0-0.99414 0.074 5 5 0 0 0-4.0547 5.793 5 5 0 0 0 5.793 4.0547 5 5 0 0 0 4.0547-5.793 5 5 0 0 0-4.7988-4.1289zm83.029 4.6582-4.7266 43.863 21.557-1.6719zm-67.514 2.6563 0.58008 60.824 7.2402-16.51 8.4004 18.828-1.1074-20.873 15.01 13.342zm153.3 174.53-3.1856 17.744-12.562-16.346 5.9492 20.037-17.711-9.4687 42.275 47.041zm-86.875 19.826-4.4492 17.469-11.361-17.203 4.5 20.412-16.986-10.713 38.797 49.949zm117.34 32.783a5 5 0 0 0-1.9434 0.416 5 5 0 0 0-2.5898 6.5801 5 5 0 0 0 6.5801 2.5899 5 5 0 0 0 2.5898-6.5801 5 5 0 0 0-4.6367-3.0059zm-27.51 11.969a5 5 0 0 0-1.9434 0.414 5 5 0 0 0-2.5898 6.5801 5 5 0 0 0 6.5801 2.5899 5 5 0 0 0 2.5898-6.5801 5 5 0 0 0-4.6367-3.0039zm-63.359 9.8965a5 5 0 0 0-0.35352 0 5 5 0 0 0-1.4668 0.2793 5 5 0 0 0-3.0547 6.377 5 5 0 0 0 6.377 3.0547 5 5 0 0 0 3.0547-6.377 5 5 0 0 0-4.5566-3.3359zm85.094 2.459a5 5 0 0 0-1.9434 0.414 5 5 0 0 0-2.5918 6.5801 5 5 0 0 0 6.5801 2.5898 5 5 0 0 0 2.5898-6.5781 5 5 0 0 0-4.6348-3.0058zm-113.39 7.5078a5 5 0 0 0-0.35156 0 5 5 0 0 0-1.4688 0.2793 5 5 0 0 0-3.0547 6.377 5 5 0 0 0 6.377 3.0547 5 5 0 0 0 3.0547-6.377 5 5 0 0 0-4.5566-3.3359zm82.398 0.373-1.8809 17.93-13.723-15.385 7.3965 19.549-18.354-8.1485 45.598 43.828zm-61.605 13.508a5 5 0 0 0-0.35351 0 5 5 0 0 0-1.4668 0.2793 5 5 0 0 0-3.0547 6.3769 5 5 0 0 0 6.377 3.0547 5 5 0 0 0 3.0547-6.3769 5 5 0 0 0-4.5566-3.336zm96.33 36.721a5 5 0 0 0-2.4082 0.5723 5 5 0 0 0-2.1016 6.75 5 5 0 0 0 6.75 2.1035 5 5 0 0 0 2.1035-6.75 5 5 0 0 0-4.3438-2.6758zm-26.562 13.945a5 5 0 0 0-2.4062 0.5723 5 5 0 0 0-2.1035 6.75 5 5 0 0 0 6.752 2.1035 5 5 0 0 0 2.1016-6.7519 5 5 0 0 0-4.3438-2.6739zm83.164 6.6621-1.8808 17.93-13.725-15.385 7.3984 19.549-18.354-8.1484 45.596 43.826zm-60.586 4.0723a5 5 0 0 0-2.4082 0.5723 5 5 0 0 0-2.1016 6.7519 5 5 0 0 0 6.75 2.1035 5 5 0 0 0 2.1035-6.7519 5 5 0 0 0-4.3438-2.6758zm-28.383 15.498-4.2383 17.523-11.566-17.064 4.7441 20.356-17.113-10.508 18.98 23.838 16.611 5.3711zm123.69 30.656a5 5 0 0 0-2.4082 0.5723 5 5 0 0 0-2.1015 6.7519 5 5 0 0 0 6.75 2.1035 5 5 0 0 0 2.1035-6.7519 5 5 0 0 0-4.3438-2.6758zm-26.562 13.945a5 5 0 0 0-2.4062 0.5723 5 5 0 0 0-2.1035 6.7519 5 5 0 0 0 6.75 2.1016 5 5 0 0 0 2.1035-6.75 5 5 0 0 0-4.3438-2.6758zm-70.357 9.7305a5 5 0 0 0-1.4648 0.2988 5 5 0 0 0-2.5957 2.166l2.543 7.2051a5 5 0 0 0 3.4883 0.02 5 5 0 0 0 2.9785-6.4121 5 5 0 0 0-4.4492-3.2773 5 5 0 0 0-0.5 0zm92.936 1.0059a5 5 0 0 0-2.4082 0.5722 5 5 0 0 0-2.1016 6.75 5 5 0 0 0 6.75 2.1035 5 5 0 0 0 2.1035-6.75 5 5 0 0 0-4.3437-2.6757z" fill="#44f"/>
</g>
<g transform="matrix(.12677 0 0 .1304 -119.53 -167.6)">
<path d="m631.53 181.02c-65.078-0.1396-133.43 2.9146-206.79 9.6973l11.316 29.096c186.86-16.634 340.04-8.6616 490.85 14.756l10.643-28.699c-98.203-15.511-197.56-24.617-306.02-24.85zm441.23 226.17-8.416 18.141c49.739 23.015 104.16 24.041 154.31 3.0762l-7.5957-18.488c-45.317 19.084-93.23 18.174-138.3-2.7285zm-522.77 97.814c-11.907 39.688-58.598 53.443-109.68 57.092 3.8902 7.7312 7.5745 15.85 11.309 24.242 16.989-1.5058 33.643-4.4359 49.367-9.2656 16.608-5.1012 32.803-13.12 46.059-24.488 19.633 29.798 43.039 48.065 66.508 56.377l-111.32 108.5c2.7839 8.3623 5.5694 17.043 8.4277 26.354l168.29-164c-31.366 19.205-90.163 16.895-128.96-74.811zm419.58 51.051-12.732 22.191c12.697 11.728 24.159 24.488 34.234 37.896 43.834 58.33 66.42 131.09 66.42 207.39 0 76.299-22.585 149.06-66.42 207.39-18.47 24.578-41.597 46.98-67.844 64.816 28.153 1.6365 55.37 3.0102 68.641 3.5586 0.19908-8.4786 7.0482-15.481 15.75-15.133 3.4961 0.1399 6.7201 1.4821 8.6406 3.2128 32.849-19.533 52.629-48.954 73.732-77.373l-20.07-14.904c-18.972 25.549-34.974 48.41-57.031 64.539-1.4064-0.1776-2.7873-0.3961-4.2714-0.4551-2.6472-0.1058-5.234 0.063-7.8692 0.1816 3.4891-4.6026 6.9702-8.9813 10.309-13.424 47.355-63.016 71.434-141.18 71.434-222.41 0-81.233-24.08-159.39-71.434-222.41-12.047-16.031-25.948-31.245-41.488-45.068zm77.533 20.949 3.7266 6h249.16v-6zm12.473 20 4.0547 6h236.36v-6zm12.5 18.5 6.2969 9h221.62v-9zm16.828 23.5 9.0313 12h202.06v-12zm17.93 23.5 12.016 15h181.14v-15zm-372.66 67.471-183.12 179.3 5.0449 30.051 174.95-171.3zm515.82 132.36v167.67h20v-149.63zm-680 97.666-9.5488 9.5488 4.4219 35.451h171.26l-3.8984-42.764-2.2363-2.2363-20 20-20-20-20 20-20-20-20 20-20-20-20 20zm521.46 89-1.7812 12h184.17l13.994-12zm-3.914 21.5-2.9531 9h166.78l10.963-9zm-5.8516 16.5-2.6387 6h154.53l7.9082-6zm218.3 49.51c-83.082 75.771-186.08 135.42-295.39 193.08l18.996 23.951c99.801-52.704 195.44-107.9 276.4-177.01z"/>
</g>
<g transform="matrix(-.12677 0 0 -.1304 45.272 93.199)">
<path d="m631.53 181.02c-65.078-0.1396-133.43 2.9146-206.79 9.6973l11.316 29.096c186.86-16.634 340.04-8.6616 490.85 14.756l10.643-28.699c-98.203-15.511-197.56-24.617-306.02-24.85zm441.23 226.17-8.416 18.141c49.739 23.015 104.16 24.041 154.31 3.0762l-7.5957-18.488c-45.317 19.084-93.23 18.174-138.3-2.7285zm-522.77 97.814c-11.907 39.688-58.598 53.443-109.68 57.092 3.8902 7.7312 7.5745 15.85 11.309 24.242 16.989-1.5058 33.643-4.4359 49.367-9.2656 16.608-5.1012 32.803-13.12 46.059-24.488 19.633 29.798 43.039 48.065 66.508 56.377l-111.32 108.5c2.7839 8.3623 5.5694 17.043 8.4277 26.354l168.29-164c-31.366 19.205-90.163 16.895-128.96-74.811zm419.58 51.051-12.732 22.191c12.697 11.728 24.159 24.488 34.234 37.896 43.834 58.33 66.42 131.09 66.42 207.39 0 76.299-22.585 149.06-66.42 207.39-18.47 24.578-41.597 46.98-67.844 64.816 28.153 1.6365 55.37 3.0102 68.641 3.5586 0.19908-8.4786 7.0482-15.481 15.75-15.133 3.4961 0.1399 6.7201 1.4821 8.6406 3.2128 32.849-19.533 52.629-48.954 73.732-77.373l-20.07-14.904c-18.972 25.549-34.974 48.41-57.031 64.539-1.4064-0.1776-2.7873-0.3961-4.2714-0.4551-2.6472-0.1058-5.234 0.063-7.8692 0.1816 3.4891-4.6026 6.9702-8.9813 10.309-13.424 47.355-63.016 71.434-141.18 71.434-222.41 0-81.233-24.08-159.39-71.434-222.41-12.047-16.031-25.948-31.245-41.488-45.068zm77.533 20.949 3.7266 6h249.16v-6zm12.473 20 4.0547 6h236.36v-6zm12.5 18.5 6.2969 9h221.62v-9zm16.828 23.5 9.0313 12h202.06v-12zm17.93 23.5 12.016 15h181.14v-15zm-372.66 67.471-183.12 179.3 5.0449 30.051 174.95-171.3zm515.82 132.36v167.67h20v-149.63zm-680 97.666-9.5488 9.5488 4.4219 35.451h171.26l-3.8984-42.764-2.2363-2.2363-20 20-20-20-20 20-20-20-20 20-20-20-20 20zm521.46 89-1.7812 12h184.17l13.994-12zm-3.914 21.5-2.9531 9h166.78l10.963-9zm-5.8516 16.5-2.6387 6h154.53l7.9082-6zm218.3 49.51c-83.082 75.771-186.08 135.42-295.39 193.08l18.996 23.951c99.801-52.704 195.44-107.9 276.4-177.01z"/>
</g>
<g transform="matrix(.12677 0 0 .1304 -119.53 -167.6)">
<path d="m520.67 0.15333c16.67 52.963 65.937 55.088 68.644 99.564 2.7336 44.917-59.291 48.357-61.782 3.4264-1.6841-30.367 33.643-31.912 35.304-1.9579 0.8306 14.977-21.235 16.201-22.065 1.2237m-26.563-102.26c-10.564 54.813-59.517 62.307-57.285 106.91 2.2499 44.944 64.274 41.505 61.782-3.4264-1.6841-30.367-36.965-27.996-35.304 1.9579 0.83061 14.977 22.896 13.753 22.065-1.2237m326.65-104.22c6.7834 59.167 64.417 69.896 59.33 115.35-5.0045 44.721-74.794 36.481-69.517-8.2083 3.5664-30.204 43.242-25.103 39.724 4.6905-1.7589 14.897-26.586 11.965-24.828-2.9316m-10.016-108.86c-20.59 55.295-78.71 52.503-84.328 97.72-5.5488 44.657 64.24 52.898 69.517 8.2083 3.5664-30.204-36.206-34.484-39.724-4.6905-1.7589 14.897 23.069 17.828 24.828 2.9315m118.07 52.952c1.3386-1.271 2.6484-2.5891 3.9276-3.956 15.61-16.679 24.647-39.044 27.487-65.252 29.844-5.3931 52.312-13.121 70.105-21.992m-147.45 84.828c31.576-11.865 50.335-38.363 48.176-88.74 91.849-10.837 107.24-38.864 143.2-62.267m-701.98 62.016c12.533 9.2502 25.949 16.772 40.907 20.552 3.377 11.716 7.126 25.447 15.194 40.677 3.9992 7.549 9.3573 14.965 16.111 21.901m44.983-3.6054c-42.083-20.39-40.427-54.228-53.77-86.258-27.123 0.76785-57.764-24.581-87.183-55.161m276.8 136.23c12.678-15.588 22.299-34.751 27.29-57.129 10.834-4.5142 20.377-10.953 28.16-18.557 6.9095 8.4045 15.696 15.843 25.975 21.509 2.3353 21.049 8.8952 39.8 18.479 55.838m-45.143-137.86c-8.1246 28.527-21.5 51.556-54.118 55.484-3.3873 40.084-20.275 65.198-45.133 81.448m182.81 2.9705c-18.053-18.314-28.71-43.235-27.843-78.429-32.159-7.4901-42.898-32.045-47.838-61.485m390.8 0.68719c-95.776 123.77-117.2 173.86-138.28 233.97m-606.16-234.27c60.503 94.808 90.905 152.9 115.54 219.45m-11.471-29.2c195.61-18.087 355.69-9.6658 512.81 15.153m-501.49 13.942c186.86-16.634 340.04-8.6603 490.85 14.757m-521.54-87.207c211.07-20.772 383.09-11.451 551.22 15.99m-77.583 929.78c-49.154-164.68-27.331-350.91 107.39-564.99 57.772 131.42 191.48 271.97 313.64 376.14m-192.62 541.58c-72.615-72.347-134.28-149.49-178.48-232.4m-928.96-539.94c108.13-86.3 237.93-144.97 369.27-201.67m394.9 80.269c-77.421 322.26-23.656 629.83 95.19 885.7m-348.52-693.42 168.29-164.79m-65.621 29.264-111.17 108.86m16.563 53.76c76.098-74.511 152.19-149.02 228.29-223.54m-189.52 402.04h173.71m-180.31-40.728 183.12-179.3m4.544-39.438-193.31 189.28m10.691 59.51 174.95-171.3m-1.2341 156.98-159.08 3e-5m-185.73-420c-10 0-19.402 28.553 5 30 18.973 1.125 40-45 0-45-45 0-40.131 73.839 9.8693 73.839 64.922 0 135.13-8.8389 150.13-58.839 55 130 150.19 80.355 150 45-0.14709-27.73-35-30-40-15-6.8337 20.501 10 30 25 15m-124.55 419.55 9.5488-9.5488 20 20 20-20 20 20 20-20 20 20 20-20 20 20 20-20 2.2363 2.2363m-142.78-259.85a42.5 42.5 0 0 1 4.3753 3.918 42.5 42.5 0 0 1-0.84539 60.098 42.5 42.5 0 0 1-60.098-0.84539 42.5 42.5 0 0 1-3.6143-4.2416m181.59-177.8a42.5 42.5 0 0 1 4.856 4.2865 42.5 42.5 0 0 1-0.84539 60.098 42.5 42.5 0 0 1-60.098-0.8454 42.5 42.5 0 0 1-3.974-4.7318m-0.64067 0.62891a42.5 42.5 0 0 1 4.6146 4.1028 42.5 42.5 0 0 1-0.8454 60.098 42.5 42.5 0 0 1-60.098-0.84539 42.5 42.5 0 0 1-3.7955-4.4866m-61.28 60.012a42.5 42.5 0 0 1 4.1324 3.7276 42.5 42.5 0 0 1 0.1623 59.085m-0.019 0.0822a42.5 42.5 0 0 1 59.109 1.7764 42.5 42.5 0 0 1 3.5233 4.1198m0.49282-0.48431a42.5 42.5 0 0 1-4.0161-3.6354 42.5 42.5 0 0 1 0.84539-60.098 42.5 42.5 0 0 1 60.098 0.84539 42.5 42.5 0 0 1 3.3386 3.8755m97.254-171.12a42.5 42.5 0 0 1-37.959-12.209 42.5 42.5 0 0 1-4.1514-4.9792m6.0059 128.43a42.5 42.5 0 0 1-3.5452-3.2554 42.5 42.5 0 0 1 0.8454-60.098 42.5 42.5 0 0 1 32.054-11.959m-90.063 134.76a42.5 42.5 0 0 1-3.7801-3.4464 42.5 42.5 0 0 1 0.84538-60.098 42.5 42.5 0 0 1 60.098 0.8454 42.5 42.5 0 0 1 3.1536 3.6343m-21.04-148.69 25.117-24.594m-269.51 48.201c16.874-1.7287 33.527-4.6585 49.251-9.4882 16.608-5.1012 32.803-13.12 46.059-24.488 19.633 29.798 43.04 48.065 66.574 56.457m335.51-85.78c48.707 15.887 96.192 7.1723 140.86-58.257 6.6704 33.087 26.021 58.938 45 85 19.905-29.886 33.326-59.885 40-90 28.139 54.988 76.577 70.791 124.97 86.687m0.049 316.87c-111.46-98.063-228.13-225.08-280.9-338.45m-125.96 191.96a132.61 176.47 0 0 1 26.849 106.46v0a132.61 176.47 0 0 1-64.023 151.03m2.6165 25.863c15.352-10.124 29.055-23.296 40.551-38.594 27.3-36.329 43.355-85.002 43.355-138.3 0-50.701-14.527-97.213-39.442-132.9m-25.462 401.78c37.782-17.484 69.766-44.935 93.498-76.514 40.313-53.646 61.406-121 61.406-192.37 0-71.373-21.094-138.72-61.406-192.37-8.0112-10.661-16.963-20.851-26.761-30.346m-21.701 494.94c26.851-17.853 49.978-40.255 68.448-64.833 43.835-58.331 66.42-131.09 66.42-207.39 0-76.299-22.586-149.06-66.42-207.39-10.076-13.408-21.538-26.169-34.234-37.896m43.783 480.82c3.6186-4.3047 7.0994-8.6844 10.438-13.127 47.355-63.016 71.434-141.18 71.434-222.41 0-81.233-24.08-159.39-71.434-222.41-12.047-16.031-25.948-31.244-41.488-45.068m193.61-158.32-12.601 56.865c-3.547 16.006-9.343 32.204-17.385 48.609-8.7424-14.062-15.645-27.995-18.699-43.143l-11.721-58.129-33.434 48.975c-18.028 26.407-34.973 40.589-50.741 47.77m242.32 7.3755c-26.513-11.63-48.278-27.341-63.68-57.439l-26.666-52.107m-185.08 133.17c52.75-39.676 73.688-93.201 97.756-145.36m116.85-49.474a25.002 25.002 0 0 0-11.299 2.7988c-35.528 17.764-52.113 17.764-87.641 0a25.002 25.002 0 1 0-22.359 44.723c44.472 22.236 87.887 22.236 132.36 0a25.002 25.002 0 0 0-11.061-47.521v0m2.1298 51.562c25.841 72.738 56.575 130.84 97.73 157.77m0.031 743.45c-63.404 53.972-136.28 97.475-213.9 136.4m213.95-247.52c-80.96 69.126-176.63 124.32-276.45 177.04m276.43-217.04c-83.086 75.779-186.1 135.42-295.43 193.08m87.417-299.59h207.98m-140-100.69 39.627 48.631-39.627 39.629m3e-4 -88.26v0m90 15.467-43.512-53.4 33.828-37.889m-43.319-41.571-36.996 41.441m72.426 176.64 17.574-17.574m-120-271.13v288.7m30-255.99v255.99m58.49-197.11-51.424 57.6 72.934 89.508-50 50m60-167.67v167.67m20-149.63v149.63m-140.91-340 170.91-2e-5m-292.37 394.16a15.002 15.002 0 0 0-15.1 18.834c9.7147 38.859 9.6899 53.516 0.32227 81.619a15.002 15.002 0 1 0 28.459 9.4863c10.632-31.897 10.608-57.24 0.3223-98.381a15.002 15.002 0 0 0-14.004-11.559v0m11.193 114.66 71.18 71.18c3.7639-21.351 4.8361-44.933-20-90 29.406-9.9196 53.114-26.17 70-50-16.654-6.6592-39.961-13.326-70-20 22.693-36.974 25.104-69.341 20-100-21.104 28.419-40.883 57.839-74.32 76.927m285.04-48.999c-44.549 38.348-106.67 94.502-175.68 109.49m-133.3-47.843c-27.67-1.4333-116.83-7.3254-142.06-7.3254-55 0-78.958 27.748-9.6782 27.748m250-110-20.07-14.904c-18.972 25.549-34.974 48.41-57.031 64.539-1.4064-0.1776-2.7873-0.3961-4.2714-0.4551-2.6472-0.1058-5.2337 0.064-7.8689 0.1826m-100.76 115.64c-40 0-60 5-80 5-30 0-40 25-10 25h82.857m-2.8571-60c-5 0-60 5-80 5s-45 25 0 30m75-60h-45c-40 0-75 25-35 30m188.06 42.315c-19.743 6.5809-75.277 25.092-83.056 27.685-15 5-25 10-35.965 16.139-26.538 14.857-34.035-11.139-19.035-21.139s25-10 25-10m144.38-97.28c0.8321-0.3631 1.6514-0.7805 2.4535-1.2533 12.459-7.1126 23.026-15.421 32.504-24.258-2.3985 5.1707-5.0978 10.453-8.5156 16.022l-16.504 26.891 30.799 6.8437c12.616 2.803 23.682 5.5942 33.682 8.3457-10.233 7.6164-22.108 13.686-35.992 18.369l-25.506 8.6055 12.992 23.574c3.1687 5.7497 5.7744 10.884 8.0547 15.67l-23.619-23.619c-2.5505-2.6177-5.5812-4.4805-8.8151-5.5867m74.732-874.55 3.0013 36.016m96.351-38.949v35.008m-115-229.85c0 85 40.192 215-25 215-35 0-38.333-48.86-13.432-46.642 18.432 1.642 17.996 21.628 8.4319 26.642 25.797-21.415 27.524-52.396 0-95 19.992-14.004 5-75 5-95 0-45 60-35.495 60-10 0 25-30 25-35 5v0m6.9047 191.16c10.586 8.7795 31.84 23.838 53.095 23.838 30 0 75-25 75-50 0-11.753-4.4205-23.507-9.105-32.662m-121.94-73.746c3.1685-2.072 8.0866-3.5917 16.044-3.5917 25 0 35 15 40 15 18.229 0 23.952 24.451-5 25-19.996 0.37924-30-20-30-20 6.1561 14.159 16.642 29.114 5 40 35.229 6.8007 45.444 29.923 45 60m-40.466-117.82c0.078-3.881 0.2308-7.9398 0.4662-12.177m28.511 49.16c-5.5096 37.794-22.848 36.236-27.741-6.0666m-20.532-32.749c1.3002-12.081 7.9209-19.139 19.762-25.345 21.11-11.063 28.913 21.391 29.933 40.77m-9.9148-35.647c39.55-34.246 38.251 71.703 34.982 79.877-8.1506 20.377-26.266 27.467-29.981-5.8038m22.005-71.097c23.913-20.97 40.376 17.032 35.512 51.079-6.2478 43.735-27.344 61.842-30.05 31.063m23.194-77.205c21.886-13.738 37.104 22.058 31.556 54.051-7.8833 45.456-31.281 48.413-27.638 6.7748m28.504-23.728c0.6307-0.09016 1.2639-0.13531 1.8974-0.13531 11.046 0 20 13.431 20 30v0c0 16.569-8.9543 30-20 30-5.8792-1e-5 -11.461-3.8802-15.261-10.609m80.261-19.391a22.5 25 0 0 1-22.5 25 22.5 25 0 0 1-22.5-25 22.5 25 0 0 1 22.5-25 22.5 25 0 0 1 22.5 25v0m-341.74-45 112-1e-5m-151.25 85 160.77-1e-5m75.213-20c14.419 7.8612 26.457 17.773 30 35m-262.23 584.94a29.072 30 0 0 1-1.8439 0.0604 29.072 30 0 0 1-29.072-30 29.072 30 0 0 1 29.072-30 29.072 30 0 0 1 2.2613 0.0909m-0.27908-1.8381a29.072 30 0 0 1-6.6267 0.78973 29.072 30 0 0 1-29.072-30 29.072 30 0 0 1 19.991-28.499m-1.5506 179.36a29.072 30 0 0 1-19.601-28.364 29.072 30 0 0 1 29.072-30 29.072 30 0 0 1 7.3614 0.97767m-50.202 106.67a29.072 30 0 0 1-11.195-23.657 29.072 30 0 0 1 29.072-30 29.072 30 0 0 1 15.406 4.5588m-43.942 56.351c0.48158 0.46431 0.97527 0.91811 1.4808 1.3609m15.606-190.68c2.645 5.6849 6.4928 10.705 11.212 14.693-6.574 7.5538-10.566 17.466-10.566 28.186 0 10.62 3.9212 20.446 10.387 27.973-9.8556 7.8364-16.191 20.06-16.191 33.564 0 4.8791 0.82528 9.6305 2.3594 14.086-5.8582 2.2084-11.095 5.7328-15.379 10.203m41.266-186.62c-2.5927 0.98441-5.0443 2.2148-7.3344 3.6586m-154.46-242.86c0-35-35-35-35 5s55 20 55-15c0-50-75-40-75 10 0 64.14 114.11 78.021 179.11 73.021 64.638-4.9721 129.54-48.49 130.07-113.32 0.74612-90.608-65.255-127.78-81.056-212.61m-200.86 298.08c48.685 1.5567 67.733-20.174 68.217-66.587 0.77831-74.573-65.484-83.588-59.957-250.17m5.6966 324.97c0.0318 1e-3 0.0635 2e-3 0.0952 3e-3m217.01-7.1193c22.326-20.788 35.47-55.564 35.726-86.564 0.75197-91.32-65.077-128.36-79.996-214.62m34.429 307.05c20.324-22.527 30.201-62.561 30.447-92.432 0.75783-92.032-64.87-128.93-78.907-216.65m29.508 318.05c22.985-22.019 34.019-69.662 34.28-101.41 0.76334-92.7-64.571-129.47-77.772-218.57m27.904 325.49c23.373-22.231 34.486-74.909 34.75-106.92 0.76798-93.264-64.097-129.91-76.572-220.2m28.431 330.45c22.259-23.704 32.765-78.976 33.022-110.25 0.77237-93.798-63.556-130.33-75.343-221.75m24.5 334.77c24.186-21.867 35.456-80.458 35.724-113.02 0.77662-94.313-62.965-130.73-74.092-223.26m22.102 337.39c25.054-20.935 36.598-80.996 36.871-114.12 0.78068-94.807-62.32-131.11-72.82-224.72m20.733 339.02c25.2-20.769 36.694-81.08 36.968-114.3 0.78377-95.182-61.497-131.4-71.499-225.84m19.976 339.77c24.886-21.108 36.132-80.904 36.404-113.93 0.78687-95.558-60.656-131.68-70.169-226.96m19.775 340c24.172-21.849 35.006-80.469 35.275-113.04 0.78996-95.934-59.795-131.96-68.833-228.09m20.088 339.69c23.221-22.886 36.265-79.829 33.625-111.61-7.8664-94.704-62.866-119.7-67.489-229.22m13.21 337.54c27.376-21.005 42.47-72.122 39.159-108.32-7.7471-84.704-62.747-89.704-66.104-229.95m5.5364 333.2c34.297-15.474 48.468-62.336 47.09-91.76-4.2698-91.199-64.27-81.199-66.356-242.15m25.919 269.68c3.0305-18.43 4.7058-21.396 3.9757-32.608-4.3697-67.102-66.311-43.674-57.349-238.49m-15.459 337.36c-25 35-75.399 8.4083-100-45m75.345 46.462c-21.965-7.8245-43.514-25.777-55.345-51.462m116.22 38.385c-5.4577 7.6408-12.899 12.661-21.454 15.286m-37.93-21.843c-16.622-6.7624-32.06-20.596-41.841-41.828m86.506 39.951c-26.158 0.828-55.97-16.223-71.506-49.951m51.413 29.317c-14.382-7.0876-27.546-20.066-36.413-39.317m30.252 12.308c-7.0696-6.2962-13.188-14.37-17.789-24.36m23.407 5.2509c-4.0974-5.3949-7.7684-11.464-10.87-18.198m25.973 3.3332c-4.1388-5.4286-7.8452-11.543-10.973-18.333m29.672 12.515c-5.6435-6.2622-10.639-13.759-14.672-22.515m-320 115c48.677 7.959 64.361-29.036 64.212-70.306-0.15204-42.238-24.212-84.694-14.212-124.69m-42.2 222.91c48.677 7.959 69.287-55.308 69.138-96.578-0.15204-42.238-26.938-66.336-26.938-126.34m4.6486 222.42c23.015-15.528 34.298-51.969 36.049-81.286m-14.296 79.033c18.025-17.666 27.049-49.21 28.599-75.169m-5.7075 70.811c12.804-18.157 19.403-43.962 20.707-65.811m1.5316 58.498c8.0976-16.483 12.437-36.227 13.468-53.498m8.4374 40.999c3.7342-11.971 5.8779-24.53 6.5626-35.999m-100-160s5.9827 80.019 5 105c-1.551 39.429-75 77.649-75 0 0-50 60-45 60-5s-45 30-45 5 35-20 35 0m9.5395-96.806c-1.8998 17.879-8.925 27.048-7.487 40.237 0.83645 7.6717 7.9474 26.568 7.9474 51.568m22.585-222.51c-4.2419 13.449-12.585 41.32-12.585 52.507 0 15 5 25 5 50 0 40-70 55-70 0 0-45 60-55 60-15s-40 30-40 10 25-20 25-5m21.839-90.784c-5.7112 10.941-12.324 26.063-12.324 37.426 0 20.616 5.4844 48.358 5.4844 48.358m5.4105-40.411s14.589-19.589 34.589-19.589 30 10 40 10c5 0 15-10 15-10v10c-5 0-9.8148 4.8886-15 5-5 0-30-15-35-15m195 15s-35-20-45-20c-15 0-35 10-45 10s-25-5-25-5v5c8.4466 0 20.18 5.0239 25 5 4.9555-0.0246 30-15 45-15m-100 15s10 25 10 30-20 50-20 60-10 35-10 40 15 15 20 15 20-10 30-15c4.4721-2.2361 10 10-30 15m40-35c25 0 28.892 24.48 11.232 30.895-6.7146 2.4389-16.723-1.5664-18.133-9.1109m-53.099 38.216-10 20 10-10v-10m100 0 5 20-10-15 5-5v0m-105 15 4.4153-5.5942c0.97734-1.2383 15.585-4.4058 25.585-14.406 0 0 0 10 13.284 10 10 0 16.716-10 16.716-10s10 10 20 10l25 5-5-5c-28.367 6.7123-90-2.6701-100 10v0m30 10c16.912 17.225 30 15 45 0m-135-155c20 0 30.345-16.238 40.337-15.821 19.663 0.82102 24.663 15.821 34.663 15.821-5 0-15 15-40 15-15 0-15-15-35-15v0m205 0c-20 0-30.345-16.238-40.337-15.821-19.663 0.82102-24.663 15.821-34.663 15.821 5 0 15 15 40 15 15 0 15-15 35-15v0m375-110-25 30 30 25m-49.092-25h19.092m-35 25 35-55v55" fill="none" stroke="#44f" stroke-linecap="round" stroke-linejoin="round" stroke-width="6"/>
</g>
<g transform="matrix(-.12677 0 0 -.1304 45.272 93.199)">
<path d="m520.67 0.15333c16.67 52.963 65.937 55.088 68.644 99.564 2.7336 44.917-59.291 48.357-61.782 3.4264-1.6841-30.367 33.643-31.912 35.304-1.9579 0.8306 14.977-21.235 16.201-22.065 1.2237m-26.563-102.26c-10.564 54.813-59.517 62.307-57.285 106.91 2.2499 44.944 64.274 41.505 61.782-3.4264-1.6841-30.367-36.965-27.996-35.304 1.9579 0.83061 14.977 22.896 13.753 22.065-1.2237m326.65-104.22c6.7834 59.167 64.417 69.896 59.33 115.35-5.0045 44.721-74.794 36.481-69.517-8.2083 3.5664-30.204 43.242-25.103 39.724 4.6905-1.7589 14.897-26.586 11.965-24.828-2.9316m-10.016-108.86c-20.59 55.295-78.71 52.503-84.328 97.72-5.5488 44.657 64.24 52.898 69.517 8.2083 3.5664-30.204-36.206-34.484-39.724-4.6905-1.7589 14.897 23.069 17.828 24.828 2.9315m118.07 52.952c1.3386-1.271 2.6484-2.5891 3.9276-3.956 15.61-16.679 24.647-39.044 27.487-65.252 29.844-5.3931 52.312-13.121 70.105-21.992m-147.45 84.828c31.576-11.865 50.335-38.363 48.176-88.74 91.849-10.837 107.24-38.864 143.2-62.267m-701.98 62.016c12.533 9.2502 25.949 16.772 40.907 20.552 3.377 11.716 7.126 25.447 15.194 40.677 3.9992 7.549 9.3573 14.965 16.111 21.901m44.983-3.6054c-42.083-20.39-40.427-54.228-53.77-86.258-27.123 0.76785-57.764-24.581-87.183-55.161m276.8 136.23c12.678-15.588 22.299-34.751 27.29-57.129 10.834-4.5142 20.377-10.953 28.16-18.557 6.9095 8.4045 15.696 15.843 25.975 21.509 2.3353 21.049 8.8952 39.8 18.479 55.838m-45.143-137.86c-8.1246 28.527-21.5 51.556-54.118 55.484-3.3873 40.084-20.275 65.198-45.133 81.448m182.81 2.9705c-18.053-18.314-28.71-43.235-27.843-78.429-32.159-7.4901-42.898-32.045-47.838-61.485m390.8 0.68719c-95.776 123.77-117.2 173.86-138.28 233.97m-606.16-234.27c60.503 94.808 90.905 152.9 115.54 219.45m-11.471-29.2c195.61-18.087 355.69-9.6658 512.81 15.153m-501.49 13.942c186.86-16.634 340.04-8.6603 490.85 14.757m-521.54-87.207c211.07-20.772 383.09-11.451 551.22 15.99m-77.583 929.78c-49.154-164.68-27.331-350.91 107.39-564.99 57.772 131.42 191.48 271.97 313.64 376.14m-192.62 541.58c-72.615-72.347-134.28-149.49-178.48-232.4m-928.96-539.94c108.13-86.3 237.93-144.97 369.27-201.67m394.9 80.269c-77.421 322.26-23.656 629.83 95.19 885.7m-348.52-693.42 168.29-164.79m-65.621 29.264-111.17 108.86m16.563 53.76c76.098-74.511 152.19-149.02 228.29-223.54m-189.52 402.04h173.71m-180.31-40.728 183.12-179.3m4.544-39.438-193.31 189.28m10.691 59.51 174.95-171.3m-1.2341 156.98-159.08 3e-5m-185.73-420c-10 0-19.402 28.553 5 30 18.973 1.125 40-45 0-45-45 0-40.131 73.839 9.8693 73.839 64.922 0 135.13-8.8389 150.13-58.839 55 130 150.19 80.355 150 45-0.14709-27.73-35-30-40-15-6.8337 20.501 10 30 25 15m-124.55 419.55 9.5488-9.5488 20 20 20-20 20 20 20-20 20 20 20-20 20 20 20-20 2.2363 2.2363m-142.78-259.85a42.5 42.5 0 0 1 4.3753 3.918 42.5 42.5 0 0 1-0.84539 60.098 42.5 42.5 0 0 1-60.098-0.84539 42.5 42.5 0 0 1-3.6143-4.2416m181.59-177.8a42.5 42.5 0 0 1 4.856 4.2865 42.5 42.5 0 0 1-0.84539 60.098 42.5 42.5 0 0 1-60.098-0.8454 42.5 42.5 0 0 1-3.974-4.7318m-0.64067 0.62891a42.5 42.5 0 0 1 4.6146 4.1028 42.5 42.5 0 0 1-0.8454 60.098 42.5 42.5 0 0 1-60.098-0.84539 42.5 42.5 0 0 1-3.7955-4.4866m-61.28 60.012a42.5 42.5 0 0 1 4.1324 3.7276 42.5 42.5 0 0 1 0.1623 59.085m-0.019 0.0822a42.5 42.5 0 0 1 59.109 1.7764 42.5 42.5 0 0 1 3.5233 4.1198m0.49282-0.48431a42.5 42.5 0 0 1-4.0161-3.6354 42.5 42.5 0 0 1 0.84539-60.098 42.5 42.5 0 0 1 60.098 0.84539 42.5 42.5 0 0 1 3.3386 3.8755m97.254-171.12a42.5 42.5 0 0 1-37.959-12.209 42.5 42.5 0 0 1-4.1514-4.9792m6.0059 128.43a42.5 42.5 0 0 1-3.5452-3.2554 42.5 42.5 0 0 1 0.8454-60.098 42.5 42.5 0 0 1 32.054-11.959m-90.063 134.76a42.5 42.5 0 0 1-3.7801-3.4464 42.5 42.5 0 0 1 0.84538-60.098 42.5 42.5 0 0 1 60.098 0.8454 42.5 42.5 0 0 1 3.1536 3.6343m-21.04-148.69 25.117-24.594m-269.51 48.201c16.874-1.7287 33.527-4.6585 49.251-9.4882 16.608-5.1012 32.803-13.12 46.059-24.488 19.633 29.798 43.04 48.065 66.574 56.457m335.51-85.78c48.707 15.887 96.192 7.1723 140.86-58.257 6.6704 33.087 26.021 58.938 45 85 19.905-29.886 33.326-59.885 40-90 28.139 54.988 76.577 70.791 124.97 86.687m0.049 316.87c-111.46-98.063-228.13-225.08-280.9-338.45m-125.96 191.96a132.61 176.47 0 0 1 26.849 106.46v0a132.61 176.47 0 0 1-64.023 151.03m2.6165 25.863c15.352-10.124 29.055-23.296 40.551-38.594 27.3-36.329 43.355-85.002 43.355-138.3 0-50.701-14.527-97.213-39.442-132.9m-25.462 401.78c37.782-17.484 69.766-44.935 93.498-76.514 40.313-53.646 61.406-121 61.406-192.37 0-71.373-21.094-138.72-61.406-192.37-8.0112-10.661-16.963-20.851-26.761-30.346m-21.701 494.94c26.851-17.853 49.978-40.255 68.448-64.833 43.835-58.331 66.42-131.09 66.42-207.39 0-76.299-22.586-149.06-66.42-207.39-10.076-13.408-21.538-26.169-34.234-37.896m43.783 480.82c3.6186-4.3047 7.0994-8.6844 10.438-13.127 47.355-63.016 71.434-141.18 71.434-222.41 0-81.233-24.08-159.39-71.434-222.41-12.047-16.031-25.948-31.244-41.488-45.068m193.61-158.32-12.601 56.865c-3.547 16.006-9.343 32.204-17.385 48.609-8.7424-14.062-15.645-27.995-18.699-43.143l-11.721-58.129-33.434 48.975c-18.028 26.407-34.973 40.589-50.741 47.77m242.32 7.3755c-26.513-11.63-48.278-27.341-63.68-57.439l-26.666-52.107m-185.08 133.17c52.75-39.676 73.688-93.201 97.756-145.36m116.85-49.474a25.002 25.002 0 0 0-11.299 2.7988c-35.528 17.764-52.113 17.764-87.641 0a25.002 25.002 0 1 0-22.359 44.723c44.472 22.236 87.887 22.236 132.36 0a25.002 25.002 0 0 0-11.061-47.521v0m2.1298 51.562c25.841 72.738 56.575 130.84 97.73 157.77m0.031 743.45c-63.404 53.972-136.28 97.475-213.9 136.4m213.95-247.52c-80.96 69.126-176.63 124.32-276.45 177.04m276.43-217.04c-83.086 75.779-186.1 135.42-295.43 193.08m87.417-299.59h207.98m-140-100.69 39.627 48.631-39.627 39.629m3e-4 -88.26v0m90 15.467-43.512-53.4 33.828-37.889m-43.319-41.571-36.996 41.441m72.426 176.64 17.574-17.574m-120-271.13v288.7m30-255.99v255.99m58.49-197.11-51.424 57.6 72.934 89.508-50 50m60-167.67v167.67m20-149.63v149.63m-140.91-340 170.91-2e-5m-292.37 394.16a15.002 15.002 0 0 0-15.1 18.834c9.7147 38.859 9.6899 53.516 0.32227 81.619a15.002 15.002 0 1 0 28.459 9.4863c10.632-31.897 10.608-57.24 0.3223-98.381a15.002 15.002 0 0 0-14.004-11.559v0m11.193 114.66 71.18 71.18c3.7639-21.351 4.8361-44.933-20-90 29.406-9.9196 53.114-26.17 70-50-16.654-6.6592-39.961-13.326-70-20 22.693-36.974 25.104-69.341 20-100-21.104 28.419-40.883 57.839-74.32 76.927m285.04-48.999c-44.549 38.348-106.67 94.502-175.68 109.49m-133.3-47.843c-27.67-1.4333-116.83-7.3254-142.06-7.3254-55 0-78.958 27.748-9.6782 27.748m250-110-20.07-14.904c-18.972 25.549-34.974 48.41-57.031 64.539-1.4064-0.1776-2.7873-0.3961-4.2714-0.4551-2.6472-0.1058-5.2337 0.064-7.8689 0.1826m-100.76 115.64c-40 0-60 5-80 5-30 0-40 25-10 25h82.857m-2.8571-60c-5 0-60 5-80 5s-45 25 0 30m75-60h-45c-40 0-75 25-35 30m188.06 42.315c-19.743 6.5809-75.277 25.092-83.056 27.685-15 5-25 10-35.965 16.139-26.538 14.857-34.035-11.139-19.035-21.139s25-10 25-10m144.38-97.28c0.8321-0.3631 1.6514-0.7805 2.4535-1.2533 12.459-7.1126 23.026-15.421 32.504-24.258-2.3985 5.1707-5.0978 10.453-8.5156 16.022l-16.504 26.891 30.799 6.8437c12.616 2.803 23.682 5.5942 33.682 8.3457-10.233 7.6164-22.108 13.686-35.992 18.369l-25.506 8.6055 12.992 23.574c3.1687 5.7497 5.7744 10.884 8.0547 15.67l-23.619-23.619c-2.5505-2.6177-5.5812-4.4805-8.8151-5.5867m74.732-874.55 3.0013 36.016m96.351-38.949v35.008m-115-229.85c0 85 40.192 215-25 215-35 0-38.333-48.86-13.432-46.642 18.432 1.642 17.996 21.628 8.4319 26.642 25.797-21.415 27.524-52.396 0-95 19.992-14.004 5-75 5-95 0-45 60-35.495 60-10 0 25-30 25-35 5v0m6.9047 191.16c10.586 8.7795 31.84 23.838 53.095 23.838 30 0 75-25 75-50 0-11.753-4.4205-23.507-9.105-32.662m-121.94-73.746c3.1685-2.072 8.0866-3.5917 16.044-3.5917 25 0 35 15 40 15 18.229 0 23.952 24.451-5 25-19.996 0.37924-30-20-30-20 6.1561 14.159 16.642 29.114 5 40 35.229 6.8007 45.444 29.923 45 60m-40.466-117.82c0.078-3.881 0.2308-7.9398 0.4662-12.177m28.511 49.16c-5.5096 37.794-22.848 36.236-27.741-6.0666m-20.532-32.749c1.3002-12.081 7.9209-19.139 19.762-25.345 21.11-11.063 28.913 21.391 29.933 40.77m-9.9148-35.647c39.55-34.246 38.251 71.703 34.982 79.877-8.1506 20.377-26.266 27.467-29.981-5.8038m22.005-71.097c23.913-20.97 40.376 17.032 35.512 51.079-6.2478 43.735-27.344 61.842-30.05 31.063m23.194-77.205c21.886-13.738 37.104 22.058 31.556 54.051-7.8833 45.456-31.281 48.413-27.638 6.7748m28.504-23.728c0.6307-0.09016 1.2639-0.13531 1.8974-0.13531 11.046 0 20 13.431 20 30v0c0 16.569-8.9543 30-20 30-5.8792-1e-5 -11.461-3.8802-15.261-10.609m80.261-19.391a22.5 25 0 0 1-22.5 25 22.5 25 0 0 1-22.5-25 22.5 25 0 0 1 22.5-25 22.5 25 0 0 1 22.5 25v0m-341.74-45 112-1e-5m-151.25 85 160.77-1e-5m75.213-20c14.419 7.8612 26.457 17.773 30 35m-262.23 584.94a29.072 30 0 0 1-1.8439 0.0604 29.072 30 0 0 1-29.072-30 29.072 30 0 0 1 29.072-30 29.072 30 0 0 1 2.2613 0.0909m-0.27908-1.8381a29.072 30 0 0 1-6.6267 0.78973 29.072 30 0 0 1-29.072-30 29.072 30 0 0 1 19.991-28.499m-1.5506 179.36a29.072 30 0 0 1-19.601-28.364 29.072 30 0 0 1 29.072-30 29.072 30 0 0 1 7.3614 0.97767m-50.202 106.67a29.072 30 0 0 1-11.195-23.657 29.072 30 0 0 1 29.072-30 29.072 30 0 0 1 15.406 4.5588m-43.942 56.351c0.48158 0.46431 0.97527 0.91811 1.4808 1.3609m15.606-190.68c2.645 5.6849 6.4928 10.705 11.212 14.693-6.574 7.5538-10.566 17.466-10.566 28.186 0 10.62 3.9212 20.446 10.387 27.973-9.8556 7.8364-16.191 20.06-16.191 33.564 0 4.8791 0.82528 9.6305 2.3594 14.086-5.8582 2.2084-11.095 5.7328-15.379 10.203m41.266-186.62c-2.5927 0.98441-5.0443 2.2148-7.3344 3.6586m-154.46-242.86c0-35-35-35-35 5s55 20 55-15c0-50-75-40-75 10 0 64.14 114.11 78.021 179.11 73.021 64.638-4.9721 129.54-48.49 130.07-113.32 0.74612-90.608-65.255-127.78-81.056-212.61m-200.86 298.08c48.685 1.5567 67.733-20.174 68.217-66.587 0.77831-74.573-65.484-83.588-59.957-250.17m5.6966 324.97c0.0318 1e-3 0.0635 2e-3 0.0952 3e-3m217.01-7.1193c22.326-20.788 35.47-55.564 35.726-86.564 0.75197-91.32-65.077-128.36-79.996-214.62m34.429 307.05c20.324-22.527 30.201-62.561 30.447-92.432 0.75783-92.032-64.87-128.93-78.907-216.65m29.508 318.05c22.985-22.019 34.019-69.662 34.28-101.41 0.76334-92.7-64.571-129.47-77.772-218.57m27.904 325.49c23.373-22.231 34.486-74.909 34.75-106.92 0.76798-93.264-64.097-129.91-76.572-220.2m28.431 330.45c22.259-23.704 32.765-78.976 33.022-110.25 0.77237-93.798-63.556-130.33-75.343-221.75m24.5 334.77c24.186-21.867 35.456-80.458 35.724-113.02 0.77662-94.313-62.965-130.73-74.092-223.26m22.102 337.39c25.054-20.935 36.598-80.996 36.871-114.12 0.78068-94.807-62.32-131.11-72.82-224.72m20.733 339.02c25.2-20.769 36.694-81.08 36.968-114.3 0.78377-95.182-61.497-131.4-71.499-225.84m19.976 339.77c24.886-21.108 36.132-80.904 36.404-113.93 0.78687-95.558-60.656-131.68-70.169-226.96m19.775 340c24.172-21.849 35.006-80.469 35.275-113.04 0.78996-95.934-59.795-131.96-68.833-228.09m20.088 339.69c23.221-22.886 36.265-79.829 33.625-111.61-7.8664-94.704-62.866-119.7-67.489-229.22m13.21 337.54c27.376-21.005 42.47-72.122 39.159-108.32-7.7471-84.704-62.747-89.704-66.104-229.95m5.5364 333.2c34.297-15.474 48.468-62.336 47.09-91.76-4.2698-91.199-64.27-81.199-66.356-242.15m25.919 269.68c3.0305-18.43 4.7058-21.396 3.9757-32.608-4.3697-67.102-66.311-43.674-57.349-238.49m-15.459 337.36c-25 35-75.399 8.4083-100-45m75.345 46.462c-21.965-7.8245-43.514-25.777-55.345-51.462m116.22 38.385c-5.4577 7.6408-12.899 12.661-21.454 15.286m-37.93-21.843c-16.622-6.7624-32.06-20.596-41.841-41.828m86.506 39.951c-26.158 0.828-55.97-16.223-71.506-49.951m51.413 29.317c-14.382-7.0876-27.546-20.066-36.413-39.317m30.252 12.308c-7.0696-6.2962-13.188-14.37-17.789-24.36m23.407 5.2509c-4.0974-5.3949-7.7684-11.464-10.87-18.198m25.973 3.3332c-4.1388-5.4286-7.8452-11.543-10.973-18.333m29.672 12.515c-5.6435-6.2622-10.639-13.759-14.672-22.515m-320 115c48.677 7.959 64.361-29.036 64.212-70.306-0.15204-42.238-24.212-84.694-14.212-124.69m-42.2 222.91c48.677 7.959 69.287-55.308 69.138-96.578-0.15204-42.238-26.938-66.336-26.938-126.34m4.6486 222.42c23.015-15.528 34.298-51.969 36.049-81.286m-14.296 79.033c18.025-17.666 27.049-49.21 28.599-75.169m-5.7075 70.811c12.804-18.157 19.403-43.962 20.707-65.811m1.5316 58.498c8.0976-16.483 12.437-36.227 13.468-53.498m8.4374 40.999c3.7342-11.971 5.8779-24.53 6.5626-35.999m-100-160s5.9827 80.019 5 105c-1.551 39.429-75 77.649-75 0 0-50 60-45 60-5s-45 30-45 5 35-20 35 0m9.5395-96.806c-1.8998 17.879-8.925 27.048-7.487 40.237 0.83645 7.6717 7.9474 26.568 7.9474 51.568m22.585-222.51c-4.2419 13.449-12.585 41.32-12.585 52.507 0 15 5 25 5 50 0 40-70 55-70 0 0-45 60-55 60-15s-40 30-40 10 25-20 25-5m21.839-90.784c-5.7112 10.941-12.324 26.063-12.324 37.426 0 20.616 5.4844 48.358 5.4844 48.358m5.4105-40.411s14.589-19.589 34.589-19.589 30 10 40 10c5 0 15-10 15-10v10c-5 0-9.8148 4.8886-15 5-5 0-30-15-35-15m195 15s-35-20-45-20c-15 0-35 10-45 10s-25-5-25-5v5c8.4466 0 20.18 5.0239 25 5 4.9555-0.0246 30-15 45-15m-100 15s10 25 10 30-20 50-20 60-10 35-10 40 15 15 20 15 20-10 30-15c4.4721-2.2361 10 10-30 15m40-35c25 0 28.892 24.48 11.232 30.895-6.7146 2.4389-16.723-1.5664-18.133-9.1109m-53.099 38.216-10 20 10-10v-10m100 0 5 20-10-15 5-5v0m-105 15 4.4153-5.5942c0.97734-1.2383 15.585-4.4058 25.585-14.406 0 0 0 10 13.284 10 10 0 16.716-10 16.716-10s10 10 20 10l25 5-5-5c-28.367 6.7123-90-2.6701-100 10v0m30 10c16.912 17.225 30 15 45 0m-135-155c20 0 30.345-16.238 40.337-15.821 19.663 0.82102 24.663 15.821 34.663 15.821-5 0-15 15-40 15-15 0-15-15-35-15v0m205 0c-20 0-30.345-16.238-40.337-15.821-19.663 0.82102-24.663 15.821-34.663 15.821 5 0 15 15 40 15 15 0 15-15 35-15v0m375-110-25 30 30 25m-49.092-25h19.092m-35 25 35-55v55" fill="none" stroke="#44f" stroke-linecap="round" stroke-linejoin="round" stroke-width="6"/>
</g>
<g transform="matrix(.12677 0 0 .1304 -119.53 -167.6)">
<path d="m801.77 1151.1c4.9372 11.411 3.3803 18.268 0.82102 27.537m3.7077 3.763c4.9372 11.411 3.9961 13.137 1.4368 22.406m-1.0263-79.458c4.9372 11.411 3.7908 14.368 1.2315 23.637m138.31-963.94 118.23 1e-5m-125.88 18.333h118.17m-125.18 18.333h132.96m-154.54 18.333h161.89m73.113-25c10.035-1.681 20.034 0.0259 30 5m-52.495-14.373c10.035-1.681 14.698-1.6161 24.663 3.358m28.826 11.568c10.035-1.681 10.182-1.0004 20.148 3.9737m4.0635-0.21689c10.035-1.681 9.6063-2.4502 19.572 2.5239m-84.777-56.834c-5 10 21.253 16.102 24.957 15.288m25.043-5.2878c3.0348-2.3883 6.4188-1.9826 10 0m15.041 4.3103c3.0348-2.3883 6.4188-1.9826 10 0m-62.956-11.494c3.0348-2.3883 6.4188-1.9826 10 0m-327.09 957.18c2.3114 4.3239 1.4806 7.3012 0 10m-1.0263 17.504c2.3114 4.3239 1.4806 7.3012 0 10m4.1051 20.583c2.3114 4.3239 1.4806 7.3012 0 10m-398.08-903.09c10 0 15 24.165 35.337 24.589 19.663 0.41051 39.663-24.589 44.663-24.589m120.82 0.40551c-10 0-15 24.165-35.337 24.589-19.663 0.41051-39.663-24.589-44.663-24.589m-125.82-0.40551c15 0 23.452-28.016 40-30 12.603-1.5107 35 15 35 15m130 0s-29.105-16.413-41.708-14.902c-16.548 1.9837-25 30-40 30 6.7076-0.09769 11.708 24.902 11.708 24.902m-135-20c2.6212 18.998 24.184 33.085 25 30m40 70c-15 15-21.764 25.737-30 40m120-50c5 20 33.235 43.592 35 40m-95 60c5-20 25-15 35-5m-76.008-202.27a14.758 20 0 0 1 1.0081 7.2651v0a14.758 20 0 0 1-10.671 19.218m-6.2072 0.57458a14.758 20 0 0 1-12.637-19.792 14.758 20 0 0 1 0.34015-4.2693m18.504 23.487a14.758 20 0 0 1-4.0867 0.78212 14.758 20 0 0 1-2.1205-0.20754m138.69-25.541a14.758 20 0 0 1 0.92784 6.9797v0a14.758 20 0 0 1-9.4157 18.644m-13.531-2.0048a14.758 20 0 0 1-6.5692-16.639 14.758 20 0 0 1 1.1036-7.5885m18.996 26.232a14.758 20 0 0 1-5.3421 1.3563 14.758 20 0 0 1-8.1886-3.3612m185.2 252.13-20.952 14.505m20.952 0.49497-24.725 17.117m24.725-2.1171-28.277 19.576m26.14-3.0968-29.288 20.277m25.925-2.9482-28.955 20.046m25.883-2.9192-28.496 19.728m25.735-2.8162-28.21 19.53m25.596-2.7203-27.772 19.226m25.567-2.7002-27.529 19.059m25.42-2.5982-27.18 18.817m25.422-2.5997-26.908 18.629m25.295-2.5118-26.654 18.453m25.293-2.5103-26.336 18.233m25.188-2.4375-26.166 18.115m25.186-2.4366-25.814 17.871m25.098-2.3752-25.688 17.784m24.763 12.857-25.237 17.472m25.55-32.688-25.339 17.542m24.764 12.856-24.9 17.239m24.966-2.2842-24.824 17.186m24.924-2.2552-24.525 16.979m24.926-2.2562-24.445 16.924m24.894-2.2346-24.183 16.742m24.897-2.2361-24.098 16.683m24.879-2.2241-23.866 16.523m24.879-2.2241-23.779 16.463m24.873-2.2201-23.568 16.316m24.873-2.2195-23.485 16.259m24.878-2.2229-23.292 16.125m24.879-2.2241-23.219 16.074m24.897-2.2361-23.039 15.95m24.897-2.2361-22.974 15.905m24.922-2.2537-22.801 15.785m24.924-2.2552-22.752 15.752m85.11-104.1 29.279 39.317m-30.661-66.735 27.282 36.635m-27.388-62.34 25.407 34.118m-24.552-58.532 23.892 32.083m-22.088-55.224 22.721 30.511m-20.216-52.71 21.66 29.086m-18.525-50.438 20.92 28.092m-17.218-48.684 20.272 27.222m-16.058-47.126 19.704 26.46m-15.029-45.744 19.21 25.796m-14.113-44.514 18.778 25.216m-13.301-43.424 18.402 24.711m-12.576-42.45 18.074 24.27m-11.93-41.582 17.789 23.888m-11.355-40.811 17.544 23.559m-10.843-40.123 17.333 23.276m-10.388-39.512 17.263 23.182m-10.094-39.117 17.083 22.939m-9.688-38.572 16.904 22.7m-9.2594-37.996 16.803 22.564m-8.9832-37.626 16.527 22.193m-8.5415-37.032 16.545 22.217m-8.3875-36.826 16.436 22.07m-7.9638-36.257 16.129 21.658m-119.51 535.51c2.3114 4.3239 1.4806 7.3012 0 10m-31.984-13.296c4.9372 11.411 3.1751 13.547 0.61577 22.816m21.237-114.35 29.279 34.317m-24.279-4.317 32.973 37.191m-28.384-4.317 24.013 24.001m13.581 138.13c-7.1839-7.5041-32.184 5-32.184 5m-99.535-136 31.225 28.994m-26.434-4.546 32.022 29.734m-26.656-4.7521 32.918 30.567m-26.929-5.0052 33.919 31.497m-27.253-5.306 35.039 32.536m-27.633-5.6596 36.292 33.7m-28.084-6.078 37.697 35.004m-28.607-6.5634 39.274 36.468m-29.219-7.1322 41.381 38.425m-30.092-7.9428 43.045 39.97m-30.326-8.16 37.957 35.246m-23.976-2.2638 23.976 22.264m233.34 11.683-5.2482 8.5683m-4.7889-18.85-13.469 21.99m3.4315-32.271-13.468 21.989m3.6024-32.55-13.576 22.164m3.7683-32.821-13.576 22.164m3.8025-32.876-13.612 22.223m4.0561-33.291-13.707 22.379m4.1525-33.448-13.709 22.381m4.3142-33.712-13.869 22.643m4.5912-34.164-13.869 22.643m4.6176-34.208-13.895 22.685m4.9251-34.71-14.065 22.963m5.0947-34.986-14.064 22.961m5.3147-35.345-14.284 23.32m5.6546-35.9-14.302 23.349m3.7156-39.402-14.502 23.676m6.2492-36.871-14.59 23.82m6.4382-37.18-14.688 23.98m6.8581-37.865-14.941 24.393m6.7215-37.642-11.436 18.671" fill="none" stroke="#44f" stroke-linecap="round" stroke-linejoin="round" stroke-width="3"/>
<g transform="matrix(.0065367 .072623 -.074715 .0063536 988 801)">
<path d="m0-300c0-100 100-200 200-200s200 100 200 250c0 250-400 650-400 750 0-100-400-500-400-750 0-150 100-250 200-250s200 100 200 200z" fill="#f00"/>
</g>
<g transform="matrix(.0375 .063133 -.064952 .03645 958 702)">
<path d="m0-300c0-100 100-200 200-200s200 100 200 250c0 250-400 650-400 750 0-100-400-500-400-750 0-150 100-250 200-250s200 100 200 200z" fill="#f00"/>
</g>
<g transform="matrix(-.025652 .068504 -.070477 -.024933 975 911)">
<path d="m0-300c0-100 100-200 200-200s200 100 200 250c0 250-400 650-400 750 0-100-400-500-400-750 0-150 100-250 200-250s200 100 200 200z" fill="#f00"/>
</g>
<g transform="matrix(-.048209 .055845 -.057453 -.046859 922 1003)">
<path d="m0-300c0-100 100-200 200-200s200 100 200 250c0 250-400 650-400 750 0-100-400-500-400-750 0-150 100-250 200-250s200 100 200 200z" fill="#f00"/>
</g>
</g>
<g transform="matrix(-.12677 0 0 -.1304 45.272 93.199)">
<path d="m801.77 1151.1c4.9372 11.411 3.3803 18.268 0.82102 27.537m3.7077 3.763c4.9372 11.411 3.9961 13.137 1.4368 22.406m-1.0263-79.458c4.9372 11.411 3.7908 14.368 1.2315 23.637m138.31-963.94 118.23 1e-5m-125.88 18.333h118.17m-125.18 18.333h132.96m-154.54 18.333h161.89m73.113-25c10.035-1.681 20.034 0.0259 30 5m-52.495-14.373c10.035-1.681 14.698-1.6161 24.663 3.358m28.826 11.568c10.035-1.681 10.182-1.0004 20.148 3.9737m4.0635-0.21689c10.035-1.681 9.6063-2.4502 19.572 2.5239m-84.777-56.834c-5 10 21.253 16.102 24.957 15.288m25.043-5.2878c3.0348-2.3883 6.4188-1.9826 10 0m15.041 4.3103c3.0348-2.3883 6.4188-1.9826 10 0m-62.956-11.494c3.0348-2.3883 6.4188-1.9826 10 0m-327.09 957.18c2.3114 4.3239 1.4806 7.3012 0 10m-1.0263 17.504c2.3114 4.3239 1.4806 7.3012 0 10m4.1051 20.583c2.3114 4.3239 1.4806 7.3012 0 10m-398.08-903.09c10 0 15 24.165 35.337 24.589 19.663 0.41051 39.663-24.589 44.663-24.589m120.82 0.40551c-10 0-15 24.165-35.337 24.589-19.663 0.41051-39.663-24.589-44.663-24.589m-125.82-0.40551c15 0 23.452-28.016 40-30 12.603-1.5107 35 15 35 15m130 0s-29.105-16.413-41.708-14.902c-16.548 1.9837-25 30-40 30 6.7076-0.09769 11.708 24.902 11.708 24.902m-135-20c2.6212 18.998 24.184 33.085 25 30m40 70c-15 15-21.764 25.737-30 40m120-50c5 20 33.235 43.592 35 40m-95 60c5-20 25-15 35-5m-76.008-202.27a14.758 20 0 0 1 1.0081 7.2651v0a14.758 20 0 0 1-10.671 19.218m-6.2072 0.57458a14.758 20 0 0 1-12.637-19.792 14.758 20 0 0 1 0.34015-4.2693m18.504 23.487a14.758 20 0 0 1-4.0867 0.78212 14.758 20 0 0 1-2.1205-0.20754m138.69-25.541a14.758 20 0 0 1 0.92784 6.9797v0a14.758 20 0 0 1-9.4157 18.644m-13.531-2.0048a14.758 20 0 0 1-6.5692-16.639 14.758 20 0 0 1 1.1036-7.5885m18.996 26.232a14.758 20 0 0 1-5.3421 1.3563 14.758 20 0 0 1-8.1886-3.3612m185.2 252.13-20.952 14.505m20.952 0.49497-24.725 17.117m24.725-2.1171-28.277 19.576m26.14-3.0968-29.288 20.277m25.925-2.9482-28.955 20.046m25.883-2.9192-28.496 19.728m25.735-2.8162-28.21 19.53m25.596-2.7203-27.772 19.226m25.567-2.7002-27.529 19.059m25.42-2.5982-27.18 18.817m25.422-2.5997-26.908 18.629m25.295-2.5118-26.654 18.453m25.293-2.5103-26.336 18.233m25.188-2.4375-26.166 18.115m25.186-2.4366-25.814 17.871m25.098-2.3752-25.688 17.784m24.763 12.857-25.237 17.472m25.55-32.688-25.339 17.542m24.764 12.856-24.9 17.239m24.966-2.2842-24.824 17.186m24.924-2.2552-24.525 16.979m24.926-2.2562-24.445 16.924m24.894-2.2346-24.183 16.742m24.897-2.2361-24.098 16.683m24.879-2.2241-23.866 16.523m24.879-2.2241-23.779 16.463m24.873-2.2201-23.568 16.316m24.873-2.2195-23.485 16.259m24.878-2.2229-23.292 16.125m24.879-2.2241-23.219 16.074m24.897-2.2361-23.039 15.95m24.897-2.2361-22.974 15.905m24.922-2.2537-22.801 15.785m24.924-2.2552-22.752 15.752m85.11-104.1 29.279 39.317m-30.661-66.735 27.282 36.635m-27.388-62.34 25.407 34.118m-24.552-58.532 23.892 32.083m-22.088-55.224 22.721 30.511m-20.216-52.71 21.66 29.086m-18.525-50.438 20.92 28.092m-17.218-48.684 20.272 27.222m-16.058-47.126 19.704 26.46m-15.029-45.744 19.21 25.796m-14.113-44.514 18.778 25.216m-13.301-43.424 18.402 24.711m-12.576-42.45 18.074 24.27m-11.93-41.582 17.789 23.888m-11.355-40.811 17.544 23.559m-10.843-40.123 17.333 23.276m-10.388-39.512 17.263 23.182m-10.094-39.117 17.083 22.939m-9.688-38.572 16.904 22.7m-9.2594-37.996 16.803 22.564m-8.9832-37.626 16.527 22.193m-8.5415-37.032 16.545 22.217m-8.3875-36.826 16.436 22.07m-7.9638-36.257 16.129 21.658m-119.51 535.51c2.3114 4.3239 1.4806 7.3012 0 10m-31.984-13.296c4.9372 11.411 3.1751 13.547 0.61577 22.816m21.237-114.35 29.279 34.317m-24.279-4.317 32.973 37.191m-28.384-4.317 24.013 24.001m13.581 138.13c-7.1839-7.5041-32.184 5-32.184 5m-99.535-136 31.225 28.994m-26.434-4.546 32.022 29.734m-26.656-4.7521 32.918 30.567m-26.929-5.0052 33.919 31.497m-27.253-5.306 35.039 32.536m-27.633-5.6596 36.292 33.7m-28.084-6.078 37.697 35.004m-28.607-6.5634 39.274 36.468m-29.219-7.1322 41.381 38.425m-30.092-7.9428 43.045 39.97m-30.326-8.16 37.957 35.246m-23.976-2.2638 23.976 22.264m233.34 11.683-5.2482 8.5683m-4.7889-18.85-13.469 21.99m3.4315-32.271-13.468 21.989m3.6024-32.55-13.576 22.164m3.7683-32.821-13.576 22.164m3.8025-32.876-13.612 22.223m4.0561-33.291-13.707 22.379m4.1525-33.448-13.709 22.381m4.3142-33.712-13.869 22.643m4.5912-34.164-13.869 22.643m4.6176-34.208-13.895 22.685m4.9251-34.71-14.065 22.963m5.0947-34.986-14.064 22.961m5.3147-35.345-14.284 23.32m5.6546-35.9-14.302 23.349m3.7156-39.402-14.502 23.676m6.2492-36.871-14.59 23.82m6.4382-37.18-14.688 23.98m6.8581-37.865-14.941 24.393m6.7215-37.642-11.436 18.671" fill="none" stroke="#44f" stroke-linecap="round" stroke-linejoin="round" stroke-width="3"/>
<g transform="matrix(.0065367 .072623 -.074715 .0063536 988 801)">
<path d="m0-300c0-100 100-200 200-200s200 100 200 250c0 250-400 650-400 750 0-100-400-500-400-750 0-150 100-250 200-250s200 100 200 200z" fill="#f00"/>
</g>
<g transform="matrix(.0375 .063133 -.064952 .03645 958 702)">
<path d="m0-300c0-100 100-200 200-200s200 100 200 250c0 250-400 650-400 750 0-100-400-500-400-750 0-150 100-250 200-250s200 100 200 200z" fill="#f00"/>
</g>
<g transform="matrix(-.025652 .068504 -.070477 -.024933 975 911)">
<path d="m0-300c0-100 100-200 200-200s200 100 200 250c0 250-400 650-400 750 0-100-400-500-400-750 0-150 100-250 200-250s200 100 200 200z" fill="#f00"/>
</g>
<g transform="matrix(-.048209 .055845 -.057453 -.046859 922 1003)">
<path d="m0-300c0-100 100-200 200-200s200 100 200 250c0 250-400 650-400 750 0-100-400-500-400-750 0-150 100-250 200-250s200 100 200 200z" fill="#f00"/>
</g>
</g>
</svg>