<?xml version="1.0" encoding="UTF-8"?>
<svg width="100%" height="100%" version="1.1" viewBox="-120 -168 165.58 261.58" xmlns="http://www.w3.org/2000/svg">
<g transform="matrix(.12677 0 0 .1304 -119.38 -167.59)">
<path d="m332.37 0c88.22 119.62 128.1 183.37 160.66 258.63 185.6-26.833 338.98-27.211 490.81-11.951 18.004-61.954 36.983-113.77 129.2-246.68zm267.27 515.95-80.883 8.1445c28.994 102.6 53.965 208.52 65.23 318.31 45.727 12.111 90.838 10.199 145.26-2.6602 18.212-90.03 50.36-181.39 99.775-273.04l-4.0195-11.707-5 10c-6.3148 3.149-12.962 3.4419-20.098 5.6914-9.1269 2.8775-18.921 7.5203-28.443 10.033-12.15 3.2064-24.488 9.0214-34.227 5.2656-2.9563-1.1401-6.4347 5.0988-9.5586 5.6856-30.626 66.529-53.395 133.1-69.197 198.91-12.675-95.584-34.375-186.99-58.838-274.63zm464.43 16.25c-126.4 168.8-169.94 323.99-174.1 480.2-4.0188 150.7 31.809 303.81 77.965 460.89l29.756-5.1797c-46.286-157.24-81.64-308.37-77.732-454.91 4.0794-152.98 46.234-303.13 173.45-470.09zm40.959 22.576c-6.3309 12.109-12.939 24.242-2.1191 34.828l-0.6055 0.92773c-7.8113-2.0644-16.084-3.5771-24.594-4.8047 4.9069 6.6306 9.9115 13.032 15.139 18.908 0.049 0.0551 0.099 0.1071 0.1484 0.16211l-0.1328 0.20117c-13.847-2.9112-25.317-1.3078-31.523 16.498 36.516-9.6924 77.408 41.578 93.658 13.662 19.09-26.057-44.254-43.038-49.971-80.383zm-182.35 28.092c-52.25 89.741-85.238 178.05-103.75 265.16l0.625-3.5742c-72.769 24.696-130.94 38.697-188 35.686-46.96-2.4782-91.359-17.019-139-43.938l6.0449 70.266c42.383 19.491 85.216 31.237 129.79 33.59 59.632 3.147 116.44-8.7399 179.43-28.578l0.36524-2.0859c-25.803 186.76 10.545 368.23 61.088 546.79l29.701-5.3028c-41.413-146.03-72.926-292.29-68.984-440.09 3.6604-137.27 37.13-276.21 122.85-420.25zm135.97 48.189c-5.8387 12.354-11.954 24.743-0.7168 34.885l0.7461 1.2441c-8.2731-1.914-17.053-3.17-26.08-4.1035 5.1427 6.3946 10.372 12.559 15.678 18.426-14.076-2.1222-25.11-0.0683-30.596 17.973 36.096-11.153 79.018 38.431 94.133 9.8848 18.026-26.803-45.951-41.223-53.164-78.309zm-45.416 78.002c-3.7085 13.152-7.6835 26.384 5.0801 34.521l-1.4941 0.97461c-7.7329-0.34233-15.77-0.11368-23.963 0.4082 6.232 5.5417 12.514 10.832 18.846 15.682-14.213 0.12915-25.103 3.9846-27.52 22.686 33.746-16.986 84.299 24.793 94.469-5.8652 13.33-29.422-52.152-33.031-65.418-68.406zm-33.439 80.639c-3.1194 13.304-6.5 26.701 6.6133 34.262l-1.5957 1.0391c-7.6961 9e-3 -15.665 0.59399-23.775 1.4746 6.7974 5.5226 13.637 10.767 20.576 15.354l-0.75586 0.48633c-14.136 0.62507-25.196 4.087-26.777 22.877 32.957-18.472 85.318 21.014 94.113-10.066 12.007-29.987-53.571-30.677-68.398-65.426zm170.21 83.562c-25 0-40 28.656-40 50 0 45 60.558 39.404 63.461 16.922 1.5394-11.921-18.461-36.922-18.461-36.922 29.5-1.3937 55.467 25.08 85 25 17.4-0.047 45-15 45-15-0.209-10.804 7.8938-19.65 0-35-25 10-92.951-5-135-5zm-74.178 62.332c-14.874 145.4 90.63 322.34 169.9 450.61 20.904-10.57 39.291-21.058 54.273-31.178v-100.63c-20.325-34.638-47.214-80.736-61.924-111.62 2.5232-0.8451 5.0006-1.9427 7.3886-3.3184 7.6991-4.3274 10.439-14.291 6.0196-21.945-4.4276-7.6687-14.458-10.277-22.061-5.7363l0.076-0.045c-5.1233 2.9579-6.9526 0.9599-7.6309-0.2149-0.678-1.1744-1.4924-3.7569 3.6309-6.7148l-0.074 0.043c6.7232-3.7562 9.2807-11.437 7.7441-17.752-1.5366-6.3152-7.3358-11.962-15.033-12.209-3.045-0.098-6.0538 0.6786-8.6738 2.2324-10.106 5.8498-16.822 15.49-19.033 25.885 1.2855-7.9141 5.431-14.987 11.6-20.396-64.959-8.9663-89.068-50.868-70.643-126.3-20.211-6.3536-38.718-13.672-55.564-20.707zm-426.51 5.6582c-23.724 0.18179-47.176 9.7318-42.457 28.648l-1.8516 0.09961c-75-75-75 135 0 60l1.9258-0.1875c-10.12 38.447 95.556 38.582 86.252 0.4063l1.8223-0.2188c75 75 75-135 0-60l-1.6094-1.1914c3.6363-18.553-20.358-27.738-44.082-27.557zm315.71 107.75c-4.1619-0.01-8.3653 0.752-12.443 2.3633-18.628 7.3606-26.999 29.555-19.348 48.988 3.147 8.2574 12.605 12.435 20.828 9.1856 8.2352-3.2542 12.289-12.794 8.9141-20.98l0.0332 0.082c-2.1732-5.4999 0.0682-7.0165 1.3301-7.5156 1.2612-0.4983 3.9354-0.9258 6.1094 4.5762l-0.0312-0.078c2.7289 7.2017 9.9515 10.857 16.424 10.264s12.909-5.5004 14.283-13.078c0.5444-3.0018 0.2149-6.0972-0.9414-8.9199-5.7746-14.552-19.179-24.082-33.377-24.838-0.59235-0.032-1.1867-0.048-1.7812-0.049zm0.11329 12.004c0.39343 0 0.78673 0.015 1.1797 0.037 9.4309 0.5396 18.631 6.9349 22.73 17.309a6.0006 6.0006 0 0 0 0.0332 0.078c0.29139 0.708 0.37295 1.483 0.23633 2.2363-0.43464 2.3965-1.7985 3.1089-3.5723 3.2715s-3.2425-0.2889-4.1055-2.5664a6.0006 6.0006 0 0 0-0.0312-0.08c-3.9992-10.121-14.039-14.344-21.678-11.326-7.6386 3.0185-12.081 12.964-8.082 23.086a6.0006 6.0006 0 0 0 0.0332 0.082c0.87936 2.133-0.0828 4.3982-2.2285 5.2461-2.1457 0.8479-4.3967-0.1468-5.2129-2.3047a6.0006 6.0006 0 0 0-0.0332-0.084c-5.4653-13.831 0.52661-28.701 12.582-33.465 2.6371-1.0421 5.3944-1.5336 8.1484-1.5195zm252.62 25.869c2.4343 0.078 3.3386 1.324 3.7598 3.0547 0.4211 1.7307 0.1906 3.2496-1.9356 4.4375a6.0006 6.0006 0 0 0-0.074 0.043c-9.4249 5.4415-12.128 15.992-8.0215 23.106 4.1068 7.113 14.596 10.047 24.022 4.6055a6.0006 6.0006 0 0 0 0.076-0.045c1.9808-1.183 4.3637-0.5626 5.5176 1.4355 1.1535 1.9981 0.4973 4.3702-1.5176 5.4942a6.0006 6.0006 0 0 0-0.076 0.045c-12.879 7.4359-28.47 3.6906-34.951-7.5352-6.4812-11.226-1.9284-26.599 10.951-34.035a6.0006 6.0006 0 0 0 0.072-0.043c0.6575-0.3921 1.4125-0.5871 2.1777-0.5625zm-186.35 21.32c-4.1623 0-8.3673 0.7519-12.445 2.3633-18.629 7.361-26.998 29.56-19.344 48.994 3.149 8.2538 12.605 12.43 20.826 9.1817 8.2357-3.2544 12.288-12.796 8.9121-20.982l0.033 0.084c-2.1739-5.5018 0.07-7.019 1.332-7.5175 1.2612-0.4984 3.9335-0.9259 6.1075 4.5761l-0.029-0.078c2.7289 7.2015 9.9496 10.857 16.422 10.264 6.4723-0.5932 12.911-5.5005 14.285-13.078 0.5439-2.9991 0.2143-6.0913-0.9395-8.9121-5.7728-14.556-19.178-24.09-33.379-24.846-0.5923-0.032-1.1866-0.048-1.7812-0.049zm0.1113 12.004c0.3934 0 0.7868 0.015 1.1797 0.037 9.4309 0.5396 18.634 6.935 22.732 17.309a6.0006 6.0006 0 0 0 0.031 0.078c0.2914 0.708 0.3729 1.485 0.2363 2.2383-0.4347 2.3964-1.7966 3.107-3.5703 3.2696-1.7737 0.1625-3.2444-0.289-4.1074-2.5665a6.0006 6.0006 0 0 0-0.029-0.078c-3.9992-10.121-14.041-14.346-21.68-11.328-7.6387 3.0184-12.081 12.964-8.082 23.086a6.0006 6.0006 0 0 0 0.033 0.084c0.8796 2.1331-0.083 4.3982-2.2286 5.2461-2.1458 0.8479-4.3968-0.1485-5.2128-2.3066a6.0006 6.0006 0 0 0-0.031-0.082c-5.4652-13.831 0.5266-28.703 12.582-33.467 2.6372-1.0419 5.3928-1.5335 8.1465-1.5195zm39.018 63.867c-4.1623-0.01-8.3673 0.7519-12.445 2.3633-18.631 7.3617-27.002 29.562-19.344 48.998 3.1502 8.2516 12.606 12.426 20.826 9.1778 8.2358-3.2544 12.288-12.796 8.9121-20.982l0.033 0.082c-2.1739-5.5019 0.07-7.0171 1.3321-7.5157 1.2609-0.4983 3.9353-0.9258 6.1093 4.5762l-0.031-0.078c2.7289 7.2015 9.9516 10.857 16.424 10.264 6.4722-0.5932 12.909-5.5005 14.283-13.078 0.5439-2.9991 0.2143-6.0913-0.9394-8.9121-5.7729-14.556-19.178-24.09-33.379-24.846-0.5923-0.032-1.1866-0.048-1.7812-0.049zm0.1113 12.004c0.3934 0 0.7868 0.015 1.1797 0.037 9.4309 0.5396 18.634 6.935 22.732 17.309a6.0006 6.0006 0 0 0 0.031 0.078c0.2914 0.708 0.3749 1.485 0.2383 2.2383-0.4351 2.3947-1.7991 3.107-3.5723 3.2695-1.7737 0.1626-3.2444-0.2889-4.1074-2.5664a6.0006 6.0006 0 0 0-0.029-0.08c-3.9992-10.121-14.041-14.344-21.68-11.326-7.6387 3.0184-12.081 12.964-8.082 23.086a6.0006 6.0006 0 0 0 0.033 0.082c0.8796 2.133-0.083 4.4001-2.2286 5.248-2.1458 0.8479-4.3968-0.1485-5.2128-2.3066a6.0006 6.0006 0 0 0-0.031-0.082c-5.4653-13.831 0.5266-28.703 12.582-33.467 2.6372-1.0419 5.3928-1.5335 8.1465-1.5195zm16.986 75.674c-4.1623 0-8.3673 0.752-12.445 2.3633-18.63 7.3617-27.002 29.562-19.344 48.998 3.1502 8.2515 12.606 12.426 20.826 9.1777 8.2357-3.2544 12.288-12.796 8.9121-20.982l0.033 0.082c-2.1739-5.5018 0.07-7.0171 1.332-7.5156 1.2612-0.4983 3.9334-0.9259 6.1074 4.5762l-0.029-0.078c2.729 7.2016 9.9497 10.857 16.422 10.264s12.911-5.5005 14.285-13.078c0.5439-2.9992 0.2143-6.0914-0.9395-8.9121-5.7728-14.556-19.178-24.09-33.379-24.846-0.5923-0.032-1.1866-0.048-1.7812-0.049zm0.1113 12.004c0.3934 0 0.7867 0.015 1.1797 0.037 9.4309 0.5399 18.633 6.935 22.732 17.309a6.0006 6.0006 0 0 0 0.031 0.078c0.2914 0.708 0.373 1.485 0.2364 2.2382-0.4351 2.395-1.7971 3.1071-3.5703 3.2696-1.7738 0.1625-3.2444-0.289-4.1075-2.5664a6.0006 6.0006 0 0 0-0.029-0.08c-3.9992-10.121-14.041-14.344-21.68-11.326-7.6384 3.0185-12.081 12.964-8.082 23.086a6.0006 6.0006 0 0 0 0.033 0.084c0.8796 2.1331-0.083 4.3982-2.2285 5.2461-2.1458 0.848-4.3968-0.1484-5.2129-2.3066a6.0006 6.0006 0 0 0-0.031-0.082c-5.4653-13.831 0.5266-28.703 12.582-33.467 2.6372-1.0421 5.3928-1.5335 8.1465-1.5196zm-11.049 70.318c-4.162-0.01-8.3654 0.7519-12.443 2.3633-18.628 7.3605-26.999 29.555-19.348 48.988 3.1464 8.2582 12.607 12.437 20.83 9.1875 8.2358-3.2544 12.288-12.796 8.9121-20.982l0.033 0.082c-2.1731-5.4999 0.068-7.0166 1.3301-7.5157 1.2612-0.4983 3.9354-0.9258 6.1094 4.5762l-0.031-0.078c2.729 7.2015 9.9516 10.857 16.424 10.264 6.4722-0.5932 12.909-5.5005 14.283-13.078 0.5443-3.0018 0.2148-6.0971-0.9414-8.9199-5.7746-14.552-19.179-24.082-33.377-24.838-0.5923-0.032-1.1867-0.048-1.7812-0.049zm0.1132 12.004c0.3935 0 0.7868 0.015 1.1797 0.037 9.4309 0.5396 18.632 6.935 22.73 17.309a6.0006 6.0006 0 0 0 0.033 0.078c0.2914 0.708 0.3729 1.485 0.2363 2.2383-0.4351 2.3947-1.799 3.107-3.5722 3.2695-1.7738 0.1626-3.2425-0.2889-4.1055-2.5664a6.0006 6.0006 0 0 0-0.031-0.08c-3.9992-10.121-14.039-14.344-21.678-11.326-7.6387 3.0184-12.081 12.964-8.082 23.086a6.0006 6.0006 0 0 0 0.033 0.082c0.8796 2.133-0.083 4.4001-2.2285 5.248-2.1459 0.8479-4.3969-0.1485-5.2129-2.3066a6.0006 6.0006 0 0 0-0.033-0.082c-5.4653-13.831 0.5266-28.703 12.582-33.467 2.6372-1.0419 5.3944-1.5335 8.1484-1.5195zm-35.863 63.289c-4.203-0.02-8.4492 0.7332-12.564 2.3593-13.538 5.3493-21.708 18.631-22.17 32.836-0.038 0.7035 0.047 1.3849 0.2363 2.0234l11.756-1.6347c0.3226-9.9112 5.8335-18.605 14.588-22.064 10.645-4.2062 23.183 0.5624 29.779 11.27l11.137-3.4863c-0.064-0.9668-0.3645-1.9317-0.92-2.8086-7.0246-11.403-19.233-18.434-31.842-18.494z" fill="#fc4"/>
</g>
<g transform="matrix(-.12677 0 0 -.1304 45.417 93.214)">
<path d="m332.37 0c88.22 119.62 128.1 183.37 160.66 258.63 185.6-26.833 338.98-27.211 490.81-11.951 18.004-61.954 36.983-113.77 129.2-246.68zm267.27 515.95-80.883 8.1445c28.994 102.6 53.965 208.52 65.23 318.31 45.727 12.111 90.838 10.199 145.26-2.6602 18.212-90.03 50.36-181.39 99.775-273.04l-4.0195-11.707-5 10c-6.3148 3.149-12.962 3.4419-20.098 5.6914-9.1269 2.8775-18.921 7.5203-28.443 10.033-12.15 3.2064-24.488 9.0214-34.227 5.2656-2.9563-1.1401-6.4347 5.0988-9.5586 5.6856-30.626 66.529-53.395 133.1-69.197 198.91-12.675-95.584-34.375-186.99-58.838-274.63zm464.43 16.25c-126.4 168.8-169.94 323.99-174.1 480.2-4.0188 150.7 31.809 303.81 77.965 460.89l29.756-5.1797c-46.286-157.24-81.64-308.37-77.732-454.91 4.0794-152.98 46.234-303.13 173.45-470.09zm40.959 22.576c-6.3309 12.109-12.939 24.242-2.1191 34.828l-0.6055 0.92773c-7.8113-2.0644-16.084-3.5771-24.594-4.8047 4.9069 6.6306 9.9115 13.032 15.139 18.908 0.049 0.0551 0.099 0.1071 0.1484 0.16211l-0.1328 0.20117c-13.847-2.9112-25.317-1.3078-31.523 16.498 36.516-9.6924 77.408 41.578 93.658 13.662 19.09-26.057-44.254-43.038-49.971-80.383zm-182.35 28.092c-52.25 89.741-85.238 178.05-103.75 265.16l0.625-3.5742c-72.769 24.696-130.94 38.697-188 35.686-46.96-2.4782-91.359-17.019-139-43.938l6.0449 70.266c42.383 19.491 85.216 31.237 129.79 33.59 59.632 3.147 116.44-8.7399 179.43-28.578l0.36524-2.0859c-25.803 186.76 10.545 368.23 61.088 546.79l29.701-5.3028c-41.413-146.03-72.926-292.29-68.984-440.09 3.6604-137.27 37.13-276.21 122.85-420.25zm135.97 48.189c-5.8387 12.354-11.954 24.743-0.7168 34.885l0.7461 1.2441c-8.2731-1.914-17.053-3.17-26.08-4.1035 5.1427 6.3946 10.372 12.559 15.678 18.426-14.076-2.1222-25.11-0.0683-30.596 17.973 36.096-11.153 79.018 38.431 94.133 9.8848 18.026-26.803-45.951-41.223-53.164-78.309zm-45.416 78.002c-3.7085 13.152-7.6835 26.384 5.0801 34.521l-1.4941 0.97461c-7.7329-0.34233-15.77-0.11368-23.963 0.4082 6.232 5.5417 12.514 10.832 18.846 15.682-14.213 0.12915-25.103 3.9846-27.52 22.686 33.746-16.986 84.299 24.793 94.469-5.8652 13.33-29.422-52.152-33.031-65.418-68.406zm-33.439 80.639c-3.1194 13.304-6.5 26.701 6.6133 34.262l-1.5957 1.0391c-7.6961 9e-3 -15.665 0.59399-23.775 1.4746 6.7974 5.5226 13.637 10.767 20.576 15.354l-0.75586 0.48633c-14.136 0.62507-25.196 4.087-26.777 22.877 32.957-18.472 85.318 21.014 94.113-10.066 12.007-29.987-53.571-30.677-68.398-65.426zm170.21 83.562c-25 0-40 28.656-40 50 0 45 60.558 39.404 63.461 16.922 1.5394-11.921-18.461-36.922-18.461-36.922 29.5-1.3937 55.467 25.08 85 25 17.4-0.047 45-15 45-15-0.209-10.804 7.8938-19.65 0-35-25 10-92.951-5-135-5zm-74.178 62.332c-14.874 145.4 90.63 322.34 169.9 450.61 20.904-10.57 39.291-21.058 54.273-31.178v-100.63c-20.325-34.638-47.214-80.736-61.924-111.62 2.5232-0.8451 5.0006-1.9427 7.3886-3.3184 7.6991-4.3274 10.439-14.291 6.0196-21.945-4.4276-7.6687-14.458-10.277-22.061-5.7363l0.076-0.045c-5.1233 2.9579-6.9526 0.9599-7.6309-0.2149-0.678-1.1744-1.4924-3.7569 3.6309-6.7148l-0.074 0.043c6.7232-3.7562 9.2807-11.437 7.7441-17.752-1.5366-6.3152-7.3358-11.962-15.033-12.209-3.045-0.098-6.0538 0.6786-8.6738 2.2324-10.106 5.8498-16.822 15.49-19.033 25.885 1.2855-7.9141 5.431-14.987 11.6-20.396-64.959-8.9663-89.068-50.868-70.643-126.3-20.211-6.3536-38.718-13.672-55.564-20.707zm-426.51 5.6582c-23.724 0.18179-47.176 9.7318-42.457 28.648l-1.8516 0.09961c-75-75-75 135 0 60l1.9258-0.1875c-10.12 38.447 95.556 38.582 86.252 0.4063l1.8223-0.2188c75 75 75-135 0-60l-1.6094-1.1914c3.6363-18.553-20.358-27.738-44.082-27.557zm315.71 107.75c-4.1619-0.01-8.3653 0.752-12.443 2.3633-18.628 7.3606-26.999 29.555-19.348 48.988 3.147 8.2574 12.605 12.435 20.828 9.1856 8.2352-3.2542 12.289-12.794 8.9141-20.98l0.0332 0.082c-2.1732-5.4999 0.0682-7.0165 1.3301-7.5156 1.2612-0.4983 3.9354-0.9258 6.1094 4.5762l-0.0312-0.078c2.7289 7.2017 9.9515 10.857 16.424 10.264s12.909-5.5004 14.283-13.078c0.5444-3.0018 0.2149-6.0972-0.9414-8.9199-5.7746-14.552-19.179-24.082-33.377-24.838-0.59235-0.032-1.1867-0.048-1.7812-0.049zm0.11329 12.004c0.39343 0 0.78673 0.015 1.1797 0.037 9.4309 0.5396 18.631 6.9349 22.73 17.309a6.0006 6.0006 0 0 0 0.0332 0.078c0.29139 0.708 0.37295 1.483 0.23633 2.2363-0.43464 2.3965-1.7985 3.1089-3.5723 3.2715s-3.2425-0.2889-4.1055-2.5664a6.0006 6.0006 0 0 0-0.0312-0.08c-3.9992-10.121-14.039-14.344-21.678-11.326-7.6386 3.0185-12.081 12.964-8.082 23.086a6.0006 6.0006 0 0 0 0.0332 0.082c0.87936 2.133-0.0828 4.3982-2.2285 5.2461-2.1457 0.8479-4.3967-0.1468-5.2129-2.3047a6.0006 6.0006 0 0 0-0.0332-0.084c-5.4653-13.831 0.52661-28.701 12.582-33.465 2.6371-1.0421 5.3944-1.5336 8.1484-1.5195zm252.62 25.869c2.4343 0.078 3.3386 1.324 3.7598 3.0547 0.4211 1.7307 0.1906 3.2496-1.9356 4.4375a6.0006 6.0006 0 0 0-0.074 0.043c-9.4249 5.4415-12.128 15.992-8.0215 23.106 4.1068 7.113 14.596 10.047 24.022 4.6055a6.0006 6.0006 0 0 0 0.076-0.045c1.9808-1.183 4.3637-0.5626 5.5176 1.4355 1.1535 1.9981 0.4973 4.3702-1.5176 5.4942a6.0006 6.0006 0 0 0-0.076 0.045c-12.879 7.4359-28.47 3.6906-34.951-7.5352-6.4812-11.226-1.9284-26.599 10.951-34.035a6.0006 6.0006 0 0 0 0.072-0.043c0.6575-0.3921 1.4125-0.5871 2.1777-0.5625zm-186.35 21.32c-4.1623 0-8.3673 0.7519-12.445 2.3633-18.629 7.361-26.998 29.56-19.344 48.994 3.149 8.2538 12.605 12.43 20.826 9.1817 8.2357-3.2544 12.288-12.796 8.9121-20.982l0.033 0.084c-2.1739-5.5018 0.07-7.019 1.332-7.5175 1.2612-0.4984 3.9335-0.9259 6.1075 4.5761l-0.029-0.078c2.7289 7.2015 9.9496 10.857 16.422 10.264 6.4723-0.5932 12.911-5.5005 14.285-13.078 0.5439-2.9991 0.2143-6.0913-0.9395-8.9121-5.7728-14.556-19.178-24.09-33.379-24.846-0.5923-0.032-1.1866-0.048-1.7812-0.049zm0.1113 12.004c0.3934 0 0.7868 0.015 1.1797 0.037 9.4309 0.5396 18.634 6.935 22.732 17.309a6.0006 6.0006 0 0 0 0.031 0.078c0.2914 0.708 0.3729 1.485 0.2363 2.2383-0.4347 2.3964-1.7966 3.107-3.5703 3.2696-1.7737 0.1625-3.2444-0.289-4.1074-2.5665a6.0006 6.0006 0 0 0-0.029-0.078c-3.9992-10.121-14.041-14.346-21.68-11.328-7.6387 3.0184-12.081 12.964-8.082 23.086a6.0006 6.0006 0 0 0 0.033 0.084c0.8796 2.1331-0.083 4.3982-2.2286 5.2461-2.1458 0.8479-4.3968-0.1485-5.2128-2.3066a6.0006 6.0006 0 0 0-0.031-0.082c-5.4652-13.831 0.5266-28.703 12.582-33.467 2.6372-1.0419 5.3928-1.5335 8.1465-1.5195zm39.018 63.867c-4.1623-0.01-8.3673 0.7519-12.445 2.3633-18.631 7.3617-27.002 29.562-19.344 48.998 3.1502 8.2516 12.606 12.426 20.826 9.1778 8.2358-3.2544 12.288-12.796 8.9121-20.982l0.033 0.082c-2.1739-5.5019 0.07-7.0171 1.3321-7.5157 1.2609-0.4983 3.9353-0.9258 6.1093 4.5762l-0.031-0.078c2.7289 7.2015 9.9516 10.857 16.424 10.264 6.4722-0.5932 12.909-5.5005 14.283-13.078 0.5439-2.9991 0.2143-6.0913-0.9394-8.9121-5.7729-14.556-19.178-24.09-33.379-24.846-0.5923-0.032-1.1866-0.048-1.7812-0.049zm0.1113 12.004c0.3934 0 0.7868 0.015 1.1797 0.037 9.4309 0.5396 18.634 6.935 22.732 17.309a6.0006 6.0006 0 0 0 0.031 0.078c0.2914 0.708 0.3749 1.485 0.2383 2.2383-0.4351 2.3947-1.7991 3.107-3.5723 3.2695-1.7737 0.1626-3.2444-0.2889-4.1074-2.5664a6.0006 6.0006 0 0 0-0.029-0.08c-3.9992-10.121-14.041-14.344-21.68-11.326-7.6387 3.0184-12.081 12.964-8.082 23.086a6.0006 6.0006 0 0 0 0.033 0.082c0.8796 2.133-0.083 4.4001-2.2286 5.248-2.1458 0.8479-4.3968-0.1485-5.2128-2.3066a6.0006 6.0006 0 0 0-0.031-0.082c-5.4653-13.831 0.5266-28.703 12.582-33.467 2.6372-1.0419 5.3928-1.5335 8.1465-1.5195zm16.986 75.674c-4.1623 0-8.3673 0.752-12.445 2.3633-18.63 7.3617-27.002 29.562-19.344 48.998 3.1502 8.2515 12.606 12.426 20.826 9.1777 8.2357-3.2544 12.288-12.796 8.9121-20.982l0.033 0.082c-2.1739-5.5018 0.07-7.0171 1.332-7.5156 1.2612-0.4983 3.9334-0.9259 6.1074 4.5762l-0.029-0.078c2.729 7.2016 9.9497 10.857 16.422 10.264s12.911-5.5005 14.285-13.078c0.5439-2.9992 0.2143-6.0914-0.9395-8.9121-5.7728-14.556-19.178-24.09-33.379-24.846-0.5923-0.032-1.1866-0.048-1.7812-0.049zm0.1113 12.004c0.3934 0 0.7867 0.015 1.1797 0.037 9.4309 0.5399 18.633 6.935 22.732 17.309a6.0006 6.0006 0 0 0 0.031 0.078c0.2914 0.708 0.373 1.485 0.2364 2.2382-0.4351 2.395-1.7971 3.1071-3.5703 3.2696-1.7738 0.1625-3.2444-0.289-4.1075-2.5664a6.0006 6.0006 0 0 0-0.029-0.08c-3.9992-10.121-14.041-14.344-21.68-11.326-7.6384 3.0185-12.081 12.964-8.082 23.086a6.0006 6.0006 0 0 0 0.033 0.084c0.8796 2.1331-0.083 4.3982-2.2285 5.2461-2.1458 0.848-4.3968-0.1484-5.2129-2.3066a6.0006 6.0006 0 0 0-0.031-0.082c-5.4653-13.831 0.5266-28.703 12.582-33.467 2.6372-1.0421 5.3928-1.5335 8.1465-1.5196zm-11.049 70.318c-4.162-0.01-8.3654 0.7519-12.443 2.3633-18.628 7.3605-26.999 29.555-19.348 48.988 3.1464 8.2582 12.607 12.437 20.83 9.1875 8.2358-3.2544 12.288-12.796 8.9121-20.982l0.033 0.082c-2.1731-5.4999 0.068-7.0166 1.3301-7.5157 1.2612-0.4983 3.9354-0.9258 6.1094 4.5762l-0.031-0.078c2.729 7.2015 9.9516 10.857 16.424 10.264 6.4722-0.5932 12.909-5.5005 14.283-13.078 0.5443-3.0018 0.2148-6.0971-0.9414-8.9199-5.7746-14.552-19.179-24.082-33.377-24.838-0.5923-0.032-1.1867-0.048-1.7812-0.049zm0.1132 12.004c0.3935 0 0.7868 0.015 1.1797 0.037 9.4309 0.5396 18.632 6.935 22.73 17.309a6.0006 6.0006 0 0 0 0.033 0.078c0.2914 0.708 0.3729 1.485 0.2363 2.2383-0.4351 2.3947-1.799 3.107-3.5722 3.2695-1.7738 0.1626-3.2425-0.2889-4.1055-2.5664a6.0006 6.0006 0 0 0-0.031-0.08c-3.9992-10.121-14.039-14.344-21.678-11.326-7.6387 3.0184-12.081 12.964-8.082 23.086a6.0006 6.0006 0 0 0 0.033 0.082c0.8796 2.133-0.083 4.4001-2.2285 5.248-2.1459 0.8479-4.3969-0.1485-5.2129-2.3066a6.0006 6.0006 0 0 0-0.033-0.082c-5.4653-13.831 0.5266-28.703 12.582-33.467 2.6372-1.0419 5.3944-1.5335 8.1484-1.5195zm-35.863 63.289c-4.203-0.02-8.4492 0.7332-12.564 2.3593-13.538 5.3493-21.708 18.631-22.17 32.836-0.038 0.7035 0.047 1.3849 0.2363 2.0234l11.756-1.6347c0.3226-9.9112 5.8335-18.605 14.588-22.064 10.645-4.2062 23.183 0.5624 29.779 11.27l11.137-3.4863c-0.064-0.9668-0.3645-1.9317-0.92-2.8086-7.0246-11.403-19.233-18.434-31.842-18.494z" fill="#fc4"/>
</g>
<g transform="matrix(.12677 0 0 .1304 -119.38 -167.59)">
<path d="m1063.9 74.141c-16.796 9.1858-38.811 18.127-68.316 25.137-1.408 26.324-9.2143 49.148-23.893 66.652-1.2029 1.4344-2.4391 2.8224-2.5957 4.0938-66.403-6.1548-134.79-9.1847-205.84-8.2344-10.058-15.437-17.629-33.803-21.107-54.693-10.572-5.0974-19.751-12.047-27.107-20.062-7.3569 8.0158-16.536 14.965-27.107 20.062-3.7654 22.616-12.329 42.275-23.98 58.43-57.339 3.4551-117.22 9.5734-180.35 18.689-7.0113-6.5225-12.766-13.635-17.17-20.955-8.8856-14.768-13.377-28.274-17.387-39.789-15.141-2.9593-28.947-9.7392-41.596-17.832 39.72 59.09 64.243 103.53 85.621 152.99 185.6-26.833 338.98-27.211 490.81-11.951 14.163-48.743 28.92-91.213 80.016-172.54zm-432.61 443.54c12.857 46.609 24.927 94.429 35.215 143.57 9.104-24.797 19.281-49.691 30.486-74.451-4.6967 5.119-10.279 8.207-16.951 8.207-35 0-35-55-5-55 1.1038 0 2.1534 0.0474 3.1504 0.13867l0.0312-4.166c-3.097 0-6.7465-1.4439-10.775-4.9258-7.0335 2.3079-16.951-0.16776-29.98-10.996zm-112.3 7.2363c-3.4012 1.4428-7.1079 1.3251-10.445 0.60742-5.1543 2.7759-11.141 3.8148-17.307 3.1328-7.1012 3.3034-14.759 4.8144-21.385 4.9766-6.1257 3.9429-13.685 5.4747-20.648 5.1973-4.9618 2.1248-10.335 3.3096-15.551 3.5762l-3.0762 0.72656c23.862 84.24 44.579 169.12 57.107 255.08 34.358 21.767 65.384 36.156 96.232 44.166-11.154-109.77-36.124-215.68-64.928-317.46zm363.65 15.086c0.33271 1.5539 0.65805 3.1323 0.98437 4.7051-0.11446-1.5896-0.43261-3.1644-0.98437-4.7051zm0.98437 4.7051c1.6466 22.867-39.548 48.846-54.555 21.898-49.419 91.751-81.568 183.11-99.939 273.18 29.59-6.8678 61.992-17.033 98.812-29.877 19.534-74.69 50.124-150.34 94.779-227.04l-2.6758-2.8691c-4.4104-0.45985-7.8895-1.8269-10.854-3.9941-16.64 13.079-21.019-9.3755-25.568-31.301zm54.355 318.34c-9.752 43.517-15.149 87.12-17.201 131.31 61.286 16.614 114.56 51.919 154.99 99.57-16.406-53.788-24.858-108.22-19.383-160.26l1.1387-5.8301c-51.718-22.576-91.088-43.981-119.54-64.793zm-437.95 77.109c0.97222 38.663-0.27451 77.162-4.332 115.92 21.829-6.6433 43.462-12.363 64.521-17.143-15.434-18.336-15.07-62.019 0.71094-78.734-20.598-5.083-40.925-11.952-60.9-20.039zm619.36 12.727c0.4679 11.838 1.4096 23.773 2.791 35.781-20.374 17.422-34.992 41.351-17.133 93.002 15.15-13.305 22.607-27.594 25.412-42.473 1.8605 8.8259 3.933 17.671 6.209 26.527-17.928 21.263-29.692 47.628-1.6211 96.873 12.074-15.399 16.85-30.374 17.139-45.084 3.5949 10.539 7.4418 21.066 11.531 31.566-15.027 21.492-22.596 48.026 6.3301 93.004 10.628-15.157 14.751-29.585 14.746-43.549 4.3947 9.5066 8.9649 18.969 13.697 28.375-12.856 23.328-17.945 50.769 16.557 92.707 8.5689-15.887 11.078-30.367 9.6836-43.936 4.6487 8.1121 9.4019 16.165 14.256 24.146-10.218 21.529-13.171 46.399 14.209 81.26l12.668-6.5097c3.0287-10.33 3.6008-19.996 2.3789-29.178 4.5454 6.7182 9.1509 13.37 13.811 19.951l10.822-5.4883c-10.757-15.152-21.22-30.694-31.312-46.545 13.609 10.764 26.353 14.905 38.484 15.367v-31.219c-15.23-9.9709-32.809-15.198-55.041-10.998-8.4519-14.166-16.582-28.538-24.34-43.066 25.411 24.092 48.688 22.655 70.676 16.6-21.216-25.494-44.8-46.759-83.27-40.992-8.0095-16.057-15.535-32.266-22.51-48.56 27.229 29.251 52.074 28.099 75.478 21.73-21.208-25.642-44.814-47.033-83.525-41.188-8.885-22.267-16.694-44.643-23.25-66.961 12.1 13.393 23.73 20.737 34.971 24.225l4.9082-15.289 8.1953-10.566c-19.783-2.6582-35.776-8.3728-47.943-17.17-1.7129 0.1217-3.4467 0.2804-5.2226 0.5156-0.5362-2.0386-1.0502-4.0745-1.5645-6.1113-22.161-20.869-27.654-55.176-16.039-103.27zm-469.34 27.115a25 20 0 0 0-25 20 25 20 0 0 0 25 20 25 20 0 0 0 25-20 25 20 0 0 0-25-20zm315.08 75c-3.458-0.01-6.9393 0.6147-10.297 1.9414-15.349 6.065-22.531 24.612-15.957 41.25a10.001 10.001 0 1 0 18.602-7.3496c-3.0866-7.8117 0.25688-13.542 4.707-15.301 4.4499-1.7582 10.806 0.1395 13.893 7.9512a10.001 10.001 0 0 0 19.193-1.7578 10.001 10.001 0 0 0-0.5918-5.5918c-5.1361-12.998-17.199-21.108-29.549-21.143zm252.87 25.875a10.001 10.001 0 0 0-5.4434 1.4062c-15.493 8.9449-21.398 27.938-13.146 42.23 8.2519 14.293 27.654 18.675 43.146 9.7305a10.001 10.001 0 1 0-10-17.32c-7.2742 4.1997-13.434 1.7337-15.826-2.4102-2.3923-4.1437-1.4479-10.71 5.8262-14.91a10.001 10.001 0 0 0-4.5566-18.727zm-186.49 33.318c-3.458-0.01-6.9393 0.6147-10.297 1.9414-15.349 6.065-22.531 24.614-15.957 41.252a10.001 10.001 0 1 0 18.6-7.3515c-3.0866-7.8117 0.2569-13.542 4.7071-15.301 4.4499-1.7582 10.806 0.1394 13.892 7.9511a10.001 10.001 0 0 0 19.193-1.7578 10.001 10.001 0 0 0-0.5918-5.5918c-5.1361-12.998-17.197-21.108-29.547-21.142zm-105.71 26.91c9.9271 91.34 31.686 184.92 59.031 281.69 22.275-30.761 35.223-70.135 35.223-112.79 0-73.27-38.2-136.85-94.254-168.9zm144.84 48.961c-3.458-0.01-6.9393 0.6147-10.297 1.9414-15.349 6.065-22.531 24.612-15.957 41.25a10.001 10.001 0 1 0 18.6-7.3497c-3.0866-7.8115 0.2569-13.542 4.7071-15.301 4.4499-1.7582 10.808 0.1394 13.894 7.9511a10.001 10.001 0 0 0 19.191-1.7578 10.001 10.001 0 0 0-0.5918-5.5918c-5.1361-12.998-17.197-21.108-29.547-21.142zm81.713 77.766c1.7906 13.842 2.7012 27.935 2.7012 42.17 0 42.701-8.2013 84.136-23.326 122.36 34.332-11.638 67.212-24.66 96.609-36.662-23.816-37.787-50.71-81.531-75.984-127.87zm-64.615 9.9121c-3.458-0.01-6.9393 0.6147-10.297 1.9414-15.349 6.065-22.531 24.614-15.957 41.252a10.001 10.001 0 1 0 18.6-7.3515c-3.0866-7.8117 0.2568-13.542 4.707-15.301 4.4499-1.7582 10.806 0.1395 13.893 7.9512a10.001 10.001 0 0 0 19.193-1.7578 10.001 10.001 0 0 0-0.5918-5.5918c-5.1361-12.998-17.197-21.108-29.547-21.143zm-10.938 82.322c-3.458-0.01-6.9374 0.6147-10.295 1.9414-15.349 6.065-22.533 24.612-15.959 41.25a10.001 10.001 0 1 0 18.602-7.3497c-3.0868-7.8115 0.2568-13.542 4.707-15.301 4.4499-1.7582 10.806 0.1394 13.893 7.9511a10.001 10.001 0 0 0 19.193-1.7578 10.001 10.001 0 0 0-0.5918-5.5918c-5.1361-12.998-17.199-21.108-29.549-21.142zm-35.775 75.291c-3.4892-0.021-7.0024 0.6006-10.391 1.9394-11.146 4.4042-17.986 15.393-18.379 27.451l55.471-13.748c-5.986-9.7166-16.234-15.578-26.701-15.642z" fill="#f00"/>
</g>
<g transform="matrix(-.12677 0 0 -.1304 45.417 93.214)">
<path d="m1063.9 74.141c-16.796 9.1858-38.811 18.127-68.316 25.137-1.408 26.324-9.2143 49.148-23.893 66.652-1.2029 1.4344-2.4391 2.8224-2.5957 4.0938-66.403-6.1548-134.79-9.1847-205.84-8.2344-10.058-15.437-17.629-33.803-21.107-54.693-10.572-5.0974-19.751-12.047-27.107-20.062-7.3569 8.0158-16.536 14.965-27.107 20.062-3.7654 22.616-12.329 42.275-23.98 58.43-57.339 3.4551-117.22 9.5734-180.35 18.689-7.0113-6.5225-12.766-13.635-17.17-20.955-8.8856-14.768-13.377-28.274-17.387-39.789-15.141-2.9593-28.947-9.7392-41.596-17.832 39.72 59.09 64.243 103.53 85.621 152.99 185.6-26.833 338.98-27.211 490.81-11.951 14.163-48.743 28.92-91.213 80.016-172.54zm-432.61 443.54c12.857 46.609 24.927 94.429 35.215 143.57 9.104-24.797 19.281-49.691 30.486-74.451-4.6967 5.119-10.279 8.207-16.951 8.207-35 0-35-55-5-55 1.1038 0 2.1534 0.0474 3.1504 0.13867l0.0312-4.166c-3.097 0-6.7465-1.4439-10.775-4.9258-7.0335 2.3079-16.951-0.16776-29.98-10.996zm-112.3 7.2363c-3.4012 1.4428-7.1079 1.3251-10.445 0.60742-5.1543 2.7759-11.141 3.8148-17.307 3.1328-7.1012 3.3034-14.759 4.8144-21.385 4.9766-6.1257 3.9429-13.685 5.4747-20.648 5.1973-4.9618 2.1248-10.335 3.3096-15.551 3.5762l-3.0762 0.72656c23.862 84.24 44.579 169.12 57.107 255.08 34.358 21.767 65.384 36.156 96.232 44.166-11.154-109.77-36.124-215.68-64.928-317.46zm363.65 15.086c0.33271 1.5539 0.65805 3.1323 0.98437 4.7051-0.11446-1.5896-0.43261-3.1644-0.98437-4.7051zm0.98437 4.7051c1.6466 22.867-39.548 48.846-54.555 21.898-49.419 91.751-81.568 183.11-99.939 273.18 29.59-6.8678 61.992-17.033 98.812-29.877 19.534-74.69 50.124-150.34 94.779-227.04l-2.6758-2.8691c-4.4104-0.45985-7.8895-1.8269-10.854-3.9941-16.64 13.079-21.019-9.3755-25.568-31.301zm54.355 318.34c-9.752 43.517-15.149 87.12-17.201 131.31 61.286 16.614 114.56 51.919 154.99 99.57-16.406-53.788-24.858-108.22-19.383-160.26l1.1387-5.8301c-51.718-22.576-91.088-43.981-119.54-64.793zm-437.95 77.109c0.97222 38.663-0.27451 77.162-4.332 115.92 21.829-6.6433 43.462-12.363 64.521-17.143-15.434-18.336-15.07-62.019 0.71094-78.734-20.598-5.083-40.925-11.952-60.9-20.039zm619.36 12.727c0.4679 11.838 1.4096 23.773 2.791 35.781-20.374 17.422-34.992 41.351-17.133 93.002 15.15-13.305 22.607-27.594 25.412-42.473 1.8605 8.8259 3.933 17.671 6.209 26.527-17.928 21.263-29.692 47.628-1.6211 96.873 12.074-15.399 16.85-30.374 17.139-45.084 3.5949 10.539 7.4418 21.066 11.531 31.566-15.027 21.492-22.596 48.026 6.3301 93.004 10.628-15.157 14.751-29.585 14.746-43.549 4.3947 9.5066 8.9649 18.969 13.697 28.375-12.856 23.328-17.945 50.769 16.557 92.707 8.5689-15.887 11.078-30.367 9.6836-43.936 4.6487 8.1121 9.4019 16.165 14.256 24.146-10.218 21.529-13.171 46.399 14.209 81.26l12.668-6.5097c3.0287-10.33 3.6008-19.996 2.3789-29.178 4.5454 6.7182 9.1509 13.37 13.811 19.951l10.822-5.4883c-10.757-15.152-21.22-30.694-31.312-46.545 13.609 10.764 26.353 14.905 38.484 15.367v-31.219c-15.23-9.9709-32.809-15.198-55.041-10.998-8.4519-14.166-16.582-28.538-24.34-43.066 25.411 24.092 48.688 22.655 70.676 16.6-21.216-25.494-44.8-46.759-83.27-40.992-8.0095-16.057-15.535-32.266-22.51-48.56 27.229 29.251 52.074 28.099 75.478 21.73-21.208-25.642-44.814-47.033-83.525-41.188-8.885-22.267-16.694-44.643-23.25-66.961 12.1 13.393 23.73 20.737 34.971 24.225l4.9082-15.289 8.1953-10.566c-19.783-2.6582-35.776-8.3728-47.943-17.17-1.7129 0.1217-3.4467 0.2804-5.2226 0.5156-0.5362-2.0386-1.0502-4.0745-1.5645-6.1113-22.161-20.869-27.654-55.176-16.039-103.27zm-469.34 27.115a25 20 0 0 0-25 20 25 20 0 0 0 25 20 25 20 0 0 0 25-20 25 20 0 0 0-25-20zm315.08 75c-3.458-0.01-6.9393 0.6147-10.297 1.9414-15.349 6.065-22.531 24.612-15.957 41.25a10.001 10.001 0 1 0 18.602-7.3496c-3.0866-7.8117 0.25688-13.542 4.707-15.301 4.4499-1.7582 10.806 0.1395 13.893 7.9512a10.001 10.001 0 0 0 19.193-1.7578 10.001 10.001 0 0 0-0.5918-5.5918c-5.1361-12.998-17.199-21.108-29.549-21.143zm252.87 25.875a10.001 10.001 0 0 0-5.4434 1.4062c-15.493 8.9449-21.398 27.938-13.146 42.23 8.2519 14.293 27.654 18.675 43.146 9.7305a10.001 10.001 0 1 0-10-17.32c-7.2742 4.1997-13.434 1.7337-15.826-2.4102-2.3923-4.1437-1.4479-10.71 5.8262-14.91a10.001 10.001 0 0 0-4.5566-18.727zm-186.49 33.318c-3.458-0.01-6.9393 0.6147-10.297 1.9414-15.349 6.065-22.531 24.614-15.957 41.252a10.001 10.001 0 1 0 18.6-7.3515c-3.0866-7.8117 0.2569-13.542 4.7071-15.301 4.4499-1.7582 10.806 0.1394 13.892 7.9511a10.001 10.001 0 0 0 19.193-1.7578 10.001 10.001 0 0 0-0.5918-5.5918c-5.1361-12.998-17.197-21.108-29.547-21.142zm-105.71 26.91c9.9271 91.34 31.686 184.92 59.031 281.69 22.275-30.761 35.223-70.135 35.223-112.79 0-73.27-38.2-136.85-94.254-168.9zm144.84 48.961c-3.458-0.01-6.9393 0.6147-10.297 1.9414-15.349 6.065-22.531 24.612-15.957 41.25a10.001 10.001 0 1 0 18.6-7.3497c-3.0866-7.8115 0.2569-13.542 4.7071-15.301 4.4499-1.7582 10.808 0.1394 13.894 7.9511a10.001 10.001 0 0 0 19.191-1.7578 10.001 10.001 0 0 0-0.5918-5.5918c-5.1361-12.998-17.197-21.108-29.547-21.142zm81.713 77.766c1.7906 13.842 2.7012 27.935 2.7012 42.17 0 42.701-8.2013 84.136-23.326 122.36 34.332-11.638 67.212-24.66 96.609-36.662-23.816-37.787-50.71-81.531-75.984-127.87zm-64.615 9.9121c-3.458-0.01-6.9393 0.6147-10.297 1.9414-15.349 6.065-22.531 24.614-15.957 41.252a10.001 10.001 0 1 0 18.6-7.3515c-3.0866-7.8117 0.2568-13.542 4.707-15.301 4.4499-1.7582 10.806 0.1395 13.893 7.9512a10.001 10.001 0 0 0 19.193-1.7578 10.001 10.001 0 0 0-0.5918-5.5918c-5.1361-12.998-17.197-21.108-29.547-21.143zm-10.938 82.322c-3.458-0.01-6.9374 0.6147-10.295 1.9414-15.349 6.065-22.533 24.612-15.959 41.25a10.001 10.001 0 1 0 18.602-7.3497c-3.0868-7.8115 0.2568-13.542 4.707-15.301 4.4499-1.7582 10.806 0.1394 13.893 7.9511a10.001 10.001 0 0 0 19.193-1.7578 10.001 10.001 0 0 0-0.5918-5.5918c-5.1361-12.998-17.199-21.108-29.549-21.142zm-35.775 75.291c-3.4892-0.021-7.0024 0.6006-10.391 1.9394-11.146 4.4042-17.986 15.393-18.379 27.451l55.471-13.748c-5.986-9.7166-16.234-15.578-26.701-15.642z" fill="#f00"/>
</g>
<g transform="matrix(.12677 0 0 .1304 -119.38 -167.59)">
<path d="m799.33 293.7a11.451 19.017 0 0 0-11.453 19.016 11.451 19.017 0 0 0 11.453 19.018 11.451 19.017 0 0 0 11.451-19.018 11.451 19.017 0 0 0-11.451-19.016zm141.42 3.8984a11.451 19.017 0 0 0-11.451 19.018 11.451 19.017 0 0 0 11.451 19.016 11.451 19.017 0 0 0 11.451-19.016 11.451 19.017 0 0 0-11.451-19.018zm15.084 125.63c-0.40297-0.01-0.8171-9e-3 -1.2422 2e-3 -9.9965 0.26532-14.59 11.773-14.59 11.773s7.2282-7.7065 15.049-7.9473c15.886-0.48912-1.4012 32.753-15.049 32.947-9.9001 0.14116-30-25-50-25v10c20 0 35.734 19.841 50 20 23.033 0.25729 41.219-41.17 15.832-41.775zm-205.83 0.05859c-24.988 0.76934-25.073 52.424 6.0254 51.307 27.387-0.98362 58.975-29.59 103.97-29.59v-10c-55 2.5394-60.544 24.922-100 32.16-25.561 4.6889-26.812-35.184-10-37.16 9.9316-1.1672 10 17.332 10 17.332 0.28807 0.0457 10-24.665-10-24.049zm-171.36 91.936-39.818 6.3008c1.7573 6.2336 3.5006 12.48 5.2266 18.742l19.27-5.2188c1.2999-0.37191 2.6441-0.56638 3.9961-0.57813 7.5858-0.0661 14.026 5.5418 15.006 13.064 0.9795 7.5226-3.8103 14.592-11.16 16.471l-19.287 5.2227c0.32282 1.2193 0.6416 2.4418 0.96289 3.6621l19.318-4.9766c1.3041-0.35527 2.6503-0.53265 4.002-0.52734 7.5855 0.0284 13.955 5.7144 14.842 13.248 0.88643 7.5336-3.9895 14.544-11.361 16.332l-19.33 4.9785c0.31692 1.2638 0.63615 2.5261 0.95117 3.791l19.488-4.7246c1.3086-0.33669 2.6568-0.49502 4.0078-0.4707 7.5851 0.13496 13.875 5.9108 14.654 13.457s-4.1964 14.487-11.594 16.17l-19.494 4.7246c0.26733 1.1378 0.5274 2.2792 0.79297 3.418l19.43-4.3867c1.314-0.31634 2.6648-0.45365 4.0156-0.4082 7.5822 0.25522 13.78 6.1317 14.439 13.689 0.65966 7.5577-4.4263 14.417-11.85 15.982l-19.438 4.3887c0.25706 1.1812 0.51264 2.3628 0.76758 3.5449l19.689-4.0801c0.82934-0.18448 1.6729-0.29817 2.5215-0.33985 7.8652-0.38533 14.69 5.3768 15.629 13.195 0.9389 7.8185-4.3277 15.032-12.061 16.52l-19.691 4.082c0.24044 1.2105 0.49052 2.4174 0.72852 3.6289l19.738-3.6973c0.83339-0.16785 1.6795-0.26455 2.5293-0.28906 7.869-0.23026 14.578 5.6613 15.365 13.494 0.7876 7.8329-4.6138 14.942-12.371 16.283l-19.74 3.6973c0.34666 1.9472 0.67783 3.8997 1.0176 5.8496l19.824-3.2559c0.83689-0.14981 1.685-0.22823 2.5352-0.23437 7.8751-0.0584 14.454 5.9825 15.066 13.834 0.61262 7.8515-4.9494 14.84-12.738 16.004l-19.822 3.2559c0.25852 1.6742 0.52632 3.3453 0.7793 5.0215l19.9-2.7891c0.8399-0.12976 1.6893-0.18791 2.5391-0.17383 7.8753 0.12575 14.313 6.3209 14.74 14.186 0.42764 7.8646-5.3001 14.72-13.115 15.699l-19.887 2.7871c0.17132 1.3202 0.32648 2.6454 0.49414 3.9668l20.002-2.3086c0.84292-0.10974 1.6936-0.14763 2.543-0.11328 7.8658 0.3227 14.143 6.6702 14.379 14.539 0.23582 7.8688-5.6501 14.582-13.482 15.375l-19.996 2.3086c0.31913 3.0538 0.64717 6.1057 0.94531 9.166l40.555 3.5469c-10.704-117.11-36.559-228.63-66.455-335.05zm228.22 50.76c-2.608 1.1689-6.1196 0.48872-9.4082 2.4512-5.4892 3.2756-10.728 8.7833-12.809 4.9512-5.7038 10.459-13.446 8.301-17.004 5.8359-6.3389 5.0228-7.0624 5.0922-13.25 2.418-43.388 89.803-71.919 179.66-88.082 268.02l27.844-3.6641-6.5703-1.3652c-7.645-1.4755-12.89-8.5554-12.076-16.299s7.4165-13.576 15.201-13.43c1.0003 0.0191 1.9961 0.13815 2.9727 0.35547l19.428 4.0332c0.12162-0.54673 0.24457-1.0938 0.36719-1.6406l-19.287-4.6562c-7.3164-1.6558-12.284-8.4606-11.633-15.934 0.65154-7.473 6.7223-13.317 14.215-13.682 1.5013-0.0733 3.0051 0.0795 4.4609 0.45313l19.256 4.6504c0.28553-1.1124 0.56959-2.2252 0.85938-3.3379l-19.098-5.3027c-7.2543-1.9042-11.988-8.873-11.084-16.318 0.90422-7.4453 7.1688-13.079 14.668-13.191 1.503-0.0226 3.0008 0.18086 4.4434 0.60351l19.074 5.2969c0.34462-1.1752 0.69154-2.3499 1.041-3.5254l-18.9-5.9434c-7.1847-2.1492-11.679-9.2739-10.523-16.684 1.1554-7.4097 7.6056-12.828 15.104-12.688 1.5028 0.0285 2.9927 0.28261 4.4199 0.75391l18.879 5.9356c0.33257-1.0062 0.67552-2.0131 1.0117-3.0195l-18.689-6.5606c-6.8411-2.2942-11.08-9.1339-10.09-16.281 0.98985-7.1474 6.9276-12.577 14.135-12.926 2.0046-0.0971 4.0084 0.20911 5.8926 0.90039l18.68 6.5566c0.45499-1.2376 0.91635-2.475 1.377-3.7129l-18.465-7.1797c-6.7617-2.5203-10.77-9.4984-9.543-16.609s7.3433-12.34 14.559-12.447c2.0061-0.0301 3.9979 0.34245 5.8574 1.0957l18.467 7.1816c0.46674-1.1495 0.93457-2.2995 1.4062-3.4492l-18.223-7.7793c-6.6747-2.7399-10.454-9.8439-8.9961-16.91 1.4582-7.0663 7.741-12.093 14.955-11.967 2.0067 0.0354 3.9858 0.47306 5.8203 1.2871l18.234 7.7832c0.39504-0.8886 0.7895-1.7773 1.1875-2.666l-17.969-8.3438c-6.5876-2.9463-10.144-10.165-8.4648-17.184s8.1164-11.848 15.324-11.494c2.004 0.0984 3.9678 0.59787 5.7754 1.4688l17.986 8.3535c5.4982-11.396 11.253-22.797 17.264-34.199zm473.13 69.021-0.4141 244.9c1.7218-0.36733 3.6726-0.94205 5.4141-1.6387 7.8938 15.35-0.209 24.196 0 35 0 0-16.38 8.8702-31.859 12.967-4.6123 1.2207-9.146 2.0224-13.141 2.0332-29.533 0.0798-55.5-26.394-85-25 0 0 5.6739 7.0919 10.84 15.613 26.604 3.6385 36.977 19.387 59.16 19.387 2.3705 0 4.6717 0.49255 6.8184 1.3594l19.924-7.4785-0.1152 0.64258c52.27-12.886 60.404 14.8 13.373 30.477-2.9808 0.99361-5.8255 1.851-8.041 2.5 45.309 0.32288 44.386 24.242-5.6406 32.682-4.8602 0.81994-9.3892 1.4184-13.594 1.8183l0.1055 3.1504c60.358-2.4568 63.623 25.989 7.9219 32.506l-2.7266 2.3476c48.493-0.3626 49.541 26.362 1.6426 32.652l-3.3555 4.7949c13.875 5.1336 23.688 17.772 23.688 32.549 0 15.64-10.99 28.884-26.633 33.285 13.983 31.05 41.112 77.807 61.633 112.83v-606.07l-0.012-0.49414c-6.5815-4.3634-13.245-8.6331-19.988-12.814zm-100.04 43.84c-63.681 93.401-92.263 173.7-104.22 256.68 16.804 7.0556 35.371 14.397 53.775 20.051-11.659-6.462-19.514-16.106-19.514-32.312 0-21.344 15-50 40-50 8.72 0 18.554 0.64488 29.443 1.6582zm-676.14 177.03-9.6387 19.037 13.621 6.0996-3.668 8.0117-5-2.6191c-3.5802-1.9769-6.4472 3.4976-2.7832 5.3144l10.605 5.5566 8.8203-19.268-13.4-6 4.1113-8.1191c3.4199 1.6976 6.8372 3.3768 10.24 4.9395 4.1016 1.8834 8.1938 3.6189 12.285 5.3262l-4.4609 10.938-6.791 16.674 2.7676 1.1367c6.0161 2.4712 12.036 4.7566 18.062 6.8711 6.287 2.2057 12.59 4.2292 18.922 6.0137l2.8672 0.80664 5.8418-20.162-2.9082-0.82031c-4.9771-1.4028-9.9535-3.0581-14.932-4.7774l2.918-8.3262c4.8406 1.6824 9.678 3.2874 14.512 4.6719 4.6131 1.3213 9.2534 2.441 13.902 3.4961l-2.6309 11.664-3.9414 17.568 2.8887 0.67969c6.4526 1.52 12.926 2.7938 19.42 3.8594 6.8465 1.1234 13.729 2.0179 20.66 2.6465l2.9726 0.26953 2-20.902-3.0039-0.27149c-5.4629-0.49519-10.89-1.2618-16.311-2.1055l1.4297-8.8828c5.2338 0.82999 10.475 1.5715 15.744 2.0664 3.8715 0.36364 7.7573 0.64961 11.658 0.85547 0.91651 0.0484 1.8735 0.0515 2.8086 0.084l-0.40235 11.934-0.5957 18.016 2.959 0.13672c6.1227 0.27953 12.202 0.32399 18.26 0.2207 6.5064 0.21857 14.433-0.84974 20.162-0.94922l3.1699-0.0547-1.5293-21.098-3 0.22852c-5.2578 0.3983-10.501 0.58089-15.744 0.69921v-9.002c5.0168-0.14499 10.037-0.34061 15.084-0.71484 5.6469-0.4187 11.353-1.0666 17.088-1.8066l1.5625 12.098 2.2617 17.863 2.9668-0.36523c6.5821-0.81001 13.183-1.8066 19.809-2.9512 6.2319-1.0765 12.493-2.285 18.807-3.6445l2.9238-0.62891-4.3516-20.543-2.9434 0.63477c-5.07 1.0923-10.075 2.0228-15.07 2.916l-1.5898-9.0469c4.8768-0.83274 9.7726-1.7258 14.725-2.7734 4.7697-1.009 9.6082-2.1478 14.471-3.3223l2.8867 11.758 4.2383 17.518 2.9062-0.69141c6.1192-1.4552 12.3-3.0656 18.531-4.7734 5.7663-1.5803 11.587-3.2469 17.506-5.041l2.8574-0.86719-5.9941-20.125-2.8848 0.875c-4.8026 1.4554-9.4792 2.7643-14.129 4.0332l-2.416-8.7812c4.5878-1.2395 9.2031-2.5202 13.898-3.9082 4.8888-1.4452 9.8658-2.9853 14.869-4.5527l9.5898 30.246 5.709-1.7363-1.8301-5.8828-9.5547-30.131-2.8574 0.90429c-5.9625 1.8873-11.832 3.6859-17.625 5.3984-5.6451 1.6687-11.208 3.2536-16.645 4.6816l-2.9356 0.76953 5.6055 20.371 2.873-0.76367c4.6808-1.2453 9.4705-2.6449 14.289-4.0781l2.5723 8.6309c-4.8682 1.4498-9.7085 2.863-14.484 4.1719-5.2067 1.4269-10.334 2.7254-15.438 3.9746l-2.8223-11.662-4.3106-17.557-2.9199 0.72266c-5.8043 1.4386-11.529 2.7497-17.199 3.9492-5.8915 1.2464-11.709 2.3704-17.424 3.2832l-3.0078 0.48047 3.6758 20.914 2.9453-0.50585c5.0586-0.86906 10.168-1.8926 15.297-2.9609l1.8633 8.8027c-5.2325 1.0904-10.449 2.1345-15.629 3.0293-5.5508 0.95888-11.061 1.7442-16.561 2.4668l-1.502-11.863-2.3301-18.018-3.002 0.41992c-6.6263 0.92784-13.184 1.5998-19.715 2.084-5.9291 0.43962-11.824 0.72464-17.699 0.83985l-2.9414 0.0566v20.975l3.0352-0.0352c5.3869-0.0628 10.769-0.362 16.154-0.71875l0.65039 8.9922c-5.6955 0.29194-11.965 0.93358-16.732 0.76953l-0.0781-2e-3 -0.0781 2e-3c-5.0065 0.0869-10.017-0.0149-15.033-0.1836l0.39649-11.994 0.60937-18.062-3.123 0.0215c-1.8204 0.012-3.6758-0.0679-5.5723-0.16797-3.8193-0.20156-7.6222-0.47996-11.412-0.83594-6.1443-0.57712-12.242-1.3559-18.295-2.4023l-2.9922-0.51758-3.3359 20.752 2.9414 0.49219c5.5477 0.92732 11.129 1.5849 16.725 2.1582l-0.85742 8.9629c-5.7755-0.58939-11.537-1.2742-17.27-2.2148-5.3939-0.88511-10.752-2.0022-16.102-3.1992l2.6191-11.67 3.9414-17.479-2.9727-0.63086c-5.4825-1.1624-10.96-2.5642-16.443-4.1348-5.6827-1.6276-11.348-3.4291-17.008-5.4766l-2.8496-1.0312-6.8926 19.67 2.8086 1.0039c5.0894 1.8169 10.184 3.389 15.283 4.8887l-2.5039 8.6426c-5.2443-1.5391-10.485-3.158-15.725-4.9961-4.9962-1.7529-9.9851-3.6969-14.973-5.6973l4.5039-11.059 5.2812-12.947c0.50942-0.67894 0.70742-1.5419 0.54493-2.375-0.18168-1.4086-1.3262-2.4969-2.7422-2.6074-4.6454-1.9079-9.2962-3.9107-13.961-6.0527-4.2369-1.9455-8.4788-3.9843-12.734-6.1426zm310.93 4.3848-8.5469 2.8496 4.3164 12.949zm105.05 165.31c-0.40019 26.809 0.57394 53.887 2.666 80.92 75.207 32.852 127.53 112.49 127.53 203.51 0 57.227-20.683 109.96-54.734 149.44l2.1816 8.9004c10.688-2.0586 21.49-4.3557 32.34-6.8652 6.2205-1.4388 12.456-2.9467 18.697-4.5196 15.351-3.8688 30.796-7.9093 45.66-12.627 19.678-40.69 30.856-86.571 30.856-134.33 0-131.71-85.022-249.16-205.2-284.43zm45.197 24.434a35 35 0 0 1 35 35 35 35 0 0 1-35 35 35 35 0 0 1-35-35 35 35 0 0 1 35-35zm66.531 59.354a35 35 0 0 1 35 35 35 35 0 0 1-35 35 35 35 0 0 1-35-35 35 35 0 0 1 35-35zm-82.508 66.818c-5.4554 0.07-10.719 2.1233-14.787 5.7949l-2.916 2.5566 3.5117 16.873 9.375-8.2227a7.5008 7.5008 0 0 0 0.0801-0.07c1.4492-1.3079 3.344-1.9976 5.2949-1.9277 3.7664 0.1348 5.8348 2.2158 6.8144 5.0293 0.97967 2.8135 0.65128 5.7308-2.2168 8.1758a7.5008 7.5008 0 0 0-0.0801 0.068l-15.756 13.818 6.1543 29.564 28.98-12.266a7.5008 7.5008 0 0 0 0.0977-0.041c0.84913-0.3737 1.7588-0.5875 2.6856-0.6289 3.6977-0.165 6.8709 2.2748 7.6621 5.8906s-1.0733 7.1581-4.502 8.5527a7.5008 7.5008 0 0 0-0.0977 0.041l-31.711 13.42 4.9531 23.793 35.402-3.9864a7.5008 7.5008 0 0 0 0.10547-0.016c0.2108-0.027 0.42267-0.044 0.63476-0.053 0.2121-0.01 0.42442-0.01 0.63672 0a7.5008 7.5008 0 0 0 4e-3 0c4.006 0.1723 7.0667 3.2827 7.1758 7.291 0.10912 4.0082-2.7788 7.2799-6.7695 7.6699a7.5008 7.5008 0 0 0-0.10938 0.012l-34.01 3.8321 5.8535 28.123 26.885 4.9121a7.5008 7.5008 0 0 0 0.0977 0.02c4.2149 0.7123 6.8973 4.5411 6.1289 8.7461-0.76836 4.205-4.6318 6.8361-8.8262 6.0117a7.5008 7.5008 0 0 0-0.0977-0.019l-20.889-3.8164 3.3008 15.856 14.795 2.7031h2e-3c12.217 2.3999 24.233-5.7869 26.471-18.035 2.2382-12.249-6.1071-24.156-18.385-26.23l-24.207-4.4238 24.451-2.754c11.688-1.1423 20.622-11.268 20.303-23.008-0.3194-11.738-9.7905-21.36-21.521-21.867h-4e-3c-1.2723-0.055-2.5472-1e-4 -3.8106 0.1583l0.10547-0.014-16.041 1.8066 14.826-6.2754c10.098-4.1067 15.834-15.006 13.504-25.654-2.3302-10.649-12.094-18.154-22.984-17.668-2.7783 0.1242-5.511 0.761-8.0566 1.8808-1e-3 6e-4 -3e-3 0-4e-3 0l-20.217 8.5567 16.674-14.625-0.0801 0.068c7.545-6.4319 9.455-16.474 6.6523-24.523s-10.537-14.733-20.445-15.088c-0.3651-0.013-0.73006-0.016-1.0938-0.012zm15.766 169.15-3.2988-15.854-1.2871-0.2344 3.8066 15.945zm-9.1523-43.976-3.0703-14.75-2.3125 0.2597 3.3476 14.719zm-8.0234-38.543-3.1152-14.969-2.125 0.8985 2.9531 15.039zm-9.2695-44.533-3.5117-16.871-0.79297 0.6953 2.9336 17.379zm133.1-33.441a35 35 0 0 1 35 35 35 35 0 0 1-35 35 35 35 0 0 1-35-35 35 35 0 0 1 35-35zm16.691 87.807a35 35 0 0 1 35 35 35 35 0 0 1-35 35 35 35 0 0 1-35-35 35 35 0 0 1 35-35zm-10.885 82.002a35 35 0 0 1 35 35 35 35 0 0 1-35 35 35 35 0 0 1-35-35 35 35 0 0 1 35-35zm-35.559 75.473a35 35 0 0 1 31.703 20.17l-66.676 16.211a35 35 0 0 1-0.027-1.3809 35 35 0 0 1 35-35z" fill="#44f"/>
</g>
<g transform="matrix(-.12677 0 0 -.1304 45.417 93.214)">
<path d="m799.33 293.7a11.451 19.017 0 0 0-11.453 19.016 11.451 19.017 0 0 0 11.453 19.018 11.451 19.017 0 0 0 11.451-19.018 11.451 19.017 0 0 0-11.451-19.016zm141.42 3.8984a11.451 19.017 0 0 0-11.451 19.018 11.451 19.017 0 0 0 11.451 19.016 11.451 19.017 0 0 0 11.451-19.016 11.451 19.017 0 0 0-11.451-19.018zm15.084 125.63c-0.40297-0.01-0.8171-9e-3 -1.2422 2e-3 -9.9965 0.26532-14.59 11.773-14.59 11.773s7.2282-7.7065 15.049-7.9473c15.886-0.48912-1.4012 32.753-15.049 32.947-9.9001 0.14116-30-25-50-25v10c20 0 35.734 19.841 50 20 23.033 0.25729 41.219-41.17 15.832-41.775zm-205.83 0.05859c-24.988 0.76934-25.073 52.424 6.0254 51.307 27.387-0.98362 58.975-29.59 103.97-29.59v-10c-55 2.5394-60.544 24.922-100 32.16-25.561 4.6889-26.812-35.184-10-37.16 9.9316-1.1672 10 17.332 10 17.332 0.28807 0.0457 10-24.665-10-24.049zm-171.36 91.936-39.818 6.3008c1.7573 6.2336 3.5006 12.48 5.2266 18.742l19.27-5.2188c1.2999-0.37191 2.6441-0.56638 3.9961-0.57813 7.5858-0.0661 14.026 5.5418 15.006 13.064 0.9795 7.5226-3.8103 14.592-11.16 16.471l-19.287 5.2227c0.32282 1.2193 0.6416 2.4418 0.96289 3.6621l19.318-4.9766c1.3041-0.35527 2.6503-0.53265 4.002-0.52734 7.5855 0.0284 13.955 5.7144 14.842 13.248 0.88643 7.5336-3.9895 14.544-11.361 16.332l-19.33 4.9785c0.31692 1.2638 0.63615 2.5261 0.95117 3.791l19.488-4.7246c1.3086-0.33669 2.6568-0.49502 4.0078-0.4707 7.5851 0.13496 13.875 5.9108 14.654 13.457s-4.1964 14.487-11.594 16.17l-19.494 4.7246c0.26733 1.1378 0.5274 2.2792 0.79297 3.418l19.43-4.3867c1.314-0.31634 2.6648-0.45365 4.0156-0.4082 7.5822 0.25522 13.78 6.1317 14.439 13.689 0.65966 7.5577-4.4263 14.417-11.85 15.982l-19.438 4.3887c0.25706 1.1812 0.51264 2.3628 0.76758 3.5449l19.689-4.0801c0.82934-0.18448 1.6729-0.29817 2.5215-0.33985 7.8652-0.38533 14.69 5.3768 15.629 13.195 0.9389 7.8185-4.3277 15.032-12.061 16.52l-19.691 4.082c0.24044 1.2105 0.49052 2.4174 0.72852 3.6289l19.738-3.6973c0.83339-0.16785 1.6795-0.26455 2.5293-0.28906 7.869-0.23026 14.578 5.6613 15.365 13.494 0.7876 7.8329-4.6138 14.942-12.371 16.283l-19.74 3.6973c0.34666 1.9472 0.67783 3.8997 1.0176 5.8496l19.824-3.2559c0.83689-0.14981 1.685-0.22823 2.5352-0.23437 7.8751-0.0584 14.454 5.9825 15.066 13.834 0.61262 7.8515-4.9494 14.84-12.738 16.004l-19.822 3.2559c0.25852 1.6742 0.52632 3.3453 0.7793 5.0215l19.9-2.7891c0.8399-0.12976 1.6893-0.18791 2.5391-0.17383 7.8753 0.12575 14.313 6.3209 14.74 14.186 0.42764 7.8646-5.3001 14.72-13.115 15.699l-19.887 2.7871c0.17132 1.3202 0.32648 2.6454 0.49414 3.9668l20.002-2.3086c0.84292-0.10974 1.6936-0.14763 2.543-0.11328 7.8658 0.3227 14.143 6.6702 14.379 14.539 0.23582 7.8688-5.6501 14.582-13.482 15.375l-19.996 2.3086c0.31913 3.0538 0.64717 6.1057 0.94531 9.166l40.555 3.5469c-10.704-117.11-36.559-228.63-66.455-335.05zm228.22 50.76c-2.608 1.1689-6.1196 0.48872-9.4082 2.4512-5.4892 3.2756-10.728 8.7833-12.809 4.9512-5.7038 10.459-13.446 8.301-17.004 5.8359-6.3389 5.0228-7.0624 5.0922-13.25 2.418-43.388 89.803-71.919 179.66-88.082 268.02l27.844-3.6641-6.5703-1.3652c-7.645-1.4755-12.89-8.5554-12.076-16.299s7.4165-13.576 15.201-13.43c1.0003 0.0191 1.9961 0.13815 2.9727 0.35547l19.428 4.0332c0.12162-0.54673 0.24457-1.0938 0.36719-1.6406l-19.287-4.6562c-7.3164-1.6558-12.284-8.4606-11.633-15.934 0.65154-7.473 6.7223-13.317 14.215-13.682 1.5013-0.0733 3.0051 0.0795 4.4609 0.45313l19.256 4.6504c0.28553-1.1124 0.56959-2.2252 0.85938-3.3379l-19.098-5.3027c-7.2543-1.9042-11.988-8.873-11.084-16.318 0.90422-7.4453 7.1688-13.079 14.668-13.191 1.503-0.0226 3.0008 0.18086 4.4434 0.60351l19.074 5.2969c0.34462-1.1752 0.69154-2.3499 1.041-3.5254l-18.9-5.9434c-7.1847-2.1492-11.679-9.2739-10.523-16.684 1.1554-7.4097 7.6056-12.828 15.104-12.688 1.5028 0.0285 2.9927 0.28261 4.4199 0.75391l18.879 5.9356c0.33257-1.0062 0.67552-2.0131 1.0117-3.0195l-18.689-6.5606c-6.8411-2.2942-11.08-9.1339-10.09-16.281 0.98985-7.1474 6.9276-12.577 14.135-12.926 2.0046-0.0971 4.0084 0.20911 5.8926 0.90039l18.68 6.5566c0.45499-1.2376 0.91635-2.475 1.377-3.7129l-18.465-7.1797c-6.7617-2.5203-10.77-9.4984-9.543-16.609s7.3433-12.34 14.559-12.447c2.0061-0.0301 3.9979 0.34245 5.8574 1.0957l18.467 7.1816c0.46674-1.1495 0.93457-2.2995 1.4062-3.4492l-18.223-7.7793c-6.6747-2.7399-10.454-9.8439-8.9961-16.91 1.4582-7.0663 7.741-12.093 14.955-11.967 2.0067 0.0354 3.9858 0.47306 5.8203 1.2871l18.234 7.7832c0.39504-0.8886 0.7895-1.7773 1.1875-2.666l-17.969-8.3438c-6.5876-2.9463-10.144-10.165-8.4648-17.184s8.1164-11.848 15.324-11.494c2.004 0.0984 3.9678 0.59787 5.7754 1.4688l17.986 8.3535c5.4982-11.396 11.253-22.797 17.264-34.199zm473.13 69.021-0.4141 244.9c1.7218-0.36733 3.6726-0.94205 5.4141-1.6387 7.8938 15.35-0.209 24.196 0 35 0 0-16.38 8.8702-31.859 12.967-4.6123 1.2207-9.146 2.0224-13.141 2.0332-29.533 0.0798-55.5-26.394-85-25 0 0 5.6739 7.0919 10.84 15.613 26.604 3.6385 36.977 19.387 59.16 19.387 2.3705 0 4.6717 0.49255 6.8184 1.3594l19.924-7.4785-0.1152 0.64258c52.27-12.886 60.404 14.8 13.373 30.477-2.9808 0.99361-5.8255 1.851-8.041 2.5 45.309 0.32288 44.386 24.242-5.6406 32.682-4.8602 0.81994-9.3892 1.4184-13.594 1.8183l0.1055 3.1504c60.358-2.4568 63.623 25.989 7.9219 32.506l-2.7266 2.3476c48.493-0.3626 49.541 26.362 1.6426 32.652l-3.3555 4.7949c13.875 5.1336 23.688 17.772 23.688 32.549 0 15.64-10.99 28.884-26.633 33.285 13.983 31.05 41.112 77.807 61.633 112.83v-606.07l-0.012-0.49414c-6.5815-4.3634-13.245-8.6331-19.988-12.814zm-100.04 43.84c-63.681 93.401-92.263 173.7-104.22 256.68 16.804 7.0556 35.371 14.397 53.775 20.051-11.659-6.462-19.514-16.106-19.514-32.312 0-21.344 15-50 40-50 8.72 0 18.554 0.64488 29.443 1.6582zm-676.14 177.03-9.6387 19.037 13.621 6.0996-3.668 8.0117-5-2.6191c-3.5802-1.9769-6.4472 3.4976-2.7832 5.3144l10.605 5.5566 8.8203-19.268-13.4-6 4.1113-8.1191c3.4199 1.6976 6.8372 3.3768 10.24 4.9395 4.1016 1.8834 8.1938 3.6189 12.285 5.3262l-4.4609 10.938-6.791 16.674 2.7676 1.1367c6.0161 2.4712 12.036 4.7566 18.062 6.8711 6.287 2.2057 12.59 4.2292 18.922 6.0137l2.8672 0.80664 5.8418-20.162-2.9082-0.82031c-4.9771-1.4028-9.9535-3.0581-14.932-4.7774l2.918-8.3262c4.8406 1.6824 9.678 3.2874 14.512 4.6719 4.6131 1.3213 9.2534 2.441 13.902 3.4961l-2.6309 11.664-3.9414 17.568 2.8887 0.67969c6.4526 1.52 12.926 2.7938 19.42 3.8594 6.8465 1.1234 13.729 2.0179 20.66 2.6465l2.9726 0.26953 2-20.902-3.0039-0.27149c-5.4629-0.49519-10.89-1.2618-16.311-2.1055l1.4297-8.8828c5.2338 0.82999 10.475 1.5715 15.744 2.0664 3.8715 0.36364 7.7573 0.64961 11.658 0.85547 0.91651 0.0484 1.8735 0.0515 2.8086 0.084l-0.40235 11.934-0.5957 18.016 2.959 0.13672c6.1227 0.27953 12.202 0.32399 18.26 0.2207 6.5064 0.21857 14.433-0.84974 20.162-0.94922l3.1699-0.0547-1.5293-21.098-3 0.22852c-5.2578 0.3983-10.501 0.58089-15.744 0.69921v-9.002c5.0168-0.14499 10.037-0.34061 15.084-0.71484 5.6469-0.4187 11.353-1.0666 17.088-1.8066l1.5625 12.098 2.2617 17.863 2.9668-0.36523c6.5821-0.81001 13.183-1.8066 19.809-2.9512 6.2319-1.0765 12.493-2.285 18.807-3.6445l2.9238-0.62891-4.3516-20.543-2.9434 0.63477c-5.07 1.0923-10.075 2.0228-15.07 2.916l-1.5898-9.0469c4.8768-0.83274 9.7726-1.7258 14.725-2.7734 4.7697-1.009 9.6082-2.1478 14.471-3.3223l2.8867 11.758 4.2383 17.518 2.9062-0.69141c6.1192-1.4552 12.3-3.0656 18.531-4.7734 5.7663-1.5803 11.587-3.2469 17.506-5.041l2.8574-0.86719-5.9941-20.125-2.8848 0.875c-4.8026 1.4554-9.4792 2.7643-14.129 4.0332l-2.416-8.7812c4.5878-1.2395 9.2031-2.5202 13.898-3.9082 4.8888-1.4452 9.8658-2.9853 14.869-4.5527l9.5898 30.246 5.709-1.7363-1.8301-5.8828-9.5547-30.131-2.8574 0.90429c-5.9625 1.8873-11.832 3.6859-17.625 5.3984-5.6451 1.6687-11.208 3.2536-16.645 4.6816l-2.9356 0.76953 5.6055 20.371 2.873-0.76367c4.6808-1.2453 9.4705-2.6449 14.289-4.0781l2.5723 8.6309c-4.8682 1.4498-9.7085 2.863-14.484 4.1719-5.2067 1.4269-10.334 2.7254-15.438 3.9746l-2.8223-11.662-4.3106-17.557-2.9199 0.72266c-5.8043 1.4386-11.529 2.7497-17.199 3.9492-5.8915 1.2464-11.709 2.3704-17.424 3.2832l-3.0078 0.48047 3.6758 20.914 2.9453-0.50585c5.0586-0.86906 10.168-1.8926 15.297-2.9609l1.8633 8.8027c-5.2325 1.0904-10.449 2.1345-15.629 3.0293-5.5508 0.95888-11.061 1.7442-16.561 2.4668l-1.502-11.863-2.3301-18.018-3.002 0.41992c-6.6263 0.92784-13.184 1.5998-19.715 2.084-5.9291 0.43962-11.824 0.72464-17.699 0.83985l-2.9414 0.0566v20.975l3.0352-0.0352c5.3869-0.0628 10.769-0.362 16.154-0.71875l0.65039 8.9922c-5.6955 0.29194-11.965 0.93358-16.732 0.76953l-0.0781-2e-3 -0.0781 2e-3c-5.0065 0.0869-10.017-0.0149-15.033-0.1836l0.39649-11.994 0.60937-18.062-3.123 0.0215c-1.8204 0.012-3.6758-0.0679-5.5723-0.16797-3.8193-0.20156-7.6222-0.47996-11.412-0.83594-6.1443-0.57712-12.242-1.3559-18.295-2.4023l-2.9922-0.51758-3.3359 20.752 2.9414 0.49219c5.5477 0.92732 11.129 1.5849 16.725 2.1582l-0.85742 8.9629c-5.7755-0.58939-11.537-1.2742-17.27-2.2148-5.3939-0.88511-10.752-2.0022-16.102-3.1992l2.6191-11.67 3.9414-17.479-2.9727-0.63086c-5.4825-1.1624-10.96-2.5642-16.443-4.1348-5.6827-1.6276-11.348-3.4291-17.008-5.4766l-2.8496-1.0312-6.8926 19.67 2.8086 1.0039c5.0894 1.8169 10.184 3.389 15.283 4.8887l-2.5039 8.6426c-5.2443-1.5391-10.485-3.158-15.725-4.9961-4.9962-1.7529-9.9851-3.6969-14.973-5.6973l4.5039-11.059 5.2812-12.947c0.50942-0.67894 0.70742-1.5419 0.54493-2.375-0.18168-1.4086-1.3262-2.4969-2.7422-2.6074-4.6454-1.9079-9.2962-3.9107-13.961-6.0527-4.2369-1.9455-8.4788-3.9843-12.734-6.1426zm310.93 4.3848-8.5469 2.8496 4.3164 12.949zm105.05 165.31c-0.40019 26.809 0.57394 53.887 2.666 80.92 75.207 32.852 127.53 112.49 127.53 203.51 0 57.227-20.683 109.96-54.734 149.44l2.1816 8.9004c10.688-2.0586 21.49-4.3557 32.34-6.8652 6.2205-1.4388 12.456-2.9467 18.697-4.5196 15.351-3.8688 30.796-7.9093 45.66-12.627 19.678-40.69 30.856-86.571 30.856-134.33 0-131.71-85.022-249.16-205.2-284.43zm45.197 24.434a35 35 0 0 1 35 35 35 35 0 0 1-35 35 35 35 0 0 1-35-35 35 35 0 0 1 35-35zm66.531 59.354a35 35 0 0 1 35 35 35 35 0 0 1-35 35 35 35 0 0 1-35-35 35 35 0 0 1 35-35zm-82.508 66.818c-5.4554 0.07-10.719 2.1233-14.787 5.7949l-2.916 2.5566 3.5117 16.873 9.375-8.2227a7.5008 7.5008 0 0 0 0.0801-0.07c1.4492-1.3079 3.344-1.9976 5.2949-1.9277 3.7664 0.1348 5.8348 2.2158 6.8144 5.0293 0.97967 2.8135 0.65128 5.7308-2.2168 8.1758a7.5008 7.5008 0 0 0-0.0801 0.068l-15.756 13.818 6.1543 29.564 28.98-12.266a7.5008 7.5008 0 0 0 0.0977-0.041c0.84913-0.3737 1.7588-0.5875 2.6856-0.6289 3.6977-0.165 6.8709 2.2748 7.6621 5.8906s-1.0733 7.1581-4.502 8.5527a7.5008 7.5008 0 0 0-0.0977 0.041l-31.711 13.42 4.9531 23.793 35.402-3.9864a7.5008 7.5008 0 0 0 0.10547-0.016c0.2108-0.027 0.42267-0.044 0.63476-0.053 0.2121-0.01 0.42442-0.01 0.63672 0a7.5008 7.5008 0 0 0 4e-3 0c4.006 0.1723 7.0667 3.2827 7.1758 7.291 0.10912 4.0082-2.7788 7.2799-6.7695 7.6699a7.5008 7.5008 0 0 0-0.10938 0.012l-34.01 3.8321 5.8535 28.123 26.885 4.9121a7.5008 7.5008 0 0 0 0.0977 0.02c4.2149 0.7123 6.8973 4.5411 6.1289 8.7461-0.76836 4.205-4.6318 6.8361-8.8262 6.0117a7.5008 7.5008 0 0 0-0.0977-0.019l-20.889-3.8164 3.3008 15.856 14.795 2.7031h2e-3c12.217 2.3999 24.233-5.7869 26.471-18.035 2.2382-12.249-6.1071-24.156-18.385-26.23l-24.207-4.4238 24.451-2.754c11.688-1.1423 20.622-11.268 20.303-23.008-0.3194-11.738-9.7905-21.36-21.521-21.867h-4e-3c-1.2723-0.055-2.5472-1e-4 -3.8106 0.1583l0.10547-0.014-16.041 1.8066 14.826-6.2754c10.098-4.1067 15.834-15.006 13.504-25.654-2.3302-10.649-12.094-18.154-22.984-17.668-2.7783 0.1242-5.511 0.761-8.0566 1.8808-1e-3 6e-4 -3e-3 0-4e-3 0l-20.217 8.5567 16.674-14.625-0.0801 0.068c7.545-6.4319 9.455-16.474 6.6523-24.523s-10.537-14.733-20.445-15.088c-0.3651-0.013-0.73006-0.016-1.0938-0.012zm15.766 169.15-3.2988-15.854-1.2871-0.2344 3.8066 15.945zm-9.1523-43.976-3.0703-14.75-2.3125 0.2597 3.3476 14.719zm-8.0234-38.543-3.1152-14.969-2.125 0.8985 2.9531 15.039zm-9.2695-44.533-3.5117-16.871-0.79297 0.6953 2.9336 17.379zm133.1-33.441a35 35 0 0 1 35 35 35 35 0 0 1-35 35 35 35 0 0 1-35-35 35 35 0 0 1 35-35zm16.691 87.807a35 35 0 0 1 35 35 35 35 0 0 1-35 35 35 35 0 0 1-35-35 35 35 0 0 1 35-35zm-10.885 82.002a35 35 0 0 1 35 35 35 35 0 0 1-35 35 35 35 0 0 1-35-35 35 35 0 0 1 35-35zm-35.559 75.473a35 35 0 0 1 31.703 20.17l-66.676 16.211a35 35 0 0 1-0.027-1.3809 35 35 0 0 1 35-35z" fill="#44f"/>
</g>
<g transform="matrix(.12677 0 0 .1304 -119.38 -167.59)">
<path d="m781.38 206.54c-93.467 0.28887-192.01 7.4532-301.32 23.604l12.885 28.436c185.68-26.785 339.06-27.165 490.93-11.994l9.0644-29.236c-69.232-7.0986-138.86-11.033-211.55-10.809zm237.76 309.5c0.087 1.901 0.4936 4.2599 0.8535 6.7363 6.8826 47.36-5.7167 66.844-22.049 67.002l-45.113 0.75976c-85.718 144.04-119.19 282.99-122.85 420.25-3.9412 147.79 27.571 294.06 69.332 440.08 13.358 2.252 23.033 11.293 24.287 27.539 14.603-0.9374 29.377-2.6912 44.418-5.0664-46.249-157.14-82.077-310.25-78.059-460.96 4.1654-156.2 47.705-311.4 173.9-480.35-14.806-5.4506-29.537-10.606-44.726-15.998zm160.72 111.54c-80.898 108.47-117.5 201.15-132.03 295.88l28.402 12.221c11.458-83.154 40.039-163.46 103.68-256.69zm-692.23 170.79 4.916 37.818c47.641 26.919 92.04 41.459 139 43.938 57.061 3.0113 115.23-10.99 188-35.686l8.3223-34.613c-150.02 52.626-227.01 59.678-340.23-11.457zm569.83 129.52-1.1309 5.7695c-5.4755 52.039 2.977 106.47 19.615 160.7l50.691 75.809c10.366 33.171 21.551 66.615 25.633 97.691 24.429 44.717 50.352 87.051 73.816 125.21 0.831 1.3515 19.52-6.4375 19.52-6.4375-39.167-63.676-84.779-139.16-119.02-216.77-34.969-79.254-58.082-160.72-50.361-234.1zm-57.469 64.098a3.0003 3.0003 0 1 0 0 6h46.141c-0.1776-2.0014-0.3386-4.001-0.4844-6zm-5 12a6.0006 6.0006 0 0 0-6.0078 6.916c3.0919 1.646 6.1556 3.3378 9.1855 5.084h49.973c-0.5374-4.0036-1.0268-8.0039-1.4434-12zm11.551 17c8.9992 5.5659 17.698 11.58 26.082 18h19.234c-1.13-6.0041-2.1403-12.005-3.0176-18zm33.68 24c5.3912 4.3906 10.646 8.9482 15.748 13.676-1.053-4.5589-2.0265-9.1179-2.9453-13.676zm234.76 64c-0.071 4.1731-0.7419 8.1951-1.9316 12h26.945v-12zm-8.5898 25c-3.5387 4.7661-8.0207 8.8394-13.168 12h46.772v-12zm-8.6445 25c2.0274 3.9001 4.1285 7.8876 6.3418 12h35.906v-12zm13.443 25c2.1945 3.9714 4.42 7.9705 6.6875 12h22.117v-12zm14.078 25c2.3126 4.0483 4.5894 8.0174 6.8887 12h7.8379v-12z"/>
</g>
<g transform="matrix(-.12677 0 0 -.1304 45.417 93.214)">
<path d="m781.38 206.54c-93.467 0.28887-192.01 7.4532-301.32 23.604l12.885 28.436c185.68-26.785 339.06-27.165 490.93-11.994l9.0644-29.236c-69.232-7.0986-138.86-11.033-211.55-10.809zm237.76 309.5c0.087 1.901 0.4936 4.2599 0.8535 6.7363 6.8826 47.36-5.7167 66.844-22.049 67.002l-45.113 0.75976c-85.718 144.04-119.19 282.99-122.85 420.25-3.9412 147.79 27.571 294.06 69.332 440.08 13.358 2.252 23.033 11.293 24.287 27.539 14.603-0.9374 29.377-2.6912 44.418-5.0664-46.249-157.14-82.077-310.25-78.059-460.96 4.1654-156.2 47.705-311.4 173.9-480.35-14.806-5.4506-29.537-10.606-44.726-15.998zm160.72 111.54c-80.898 108.47-117.5 201.15-132.03 295.88l28.402 12.221c11.458-83.154 40.039-163.46 103.68-256.69zm-692.23 170.79 4.916 37.818c47.641 26.919 92.04 41.459 139 43.938 57.061 3.0113 115.23-10.99 188-35.686l8.3223-34.613c-150.02 52.626-227.01 59.678-340.23-11.457zm569.83 129.52-1.1309 5.7695c-5.4755 52.039 2.977 106.47 19.615 160.7l50.691 75.809c10.366 33.171 21.551 66.615 25.633 97.691 24.429 44.717 50.352 87.051 73.816 125.21 0.831 1.3515 19.52-6.4375 19.52-6.4375-39.167-63.676-84.779-139.16-119.02-216.77-34.969-79.254-58.082-160.72-50.361-234.1zm-57.469 64.098a3.0003 3.0003 0 1 0 0 6h46.141c-0.1776-2.0014-0.3386-4.001-0.4844-6zm-5 12a6.0006 6.0006 0 0 0-6.0078 6.916c3.0919 1.646 6.1556 3.3378 9.1855 5.084h49.973c-0.5374-4.0036-1.0268-8.0039-1.4434-12zm11.551 17c8.9992 5.5659 17.698 11.58 26.082 18h19.234c-1.13-6.0041-2.1403-12.005-3.0176-18zm33.68 24c5.3912 4.3906 10.646 8.9482 15.748 13.676-1.053-4.5589-2.0265-9.1179-2.9453-13.676zm234.76 64c-0.071 4.1731-0.7419 8.1951-1.9316 12h26.945v-12zm-8.5898 25c-3.5387 4.7661-8.0207 8.8394-13.168 12h46.772v-12zm-8.6445 25c2.0274 3.9001 4.1285 7.8876 6.3418 12h35.906v-12zm13.443 25c2.1945 3.9714 4.42 7.9705 6.6875 12h22.117v-12zm14.078 25c2.3126 4.0483 4.5894 8.0174 6.8887 12h7.8379v-12z"/>
</g>
<g transform="matrix(.12677 0 0 .1304 -119.38 -167.59)">
<path d="m1111.8 709.37c-15.115 28.547-58.036-21.039-94.132-9.8858m40.969-68.423c7.2135 37.085 71.189 51.506 53.163 78.309-33.763 4.0556-57.282-19.012-79.214-46.283 35.448 3.6657 67.081 12.294 79.214 46.283m-53.163-78.309c-5.8388 12.354-11.954 24.744-0.7171 34.886m-40.252 33.537c5.4853-18.041 16.52-20.095 30.473-17.743m106.85-46.579c-16.25 27.916-57.143-23.355-93.659-13.663m43.688-66.721c5.7165 37.345 69.061 54.327 49.971 80.383-33.898 2.6948-56.471-21.3-77.289-49.431 35.272 5.088 66.532 14.981 77.289 49.431m-49.971-80.383c-6.3309 12.109-12.939 24.243-2.1192 34.829m-41.568 31.892c6.2063-17.806 17.677-19.408 31.524-16.497m-14.215 172.47c-10.17 30.658-60.722-11.12-94.468 5.8666m29.051-74.272c13.266 35.375 78.747 38.983 65.417 68.405-32.622 9.6003-59.642-9.2464-85.794-32.501 35.565-2.2656 68.191 0.99567 85.794 32.501m-65.417-68.405c-3.7085 13.152-7.6837 26.384 5.0799 34.522m-34.131 39.75c2.4165-18.701 13.305-22.556 27.455-22.551m36.554 94.343c-8.7949 31.081-61.156-8.4053-94.113 10.067m25.716-75.491c14.827 34.749 80.404 35.438 68.397 65.425-32.162 11.043-59.995-6.5819-87.156-28.649 35.429-3.8467 68.167-2.0412 87.156 28.649m-68.397-65.425c-3.1194 13.304-6.5015 26.7 6.6118 34.261m-32.328 41.23c1.5816-18.79 12.642-22.251 26.778-22.876m129.5-136.31c1.4131-2.4576 2.8478-4.9213 4.3044-7.3913m-6.3704 11.007c0.6834-1.2038 1.3721-2.4091 2.066-3.6159m-6.1469 10.898c1.3393-2.4215 2.6995-4.8487 4.0809-7.2817m-28.714 56.228c7.2949-16.099 15.476-32.391 24.633-48.947m-28.076 56.681c1.1252-2.5734 2.2728-5.1515 3.4432-7.7345m-5.6094 12.748c0.7126-1.6692 1.4347-3.3404 2.1662-5.0134m-5.7791 13.655c1.1766-2.8753 2.3807-5.7558 3.6129-8.642m-24.596 68.889c5.7466-19.923 12.679-39.955 20.983-60.247m-22.877 66.967c0.6166-2.2386 1.2481-4.4784 1.8945-6.7195m-2.2255 7.9261c0.1098-0.40215 0.2202-0.80434 0.331-1.2066m-1.6742 6.2111c0.4396-1.6676 0.8873-3.3357 1.3432-5.0045m-13.344 61.627c3.0708-18.89 7.0182-37.721 12.001-56.623m-61.264 0.19243c-2.2773 9.4332-4.3323 18.848-6.1783 28.251m31.342-109.41c-3.9634 10.41-7.6199 20.776-10.987 31.106m46.756-110.18c-5.2661 10.035-10.223 20.013-14.886 29.94m60.198-106.1c-6.6924 10.066-13.06 20.061-19.117 29.991m65.28-93.992-7.7476 10.168c-2.9713 3.8996-5.8931 7.7876-8.7662 11.664m-14.355 101.93c8.2491-13.731 17.149-27.632 26.743-41.732m-63.796 111.32c5.6574-12.2 11.804-24.501 18.473-36.926m-48.914 115.71c4.5126-14.543 9.6467-29.161 15.465-43.896m-34.173 122.03c2.4606-14.314 5.4222-28.625 8.9462-42.975m-66.39-39.867c-4.254 14.998-7.9523 29.938-11.14 44.834m11.512-46.141c-0.12457 0.43601-0.24868 0.87197-0.37232 1.3079m116.83-239.73c-57.628 82.511-94.415 161.26-116.46 238.43m117.64-240.1c-0.3923 0.5593-0.7836 1.1184-1.174 1.6774m28.804-39.291-2.7366 3.5916c-8.6972 11.415-16.99 22.753-24.894 34.022m62.239 16.191c3.3879-4.5961 6.8479-9.2125 10.381-13.85l12.328-16.18m-70.786 101.67c7.4794-12.385 15.472-24.895 24.009-37.547m-62.375 109.25c5.3135-11.404 11.041-22.888 17.207-34.469m-48.11 113.62c4.1497-13.127 8.7925-26.314 13.971-39.587m-33.364 118.26c2.2787-12.667 4.9456-25.342 8.0397-38.047m-44.733-4.993c-1.6096 6.8009-3.1072 13.592-4.4975 20.376m10.423-43.591c-0.52403 1.9127-1.0388 3.8245-1.5446 5.7354m6.9021-24.262c-0.65358 2.1463-1.2952 4.2913-1.9251 6.4349m14.919-44.988c-2.4566 6.6397-4.793 13.263-7.0133 19.873m17.198-45.82c-1.0698 2.5765-2.121 5.1503-3.1538 7.7214m10.874-25.633c-1.2037 2.6935-2.3867 5.3838-3.5491 8.0711m22.053-46.523c-3.718 7.2093-7.2821 14.393-10.697 21.552m23.123-44.708c-1.1601 2.0808-2.3071 4.1592-3.4412 6.2354m13.367-23.552c-1.5087 2.562-2.9974 5.1203-4.4663 7.6751m27.475-44.647c-4.5092 6.876-8.8714 13.723-13.09 20.543m26.812-40.898c-0.9062 1.3087-1.8071 2.6164-2.7026 3.9229m13.152-18.728c-0.9529 1.3253-1.9003 2.6494-2.8422 3.9724m25.897-34.906-5.2535 6.8949c-2.1939 2.8794-4.3615 5.7532-6.5031 8.6216m20.612 22.561c3.189-4.3171 6.44-8.65 9.754-12.999l10.052-13.192m-68.342 98.33c6.9232-11.424 14.27-22.943 22.063-34.569m-61.709 108.46c5.1173-10.957 10.604-21.982 16.482-33.087m-47.798 112.75c3.8624-12.056 8.1297-24.161 12.832-36.332m-32.627 114.63c2.108-11.219 4.517-22.449 7.252-33.705m-540.98-674.84c209.62-32.235 381.9-32.295 551.27-14.05m-516.69 84.721c185.68-26.785 339.06-27.164 490.93-11.994m-503.81-16.441c194.33-28.712 354.63-29.02 512.88-12.795m-660.2-216.88c88.066 119.42 127.76 182.97 160.37 258.21m619.49-258.05c-91.864 132.48-110.78 184.18-128.79 246.13m-181.73-84.97c-19.024-17.303-31.022-41.607-32.072-76.796-40.156-7.073-49.115-41.908-55-80-5.8848 38.092-14.844 72.927-55 80-1.1996 40.209-16.695 66.205-40.631 83.785m44.385-3.1594c11.81-16.255 20.373-35.914 24.139-58.53 10.572-5.0974 19.751-12.047 27.107-20.062 7.3569 8.0158 16.536 14.965 27.107 20.062 3.4781 20.89 11.049 39.257 21.492 54.749m-235.21 16.357c-43.131-18.068-43.32-51.946-58.388-83.202-40.577 3.3668-92.268-51.557-135.23-95.174m72.27 105.35c13.018 8.554 26.824 15.335 41.965 18.294 4.01 11.515 8.5011 25.021 17.387 39.789 4.4044 7.32 10.158 14.433 17.28 20.992m438.06-18.019c30.883-13.567 48.171-41.047 43.272-91.232 97.247-16.886 106.48-48.579 146.89-75.026m-143.95 170.12c1.2674-1.342 2.5035-2.7295 3.7064-4.164 14.678-17.504 22.485-40.329 23.893-66.652 29.506-7.0102 51.519-15.95 68.803-25.777m-189.34-73.342c-9.7158 74.536-79.277 70.206-82.727 120.03-3.1088 44.892 67.026 49.321 69.861 4.4106 1.9164-30.353-38.03-32.461-39.921-2.5204-0.94514 14.97 24.005 16.545 24.95 1.5752m27.836-123.49c0.26438 75.166 69.818 79.619 66.975 129.48-2.5619 44.927-72.696 40.5-69.861-4.4106 1.9164-30.353 41.811-27.42 39.921 2.5204-0.94514 14.97-25.895 13.395-24.95-1.5752m-327.26-112.82c3.8315 75.032-57.399 81.85-52.19 131.52 4.6939 44.754 66.439 37.943 61.504-6.7856-3.3352-30.23-38.435-25.942-35.145 3.8775 1.6449 14.91 23.611 12.486 21.966-2.4234m3.8648-126.18c12.618 74.063 73.862 67.368 79.605 116.98 5.1755 44.701-56.569 51.514-61.504 6.7856-3.3353-30.23 31.855-33.697 35.145-3.8775 1.6449 14.91-20.321 17.333-21.966 2.4234m236.76 674.19c-150.02 52.626-227.01 59.679-340.24-11.457m10.962 108.08c42.383 19.491 85.215 31.237 129.79 33.59 59.632 3.147 116.44-8.7402 179.43-28.578m-315.27-75.277c47.641 26.919 92.04 41.46 139 43.938 57.061 3.0113 115.23-10.989 188-35.685m-80.071 116.22c21.316-4.3723 42.737-10.027 64.593-16.623m-304.17-4.2592c20.064 8.4516 40.391 15.321 61.072 20.403m84.129-109.92c-10.65-116.53-36.302-227.52-66.01-333.47m148.58 74.871c-30.626 66.529-53.395 133.1-69.236 199.03m93.769-204.52c-42.162 88.288-70 176.6-85.89 263.48m140.33-283.28c-49.052 93.172-80.854 186.23-98.735 277.8m121.11-277.48c-49.415 91.647-81.565 183.01-99.906 273m-70.599-49.243c-12.714-95.465-34.415-186.87-58.877-274.51m4.9061 330.78c-10.955-112.45-36.221-220.51-65.564-324.67m44.999 320.23c-11.257-109.68-36.229-215.59-65.223-318.19m478.93 944.01c-46.286-157.24-81.641-308.36-77.733-454.91 4.0794-152.98 46.234-303.13 173.45-470.09m-125.47 930.18c-46.156-157.08-81.984-310.19-77.966-460.89 4.1654-156.2 47.705-311.4 174.1-480.2m-141.39 50.668c-177.29 304.49-132.89 592.49-53.402 873.32m29.702-5.3039c-41.413-146.03-72.926-292.29-68.985-440.09 3.6604-137.27 37.13-276.21 122.85-420.25m-14.635 273.11c40.722 29.128 103.56 60.243 192.78 93.73m-16.323-258.77c17.446-29.584 38.036-60.075 62.264-91.872l3.0744-4.035m-26.623 10.475c3.7789-5.148 7.6505-10.324 11.617-15.53l14.418-18.923m-103.17 356.97c11.458-83.154 40.04-163.46 103.68-256.69m-132.08 244.47c14.534-94.738 51.133-187.42 132.03-295.89m-160.36-111.2c55.302 18.827 109.27 39.16 160.55 62.545m-1180.4 66.246c78.174-52.796 249.97-114.1 377.21-123.85m548.94 620.11c55.956 31.701 94.156 95.284 94.156 168.55 0 42.658-12.948 82.032-34.81 113.74m10.075 35.695c34.051-39.482 54.735-92.211 54.735-149.44 0-91.02-52.325-170.66-127.53-203.72m209.33 326.05c14.997-38.191 23.198-79.627 23.198-122.33 0-146.98-97.167-278.98-234.21-315.21m173.06 449.61c19.975-40.764 31.152-86.645 31.152-134.4 0-131.71-85.022-249.16-205.12-284.32m156.35-89.916c4.2983 166.28 90.226 322.08 168.75 449.84m-7.0902-244.14c14.721 31.904 43.294 80.848 63.976 116.1m-626.87-257.56a25 20 0 0 0-25-20 25 20 0 0 0-25 20 25 20 0 0 0 25 20 25 20 0 0 0 25-20v0m20 30c75 75 75-135 0-60m30 60s5-5 5-10-5-10-5-20 5-15 5-20-5-10-5-10m-120 60c-75 75-75-135 0-60m-30 60s-5-5-5-10 5-10 5-20-5-15-5-20 5-10 5-10m45 20c-65-65 125-65 60 0m-60-30s5-5 10-5 10 5 20 5 15-5 20-5 10 5 10 5m-60 50c-65 65 125 65 60 0m-60 30s5 5 10 5 10-5 20-5 15 5 20 5 10-5 10-5m-87.004-80 14.107-3e-5m-14.107 80h14.107m-106.84-80 60.881-2e-5m-61.055 20 51.043 2e-5m-51.582 20 49.203 3e-5m-50.107 20h52.486m-53.959 20h63.971m578.86-106.74c-5-5-12.292-28.711 15-30 29.5-1.3937 55.467 25.08 85 25 17.4-0.047 45-15 45-15-0.209-10.804 7.8938-19.65 0-35-25 10-92.951-5-135-5-25 0-40 28.656-40 50 0 45 60.557 39.404 63.461 16.921 1.5394-11.921-18.461-36.921-18.461-36.921m-23.21 51.958c-18.828 76.511 5.2813 118.41 70.504 127.18m8.1299-109.36c-29.579-1.4677-25.423-9.7799-25.423-9.7799 2.2156 29.672-8.808 47.205-25 60m5.9348-104.3c26.509 3.5483 36.882 19.296 59.065 19.296 2.3705 0 4.6708 0.49169 6.8175 1.3585m-5.6245 28.98c-19.995-4.0037-13.582-24.179 16.754-33.418v0c59.932-18.251 71.575 11.571 22.052 28.079-2.9808 0.99361-5.8259 1.8515-8.5361 2.583m-25.922 1.8739c70.612-10.245 79.336 20.846 20.776 30.725-70.95 11.97-71.376-23.384-20.776-30.725v0m-3.9837 36.461c71.04-6.6555 78.179 24.837 19.193 31.738-71.465 8.3611-70.1-26.968-19.193-31.738v0m1.0113 35c63.284-6.6555 69.644 24.837 17.098 31.738-63.664 8.3611-62.448-26.968-17.098-31.738v0m37.431 69.082a37.5 35 0 0 1-37.5 35 37.5 35 0 0 1-37.5-35 37.5 35 0 0 1 37.5-35 37.5 35 0 0 1 37.5 35v0m-85-233.26v-691.74l50-50 50 50v696.54m-280 205.2a35 35 0 0 1-35 35 35 35 0 0 1-35-35 35 35 0 0 1 35-35 35 35 0 0 1 35 35v0m66.531 59.354a35 35 0 0 1-35 35 35 35 0 0 1-35-35 35 35 0 0 1 35-35 35 35 0 0 1 35 35v0m39.913 75.471a35 35 0 0 1-35 35 35 35 0 0 1-35-35 35 35 0 0 1 35-35 35 35 0 0 1 35 35v0m16.691 87.808a35 35 0 0 1-35 35 35 35 0 0 1-35-35 35 35 0 0 1 35-35 35 35 0 0 1 35 35v0m-10.885 82.002a35 35 0 0 1-35 35 35 35 0 0 1-35-35 35 35 0 0 1 35-35 35 35 0 0 1 35 35v0m-105.53 76.854a35 35 0 0 1-0.027-1.3823 35 35 0 0 1 35-35 35 35 0 0 1 31.703 20.171m171-569.65c-1.5437-6.7698-5.4996-25.097-5.9805-37.124-0.5992-14.987 13.59-35.597 13.19-45.588-0.3995-9.9912-21.582-39.128-22.182-54.115-0.5992-14.987 12.192-70.566 11.592-85.553-0.5993-14.987-17.186-54.324-17.785-69.311-0.5993-14.987 17.787-55.789 16.988-75.771-0.799-19.982-17.984-74.307-18.584-89.294-0.5993-14.987 18.186-45.797 17.387-65.78-0.7991-19.982-16.986-49.329-17.585-64.315-0.5992-14.987 3.5977-35.179 3.1982-45.17-0.3996-9.9912-6.3944-34.76-6.7939-44.751-0.3996-9.9912 12.191-70.566 12.191-70.566m9.3417 747.13c-1.5029-6.8057-5.3262-25.131-5.7262-37.146-0.4992-14.992 13.827-35.48 13.494-45.474-0.3328-9.9944-21.32-39.312-21.82-54.304-0.4992-14.992 12.662-70.46 12.162-85.452-0.4992-14.992-16.822-54.47-17.322-69.462-0.4994-14.992 18.158-55.635 17.492-75.624s-17.488-74.459-17.987-89.451c-0.4993-14.992 18.491-45.641 17.825-65.63-0.6658-19.989-16.656-49.473-17.155-64.465s3.8322-35.147 3.4993-45.142c-0.3329-9.9944-6.1623-34.814-6.4951-44.809-0.3328-9.9945 12.662-70.461 12.662-70.461m50 501.99c6.7427 4.1814 13.407 8.4514 19.989 12.815m-85.956 230.28c-1.4536-8.1227-4.033-24.055-4.033-34.829 0-15 15-35 15-45s-20-40-20-55 15-70 15-85-15-55-15-70 20-55 20-75-15-75-15-90 20-45 20-65-15-50-15-65 5-35 5-45-5-35-5-45 15-70 15-70m4.4008 747.21c-1.4652-6.8555-5.1492-25.145-5.4688-37.132-0.3998-14.995 14.062-35.387 13.795-45.384-0.2665-9.9964-21.059-39.453-21.459-54.447s13.129-70.375 12.729-85.37c-0.3998-14.995-16.461-54.581-16.86-69.575s18.527-55.514 17.994-75.506c-0.5331-19.993-16.994-74.574-17.394-89.568s18.793-45.517 18.26-65.51c-0.5331-19.993-16.327-49.582-16.727-64.577s4.0653-35.121 3.7988-45.117c-0.2666-9.9964-5.9312-34.854-6.1977-44.851-0.2666-9.9964 13.129-70.375 13.129-70.375m-77.722 1134.8c24.821 45.434 51.183 88.408 74.943 127.04m-151.27-300.54c-16.638-54.223-25.09-108.66-19.615-160.7l1.1317-5.7703m-558.14-670.01c-82.581 153.25-26.503 165.05-59.327 242.11-14.923 35.033-50 20-41.145-4.2241 12.865-35.194 36.145-20.776 31.145-0.77586-2.0441 8.1764-14.812 12.956-20 10m105.45-249.24c-84.501 155.16-30.248 165.7-60.453 244.24-25 65-64.881 20-56.026-4.2241m132.61-242.09c-86.121 157.14-31.249 167.43-61.589 246.31-25 65-111.09 67.492-90 0 25-80 72.053-58.461 67.053-23.461m100.59-224.77c-87.618 158.98-32.179 169.03-62.641 248.23-10.735 27.912-32.134 41.421-51.388 42.405m130.07-292.51c-89.094 160.78-33.098 170.6-63.68 250.11-10.639 27.662-31.882 39.534-51.152 38.845m130.77-290.64c-90.418 162.39-33.926 172-64.614 251.79-9.2691 24.1-27.734 33.871-46.227 33.185m126.77-286.64c-91.732 163.99-34.75 173.39-65.542 253.45-8.3243 21.643-23.261 29.96-38.705 28.933m120.06-283.83c-92.874 165.38-35.468 174.6-66.351 254.9-8.3169 21.624-22.471 28.459-36.882 25.467m119.04-281.8c-94.013 166.76-36.186 175.8-67.157 256.33-7.433 19.326-19.946 25.749-33.306 23.459m116.14-280.98c-94.962 167.91-36.785 176.8-67.831 257.52-6.9853 18.162-18.542 23.682-31.109 20.734m114.61-279.45c-95.912 169.06-37.387 177.81-68.505 258.71-6.5722 17.088-17.667 21.38-30.07 17.197m114.11-276.85c-96.662 169.97-37.863 178.6-69.039 259.65-5.6307 14.64-14.894 18.894-25.628 15.926m110.2-276.52c-97.414 170.88-38.341 179.39-69.574 260.59-5.6465 14.681-14.965 18.195-25.765 14.061m110.66-275.21c-97.859 171.41-38.624 179.85-69.891 261.15-4.5806 11.91-12.345 15.167-21.843 12.129m106.84-2.1286s-5 85-40 85-35-55-5-55 20 35 0 35c-10 0-6.4865-14.546 5-15m53.125-44.375c-5 45-12.347 97.507-41.131 76.148m54.256-70.523c-3.006 41.773-5.322 80.234-28.732 67.929m41.857-62.304c-5 35-1.2209 70.481-22.76 58.627m35.885-53.002c-5 35 1.664 59.519-19.875 47.665m33-42.04c-3.5632 26.875 3.6868 51.505-17.852 39.651m30.977-34.026c-3.75 21.25 1.25 36.25-15.567 29.79m28.692-24.165c-8.1831 22.652-1.875 17.825-15.949 18.491m29.074-12.866c-4.5895 5.8539-2.6813 12.498-18.678 11.523m-146.32-99.364c1.1697 18.151-5.6625 54.104-38.133 46.06m50.133-37.492c5.9839 22.537-1.2633 65.428-50.133 37.492m62.133-28.924c4.1175 23.47-6.5475 69.02-46.575 35.755m58.575-27.186c-1 12.136-3.9509 57.926-28.87 38.27m40.87-29.702c0 17.841-12.179 71.928-24.039 71.369m141.04-17.801c9.5649 47.328 66.995 11.249 57.594-15m67.406-22.759c2.8736 77.759 85.436 111.76 70 5.5419-10.734-73.859-63.283-43.674-52.43 6.3218 6.0219 27.741 42.258 49.972 37.916 6.1983-4.7791-48.18-21.93-35.412-21.258-21.405 0.7722 16.101 4.8151 20.09 12.061 25.19m-59.77-17.296c9.4991 50.451 22.752 80.219 58.481 68.207m-71.962-63.655c8.5863 56.052 19.886 69.043 46.141 64.476m-59.622-59.924c5.1539 36.467 0.41812 58.26 34.077 56.104m-47.558-51.553c3.4576 25.904 6.0431 42.687 23.924 44.552m-37.406-40c4.9709 23.216 8.7174 50.023 26.379 36.026m71.026-331.03s10 30 10 40-5 23.087-5 27.808c0 4.7209 3.5761 62.232 2.6847 72.192-2.2421 25.054-18.874 100.31-21.319 125.31m18.634-265.31c0 20 60.346 42.78 61.593 80 2.1653 64.64-42.164 37.785-60.23 18.36m0.9111-73.36s41.205 35.058 42.726 55c2.5359 33.259-30.643 17.892-44.289 9.3114m4.2889-41.413s23.36 11.376 25 27.102c2.556 24.502-18.934 14.994-29.439 8.7531m1.9762-25.88c7.463 2.1264 12.463 17.126 12.463 17.126 0.9665 10.742-7.5908 4.8174-14.59 1.6203m1.099 21.897c1.318 36.557 68.491 61.483 68.491 106.48 0 65.462-46.101 41.896-47.592 37.521m-19.58-107.45c2.1726 12.791 52.173 44.926 52.173 74.926 0 39.867-32.401 35.798-35 30m-19.179-84.179c0 10 39.179 34.179 39.179 54.179 0 27.271-27.456 24.286-32.418 23.521m-9.7084-58.316c2.1264 9.7948 27.126 19.795 27.126 37.307 0 27.608-34.927 8.6938-35 7.4877m5-30c4.2713 6.6644 12.855 10 12.816 20-0.0752 19.265-16.078 5.5344-16.995 1.1002m-260.82-161.1s45-35 65-35 55 10 60 10c10 0 10-10 10-10l5 5s-7.9228 10-15 10-45-10-60-10c-12.8 0-65 30-65 30v0m265-20s-25-15-35-15-30.015 12.765-35 12.373c-5.9141-0.46596-10-2.3727-15-12.373l-5 5s10 10 20 10 30-10 35-10 35 10 35 10v0m-90-10v20c0 5.2705-5 10-5 15s30 100 30 105-15 20-20 20c-10 0-15.542-13.768-23.489-13.768-7.9474 0-21.511 8.6835-26.511 8.7685-16.496 0.28039-15.942-24.733 0-25 4.9993-0.0837 10 5 10 5m5 35c-55 2.5394-60.544 24.922-100 32.159-25.561 4.6889-26.812-35.184-10-37.159 9.9316-1.1672 10 17.332 10 17.332 0.28807 0.0457 10-24.663-10-24.048-24.988 0.76934-25.072 52.422 6.0263 51.305 27.387-0.98362 58.974-29.589 103.97-29.589v-10m30 0v10c20 0 35.734 19.841 50 20 23.399 0.26137 41.795-42.496 14.589-41.773-9.9965 0.26537-14.589 11.773-14.589 11.773s7.2287-7.7067 15.049-7.9474c15.886-0.48912-1.4017 32.753-15.049 32.947-9.9001 0.14116-30-25-50-25v0m-80 50v7.2003l5-4.3104-5-2.89v0m110-5v7.6847l-5-2.6847 5-5v0m-105 7.89c10 2.11 22.11-13.169 34.589-13.169s9.5156 5.2792 19.516 5.2792 10-7.9146 20-7.9146 15.895 12.915 25.895 12.915m-75 30c30.388 15.822 50-10 50-20m-165-170c25 0 41.557-28.358 67.053-28.358 30 0 37.947 23.358 47.947 23.358-10 0-36.871 12.035-50.411 11.716-14.996-0.35376-49.589-6.7159-64.589-6.7159v0m166.44-8.2266c25 0 21.8-17.23 47.293-17.518 25.646-0.29027 32.707 17.518 42.707 17.518-10 0-28.877 15.835-42.416 15.515-14.996-0.35376-32.584-15.515-47.584-15.515v0m-194.45 269.9c-11.237 24.879-21.413 49.773-30.573 74.645m0.11182-0.14956c-10.344-49.062-22.414-96.881-35.27-143.49" fill="none" stroke="#44f" stroke-linecap="round" stroke-linejoin="round" stroke-width="6"/>
</g>
<g transform="matrix(-.12677 0 0 -.1304 45.417 93.214)">
<path d="m1111.8 709.37c-15.115 28.547-58.036-21.039-94.132-9.8858m40.969-68.423c7.2135 37.085 71.189 51.506 53.163 78.309-33.763 4.0556-57.282-19.012-79.214-46.283 35.448 3.6657 67.081 12.294 79.214 46.283m-53.163-78.309c-5.8388 12.354-11.954 24.744-0.7171 34.886m-40.252 33.537c5.4853-18.041 16.52-20.095 30.473-17.743m106.85-46.579c-16.25 27.916-57.143-23.355-93.659-13.663m43.688-66.721c5.7165 37.345 69.061 54.327 49.971 80.383-33.898 2.6948-56.471-21.3-77.289-49.431 35.272 5.088 66.532 14.981 77.289 49.431m-49.971-80.383c-6.3309 12.109-12.939 24.243-2.1192 34.829m-41.568 31.892c6.2063-17.806 17.677-19.408 31.524-16.497m-14.215 172.47c-10.17 30.658-60.722-11.12-94.468 5.8666m29.051-74.272c13.266 35.375 78.747 38.983 65.417 68.405-32.622 9.6003-59.642-9.2464-85.794-32.501 35.565-2.2656 68.191 0.99567 85.794 32.501m-65.417-68.405c-3.7085 13.152-7.6837 26.384 5.0799 34.522m-34.131 39.75c2.4165-18.701 13.305-22.556 27.455-22.551m36.554 94.343c-8.7949 31.081-61.156-8.4053-94.113 10.067m25.716-75.491c14.827 34.749 80.404 35.438 68.397 65.425-32.162 11.043-59.995-6.5819-87.156-28.649 35.429-3.8467 68.167-2.0412 87.156 28.649m-68.397-65.425c-3.1194 13.304-6.5015 26.7 6.6118 34.261m-32.328 41.23c1.5816-18.79 12.642-22.251 26.778-22.876m129.5-136.31c1.4131-2.4576 2.8478-4.9213 4.3044-7.3913m-6.3704 11.007c0.6834-1.2038 1.3721-2.4091 2.066-3.6159m-6.1469 10.898c1.3393-2.4215 2.6995-4.8487 4.0809-7.2817m-28.714 56.228c7.2949-16.099 15.476-32.391 24.633-48.947m-28.076 56.681c1.1252-2.5734 2.2728-5.1515 3.4432-7.7345m-5.6094 12.748c0.7126-1.6692 1.4347-3.3404 2.1662-5.0134m-5.7791 13.655c1.1766-2.8753 2.3807-5.7558 3.6129-8.642m-24.596 68.889c5.7466-19.923 12.679-39.955 20.983-60.247m-22.877 66.967c0.6166-2.2386 1.2481-4.4784 1.8945-6.7195m-2.2255 7.9261c0.1098-0.40215 0.2202-0.80434 0.331-1.2066m-1.6742 6.2111c0.4396-1.6676 0.8873-3.3357 1.3432-5.0045m-13.344 61.627c3.0708-18.89 7.0182-37.721 12.001-56.623m-61.264 0.19243c-2.2773 9.4332-4.3323 18.848-6.1783 28.251m31.342-109.41c-3.9634 10.41-7.6199 20.776-10.987 31.106m46.756-110.18c-5.2661 10.035-10.223 20.013-14.886 29.94m60.198-106.1c-6.6924 10.066-13.06 20.061-19.117 29.991m65.28-93.992-7.7476 10.168c-2.9713 3.8996-5.8931 7.7876-8.7662 11.664m-14.355 101.93c8.2491-13.731 17.149-27.632 26.743-41.732m-63.796 111.32c5.6574-12.2 11.804-24.501 18.473-36.926m-48.914 115.71c4.5126-14.543 9.6467-29.161 15.465-43.896m-34.173 122.03c2.4606-14.314 5.4222-28.625 8.9462-42.975m-66.39-39.867c-4.254 14.998-7.9523 29.938-11.14 44.834m11.512-46.141c-0.12457 0.43601-0.24868 0.87197-0.37232 1.3079m116.83-239.73c-57.628 82.511-94.415 161.26-116.46 238.43m117.64-240.1c-0.3923 0.5593-0.7836 1.1184-1.174 1.6774m28.804-39.291-2.7366 3.5916c-8.6972 11.415-16.99 22.753-24.894 34.022m62.239 16.191c3.3879-4.5961 6.8479-9.2125 10.381-13.85l12.328-16.18m-70.786 101.67c7.4794-12.385 15.472-24.895 24.009-37.547m-62.375 109.25c5.3135-11.404 11.041-22.888 17.207-34.469m-48.11 113.62c4.1497-13.127 8.7925-26.314 13.971-39.587m-33.364 118.26c2.2787-12.667 4.9456-25.342 8.0397-38.047m-44.733-4.993c-1.6096 6.8009-3.1072 13.592-4.4975 20.376m10.423-43.591c-0.52403 1.9127-1.0388 3.8245-1.5446 5.7354m6.9021-24.262c-0.65358 2.1463-1.2952 4.2913-1.9251 6.4349m14.919-44.988c-2.4566 6.6397-4.793 13.263-7.0133 19.873m17.198-45.82c-1.0698 2.5765-2.121 5.1503-3.1538 7.7214m10.874-25.633c-1.2037 2.6935-2.3867 5.3838-3.5491 8.0711m22.053-46.523c-3.718 7.2093-7.2821 14.393-10.697 21.552m23.123-44.708c-1.1601 2.0808-2.3071 4.1592-3.4412 6.2354m13.367-23.552c-1.5087 2.562-2.9974 5.1203-4.4663 7.6751m27.475-44.647c-4.5092 6.876-8.8714 13.723-13.09 20.543m26.812-40.898c-0.9062 1.3087-1.8071 2.6164-2.7026 3.9229m13.152-18.728c-0.9529 1.3253-1.9003 2.6494-2.8422 3.9724m25.897-34.906-5.2535 6.8949c-2.1939 2.8794-4.3615 5.7532-6.5031 8.6216m20.612 22.561c3.189-4.3171 6.44-8.65 9.754-12.999l10.052-13.192m-68.342 98.33c6.9232-11.424 14.27-22.943 22.063-34.569m-61.709 108.46c5.1173-10.957 10.604-21.982 16.482-33.087m-47.798 112.75c3.8624-12.056 8.1297-24.161 12.832-36.332m-32.627 114.63c2.108-11.219 4.517-22.449 7.252-33.705m-540.98-674.84c209.62-32.235 381.9-32.295 551.27-14.05m-516.69 84.721c185.68-26.785 339.06-27.164 490.93-11.994m-503.81-16.441c194.33-28.712 354.63-29.02 512.88-12.795m-660.2-216.88c88.066 119.42 127.76 182.97 160.37 258.21m619.49-258.05c-91.864 132.48-110.78 184.18-128.79 246.13m-181.73-84.97c-19.024-17.303-31.022-41.607-32.072-76.796-40.156-7.073-49.115-41.908-55-80-5.8848 38.092-14.844 72.927-55 80-1.1996 40.209-16.695 66.205-40.631 83.785m44.385-3.1594c11.81-16.255 20.373-35.914 24.139-58.53 10.572-5.0974 19.751-12.047 27.107-20.062 7.3569 8.0158 16.536 14.965 27.107 20.062 3.4781 20.89 11.049 39.257 21.492 54.749m-235.21 16.357c-43.131-18.068-43.32-51.946-58.388-83.202-40.577 3.3668-92.268-51.557-135.23-95.174m72.27 105.35c13.018 8.554 26.824 15.335 41.965 18.294 4.01 11.515 8.5011 25.021 17.387 39.789 4.4044 7.32 10.158 14.433 17.28 20.992m438.06-18.019c30.883-13.567 48.171-41.047 43.272-91.232 97.247-16.886 106.48-48.579 146.89-75.026m-143.95 170.12c1.2674-1.342 2.5035-2.7295 3.7064-4.164 14.678-17.504 22.485-40.329 23.893-66.652 29.506-7.0102 51.519-15.95 68.803-25.777m-189.34-73.342c-9.7158 74.536-79.277 70.206-82.727 120.03-3.1088 44.892 67.026 49.321 69.861 4.4106 1.9164-30.353-38.03-32.461-39.921-2.5204-0.94514 14.97 24.005 16.545 24.95 1.5752m27.836-123.49c0.26438 75.166 69.818 79.619 66.975 129.48-2.5619 44.927-72.696 40.5-69.861-4.4106 1.9164-30.353 41.811-27.42 39.921 2.5204-0.94514 14.97-25.895 13.395-24.95-1.5752m-327.26-112.82c3.8315 75.032-57.399 81.85-52.19 131.52 4.6939 44.754 66.439 37.943 61.504-6.7856-3.3352-30.23-38.435-25.942-35.145 3.8775 1.6449 14.91 23.611 12.486 21.966-2.4234m3.8648-126.18c12.618 74.063 73.862 67.368 79.605 116.98 5.1755 44.701-56.569 51.514-61.504 6.7856-3.3353-30.23 31.855-33.697 35.145-3.8775 1.6449 14.91-20.321 17.333-21.966 2.4234m236.76 674.19c-150.02 52.626-227.01 59.679-340.24-11.457m10.962 108.08c42.383 19.491 85.215 31.237 129.79 33.59 59.632 3.147 116.44-8.7402 179.43-28.578m-315.27-75.277c47.641 26.919 92.04 41.46 139 43.938 57.061 3.0113 115.23-10.989 188-35.685m-80.071 116.22c21.316-4.3723 42.737-10.027 64.593-16.623m-304.17-4.2592c20.064 8.4516 40.391 15.321 61.072 20.403m84.129-109.92c-10.65-116.53-36.302-227.52-66.01-333.47m148.58 74.871c-30.626 66.529-53.395 133.1-69.236 199.03m93.769-204.52c-42.162 88.288-70 176.6-85.89 263.48m140.33-283.28c-49.052 93.172-80.854 186.23-98.735 277.8m121.11-277.48c-49.415 91.647-81.565 183.01-99.906 273m-70.599-49.243c-12.714-95.465-34.415-186.87-58.877-274.51m4.9061 330.78c-10.955-112.45-36.221-220.51-65.564-324.67m44.999 320.23c-11.257-109.68-36.229-215.59-65.223-318.19m478.93 944.01c-46.286-157.24-81.641-308.36-77.733-454.91 4.0794-152.98 46.234-303.13 173.45-470.09m-125.47 930.18c-46.156-157.08-81.984-310.19-77.966-460.89 4.1654-156.2 47.705-311.4 174.1-480.2m-141.39 50.668c-177.29 304.49-132.89 592.49-53.402 873.32m29.702-5.3039c-41.413-146.03-72.926-292.29-68.985-440.09 3.6604-137.27 37.13-276.21 122.85-420.25m-14.635 273.11c40.722 29.128 103.56 60.243 192.78 93.73m-16.323-258.77c17.446-29.584 38.036-60.075 62.264-91.872l3.0744-4.035m-26.623 10.475c3.7789-5.148 7.6505-10.324 11.617-15.53l14.418-18.923m-103.17 356.97c11.458-83.154 40.04-163.46 103.68-256.69m-132.08 244.47c14.534-94.738 51.133-187.42 132.03-295.89m-160.36-111.2c55.302 18.827 109.27 39.16 160.55 62.545m-1180.4 66.246c78.174-52.796 249.97-114.1 377.21-123.85m548.94 620.11c55.956 31.701 94.156 95.284 94.156 168.55 0 42.658-12.948 82.032-34.81 113.74m10.075 35.695c34.051-39.482 54.735-92.211 54.735-149.44 0-91.02-52.325-170.66-127.53-203.72m209.33 326.05c14.997-38.191 23.198-79.627 23.198-122.33 0-146.98-97.167-278.98-234.21-315.21m173.06 449.61c19.975-40.764 31.152-86.645 31.152-134.4 0-131.71-85.022-249.16-205.12-284.32m156.35-89.916c4.2983 166.28 90.226 322.08 168.75 449.84m-7.0902-244.14c14.721 31.904 43.294 80.848 63.976 116.1m-626.87-257.56a25 20 0 0 0-25-20 25 20 0 0 0-25 20 25 20 0 0 0 25 20 25 20 0 0 0 25-20v0m20 30c75 75 75-135 0-60m30 60s5-5 5-10-5-10-5-20 5-15 5-20-5-10-5-10m-120 60c-75 75-75-135 0-60m-30 60s-5-5-5-10 5-10 5-20-5-15-5-20 5-10 5-10m45 20c-65-65 125-65 60 0m-60-30s5-5 10-5 10 5 20 5 15-5 20-5 10 5 10 5m-60 50c-65 65 125 65 60 0m-60 30s5 5 10 5 10-5 20-5 15 5 20 5 10-5 10-5m-87.004-80 14.107-3e-5m-14.107 80h14.107m-106.84-80 60.881-2e-5m-61.055 20 51.043 2e-5m-51.582 20 49.203 3e-5m-50.107 20h52.486m-53.959 20h63.971m578.86-106.74c-5-5-12.292-28.711 15-30 29.5-1.3937 55.467 25.08 85 25 17.4-0.047 45-15 45-15-0.209-10.804 7.8938-19.65 0-35-25 10-92.951-5-135-5-25 0-40 28.656-40 50 0 45 60.557 39.404 63.461 16.921 1.5394-11.921-18.461-36.921-18.461-36.921m-23.21 51.958c-18.828 76.511 5.2813 118.41 70.504 127.18m8.1299-109.36c-29.579-1.4677-25.423-9.7799-25.423-9.7799 2.2156 29.672-8.808 47.205-25 60m5.9348-104.3c26.509 3.5483 36.882 19.296 59.065 19.296 2.3705 0 4.6708 0.49169 6.8175 1.3585m-5.6245 28.98c-19.995-4.0037-13.582-24.179 16.754-33.418v0c59.932-18.251 71.575 11.571 22.052 28.079-2.9808 0.99361-5.8259 1.8515-8.5361 2.583m-25.922 1.8739c70.612-10.245 79.336 20.846 20.776 30.725-70.95 11.97-71.376-23.384-20.776-30.725v0m-3.9837 36.461c71.04-6.6555 78.179 24.837 19.193 31.738-71.465 8.3611-70.1-26.968-19.193-31.738v0m1.0113 35c63.284-6.6555 69.644 24.837 17.098 31.738-63.664 8.3611-62.448-26.968-17.098-31.738v0m37.431 69.082a37.5 35 0 0 1-37.5 35 37.5 35 0 0 1-37.5-35 37.5 35 0 0 1 37.5-35 37.5 35 0 0 1 37.5 35v0m-85-233.26v-691.74l50-50 50 50v696.54m-280 205.2a35 35 0 0 1-35 35 35 35 0 0 1-35-35 35 35 0 0 1 35-35 35 35 0 0 1 35 35v0m66.531 59.354a35 35 0 0 1-35 35 35 35 0 0 1-35-35 35 35 0 0 1 35-35 35 35 0 0 1 35 35v0m39.913 75.471a35 35 0 0 1-35 35 35 35 0 0 1-35-35 35 35 0 0 1 35-35 35 35 0 0 1 35 35v0m16.691 87.808a35 35 0 0 1-35 35 35 35 0 0 1-35-35 35 35 0 0 1 35-35 35 35 0 0 1 35 35v0m-10.885 82.002a35 35 0 0 1-35 35 35 35 0 0 1-35-35 35 35 0 0 1 35-35 35 35 0 0 1 35 35v0m-105.53 76.854a35 35 0 0 1-0.027-1.3823 35 35 0 0 1 35-35 35 35 0 0 1 31.703 20.171m171-569.65c-1.5437-6.7698-5.4996-25.097-5.9805-37.124-0.5992-14.987 13.59-35.597 13.19-45.588-0.3995-9.9912-21.582-39.128-22.182-54.115-0.5992-14.987 12.192-70.566 11.592-85.553-0.5993-14.987-17.186-54.324-17.785-69.311-0.5993-14.987 17.787-55.789 16.988-75.771-0.799-19.982-17.984-74.307-18.584-89.294-0.5993-14.987 18.186-45.797 17.387-65.78-0.7991-19.982-16.986-49.329-17.585-64.315-0.5992-14.987 3.5977-35.179 3.1982-45.17-0.3996-9.9912-6.3944-34.76-6.7939-44.751-0.3996-9.9912 12.191-70.566 12.191-70.566m9.3417 747.13c-1.5029-6.8057-5.3262-25.131-5.7262-37.146-0.4992-14.992 13.827-35.48 13.494-45.474-0.3328-9.9944-21.32-39.312-21.82-54.304-0.4992-14.992 12.662-70.46 12.162-85.452-0.4992-14.992-16.822-54.47-17.322-69.462-0.4994-14.992 18.158-55.635 17.492-75.624s-17.488-74.459-17.987-89.451c-0.4993-14.992 18.491-45.641 17.825-65.63-0.6658-19.989-16.656-49.473-17.155-64.465s3.8322-35.147 3.4993-45.142c-0.3329-9.9944-6.1623-34.814-6.4951-44.809-0.3328-9.9945 12.662-70.461 12.662-70.461m50 501.99c6.7427 4.1814 13.407 8.4514 19.989 12.815m-85.956 230.28c-1.4536-8.1227-4.033-24.055-4.033-34.829 0-15 15-35 15-45s-20-40-20-55 15-70 15-85-15-55-15-70 20-55 20-75-15-75-15-90 20-45 20-65-15-50-15-65 5-35 5-45-5-35-5-45 15-70 15-70m4.4008 747.21c-1.4652-6.8555-5.1492-25.145-5.4688-37.132-0.3998-14.995 14.062-35.387 13.795-45.384-0.2665-9.9964-21.059-39.453-21.459-54.447s13.129-70.375 12.729-85.37c-0.3998-14.995-16.461-54.581-16.86-69.575s18.527-55.514 17.994-75.506c-0.5331-19.993-16.994-74.574-17.394-89.568s18.793-45.517 18.26-65.51c-0.5331-19.993-16.327-49.582-16.727-64.577s4.0653-35.121 3.7988-45.117c-0.2666-9.9964-5.9312-34.854-6.1977-44.851-0.2666-9.9964 13.129-70.375 13.129-70.375m-77.722 1134.8c24.821 45.434 51.183 88.408 74.943 127.04m-151.27-300.54c-16.638-54.223-25.09-108.66-19.615-160.7l1.1317-5.7703m-558.14-670.01c-82.581 153.25-26.503 165.05-59.327 242.11-14.923 35.033-50 20-41.145-4.2241 12.865-35.194 36.145-20.776 31.145-0.77586-2.0441 8.1764-14.812 12.956-20 10m105.45-249.24c-84.501 155.16-30.248 165.7-60.453 244.24-25 65-64.881 20-56.026-4.2241m132.61-242.09c-86.121 157.14-31.249 167.43-61.589 246.31-25 65-111.09 67.492-90 0 25-80 72.053-58.461 67.053-23.461m100.59-224.77c-87.618 158.98-32.179 169.03-62.641 248.23-10.735 27.912-32.134 41.421-51.388 42.405m130.07-292.51c-89.094 160.78-33.098 170.6-63.68 250.11-10.639 27.662-31.882 39.534-51.152 38.845m130.77-290.64c-90.418 162.39-33.926 172-64.614 251.79-9.2691 24.1-27.734 33.871-46.227 33.185m126.77-286.64c-91.732 163.99-34.75 173.39-65.542 253.45-8.3243 21.643-23.261 29.96-38.705 28.933m120.06-283.83c-92.874 165.38-35.468 174.6-66.351 254.9-8.3169 21.624-22.471 28.459-36.882 25.467m119.04-281.8c-94.013 166.76-36.186 175.8-67.157 256.33-7.433 19.326-19.946 25.749-33.306 23.459m116.14-280.98c-94.962 167.91-36.785 176.8-67.831 257.52-6.9853 18.162-18.542 23.682-31.109 20.734m114.61-279.45c-95.912 169.06-37.387 177.81-68.505 258.71-6.5722 17.088-17.667 21.38-30.07 17.197m114.11-276.85c-96.662 169.97-37.863 178.6-69.039 259.65-5.6307 14.64-14.894 18.894-25.628 15.926m110.2-276.52c-97.414 170.88-38.341 179.39-69.574 260.59-5.6465 14.681-14.965 18.195-25.765 14.061m110.66-275.21c-97.859 171.41-38.624 179.85-69.891 261.15-4.5806 11.91-12.345 15.167-21.843 12.129m106.84-2.1286s-5 85-40 85-35-55-5-55 20 35 0 35c-10 0-6.4865-14.546 5-15m53.125-44.375c-5 45-12.347 97.507-41.131 76.148m54.256-70.523c-3.006 41.773-5.322 80.234-28.732 67.929m41.857-62.304c-5 35-1.2209 70.481-22.76 58.627m35.885-53.002c-5 35 1.664 59.519-19.875 47.665m33-42.04c-3.5632 26.875 3.6868 51.505-17.852 39.651m30.977-34.026c-3.75 21.25 1.25 36.25-15.567 29.79m28.692-24.165c-8.1831 22.652-1.875 17.825-15.949 18.491m29.074-12.866c-4.5895 5.8539-2.6813 12.498-18.678 11.523m-146.32-99.364c1.1697 18.151-5.6625 54.104-38.133 46.06m50.133-37.492c5.9839 22.537-1.2633 65.428-50.133 37.492m62.133-28.924c4.1175 23.47-6.5475 69.02-46.575 35.755m58.575-27.186c-1 12.136-3.9509 57.926-28.87 38.27m40.87-29.702c0 17.841-12.179 71.928-24.039 71.369m141.04-17.801c9.5649 47.328 66.995 11.249 57.594-15m67.406-22.759c2.8736 77.759 85.436 111.76 70 5.5419-10.734-73.859-63.283-43.674-52.43 6.3218 6.0219 27.741 42.258 49.972 37.916 6.1983-4.7791-48.18-21.93-35.412-21.258-21.405 0.7722 16.101 4.8151 20.09 12.061 25.19m-59.77-17.296c9.4991 50.451 22.752 80.219 58.481 68.207m-71.962-63.655c8.5863 56.052 19.886 69.043 46.141 64.476m-59.622-59.924c5.1539 36.467 0.41812 58.26 34.077 56.104m-47.558-51.553c3.4576 25.904 6.0431 42.687 23.924 44.552m-37.406-40c4.9709 23.216 8.7174 50.023 26.379 36.026m71.026-331.03s10 30 10 40-5 23.087-5 27.808c0 4.7209 3.5761 62.232 2.6847 72.192-2.2421 25.054-18.874 100.31-21.319 125.31m18.634-265.31c0 20 60.346 42.78 61.593 80 2.1653 64.64-42.164 37.785-60.23 18.36m0.9111-73.36s41.205 35.058 42.726 55c2.5359 33.259-30.643 17.892-44.289 9.3114m4.2889-41.413s23.36 11.376 25 27.102c2.556 24.502-18.934 14.994-29.439 8.7531m1.9762-25.88c7.463 2.1264 12.463 17.126 12.463 17.126 0.9665 10.742-7.5908 4.8174-14.59 1.6203m1.099 21.897c1.318 36.557 68.491 61.483 68.491 106.48 0 65.462-46.101 41.896-47.592 37.521m-19.58-107.45c2.1726 12.791 52.173 44.926 52.173 74.926 0 39.867-32.401 35.798-35 30m-19.179-84.179c0 10 39.179 34.179 39.179 54.179 0 27.271-27.456 24.286-32.418 23.521m-9.7084-58.316c2.1264 9.7948 27.126 19.795 27.126 37.307 0 27.608-34.927 8.6938-35 7.4877m5-30c4.2713 6.6644 12.855 10 12.816 20-0.0752 19.265-16.078 5.5344-16.995 1.1002m-260.82-161.1s45-35 65-35 55 10 60 10c10 0 10-10 10-10l5 5s-7.9228 10-15 10-45-10-60-10c-12.8 0-65 30-65 30v0m265-20s-25-15-35-15-30.015 12.765-35 12.373c-5.9141-0.46596-10-2.3727-15-12.373l-5 5s10 10 20 10 30-10 35-10 35 10 35 10v0m-90-10v20c0 5.2705-5 10-5 15s30 100 30 105-15 20-20 20c-10 0-15.542-13.768-23.489-13.768-7.9474 0-21.511 8.6835-26.511 8.7685-16.496 0.28039-15.942-24.733 0-25 4.9993-0.0837 10 5 10 5m5 35c-55 2.5394-60.544 24.922-100 32.159-25.561 4.6889-26.812-35.184-10-37.159 9.9316-1.1672 10 17.332 10 17.332 0.28807 0.0457 10-24.663-10-24.048-24.988 0.76934-25.072 52.422 6.0263 51.305 27.387-0.98362 58.974-29.589 103.97-29.589v-10m30 0v10c20 0 35.734 19.841 50 20 23.399 0.26137 41.795-42.496 14.589-41.773-9.9965 0.26537-14.589 11.773-14.589 11.773s7.2287-7.7067 15.049-7.9474c15.886-0.48912-1.4017 32.753-15.049 32.947-9.9001 0.14116-30-25-50-25v0m-80 50v7.2003l5-4.3104-5-2.89v0m110-5v7.6847l-5-2.6847 5-5v0m-105 7.89c10 2.11 22.11-13.169 34.589-13.169s9.5156 5.2792 19.516 5.2792 10-7.9146 20-7.9146 15.895 12.915 25.895 12.915m-75 30c30.388 15.822 50-10 50-20m-165-170c25 0 41.557-28.358 67.053-28.358 30 0 37.947 23.358 47.947 23.358-10 0-36.871 12.035-50.411 11.716-14.996-0.35376-49.589-6.7159-64.589-6.7159v0m166.44-8.2266c25 0 21.8-17.23 47.293-17.518 25.646-0.29027 32.707 17.518 42.707 17.518-10 0-28.877 15.835-42.416 15.515-14.996-0.35376-32.584-15.515-47.584-15.515v0m-194.45 269.9c-11.237 24.879-21.413 49.773-30.573 74.645m0.11182-0.14956c-10.344-49.062-22.414-96.881-35.27-143.49" fill="none" stroke="#44f" stroke-linecap="round" stroke-linejoin="round" stroke-width="6"/>
</g>
<g transform="matrix(.12677 0 0 .1304 -119.38 -167.59)">
<path d="m1212.6 936.72c0.4232 7.1158 2.9663 10.169 6.5451 11.344m-4.1108 25.195c3.5713 8.6881 9.2098 17.582 0 25m-5.0073 9.5609c3.5713 8.6881 9.2098 17.582 0 25m0.5131 12.459c3.5713 8.6881 9.2098 17.582 0 25m34.494-92.02c2.7794 6.3897 1.183 10.591 0 15m7.4405-50.406c2.7794 6.3897 1.183 10.591 0 15m-10.263 54.53c2.7794 6.3897 1.183 10.591 0 15m-1.5394 20.92c2.7794 6.3897 1.183 10.591 0 15m-13.58-119.04c3.5713 8.6881 9.2098 17.582 0 25m12.941-452.68v-5.3438m0 139.92v-134.57m1e-4 154.25-1e-4 -19.68m1e-4 120.35v-100.67m-1e-4 186.82 1e-4 -25.029m9.9999 48.717v-75.461m-10 74.979v-23.205m10-65.662v-638.74m-10 357.99v-367.99m30 737.86v-707.86m-10 708.4v-718.4m-29.971 160.45v-190.42m0 330v-69.402m0 222.81v-57.742m0 175.44v-117.7m0 130.52v-12.82m-10.029-515.15v-33.039m-495 138.79c6.5828 1.0796 35-45 60-45s35 10 40 20m-79.482 32.838c10.71 8.4812 21.007 16.989 34.743 16.85 18.416-0.18667 36.826-7.6455 45.652-18.066m65.525-14.848c10 0 30-30 45-30s30 10 35 15m0 30c-15.33 12.126-33.906 12.949-55 5m-101.85-34.826c0.53759 2.1622 0.82778 4.4665 0.82778 6.858 0 12.426-7.835 22.5-17.5 22.5s-17.5-10.074-17.5-22.5c0-4.0586 0.83579-7.8662 2.2982-11.154m172.03 4.4367c1.0897 2.9333 1.6997 6.2176 1.6997 9.6851 0 12.426-7.835 22.5-17.5 22.5s-17.5-10.074-17.5-22.5c0-3.1528 0.50436-6.1541 1.415-8.8779" fill="none" stroke="#44f" stroke-linecap="round" stroke-linejoin="round" stroke-width="3"/>
<g transform="matrix(.073861 -.012659 .013024 .071792 495 612)">
<path d="m0-500c100 250 355 400 355 685a150 150 0 0 1-300 0 10 10 0 0 0-20 0c0 200 50 215 95 315h-260c45-100 95-115 95-315a10 10 0 0 0-20 0 150 150 0 0 1-300 0c0-285 255-435 355-685z"/>
</g>
<g transform="matrix(.074715 -.0063536 .0065367 .072623 528 751)">
<path d="m0-500c100 250 355 400 355 685a150 150 0 0 1-300 0 10 10 0 0 0-20 0c0 200 50 215 95 315h-260c45-100 95-115 95-315a10 10 0 0 0-20 0 150 150 0 0 1-300 0c0-285 255-435 355-685z"/>
</g>
<g transform="matrix(.070477 .024933 -.025652 .068504 839 640)">
<path d="m0-500c100 250 355 400 355 685a150 150 0 0 1-300 0 10 10 0 0 0-20 0c0 200 50 215 95 315h-260c45-100 95-115 95-315a10 10 0 0 0-20 0 150 150 0 0 1-300 0c0-285 255-435 355-685z"/>
</g>
<g transform="matrix(.070477 .024933 -.025652 .068504 795 749)">
<path d="m0-500c100 250 355 400 355 685a150 150 0 0 1-300 0 10 10 0 0 0-20 0c0 200 50 215 95 315h-260c45-100 95-115 95-315a10 10 0 0 0-20 0 150 150 0 0 1-300 0c0-285 255-435 355-685z"/>
</g>
</g>
<g transform="matrix(-.12677 0 0 -.1304 45.417 93.214)">
<path d="m1212.6 936.72c0.4232 7.1158 2.9663 10.169 6.5451 11.344m-4.1108 25.195c3.5713 8.6881 9.2098 17.582 0 25m-5.0073 9.5609c3.5713 8.6881 9.2098 17.582 0 25m0.5131 12.459c3.5713 8.6881 9.2098 17.582 0 25m34.494-92.02c2.7794 6.3897 1.183 10.591 0 15m7.4405-50.406c2.7794 6.3897 1.183 10.591 0 15m-10.263 54.53c2.7794 6.3897 1.183 10.591 0 15m-1.5394 20.92c2.7794 6.3897 1.183 10.591 0 15m-13.58-119.04c3.5713 8.6881 9.2098 17.582 0 25m12.941-452.68v-5.3438m0 139.92v-134.57m1e-4 154.25-1e-4 -19.68m1e-4 120.35v-100.67m-1e-4 186.82 1e-4 -25.029m9.9999 48.717v-75.461m-10 74.979v-23.205m10-65.662v-638.74m-10 357.99v-367.99m30 737.86v-707.86m-10 708.4v-718.4m-29.971 160.45v-190.42m0 330v-69.402m0 222.81v-57.742m0 175.44v-117.7m0 130.52v-12.82m-10.029-515.15v-33.039m-495 138.79c6.5828 1.0796 35-45 60-45s35 10 40 20m-79.482 32.838c10.71 8.4812 21.007 16.989 34.743 16.85 18.416-0.18667 36.826-7.6455 45.652-18.066m65.525-14.848c10 0 30-30 45-30s30 10 35 15m0 30c-15.33 12.126-33.906 12.949-55 5m-101.85-34.826c0.53759 2.1622 0.82778 4.4665 0.82778 6.858 0 12.426-7.835 22.5-17.5 22.5s-17.5-10.074-17.5-22.5c0-4.0586 0.83579-7.8662 2.2982-11.154m172.03 4.4367c1.0897 2.9333 1.6997 6.2176 1.6997 9.6851 0 12.426-7.835 22.5-17.5 22.5s-17.5-10.074-17.5-22.5c0-3.1528 0.50436-6.1541 1.415-8.8779" fill="none" stroke="#44f" stroke-linecap="round" stroke-linejoin="round" stroke-width="3"/>
<g transform="matrix(.073861 -.012659 .013024 .071792 495 612)">
<path d="m0-500c100 250 355 400 355 685a150 150 0 0 1-300 0 10 10 0 0 0-20 0c0 200 50 215 95 315h-260c45-100 95-115 95-315a10 10 0 0 0-20 0 150 150 0 0 1-300 0c0-285 255-435 355-685z"/>
</g>
<g transform="matrix(.074715 -.0063536 .0065367 .072623 528 751)">
<path d="m0-500c100 250 355 400 355 685a150 150 0 0 1-300 0 10 10 0 0 0-20 0c0 200 50 215 95 315h-260c45-100 95-115 95-315a10 10 0 0 0-20 0 150 150 0 0 1-300 0c0-285 255-435 355-685z"/>
</g>
<g transform="matrix(.070477 .024933 -.025652 .068504 839 640)">
<path d="m0-500c100 250 355 400 355 685a150 150 0 0 1-300 0 10 10 0 0 0-20 0c0 200 50 215 95 315h-260c45-100 95-115 95-315a10 10 0 0 0-20 0 150 150 0 0 1-300 0c0-285 255-435 355-685z"/>
</g>
<g transform="matrix(.070477 .024933 -.025652 .068504 795 749)">
<path d="m0-500c100 250 355 400 355 685a150 150 0 0 1-300 0 10 10 0 0 0-20 0c0 200 50 215 95 315h-260c45-100 95-115 95-315a10 10 0 0 0-20 0 150 150 0 0 1-300 0c0-285 255-435 355-685z"/>
</g>
</g>
</svg>
