<?xml version="1.0" encoding="UTF-8"?>
<svg width="100%" height="100%" version="1.1" viewBox="-120 -168 165.58 261.58" xmlns="http://www.w3.org/2000/svg">
<g transform="matrix(.12677 0 0 .1304 -119.61 -167.61)">
<path d="m426.28 0c36.472 61.814 68.481 122.79 83.719 190 220-50 290 135 490 75-6.1477-107.7 56.115-197.84 111.96-265zm873.72 80-80 80 0.459 444.09c29.157 15.313 56.88 32.778 79.541 49.828zm-569.58 480-18.43 16.26c-74.361 65.612-115.84 79.924-204.67 102.39l18.443 129.41c94.826-23.706 169.09-49.275 253.07-118.06h83.006c-36.783 78.647-60.018 153.33-73.578 225h-260.58l-0.42187 25h256.63c-28.004 175.12 0.23259 332.48 26.881 486.04 48.286-3.559 94.945-5.651 84.227 43.955l122.1-48.678c-89.076-265.3-178.63-449.21 8.7128-763l58.697-98.32zm330.37 88.537-15.328 25.766c108.82 68.979 172.62 150.48 209.09 262.35l27.664-11.848c-38.808-116.69-108.33-204.49-221.43-276.26zm-23.232 39.332-11.072 19.893c4.5725 14.621-28.113 34.818-9.7012 47.174 20.48 13.743 35.304-2.5163 53.209-19.936-14.905 20.047-30.697 38.701-10 55 19.435 16.731 36.52-2.1956 54.984-19.021-15.551 19.55-29.984 39.022-17.594 56.48 12.792 18.024 38.141-0.88906 60.228-12.559-19.949 15.036-45.281 28.286-32.619 50.1 12.547 21.614 39.189 10.789 62.537 1.9062-21.636 12.486-43.37 25.91-32.537 48.094 10.372 21.24 33.238 11.174 57.703 6.125-23.926 7.6891-52.165 19.089-29.303 51.672l23.113-14.098c-20.714 4.573-16.857-10.761-3.6641-12.783 39.846-6.1073 26.337-27.503 33.894-34.344-11.755-0.39965-13.638-25.329-49.328-6.5879-19.721 7.8156-18.359-7.9364-5.6562-12.035 38.364-12.379 21.618-31.349 27.988-39.307-11.669 1.4788-17.5-22.831-48.672 0.21289-17.542 9.0213-18.114-6.7802-6.0078-12.4 36.563-16.974 17.624-33.755 22.975-42.432-11.401 2.8935-20.159-20.522-49.209 7.4258-15.481 14.503-19.988-0.65194-9.6738-9.123 31.152-25.584 8.6163-37.091 11.625-46.83-10.314 5.6546-24.654-14.825-45.785 19.504-15 15-20 4e-4 -9.9668-8.8027 30.301-26.587 7.4004-37.353 10.09-47.186-10.124 5.9881-25.123-14.012-45.123 20.988-13.466 16.391-19.904 1.9506-10.777-7.7891 19.814-21.145 13.065-31.474 8.3418-39.342zm262.44 337.63c-115.92 49.919-199.87 115.64-251.29 246.27l-3.1601 9.8496c-14.171 6.3701-28.659 12.529-43.289 18.348 12.185 35.715 25.427 73.478 37.932 111.09 79.026-34.51 160.32-78.752 259.81-144.45z" fill="#fc4"/>
</g>
<g transform="matrix(-.12677 0 0 -.1304 45.195 93.194)">
<path d="m426.28 0c36.472 61.814 68.481 122.79 83.719 190 220-50 290 135 490 75-6.1477-107.7 56.115-197.84 111.96-265zm873.72 80-80 80 0.459 444.09c29.157 15.313 56.88 32.778 79.541 49.828zm-569.58 480-18.43 16.26c-74.361 65.612-115.84 79.924-204.67 102.39l18.443 129.41c94.826-23.706 169.09-49.275 253.07-118.06h83.006c-36.783 78.647-60.018 153.33-73.578 225h-260.58l-0.42187 25h256.63c-28.004 175.12 0.23259 332.48 26.881 486.04 48.286-3.559 94.945-5.651 84.227 43.955l122.1-48.678c-89.076-265.3-178.63-449.21 8.7128-763l58.697-98.32zm330.37 88.537-15.328 25.766c108.82 68.979 172.62 150.48 209.09 262.35l27.664-11.848c-38.808-116.69-108.33-204.49-221.43-276.26zm-23.232 39.332-11.072 19.893c4.5725 14.621-28.113 34.818-9.7012 47.174 20.48 13.743 35.304-2.5163 53.209-19.936-14.905 20.047-30.697 38.701-10 55 19.435 16.731 36.52-2.1956 54.984-19.021-15.551 19.55-29.984 39.022-17.594 56.48 12.792 18.024 38.141-0.88906 60.228-12.559-19.949 15.036-45.281 28.286-32.619 50.1 12.547 21.614 39.189 10.789 62.537 1.9062-21.636 12.486-43.37 25.91-32.537 48.094 10.372 21.24 33.238 11.174 57.703 6.125-23.926 7.6891-52.165 19.089-29.303 51.672l23.113-14.098c-20.714 4.573-16.857-10.761-3.6641-12.783 39.846-6.1073 26.337-27.503 33.894-34.344-11.755-0.39965-13.638-25.329-49.328-6.5879-19.721 7.8156-18.359-7.9364-5.6562-12.035 38.364-12.379 21.618-31.349 27.988-39.307-11.669 1.4788-17.5-22.831-48.672 0.21289-17.542 9.0213-18.114-6.7802-6.0078-12.4 36.563-16.974 17.624-33.755 22.975-42.432-11.401 2.8935-20.159-20.522-49.209 7.4258-15.481 14.503-19.988-0.65194-9.6738-9.123 31.152-25.584 8.6163-37.091 11.625-46.83-10.314 5.6546-24.654-14.825-45.785 19.504-15 15-20 4e-4 -9.9668-8.8027 30.301-26.587 7.4004-37.353 10.09-47.186-10.124 5.9881-25.123-14.012-45.123 20.988-13.466 16.391-19.904 1.9506-10.777-7.7891 19.814-21.145 13.065-31.474 8.3418-39.342zm262.44 337.63c-115.92 49.919-199.87 115.64-251.29 246.27l-3.1601 9.8496c-14.171 6.3701-28.659 12.529-43.289 18.348 12.185 35.715 25.427 73.478 37.932 111.09 79.026-34.51 160.32-78.752 259.81-144.45z" fill="#fc4"/>
</g>
<g transform="matrix(.12677 0 0 .1304 -119.61 -167.61)">
<path d="m750.06 71.416c-8.0898 7.0578-17.813 12.834-28.66 16.604-5.0802 17.498-12.873 32.766-23.09 45.496-57.344-8.4665-118.21-13.386-182.87-7.3105-0.23353-1.2834-1.0363-2.5605-1.7988-3.8438-8.7609-14.744-13.228-28.237-17.213-39.74-10.56-2.0872-20.469-6.1235-29.678-10.008 18.853 38.806 34.08 76.969 43.244 117.39 220-50 290 135 490 75-3.1033-54.365 11.226-104.26 33.283-148.73-7.2955 1.614-15.012 2.782-23.283 3.7266-2.7462 15.659-7.5914 29.77-15.182 42.076-62.438 13.153-131.21 0.63488-208.17-13.49-7.4402-15.904-12.004-34.04-12.789-53.951-9.6118-6.3491-17.653-14.366-23.801-23.219zm549.94 65.154-40 39.998 1.2617 450.93c14.241 8.9067 27.212 17.772 38.738 26.432zm-186.94 426.56-7.0898 9.6816-58.697 98.32zm-88.004 26.094c-8.7637 0.25357-24.385 4.4268-26.291 0.76172-1.8105 3.0259-2.7676 6.4855-2.7676 10.012 0 10.221 7.8934 18.709 18.088 19.449-2.5656-4.9335 19.251-23.801 16.686-28.734-0.6353-1.2217-2.7936-1.5728-5.7148-1.4883zm-279.5 0.76172c-4.469 3.7046-7.0547 9.2069-7.0547 15.012 0 10.77 8.7304 19.5 19.5 19.5s19.5-8.7304 19.5-19.5c0-5.8011-2.5828-11.301-7.0469-15.006zm80.713 0c-1.8105 3.0259-2.7676 6.4855-2.7676 10.012 0 10.77 8.7304 19.5 19.5 19.5s19.5-8.7304 19.5-19.5c0-3.5258-0.9555-6.9861-2.7656-10.012zm87.5 0c-1.8105 3.0259-2.7676 6.4855-2.7676 10.012 0 10.77 8.7304 19.5 19.5 19.5s19.5-8.7304 19.5-19.5c0-3.5258-0.9555-6.9861-2.7656-10.012zm-225.77 45.512c-0.65843 0-1.3156 0.033-1.9707 0.0996l-15.439 10.615c-1.3745 2.7242-2.0898 5.7339-2.0898 8.7852 0 10.77 8.7304 19.5 19.5 19.5s19.5-8.7304 19.5-19.5-8.7304-19.5-19.5-19.5zm282.5 20c-10.77 0-19.5 8.7304-19.5 19.5s8.7304 19.5 19.5 19.5c0.21902 0 0.43736-5e-3 0.65625-0.0117l16.129-29.414c-3.5091-5.9343-9.891-9.5742-16.785-9.5742zm-354.58 20.221-18.264 7.2422c-2.6941 3.4338-4.1582 7.6726-4.1582 12.037 0 10.77 8.7304 19.5 19.5 19.5s19.5-8.7304 19.5-19.5c0-9.6409-7.0462-17.834-16.578-19.279zm162.91 14.279c-83.981 68.784-158.25 94.352-254.42 119.03l290.47 0.77343c12.361-39.083 27.827-78.908 46.953-119.8zm-240.04 11.379-19.949 5.2129c-3.4302 3.6218-5.3418 8.4198-5.3418 13.408 0 10.77 8.7304 19.5 19.5 19.5s19.5-8.7304 19.5-19.5c0-8.5391-5.5551-16.085-13.709-18.621zm391.71 29.121c-10.77 0-19.5 8.7304-19.5 19.5s8.7304 19.5 19.5 19.5c1.8519 0 3.6952-0.26356 5.4727-0.7832l12.021-27.332c-3.2819-6.6642-10.066-10.885-17.494-10.885zm-30 80c-10.77 0-19.5 8.7304-19.5 19.5s8.7304 19.5 19.5 19.5c2.4727 0 4.9237-0.47122 7.2207-1.3867l9.0566-28.85c-3.6086-5.471-9.7235-8.7637-16.277-8.7637zm73.379 13.072c-30.287 84.62-37.401 159.34-31.172 232.31 4.0451 47.383 14.005 94.266 27.809 143.32 35.467-73.406 82.796-130.26 138.2-174.98l-6.2129-20.652c-25.453-89.086-50.378-129.39-128.62-180zm323.73 121.93-9.2754 3.7363 11.668 28.965v-26.762zm-97.826 46.551-8.6874 4.9531 36.732 64.4 8.6855-4.9551zm100.22 61.957-21.389 8.584 10.578 22.262 10.81-4.8379zm-191.68 2.7285-7.4141 6.7109 49.477 54.662 7.4141-6.709zm127.69 28.525-31.816 20.629 14.1 19.81 30.053-19.373zm-67.186 49.303-26.365 26.894 18.51 16.033 24.316-25.082zm-133.65 3.5547-5.5878 8.293 61.828 41.656 5.5879-8.293zm77.92 62.129-17.738 30.244 21.824 11.578 16.644-28.375zm-129.35 32.91-3.7695 9.2617 69.168 28.16 3.7715-9.2617z" fill="#f00"/>
</g>
<g transform="matrix(-.12677 0 0 -.1304 45.195 93.194)">
<path d="m750.06 71.416c-8.0898 7.0578-17.813 12.834-28.66 16.604-5.0802 17.498-12.873 32.766-23.09 45.496-57.344-8.4665-118.21-13.386-182.87-7.3105-0.23353-1.2834-1.0363-2.5605-1.7988-3.8438-8.7609-14.744-13.228-28.237-17.213-39.74-10.56-2.0872-20.469-6.1235-29.678-10.008 18.853 38.806 34.08 76.969 43.244 117.39 220-50 290 135 490 75-3.1033-54.365 11.226-104.26 33.283-148.73-7.2955 1.614-15.012 2.782-23.283 3.7266-2.7462 15.659-7.5914 29.77-15.182 42.076-62.438 13.153-131.21 0.63488-208.17-13.49-7.4402-15.904-12.004-34.04-12.789-53.951-9.6118-6.3491-17.653-14.366-23.801-23.219zm549.94 65.154-40 39.998 1.2617 450.93c14.241 8.9067 27.212 17.772 38.738 26.432zm-186.94 426.56-7.0898 9.6816-58.697 98.32zm-88.004 26.094c-8.7637 0.25357-24.385 4.4268-26.291 0.76172-1.8105 3.0259-2.7676 6.4855-2.7676 10.012 0 10.221 7.8934 18.709 18.088 19.449-2.5656-4.9335 19.251-23.801 16.686-28.734-0.6353-1.2217-2.7936-1.5728-5.7148-1.4883zm-279.5 0.76172c-4.469 3.7046-7.0547 9.2069-7.0547 15.012 0 10.77 8.7304 19.5 19.5 19.5s19.5-8.7304 19.5-19.5c0-5.8011-2.5828-11.301-7.0469-15.006zm80.713 0c-1.8105 3.0259-2.7676 6.4855-2.7676 10.012 0 10.77 8.7304 19.5 19.5 19.5s19.5-8.7304 19.5-19.5c0-3.5258-0.9555-6.9861-2.7656-10.012zm87.5 0c-1.8105 3.0259-2.7676 6.4855-2.7676 10.012 0 10.77 8.7304 19.5 19.5 19.5s19.5-8.7304 19.5-19.5c0-3.5258-0.9555-6.9861-2.7656-10.012zm-225.77 45.512c-0.65843 0-1.3156 0.033-1.9707 0.0996l-15.439 10.615c-1.3745 2.7242-2.0898 5.7339-2.0898 8.7852 0 10.77 8.7304 19.5 19.5 19.5s19.5-8.7304 19.5-19.5-8.7304-19.5-19.5-19.5zm282.5 20c-10.77 0-19.5 8.7304-19.5 19.5s8.7304 19.5 19.5 19.5c0.21902 0 0.43736-5e-3 0.65625-0.0117l16.129-29.414c-3.5091-5.9343-9.891-9.5742-16.785-9.5742zm-354.58 20.221-18.264 7.2422c-2.6941 3.4338-4.1582 7.6726-4.1582 12.037 0 10.77 8.7304 19.5 19.5 19.5s19.5-8.7304 19.5-19.5c0-9.6409-7.0462-17.834-16.578-19.279zm162.91 14.279c-83.981 68.784-158.25 94.352-254.42 119.03l290.47 0.77343c12.361-39.083 27.827-78.908 46.953-119.8zm-240.04 11.379-19.949 5.2129c-3.4302 3.6218-5.3418 8.4198-5.3418 13.408 0 10.77 8.7304 19.5 19.5 19.5s19.5-8.7304 19.5-19.5c0-8.5391-5.5551-16.085-13.709-18.621zm391.71 29.121c-10.77 0-19.5 8.7304-19.5 19.5s8.7304 19.5 19.5 19.5c1.8519 0 3.6952-0.26356 5.4727-0.7832l12.021-27.332c-3.2819-6.6642-10.066-10.885-17.494-10.885zm-30 80c-10.77 0-19.5 8.7304-19.5 19.5s8.7304 19.5 19.5 19.5c2.4727 0 4.9237-0.47122 7.2207-1.3867l9.0566-28.85c-3.6086-5.471-9.7235-8.7637-16.277-8.7637zm73.379 13.072c-30.287 84.62-37.401 159.34-31.172 232.31 4.0451 47.383 14.005 94.266 27.809 143.32 35.467-73.406 82.796-130.26 138.2-174.98l-6.2129-20.652c-25.453-89.086-50.378-129.39-128.62-180zm323.73 121.93-9.2754 3.7363 11.668 28.965v-26.762zm-97.826 46.551-8.6874 4.9531 36.732 64.4 8.6855-4.9551zm100.22 61.957-21.389 8.584 10.578 22.262 10.81-4.8379zm-191.68 2.7285-7.4141 6.7109 49.477 54.662 7.4141-6.709zm127.69 28.525-31.816 20.629 14.1 19.81 30.053-19.373zm-67.186 49.303-26.365 26.894 18.51 16.033 24.316-25.082zm-133.65 3.5547-5.5878 8.293 61.828 41.656 5.5879-8.293zm77.92 62.129-17.738 30.244 21.824 11.578 16.644-28.375zm-129.35 32.91-3.7695 9.2617 69.168 28.16 3.7715-9.2617z" fill="#f00"/>
</g>
<g transform="matrix(.12677 0 0 .1304 -119.61 -167.61)">
<path d="m600 445c-40 0-85-35-85-35v-15c40 15 30 45 85 50m-75-235-5 15s45-5 55-5c30 0 60 45 95 45-35 0-65-55-95.29-56.161-9.9927-0.38305-13.614 9.4194-33.614 9.4194-4.714 0-16.096-8.2584-16.096-8.2584zm49.667 73.061a11.249 20.385 0 0 1-11.249 20.385 11.249 20.385 0 0 1-11.249-20.385 11.249 20.385 0 0 1 11.249-20.385 11.249 20.385 0 0 1 11.249 20.385zm-85.658 289.64 133.64 3.8248c19.965 0.52183 52.342-5.558 72.988-38.356 8.8216 11.653 21.897 16.73 35.872 16.969l-1.087 4.8636-18.43 16.26c-74.361 65.612-115.84 79.924-204.95 102.13-5.8357-35.709-11.98-70.798-18.034-105.69zm310.99 32.302c0 23.196-18.804 42-42 42-29.839 0.63699-35.202-40.062-49.393-28.596 13.214 7.4409 21.393 21.428 21.393 36.596 0 23.196-18.804 42-42 42-20.928 0-38.655-15.406-41.584-36.119-1.7829 0.98077-3.5653 1.9358-5.3496 2.877 8.8669 7.9655 13.934 19.322 13.934 31.242 0 23.196-18.804 42-42 42-17.875 0-33.131-11.171-39.195-26.908 0.78282 3.2237 1.1953 6.547 1.1953 9.9082 0 23.196-18.804 42-42 42-5.1569 0-10.269-0.94888-15.082-2.8008l2.2168 19.344c96.262-24.137 164.26-47.608 247.79-118.54h142.39c-156.79 297.28-107.91 528.86-68.797 765.25 30.599 0.3778 51.772 10.196 52.529 40.46l95.313-32.769c-74.332-196.57-139.02-358.16-88.234-560.95-0.21045 0.00294-0.42039 0.00586-0.63086 0.00586-23.196 0-42-18.804-42-42s18.804-42 42-42c8.8036 0 17.383 2.7682 24.527 7.9082 0.51273-1.3631 1.0296-2.7266 1.5527-4.0938-21.577-2.0221-38.08-20.133-38.08-41.814 0-23.196 18.804-42 42-42 10.39 0 20.407 3.8535 28.121 10.809 0.51029-1.0343 1.019-2.0687 1.5352-3.1055-18.613-4.7299-31.656-21.486-31.656-40.703 0-23.196 18.804-42 42-42 10.667 0 20.933 4.0584 28.717 11.352 0.28021-0.4708 0.5526-0.93884 0.834-1.4102l1.9023-3.1856c-17.014-5.7976-28.453-21.781-28.453-39.756 0-3.37 0.40653-6.7269 1.209-10h-3.418c0.80242 3.273 1.209 6.63 1.209 10 0 23.196-18.804 42-42 42s-42-18.804-42-42c0-3.37 0.40653-6.7269 1.209-10h-5.918c0.80242 3.273 1.209 6.63 1.209 10 0 23.196-18.804 42-42 42s-42-18.804-42-42c0-3.37 0.40653-6.7269 1.209-10-9.2003-1.2074-2.2615 7.4676-2.209 15zm175.1-15 55.566 1.6543 0.9883-1.6543zm23.632 172.9c94.583 60.402 136.9 120.76 165.9 221.53l18.766-11.634c-22.862-32.583 5.3761-43.982 29.302-51.671-24.465 5.049-47.331 15.115-57.702-6.1255-10.832-22.184 10.9-35.609 32.536-48.095-23.348 8.8832-49.99 19.709-62.536-1.9054-12.662-21.813 12.67-35.063 32.619-50.099-22.087 11.67-47.437 30.582-60.229 12.558-12.39-17.459 2.043-36.93 17.594-56.48-18.464 16.826-35.549 35.752-54.984 19.021-20.697-16.299-4.9048-34.953 10-55-17.906 17.419-32.729 33.679-53.208 19.936-18.412-12.355 14.274-32.553 9.7014-47.174m228.07 228.89c-36.465-111.86-100.27-193.37-209.09-262.35l-7.9036 13.568c4.7228 7.8682 11.471 18.196-8.3426 39.341-9.1264 9.7396-2.6874 24.18 10.778 7.7891 20-35 35-15 45.124-20.988-2.6894 9.8324 20.21 20.598-10.091 47.185-10.033 8.8031-5.0328 23.803 9.9672 8.8031 21.131-34.329 35.471-13.85 45.785-19.505-3.0087 9.7394 19.527 21.246-11.625 46.831-10.315 8.4711-5.8067 23.626 9.6747 9.1236 29.05-27.948 37.808-4.5324 49.209-7.426-5.3504 8.6766 13.588 25.457-22.975 42.431-12.106 5.6202-11.535 21.421 6.0078 12.4 31.172-23.044 37.003 1.2668 48.672-0.21194-6.3705 7.9578 10.376 26.927-27.988 39.306-12.702 4.0988-14.066 19.851 5.6553 12.036 35.69-18.741 37.573 6.188 49.328 6.5876-7.5572 6.8409 5.9522 28.236-33.894 34.343-13.193 2.0222-17.049 17.356 3.6651 12.783zm-111.8 62.202-1.791-6.2696c-27.634-96.72-63.334-149.57-152.4-206.62l-14.645 37.859c78.203 50.361 103.13 90.662 128.58 179.75l5.9889 20.963" fill="#44f"/>
</g>
<g transform="matrix(-.12677 0 0 -.1304 45.195 93.194)">
<path d="m600 445c-40 0-85-35-85-35v-15c40 15 30 45 85 50m-75-235-5 15s45-5 55-5c30 0 60 45 95 45-35 0-65-55-95.29-56.161-9.9927-0.38305-13.614 9.4194-33.614 9.4194-4.714 0-16.096-8.2584-16.096-8.2584zm49.667 73.061a11.249 20.385 0 0 1-11.249 20.385 11.249 20.385 0 0 1-11.249-20.385 11.249 20.385 0 0 1 11.249-20.385 11.249 20.385 0 0 1 11.249 20.385zm-85.658 289.64 133.64 3.8248c19.965 0.52183 52.342-5.558 72.988-38.356 8.8216 11.653 21.897 16.73 35.872 16.969l-1.087 4.8636-18.43 16.26c-74.361 65.612-115.84 79.924-204.95 102.13-5.8357-35.709-11.98-70.798-18.034-105.69zm310.99 32.302c0 23.196-18.804 42-42 42-29.839 0.63699-35.202-40.062-49.393-28.596 13.214 7.4409 21.393 21.428 21.393 36.596 0 23.196-18.804 42-42 42-20.928 0-38.655-15.406-41.584-36.119-1.7829 0.98077-3.5653 1.9358-5.3496 2.877 8.8669 7.9655 13.934 19.322 13.934 31.242 0 23.196-18.804 42-42 42-17.875 0-33.131-11.171-39.195-26.908 0.78282 3.2237 1.1953 6.547 1.1953 9.9082 0 23.196-18.804 42-42 42-5.1569 0-10.269-0.94888-15.082-2.8008l2.2168 19.344c96.262-24.137 164.26-47.608 247.79-118.54h142.39c-156.79 297.28-107.91 528.86-68.797 765.25 30.599 0.3778 51.772 10.196 52.529 40.46l95.313-32.769c-74.332-196.57-139.02-358.16-88.234-560.95-0.21045 0.00294-0.42039 0.00586-0.63086 0.00586-23.196 0-42-18.804-42-42s18.804-42 42-42c8.8036 0 17.383 2.7682 24.527 7.9082 0.51273-1.3631 1.0296-2.7266 1.5527-4.0938-21.577-2.0221-38.08-20.133-38.08-41.814 0-23.196 18.804-42 42-42 10.39 0 20.407 3.8535 28.121 10.809 0.51029-1.0343 1.019-2.0687 1.5352-3.1055-18.613-4.7299-31.656-21.486-31.656-40.703 0-23.196 18.804-42 42-42 10.667 0 20.933 4.0584 28.717 11.352 0.28021-0.4708 0.5526-0.93884 0.834-1.4102l1.9023-3.1856c-17.014-5.7976-28.453-21.781-28.453-39.756 0-3.37 0.40653-6.7269 1.209-10h-3.418c0.80242 3.273 1.209 6.63 1.209 10 0 23.196-18.804 42-42 42s-42-18.804-42-42c0-3.37 0.40653-6.7269 1.209-10h-5.918c0.80242 3.273 1.209 6.63 1.209 10 0 23.196-18.804 42-42 42s-42-18.804-42-42c0-3.37 0.40653-6.7269 1.209-10-9.2003-1.2074-2.2615 7.4676-2.209 15zm175.1-15 55.566 1.6543 0.9883-1.6543zm23.632 172.9c94.583 60.402 136.9 120.76 165.9 221.53l18.766-11.634c-22.862-32.583 5.3761-43.982 29.302-51.671-24.465 5.049-47.331 15.115-57.702-6.1255-10.832-22.184 10.9-35.609 32.536-48.095-23.348 8.8832-49.99 19.709-62.536-1.9054-12.662-21.813 12.67-35.063 32.619-50.099-22.087 11.67-47.437 30.582-60.229 12.558-12.39-17.459 2.043-36.93 17.594-56.48-18.464 16.826-35.549 35.752-54.984 19.021-20.697-16.299-4.9048-34.953 10-55-17.906 17.419-32.729 33.679-53.208 19.936-18.412-12.355 14.274-32.553 9.7014-47.174m228.07 228.89c-36.465-111.86-100.27-193.37-209.09-262.35l-7.9036 13.568c4.7228 7.8682 11.471 18.196-8.3426 39.341-9.1264 9.7396-2.6874 24.18 10.778 7.7891 20-35 35-15 45.124-20.988-2.6894 9.8324 20.21 20.598-10.091 47.185-10.033 8.8031-5.0328 23.803 9.9672 8.8031 21.131-34.329 35.471-13.85 45.785-19.505-3.0087 9.7394 19.527 21.246-11.625 46.831-10.315 8.4711-5.8067 23.626 9.6747 9.1236 29.05-27.948 37.808-4.5324 49.209-7.426-5.3504 8.6766 13.588 25.457-22.975 42.431-12.106 5.6202-11.535 21.421 6.0078 12.4 31.172-23.044 37.003 1.2668 48.672-0.21194-6.3705 7.9578 10.376 26.927-27.988 39.306-12.702 4.0988-14.066 19.851 5.6553 12.036 35.69-18.741 37.573 6.188 49.328 6.5876-7.5572 6.8409 5.9522 28.236-33.894 34.343-13.193 2.0222-17.049 17.356 3.6651 12.783zm-111.8 62.202-1.791-6.2696c-27.634-96.72-63.334-149.57-152.4-206.62l-14.645 37.859c78.203 50.361 103.13 90.662 128.58 179.75l5.9889 20.963" fill="#44f"/>
</g>
<g transform="matrix(.12677 0 0 .1304 -119.61 -167.61)">
<path d="m1084.5 560-58.697 98.32c-187.34 313.8-97.789 497.7-8.7128 763l23.092-10.266-57.762-175.51c64.447-156.06 179.24-235.87 317.57-291.1v-26.828c-138.02 53.795-258.33 132.84-329.17 282.39l0.79493 2.7089-1.4199-4.3144c-13.491-48.251-23.451-95.135-27.496-142.52-9.6878-113.48 12.898-231.2 104.57-384.74l58.697-98.32-29.781 49.916c108.5 68.997 180.94 154.62 223.81 263.29v-232.1c-52.113-39.226-130.67-80.473-187.98-91.012l-0.064 0.10742zm-864.51 65c-38.243 16.869-50.73 39.82-50.184 65.85-13.29-0.34787-27.534 4.8113-43.621 20.596 2.9453-9.9043 3.4181-20.66 3.8047-31.445-38.312 16.899-50.776 39.903-50.182 65.99-9.1507 0.74028-18.788 4.2844-29.186 12.215 3.4427-10.384 3.9575-21.776 4.3672-33.205-38.537 16.999-50.922 40.174-50.17 66.451-1.5943 0.20849-3.2042 0.51147-4.8301 0.90235v13.449c6.4551-0.82275 13.029-0.95336 22.26-0.58593-9.0491 2.6214-15.422 4.4627-22.26 5.7988v13.971c15.197 7.2e-4 32.097-6.1185 51.395-20.848-11.463-5.7884-22.95-11.437-35.184-12.781 13.191-5.0902 21.793-11.762 27.439-19.451 22.217 12.236 47.947 11.85 80.484-12.984-10.803-5.4551-21.628-10.784-33.078-12.506 19.825-7.6117 29.328-18.781 34.014-31.607 23.028 14.305 49.765 15.292 84.064-10.887-9.7351-4.9158-19.487-9.734-29.699-11.9 17.505-6.371 27.302-15.398 32.848-25.889 22.528 13.014 48.645 13.135 81.852-12.211-23.778-12.007-47.654-23.446-78.109 3.0566 3.0903-10.052 3.581-20.998 3.9746-31.979zm-15 25c-9.2946 18.589-14.428 24.37-31.143 41.131-0.4679-0.0505-0.93611-0.10298-1.4062-0.14063 13.07-21.403 18.434-26.875 32.549-40.99zm52.279 4.8066c2.3771 0.0159 4.9278 0.0822 7.7207 0.19336-19.154 5.5485-26.54 7.6064-51.529 8.7305 0.20119-0.43709 0.38211-0.88071 0.57032-1.3223 19.619-5.6529 27.964-7.704 43.238-7.6016zm-85 50c2.3771 0.0159 4.9278 0.0822 7.7207 0.19336-19.935 5.7747-27.006 7.7753-54.58 8.8691 0.0526-0.15236 0.0952-0.30813 0.14649-0.46094 22.238-6.4382 30.551-8.71 46.713-8.6016zm-57.279 0.19336c-9.2414 18.483-14.365 24.3-30.852 40.84-0.53525-7e-3 -1.0729-8e-5 -1.6113 0.0117 13.008-21.287 18.378-26.767 32.463-40.852zm-75 45c-9.2873 18.575-14.418 24.362-31.102 41.092-0.52079 0.0215-1.0445 0.0601-1.5684 0.0996 13.161-21.572 18.511-27.032 32.67-41.191zm47.279 9.8066c2.3771 0.0159 4.9278 0.0822 7.7207 0.19336-18.542 5.3712-26.021 7.4738-49.139 8.623 0.41889-0.68737 0.81398-1.383 1.1934-2.084 17.576-5.0206 25.721-6.8297 40.225-6.7324zm435.8 50.193 4.6074 105h260.64l26.547-105zm467.71 71.871-2.3047 9.4629c-13.936 57.217-16.337 109.64-11.896 161.65 0.99746 11.684 2.4145 23.387 4.166 35.131l2.1191 14.211 8.6152-11.498c21.298-28.422 44.77-53.825 69.992-76.621l2.7832-2.5156-1.043-3.6055c-17.22-59.464-30.254-90.3-65.016-119.9zm7.127 22.383c26.414 25.135 37.62 51.977 52.734 103.69-21.305 19.517-41.323 40.982-59.904 64.463-0.85527-6.8316-1.6215-13.647-2.2012-20.438-4.0873-47.877-2.1436-95.767 9.3711-147.71z"/>
</g>
<g transform="matrix(-.12677 0 0 -.1304 45.195 93.194)">
<path d="m1084.5 560-58.697 98.32c-187.34 313.8-97.789 497.7-8.7128 763l23.092-10.266-57.762-175.51c64.447-156.06 179.24-235.87 317.57-291.1v-26.828c-138.02 53.795-258.33 132.84-329.17 282.39l0.79493 2.7089-1.4199-4.3144c-13.491-48.251-23.451-95.135-27.496-142.52-9.6878-113.48 12.898-231.2 104.57-384.74l58.697-98.32-29.781 49.916c108.5 68.997 180.94 154.62 223.81 263.29v-232.1c-52.113-39.226-130.67-80.473-187.98-91.012l-0.064 0.10742zm-864.51 65c-38.243 16.869-50.73 39.82-50.184 65.85-13.29-0.34787-27.534 4.8113-43.621 20.596 2.9453-9.9043 3.4181-20.66 3.8047-31.445-38.312 16.899-50.776 39.903-50.182 65.99-9.1507 0.74028-18.788 4.2844-29.186 12.215 3.4427-10.384 3.9575-21.776 4.3672-33.205-38.537 16.999-50.922 40.174-50.17 66.451-1.5943 0.20849-3.2042 0.51147-4.8301 0.90235v13.449c6.4551-0.82275 13.029-0.95336 22.26-0.58593-9.0491 2.6214-15.422 4.4627-22.26 5.7988v13.971c15.197 7.2e-4 32.097-6.1185 51.395-20.848-11.463-5.7884-22.95-11.437-35.184-12.781 13.191-5.0902 21.793-11.762 27.439-19.451 22.217 12.236 47.947 11.85 80.484-12.984-10.803-5.4551-21.628-10.784-33.078-12.506 19.825-7.6117 29.328-18.781 34.014-31.607 23.028 14.305 49.765 15.292 84.064-10.887-9.7351-4.9158-19.487-9.734-29.699-11.9 17.505-6.371 27.302-15.398 32.848-25.889 22.528 13.014 48.645 13.135 81.852-12.211-23.778-12.007-47.654-23.446-78.109 3.0566 3.0903-10.052 3.581-20.998 3.9746-31.979zm-15 25c-9.2946 18.589-14.428 24.37-31.143 41.131-0.4679-0.0505-0.93611-0.10298-1.4062-0.14063 13.07-21.403 18.434-26.875 32.549-40.99zm52.279 4.8066c2.3771 0.0159 4.9278 0.0822 7.7207 0.19336-19.154 5.5485-26.54 7.6064-51.529 8.7305 0.20119-0.43709 0.38211-0.88071 0.57032-1.3223 19.619-5.6529 27.964-7.704 43.238-7.6016zm-85 50c2.3771 0.0159 4.9278 0.0822 7.7207 0.19336-19.935 5.7747-27.006 7.7753-54.58 8.8691 0.0526-0.15236 0.0952-0.30813 0.14649-0.46094 22.238-6.4382 30.551-8.71 46.713-8.6016zm-57.279 0.19336c-9.2414 18.483-14.365 24.3-30.852 40.84-0.53525-7e-3 -1.0729-8e-5 -1.6113 0.0117 13.008-21.287 18.378-26.767 32.463-40.852zm-75 45c-9.2873 18.575-14.418 24.362-31.102 41.092-0.52079 0.0215-1.0445 0.0601-1.5684 0.0996 13.161-21.572 18.511-27.032 32.67-41.191zm47.279 9.8066c2.3771 0.0159 4.9278 0.0822 7.7207 0.19336-18.542 5.3712-26.021 7.4738-49.139 8.623 0.41889-0.68737 0.81398-1.383 1.1934-2.084 17.576-5.0206 25.721-6.8297 40.225-6.7324zm435.8 50.193 4.6074 105h260.64l26.547-105zm467.71 71.871-2.3047 9.4629c-13.936 57.217-16.337 109.64-11.896 161.65 0.99746 11.684 2.4145 23.387 4.166 35.131l2.1191 14.211 8.6152-11.498c21.298-28.422 44.77-53.825 69.992-76.621l2.7832-2.5156-1.043-3.6055c-17.22-59.464-30.254-90.3-65.016-119.9zm7.127 22.383c26.414 25.135 37.62 51.977 52.734 103.69-21.305 19.517-41.323 40.982-59.904 64.463-0.85527-6.8316-1.6215-13.647-2.2012-20.438-4.0873-47.877-2.1436-95.767 9.3711-147.71z"/>
</g>
<g transform="matrix(.12677 0 0 .1304 -119.61 -167.61)">
<path d="m1205 261.18v97.637m-15-106.69v115.74m-15-17.561v29.996m0-89.9-1e-4 39.187m1e-4 -89.9v29.996m-15 98.684v27.984m0-98.002 1e-4 23.289m-1e-4 -98.002v27.984m-15 54.246v8.2539m-624.87 464.42c96.262-24.137 164.26-47.608 247.79-118.54h142.39c-156.79 297.28-107.91 528.86-68.797 765.25m-315.76-617.2c94.826-23.706 169.09-49.275 253.07-118.06h83.006c-131.85 281.9-89.778 512.98-51.069 736.05m178.59 6.9c-100.11-264.75-182.73-466.04 10.685-790l31.607-52.941h-289.89l-9.9219 8.7559c-78.349 69.132-127.85 86.374-220.13 109.72m505.38 712.84c-89.076-265.3-178.63-449.21 8.7136-763l58.697-98.32h-354.08l-18.43 16.26c-74.361 65.612-115.84 79.924-204.67 102.39m-81.032-678.65c36.471 61.813 68.471 122.79 83.709 189.99 220-50 290 135 490 75-6.148-107.7 56.123-197.85 111.97-265.02m-497.21 0.050091c16.729 41.378 55.947 49.645 55.581 90.028-0.4078 44.997-60.979 44.224-60.335-0.77015 0.43526-30.41 34.906-29.556 34.477 0.44009-0.2147 14.998-21.763 14.723-21.548-0.27505m-23.838-89.411c-17.95 40.75-57.256 48.057-58.045 88.366-0.88018 44.991 59.691 45.764 60.335 0.77015 0.43527-30.41-34.048-30.436-34.477-0.44008-0.21468 14.998 21.333 15.273 21.548 0.27505m321.54-85.605c-3.9583 75.052 63.504 83.571 57.94 133.18-5.0137 44.699-73.043 36.172-67.764-8.495 3.568-30.189 42.241-24.924 38.722 4.8543-1.7597 14.889-25.961 11.855-24.201-3.0339m-4.6969-126.5c-13.639 73.838-81.115 65.441-87.268 114.97-5.5443 44.633 62.485 53.162 67.764 8.4949 3.568-30.189-35.203-34.632-38.722-4.8542-1.7597 14.889 22.442 17.923 24.201 3.0339m-384.09 3.7463c218.12-28.804 388.12 71.196 523.72 27.791m-20.193 5.3282c6.9973-12.153 11.843-26.264 14.589-41.923 8.2712-0.94453 15.987-2.113 23.204-3.4749m-81.716 50.849c19.219-13.488 30.892-37.153 31.903-75.195 30.425-1.5484 52.501-5.644 69.805-11.195m-586.68-9.7286c9.446 5.2415 19.354 9.2789 29.914 11.366 3.9848 11.503 8.4519 24.997 17.213 39.74 0.76253 1.2833 1.5656 2.5601 2.4093 3.8285m36.573-2.2972c-21.41-18.821-24.134-45.134-35.9-69.788-25.03 2.1919-54.551-18.946-83.546-45.789m265.62 125.38c9.7232-12.91 17.517-28.178 22.597-45.676 10.847-3.7691 20.57-9.5462 28.66-16.604 6.1475 8.8532 14.187 16.87 23.799 23.219 0.78534 19.912 5.3494 38.047 12.742 53.992m-29.511-148.58c-9.9796 32.89-23.918 60.708-60.003 62.635-4.6294 30.514-16.392 51.692-33.043 66.459m160.49 26.228c-15.847-19.385-24.211-44.729-21.012-79.264-34.671-10.876-41.411-41.52-43.145-76.067m-760.25 733.24c160.74-106.14 273.82-156.13 405.76-201.72m678.62 28.435c58.556 0 155.05 48.393 215.61 93.996m-239.32-5.4586c113.1 71.77 182.62 159.57 221.42 276.26m-236.75-250.5c108.82 68.979 172.63 150.49 209.09 262.35m45.512-50.46c-42.857-108.75-115.33-194.42-223.9-263.39m-77.436 140.1c94.583 60.402 136.9 120.76 165.9 221.53m-176.07-198.47c89.063 57.044 124.76 109.9 152.4 206.62l1.791 6.2696m-168.83-175.03c78.203 50.361 103.13 90.662 128.58 179.75l5.9889 20.963m-63.124 257.06 3.3378-9.8242c51.421-130.62 135.35-196.34 251.25-246.26m-145.87 202.44c35.812-56.212 81.928-90.805 145.81-120.77m-186.53 142.25c42.764-84.642 101.83-131.07 186.52-169.54m-222.02 186.69c47.687-111.38 119.45-168.57 222.01-213.9m-329.05 147.32c70.84-149.54 191.12-228.61 329.13-282.41m-318.22 319.59c64.317-157.15 179.43-237.32 318.25-292.75m-297.72 355.7c108.1-44.364 209.47-97.716 297.74-168.6m-329.82 66.854c-13.491-48.251-23.451-95.134-27.496-142.52-9.6878-113.48 12.898-231.2 104.57-384.74l58.697-98.32 7.0893-9.682m-73.17 847.47c-19.667-59.873-42.017-121.3-58.398-173.96m-458.42-426.65 291.8 1e-5m-287.19 105 260.64-2e-5m-261.07 25 256.7-2e-5m329.14 260.25 20.73 13.447m8.6319-52.237 18.51 16.033m7.8545-42.927 16.461 17.846m18.908-46.52 14.1 19.81m17.716-40.438 12.336 21.066m30.262-43.735 10.579 22.262m-193.83 145.64 21.824 11.578m102.81-638.21v-443.87l80-80m-40 546.75v-450.18l40-39.999m-80.018 216.09c-41.482 13.341-73.395 53.011-99.982 107.34-1.436-40.363-8.3056-82.087 20-115-16.063-8.5106-30.68-9.4632-50-35 19.32-25.537 33.937-26.489 50-35-28.306-32.913-21.436-74.637-20-115 26.587 54.325 58.5 93.995 99.982 107.34m-71.681 144.1c0.056-3.197 0.1942-6.2751 0.4412-9.2238 1.32-15.756 4.7198-26.855 14.004-37.65l24.494-28.482-33.195-17.588c-8.6379-4.5766-14.026-6.531-18.703-8.4902 4.6771-1.9593 10.065-3.9136 18.703-8.4902l33.195-17.588-24.494-28.482c-9.2841-10.795-12.684-21.895-14.004-37.65-0.247-2.9487-0.385-6.0268-0.4412-9.2238m-28.301-48.565c-80.254 116.73-51.746 210.79 0 300m-411.44 158.38a42 42 0 0 1 21.441 36.624v0a42 42 0 0 1-42 42 42 42 0 0 1-41.598-36.205m39.627-25.195a19.5 19.5 0 0 1 1.9715-0.09992 19.5 19.5 0 0 1 19.5 19.5 19.5 19.5 0 0 1-19.5 19.5 19.5 19.5 0 0 1-19.5-19.5 19.5 19.5 0 0 1 2.0906-8.7842m126.64-56.219a42 42 0 0 1 2.7714 15.003 42 42 0 0 1-42 42 42 42 0 0 1-41.436-35.143m53.89-21.863a19.5 19.5 0 0 1 7.0468 15.005 19.5 19.5 0 0 1-19.5 19.5 19.5 19.5 0 0 1-19.5-19.5 19.5 19.5 0 0 1 7.0551-15.012m138.23 2e-3a42 42 0 0 1 1.2104 10.01 42 42 0 0 1-42 42 42 42 0 0 1-42-42 42 42 0 0 1 1.2109-10.012m57.523 1e-3a19.5 19.5 0 0 1 2.7661 10.011 19.5 19.5 0 0 1-19.5 19.5 19.5 19.5 0 0 1-19.5-19.5 19.5 19.5 0 0 1 2.7667-10.012m145.02 2e-3a42 42 0 0 1 1.2104 10.01 42 42 0 0 1-42 42 42 42 0 0 1-42-42 42 42 0 0 1 1.2109-10.012m57.523 1e-3a19.5 19.5 0 0 1 2.7661 10.011 19.5 19.5 0 0 1-19.5 19.5 19.5 19.5 0 0 1-19.5-19.5 19.5 19.5 0 0 1 2.7667-10.012m88.194 49.77a42 42 0 0 1-28.461-39.758 42 42 0 0 1 1.2109-10.012m39.376 29.461a19.5 19.5 0 0 1-18.087-19.449 19.5 19.5 0 0 1 2.7667-10.012m-38.473 125.75a42 42 0 0 1-31.794-40.741 42 42 0 0 1 42-42 42 42 0 0 1 28.739 11.372m-28.082 50.117a19.5 19.5 0 0 1-0.65691 0.01107 19.5 19.5 0 0 1-19.5-19.5 19.5 19.5 0 0 1 19.5-19.5 19.5 19.5 0 0 1 16.785 9.5746m-60.62 126.75a42 42 0 0 1-38.165-41.825 42 42 0 0 1 42-42 42 42 0 0 1 28.229 10.901m-22.757 49.815a19.5 19.5 0 0 1-5.4717 0.78343 19.5 19.5 0 0 1-19.5-19.5 19.5 19.5 0 0 1 19.5-19.5 19.5 19.5 0 0 1 17.494 10.885m-46.757 130.61a42 42 0 0 1-0.73694 0.00647 42 42 0 0 1-42-42 42 42 0 0 1 42-42 42 42 0 0 1 24.636 7.9845m-17.416 52.13a19.5 19.5 0 0 1-7.2198 1.3858 19.5 19.5 0 0 1-19.5-19.5 19.5 19.5 0 0 1 19.5-19.5 19.5 19.5 0 0 1 16.278 8.7632m-275.73-155.53a42 42 0 0 1 13.957 31.266 42 42 0 0 1-42 42 42 42 0 0 1-42-42 42 42 0 0 1 0.10369-2.9495m44.819-16.33a19.5 19.5 0 0 1 16.577 19.28 19.5 19.5 0 0 1-19.5 19.5 19.5 19.5 0 0 1-19.5-19.5 19.5 19.5 0 0 1 4.1583-12.037m-31.952 10.687a42 42 0 0 1 9.2938 26.35 42 42 0 0 1-42 42 42 42 0 0 1-15.083-2.8016m20.873-57.819a19.5 19.5 0 0 1 13.71 18.62 19.5 19.5 0 0 1-19.5 19.5 19.5 19.5 0 0 1-19.5-19.5 19.5 19.5 0 0 1 5.3419-13.409m276.32-460.18c-53.58 131.4 4.8413 175.8 4.8413 253.59 0 55-115 90-115 0 0-55 75-55 75-10 0 35-62.765 44.891-60 10 3.0519-38.508 47.487-19.355 35-5m47.517-254.27c-57.74 135.6-2.0327 172.16-2.0327 251.06 0 55-85.484 58.21-80.484 8.2102m70-265c-61.788 140.32-10 175-10 255m47.997-238.18c-49.812 127.23 7.0031 171.47 7.0031 248.18 0 30.823-36.118 55.365-67.872 55.144m73.919-298.24c-46.347 123.34 8.9523 167.42 8.9523 243.1 0 30.823-36.118 55.365-67.872 55.144m72.195-293.56c-43.221 119.79 10.677 163.7 10.677 238.42 0 30.823-36.118 55.365-67.872 55.144m70.62-289.1c-40.307 116.44 12.252 160.18 12.252 233.96 0 30.823-36.118 55.365-67.872 55.144m69.335-285.33c-37.884 113.62 13.536 157.2 13.536 230.18 0 30.823-36.118 55.365-67.872 55.144m68.334-282.28c-35.962 111.35 14.537 154.81 14.537 227.13 0 30.823-36.118 55.365-67.872 55.144m67.609-280c-34.548 109.67 15.263 153.03 15.263 224.86 0 30.823-36.118 55.365-67.872 55.144m67.155-278.55c-33.654 108.6 15.717 151.89 15.717 223.4 0 30.823-36.118 55.365-67.872 55.144m66.972-277.96c-33.291 108.17 15.9 151.43 15.9 222.81 0 30.823-36.118 55.365-67.872 55.144m67.066-278.26c-33.479 108.4 15.805 151.67 15.805 223.12 0 30.823-36.118 55.365-67.872 55.144m67.455-279.51c-34.245 109.31 15.417 152.64 15.417 224.37 0 30.823-36.118 55.365-67.872 55.144m68.162-281.74c-35.626 110.96 14.71 154.39 14.71 226.59 0 30.823-36.118 55.365-67.872 55.144m69.225-284.99c-37.673 113.37 13.647 156.94 13.647 229.85 0 30.823-36.118 55.365-67.872 55.144m70.742-289.46c-40.536 116.7 12.13 160.46 12.13 234.31 0 30.823-36.118 55.365-67.872 55.144m-422.13-22.366c-54.204 65.727-115 47.222-115 7.2222s65-45 65-5c0 30-45 25-45 5 0-10 0-10 5-15m70 9.4444c-25.083 26.791-49.177 31.341-67.463 18.093m107.46-20.315c-20 40-57.915 45.684-79.403 45.122m99.403-43.455c-20 40-55.863 43.196-77.35 42.634m97.35-41.523c-20 40-55.863 42.085-77.35 41.523m97.35-43.19c-20 40-55.863 43.752-77.35 43.19m97.35-44.857c-20 40-55.863 45.418-77.35 44.857m97.35-45.968c-20 40-55.863 46.529-77.35 45.968m97.35-45.412c-20 40-55.863 45.974-77.35 45.412m97.35-46.523c-20 40-55.863 47.085-77.35 46.523m92.873-38.511c-20.53 32.953-52.907 39.032-72.873 38.511m-104.82-387.7c-2.9414 12.082-7.8273 32.678-7.8273 36.173 0 5 15 20 15 25s-25 30-35 45-25 60-25 70-5 20 10 20 20 15 20 15l-10 15 10 25s-1.8377 13.675-5 20c-5 10 20 15 20 20s-20.437 15.019-20 20c3.9077 44.548-24.383 56.24-25 50m70-200c15 0 10 40-10 30-30-15-45 5-15-5m105 35c2.2048-6.0631 7.3834-10 15-10 25 0 10 45-30 45s-85-35-85-35v-15c40 15 30 45 85 50m-105-5c20 0 40 5 60 20-22.925-16.544-40-35-70-45m40-205-5 15s45-5 55-5c30 0 60 45 95 45-35 0-65-55-95.29-56.161-9.9927-0.38305-13.614 9.4194-33.614 9.4194-4.714 0-16.096-8.2584-16.096-8.2584v0m105 80c-30 0-45.346-24.918-65-25-10.138-0.0422-30 5-30 5m60.871 9.6444c15.002 20.002-38.497 29.428-50.871 15.356m-305.13 302.12c-6.0382-14.632-16.903-39.425-29.869-62.116-20-35-45-15-35 5s20 35 20 35m-19.71-35.065c-1.6809-1.0214-21.224-27.478-50.29-39.935-35-15-33.238 7.2224-10 25 11.232 8.593 50 65 50 65m-60-74.71c-20-20.29-45-15.29-25 14.71s55 75 55 75m-55-75c-15-20-30 0-15 20 18.974 25.298 40 80 40 80m-32.968-69.419c-27.032-30.581-27.968 1.2264-17.968 21.226 5 10 20.936 63.193 25.936 73.193l10.701 21.402m946.86 11.468c4.7228 7.8682 11.471 18.196-8.3426 39.341-9.1264 9.7396-2.6874 24.18 10.778 7.7891 20-35 35-15 45.124-20.988-2.6894 9.8324 20.21 20.598-10.091 47.185-10.033 8.8031-5.0328 23.803 9.9672 8.8031 21.131-34.329 35.471-13.85 45.785-19.505-3.0087 9.7394 19.527 21.246-11.625 46.831-10.315 8.4711-5.8067 23.626 9.6747 9.1236 29.05-27.948 37.808-4.5324 49.209-7.426-5.3504 8.6766 13.588 25.457-22.975 42.431-12.106 5.6202-11.535 21.421 6.0078 12.4 31.172-23.044 37.003 1.2668 48.672-0.21194-6.3705 7.9578 10.376 26.927-27.988 39.306-12.702 4.0988-14.066 19.851 5.6553 12.036 35.69-18.741 37.573 6.188 49.328 6.5876-7.5572 6.8409 5.9522 28.236-33.894 34.343-13.193 2.0222-17.049 17.356 3.6651 12.783m-180.02-250.94c4.5725 14.621-28.113 34.819-9.7014 47.174 20.48 13.743 35.303-2.517 53.208-19.936-14.905 20.047-30.697 38.701-10 55 19.435 16.731 36.52-2.1954 54.984-19.021-15.551 19.55-29.984 39.021-17.594 56.48 12.792 18.024 38.142-0.88827 60.229-12.558-19.949 15.036-45.281 28.286-32.619 50.099 12.547 21.614 39.189 10.789 62.536 1.9054-21.636 12.486-43.369 25.911-32.536 48.095 10.372 21.24 33.237 11.175 57.702 6.1255-23.926 7.6891-52.164 19.089-29.302 51.671" fill="none" stroke="#44f" stroke-linecap="round" stroke-linejoin="round" stroke-width="6"/>
</g>
<g transform="matrix(-.12677 0 0 -.1304 45.195 93.194)">
<path d="m1205 261.18v97.637m-15-106.69v115.74m-15-17.561v29.996m0-89.9-1e-4 39.187m1e-4 -89.9v29.996m-15 98.684v27.984m0-98.002 1e-4 23.289m-1e-4 -98.002v27.984m-15 54.246v8.2539m-624.87 464.42c96.262-24.137 164.26-47.608 247.79-118.54h142.39c-156.79 297.28-107.91 528.86-68.797 765.25m-315.76-617.2c94.826-23.706 169.09-49.275 253.07-118.06h83.006c-131.85 281.9-89.778 512.98-51.069 736.05m178.59 6.9c-100.11-264.75-182.73-466.04 10.685-790l31.607-52.941h-289.89l-9.9219 8.7559c-78.349 69.132-127.85 86.374-220.13 109.72m505.38 712.84c-89.076-265.3-178.63-449.21 8.7136-763l58.697-98.32h-354.08l-18.43 16.26c-74.361 65.612-115.84 79.924-204.67 102.39m-81.032-678.65c36.471 61.813 68.471 122.79 83.709 189.99 220-50 290 135 490 75-6.148-107.7 56.123-197.85 111.97-265.02m-497.21 0.050091c16.729 41.378 55.947 49.645 55.581 90.028-0.4078 44.997-60.979 44.224-60.335-0.77015 0.43526-30.41 34.906-29.556 34.477 0.44009-0.2147 14.998-21.763 14.723-21.548-0.27505m-23.838-89.411c-17.95 40.75-57.256 48.057-58.045 88.366-0.88018 44.991 59.691 45.764 60.335 0.77015 0.43527-30.41-34.048-30.436-34.477-0.44008-0.21468 14.998 21.333 15.273 21.548 0.27505m321.54-85.605c-3.9583 75.052 63.504 83.571 57.94 133.18-5.0137 44.699-73.043 36.172-67.764-8.495 3.568-30.189 42.241-24.924 38.722 4.8543-1.7597 14.889-25.961 11.855-24.201-3.0339m-4.6969-126.5c-13.639 73.838-81.115 65.441-87.268 114.97-5.5443 44.633 62.485 53.162 67.764 8.4949 3.568-30.189-35.203-34.632-38.722-4.8542-1.7597 14.889 22.442 17.923 24.201 3.0339m-384.09 3.7463c218.12-28.804 388.12 71.196 523.72 27.791m-20.193 5.3282c6.9973-12.153 11.843-26.264 14.589-41.923 8.2712-0.94453 15.987-2.113 23.204-3.4749m-81.716 50.849c19.219-13.488 30.892-37.153 31.903-75.195 30.425-1.5484 52.501-5.644 69.805-11.195m-586.68-9.7286c9.446 5.2415 19.354 9.2789 29.914 11.366 3.9848 11.503 8.4519 24.997 17.213 39.74 0.76253 1.2833 1.5656 2.5601 2.4093 3.8285m36.573-2.2972c-21.41-18.821-24.134-45.134-35.9-69.788-25.03 2.1919-54.551-18.946-83.546-45.789m265.62 125.38c9.7232-12.91 17.517-28.178 22.597-45.676 10.847-3.7691 20.57-9.5462 28.66-16.604 6.1475 8.8532 14.187 16.87 23.799 23.219 0.78534 19.912 5.3494 38.047 12.742 53.992m-29.511-148.58c-9.9796 32.89-23.918 60.708-60.003 62.635-4.6294 30.514-16.392 51.692-33.043 66.459m160.49 26.228c-15.847-19.385-24.211-44.729-21.012-79.264-34.671-10.876-41.411-41.52-43.145-76.067m-760.25 733.24c160.74-106.14 273.82-156.13 405.76-201.72m678.62 28.435c58.556 0 155.05 48.393 215.61 93.996m-239.32-5.4586c113.1 71.77 182.62 159.57 221.42 276.26m-236.75-250.5c108.82 68.979 172.63 150.49 209.09 262.35m45.512-50.46c-42.857-108.75-115.33-194.42-223.9-263.39m-77.436 140.1c94.583 60.402 136.9 120.76 165.9 221.53m-176.07-198.47c89.063 57.044 124.76 109.9 152.4 206.62l1.791 6.2696m-168.83-175.03c78.203 50.361 103.13 90.662 128.58 179.75l5.9889 20.963m-63.124 257.06 3.3378-9.8242c51.421-130.62 135.35-196.34 251.25-246.26m-145.87 202.44c35.812-56.212 81.928-90.805 145.81-120.77m-186.53 142.25c42.764-84.642 101.83-131.07 186.52-169.54m-222.02 186.69c47.687-111.38 119.45-168.57 222.01-213.9m-329.05 147.32c70.84-149.54 191.12-228.61 329.13-282.41m-318.22 319.59c64.317-157.15 179.43-237.32 318.25-292.75m-297.72 355.7c108.1-44.364 209.47-97.716 297.74-168.6m-329.82 66.854c-13.491-48.251-23.451-95.134-27.496-142.52-9.6878-113.48 12.898-231.2 104.57-384.74l58.697-98.32 7.0893-9.682m-73.17 847.47c-19.667-59.873-42.017-121.3-58.398-173.96m-458.42-426.65 291.8 1e-5m-287.19 105 260.64-2e-5m-261.07 25 256.7-2e-5m329.14 260.25 20.73 13.447m8.6319-52.237 18.51 16.033m7.8545-42.927 16.461 17.846m18.908-46.52 14.1 19.81m17.716-40.438 12.336 21.066m30.262-43.735 10.579 22.262m-193.83 145.64 21.824 11.578m102.81-638.21v-443.87l80-80m-40 546.75v-450.18l40-39.999m-80.018 216.09c-41.482 13.341-73.395 53.011-99.982 107.34-1.436-40.363-8.3056-82.087 20-115-16.063-8.5106-30.68-9.4632-50-35 19.32-25.537 33.937-26.489 50-35-28.306-32.913-21.436-74.637-20-115 26.587 54.325 58.5 93.995 99.982 107.34m-71.681 144.1c0.056-3.197 0.1942-6.2751 0.4412-9.2238 1.32-15.756 4.7198-26.855 14.004-37.65l24.494-28.482-33.195-17.588c-8.6379-4.5766-14.026-6.531-18.703-8.4902 4.6771-1.9593 10.065-3.9136 18.703-8.4902l33.195-17.588-24.494-28.482c-9.2841-10.795-12.684-21.895-14.004-37.65-0.247-2.9487-0.385-6.0268-0.4412-9.2238m-28.301-48.565c-80.254 116.73-51.746 210.79 0 300m-411.44 158.38a42 42 0 0 1 21.441 36.624v0a42 42 0 0 1-42 42 42 42 0 0 1-41.598-36.205m39.627-25.195a19.5 19.5 0 0 1 1.9715-0.09992 19.5 19.5 0 0 1 19.5 19.5 19.5 19.5 0 0 1-19.5 19.5 19.5 19.5 0 0 1-19.5-19.5 19.5 19.5 0 0 1 2.0906-8.7842m126.64-56.219a42 42 0 0 1 2.7714 15.003 42 42 0 0 1-42 42 42 42 0 0 1-41.436-35.143m53.89-21.863a19.5 19.5 0 0 1 7.0468 15.005 19.5 19.5 0 0 1-19.5 19.5 19.5 19.5 0 0 1-19.5-19.5 19.5 19.5 0 0 1 7.0551-15.012m138.23 2e-3a42 42 0 0 1 1.2104 10.01 42 42 0 0 1-42 42 42 42 0 0 1-42-42 42 42 0 0 1 1.2109-10.012m57.523 1e-3a19.5 19.5 0 0 1 2.7661 10.011 19.5 19.5 0 0 1-19.5 19.5 19.5 19.5 0 0 1-19.5-19.5 19.5 19.5 0 0 1 2.7667-10.012m145.02 2e-3a42 42 0 0 1 1.2104 10.01 42 42 0 0 1-42 42 42 42 0 0 1-42-42 42 42 0 0 1 1.2109-10.012m57.523 1e-3a19.5 19.5 0 0 1 2.7661 10.011 19.5 19.5 0 0 1-19.5 19.5 19.5 19.5 0 0 1-19.5-19.5 19.5 19.5 0 0 1 2.7667-10.012m88.194 49.77a42 42 0 0 1-28.461-39.758 42 42 0 0 1 1.2109-10.012m39.376 29.461a19.5 19.5 0 0 1-18.087-19.449 19.5 19.5 0 0 1 2.7667-10.012m-38.473 125.75a42 42 0 0 1-31.794-40.741 42 42 0 0 1 42-42 42 42 0 0 1 28.739 11.372m-28.082 50.117a19.5 19.5 0 0 1-0.65691 0.01107 19.5 19.5 0 0 1-19.5-19.5 19.5 19.5 0 0 1 19.5-19.5 19.5 19.5 0 0 1 16.785 9.5746m-60.62 126.75a42 42 0 0 1-38.165-41.825 42 42 0 0 1 42-42 42 42 0 0 1 28.229 10.901m-22.757 49.815a19.5 19.5 0 0 1-5.4717 0.78343 19.5 19.5 0 0 1-19.5-19.5 19.5 19.5 0 0 1 19.5-19.5 19.5 19.5 0 0 1 17.494 10.885m-46.757 130.61a42 42 0 0 1-0.73694 0.00647 42 42 0 0 1-42-42 42 42 0 0 1 42-42 42 42 0 0 1 24.636 7.9845m-17.416 52.13a19.5 19.5 0 0 1-7.2198 1.3858 19.5 19.5 0 0 1-19.5-19.5 19.5 19.5 0 0 1 19.5-19.5 19.5 19.5 0 0 1 16.278 8.7632m-275.73-155.53a42 42 0 0 1 13.957 31.266 42 42 0 0 1-42 42 42 42 0 0 1-42-42 42 42 0 0 1 0.10369-2.9495m44.819-16.33a19.5 19.5 0 0 1 16.577 19.28 19.5 19.5 0 0 1-19.5 19.5 19.5 19.5 0 0 1-19.5-19.5 19.5 19.5 0 0 1 4.1583-12.037m-31.952 10.687a42 42 0 0 1 9.2938 26.35 42 42 0 0 1-42 42 42 42 0 0 1-15.083-2.8016m20.873-57.819a19.5 19.5 0 0 1 13.71 18.62 19.5 19.5 0 0 1-19.5 19.5 19.5 19.5 0 0 1-19.5-19.5 19.5 19.5 0 0 1 5.3419-13.409m276.32-460.18c-53.58 131.4 4.8413 175.8 4.8413 253.59 0 55-115 90-115 0 0-55 75-55 75-10 0 35-62.765 44.891-60 10 3.0519-38.508 47.487-19.355 35-5m47.517-254.27c-57.74 135.6-2.0327 172.16-2.0327 251.06 0 55-85.484 58.21-80.484 8.2102m70-265c-61.788 140.32-10 175-10 255m47.997-238.18c-49.812 127.23 7.0031 171.47 7.0031 248.18 0 30.823-36.118 55.365-67.872 55.144m73.919-298.24c-46.347 123.34 8.9523 167.42 8.9523 243.1 0 30.823-36.118 55.365-67.872 55.144m72.195-293.56c-43.221 119.79 10.677 163.7 10.677 238.42 0 30.823-36.118 55.365-67.872 55.144m70.62-289.1c-40.307 116.44 12.252 160.18 12.252 233.96 0 30.823-36.118 55.365-67.872 55.144m69.335-285.33c-37.884 113.62 13.536 157.2 13.536 230.18 0 30.823-36.118 55.365-67.872 55.144m68.334-282.28c-35.962 111.35 14.537 154.81 14.537 227.13 0 30.823-36.118 55.365-67.872 55.144m67.609-280c-34.548 109.67 15.263 153.03 15.263 224.86 0 30.823-36.118 55.365-67.872 55.144m67.155-278.55c-33.654 108.6 15.717 151.89 15.717 223.4 0 30.823-36.118 55.365-67.872 55.144m66.972-277.96c-33.291 108.17 15.9 151.43 15.9 222.81 0 30.823-36.118 55.365-67.872 55.144m67.066-278.26c-33.479 108.4 15.805 151.67 15.805 223.12 0 30.823-36.118 55.365-67.872 55.144m67.455-279.51c-34.245 109.31 15.417 152.64 15.417 224.37 0 30.823-36.118 55.365-67.872 55.144m68.162-281.74c-35.626 110.96 14.71 154.39 14.71 226.59 0 30.823-36.118 55.365-67.872 55.144m69.225-284.99c-37.673 113.37 13.647 156.94 13.647 229.85 0 30.823-36.118 55.365-67.872 55.144m70.742-289.46c-40.536 116.7 12.13 160.46 12.13 234.31 0 30.823-36.118 55.365-67.872 55.144m-422.13-22.366c-54.204 65.727-115 47.222-115 7.2222s65-45 65-5c0 30-45 25-45 5 0-10 0-10 5-15m70 9.4444c-25.083 26.791-49.177 31.341-67.463 18.093m107.46-20.315c-20 40-57.915 45.684-79.403 45.122m99.403-43.455c-20 40-55.863 43.196-77.35 42.634m97.35-41.523c-20 40-55.863 42.085-77.35 41.523m97.35-43.19c-20 40-55.863 43.752-77.35 43.19m97.35-44.857c-20 40-55.863 45.418-77.35 44.857m97.35-45.968c-20 40-55.863 46.529-77.35 45.968m97.35-45.412c-20 40-55.863 45.974-77.35 45.412m97.35-46.523c-20 40-55.863 47.085-77.35 46.523m92.873-38.511c-20.53 32.953-52.907 39.032-72.873 38.511m-104.82-387.7c-2.9414 12.082-7.8273 32.678-7.8273 36.173 0 5 15 20 15 25s-25 30-35 45-25 60-25 70-5 20 10 20 20 15 20 15l-10 15 10 25s-1.8377 13.675-5 20c-5 10 20 15 20 20s-20.437 15.019-20 20c3.9077 44.548-24.383 56.24-25 50m70-200c15 0 10 40-10 30-30-15-45 5-15-5m105 35c2.2048-6.0631 7.3834-10 15-10 25 0 10 45-30 45s-85-35-85-35v-15c40 15 30 45 85 50m-105-5c20 0 40 5 60 20-22.925-16.544-40-35-70-45m40-205-5 15s45-5 55-5c30 0 60 45 95 45-35 0-65-55-95.29-56.161-9.9927-0.38305-13.614 9.4194-33.614 9.4194-4.714 0-16.096-8.2584-16.096-8.2584v0m105 80c-30 0-45.346-24.918-65-25-10.138-0.0422-30 5-30 5m60.871 9.6444c15.002 20.002-38.497 29.428-50.871 15.356m-305.13 302.12c-6.0382-14.632-16.903-39.425-29.869-62.116-20-35-45-15-35 5s20 35 20 35m-19.71-35.065c-1.6809-1.0214-21.224-27.478-50.29-39.935-35-15-33.238 7.2224-10 25 11.232 8.593 50 65 50 65m-60-74.71c-20-20.29-45-15.29-25 14.71s55 75 55 75m-55-75c-15-20-30 0-15 20 18.974 25.298 40 80 40 80m-32.968-69.419c-27.032-30.581-27.968 1.2264-17.968 21.226 5 10 20.936 63.193 25.936 73.193l10.701 21.402m946.86 11.468c4.7228 7.8682 11.471 18.196-8.3426 39.341-9.1264 9.7396-2.6874 24.18 10.778 7.7891 20-35 35-15 45.124-20.988-2.6894 9.8324 20.21 20.598-10.091 47.185-10.033 8.8031-5.0328 23.803 9.9672 8.8031 21.131-34.329 35.471-13.85 45.785-19.505-3.0087 9.7394 19.527 21.246-11.625 46.831-10.315 8.4711-5.8067 23.626 9.6747 9.1236 29.05-27.948 37.808-4.5324 49.209-7.426-5.3504 8.6766 13.588 25.457-22.975 42.431-12.106 5.6202-11.535 21.421 6.0078 12.4 31.172-23.044 37.003 1.2668 48.672-0.21194-6.3705 7.9578 10.376 26.927-27.988 39.306-12.702 4.0988-14.066 19.851 5.6553 12.036 35.69-18.741 37.573 6.188 49.328 6.5876-7.5572 6.8409 5.9522 28.236-33.894 34.343-13.193 2.0222-17.049 17.356 3.6651 12.783m-180.02-250.94c4.5725 14.621-28.113 34.819-9.7014 47.174 20.48 13.743 35.303-2.517 53.208-19.936-14.905 20.047-30.697 38.701-10 55 19.435 16.731 36.52-2.1954 54.984-19.021-15.551 19.55-29.984 39.021-17.594 56.48 12.792 18.024 38.142-0.88827 60.229-12.558-19.949 15.036-45.281 28.286-32.619 50.099 12.547 21.614 39.189 10.789 62.536 1.9054-21.636 12.486-43.369 25.911-32.536 48.095 10.372 21.24 33.237 11.175 57.702 6.1255-23.926 7.6891-52.164 19.089-29.302 51.671" fill="none" stroke="#44f" stroke-linecap="round" stroke-linejoin="round" stroke-width="6"/>
</g>
<g transform="matrix(.12677 0 0 .1304 -119.61 -167.61)">
<path d="m545 265c2.6399-9.5309 17.644-23.57 27.903-22.032 18.304 2.7448 37.097 37.032 47.097 37.032m10 10c-10 0-20 10-20 10m-26.992-28.159c0.35325 1.9803 0.54101 4.055 0.54101 6.1924 0 13.807-7.835 25-17.5 25s-17.5-11.193-17.5-25c0-4.4285 0.80602-8.5881 2.2199-12.196m-429.97 230.98c-3.7252 13.385-7.1198 15.266-16.172 17.234m-8.1672-5.558c-3.7252 13.385-11.329 13.379-20.381 15.348m4.1261 6.1039c-3.7252 13.385-7.7004 14.104-18.204 13.751m7.5874 14.587c-5.0315 10.627-11.039 10.476-19.656 9.542m132.02-50.581c6.2264 15.66 28.048 17.758 28.048 17.758m-145 55c4.797 0.89471 7.9369-1.1104 10-5m33.204-33.974c4.797 0.89471 7.9369-2.9064 10-6.796m-53.204 45.77c4.797 0.89471 7.9369-1.1104 10-5m61.026-52.309c4.797 0.89471 6.654-2.6498 8.7172-6.5394m-61.057 40.663c4.797 0.89471 7.9369-2.6498 10-6.5394" fill="none" stroke="#44f" stroke-linecap="round" stroke-linejoin="round" stroke-width="3"/>
<g transform="matrix(.1 0 0 .0972 650 1e3)">
<path d="M -400,0 C -350,0 0,-450 0,-500 0,-450 350,0 400,0 350,0 0,450 0,500 0,450 -350,0 -400,0 Z" fill="#f00"/>
</g>
<g transform="matrix(.1 0 0 .0972 570 1e3)">
<path d="M -400,0 C -350,0 0,-450 0,-500 0,-450 350,0 400,0 350,0 0,450 0,500 0,450 -350,0 -400,0 Z" fill="#f00"/>
</g>
<g transform="matrix(.13684 -.035639 .036666 .13301 400 640)" stroke="#44f" stroke-linecap="round" stroke-linejoin="round" stroke-width="42.352">
<path d="M -400,0 C -350,0 0,-450 0,-500 0,-450 350,0 400,0 350,0 0,450 0,500 0,450 -350,0 -400,0 Z" fill="#f00"/>
</g>
<g transform="matrix(.1231 -.021098 .021706 .11965 435 765)" stroke="#44f" stroke-linecap="round" stroke-linejoin="round" stroke-width="48">
<path d="M -400,0 C -350,0 0,-450 0,-500 0,-450 350,0 400,0 350,0 0,450 0,500 0,450 -350,0 -400,0 Z" fill="#f00"/>
</g>
<g transform="matrix(.10792 -.0091775 .0094419 .1049 453 885)" stroke="#44f" stroke-linecap="round" stroke-linejoin="round" stroke-width="55.384">
<path d="M -400,0 C -350,0 0,-450 0,-500 0,-450 350,0 400,0 350,0 0,450 0,500 0,450 -350,0 -400,0 Z" fill="#f00"/>
</g>
<g transform="matrix(.091667 0 0 .0891 460 982)" stroke="#44f" stroke-linecap="round" stroke-linejoin="round" stroke-width="65.454">
<path d="M -400,0 C -350,0 0,-450 0,-500 0,-450 350,0 400,0 350,0 0,450 0,500 0,450 -350,0 -400,0 Z" fill="#f00"/>
</g>
<g transform="matrix(.082067 .014066 -.014471 .079769 450 1070)" stroke="#44f" stroke-linecap="round" stroke-linejoin="round" stroke-width="72">
<path d="M -400,0 C -350,0 0,-450 0,-500 0,-450 350,0 400,0 350,0 0,450 0,500 0,450 -350,0 -400,0 Z" fill="#f00"/>
</g>
<g transform="matrix(.0375 .063133 -.064952 .03645 1259 1e3)">
<path d="M -400,0 C -350,0 0,-450 0,-500 0,-450 350,0 400,0 350,0 0,450 0,500 0,450 -350,0 -400,0 Z" fill="#f00"/>
</g>
<g transform="matrix(.048209 .055845 -.057453 .046859 1173 1052)">
<path d="M -400,0 C -350,0 0,-450 0,-500 0,-450 350,0 400,0 350,0 0,450 0,500 0,450 -350,0 -400,0 Z" fill="#f00"/>
</g>
<g transform="matrix(.057453 .046859 -.048209 .055845 1094 1120)">
<path d="M -400,0 C -350,0 0,-450 0,-500 0,-450 350,0 400,0 350,0 0,450 0,500 0,450 -350,0 -400,0 Z" fill="#f00"/>
</g>
<g transform="matrix(.064952 .03645 -.0375 .063133 1038 1209)">
<path d="M -400,0 C -350,0 0,-450 0,-500 0,-450 350,0 400,0 350,0 0,450 0,500 0,450 -350,0 -400,0 Z" fill="#f00"/>
</g>
</g>
<g transform="matrix(-.12677 0 0 -.1304 45.195 93.194)">
<path d="m545 265c2.6399-9.5309 17.644-23.57 27.903-22.032 18.304 2.7448 37.097 37.032 47.097 37.032m10 10c-10 0-20 10-20 10m-26.992-28.159c0.35325 1.9803 0.54101 4.055 0.54101 6.1924 0 13.807-7.835 25-17.5 25s-17.5-11.193-17.5-25c0-4.4285 0.80602-8.5881 2.2199-12.196m-429.97 230.98c-3.7252 13.385-7.1198 15.266-16.172 17.234m-8.1672-5.558c-3.7252 13.385-11.329 13.379-20.381 15.348m4.1261 6.1039c-3.7252 13.385-7.7004 14.104-18.204 13.751m7.5874 14.587c-5.0315 10.627-11.039 10.476-19.656 9.542m132.02-50.581c6.2264 15.66 28.048 17.758 28.048 17.758m-145 55c4.797 0.89471 7.9369-1.1104 10-5m33.204-33.974c4.797 0.89471 7.9369-2.9064 10-6.796m-53.204 45.77c4.797 0.89471 7.9369-1.1104 10-5m61.026-52.309c4.797 0.89471 6.654-2.6498 8.7172-6.5394m-61.057 40.663c4.797 0.89471 7.9369-2.6498 10-6.5394" fill="none" stroke="#44f" stroke-linecap="round" stroke-linejoin="round" stroke-width="3"/>
<g transform="matrix(.1 0 0 .0972 650 1e3)">
<path d="M -400,0 C -350,0 0,-450 0,-500 0,-450 350,0 400,0 350,0 0,450 0,500 0,450 -350,0 -400,0 Z" fill="#f00"/>
</g>
<g transform="matrix(.1 0 0 .0972 570 1e3)">
<path d="M -400,0 C -350,0 0,-450 0,-500 0,-450 350,0 400,0 350,0 0,450 0,500 0,450 -350,0 -400,0 Z" fill="#f00"/>
</g>
<g transform="matrix(.13684 -.035639 .036666 .13301 400 640)" stroke="#44f" stroke-linecap="round" stroke-linejoin="round" stroke-width="42.352">
<path d="M -400,0 C -350,0 0,-450 0,-500 0,-450 350,0 400,0 350,0 0,450 0,500 0,450 -350,0 -400,0 Z" fill="#f00"/>
</g>
<g transform="matrix(.1231 -.021098 .021706 .11965 435 765)" stroke="#44f" stroke-linecap="round" stroke-linejoin="round" stroke-width="48">
<path d="M -400,0 C -350,0 0,-450 0,-500 0,-450 350,0 400,0 350,0 0,450 0,500 0,450 -350,0 -400,0 Z" fill="#f00"/>
</g>
<g transform="matrix(.10792 -.0091775 .0094419 .1049 453 885)" stroke="#44f" stroke-linecap="round" stroke-linejoin="round" stroke-width="55.384">
<path d="M -400,0 C -350,0 0,-450 0,-500 0,-450 350,0 400,0 350,0 0,450 0,500 0,450 -350,0 -400,0 Z" fill="#f00"/>
</g>
<g transform="matrix(.091667 0 0 .0891 460 982)" stroke="#44f" stroke-linecap="round" stroke-linejoin="round" stroke-width="65.454">
<path d="M -400,0 C -350,0 0,-450 0,-500 0,-450 350,0 400,0 350,0 0,450 0,500 0,450 -350,0 -400,0 Z" fill="#f00"/>
</g>
<g transform="matrix(.082067 .014066 -.014471 .079769 450 1070)" stroke="#44f" stroke-linecap="round" stroke-linejoin="round" stroke-width="72">
<path d="M -400,0 C -350,0 0,-450 0,-500 0,-450 350,0 400,0 350,0 0,450 0,500 0,450 -350,0 -400,0 Z" fill="#f00"/>
</g>
<g transform="matrix(.0375 .063133 -.064952 .03645 1259 1e3)">
<path d="M -400,0 C -350,0 0,-450 0,-500 0,-450 350,0 400,0 350,0 0,450 0,500 0,450 -350,0 -400,0 Z" fill="#f00"/>
</g>
<g transform="matrix(.048209 .055845 -.057453 .046859 1173 1052)">
<path d="M -400,0 C -350,0 0,-450 0,-500 0,-450 350,0 400,0 350,0 0,450 0,500 0,450 -350,0 -400,0 Z" fill="#f00"/>
</g>
<g transform="matrix(.057453 .046859 -.048209 .055845 1094 1120)">
<path d="M -400,0 C -350,0 0,-450 0,-500 0,-450 350,0 400,0 350,0 0,450 0,500 0,450 -350,0 -400,0 Z" fill="#f00"/>
</g>
<g transform="matrix(.064952 .03645 -.0375 .063133 1038 1209)">
<path d="M -400,0 C -350,0 0,-450 0,-500 0,-450 350,0 400,0 350,0 0,450 0,500 0,450 -350,0 -400,0 Z" fill="#f00"/>
</g>
</g>
</svg>
