<?xml version="1.0" encoding="UTF-8"?>
<svg width="100%" height="100%" version="1.1" viewBox="-120 -168 165.58 261.58" xmlns="http://www.w3.org/2000/svg">
<g transform="matrix(.12677 0 0 .1304 -119.62 -166.85)">
<path d="m216.55 0c22.672 33.815 49.204 66.355 53.939 105.51l-25.363 36.035-3.9863-4.1016c6.3208-11.198 5.98-26.776-9.4902-42.414-32.146-32.496-85.433 37.347-141.65-5.0273 50 50-6.7761 124.44 29.752 149.36 25.358 17.294 44.433 10.196 53.541-3.5508l3.4102 3.1191c-8.9457 12.73-17.892 25.461-26.592 37.854-25.816 4.595-50.601 6.0619-70.111-6.7773-14.682 26.212-45.302 28.698-70 40 61.376 0.31228 120.48 3.7719 154.34 42.287l247.55-352.29zm416.92 0 8.8164 25.467c118.34 161.28 217.51 260.56 234.43 549.41l31.297 25.848c-12.648-321.32-123.94-431.39-247.18-600.72zm49.305 231.16-3.291 51.135c3.5673 6.0903 7.011 12.233 10.33 18.457 24.307 45.579 42.878 96.272 54.719 165.25l34.537 28.359c-15.83-119.84-49.162-192.81-96.295-263.21zm-402.35 171.68-11.127 27.957c90.347 32.01 178.35 53.163 271.21 57.447-21.405-9.8188-42.855-20.981-60.51-18.246-24.289 3.7625-48.682-9.915-69.5-29.479-42.951-9.3312-86.012-22.164-130.07-37.68zm-11.166 28.033c-25.318 57.425-60.684 102.77-102.78 137.12 116.13 44.757 235.2 76.286 363.19 83.35l-2.2754-0.0176 101.55 210.35 95.982-7.3652c-73.626 12.42-154.8 10.871-249.02-14.789l6.0918 32.59c160.35 40.145 287.86 12.701 399.99-33.312l-10.918-27.939c-46.132 19.009-94.093 34.635-145.77 43.389l-97.604-202.18-4.1602-0.0312c89.463-3.6075 183.63-19.569 284.37-51.379l-156.97-129.19-30.266-24.807c-32.205 5.7377-63.265 9.4748-93.135 10.875-7.876 11.692-16.5 22.512-25.623 30.975 40.733-0.48642 83.422-4.8288 128.14-12.99-44.724 8.1696-87.476 12.572-128.68 13.494-7.4578 6.7684-14.879 10.975-21.365 10.975-11.754 0-25.097-5.3103-38.824-11.453-93.522-4.586-181.53-25.74-271.91-57.672zm869.04 68.377c-22.784 0.7721-47.828 39.967-8.2969 50.748-55 15 15 85 30 30 15 55 85-15 30-30 55-15-15-85-30-30-4.2188-15.469-12.788-21.05-21.703-20.748zm136.13 104.45c-23.586-0.51377-39.81 16.029-54.424 36.303l15 10c24.284-10.693 46.335-22.648 50-45-3.6868-0.80846-7.2067-1.2293-10.576-1.3027zm-221.38 25.215c-17.504 0.0552-35.159 7.582-53.039 26.088 39.672 4.959 54.753 44.346 137.92 20.602l1.6934-0.9375c-28.657-25.181-57.406-45.844-86.578-45.752zm-27.891 68.434-132.8 160.22c20.036 27.174 39.697 49.954 58.553 71.457-28.95 43.355-45.902 94.798-45.902 150.98-1e-5 95.074 48.797 177.62 123.05 226.05l15.676 10.223 53.934-53.58c-1.8936-19.379-4.1818-37.427-6.9648-53.875-4.0392 1.088-8.0972 1.2952-12.236 0.9902-62.445-3.7063-108.46-58.456-108.46-119.81 0-29.304 10.124-57.732 29.367-80.127 3.2198-3.8561 6.962-7.1553 10.533-10.051 42.224 57.386 74.671 127.71 87.982 262.47l170.73-170.87 15.025-14.892c-0.01-0.041-0.016-0.081-0.024-0.1211l16.385-16.398v-0.01l-16.387 16.393c-6.9053-37.354-17.928-72.609-39.068-101.39-17.397-23.683-41.763-42.338-74.684-53.195-5.9235-4.4432-15.715-8.488-29.9-11.016a40 40 0 0 1-39.156 39.17c11.378 63.779 53.95 39.17 44.195 5.0293 14.485 4.1385 27.256-1.1424 32.211-9.4609 22.212 9.9081 38.578 24.107 51.217 41.312 14.532 19.783 24.032 44.132 30.225 70.371-16.884-23.37-41.272-2.4875-33.642 24.217-18.716-5.3474-34.572 5.0327-34.543 17.467-19.833-6.8634-37.303-16.203-51.385-29.021-25.365-23.089-41.373-57.883-41.193-113.78 0.4435-1.6847 0.8865-3.8106 1.3066-6.1484a40 40 0 0 1-39.195-39.957 40 40 0 0 1 40-40 40 40 0 0 1 39.971 39.195c63.779-11.378 39.17-53.95 5.0293-44.195 9.1389-31.986-27.658-55.621-41.988-4.6621-6.6042-30.946-16.217-61.528-33.072-87.512l230.06 189.57v-38.852zm-3.7812 52.201c10.657 7.85 19.522 17.042 27.06 27.305 11.321 15.412 19.587 33.595 25.201 53.598-13.245-0.55224-24.066 15.521-18.629 34.551-24.132-6.895-43.51 12.357-30.252 28.369-25.781-7.16-48.301-17.677-65.666-33.484-5.6063-5.1032-10.756-10.778-15.373-17.135zm212.48 9.9746-15.77 2.1953c13.801 28.309 34.269 51.3 14.559 106.34l12.414 9.6543c12.692-33.117 12.725-58.556 6.7676-78.838-4.6665-15.888-12.027-28.085-17.971-39.348zm-218.85 50.479c-8.2843 0-15 6.7157-15 15s6.7157 15 15 15 15-6.7157 15-15-6.7157-15-15-15zm-78.439 55.57c2.8806 3.1984 5.9019 6.2321 9.0586 9.1055 24.942 22.704 57.135 35.169 92.029 42.887-33.902 16.09-11.727 45.746 17.352 37.438-6.4935 22.727 10.204 41.238 25.162 32.348 4.9164 43.822 21.223 75.269 45.457 97.328 27.69 25.206 64.317 37.791 104.24 45.158l36.348-36.025-141.38 141.43c-13.615-111.34-41.959-181-78.51-235.69-33.368-49.922-71.293-86.379-109.76-133.98zm-54.248 5.4238c-110.83 43.705-240.48 69.42-397.61 32.621l0.32422 30.811c143.12 31.822 266.36 13.765 371.36-21.994zm292.69 134.01a15 15 0 0 0-15 15 15 15 0 0 0 15 15 15 15 0 0 0 15-15 15 15 0 0 0-15-15zm-30 130c-8.2843 0-15 6.7157-15 15s6.7157 15 15 15 15-6.7157 15-15-6.7157-15-15-15z" fill="#fc4"/>
</g>
<g transform="matrix(-.12677 0 0 -.1304 45.18 93.953)">
<path d="m216.55 0c22.672 33.815 49.204 66.355 53.939 105.51l-25.363 36.035-3.9863-4.1016c6.3208-11.198 5.98-26.776-9.4902-42.414-32.146-32.496-85.433 37.347-141.65-5.0273 50 50-6.7761 124.44 29.752 149.36 25.358 17.294 44.433 10.196 53.541-3.5508l3.4102 3.1191c-8.9457 12.73-17.892 25.461-26.592 37.854-25.816 4.595-50.601 6.0619-70.111-6.7773-14.682 26.212-45.302 28.698-70 40 61.376 0.31228 120.48 3.7719 154.34 42.287l247.55-352.29zm416.92 0 8.8164 25.467c118.34 161.28 217.51 260.56 234.43 549.41l31.297 25.848c-12.648-321.32-123.94-431.39-247.18-600.72zm49.305 231.16-3.291 51.135c3.5673 6.0903 7.011 12.233 10.33 18.457 24.307 45.579 42.878 96.272 54.719 165.25l34.537 28.359c-15.83-119.84-49.162-192.81-96.295-263.21zm-402.35 171.68-11.127 27.957c90.347 32.01 178.35 53.163 271.21 57.447-21.405-9.8188-42.855-20.981-60.51-18.246-24.289 3.7625-48.682-9.915-69.5-29.479-42.951-9.3312-86.012-22.164-130.07-37.68zm-11.166 28.033c-25.318 57.425-60.684 102.77-102.78 137.12 116.13 44.757 235.2 76.286 363.19 83.35l-2.2754-0.0176 101.55 210.35 95.982-7.3652c-73.626 12.42-154.8 10.871-249.02-14.789l6.0918 32.59c160.35 40.145 287.86 12.701 399.99-33.312l-10.918-27.939c-46.132 19.009-94.093 34.635-145.77 43.389l-97.604-202.18-4.1602-0.0312c89.463-3.6075 183.63-19.569 284.37-51.379l-156.97-129.19-30.266-24.807c-32.205 5.7377-63.265 9.4748-93.135 10.875-7.876 11.692-16.5 22.512-25.623 30.975 40.733-0.48642 83.422-4.8288 128.14-12.99-44.724 8.1696-87.476 12.572-128.68 13.494-7.4578 6.7684-14.879 10.975-21.365 10.975-11.754 0-25.097-5.3103-38.824-11.453-93.522-4.586-181.53-25.74-271.91-57.672zm869.04 68.377c-22.784 0.7721-47.828 39.967-8.2969 50.748-55 15 15 85 30 30 15 55 85-15 30-30 55-15-15-85-30-30-4.2188-15.469-12.788-21.05-21.703-20.748zm136.13 104.45c-23.586-0.51377-39.81 16.029-54.424 36.303l15 10c24.284-10.693 46.335-22.648 50-45-3.6868-0.80846-7.2067-1.2293-10.576-1.3027zm-221.38 25.215c-17.504 0.0552-35.159 7.582-53.039 26.088 39.672 4.959 54.753 44.346 137.92 20.602l1.6934-0.9375c-28.657-25.181-57.406-45.844-86.578-45.752zm-27.891 68.434-132.8 160.22c20.036 27.174 39.697 49.954 58.553 71.457-28.95 43.355-45.902 94.798-45.902 150.98-1e-5 95.074 48.797 177.62 123.05 226.05l15.676 10.223 53.934-53.58c-1.8936-19.379-4.1818-37.427-6.9648-53.875-4.0392 1.088-8.0972 1.2952-12.236 0.9902-62.445-3.7063-108.46-58.456-108.46-119.81 0-29.304 10.124-57.732 29.367-80.127 3.2198-3.8561 6.962-7.1553 10.533-10.051 42.224 57.386 74.671 127.71 87.982 262.47l170.73-170.87 15.025-14.892c-0.01-0.041-0.016-0.081-0.024-0.1211l16.385-16.398v-0.01l-16.387 16.393c-6.9053-37.354-17.928-72.609-39.068-101.39-17.397-23.683-41.763-42.338-74.684-53.195-5.9235-4.4432-15.715-8.488-29.9-11.016a40 40 0 0 1-39.156 39.17c11.378 63.779 53.95 39.17 44.195 5.0293 14.485 4.1385 27.256-1.1424 32.211-9.4609 22.212 9.9081 38.578 24.107 51.217 41.312 14.532 19.783 24.032 44.132 30.225 70.371-16.884-23.37-41.272-2.4875-33.642 24.217-18.716-5.3474-34.572 5.0327-34.543 17.467-19.833-6.8634-37.303-16.203-51.385-29.021-25.365-23.089-41.373-57.883-41.193-113.78 0.4435-1.6847 0.8865-3.8106 1.3066-6.1484a40 40 0 0 1-39.195-39.957 40 40 0 0 1 40-40 40 40 0 0 1 39.971 39.195c63.779-11.378 39.17-53.95 5.0293-44.195 9.1389-31.986-27.658-55.621-41.988-4.6621-6.6042-30.946-16.217-61.528-33.072-87.512l230.06 189.57v-38.852zm-3.7812 52.201c10.657 7.85 19.522 17.042 27.06 27.305 11.321 15.412 19.587 33.595 25.201 53.598-13.245-0.55224-24.066 15.521-18.629 34.551-24.132-6.895-43.51 12.357-30.252 28.369-25.781-7.16-48.301-17.677-65.666-33.484-5.6063-5.1032-10.756-10.778-15.373-17.135zm212.48 9.9746-15.77 2.1953c13.801 28.309 34.269 51.3 14.559 106.34l12.414 9.6543c12.692-33.117 12.725-58.556 6.7676-78.838-4.6665-15.888-12.027-28.085-17.971-39.348zm-218.85 50.479c-8.2843 0-15 6.7157-15 15s6.7157 15 15 15 15-6.7157 15-15-6.7157-15-15-15zm-78.439 55.57c2.8806 3.1984 5.9019 6.2321 9.0586 9.1055 24.942 22.704 57.135 35.169 92.029 42.887-33.902 16.09-11.727 45.746 17.352 37.438-6.4935 22.727 10.204 41.238 25.162 32.348 4.9164 43.822 21.223 75.269 45.457 97.328 27.69 25.206 64.317 37.791 104.24 45.158l36.348-36.025-141.38 141.43c-13.615-111.34-41.959-181-78.51-235.69-33.368-49.922-71.293-86.379-109.76-133.98zm-54.248 5.4238c-110.83 43.705-240.48 69.42-397.61 32.621l0.32422 30.811c143.12 31.822 266.36 13.765 371.36-21.994zm292.69 134.01a15 15 0 0 0-15 15 15 15 0 0 0 15 15 15 15 0 0 0 15-15 15 15 0 0 0-15-15zm-30 130c-8.2843 0-15 6.7157-15 15s6.7157 15 15 15 15-6.7157 15-15-6.7157-15-15-15z" fill="#fc4"/>
</g>
<g transform="matrix(.12677 0 0 .1304 -119.62 -166.85)">
<path d="m411.89 0-411.89 586.15v129.62l502.97-715.77zm230.53 25.779c17.726 51.38 47.576 140.11 47.576 154.22 0 13.049-4.2563 34.612-7.2188 50.98 47.13 70.573 80.461 143.54 96.291 263.38l97.648 80.51c-16.922-288.84-116.09-388.12-234.3-549.09zm517.58 419.22c-22.788 0-45.574 18.414-27.506 55.24 10.801-3.2404 22.373 0.93962 27.506 19.76 5.1328-18.82 16.705-23 27.506-19.76 18.068-36.826-4.7176-55.24-27.506-55.24zm-73.881 70.963c-48.388-0.40036-40.346 93.172 24.121 61.543-3.2404-10.801 0.9397-22.373 19.76-27.506-18.82-5.1328-23-16.705-19.76-27.506-9.1852-4.5065-17.227-6.4742-24.121-6.5312zm147.76 0c-6.8943 0.057-14.936 2.0248-24.121 6.5312 3.2404 10.801-0.9397 22.373-19.76 27.506 18.82 5.1328 23 16.705 19.76 27.506 64.467 31.629 72.509-61.943 24.121-61.543zm-73.881 17.701a16.158 16.336 0 0 0-16.158 16.336 16.158 16.336 0 0 0 16.158 16.336 16.158 16.336 0 0 0 16.158-16.336 16.158 16.336 0 0 0-16.158-16.336zm0 46.336c-5.1328 18.82-16.705 23-27.506 19.76-36.136 73.652 91.147 73.652 55.012 0-10.801 3.2404-22.373-0.93962-27.506-19.76zm-277.83 60.619c-72.056 19.6-141.37 32.178-208.14 38.248l81.154 169.36c40.212-8.8698 78.642-22.015 115.69-37.703-7.0913-22.118-10.871-45.782-10.871-70.521 0-35.877 7.9496-69.491 22.168-99.381zm-507.36 20.686c49.626 47.836 85.528 109.62 101.2 178.61 41.477 10.938 80.512 17.569 118.21 20.363l-86.143-180.45c-45.302-3.4498-89.724-9.7716-133.27-18.516zm725.2 223.7a25 25 0 0 0-25 25 25 25 0 0 0 25 25 25 25 0 0 0 25-25 25 25 0 0 0-25-25zm-62.447 157.74c-11.377 12.652-17.553 29.629-17.553 47.256 0 37.163 26.967 67.85 61.428 69.789-11.175-48.271-26.047-85.329-43.875-117.04z" fill="#f00"/>
</g>
<g transform="matrix(-.12677 0 0 -.1304 45.18 93.953)">
<path d="m411.89 0-411.89 586.15v129.62l502.97-715.77zm230.53 25.779c17.726 51.38 47.576 140.11 47.576 154.22 0 13.049-4.2563 34.612-7.2188 50.98 47.13 70.573 80.461 143.54 96.291 263.38l97.648 80.51c-16.922-288.84-116.09-388.12-234.3-549.09zm517.58 419.22c-22.788 0-45.574 18.414-27.506 55.24 10.801-3.2404 22.373 0.93962 27.506 19.76 5.1328-18.82 16.705-23 27.506-19.76 18.068-36.826-4.7176-55.24-27.506-55.24zm-73.881 70.963c-48.388-0.40036-40.346 93.172 24.121 61.543-3.2404-10.801 0.9397-22.373 19.76-27.506-18.82-5.1328-23-16.705-19.76-27.506-9.1852-4.5065-17.227-6.4742-24.121-6.5312zm147.76 0c-6.8943 0.057-14.936 2.0248-24.121 6.5312 3.2404 10.801-0.9397 22.373-19.76 27.506 18.82 5.1328 23 16.705 19.76 27.506 64.467 31.629 72.509-61.943 24.121-61.543zm-73.881 17.701a16.158 16.336 0 0 0-16.158 16.336 16.158 16.336 0 0 0 16.158 16.336 16.158 16.336 0 0 0 16.158-16.336 16.158 16.336 0 0 0-16.158-16.336zm0 46.336c-5.1328 18.82-16.705 23-27.506 19.76-36.136 73.652 91.147 73.652 55.012 0-10.801 3.2404-22.373-0.93962-27.506-19.76zm-277.83 60.619c-72.056 19.6-141.37 32.178-208.14 38.248l81.154 169.36c40.212-8.8698 78.642-22.015 115.69-37.703-7.0913-22.118-10.871-45.782-10.871-70.521 0-35.877 7.9496-69.491 22.168-99.381zm-507.36 20.686c49.626 47.836 85.528 109.62 101.2 178.61 41.477 10.938 80.512 17.569 118.21 20.363l-86.143-180.45c-45.302-3.4498-89.724-9.7716-133.27-18.516zm725.2 223.7a25 25 0 0 0-25 25 25 25 0 0 0 25 25 25 25 0 0 0 25-25 25 25 0 0 0-25-25zm-62.447 157.74c-11.377 12.652-17.553 29.629-17.553 47.256 0 37.163 26.967 67.85 61.428 69.789-11.175-48.271-26.047-85.329-43.875-117.04z" fill="#f00"/>
</g>
<g transform="matrix(.12677 0 0 .1304 -119.62 -166.85)">
<path d="m664.82 217.75-17.85 3.0039c-1.7524 4.0697-2.8027 9.2619-2.8027 14.92 0 13.058 5.5964 23.645 12.5 23.645 6.9035 0 12.5-10.586 12.5-23.645 0-7.1666-1.6854-13.588-4.3477-17.924zm-152.32 0.42968a12.5 23.644 0 0 0-12.5 23.645 12.5 23.644 0 0 0 12.5 23.645 12.5 23.644 0 0 0 12.5-23.645 12.5 23.644 0 0 0-12.5-23.645zm-228.76 175.23-3.3106 9.4356c44.06 15.516 87.121 28.348 130.32 37.861l-12.828-13.152c-37.73-9.0022-75.516-20.526-114.18-34.145zm426.75 44.891c-26.25 4.4262-51.716 7.5033-76.586 9.3262l-6.7207 10.434c30.225-1.9101 61.285-5.647 93.49-11.385zm-573.02 150.91c-23.169 15.071-48.004 27.179-73.742 36.041l-63.729 90.543v181.79l264.23-264.16c-42.969-12.699-85.195-27.607-126.76-44.223zm770.65 11.545c-29.712 35.307-48.117 84.657-48.117 139.25 0 44.177 12.055 84.923 32.361 117.59l132.87-160.17zm-346.16 52.008 99.924 208.53c11.205-0.63165 22.438-1.5534 32.84-2.7637l-99.953-205.69c-10.825 0.1113-21.597 0.0542-32.811-0.0703zm-187.16 8.5195c43.554 8.7662 87.978 15.088 133.48 18.471zm220.21 15.994a10 10 0 0 1 10 10 10 10 0 0 1-10 10 10 10 0 0 1-10-10 10 10 0 0 1 10-10zm22.434 46.684a10 10 0 0 1 10 10 10 10 0 0 1-10 10 10 10 0 0 1-10-10 10 10 0 0 1 10-10zm22.432 46.684a10 10 0 0 1 10 10 10 10 0 0 1-10 10 10 10 0 0 1-10-10 10 10 0 0 1 10-10zm22.434 46.686a10 10 0 0 1 10 10 10 10 0 0 1-10 10 10 10 0 0 1-10-10 10 10 0 0 1 10-10zm255.71 73.764a7.5 7.5 0 0 0-7.5 7.5 7.5 7.5 0 0 0 7.5 7.5 7.5 7.5 0 0 0 7.5-7.5 7.5 7.5 0 0 0-7.5-7.5zm17.148 19.9-37.385 9.4473-5.1035 10.115 12.475 30.428-33.979 17.6-3.0742 10.357 18.109 31.943-29.547 24.033-0.97266 10.686 24.938 29.23-23.727 34.486 1.5781 10.174 31.504 24.471-15.385 37.473 3.916 9.7129 36.086 15.887-5.5254 41.418 6.0976 8.3711 38.596 6.9844 3.0137 40.162 6.7812 6.9063 47.527 4.4453-2.6582 25.438 16.752-15.975 1.6133-15.443-6.7618-8.2461-48.769-4.5625-2.9746-39.633-6.1426-6.8184-37.26-6.7422 5.3242-39.906-4.4121-7.8555-34.549-15.211 14.771-35.98-2.3379-8.7715-30.416-23.627 22.977-33.396-0.47461-9.1172-23.688-27.768 28.508-23.188 1.793-9.5175-17.395-30.684 33.154-17.172 3.4883-9.5039-11.797-28.779 33.365-8.4316c1.2149-0.28955 2.2956-0.86349 3.1836-1.6367zm-49.99 36.955a7.5 7.5 0 0 0-7.5 7.5 7.5 7.5 0 0 0 7.5 7.5 7.5 7.5 0 0 0 7.5-7.5 7.5 7.5 0 0 0-7.5-7.5zm-19.293 62.191a7.5 7.5 0 0 0-7.5 7.5 7.5 7.5 0 0 0 7.5 7.5 7.5 7.5 0 0 0 7.5-7.5 7.5 7.5 0 0 0-7.5-7.5zm-5.543 67.324a7.5 7.5 0 0 0-7.5 7.5 7.5 7.5 0 0 0 7.5 7.5 7.5 7.5 0 0 0 7.5-7.5 7.5 7.5 0 0 0-7.5-7.5zm9.8535 73.893a7.5 7.5 0 0 0-7.5 7.5 7.5 7.5 0 0 0 7.5 7.5 7.5 7.5 0 0 0 7.5-7.5 7.5 7.5 0 0 0-7.5-7.5zm27.094 69.785a7.5 7.5 0 0 0-7.5 7.5 7.5 7.5 0 0 0 7.5 7.5 7.5 7.5 0 0 0 7.5-7.5 7.5 7.5 0 0 0-7.5-7.5zm41.666 58.908a7.5 7.5 0 0 0-7.5 7.5 7.5 7.5 0 0 0 7.5 7.5 7.5 7.5 0 0 0 7.5-7.5 7.5 7.5 0 0 0-7.5-7.5zm58.086 52.135a7.5 7.5 0 0 0-7.5 7.5 7.5 7.5 0 0 0 7.5 7.5 7.5 7.5 0 0 0 7.5-7.5 7.5 7.5 0 0 0-7.5-7.5z" fill="#44f"/>
</g>
<g transform="matrix(-.12677 0 0 -.1304 45.18 93.953)">
<path d="m664.82 217.75-17.85 3.0039c-1.7524 4.0697-2.8027 9.2619-2.8027 14.92 0 13.058 5.5964 23.645 12.5 23.645 6.9035 0 12.5-10.586 12.5-23.645 0-7.1666-1.6854-13.588-4.3477-17.924zm-152.32 0.42968a12.5 23.644 0 0 0-12.5 23.645 12.5 23.644 0 0 0 12.5 23.645 12.5 23.644 0 0 0 12.5-23.645 12.5 23.644 0 0 0-12.5-23.645zm-228.76 175.23-3.3106 9.4356c44.06 15.516 87.121 28.348 130.32 37.861l-12.828-13.152c-37.73-9.0022-75.516-20.526-114.18-34.145zm426.75 44.891c-26.25 4.4262-51.716 7.5033-76.586 9.3262l-6.7207 10.434c30.225-1.9101 61.285-5.647 93.49-11.385zm-573.02 150.91c-23.169 15.071-48.004 27.179-73.742 36.041l-63.729 90.543v181.79l264.23-264.16c-42.969-12.699-85.195-27.607-126.76-44.223zm770.65 11.545c-29.712 35.307-48.117 84.657-48.117 139.25 0 44.177 12.055 84.923 32.361 117.59l132.87-160.17zm-346.16 52.008 99.924 208.53c11.205-0.63165 22.438-1.5534 32.84-2.7637l-99.953-205.69c-10.825 0.1113-21.597 0.0542-32.811-0.0703zm-187.16 8.5195c43.554 8.7662 87.978 15.088 133.48 18.471zm220.21 15.994a10 10 0 0 1 10 10 10 10 0 0 1-10 10 10 10 0 0 1-10-10 10 10 0 0 1 10-10zm22.434 46.684a10 10 0 0 1 10 10 10 10 0 0 1-10 10 10 10 0 0 1-10-10 10 10 0 0 1 10-10zm22.432 46.684a10 10 0 0 1 10 10 10 10 0 0 1-10 10 10 10 0 0 1-10-10 10 10 0 0 1 10-10zm22.434 46.686a10 10 0 0 1 10 10 10 10 0 0 1-10 10 10 10 0 0 1-10-10 10 10 0 0 1 10-10zm255.71 73.764a7.5 7.5 0 0 0-7.5 7.5 7.5 7.5 0 0 0 7.5 7.5 7.5 7.5 0 0 0 7.5-7.5 7.5 7.5 0 0 0-7.5-7.5zm17.148 19.9-37.385 9.4473-5.1035 10.115 12.475 30.428-33.979 17.6-3.0742 10.357 18.109 31.943-29.547 24.033-0.97266 10.686 24.938 29.23-23.727 34.486 1.5781 10.174 31.504 24.471-15.385 37.473 3.916 9.7129 36.086 15.887-5.5254 41.418 6.0976 8.3711 38.596 6.9844 3.0137 40.162 6.7812 6.9063 47.527 4.4453-2.6582 25.438 16.752-15.975 1.6133-15.443-6.7618-8.2461-48.769-4.5625-2.9746-39.633-6.1426-6.8184-37.26-6.7422 5.3242-39.906-4.4121-7.8555-34.549-15.211 14.771-35.98-2.3379-8.7715-30.416-23.627 22.977-33.396-0.47461-9.1172-23.688-27.768 28.508-23.188 1.793-9.5175-17.395-30.684 33.154-17.172 3.4883-9.5039-11.797-28.779 33.365-8.4316c1.2149-0.28955 2.2956-0.86349 3.1836-1.6367zm-49.99 36.955a7.5 7.5 0 0 0-7.5 7.5 7.5 7.5 0 0 0 7.5 7.5 7.5 7.5 0 0 0 7.5-7.5 7.5 7.5 0 0 0-7.5-7.5zm-19.293 62.191a7.5 7.5 0 0 0-7.5 7.5 7.5 7.5 0 0 0 7.5 7.5 7.5 7.5 0 0 0 7.5-7.5 7.5 7.5 0 0 0-7.5-7.5zm-5.543 67.324a7.5 7.5 0 0 0-7.5 7.5 7.5 7.5 0 0 0 7.5 7.5 7.5 7.5 0 0 0 7.5-7.5 7.5 7.5 0 0 0-7.5-7.5zm9.8535 73.893a7.5 7.5 0 0 0-7.5 7.5 7.5 7.5 0 0 0 7.5 7.5 7.5 7.5 0 0 0 7.5-7.5 7.5 7.5 0 0 0-7.5-7.5zm27.094 69.785a7.5 7.5 0 0 0-7.5 7.5 7.5 7.5 0 0 0 7.5 7.5 7.5 7.5 0 0 0 7.5-7.5 7.5 7.5 0 0 0-7.5-7.5zm41.666 58.908a7.5 7.5 0 0 0-7.5 7.5 7.5 7.5 0 0 0 7.5 7.5 7.5 7.5 0 0 0 7.5-7.5 7.5 7.5 0 0 0-7.5-7.5zm58.086 52.135a7.5 7.5 0 0 0-7.5 7.5 7.5 7.5 0 0 0 7.5 7.5 7.5 7.5 0 0 0 7.5-7.5 7.5 7.5 0 0 0-7.5-7.5z" fill="#44f"/>
</g>
<g transform="matrix(.12677 0 0 .1304 -119.62 -166.85)">
<path d="m1025.5 697.65-25.28-20.368c-10.283 12.5-20.235 35.104-20.235 62.721 0 3.9216 0.19511 7.744 0.68552 11.316zm-91.731 110.09c-8.5865-19.606-13.783-42.732-13.783-67.737 0-41.103 14.179-77.079 34.055-100.8l-22.996-19.27c-24.768 29.558-41.059 72.223-41.059 120.07 0 34.746 8.5561 66.77 22.761 93.011m-30.245-193.4c-72.404 20.612-141.72 33.191-208.49 39.261l81.558 169.13-30.273 6.2928-97.437-202.31c88.306-4.0698 181-20.042 280.02-51.313m-313.01 259.66-86.816-180.5c-45.302-3.4498-89.726-9.7722-133.17-18.417-16.411-15.827-34.458-30.224-53.427-42.809 66.752 17.082 134.82 28.601 205.75 32.701l102.1 210.47c-11.04-0.0306-22.665-0.50875-34.442-1.4411zm287.42 10.67c-110.83 43.705-240.48 69.421-397.61 32.622l-2.7075-31.5c160.35 40.145 287.86 12.701 399.99-33.312l10.341 18.761zm-882.96 69.655 321.91-322.17c-52.749-13.601-104.26-30.608-155.13-50.199-8.8692 7.2178-18.128 13.977-28.235 20.644 41.136 16.898 83.362 31.805 126.33 44.505l-264.54 264.45m318.98-765.22-8.6665-47.666 45-5-5-50 44.268-4.9186m-120.08 170.88-9.1914-45.957 47.563-8.6478m-78.115 111.16-9.4479-42.515 45.754-9.1508m-71.392 101.6-9.3618-37.447 42.277-9.3949m-68.12 96.94-14.157-42.545 47.383-4.7383m463.18 91.304c4.3867-10.109 7.592-19.187 9.4365-26.565 6.0102-24.041 8.4081-58.918 9.4253-86.4 3.6277 4.7834 7.072 10.926 10.391 17.15 24.307 45.579 42.878 96.272 53.034 163.91z"/>
</g>
<g transform="matrix(-.12677 0 0 -.1304 45.18 93.953)">
<path d="m1025.5 697.65-25.28-20.368c-10.283 12.5-20.235 35.104-20.235 62.721 0 3.9216 0.19511 7.744 0.68552 11.316zm-91.731 110.09c-8.5865-19.606-13.783-42.732-13.783-67.737 0-41.103 14.179-77.079 34.055-100.8l-22.996-19.27c-24.768 29.558-41.059 72.223-41.059 120.07 0 34.746 8.5561 66.77 22.761 93.011m-30.245-193.4c-72.404 20.612-141.72 33.191-208.49 39.261l81.558 169.13-30.273 6.2928-97.437-202.31c88.306-4.0698 181-20.042 280.02-51.313m-313.01 259.66-86.816-180.5c-45.302-3.4498-89.726-9.7722-133.17-18.417-16.411-15.827-34.458-30.224-53.427-42.809 66.752 17.082 134.82 28.601 205.75 32.701l102.1 210.47c-11.04-0.0306-22.665-0.50875-34.442-1.4411zm287.42 10.67c-110.83 43.705-240.48 69.421-397.61 32.622l-2.7075-31.5c160.35 40.145 287.86 12.701 399.99-33.312l10.341 18.761zm-882.96 69.655 321.91-322.17c-52.749-13.601-104.26-30.608-155.13-50.199-8.8692 7.2178-18.128 13.977-28.235 20.644 41.136 16.898 83.362 31.805 126.33 44.505l-264.54 264.45m318.98-765.22-8.6665-47.666 45-5-5-50 44.268-4.9186m-120.08 170.88-9.1914-45.957 47.563-8.6478m-78.115 111.16-9.4479-42.515 45.754-9.1508m-71.392 101.6-9.3618-37.447 42.277-9.3949m-68.12 96.94-14.157-42.545 47.383-4.7383m463.18 91.304c4.3867-10.109 7.592-19.187 9.4365-26.565 6.0102-24.041 8.4081-58.918 9.4253-86.4 3.6277 4.7834 7.072 10.926 10.391 17.15 24.307 45.579 42.878 96.272 53.034 163.91z"/>
</g>
<g transform="matrix(.12677 0 0 .1304 -119.62 -166.85)">
<path d="m485.03 934.42c143.12 31.822 266.36 13.765 371.36-21.994m-371.68-8.8154c157.12 36.799 286.78 11.083 397.61-32.622m-374.44-191.11 87.077 180.37m160.64-12.268-81.542-168.91m218.32 178.53c-20.318-32.696-32.372-73.442-32.372-117.62 0-54.589 18.405-103.94 48.065-139.34m189.6 662.03c-23.93-244.9-111.06-277.3-205.31-405.13l132.97-159.91m274.68 225.88-639.63-526.76m-338.91 221.77-320.67 320.67m320.33-320.64c98.705 64.379 163.89 175.34 163.89 301.43 0 83.944-28.889 161.18-77.327 222.44m-241.63-574.09c222.81 85.351 455.94 122.61 741.86 32.315m-233.89 77.985c66.782-5.8522 136.1-18.431 208.5-39.043m-507.72 21.675c43.554 8.7662 87.977 15.089 133.48 18.471m-370.97-90.4c41.734 16.472 83.959 31.38 126.9 44.2m615.88-55.726c-264.41 78.944-479.53 46.189-688.85-31.994m646.68-2.7691c-234.37 63.528-424.87 35.566-614.93-33.434m586.32 9.9221c-215.43 54.101-390.78 28.357-568.55-35.351m539.58 11.504c-197.22 45.287-358.3 21.163-524.19-37.804m284.95 30.687c-93.461-4.6264-181.47-25.78-271.81-57.789m481.64 40.68c-52.358 10.79-101.99 16.482-149.86 17.777m-73.677 162.08 101.55 210.35m96.371-7.3941-97.62-202.21m-66.243 0.79474 100.65 208.49m31.964-2.7927-99.313-205.72m-118.85 186.68c160.53 43.721 283.22 17.466 395.16-28.663m-389.07 61.252c160.35 40.145 287.86 12.701 399.99-33.312m-881.99-123.03 502.97-715.77m-195.14 277.86c-19.154 191.73-120.84 304.13-244.15 347.62m418.57 339.05c58.999 12.802 114.94 17.451 167.75 16.067m-165.85-36.124c58.492 12.899 113.78 17.574 165.89 16.178m-166.67-6.1133c58.684 12.824 114.24 17.478 166.66 16.091m-169.13 3.8372c59.417 12.832 115.84 17.498 169.12 16.12m-0.0232 28.817c-68.6 1.7975-131.9 13.776-189.71 31.289m18.904-66.365c59.965 12.916 116.97 17.622 170.82 16.247m-0.0288-1.1478c-65.257 1.6664-125.87 12.263-181.49 28.001m181.45 11.922c-72.951 1.9543-139.69 15.805-200.34 35.65m200.36-45.628c-70.625 1.8684-135.53 14.705-194.67 33.299m194.68-53.256c-66.826 1.7285-128.71 12.966-185.35 29.531m12.646-44.801c16.699 3.5924 33.177 6.5571 49.427 8.9384m0.55838-0.033c-18.988 3.7396-37.473 8.138-55.443 13.072m508.74-264.67c-0.36473-3.7065-0.55984-7.5289-0.55984-11.45 0-27.616 9.9523-50.221 20.043-62.264m-66.26 130c-8.5865-19.606-13.783-42.732-13.783-67.737 0-41.103 14.179-77.079 34.055-100.8m-41.293 193.81c-14.205-26.241-22.761-58.266-22.761-93.011 0-47.846 16.291-90.51 41.059-120.07m193.77 615.31c-13.615-111.34-41.959-181-78.509-235.69-35.05-52.438-75.124-89.992-115.57-141.24l98.838-118.86m0.1142 0.33891 270.3 222.6m-234.59 332.2-20.965-13.674c-66.105-43.116-109.44-116.18-109.44-200.92 0-47.182 13.333-90.316 36.648-127.13m72.08 363.41-15.675-10.224c-74.255-48.432-123.05-130.97-123.05-226.05 0-56.187 16.956-107.64 46.23-150.68m49.143 430.31-5.0972-3.325c-90.555-59.063-150.28-160.55-150.28-276.3 0-74.36 24.612-142.69 66.254-197.87m170.17 277.76a65 70 0 0 1-61.423-69.894 65 70 0 0 1 17.291-47.542m58.6-287.51c2.9453-15.558 13.38-62.448 34.109-74.948 25.842-15.585 34.723-11.668 62.036-30.683 31.58-21.985 61.132 0.18596 20 25-34.489 20.806-32.036 15.683-47.036 20.683 15 35 10 60-10 70m75-82.424c44.022-16.043 67.9 3.1383 10 22.424-82.883 27.607-70.718-0.29718-10-22.424v0m1.7243-28.197c39.536-13.043 58.998 5.4458 5.1115 24.032-28.255 9.7455-45.072 12.574-52.426 11.18m52.258 16.396c42.513-16.043 65.572 3.1383 9.6572 22.424-80.042 27.607-68.294-0.29718-9.6572-22.424v0m9.9539 23.801c38.29-14.166 57.68 5.9988 7.4085 22.818-71.963 24.077-60.221-3.28-7.4085-22.818v0m-3.824 46.316c9.1591-9.437 15.742-18.45 17.202-25.648m-79.761 74.445c14.707-9.0963 34.53-23.214 50.772-37.604m-12.934-25.581c13.801 28.309 34.27 51.3 14.56 106.34m12.414 9.6534c12.692-33.117 12.724-58.555 6.7671-78.837-4.6665-15.888-12.028-28.085-17.971-39.347m-73.845-239.52c-15-55-85 15-30 30-55 15 15 85 30 30 15 55 85-15 30-30 55-15-15-85-30-30v0m16.158 30a16.158 16.336 0 0 1-16.158 16.336 16.158 16.336 0 0 1-16.158-16.336 16.158 16.336 0 0 1 16.158-16.336 16.158 16.336 0 0 1 16.158 16.336v0m-43.625-49.676c-36.29-73.766 91.224-73.766 54.934 0m22.209 22.209c73.766-36.29 73.766 91.224 0 54.934m-22.209 22.209c36.29 73.766-91.224 73.766-54.934 0m-22.209-22.209c-73.766 36.29-73.766-91.224 0-54.934m19.676 27.467h-45m5 0a5 5 0 0 1-5 5 5 5 0 0 1-5-5 5 5 0 0 1 5-5 5 5 0 0 1 5 5v0m70-30v-45m0 5a5 5 0 0 1-5-5 5 5 0 0 1 5-5 5 5 0 0 1 5 5 5 5 0 0 1-5 5v0m30 70h45m-5 0a5 5 0 0 1 5-5 5 5 0 0 1 5 5 5 5 0 0 1-5 5 5 5 0 0 1-5-5v0m-70 30v45m0-5a5 5 0 0 1 5 5 5 5 0 0 1-5 5 5 5 0 0 1-5-5 5 5 0 0 1 5-5v0m11.482-81.482 13.518-13.518m5 0a5 5 0 0 1-5 5 5 5 0 0 1-5-5 5 5 0 0 1 5-5 5 5 0 0 1 5 5v0m-18.522 36.478 13.522 13.522m0 5a5 5 0 0 1-5-5 5 5 0 0 1 5-5 5 5 0 0 1 5 5 5 5 0 0 1-5 5v0m-36.479-41.479-13.521-13.521m-5 0a5 5 0 0 0 5 5 5 5 0 0 0 5-5 5 5 0 0 0-5-5 5 5 0 0 0-5 5v0m18.518 36.482-13.518 13.518m0 5a5 5 0 0 0 5-5 5 5 0 0 0-5-5 5 5 0 0 0-5 5 5 5 0 0 0 5 5v0m35.154 73.59 3.9163 6.5272m11.884-15.193 3.6027 6.0044m-50.052 23.785c-31.728-18.299-66.633-26.312-104.51-24.714m104.62 24.663c-45.851-40.289-91.938-69.012-139.62-19.663 39.672 4.959 54.752 44.346 137.92 20.602m82.077-35.602c16.701-23.17 35.506-41.468 65-35-3.6652 22.352-25.716 34.307-50 45m-574.04-649.82c123.19 169.23 234.41 279.32 247.06 600.54m-265.73-575.25c118.34 161.28 217.51 260.56 234.43 549.41m-193.94-343.71c47.133 70.394 80.465 143.36 96.296 263.2m-99.587-212.07c3.5673 6.0903 7.0116 12.233 10.331 18.456 24.307 45.579 42.878 96.272 54.719 165.25m-744.53 120.15 411.89-586.15m219.57-5.8444c9.1826 26.174 58.539 167.7 58.539 185.84 0 20-10 60-10 70s0 80-10 120-60 130-90 130-70.354-34.592-100-30c-70.891 10.981-142.67-126.6-130-130 0 0-5.3468 10.755-10 10-17.89-2.9032-28.811-31.841-34.625-54.087m-141.22 56.632c-33.673-38.774-92.781-42.233-154.16-42.545 24.698-11.302 55.318-13.788 70-40 19.51 12.839 44.295 11.371 70.358 6.4384m-32.463 46.173c75.567-107.54 151.13-215.07 226.7-322.61m-226.7 322.61v0m-67.698-11.416c1.4588-0.57067 2.9248-1.1642 4.3949-1.7849 10.375-4.3807 21.251-10.634 30.031-20.346 17.087 6.838 35.606 6.8854 53.746 4.5138m-48.369-203.58c50 50-6.7759 124.44 29.752 149.36 50.522 34.455 76.102-27.914 47.612-46.779-26.006-17.22-48.135 19.145-27.364 27.423 13.525 5.3904 20 0 20-10m-70-120c56.222 42.374 109.51-27.469 141.65 5.0268 36.779 37.179-11.958 74.012-32.409 52.48-22.331-23.511 11.171-52.634 23.499-31.037 8.0276 14.062-0.29378 19.991-9.8997 16.875m-22.846 86.656c17.041-28.965-18.498-48.181-40-70 27.148 10.568 55.142 33.88 80 10m40.122-53.906c-4.3939-39.668-30.887-72.24-53.548-106.04m65.771 88.566c-8.1028-33.769-29.143-62.079-47.634-88.701m83.956 132.75-8.6665-47.666 45-5-5-50 44.268-4.9186m-120.08 170.88-9.1914-45.957 47.563-8.6478m-78.115 111.16-9.4479-42.515 45.754-9.1508m-71.392 101.6-9.3618-37.447 42.277-9.3949m-68.12 96.94-14.157-42.545 47.383-4.7383m-33.226 47.284v0m249.73-225.58c81.195-20.044 121.84-71.679 157.85-126.92m-54.164 0.02988c-16.37 23.325-33.164 42.983-55.437 58.051m73.583-58.036c-24.8 36.445-50.754 66.711-92.73 85.517m110.78-85.527c-31.093 46.79-64.663 87.322-126.32 107.46m243.27 2.9527c-42.553-27.185-70.095-67.634-94.957-110.45m52.706 0.042211c3.4625 5.4689 6.958 10.744 10.537 15.816m-28.191-15.764c12.792 20.952 26.051 39.934 41.924 56.083m-59.443-56.028c19.568 32.943 40.447 62.822 69.325 85.449m-322.62 179.37c10 55-15 45 0 25m85-90c32.57-21.833 65.334-43.275 130 0-2.1012-1.0479 2.3875 5.2988 0.44706 3.9858-35.447-23.986-79.677-35.78-130.45-3.9858v0m180-5c31.439-37.479 60-20 85-10-25-5-60-20-85 15v-5m0 0c-10 90 20.912 95.608 20 150 0 10-30 5-30 20m-35-45c-21.322 0.13819-52.198 34.45-10 35 7.1724 0.0935 17.261-10.366 22.041-10.045 38.618 2.5959-0.87669 5.2792-12.041 5.0452m-35 40v10l5-5-5-5v0m105 0v10l-5-5 5-5v0m-5 5c-5 0-25-5-30-5s-10 5-15 5-15-5-20-5c0 0 5 0 0 0s-20 5-30 5m30 20c5 15 40 15 40 0m-165-170c28.544 10.017 49.297-25 75-25 30 0 44.732 33.141 50 30m-95-10c22.444 55 85 0 95 10m125-25c-32.581-22.584-65 15-80 20 15 0 65 35 77.777-13.841m-333.6 110.36c-0.0904-0.0285-0.18069-0.0571-0.27105-0.0857m1.7954 11.032c-2.8679-0.89247-5.7422-1.7992-8.6235-2.7199m68.668 90.961c-43.199-9.5129-86.259-22.346-130.32-37.862m38.583-71.279c-5.2888-1.8143-10.608-3.6733-15.961-5.576m28.698 20.405c-10.573-3.4797-21.247-7.1436-32.048-10.983m55.838 28.985c-19.184-5.8108-38.609-12.26-58.427-19.293m64.714 31.584c-22.019-6.4492-44.295-13.743-67.041-21.798m74.384 34.288c-25.251-7.1084-50.758-15.332-76.825-24.544m85.167 37.182c-28.904-7.7699-58.04-17.008-87.836-27.521m97.263 40.29c-33.023-8.4104-66.216-18.744-100.18-30.714m111.16 43.683c-37.73-9.0022-75.516-20.526-114.18-34.144m436.93 53.266c-32.205 5.7378-63.266 9.4751-93.491 11.385m41.862-53.992c-4.158 0.5256-8.2946 1.0148-12.411 1.468m23.035 7.1903c-9.5225 1.3127-18.935 2.4382-28.248 3.3815m38.539 5.2284c-14.873 2.2081-29.482 3.968-43.868 5.298m54.382 3.1868c-20.593 3.2743-40.693 5.7042-60.396 7.3374m70.413 1.1423c-26.25 4.4262-51.717 7.5027-76.587 9.3256m-423.34 105.14 15.02-46.562m70.863-66.178-44.981 126.77m80.303-115.65-37.416 128.88m77.575-117.72-32.474 129.9m68.86-121.39-20.681 132.36m44.38 8.1872c4.3371-43.872 6.407-90.011 10.62-134.01m32.883 139.7 3.831-134.09m40.244 138.01-3.9476-134.22m47.898 136.18-15.968-131.73m58.679 131.65-26.883-122.89m72.415 120.68-45.255-131.65m83.503 128.17-50.298-129.94m96.051 123.74-59.416-127.32m106.11 118.82-73.99-123.32m127.93 110.79-98.808-115.99m-491.65-108.18c1.5498 37.591-1.7668 78.673-6.7641 120.96m21.894-142.46c1.2114 36.591-2.0437 76.387-6.8769 117.31m21.832-138.6c1.1767 32.637-1.2417 67.853-5.1928 104.17m-41.305-38.012c1.6823 37.378-1.5165 78.258-6.4405 120.37m-8.5051-99.122c1.5328 36.48-1.5314 76.258-6.2762 117.24m-8.6716-95.952c1.3539 34.734-1.4109 72.422-5.7932 111.27m-9.1585-89.98c1.1676 32.45-1.2178 67.448-5.1293 103.54m-9.8237-82.175c0.97587 29.706-0.98897 61.521-4.3499 94.338m-10.779-72.824c1.0793 26.37-0.2334 54.456-2.839 83.469m-12.317-61.925c1.112 22.584 0.41353 46.466-1.393 71.144m-13.548-49.915c0.86943 18.799 0.49838 38.487-0.71056 58.777m-17.705-32.576c0.4388 13.78 0.24738 28.011-0.42041 42.585m-14.54-21.282c0.26622 9.2064 0.25442 18.612 0.01022 28.185m199.84-312.56c0.94371 24.246-0.11906 49.931-2.3377 76.445m809 884.51c-23.93-244.9-111.06-277.3-205.31-405.13l132.97-159.91m8.653 435.71-58.091 42.568c-8.064 7.6989-8.2768 20.505-0.47312 28.468 7.8037 7.9626 20.611 8.008 28.471 0.1009l48.168-54.161m-35.356-140.99-31.076-22.709c-3.2206-2.4238-7.0983-3.8181-11.125-4-8.8659-0.4018-16.936 5.0865-19.821 13.479-2.885 8.393 0.1055 17.683 7.3447 22.817l64.791 39.878m0 0-59.602-27.54c-1.9129-0.5963-3.9045-0.9018-5.9082-0.9063-9.9982-0.022-18.477 7.3422-19.855 17.245-1.3781 9.9028 4.7678 19.302 14.392 22.011l64.382 14.675m0 0-61.169-4.6403c-11.114 0.6676-19.544 10.282-18.752 21.388s10.499 19.428 21.596 18.512l60.531-10.633m0 0-61.285 15.983c-10.332 4.2161-15.216 16.071-10.852 26.342 4.3639 10.27 16.288 14.984 26.495 10.473l57.195-28.361m18.075 16.975-46.821 73.927c-4.8138 10.068-0.458 22.128 9.6783 26.796s22.132 0.1389 26.654-10.064l29.286-82.678m0 0-25.173 104.78c-1.4688 11.068 6.4073 21.195 17.496 22.497 11.089 1.3018 21.096-6.726 22.231-17.833l6.3245-53.887m53.275-258.87c10 35-35 60-45-10-10 70-55 45-45 10-35 10-60-35 10-45-70-10-45-55-10-45-10-35 35-60 45 10 10-70 55-45 45-10 35-10 60 35-10 45 70 10 45 55 10 45v0m125.01 136.44c-10-70-55-45-45-10-35-10-60 35 10 45m-44.514-27.444c-19.862-6.9528-37.333-16.293-51.414-29.111-25.365-23.089-41.372-57.883-41.07-114.58m-18.137 32.134c5.2044 43.733 21.51 75.18 45.744 97.239 27.69 25.206 64.317 37.792 104.24 45.159m53.774-53.299c-6.9037-37.404-17.927-72.709-39.093-101.52-17.397-23.683-41.763-42.338-75.112-53.48m7.6999 24.011c22.292 9.9045 38.656 24.104 51.295 41.309 14.532 19.783 24.032 44.131 30.678 71.049m-322.71-192.51c2.9301 3.2658 6.0073 6.3595 9.2242 9.2877 24.942 22.704 57.134 35.169 92.458 42.804m-13.309-23.995c-25.802-7.2742-48.321-17.792-65.686-33.599-5.6113-5.1078-10.765-10.788-15.385-17.152m77.568-93.262c10.703 7.8666 19.6 17.086 27.163 27.381 11.321 15.412 19.588 33.595 25.831 53.604m28.461 31.245c-6.3141-32.318-15.931-62.91-32.796-88.9m-39.924 52.199a15 15 0 0 1-15 15 15 15 0 0 1-15-15 15 15 0 0 1 15-15 15 15 0 0 1 15 15v0m160 195a15 15 0 0 1-15 15 15 15 0 0 1-15-15 15 15 0 0 1 15-15 15 15 0 0 1 15 15v0m-30 130a15 15 0 0 1-15 15 15 15 0 0 1-15-15 15 15 0 0 1 15-15 15 15 0 0 1 15 15v0m70.859-24.341-3.2617 3.7129m40.809-46.453-37.547 42.74m50.988-58.041-13.442 15.301m31.594-35.964-18.153 20.664m-71.037 58.135-87.429 99.522m176.62-201.05-22.258 25.336m-83.073 71.836-74.117 84.369m136.45-155.32-2.1246 2.4184m45.122-51.364-27.221 30.986m-134.83 130.75-20.608 23.458m61.913-70.477-22.05 25.1m67.129-76.414-13.608 15.49m41.115-46.802-11.84 13.478m59.996-68.295-33.032 37.601m-136.95 133.16-16.314 18.571m50.955-58.003-22.05 25.1m103.21-117.49-67.278 76.584m118.22-134.57-36.49 41.538m-109.32 101.71-41.305 47.018m129.06-146.91-74.221 84.487m120.69-137.38-32.535 37.035m-114.44 107.54-33.009 37.575m125.23-142.55-78.938 89.857m122.1-138.99-29.59 33.683m-117.53 111.05-26.269 29.903m70.979-80.796-31.513 35.872m81.28-92.523-32.072 36.508m73.126-83.241-27.736 31.572m-118.39 112.04-20.951 23.849m65.588-74.66-31.339 35.674m81.294-92.539-33.481 38.112m73.429-83.586-26.857 30.572m-117.06 110.52-17.549 19.976m109.76-124.94-78.614 89.488m118.73-135.16-27.031 30.77m-113.47 106.43-15.566 17.719m102.96-117.2-73.251 83.382m114.77-130.65-28.299 32.213m-107.53 99.675-15.528 17.675m55.428-63.095-24.923 28.37m53.992-61.459-14.944 17.011m70.219-79.931-30.549 34.775m-99.296 90.303-17.133 19.503m46.939-53.432-13.685 15.578m68.359-77.814-0.1909 0.21729m33.972-38.671-33.781 38.453m-88.494 78.007-20.74 23.609m45.983-52.343-7.8872 8.9782m93.334-106.24-36.164 41.166m-85.291 74.36-18.155 20.666m45.225-51.48-1.266 1.4411m4.9223-5.6032-3.6563 4.162m43.82-49.881-1.9665 2.2385m40.947-46.611-6.1599 7.0119m-116.45 109.83-13.842 15.756m124.87-142.14-8.3082 9.4574m-107.31 99.425-18.121 20.627m122.15-139.05-11.49 13.08m-105.78 97.687-14.063 16.008m119.75-136.31-3.7641 4.2848m-116.22 109.57-9.1504 10.416m44.475-50.627-1.3848 1.5762m42.156-47.987-3.7423 4.2598m36.045-41.03-4.0637 4.6258m-108.88 101.21-14.25 16.221m23.578-26.84-9.3286 10.619m13.392-15.244-4.0636 4.6257m92.031-104.76-24.241 27.593m-80.042 68.386-21.139 24.063m113.84-129.58-17.25 19.636m-91.07 80.939-15.41 17.541m33.638-38.291-3.7247 4.24m36.559-41.616-12.538 14.272m31.7-36.084-2.5438 2.8957m29.055-33.073-11.271 12.83m-100.32 91.47-10.514 11.968m89.707-102.11-65.154 74.166m85.968-97.859-6.1307 6.9786m-107.76 99.942-6.5874 7.4985m92.781-105.61-72.596 82.638m88.713-100.98-1.972 2.2447m-113.29 106.23-3.554 4.0456m47.731-54.333-30.883 35.154m77.883-88.656-27.236 31.003m-75.911 63.683-1.4103 1.6054m53.44-60.831-38.857 44.232m44.357-50.492-5.4995 6.2601m42.107-47.931-36.608 41.671m-68.435 55.173-0.14794 0.1684m94.901-108.03-81.545 92.824m-687.46-219.18-264.26 264.26" fill="none" stroke="#44f" stroke-linecap="round" stroke-linejoin="round" stroke-width="6"/>
</g>
<g transform="matrix(-.12677 0 0 -.1304 45.18 93.953)">
<path d="m485.03 934.42c143.12 31.822 266.36 13.765 371.36-21.994m-371.68-8.8154c157.12 36.799 286.78 11.083 397.61-32.622m-374.44-191.11 87.077 180.37m160.64-12.268-81.542-168.91m218.32 178.53c-20.318-32.696-32.372-73.442-32.372-117.62 0-54.589 18.405-103.94 48.065-139.34m189.6 662.03c-23.93-244.9-111.06-277.3-205.31-405.13l132.97-159.91m274.68 225.88-639.63-526.76m-338.91 221.77-320.67 320.67m320.33-320.64c98.705 64.379 163.89 175.34 163.89 301.43 0 83.944-28.889 161.18-77.327 222.44m-241.63-574.09c222.81 85.351 455.94 122.61 741.86 32.315m-233.89 77.985c66.782-5.8522 136.1-18.431 208.5-39.043m-507.72 21.675c43.554 8.7662 87.977 15.089 133.48 18.471m-370.97-90.4c41.734 16.472 83.959 31.38 126.9 44.2m615.88-55.726c-264.41 78.944-479.53 46.189-688.85-31.994m646.68-2.7691c-234.37 63.528-424.87 35.566-614.93-33.434m586.32 9.9221c-215.43 54.101-390.78 28.357-568.55-35.351m539.58 11.504c-197.22 45.287-358.3 21.163-524.19-37.804m284.95 30.687c-93.461-4.6264-181.47-25.78-271.81-57.789m481.64 40.68c-52.358 10.79-101.99 16.482-149.86 17.777m-73.677 162.08 101.55 210.35m96.371-7.3941-97.62-202.21m-66.243 0.79474 100.65 208.49m31.964-2.7927-99.313-205.72m-118.85 186.68c160.53 43.721 283.22 17.466 395.16-28.663m-389.07 61.252c160.35 40.145 287.86 12.701 399.99-33.312m-881.99-123.03 502.97-715.77m-195.14 277.86c-19.154 191.73-120.84 304.13-244.15 347.62m418.57 339.05c58.999 12.802 114.94 17.451 167.75 16.067m-165.85-36.124c58.492 12.899 113.78 17.574 165.89 16.178m-166.67-6.1133c58.684 12.824 114.24 17.478 166.66 16.091m-169.13 3.8372c59.417 12.832 115.84 17.498 169.12 16.12m-0.0232 28.817c-68.6 1.7975-131.9 13.776-189.71 31.289m18.904-66.365c59.965 12.916 116.97 17.622 170.82 16.247m-0.0288-1.1478c-65.257 1.6664-125.87 12.263-181.49 28.001m181.45 11.922c-72.951 1.9543-139.69 15.805-200.34 35.65m200.36-45.628c-70.625 1.8684-135.53 14.705-194.67 33.299m194.68-53.256c-66.826 1.7285-128.71 12.966-185.35 29.531m12.646-44.801c16.699 3.5924 33.177 6.5571 49.427 8.9384m0.55838-0.033c-18.988 3.7396-37.473 8.138-55.443 13.072m508.74-264.67c-0.36473-3.7065-0.55984-7.5289-0.55984-11.45 0-27.616 9.9523-50.221 20.043-62.264m-66.26 130c-8.5865-19.606-13.783-42.732-13.783-67.737 0-41.103 14.179-77.079 34.055-100.8m-41.293 193.81c-14.205-26.241-22.761-58.266-22.761-93.011 0-47.846 16.291-90.51 41.059-120.07m193.77 615.31c-13.615-111.34-41.959-181-78.509-235.69-35.05-52.438-75.124-89.992-115.57-141.24l98.838-118.86m0.1142 0.33891 270.3 222.6m-234.59 332.2-20.965-13.674c-66.105-43.116-109.44-116.18-109.44-200.92 0-47.182 13.333-90.316 36.648-127.13m72.08 363.41-15.675-10.224c-74.255-48.432-123.05-130.97-123.05-226.05 0-56.187 16.956-107.64 46.23-150.68m49.143 430.31-5.0972-3.325c-90.555-59.063-150.28-160.55-150.28-276.3 0-74.36 24.612-142.69 66.254-197.87m170.17 277.76a65 70 0 0 1-61.423-69.894 65 70 0 0 1 17.291-47.542m58.6-287.51c2.9453-15.558 13.38-62.448 34.109-74.948 25.842-15.585 34.723-11.668 62.036-30.683 31.58-21.985 61.132 0.18596 20 25-34.489 20.806-32.036 15.683-47.036 20.683 15 35 10 60-10 70m75-82.424c44.022-16.043 67.9 3.1383 10 22.424-82.883 27.607-70.718-0.29718-10-22.424v0m1.7243-28.197c39.536-13.043 58.998 5.4458 5.1115 24.032-28.255 9.7455-45.072 12.574-52.426 11.18m52.258 16.396c42.513-16.043 65.572 3.1383 9.6572 22.424-80.042 27.607-68.294-0.29718-9.6572-22.424v0m9.9539 23.801c38.29-14.166 57.68 5.9988 7.4085 22.818-71.963 24.077-60.221-3.28-7.4085-22.818v0m-3.824 46.316c9.1591-9.437 15.742-18.45 17.202-25.648m-79.761 74.445c14.707-9.0963 34.53-23.214 50.772-37.604m-12.934-25.581c13.801 28.309 34.27 51.3 14.56 106.34m12.414 9.6534c12.692-33.117 12.724-58.555 6.7671-78.837-4.6665-15.888-12.028-28.085-17.971-39.347m-73.845-239.52c-15-55-85 15-30 30-55 15 15 85 30 30 15 55 85-15 30-30 55-15-15-85-30-30v0m16.158 30a16.158 16.336 0 0 1-16.158 16.336 16.158 16.336 0 0 1-16.158-16.336 16.158 16.336 0 0 1 16.158-16.336 16.158 16.336 0 0 1 16.158 16.336v0m-43.625-49.676c-36.29-73.766 91.224-73.766 54.934 0m22.209 22.209c73.766-36.29 73.766 91.224 0 54.934m-22.209 22.209c36.29 73.766-91.224 73.766-54.934 0m-22.209-22.209c-73.766 36.29-73.766-91.224 0-54.934m19.676 27.467h-45m5 0a5 5 0 0 1-5 5 5 5 0 0 1-5-5 5 5 0 0 1 5-5 5 5 0 0 1 5 5v0m70-30v-45m0 5a5 5 0 0 1-5-5 5 5 0 0 1 5-5 5 5 0 0 1 5 5 5 5 0 0 1-5 5v0m30 70h45m-5 0a5 5 0 0 1 5-5 5 5 0 0 1 5 5 5 5 0 0 1-5 5 5 5 0 0 1-5-5v0m-70 30v45m0-5a5 5 0 0 1 5 5 5 5 0 0 1-5 5 5 5 0 0 1-5-5 5 5 0 0 1 5-5v0m11.482-81.482 13.518-13.518m5 0a5 5 0 0 1-5 5 5 5 0 0 1-5-5 5 5 0 0 1 5-5 5 5 0 0 1 5 5v0m-18.522 36.478 13.522 13.522m0 5a5 5 0 0 1-5-5 5 5 0 0 1 5-5 5 5 0 0 1 5 5 5 5 0 0 1-5 5v0m-36.479-41.479-13.521-13.521m-5 0a5 5 0 0 0 5 5 5 5 0 0 0 5-5 5 5 0 0 0-5-5 5 5 0 0 0-5 5v0m18.518 36.482-13.518 13.518m0 5a5 5 0 0 0 5-5 5 5 0 0 0-5-5 5 5 0 0 0-5 5 5 5 0 0 0 5 5v0m35.154 73.59 3.9163 6.5272m11.884-15.193 3.6027 6.0044m-50.052 23.785c-31.728-18.299-66.633-26.312-104.51-24.714m104.62 24.663c-45.851-40.289-91.938-69.012-139.62-19.663 39.672 4.959 54.752 44.346 137.92 20.602m82.077-35.602c16.701-23.17 35.506-41.468 65-35-3.6652 22.352-25.716 34.307-50 45m-574.04-649.82c123.19 169.23 234.41 279.32 247.06 600.54m-265.73-575.25c118.34 161.28 217.51 260.56 234.43 549.41m-193.94-343.71c47.133 70.394 80.465 143.36 96.296 263.2m-99.587-212.07c3.5673 6.0903 7.0116 12.233 10.331 18.456 24.307 45.579 42.878 96.272 54.719 165.25m-744.53 120.15 411.89-586.15m219.57-5.8444c9.1826 26.174 58.539 167.7 58.539 185.84 0 20-10 60-10 70s0 80-10 120-60 130-90 130-70.354-34.592-100-30c-70.891 10.981-142.67-126.6-130-130 0 0-5.3468 10.755-10 10-17.89-2.9032-28.811-31.841-34.625-54.087m-141.22 56.632c-33.673-38.774-92.781-42.233-154.16-42.545 24.698-11.302 55.318-13.788 70-40 19.51 12.839 44.295 11.371 70.358 6.4384m-32.463 46.173c75.567-107.54 151.13-215.07 226.7-322.61m-226.7 322.61v0m-67.698-11.416c1.4588-0.57067 2.9248-1.1642 4.3949-1.7849 10.375-4.3807 21.251-10.634 30.031-20.346 17.087 6.838 35.606 6.8854 53.746 4.5138m-48.369-203.58c50 50-6.7759 124.44 29.752 149.36 50.522 34.455 76.102-27.914 47.612-46.779-26.006-17.22-48.135 19.145-27.364 27.423 13.525 5.3904 20 0 20-10m-70-120c56.222 42.374 109.51-27.469 141.65 5.0268 36.779 37.179-11.958 74.012-32.409 52.48-22.331-23.511 11.171-52.634 23.499-31.037 8.0276 14.062-0.29378 19.991-9.8997 16.875m-22.846 86.656c17.041-28.965-18.498-48.181-40-70 27.148 10.568 55.142 33.88 80 10m40.122-53.906c-4.3939-39.668-30.887-72.24-53.548-106.04m65.771 88.566c-8.1028-33.769-29.143-62.079-47.634-88.701m83.956 132.75-8.6665-47.666 45-5-5-50 44.268-4.9186m-120.08 170.88-9.1914-45.957 47.563-8.6478m-78.115 111.16-9.4479-42.515 45.754-9.1508m-71.392 101.6-9.3618-37.447 42.277-9.3949m-68.12 96.94-14.157-42.545 47.383-4.7383m-33.226 47.284v0m249.73-225.58c81.195-20.044 121.84-71.679 157.85-126.92m-54.164 0.02988c-16.37 23.325-33.164 42.983-55.437 58.051m73.583-58.036c-24.8 36.445-50.754 66.711-92.73 85.517m110.78-85.527c-31.093 46.79-64.663 87.322-126.32 107.46m243.27 2.9527c-42.553-27.185-70.095-67.634-94.957-110.45m52.706 0.042211c3.4625 5.4689 6.958 10.744 10.537 15.816m-28.191-15.764c12.792 20.952 26.051 39.934 41.924 56.083m-59.443-56.028c19.568 32.943 40.447 62.822 69.325 85.449m-322.62 179.37c10 55-15 45 0 25m85-90c32.57-21.833 65.334-43.275 130 0-2.1012-1.0479 2.3875 5.2988 0.44706 3.9858-35.447-23.986-79.677-35.78-130.45-3.9858v0m180-5c31.439-37.479 60-20 85-10-25-5-60-20-85 15v-5m0 0c-10 90 20.912 95.608 20 150 0 10-30 5-30 20m-35-45c-21.322 0.13819-52.198 34.45-10 35 7.1724 0.0935 17.261-10.366 22.041-10.045 38.618 2.5959-0.87669 5.2792-12.041 5.0452m-35 40v10l5-5-5-5v0m105 0v10l-5-5 5-5v0m-5 5c-5 0-25-5-30-5s-10 5-15 5-15-5-20-5c0 0 5 0 0 0s-20 5-30 5m30 20c5 15 40 15 40 0m-165-170c28.544 10.017 49.297-25 75-25 30 0 44.732 33.141 50 30m-95-10c22.444 55 85 0 95 10m125-25c-32.581-22.584-65 15-80 20 15 0 65 35 77.777-13.841m-333.6 110.36c-0.0904-0.0285-0.18069-0.0571-0.27105-0.0857m1.7954 11.032c-2.8679-0.89247-5.7422-1.7992-8.6235-2.7199m68.668 90.961c-43.199-9.5129-86.259-22.346-130.32-37.862m38.583-71.279c-5.2888-1.8143-10.608-3.6733-15.961-5.576m28.698 20.405c-10.573-3.4797-21.247-7.1436-32.048-10.983m55.838 28.985c-19.184-5.8108-38.609-12.26-58.427-19.293m64.714 31.584c-22.019-6.4492-44.295-13.743-67.041-21.798m74.384 34.288c-25.251-7.1084-50.758-15.332-76.825-24.544m85.167 37.182c-28.904-7.7699-58.04-17.008-87.836-27.521m97.263 40.29c-33.023-8.4104-66.216-18.744-100.18-30.714m111.16 43.683c-37.73-9.0022-75.516-20.526-114.18-34.144m436.93 53.266c-32.205 5.7378-63.266 9.4751-93.491 11.385m41.862-53.992c-4.158 0.5256-8.2946 1.0148-12.411 1.468m23.035 7.1903c-9.5225 1.3127-18.935 2.4382-28.248 3.3815m38.539 5.2284c-14.873 2.2081-29.482 3.968-43.868 5.298m54.382 3.1868c-20.593 3.2743-40.693 5.7042-60.396 7.3374m70.413 1.1423c-26.25 4.4262-51.717 7.5027-76.587 9.3256m-423.34 105.14 15.02-46.562m70.863-66.178-44.981 126.77m80.303-115.65-37.416 128.88m77.575-117.72-32.474 129.9m68.86-121.39-20.681 132.36m44.38 8.1872c4.3371-43.872 6.407-90.011 10.62-134.01m32.883 139.7 3.831-134.09m40.244 138.01-3.9476-134.22m47.898 136.18-15.968-131.73m58.679 131.65-26.883-122.89m72.415 120.68-45.255-131.65m83.503 128.17-50.298-129.94m96.051 123.74-59.416-127.32m106.11 118.82-73.99-123.32m127.93 110.79-98.808-115.99m-491.65-108.18c1.5498 37.591-1.7668 78.673-6.7641 120.96m21.894-142.46c1.2114 36.591-2.0437 76.387-6.8769 117.31m21.832-138.6c1.1767 32.637-1.2417 67.853-5.1928 104.17m-41.305-38.012c1.6823 37.378-1.5165 78.258-6.4405 120.37m-8.5051-99.122c1.5328 36.48-1.5314 76.258-6.2762 117.24m-8.6716-95.952c1.3539 34.734-1.4109 72.422-5.7932 111.27m-9.1585-89.98c1.1676 32.45-1.2178 67.448-5.1293 103.54m-9.8237-82.175c0.97587 29.706-0.98897 61.521-4.3499 94.338m-10.779-72.824c1.0793 26.37-0.2334 54.456-2.839 83.469m-12.317-61.925c1.112 22.584 0.41353 46.466-1.393 71.144m-13.548-49.915c0.86943 18.799 0.49838 38.487-0.71056 58.777m-17.705-32.576c0.4388 13.78 0.24738 28.011-0.42041 42.585m-14.54-21.282c0.26622 9.2064 0.25442 18.612 0.01022 28.185m199.84-312.56c0.94371 24.246-0.11906 49.931-2.3377 76.445m809 884.51c-23.93-244.9-111.06-277.3-205.31-405.13l132.97-159.91m8.653 435.71-58.091 42.568c-8.064 7.6989-8.2768 20.505-0.47312 28.468 7.8037 7.9626 20.611 8.008 28.471 0.1009l48.168-54.161m-35.356-140.99-31.076-22.709c-3.2206-2.4238-7.0983-3.8181-11.125-4-8.8659-0.4018-16.936 5.0865-19.821 13.479-2.885 8.393 0.1055 17.683 7.3447 22.817l64.791 39.878m0 0-59.602-27.54c-1.9129-0.5963-3.9045-0.9018-5.9082-0.9063-9.9982-0.022-18.477 7.3422-19.855 17.245-1.3781 9.9028 4.7678 19.302 14.392 22.011l64.382 14.675m0 0-61.169-4.6403c-11.114 0.6676-19.544 10.282-18.752 21.388s10.499 19.428 21.596 18.512l60.531-10.633m0 0-61.285 15.983c-10.332 4.2161-15.216 16.071-10.852 26.342 4.3639 10.27 16.288 14.984 26.495 10.473l57.195-28.361m18.075 16.975-46.821 73.927c-4.8138 10.068-0.458 22.128 9.6783 26.796s22.132 0.1389 26.654-10.064l29.286-82.678m0 0-25.173 104.78c-1.4688 11.068 6.4073 21.195 17.496 22.497 11.089 1.3018 21.096-6.726 22.231-17.833l6.3245-53.887m53.275-258.87c10 35-35 60-45-10-10 70-55 45-45 10-35 10-60-35 10-45-70-10-45-55-10-45-10-35 35-60 45 10 10-70 55-45 45-10 35-10 60 35-10 45 70 10 45 55 10 45v0m125.01 136.44c-10-70-55-45-45-10-35-10-60 35 10 45m-44.514-27.444c-19.862-6.9528-37.333-16.293-51.414-29.111-25.365-23.089-41.372-57.883-41.07-114.58m-18.137 32.134c5.2044 43.733 21.51 75.18 45.744 97.239 27.69 25.206 64.317 37.792 104.24 45.159m53.774-53.299c-6.9037-37.404-17.927-72.709-39.093-101.52-17.397-23.683-41.763-42.338-75.112-53.48m7.6999 24.011c22.292 9.9045 38.656 24.104 51.295 41.309 14.532 19.783 24.032 44.131 30.678 71.049m-322.71-192.51c2.9301 3.2658 6.0073 6.3595 9.2242 9.2877 24.942 22.704 57.134 35.169 92.458 42.804m-13.309-23.995c-25.802-7.2742-48.321-17.792-65.686-33.599-5.6113-5.1078-10.765-10.788-15.385-17.152m77.568-93.262c10.703 7.8666 19.6 17.086 27.163 27.381 11.321 15.412 19.588 33.595 25.831 53.604m28.461 31.245c-6.3141-32.318-15.931-62.91-32.796-88.9m-39.924 52.199a15 15 0 0 1-15 15 15 15 0 0 1-15-15 15 15 0 0 1 15-15 15 15 0 0 1 15 15v0m160 195a15 15 0 0 1-15 15 15 15 0 0 1-15-15 15 15 0 0 1 15-15 15 15 0 0 1 15 15v0m-30 130a15 15 0 0 1-15 15 15 15 0 0 1-15-15 15 15 0 0 1 15-15 15 15 0 0 1 15 15v0m70.859-24.341-3.2617 3.7129m40.809-46.453-37.547 42.74m50.988-58.041-13.442 15.301m31.594-35.964-18.153 20.664m-71.037 58.135-87.429 99.522m176.62-201.05-22.258 25.336m-83.073 71.836-74.117 84.369m136.45-155.32-2.1246 2.4184m45.122-51.364-27.221 30.986m-134.83 130.75-20.608 23.458m61.913-70.477-22.05 25.1m67.129-76.414-13.608 15.49m41.115-46.802-11.84 13.478m59.996-68.295-33.032 37.601m-136.95 133.16-16.314 18.571m50.955-58.003-22.05 25.1m103.21-117.49-67.278 76.584m118.22-134.57-36.49 41.538m-109.32 101.71-41.305 47.018m129.06-146.91-74.221 84.487m120.69-137.38-32.535 37.035m-114.44 107.54-33.009 37.575m125.23-142.55-78.938 89.857m122.1-138.99-29.59 33.683m-117.53 111.05-26.269 29.903m70.979-80.796-31.513 35.872m81.28-92.523-32.072 36.508m73.126-83.241-27.736 31.572m-118.39 112.04-20.951 23.849m65.588-74.66-31.339 35.674m81.294-92.539-33.481 38.112m73.429-83.586-26.857 30.572m-117.06 110.52-17.549 19.976m109.76-124.94-78.614 89.488m118.73-135.16-27.031 30.77m-113.47 106.43-15.566 17.719m102.96-117.2-73.251 83.382m114.77-130.65-28.299 32.213m-107.53 99.675-15.528 17.675m55.428-63.095-24.923 28.37m53.992-61.459-14.944 17.011m70.219-79.931-30.549 34.775m-99.296 90.303-17.133 19.503m46.939-53.432-13.685 15.578m68.359-77.814-0.1909 0.21729m33.972-38.671-33.781 38.453m-88.494 78.007-20.74 23.609m45.983-52.343-7.8872 8.9782m93.334-106.24-36.164 41.166m-85.291 74.36-18.155 20.666m45.225-51.48-1.266 1.4411m4.9223-5.6032-3.6563 4.162m43.82-49.881-1.9665 2.2385m40.947-46.611-6.1599 7.0119m-116.45 109.83-13.842 15.756m124.87-142.14-8.3082 9.4574m-107.31 99.425-18.121 20.627m122.15-139.05-11.49 13.08m-105.78 97.687-14.063 16.008m119.75-136.31-3.7641 4.2848m-116.22 109.57-9.1504 10.416m44.475-50.627-1.3848 1.5762m42.156-47.987-3.7423 4.2598m36.045-41.03-4.0637 4.6258m-108.88 101.21-14.25 16.221m23.578-26.84-9.3286 10.619m13.392-15.244-4.0636 4.6257m92.031-104.76-24.241 27.593m-80.042 68.386-21.139 24.063m113.84-129.58-17.25 19.636m-91.07 80.939-15.41 17.541m33.638-38.291-3.7247 4.24m36.559-41.616-12.538 14.272m31.7-36.084-2.5438 2.8957m29.055-33.073-11.271 12.83m-100.32 91.47-10.514 11.968m89.707-102.11-65.154 74.166m85.968-97.859-6.1307 6.9786m-107.76 99.942-6.5874 7.4985m92.781-105.61-72.596 82.638m88.713-100.98-1.972 2.2447m-113.29 106.23-3.554 4.0456m47.731-54.333-30.883 35.154m77.883-88.656-27.236 31.003m-75.911 63.683-1.4103 1.6054m53.44-60.831-38.857 44.232m44.357-50.492-5.4995 6.2601m42.107-47.931-36.608 41.671m-68.435 55.173-0.14794 0.1684m94.901-108.03-81.545 92.824m-687.46-219.18-264.26 264.26" fill="none" stroke="#44f" stroke-linecap="round" stroke-linejoin="round" stroke-width="6"/>
</g>
<g transform="matrix(.12677 0 0 .1304 -119.62 -166.85)" stroke="#44f" stroke-linecap="round" stroke-linejoin="round">
<path d="m1200 695c4.4115 6.1833 6.9487 12.697 5 20m-0.6646 4.9823c4.4115 6.1833 6.9487 12.697 5 20m6.8318 2.981c4.4115 6.1833 6.9487 12.697 5 20m-26.167-112.96c1.0298 15.056 40.208 0.0599 35-5m-680-190c15.323-7.5593 30.583-14.284 45-10m-50-175c-8.2817 10.548-23.954 12.979-40 15m140-10c16.677 2.1999 19.875-1.8465 25-5m-225-45c25 0 48.602-42.399 90 0m68.006 3.1028c11.994-3.1028 44.494-50.603 81.994-8.1028m-157.48 4.2382c1.5832 3.9446 2.4844 8.4808 2.4844 13.307 0 15.213-8.9543 27.545-20 27.545s-20-12.332-20-27.545c0-4.5151 0.78877-8.7764 2.1869-12.537m181.45-5.0279c0.88088 3.1053 1.3644 6.4848 1.3644 10.02 0 15.213-8.9543 27.545-20 27.545s-20-12.332-20-27.545c0-1.3041 0.0658-2.5871 0.19309-3.843m138.92 362.79c16.877-3.3894 33.955-7.2474 51.246-11.594m-222.43 30.845c14.445-0.31868 29.018-0.97612 43.732-1.9883m-127.55 0.0587c14.074 0.95839 28.256 1.6054 42.558 1.9246m-128.37-11.689c14.112 2.2436 28.314 4.1914 42.62 5.8253m-132.92-24.327c15.542 3.8796 31.167 7.4317 46.891 10.631m-133.49-35.712c13.97 4.581 27.981 8.9291 42.046 13.025m470.23 13.898c16.284-3.2176 32.76-6.8757 49.442-10.993m-217.34 29.457c14.055-0.28412 28.234-0.89302 42.548-1.8417m-124.51-0.16292c13.775 0.95236 27.654 1.6023 41.649 1.9344m-126.31-11.655c13.925 2.228 27.937 4.164 42.05 5.7904m-130.79-24.038c15.256 3.8144 30.587 7.3091 46.009 10.459m-131.68-35.295c13.791 4.5229 27.615 8.8161 41.486 12.861m53.863-26.69c-14.278-3.5945-28.511-7.4848-42.719-11.65m124.8 28.799c-13.264-2.1851-26.457-4.6503-39.595-7.3795m120.09 16.996c-13.536-0.99615-26.971-2.301-40.32-3.8989m114.84 6.1807c-12.266 0.15129-24.432 0.042-36.509-0.3173m191.28-15.077c-13.386 2.4646-26.626 4.6188-39.732 6.4739m28.687-24.63c12.727-2.2602 25.59-4.8087 38.597-7.6554m-186.69 21.59c11.717-0.0963 23.527-0.43703 35.439-1.0319m-106.21-1.3572c11.979 0.90742 24.038 1.5661 36.189 1.9646m-114.64-11.515c13.022 2.1764 26.112 4.075 39.286 5.6799m-118.02-22.273c13.538 3.4251 27.115 6.5756 40.75 9.4331m-120.88-32.874c12.704 4.1918 25.411 8.1716 38.134 11.924m51.683-27.175c-13.519-3.4445-27.023-7.1799-40.539-11.187m112.76 26.664c-11.703-2.0165-23.36-4.2714-34.99-6.7529m109.11 16.162c-12.36-0.99942-24.636-2.2802-36.845-3.8291m92.97 6.3814c-7.9082-0.0798-15.773-0.27716-23.598-0.58895m165.44-10.357c-11.19 1.8078-22.262 3.3826-33.226 4.7317m82.617 77.629c15.693-3.0492 31.569-6.5117 47.643-10.404m-212.27 28.09c13.666-0.2504 27.451-0.81178 41.366-1.6982m-121.46-0.37926c13.475 0.94604 27.051 1.5987 40.738 1.9432m-124.27-11.624c13.744 2.2135 27.571 4.1385 41.495 5.758m-128.66-23.746c14.97 3.7491 30.007 7.1862 45.129 10.288m-129.88-34.878c13.611 4.4648 27.249 8.7031 40.926 12.696m48.66-7.4401c-14.407-3.6205-28.763-7.538-43.086-11.731m86.454 21.674c-14.521-3.0034-28.97-6.3249-43.368-9.943m83.774 17.43c-13.54-2.2135-27.003-4.7147-40.406-7.487m121.91 17.125c-13.729-0.99435-27.353-2.3018-40.888-3.9062m117.27 6.1222c-12.587 0.18106-25.069 0.0914-37.459-0.25776m195.54-15.899c-13.755 2.5805-27.361 4.837-40.828 6.7811m18.794-43.251c12.113-2.1036 24.351-4.4711 36.725-7.1111m-181.46 20.291c11.323-0.0678 22.734-0.36692 34.243-0.90642m-103.13-1.5381c11.677 0.89879 23.431 1.5577 35.272 1.966m-112.71-11.494c12.883 2.1704 25.83 4.0647 38.858 5.6675m-115.89-21.971c13.252 3.3584 26.536 6.4498 39.871 9.2568m-119.08-32.449c12.526 4.133 25.046 8.0572 37.577 11.758m-47.525 16.356c-12.656-4.1536-25.308-8.5106-37.97-13.056m57.947-43.33c-9.3097-3.0723-18.635-6.2649-27.986-9.5716m4.6609 75.377c-13.534-4.4411-27.057-9.1119-40.584-13.994m60.566-42.385c-9.651-3.1847-19.315-6.4969-28.999-9.9297m106.37 32.624c-13.649-3.4712-27.275-7.2343-40.905-11.27m114.7 27.019c-11.94-2.042-23.831-4.3285-35.688-6.8469m110.94 16.3c-12.556-0.99843-25.025-2.2828-37.423-3.8393m102.56 6.3852c-10.642 0.0142-21.205-0.18194-31.697-0.58063m134.81 94.137c14.722-1.6002 29.589-3.5572 44.61-5.8862m-48.329-3.7309c14.505-1.5413 29.153-3.4329 43.956-5.6895m-58.862-32.831c-12.035 1.1541-23.961 2.0553-35.787 2.7127m28.392-21.835c13.168-1.1949 26.469-2.7009 39.914-4.5305m-54.902-34.211c-11.307 0.88764-22.507 1.5338-33.61 1.9468m67.175 84.817c14.291-1.4829 28.724-3.3098 43.312-5.4951m-50.764-13.767c-12.172 1.2-24.235 2.1445-36.198 2.8427m21.331-41.277c12.939-1.136 26.008-2.5762 39.222-4.3325m-46.716-15.039c-11.44 0.93456-22.773 1.6252-34.009 2.0804m106.18-11.038c-11.555 1.9142-22.988 3.5829-34.309 5.014m133.62 24.861c-9.8817 2.5428-19.68 4.9198-29.4 7.1349m-28.599-55.02c-5.2415 1.1186-10.456 2.1871-15.644 3.2061m83.316 52.489c-10.711 2.8307-21.327 5.4686-31.853 7.9184m-25.903-55.537c-6.1074 1.3539-12.179 2.6404-18.216 3.8607m-552.2 44.868c4.7498 1.4968 9.5048 2.9659 14.266 4.4067m-6.6179-12.481c3.2253 1.0043 6.4527 1.9956 9.6825 2.9736m-2.6727-11.258c1.9113 0.58894 3.8233 1.1732 5.736 1.7528m-220.56 164.35c54.879-78.1 109.76-156.2 164.64-234.3m-164.64 199.51c48.333-68.782 96.666-137.56 145-206.35m-145 171.56c41.869-59.584 83.739-119.17 125.61-178.75m696.01-37.814c10.75 42.962 18.641 91.657 23.212 148.63m-32.091-28.447-3.9297-29.74c-5.163-39.085-12.283-73.743-21.149-105.17m104.85 202.68-0.81724-13.955c-3.3539-57.247-9.988-107.3-19.374-152m-33.663-14.634c10.513 44.62 18.077 95.135 22.168 153.98m-64.918-54.077-1.9648-14.871c-5.7487-43.519-13.867-81.213-24.117-114.96m-36.631-15.904c12.135 34.014 21.74 72.391 28.672 118.27m42.525-87.355c10.975 41.171 19.186 87.859 24.237 142.7" fill="none" stroke-width="3"/>
<g transform="matrix(.083333 0 0 .081 650 1e3)" stroke-width="72">
<path d="M -400,0 C -350,0 0,-450 0,-500 0,-450 350,0 400,0 350,0 0,450 0,500 0,450 -350,0 -400,0 Z" fill="#f00"/>
</g>
<g transform="matrix(.083333 0 0 .081 580 1005)" stroke-width="72">
<path d="M -400,0 C -350,0 0,-450 0,-500 0,-450 350,0 400,0 350,0 0,450 0,500 0,450 -350,0 -400,0 Z" fill="#f00"/>
</g>
<g transform="matrix(.083333 0 0 .081 510 1010)" stroke-width="72">
<path d="M -400,0 C -350,0 0,-450 0,-500 0,-450 350,0 400,0 350,0 0,450 0,500 0,450 -350,0 -400,0 Z" fill="#f00"/>
</g>
</g>
<g transform="matrix(-.12677 0 0 -.1304 45.18 93.953)" stroke="#44f" stroke-linecap="round" stroke-linejoin="round">
<path d="m1200 695c4.4115 6.1833 6.9487 12.697 5 20m-0.6646 4.9823c4.4115 6.1833 6.9487 12.697 5 20m6.8318 2.981c4.4115 6.1833 6.9487 12.697 5 20m-26.167-112.96c1.0298 15.056 40.208 0.0599 35-5m-680-190c15.323-7.5593 30.583-14.284 45-10m-50-175c-8.2817 10.548-23.954 12.979-40 15m140-10c16.677 2.1999 19.875-1.8465 25-5m-225-45c25 0 48.602-42.399 90 0m68.006 3.1028c11.994-3.1028 44.494-50.603 81.994-8.1028m-157.48 4.2382c1.5832 3.9446 2.4844 8.4808 2.4844 13.307 0 15.213-8.9543 27.545-20 27.545s-20-12.332-20-27.545c0-4.5151 0.78877-8.7764 2.1869-12.537m181.45-5.0279c0.88088 3.1053 1.3644 6.4848 1.3644 10.02 0 15.213-8.9543 27.545-20 27.545s-20-12.332-20-27.545c0-1.3041 0.0658-2.5871 0.19309-3.843m138.92 362.79c16.877-3.3894 33.955-7.2474 51.246-11.594m-222.43 30.845c14.445-0.31868 29.018-0.97612 43.732-1.9883m-127.55 0.0587c14.074 0.95839 28.256 1.6054 42.558 1.9246m-128.37-11.689c14.112 2.2436 28.314 4.1914 42.62 5.8253m-132.92-24.327c15.542 3.8796 31.167 7.4317 46.891 10.631m-133.49-35.712c13.97 4.581 27.981 8.9291 42.046 13.025m470.23 13.898c16.284-3.2176 32.76-6.8757 49.442-10.993m-217.34 29.457c14.055-0.28412 28.234-0.89302 42.548-1.8417m-124.51-0.16292c13.775 0.95236 27.654 1.6023 41.649 1.9344m-126.31-11.655c13.925 2.228 27.937 4.164 42.05 5.7904m-130.79-24.038c15.256 3.8144 30.587 7.3091 46.009 10.459m-131.68-35.295c13.791 4.5229 27.615 8.8161 41.486 12.861m53.863-26.69c-14.278-3.5945-28.511-7.4848-42.719-11.65m124.8 28.799c-13.264-2.1851-26.457-4.6503-39.595-7.3795m120.09 16.996c-13.536-0.99615-26.971-2.301-40.32-3.8989m114.84 6.1807c-12.266 0.15129-24.432 0.042-36.509-0.3173m191.28-15.077c-13.386 2.4646-26.626 4.6188-39.732 6.4739m28.687-24.63c12.727-2.2602 25.59-4.8087 38.597-7.6554m-186.69 21.59c11.717-0.0963 23.527-0.43703 35.439-1.0319m-106.21-1.3572c11.979 0.90742 24.038 1.5661 36.189 1.9646m-114.64-11.515c13.022 2.1764 26.112 4.075 39.286 5.6799m-118.02-22.273c13.538 3.4251 27.115 6.5756 40.75 9.4331m-120.88-32.874c12.704 4.1918 25.411 8.1716 38.134 11.924m51.683-27.175c-13.519-3.4445-27.023-7.1799-40.539-11.187m112.76 26.664c-11.703-2.0165-23.36-4.2714-34.99-6.7529m109.11 16.162c-12.36-0.99942-24.636-2.2802-36.845-3.8291m92.97 6.3814c-7.9082-0.0798-15.773-0.27716-23.598-0.58895m165.44-10.357c-11.19 1.8078-22.262 3.3826-33.226 4.7317m82.617 77.629c15.693-3.0492 31.569-6.5117 47.643-10.404m-212.27 28.09c13.666-0.2504 27.451-0.81178 41.366-1.6982m-121.46-0.37926c13.475 0.94604 27.051 1.5987 40.738 1.9432m-124.27-11.624c13.744 2.2135 27.571 4.1385 41.495 5.758m-128.66-23.746c14.97 3.7491 30.007 7.1862 45.129 10.288m-129.88-34.878c13.611 4.4648 27.249 8.7031 40.926 12.696m48.66-7.4401c-14.407-3.6205-28.763-7.538-43.086-11.731m86.454 21.674c-14.521-3.0034-28.97-6.3249-43.368-9.943m83.774 17.43c-13.54-2.2135-27.003-4.7147-40.406-7.487m121.91 17.125c-13.729-0.99435-27.353-2.3018-40.888-3.9062m117.27 6.1222c-12.587 0.18106-25.069 0.0914-37.459-0.25776m195.54-15.899c-13.755 2.5805-27.361 4.837-40.828 6.7811m18.794-43.251c12.113-2.1036 24.351-4.4711 36.725-7.1111m-181.46 20.291c11.323-0.0678 22.734-0.36692 34.243-0.90642m-103.13-1.5381c11.677 0.89879 23.431 1.5577 35.272 1.966m-112.71-11.494c12.883 2.1704 25.83 4.0647 38.858 5.6675m-115.89-21.971c13.252 3.3584 26.536 6.4498 39.871 9.2568m-119.08-32.449c12.526 4.133 25.046 8.0572 37.577 11.758m-47.525 16.356c-12.656-4.1536-25.308-8.5106-37.97-13.056m57.947-43.33c-9.3097-3.0723-18.635-6.2649-27.986-9.5716m4.6609 75.377c-13.534-4.4411-27.057-9.1119-40.584-13.994m60.566-42.385c-9.651-3.1847-19.315-6.4969-28.999-9.9297m106.37 32.624c-13.649-3.4712-27.275-7.2343-40.905-11.27m114.7 27.019c-11.94-2.042-23.831-4.3285-35.688-6.8469m110.94 16.3c-12.556-0.99843-25.025-2.2828-37.423-3.8393m102.56 6.3852c-10.642 0.0142-21.205-0.18194-31.697-0.58063m134.81 94.137c14.722-1.6002 29.589-3.5572 44.61-5.8862m-48.329-3.7309c14.505-1.5413 29.153-3.4329 43.956-5.6895m-58.862-32.831c-12.035 1.1541-23.961 2.0553-35.787 2.7127m28.392-21.835c13.168-1.1949 26.469-2.7009 39.914-4.5305m-54.902-34.211c-11.307 0.88764-22.507 1.5338-33.61 1.9468m67.175 84.817c14.291-1.4829 28.724-3.3098 43.312-5.4951m-50.764-13.767c-12.172 1.2-24.235 2.1445-36.198 2.8427m21.331-41.277c12.939-1.136 26.008-2.5762 39.222-4.3325m-46.716-15.039c-11.44 0.93456-22.773 1.6252-34.009 2.0804m106.18-11.038c-11.555 1.9142-22.988 3.5829-34.309 5.014m133.62 24.861c-9.8817 2.5428-19.68 4.9198-29.4 7.1349m-28.599-55.02c-5.2415 1.1186-10.456 2.1871-15.644 3.2061m83.316 52.489c-10.711 2.8307-21.327 5.4686-31.853 7.9184m-25.903-55.537c-6.1074 1.3539-12.179 2.6404-18.216 3.8607m-552.2 44.868c4.7498 1.4968 9.5048 2.9659 14.266 4.4067m-6.6179-12.481c3.2253 1.0043 6.4527 1.9956 9.6825 2.9736m-2.6727-11.258c1.9113 0.58894 3.8233 1.1732 5.736 1.7528m-220.56 164.35c54.879-78.1 109.76-156.2 164.64-234.3m-164.64 199.51c48.333-68.782 96.666-137.56 145-206.35m-145 171.56c41.869-59.584 83.739-119.17 125.61-178.75m696.01-37.814c10.75 42.962 18.641 91.657 23.212 148.63m-32.091-28.447-3.9297-29.74c-5.163-39.085-12.283-73.743-21.149-105.17m104.85 202.68-0.81724-13.955c-3.3539-57.247-9.988-107.3-19.374-152m-33.663-14.634c10.513 44.62 18.077 95.135 22.168 153.98m-64.918-54.077-1.9648-14.871c-5.7487-43.519-13.867-81.213-24.117-114.96m-36.631-15.904c12.135 34.014 21.74 72.391 28.672 118.27m42.525-87.355c10.975 41.171 19.186 87.859 24.237 142.7" fill="none" stroke-width="3"/>
<g transform="matrix(.083333 0 0 .081 650 1e3)" stroke-width="72">
<path d="M -400,0 C -350,0 0,-450 0,-500 0,-450 350,0 400,0 350,0 0,450 0,500 0,450 -350,0 -400,0 Z" fill="#f00"/>
</g>
<g transform="matrix(.083333 0 0 .081 580 1005)" stroke-width="72">
<path d="M -400,0 C -350,0 0,-450 0,-500 0,-450 350,0 400,0 350,0 0,450 0,500 0,450 -350,0 -400,0 Z" fill="#f00"/>
</g>
<g transform="matrix(.083333 0 0 .081 510 1010)" stroke-width="72">
<path d="M -400,0 C -350,0 0,-450 0,-500 0,-450 350,0 400,0 350,0 0,450 0,500 0,450 -350,0 -400,0 Z" fill="#f00"/>
</g>
</g>
</svg>
