<?xml version="1.0" encoding="UTF-8"?>
<svg width="100%" height="100%" version="1.1" viewBox="-120 -168 165.58 261.58" xmlns="http://www.w3.org/2000/svg">
<g transform="matrix(.12677 0 0 .1304 -119.62 -167.61)">
<path d="m635.4 0 216.47 312.34c43.24-13.219 86.964-21.99 123.13-27.338-50.098-96.776-75.106-190.85-100.89-285zm-339.87 27.285c-49.25 153.69-152.77 308.26-86.273 455.8l-17.434 13.449c1.7653 151.1 30.085 286.57 74.541 398.61 18.126 21.287 38.562 42.116 61.479 64.115 3.6113 3.4668 7.2846 6.9626 11.338 10.619l562.3 0.12305-0.41407-0.51953c-0.12219-0.138-0.23745-0.27418-0.35937-0.41211 15.277 17.283 32.651 35.126 52.316 53.543 77.122 72.225 126.98 127.39 176.98 227.39 52.982-70.642 98.186-110.1 170-152.79v-37.602c-68.62 39.334-116.94 76.655-164.55 131.97-44.949-77.848-93.918-130.61-160.21-192.69-76.06-71.231-114.27-131.59-129.37-180.43-15.097-48.834-8.9085-86.603 7.9492-120.97 28.317-57.727 91.514-102.35 139.07-133.86l-26.779-21.49c-69.568 45.97-172.88 123.53-160 244.35l-106.25 1.0117-131.8 152.39-138.58-0.0293c148.58-176.56 316.34-345.84 469.7-484.76l-9.5684-10.99c-28.867-3.0206-55.644-10.376-80.518-21.428-1.776 4.1726-4.4337 8.021-7.9434 11.234-136.04 124.48-275.69 231.25-381.37 395.52l-27.332-17.584c109.24-169.79 252.13-278.72 386.76-401.91l17.514 6.8633c-17.744-8.9871-34.487-19.892-50.291-32.484-124.71 29.032-208.27 36.481-267.27 31.982 0 0-19.316 14.605-29.316 14.605-15 0-25.58-5.6445-30.58-5.6445s-10 5-25 5-30-25-40-50c-1.5142-2.019-3.0144-4.0792-4.2324-5.793l-39.219 30.256 10.51-0.54493c7.1724 138.45-1.2584 281.24 43.029 408.13l-27.418 17.666c-1.3289-2.1311-2.4331-4.4562-3.2676-6.957-45.451-130.23-38.385-270.32-44.082-401.92l-69.703 53.773 20.205-16.594c-53.015-160.42 25.441-275.42 59.996-399.32zm-210.53 52.715c-55 50-100 145-35 145 9.3433 0 15.216-5.7096 19.6-15.59l-0.05469 54.807c-6.428-8.4164-14.326-14.217-24.545-14.217-35 0-40 70-5 70 24.463 0 22.958-43.082 10.812-44.932 53.482 5.0855-15.809 250.16-15.303 296.22 0.26819 24.388 6.6284 48.737 31.463 56.209-18.796 4.9955-31.973 17.672-31.973 32.502 0 14.308 12.266 26.611 30.385 32.256-23.71 7.3198-30.385 28.484-30.385 47.744 0 36.244 13.136 96.132 20.518 126.33 27.087-19.784 50.566-40.901 73.322-66.111 3.3084-21.304 6.1602-43.329 6.1602-60.219 0-19.399-6.7715-40.731-30.848-48.041 13.875-5.2083 25.129-15.371 30.848-31.959 0-14.833-13.182-27.511-30.787-32.898 24.057-8.6581 30.018-32.217 30.277-55.812 0.50648-46.057-68.784-291.14-15.303-296.22-12.145 1.8496-13.651 44.932 10.812 44.932 35 0 30-70-5-70-10.834 0-19.06 6.5215-25.074 15.021l0.32617-55.742c4.2385 9.7193 10.169 15.721 19.748 15.721 65 0 20-95-35-145zm641.48 287.84c-86.625 19.835-151.79 28.17-200.8 29.242-14.225 6.2742-30.072 11.922-45.779 18.959 58.993 4.4986 142.55-2.9512 267.2-32.037-7.7527-5.2072-14.389-10.769-20.613-16.164zm-370.49 88.291c29.627 11.745 64.914 21.559 110.03 25.15 51.303 4.0842 115.56 0.48608 200.56-14.404-98.572 87.125-198.42 177.38-282.33 298.84-25.012-94.805-24.711-201.04-28.26-309.58zm826.51 17.621c-24.04 0-48.056 17.347-29.859 52.023a45 42.5 0 0 1 29.859-10.773 45 42.5 0 0 1 29.865 10.764c18.187-34.669-5.8272-52.014-29.865-52.014zm-54.691 47.48c-45.248 0.77462-37.642 97.738 22.793 66.217a45 42.5 0 0 1-13.102-29.947 45 42.5 0 0 1 13.111-29.943c-8.6891-4.5334-16.298-6.4375-22.803-6.3262zm109.38 0c-6.5027-0.11132-14.108 1.7922-22.793 6.3223a45 42.5 0 0 1 13.102 29.947 45 42.5 0 0 1-13.109 29.943c60.443 31.534 68.05-65.438 22.801-66.213zm-24.83 67.994a45 42.5 0 0 1-29.861 10.775 45 42.5 0 0 1-29.865-10.764c-11.988 22.852-5.6311 38.17 6.9726 45.959-23.682 34.464-48.941 66.026-74.949 96.207-5.4929-55.707-26.207-85.944-79.658-61.402 37.225 16.128 38.571 70.317 75.949 65.697-5.8664 6.7606-11.768 13.457-17.697 20.102l15.207 1.8867c7.2551-8.1908 14.462-16.467 21.611-24.854 5.1929 39.081 35.07-7.5745 67.213-5.5-16.48-41.743-32.05-10.505-66.478 4.6367 24.571-28.866 48.407-59.083 70.803-91.955 26.568 6.1281 61.741-10.798 40.754-50.789zm42.639 65.775c-32.963 38.744-63.867 77.98-125 110 16.819 30.213 26.654 60.208 30 90 47.231 18.324 82.887 51.837 115 90 2.3419-37.044-4.2974-71.387-30-100 23.35-4.9986 40.003-20.019 50-45-14.528-24.402-35.976-32.699-60-35 44.875-32.167 30.266-71.339 20-110zm-443.12 162.79c10.865 41.665 35.342 88.007 78.586 139.42-4.9229-5.8228-9.6628-11.583-14.221-17.254l-286.46-0.0586 64.605-0.45703 75.191-86.939 93.883-0.33984c-4.9028-11.907-8.7434-23.391-11.582-34.375zm-434.38 24.715c4.4232 0 9.3183 2.0026 14.867 9.2402 5.5489 7.2377 10.133 19.282 10.133 33.26s-4.5839 26.022-10.133 33.26c-5.5489 7.2377-10.444 9.2402-14.867 9.2402s-9.3183-2.0026-14.867-9.2402c-5.5489-7.2377-10.133-19.282-10.133-33.26s4.5839-26.022 10.133-33.26c5.5489-7.2377 10.444-9.2402 14.867-9.2402z" fill="#fc4"/>
</g>
<g transform="matrix(-.12677 0 0 -.1304 45.18 93.191)">
<path d="m635.4 0 216.47 312.34c43.24-13.219 86.964-21.99 123.13-27.338-50.098-96.776-75.106-190.85-100.89-285zm-339.87 27.285c-49.25 153.69-152.77 308.26-86.273 455.8l-17.434 13.449c1.7653 151.1 30.085 286.57 74.541 398.61 18.126 21.287 38.562 42.116 61.479 64.115 3.6113 3.4668 7.2846 6.9626 11.338 10.619l562.3 0.12305-0.41407-0.51953c-0.12219-0.138-0.23745-0.27418-0.35937-0.41211 15.277 17.283 32.651 35.126 52.316 53.543 77.122 72.225 126.98 127.39 176.98 227.39 52.982-70.642 98.186-110.1 170-152.79v-37.602c-68.62 39.334-116.94 76.655-164.55 131.97-44.949-77.848-93.918-130.61-160.21-192.69-76.06-71.231-114.27-131.59-129.37-180.43-15.097-48.834-8.9085-86.603 7.9492-120.97 28.317-57.727 91.514-102.35 139.07-133.86l-26.779-21.49c-69.568 45.97-172.88 123.53-160 244.35l-106.25 1.0117-131.8 152.39-138.58-0.0293c148.58-176.56 316.34-345.84 469.7-484.76l-9.5684-10.99c-28.867-3.0206-55.644-10.376-80.518-21.428-1.776 4.1726-4.4337 8.021-7.9434 11.234-136.04 124.48-275.69 231.25-381.37 395.52l-27.332-17.584c109.24-169.79 252.13-278.72 386.76-401.91l17.514 6.8633c-17.744-8.9871-34.487-19.892-50.291-32.484-124.71 29.032-208.27 36.481-267.27 31.982 0 0-19.316 14.605-29.316 14.605-15 0-25.58-5.6445-30.58-5.6445s-10 5-25 5-30-25-40-50c-1.5142-2.019-3.0144-4.0792-4.2324-5.793l-39.219 30.256 10.51-0.54493c7.1724 138.45-1.2584 281.24 43.029 408.13l-27.418 17.666c-1.3289-2.1311-2.4331-4.4562-3.2676-6.957-45.451-130.23-38.385-270.32-44.082-401.92l-69.703 53.773 20.205-16.594c-53.015-160.42 25.441-275.42 59.996-399.32zm-210.53 52.715c-55 50-100 145-35 145 9.3433 0 15.216-5.7096 19.6-15.59l-0.05469 54.807c-6.428-8.4164-14.326-14.217-24.545-14.217-35 0-40 70-5 70 24.463 0 22.958-43.082 10.812-44.932 53.482 5.0855-15.809 250.16-15.303 296.22 0.26819 24.388 6.6284 48.737 31.463 56.209-18.796 4.9955-31.973 17.672-31.973 32.502 0 14.308 12.266 26.611 30.385 32.256-23.71 7.3198-30.385 28.484-30.385 47.744 0 36.244 13.136 96.132 20.518 126.33 27.087-19.784 50.566-40.901 73.322-66.111 3.3084-21.304 6.1602-43.329 6.1602-60.219 0-19.399-6.7715-40.731-30.848-48.041 13.875-5.2083 25.129-15.371 30.848-31.959 0-14.833-13.182-27.511-30.787-32.898 24.057-8.6581 30.018-32.217 30.277-55.812 0.50648-46.057-68.784-291.14-15.303-296.22-12.145 1.8496-13.651 44.932 10.812 44.932 35 0 30-70-5-70-10.834 0-19.06 6.5215-25.074 15.021l0.32617-55.742c4.2385 9.7193 10.169 15.721 19.748 15.721 65 0 20-95-35-145zm641.48 287.84c-86.625 19.835-151.79 28.17-200.8 29.242-14.225 6.2742-30.072 11.922-45.779 18.959 58.993 4.4986 142.55-2.9512 267.2-32.037-7.7527-5.2072-14.389-10.769-20.613-16.164zm-370.49 88.291c29.627 11.745 64.914 21.559 110.03 25.15 51.303 4.0842 115.56 0.48608 200.56-14.404-98.572 87.125-198.42 177.38-282.33 298.84-25.012-94.805-24.711-201.04-28.26-309.58zm826.51 17.621c-24.04 0-48.056 17.347-29.859 52.023a45 42.5 0 0 1 29.859-10.773 45 42.5 0 0 1 29.865 10.764c18.187-34.669-5.8272-52.014-29.865-52.014zm-54.691 47.48c-45.248 0.77462-37.642 97.738 22.793 66.217a45 42.5 0 0 1-13.102-29.947 45 42.5 0 0 1 13.111-29.943c-8.6891-4.5334-16.298-6.4375-22.803-6.3262zm109.38 0c-6.5027-0.11132-14.108 1.7922-22.793 6.3223a45 42.5 0 0 1 13.102 29.947 45 42.5 0 0 1-13.109 29.943c60.443 31.534 68.05-65.438 22.801-66.213zm-24.83 67.994a45 42.5 0 0 1-29.861 10.775 45 42.5 0 0 1-29.865-10.764c-11.988 22.852-5.6311 38.17 6.9726 45.959-23.682 34.464-48.941 66.026-74.949 96.207-5.4929-55.707-26.207-85.944-79.658-61.402 37.225 16.128 38.571 70.317 75.949 65.697-5.8664 6.7606-11.768 13.457-17.697 20.102l15.207 1.8867c7.2551-8.1908 14.462-16.467 21.611-24.854 5.1929 39.081 35.07-7.5745 67.213-5.5-16.48-41.743-32.05-10.505-66.478 4.6367 24.571-28.866 48.407-59.083 70.803-91.955 26.568 6.1281 61.741-10.798 40.754-50.789zm42.639 65.775c-32.963 38.744-63.867 77.98-125 110 16.819 30.213 26.654 60.208 30 90 47.231 18.324 82.887 51.837 115 90 2.3419-37.044-4.2974-71.387-30-100 23.35-4.9986 40.003-20.019 50-45-14.528-24.402-35.976-32.699-60-35 44.875-32.167 30.266-71.339 20-110zm-443.12 162.79c10.865 41.665 35.342 88.007 78.586 139.42-4.9229-5.8228-9.6628-11.583-14.221-17.254l-286.46-0.0586 64.605-0.45703 75.191-86.939 93.883-0.33984c-4.9028-11.907-8.7434-23.391-11.582-34.375zm-434.38 24.715c4.4232 0 9.3183 2.0026 14.867 9.2402 5.5489 7.2377 10.133 19.282 10.133 33.26s-4.5839 26.022-10.133 33.26c-5.5489 7.2377-10.444 9.2402-14.867 9.2402s-9.3183-2.0026-14.867-9.2402c-5.5489-7.2377-10.133-19.282-10.133-33.26s4.5839-26.022 10.133-33.26c5.5489-7.2377 10.444-9.2402 14.867-9.2402z" fill="#fc4"/>
</g>
<g transform="matrix(.12677 0 0 .1304 -119.62 -167.61)">
<path d="m557.52 0 248.45 330.46 45.047-18.459-215.65-312zm78.021 0 63.766 90.75c10.695-25.75 25.695-25.75 25.695-25.75-8.4935-38.221 3.3146-47.896 8.2012-65zm184.46 265 31.867 47.338c25.641-7.8389 51.452-14.113 75.787-19.072-19.897-2.5442-42.135-8.6091-62.654-23.266-10 5-30 10-45-5zm99.127 216.29c-154.98 139.73-323.57 305.79-448.77 458.72l54.645-0.01172 160-185h120.42l-0.0547-0.41211c6.3743-102.76 97.501-170.66 160.41-212.23zm-727.42 15.562-59.861 46.348-0.39648 0.30468c1.931 12.046 3.108 21.693 3.041 27.787-0.25947 23.595-6.2208 47.154-30.277 55.812 17.605 5.3874 30.787 18.065 30.787 32.898-5.7183 16.588-16.972 26.751-30.848 31.959 24.076 7.3097 30.848 28.642 30.848 48.041 0 16.89-2.8517 38.915-6.1602 60.219-1.9515 2.162-3.9085 4.2926-5.873 6.3945 15.6-16.646 30.96-35.183 47.033-56.613 30.251 60.502 60.449 104.59 96.857 145.71-44.955-112.61-73.273-248.08-75.15-398.87zm-147.18 113.51-44.531 34.254v258.17c30.798-18.317 56.707-36.047 80.428-55.885-7.9997 6.6718-16.27 13.121-24.91 19.432-7.382-30.198-20.518-90.086-20.518-126.33 0-19.26 6.6748-40.424 30.385-47.744-18.119-5.6453-30.385-17.947-30.385-32.256 0-14.83 13.177-27.506 31.973-32.502-10.444-3.1424-17.611-9.277-22.441-17.137zm1190.1 68.797-1.1211 1.0469c-20.054 23.043-41.871 45.665-71.744 65.723 27.117 39.371 36.653 80.374 27.744 123.13 25.439 14.765 47.233 33.87 67.875 55.842-10.09-28.954-26.957-68.052-64.619-89.363 37.101-5.8138 52.599-16.019 67.236-35.535-28.578-21.248-50.476-15.945-77.303-15.67 39.149-21.896 49.937-64.783 51.932-105.17zm-1123.9 140.08c-0.7889 0.78628-1.5806 1.567-2.373 2.3457 0.792-0.77791 1.5836-1.5596 2.373-2.3457zm-5.1523 5.0508c-0.76819 0.74251-1.5348 1.4868-2.3066 2.2227 0.77112-0.73534 1.5384-1.4802 2.3066-2.2227zm-5.2617 5.0059c-2.0774 1.946-4.1651 3.8765-6.2734 5.7793 2.1044-1.9019 4.1947-3.8308 6.2734-5.7793zm-6.5391 6.0215c-1.468 1.3228-2.9451 2.636-4.4297 3.9394 1.4825-1.3041 2.9615-2.6146 4.4297-3.9394zm283.71 27.184a11 22.5 0 0 0-11 22.5 11 22.5 0 0 0 11 22.5 11 22.5 0 0 0 11-22.5 11 22.5 0 0 0-11-22.5zm225.18 127.46a10 10 0 0 0-10 10 10 10 0 0 0 10 10 10 10 0 0 0 10-10 10 10 0 0 0-10-10zm-182.68 0.03516a10 10 0 0 0-10 10 10 10 0 0 0 10 10 10 10 0 0 0 10-10 10 10 0 0 0-10-10zm91.133 0.41016a10 10 0 0 0-10 10 10 10 0 0 0 10 10 10 10 0 0 0 10-10 10 10 0 0 0-10-10z" fill="#f00"/>
</g>
<g transform="matrix(-.12677 0 0 -.1304 45.18 93.191)">
<path d="m557.52 0 248.45 330.46 45.047-18.459-215.65-312zm78.021 0 63.766 90.75c10.695-25.75 25.695-25.75 25.695-25.75-8.4935-38.221 3.3146-47.896 8.2012-65zm184.46 265 31.867 47.338c25.641-7.8389 51.452-14.113 75.787-19.072-19.897-2.5442-42.135-8.6091-62.654-23.266-10 5-30 10-45-5zm99.127 216.29c-154.98 139.73-323.57 305.79-448.77 458.72l54.645-0.01172 160-185h120.42l-0.0547-0.41211c6.3743-102.76 97.501-170.66 160.41-212.23zm-727.42 15.562-59.861 46.348-0.39648 0.30468c1.931 12.046 3.108 21.693 3.041 27.787-0.25947 23.595-6.2208 47.154-30.277 55.812 17.605 5.3874 30.787 18.065 30.787 32.898-5.7183 16.588-16.972 26.751-30.848 31.959 24.076 7.3097 30.848 28.642 30.848 48.041 0 16.89-2.8517 38.915-6.1602 60.219-1.9515 2.162-3.9085 4.2926-5.873 6.3945 15.6-16.646 30.96-35.183 47.033-56.613 30.251 60.502 60.449 104.59 96.857 145.71-44.955-112.61-73.273-248.08-75.15-398.87zm-147.18 113.51-44.531 34.254v258.17c30.798-18.317 56.707-36.047 80.428-55.885-7.9997 6.6718-16.27 13.121-24.91 19.432-7.382-30.198-20.518-90.086-20.518-126.33 0-19.26 6.6748-40.424 30.385-47.744-18.119-5.6453-30.385-17.947-30.385-32.256 0-14.83 13.177-27.506 31.973-32.502-10.444-3.1424-17.611-9.277-22.441-17.137zm1190.1 68.797-1.1211 1.0469c-20.054 23.043-41.871 45.665-71.744 65.723 27.117 39.371 36.653 80.374 27.744 123.13 25.439 14.765 47.233 33.87 67.875 55.842-10.09-28.954-26.957-68.052-64.619-89.363 37.101-5.8138 52.599-16.019 67.236-35.535-28.578-21.248-50.476-15.945-77.303-15.67 39.149-21.896 49.937-64.783 51.932-105.17zm-1123.9 140.08c-0.7889 0.78628-1.5806 1.567-2.373 2.3457 0.792-0.77791 1.5836-1.5596 2.373-2.3457zm-5.1523 5.0508c-0.76819 0.74251-1.5348 1.4868-2.3066 2.2227 0.77112-0.73534 1.5384-1.4802 2.3066-2.2227zm-5.2617 5.0059c-2.0774 1.946-4.1651 3.8765-6.2734 5.7793 2.1044-1.9019 4.1947-3.8308 6.2734-5.7793zm-6.5391 6.0215c-1.468 1.3228-2.9451 2.636-4.4297 3.9394 1.4825-1.3041 2.9615-2.6146 4.4297-3.9394zm283.71 27.184a11 22.5 0 0 0-11 22.5 11 22.5 0 0 0 11 22.5 11 22.5 0 0 0 11-22.5 11 22.5 0 0 0-11-22.5zm225.18 127.46a10 10 0 0 0-10 10 10 10 0 0 0 10 10 10 10 0 0 0 10-10 10 10 0 0 0-10-10zm-182.68 0.03516a10 10 0 0 0-10 10 10 10 0 0 0 10 10 10 10 0 0 0 10-10 10 10 0 0 0-10-10zm91.133 0.41016a10 10 0 0 0-10 10 10 10 0 0 0 10 10 10 10 0 0 0 10-10 10 10 0 0 0-10-10z" fill="#f00"/>
</g>
<g transform="matrix(.12677 0 0 .1304 -119.62 -167.61)">
<path d="m472.5 150a12.5 20 0 0 0-12.5 20 12.5 20 0 0 0 12.5 20 12.5 20 0 0 0 12.5-20 12.5 20 0 0 0-12.5-20zm-140 5a12.5 20 0 0 0-12.5 20 12.5 20 0 0 0 12.5 20 12.5 20 0 0 0 12.5-20 12.5 20 0 0 0-12.5-20zm23.49 301.13c3.549 108.55 3.2481 214.78 28.26 309.58 83.91-121.46 183.76-211.71 282.33-298.84-85.008 14.89-149.26 18.489-200.56 14.404-45.115-3.5916-80.402-13.405-110.03-25.15zm42.926 22.922c22.576 0.10326 52.528 2.3438 83.498 6.2461 65.746 8.2842 118.15 21.659 117.05 29.873-1.0983 8.2139-56.309 5.0789-122.05-3.2051-65.739-8.2835-117.12-18.579-116.03-26.793 0.53448-4.0205 14.072-6.2285 37.527-6.1211zm718.58 13.449c2.4011 8.4038 4.2266 18.249 5.4746 28.844v0.36133c7.3876-1.3639 16.466 0.0837 27.232 5.623l-21.268-21.268a1.5002 1.5002 0 0 1 1.0449-2.5762 1.5002 1.5002 0 0 1 1.0761 0.45507l21.268 21.268c-5.5291-10.748-6.9807-19.813-5.6289-27.193-10.729-1.249-20.702-3.0859-29.199-5.5137zm130 0c-8.4251 2.4072-18.299 4.2341-28.924 5.4824h-0.2793c1.3613 7.3856-0.087 16.461-5.6231 27.223l21.266-21.266a1.5002 1.5002 0 0 1 1.0312-0.45312 1.5002 1.5002 0 0 1 1.0898 2.5742l-21.268 21.268c10.756-5.534 19.827-6.9842 27.211-5.627v-0.17187c1.2486-10.665 3.081-20.576 5.4961-29.029zm-853.6 15.258c20.384 0.10329 47.429 2.3439 75.393 6.2461 59.364 8.2842 106.68 21.659 105.69 29.873-0.99271 8.2136-49.917 8.1567-109.28-0.12695-59.364-8.2842-106.68-21.659-105.69-29.873 0.48636-4.0193 12.709-6.2266 33.885-6.1191zm7.6953 34.68c15.094-0.0753 32.615 0.81411 50.479 2.5625 51.501 5.0408 94.008 14.752 93.676 23.004-0.32891 8.2521-42.347 10.855-93.85 5.8144-51.501-5.0408-92.983-15.817-92.65-24.068 0.20345-5.0869 15.52-7.1789 42.346-7.3125zm590.81 21.094c-26.288 17.831-58.004 39.716-85.844 65.822l156.69 126.45c5.9292-6.6449 11.831-13.341 17.697-20.102-37.378 4.6197-38.724-49.57-75.949-65.697 53.451-24.542 74.165 5.6953 79.658 61.402 18.288-21.222 36.202-43.132 53.461-66.25-50.496-31.89-99.368-65.632-145.71-101.62zm92.248 167.87c-1.2353 1.4335-2.4703 2.8675-3.709 4.2949 1.3064-0.16146 2.6533-0.388 4.0508-0.69727-0.1038-1.2163-0.2241-2.4045-0.3418-3.5977zm-21.406 24.396 1.3242 1.0234c28.247 1.3982 65.424 8.1777 65.424 8.1777 33.235-17.408 57.528-36.95 78.082-57.385-19.956-11.655-39.702-23.553-59.211-35.719-15.553 20.888-31.646 40.782-48.066 60.072 34.429-15.142 49.998-46.38 66.478-4.6367-32.143-2.0745-62.02 44.581-67.213 5.5-7.149 8.386-14.356 16.663-21.611 24.854zm-663.37-180.81c12.139-0.0753 26.23 0.81416 40.598 2.5625 41.421 5.0409 74.783 15.817 74.516 24.068-0.26463 8.2521-34.059 10.855-75.48 5.8144-41.421-5.0409-74.783-15.817-74.516-24.068 0.16364-5.0869 13.308-8.2434 34.883-8.377zm814.91 12.684 21.268 21.268a1.5002 1.5002 0 1 1-2.121 2.1211l-21.266-21.266c5.5369 10.764 6.9837 19.84 5.6211 27.227h0.3223c10.609 1.2482 20.468 3.0744 28.883 5.4785-2.4278-8.4973-4.2627-18.47-5.5117-29.199-7.3807 1.3523-16.447-0.0994-27.195-5.6289zm-64.588 2e-3c-10.75 5.5303-19.816 6.9804-27.197 5.627v0.0723c-1.2488 10.702-3.0853 20.648-5.5078 29.127 8.4975-2.4278 18.47-4.2647 29.199-5.5137-1.3518-7.3804 0.1-16.446 5.6289-27.193l-21.268 21.268a1.5002 1.5002 0 1 1-2.121-2.1211zm-750.25 20.547c7.7559-0.014 16.339 0.59569 25.049 1.7793 30.51 4.1466 55.198 16.746 55.244 25 0.0491 8.2547-24.648 11.585-55.16 7.4375-30.51-4.1466-55.282-14.199-55.328-22.453-0.0324-5.6226 11.687-11.731 30.195-11.764zm2.9414 36.283c3.9283-0.0157 8.0012 0.15115 12.107 0.49609 25.086 2.1074 44.778 7.0284 45.422 14.979 0.64298 7.9498-19.171 12.686-44.256 10.578-25.086-2.1074-45.944-10.261-46.588-18.211-0.52278-6.4668 13.793-7.7639 33.314-7.8418zm-6.3711 30.781c1.5379 1e-3 3.1015 0.0612 4.6738 0.17968 15.244 1.1523 28.128 7.4326 28.779 14.027 0.6519 6.5951-11.178 11.008-26.422 9.8555-15.244-1.1523-28.128-7.4326-28.779-14.027-0.57317-5.8115 8.6079-10.048 21.748-10.035zm-2.7207 30.471c0.97501 2e-3 1.9662 0.0499 2.9629 0.14453 9.6612 0.91446 17.828 5.8985 18.242 11.133 0.4126 5.2347-7.0858 8.7369-16.748 7.8223-9.6612-0.91446-17.828-5.8985-18.242-11.133-0.3645-4.6136 5.4553-7.977 13.785-7.9668zm906.2 0.0781-34.277 2.8555c0.2249 20.003-6.7832 39.153-30.719 56.311 24.024 2.3008 45.472 10.598 60 35-9.9971 24.981-26.65 40.001-50 45 19.682 21.91 28.177 47.183 30.029 74.453l0.01 8e-3 24.957 11.094zm-167.27 64.205c0.2372 0.44647 0.4708 0.89347 0.7051 1.3398-0.2343-0.44637-0.4679-0.89339-0.7051-1.3398zm3.041 5.8828c0.083 0.16606 0.171 0.33199 0.2539 0.49804-0.083-0.16604-0.1705-0.33202-0.2539-0.49804zm2.6758 5.4844c0.2147 0.45253 0.425 0.90499 0.6367 1.3574-0.2117-0.45239-0.4219-0.90493-0.6367-1.3574zm2.455 5.3242c0.1795 0.40036 0.3641 0.80089 0.5411 1.2012-0.177-0.40029-0.3615-0.80081-0.5411-1.2012zm2.5958 5.9844c0.2099 0.50184 0.413 1.0042 0.6191 1.5059-0.2062-0.5018-0.4092-1.0039-0.6191-1.5059zm2.0703 5.1172c0.1975 0.50277 0.4 1.0052 0.5937 1.5078-0.1937-0.50252-0.3962-1.0052-0.5937-1.5078zm2.3418 6.1875c0.1922 0.53072 0.3764 1.0612 0.5644 1.5918-0.188-0.53055-0.3722-1.0611-0.5644-1.5918zm1.7324 4.9648c0.2042 0.60477 0.4106 1.2098 0.6094 1.8144-0.1988-0.60461-0.4051-1.2097-0.6094-1.8144zm2.0273 6.2656c0.1846 0.60177 0.3579 1.2031 0.5371 1.8047-0.1792-0.60139-0.3525-1.2031-0.5371-1.8047zm1.4688 5.0098c0.1799 0.63781 0.3593 1.2764 0.5332 1.9141-0.174-0.63786-0.3532-1.276-0.5332-1.9141zm-775.64 22.24c-4.4232 0-9.3183 2.0026-14.867 9.2402-5.5489 7.2377-10.133 19.282-10.133 33.26s4.5839 26.022 10.133 33.26c5.5489 7.2377 10.444 9.2402 14.867 9.2402s9.3183-2.0026 14.867-9.2402c5.5489-7.2377 10.133-19.282 10.133-33.26s-4.5839-26.022-10.133-33.26c-5.5489-7.2377-10.444-9.2402-14.867-9.2402zm-0.27344 4.7949c2.9557 0.0879 5.9492 5.0801 5.9492 10.705 10.931-0.11104 14.677 3.3106 5.6758 13 13.697 3.7436 10.645 8.6997 2.8379 14 7.8075 5.3003 10.86 10.256-2.8379 14 9.0017 9.6894 5.2555 13.111-5.6758 13 0 10-9.4596 18-11.352 0-10.931 0.11104-14.677-3.3106-5.6758-13-13.697-3.7436-10.645-8.6997-2.8379-14-7.8075-5.3003-10.86-10.256 2.8379-14-9.0017-9.6894-5.2555-13.111 5.6758-13 0.82773-7.875 3.1034-10.773 5.4023-10.705zm352.36 5.2051-75.191 86.939 43.004-0.041 47.049-54.398h95.555l-15-32.5zm29.723 65-19.23 22.236 136.17 0.21875-16.25-22.455zm-104.13 52.42-315.76 0.17969c2.4398 2.4788 4.9879 4.8742 7.5664 7.2891 15.37 14.394 29.321 28.433 41.91 42.127 1.0697-4.4442 6.0496-11.131 16.111-19.516-30-25-15-35 15-15 30-20 45-10 15 15 30 25 15 35-15 15-11.069 7.3794-20.085 10.664-25.562 10.629 1.3106 1.4627 2.6277 2.9262 3.9062 4.3809l256.42-0.1328zm-170.01 4.4453c5.4492-0.14648 14.59 3.1348 25.84 10.635 30-20 45-10 15 15 30 25 15 35-15 15-30 20-45 10-15-15-18.75-15.625-19.922-25.391-10.84-25.635zm91 0c5.4492-0.14648 14.59 3.1348 25.84 10.635 30-20 45-10 15 15 30 25 15 35-15 15-30 20-45 10-15-15-18.75-15.625-19.922-25.391-10.84-25.635z" fill="#44f"/>
</g>
<g transform="matrix(-.12677 0 0 -.1304 45.18 93.191)">
<path d="m472.5 150a12.5 20 0 0 0-12.5 20 12.5 20 0 0 0 12.5 20 12.5 20 0 0 0 12.5-20 12.5 20 0 0 0-12.5-20zm-140 5a12.5 20 0 0 0-12.5 20 12.5 20 0 0 0 12.5 20 12.5 20 0 0 0 12.5-20 12.5 20 0 0 0-12.5-20zm23.49 301.13c3.549 108.55 3.2481 214.78 28.26 309.58 83.91-121.46 183.76-211.71 282.33-298.84-85.008 14.89-149.26 18.489-200.56 14.404-45.115-3.5916-80.402-13.405-110.03-25.15zm42.926 22.922c22.576 0.10326 52.528 2.3438 83.498 6.2461 65.746 8.2842 118.15 21.659 117.05 29.873-1.0983 8.2139-56.309 5.0789-122.05-3.2051-65.739-8.2835-117.12-18.579-116.03-26.793 0.53448-4.0205 14.072-6.2285 37.527-6.1211zm718.58 13.449c2.4011 8.4038 4.2266 18.249 5.4746 28.844v0.36133c7.3876-1.3639 16.466 0.0837 27.232 5.623l-21.268-21.268a1.5002 1.5002 0 0 1 1.0449-2.5762 1.5002 1.5002 0 0 1 1.0761 0.45507l21.268 21.268c-5.5291-10.748-6.9807-19.813-5.6289-27.193-10.729-1.249-20.702-3.0859-29.199-5.5137zm130 0c-8.4251 2.4072-18.299 4.2341-28.924 5.4824h-0.2793c1.3613 7.3856-0.087 16.461-5.6231 27.223l21.266-21.266a1.5002 1.5002 0 0 1 1.0312-0.45312 1.5002 1.5002 0 0 1 1.0898 2.5742l-21.268 21.268c10.756-5.534 19.827-6.9842 27.211-5.627v-0.17187c1.2486-10.665 3.081-20.576 5.4961-29.029zm-853.6 15.258c20.384 0.10329 47.429 2.3439 75.393 6.2461 59.364 8.2842 106.68 21.659 105.69 29.873-0.99271 8.2136-49.917 8.1567-109.28-0.12695-59.364-8.2842-106.68-21.659-105.69-29.873 0.48636-4.0193 12.709-6.2266 33.885-6.1191zm7.6953 34.68c15.094-0.0753 32.615 0.81411 50.479 2.5625 51.501 5.0408 94.008 14.752 93.676 23.004-0.32891 8.2521-42.347 10.855-93.85 5.8144-51.501-5.0408-92.983-15.817-92.65-24.068 0.20345-5.0869 15.52-7.1789 42.346-7.3125zm590.81 21.094c-26.288 17.831-58.004 39.716-85.844 65.822l156.69 126.45c5.9292-6.6449 11.831-13.341 17.697-20.102-37.378 4.6197-38.724-49.57-75.949-65.697 53.451-24.542 74.165 5.6953 79.658 61.402 18.288-21.222 36.202-43.132 53.461-66.25-50.496-31.89-99.368-65.632-145.71-101.62zm92.248 167.87c-1.2353 1.4335-2.4703 2.8675-3.709 4.2949 1.3064-0.16146 2.6533-0.388 4.0508-0.69727-0.1038-1.2163-0.2241-2.4045-0.3418-3.5977zm-21.406 24.396 1.3242 1.0234c28.247 1.3982 65.424 8.1777 65.424 8.1777 33.235-17.408 57.528-36.95 78.082-57.385-19.956-11.655-39.702-23.553-59.211-35.719-15.553 20.888-31.646 40.782-48.066 60.072 34.429-15.142 49.998-46.38 66.478-4.6367-32.143-2.0745-62.02 44.581-67.213 5.5-7.149 8.386-14.356 16.663-21.611 24.854zm-663.37-180.81c12.139-0.0753 26.23 0.81416 40.598 2.5625 41.421 5.0409 74.783 15.817 74.516 24.068-0.26463 8.2521-34.059 10.855-75.48 5.8144-41.421-5.0409-74.783-15.817-74.516-24.068 0.16364-5.0869 13.308-8.2434 34.883-8.377zm814.91 12.684 21.268 21.268a1.5002 1.5002 0 1 1-2.121 2.1211l-21.266-21.266c5.5369 10.764 6.9837 19.84 5.6211 27.227h0.3223c10.609 1.2482 20.468 3.0744 28.883 5.4785-2.4278-8.4973-4.2627-18.47-5.5117-29.199-7.3807 1.3523-16.447-0.0994-27.195-5.6289zm-64.588 2e-3c-10.75 5.5303-19.816 6.9804-27.197 5.627v0.0723c-1.2488 10.702-3.0853 20.648-5.5078 29.127 8.4975-2.4278 18.47-4.2647 29.199-5.5137-1.3518-7.3804 0.1-16.446 5.6289-27.193l-21.268 21.268a1.5002 1.5002 0 1 1-2.121-2.1211zm-750.25 20.547c7.7559-0.014 16.339 0.59569 25.049 1.7793 30.51 4.1466 55.198 16.746 55.244 25 0.0491 8.2547-24.648 11.585-55.16 7.4375-30.51-4.1466-55.282-14.199-55.328-22.453-0.0324-5.6226 11.687-11.731 30.195-11.764zm2.9414 36.283c3.9283-0.0157 8.0012 0.15115 12.107 0.49609 25.086 2.1074 44.778 7.0284 45.422 14.979 0.64298 7.9498-19.171 12.686-44.256 10.578-25.086-2.1074-45.944-10.261-46.588-18.211-0.52278-6.4668 13.793-7.7639 33.314-7.8418zm-6.3711 30.781c1.5379 1e-3 3.1015 0.0612 4.6738 0.17968 15.244 1.1523 28.128 7.4326 28.779 14.027 0.6519 6.5951-11.178 11.008-26.422 9.8555-15.244-1.1523-28.128-7.4326-28.779-14.027-0.57317-5.8115 8.6079-10.048 21.748-10.035zm-2.7207 30.471c0.97501 2e-3 1.9662 0.0499 2.9629 0.14453 9.6612 0.91446 17.828 5.8985 18.242 11.133 0.4126 5.2347-7.0858 8.7369-16.748 7.8223-9.6612-0.91446-17.828-5.8985-18.242-11.133-0.3645-4.6136 5.4553-7.977 13.785-7.9668zm906.2 0.0781-34.277 2.8555c0.2249 20.003-6.7832 39.153-30.719 56.311 24.024 2.3008 45.472 10.598 60 35-9.9971 24.981-26.65 40.001-50 45 19.682 21.91 28.177 47.183 30.029 74.453l0.01 8e-3 24.957 11.094zm-167.27 64.205c0.2372 0.44647 0.4708 0.89347 0.7051 1.3398-0.2343-0.44637-0.4679-0.89339-0.7051-1.3398zm3.041 5.8828c0.083 0.16606 0.171 0.33199 0.2539 0.49804-0.083-0.16604-0.1705-0.33202-0.2539-0.49804zm2.6758 5.4844c0.2147 0.45253 0.425 0.90499 0.6367 1.3574-0.2117-0.45239-0.4219-0.90493-0.6367-1.3574zm2.455 5.3242c0.1795 0.40036 0.3641 0.80089 0.5411 1.2012-0.177-0.40029-0.3615-0.80081-0.5411-1.2012zm2.5958 5.9844c0.2099 0.50184 0.413 1.0042 0.6191 1.5059-0.2062-0.5018-0.4092-1.0039-0.6191-1.5059zm2.0703 5.1172c0.1975 0.50277 0.4 1.0052 0.5937 1.5078-0.1937-0.50252-0.3962-1.0052-0.5937-1.5078zm2.3418 6.1875c0.1922 0.53072 0.3764 1.0612 0.5644 1.5918-0.188-0.53055-0.3722-1.0611-0.5644-1.5918zm1.7324 4.9648c0.2042 0.60477 0.4106 1.2098 0.6094 1.8144-0.1988-0.60461-0.4051-1.2097-0.6094-1.8144zm2.0273 6.2656c0.1846 0.60177 0.3579 1.2031 0.5371 1.8047-0.1792-0.60139-0.3525-1.2031-0.5371-1.8047zm1.4688 5.0098c0.1799 0.63781 0.3593 1.2764 0.5332 1.9141-0.174-0.63786-0.3532-1.276-0.5332-1.9141zm-775.64 22.24c-4.4232 0-9.3183 2.0026-14.867 9.2402-5.5489 7.2377-10.133 19.282-10.133 33.26s4.5839 26.022 10.133 33.26c5.5489 7.2377 10.444 9.2402 14.867 9.2402s9.3183-2.0026 14.867-9.2402c5.5489-7.2377 10.133-19.282 10.133-33.26s-4.5839-26.022-10.133-33.26c-5.5489-7.2377-10.444-9.2402-14.867-9.2402zm-0.27344 4.7949c2.9557 0.0879 5.9492 5.0801 5.9492 10.705 10.931-0.11104 14.677 3.3106 5.6758 13 13.697 3.7436 10.645 8.6997 2.8379 14 7.8075 5.3003 10.86 10.256-2.8379 14 9.0017 9.6894 5.2555 13.111-5.6758 13 0 10-9.4596 18-11.352 0-10.931 0.11104-14.677-3.3106-5.6758-13-13.697-3.7436-10.645-8.6997-2.8379-14-7.8075-5.3003-10.86-10.256 2.8379-14-9.0017-9.6894-5.2555-13.111 5.6758-13 0.82773-7.875 3.1034-10.773 5.4023-10.705zm352.36 5.2051-75.191 86.939 43.004-0.041 47.049-54.398h95.555l-15-32.5zm29.723 65-19.23 22.236 136.17 0.21875-16.25-22.455zm-104.13 52.42-315.76 0.17969c2.4398 2.4788 4.9879 4.8742 7.5664 7.2891 15.37 14.394 29.321 28.433 41.91 42.127 1.0697-4.4442 6.0496-11.131 16.111-19.516-30-25-15-35 15-15 30-20 45-10 15 15 30 25 15 35-15 15-11.069 7.3794-20.085 10.664-25.562 10.629 1.3106 1.4627 2.6277 2.9262 3.9062 4.3809l256.42-0.1328zm-170.01 4.4453c5.4492-0.14648 14.59 3.1348 25.84 10.635 30-20 45-10 15 15 30 25 15 35-15 15-30 20-45 10-15-15-18.75-15.625-19.922-25.391-10.84-25.635zm91 0c5.4492-0.14648 14.59 3.1348 25.84 10.635 30-20 45-10 15 15 30 25 15 35-15 15-30 20-45 10-15-15-18.75-15.625-19.922-25.391-10.84-25.635z" fill="#44f"/>
</g>
<g transform="matrix(.12677 0 0 .1304 -119.62 -167.61)">
<path d="m499.67 0c99.157 212.43 198.84 423.78 391.4 444.25l-333.57-444.25zm-199.78 59.855c-34.357 123-112.81 238-59.799 398.42l109.78-85.334c-27.67-39.304-49.875-90.656-49.875-117.95 0-20 5.0032-150 5-155-1e-3 -2.0043-2.4114-19.274-5.1016-40.145zm600.01 394.99c-153.36 138.93-321.13 308.2-470.4 484.63l40.848 0.54297c125.2-152.94 293.79-318.99 448.6-458.63zm65.791 87.457c-28.872 19.187-64.125 44.128-93.979 75.523l25.551 20.043c30.23-29.844 65.96-54.59 95.6-73.979-9.2814-6.8791-18.471-14.107-27.172-21.588zm-280.7 212.7-159.9 184.88 44.898 0.11719 129.86-152.5h106.79l-1.6504-32.5z"/>
</g>
<g transform="matrix(-.12677 0 0 -.1304 45.18 93.191)">
<path d="m499.67 0c99.157 212.43 198.84 423.78 391.4 444.25l-333.57-444.25zm-199.78 59.855c-34.357 123-112.81 238-59.799 398.42l109.78-85.334c-27.67-39.304-49.875-90.656-49.875-117.95 0-20 5.0032-150 5-155-1e-3 -2.0043-2.4114-19.274-5.1016-40.145zm600.01 394.99c-153.36 138.93-321.13 308.2-470.4 484.63l40.848 0.54297c125.2-152.94 293.79-318.99 448.6-458.63zm65.791 87.457c-28.872 19.187-64.125 44.128-93.979 75.523l25.551 20.043c30.23-29.844 65.96-54.59 95.6-73.979-9.2814-6.8791-18.471-14.107-27.172-21.588zm-280.7 212.7-159.9 184.88 44.898 0.11719 129.86-152.5h106.79l-1.6504-32.5z"/>
</g>
<g transform="matrix(.12677 0 0 .1304 -119.62 -167.61)">
<path d="m435 885a57.5 75 0 0 1-57.5 75 57.5 75 0 0 1-57.5-75 57.5 75 0 0 1 57.5-75 57.5 75 0 0 1 57.5 75v0m-17.923 55h458.95m-567.76 0h28.757m2.4631 30h561.99m-769.63-426.8 219.19-168.61m-351.03 270.03 44.832-34.486m1093.3 55.053c-60.174-37.999-118.04-78.629-172.87-122.72m243.28 165.45c-20.188-11.785-40.16-23.815-59.891-36.121m-591.17-671.79 407.93 542.58m334.28 517.19c-68.477 39.278-116.73 76.573-164.28 131.81-44.949-77.848-93.918-130.61-160.21-192.69-76.06-71.231-114.27-131.59-129.37-180.43-15.097-48.834-8.9085-86.603 7.9492-120.97 28.317-57.727 91.513-102.36 139.07-133.86m-493.2-563.59c99.152 212.42 198.83 423.74 390.66 443.81m-525.98 368.46c-44.288-126.9-35.856-269.68-43.028-408.14 76.717 39.852 163.36 77.441 457.88 5.7608-134.63 123.19-277.53 232.12-386.76 401.91m-36.48-355.72c29.63 11.748 64.921 21.562 110.04 25.154 51.306 4.0844 115.56 0.48617 200.58-14.406-98.578 87.128-198.39 177.48-282.25 298.86-24.965-94.927-24.797-201.06-28.375-309.61v0m511.37-15.718c-147.71 133.67-306.9 290.17-431.25 439.03m-212.2-406.57c-0.82324 183.17 37.986 343.48 98.116 466.27m-130.51-442.43c2.0865 150.92 30.405 286.39 75.553 398.74m162.46 44.016c149.28-176.43 317.04-345.7 470.4-484.63m-429.56 485.17c125.2-152.94 293.79-318.99 448.6-458.63m-393.96 458.62 160-185h120.42m-237.49 185.05 131.94-152.55h106.79m-195.18 151.89 103.26-119.39h97.264m-157.59 119.44 75.192-86.939h93.897m-126.08 86.899 47.049-54.399h95.046m-99.416 54.736 19.231-22.236h100.69m46.392-288.08 157.39 127.25m-191.86-138.86 171.32 139.2m-583.63-275.66c-44.75 92.165-53.167 188.28-74.619 283.65m-81.344-765c-44.562 162.79-165.04 327.08-94.233 483.48m30.677-25.194c-53.015-160.42 25.441-275.43 59.996-399.32m505.71 271.17c14.888-6.4454 30.422-12.16 46.149-17.214m-851.86 589.82c71.769-42.672 116.94-82.122 169.9-152.74 50 100 99.857 155.16 176.98 227.39 281.56 263.68 94.151 409.61-13.084 480.47m43.606-615.36c4.4232 0 9.3183 2.0026 14.867 9.2402 5.5489 7.2377 10.133 19.282 10.133 33.26s-4.5839 26.022-10.133 33.26c-5.5489 7.2377-10.444 9.2402-14.867 9.2402s-9.3183-2.0026-14.867-9.2402c-5.5489-7.2377-10.133-19.282-10.133-33.26s4.5839-26.022 10.133-33.26c5.5489-7.2377 10.444-9.2402 14.867-9.2402v0m752.5-77.5c16.819 30.213 26.654 60.208 30 90 47.231 18.324 82.887 51.837 115 90 2.3419-37.044-4.2974-71.387-30-100 23.35-4.9986 40.003-20.019 50-45-14.528-24.402-35.976-32.699-60-35 44.875-32.167 30.266-71.339 20-110-32.963 38.744-63.867 77.98-125 110v0m170-59.167-34.324 2.8603m34.324 221.86-26.171-11.632m-81.102-82.498c37.698 20.42 54.567 59.519 65.28 89.01m-75.038-140.51c26.555-0.86899 48.454-6.1717 77.031 15.077-14.637 19.516-30.136 29.721-67.201 34.643m41.83-155.49c-1.9945 40.389-12.783 83.276-52.204 104.58m-20.082-38.311c26.538 39.875 36.074 80.877 26.979 123.43m-59.322-103.86s-82.168-15-95-5-32.969 31.307-40 40c-31.97 39.527 3.6451 49.729 20 30m35-30c-59.312 25.45-64.226 120.61 20 25m-28.807 28.529c-14.944 32.294 0.7581 60.301 58.5-5.2485m-37.508 34.31c-21.191 38.702 41.57 35.553 97.815-27.591m-96.748-99.2c33.572-37.624 66.287-76.827 96.446-120.73m-81.24 122.62c32.493-36.683 64.095-75.006 93.255-117.83m-86.714 95.139c-4.9523-58.002-25.404-90.068-80-65 38.526 16.691 38.618 74.158 80 65v0m-80-65c37.807-6.2538 56.14 40.797 80 65m15-2.6683c35-15 50.673-47.071 67.282-5-32.282-2.0835-62.282 45-67.282 5v0m0.066 0.51364c26.326 8.2675 52.462-23.905 67.216-5.5136m-12.282-142.33c-75 45-75-100-1e-4 -55-45-75 100-75 55 0 75-45 75 100 1e-4 55 45 75-100 75-55 1e-5v0m87.5-27.5c-60 0-60 0-60-60 0 60 0 60-60 60 60 0 60 0 60 60 0-60 0-60 60-60v0m-119.53-36.157c-1.248-10.594-3.0726-20.44-5.4737-28.843 8.5766 2.4505 18.654 4.3004 29.498 5.55m-0.2429 118.93c-10.751 1.2491-20.742 3.0897-29.255 5.5219 2.4225-8.4786 4.2581-18.424 5.5069-29.126m118.94-0.3881c1.2496 10.85 3.1002 20.933 5.5519 29.514-8.4143-2.4041-18.274-4.2302-28.883-5.4784m-0.041-119.04c10.625-1.2483 20.499-3.076 28.924-5.4832-2.4151 8.4529-4.2469 18.364-5.4955 29.029m-884.05-135.27c-4.7848-2.3062-9.5238-4.6875-14.283-7.1261m404.39 4.8038c-125.62 29.149-209.18 36.599-268.28 33.139m-123.8 39.051c29.627 11.745 64.914 21.559 110.03 25.15 51.303 4.0842 115.56 0.48608 200.56-14.404-98.572 87.125-198.42 177.38-282.33 298.84-25.012-94.805-24.711-201.04-28.26-309.58v0m-270.99-321.13c10.787 31.13 5 90 35 90 65 0 20-95-35-145-55 50-100 145-35 145 30 0 24.213-58.87 35-90v0m-45 150s0-10 10-10c12.881 0 15 45-10 45-35 0-30-70 5-70 30 0 40 50 40 50s10-50 40-50c35 0 40 70 5 70-25 0-22.881-45-10-45 10 0 10 10 10 10m-10-10c-55 2.6683 15 250 14.491 296.29-0.32313 29.384-9.491 58.711-49.491 58.711s-49.168-29.327-49.491-58.711c-0.50903-46.289 69.491-293.62 14.491-296.29m20-10.016v-56.65m30 56.856v-56.445m3.2061 418.65c18.612 5.0957 31.794 17.774 31.794 32.607 0 19.33-22.386 35-50 35-27.614 0-50-15.67-50-35 0-14.83 13.177-27.506 31.782-32.604m-0.85085 65.08c-24.256 7.101-30.931 28.265-30.931 47.524 0 36.244 13.136 96.133 20.364 126.34m73.005-65.666c3.778-21.763 6.6306-43.787 6.6306-60.677 0-19.399-6.772-40.731-31.462-47.677m153.35 192.68h6.386m-263.28-1e-5 28.737 1e-5m216.83-15h11.901m-257.47 2e-5 51.088-2e-5m182.58-15h18.578m-252.25-1e-5 52.54 1e-5m170.39-15h24.093m-247.02 1e-5 49.346-1e-5m163.42-15h29.898m-242.67 2e-5 46.444-2e-5m156.75-15h34.543m-237.73 2e-5 43.541-2e-5m150.94-15h38.897m-103.92 0h5.2249m-134.69 1e-5 40.638-1e-5m145.43-15h42.961m-97.242 0h14.514m-146.3 1e-5 38.316-1e-5m139.91-15h46.734m-91.146 0h24.673m-148.49 0h26.284m98.403-15h86.502m-211.19 0h24.543m100.43-15h83.018m-203 0h20.123m97.532-15h72.345m-190 0h22.845m117.16-15h45m125-195c-11.823-17.571-24.455-31.947-45.421-47.163-21.678-15.732-32.015 9.6364-23.863 22.705m69.284 54.458c-13.684-15.717-40.727-39.318-62.257-51.807-20.397-11.832-26.523 15.099-9.5355 27.995m73.441 56.351c-13.684-15.717-40.423-39.856-62.257-51.807-33.042-18.086-43.839 14.159-2.7432 31.807m68.033 79.606c-13.684-15.717-40.423-39.856-62.257-51.807-30.812-16.866-37.656 16.866-5.1163 35.807m65.759-18.456c-13.861-13.59-33.316-27.705-50.773-39.513-22.074-14.93-34.105 4.4736-22.836 17.226m77.737 83.987c-13.77-13.233-32.62-26.885-49.583-38.358-24.045-16.263-36.173 12.272-19.252 25.316m72.12 40.26c-16.237-12.964-39.967-26.862-58.055-36.269-31.27-16.261-36.887 20.479-3.2983 37.121m65.316 22.485c-45.63-38.6-98.239-25.301-54.442 5.0564m60.578 28.858c-49.783-42.234-140.14-42.27-51.454 5.5m65.03 48.069c-62.846-40.071-141.74-29.441-43.897 10.661m40.895 7.6277c-43.416-18.163-92.791 0.20988-43.971 13.658m23.615 4.1773c-36.462-11.384-55.926 9.4266-11.424 20.211m-0.73532-386.37c-7.1925-7.5861-15.51-14.892-25.859-22.401-17.521-12.715-26.719 0.32727-25.123 12.488m49.503-29.247c-1.3178-1.0017-2.6701-2.0059-4.0589-3.0137-19.412-14.087-28.607 3.4419-24.227 16.361m57.628 327.77c-41.829-32.623-87.13-22.987-57.826 2.5989m102.83 33.088c97.552 1.0402 65.936 25.615 21.194 25.634m-7.4999-44.952c31.879-11.92 60.58-9.1721 74.958-1.6289 16.817 8.8226 14.04 24.205-26.164 30.349m-28.448-56.704c58.577-11 103.69 13.949 55.485 26.189m-34.411-54.317c67.421-18.097 125.45 10.742 49.426 33.663m-31.897-55.65c69.253-23.471 135.43 4.4751 67.152 28.145m-39.269-60.029c50.502-8.0078 88.675 9.6656 55.551 28.022m-38.523-47.188c77.254-19.945 157.96 17.262 48.763 27.753m-11.91-66.01c57.176-5.002 100.01 18.027 40.226 35.034m-22.25-52.405c75.248-19.798 151.84 14.609 51.224 34.336m-23.275-61.119c55.645-7.643 102.47 11.747 64.246 28.765m-40.349-50.813c71.57-16.516 140.67 14.62 53.46 34.064m-13.463-70.602c57.115-4.5253 99.001 18.874 36.455 35.786m-12.802-56.768c73.88-16.895 144.86 16.899 43.681 36.081m-5.2726-69.844c57.765-5.5039 101.75 17.66 42.025 34.797m-16.39-57.859c68.018-11.92 127.59 17.438 43.802 36.027m-146.68-199.93c-5.1 11.617-9.9585 23.398-35.552 21.138-14.372 81.302-73.773 98.388-130 120 0 0-19.419 15.646-29.419 15.646-15 0-25.581-5.6459-30.581-5.6459s-10 5-25 5-30-25-40-50c-30-40-55-96.045-55-125 0-20 5.003-150 5-155-2e-3 -3.0893-5.7278-42.446-10.104-72.074m328.04 212.4c-6.3169 10.231-13.74 24.421-7.9332 24.679 2.7343 0.12132 6.9697-10.378 10.244-19.906m278.92 249.72 50.564 54.175m-64.734-40.786 48.735 52.216m-63.377-39.332 48.019 51.449m-61.73-37.568 46.154 49.451m-60.775-36.544 45.963 49.246m-60.147-35.872 35.288 37.809m-49.458-24.419 24.026 25.742m-38.824-13.026 17.842 19.116m-31.643-5.3321 8.9278 9.5655m-316.23 314.29h55.419m-42.282-15h55.008m-42.693-15h55.829m-42.693-15h55.419m-42.282-15h55.419m-36.946-20h32.044m205-25v32.5m-25-32.5v32.5m-25-32.5v32.5m-36.732-19.232 22.578 22.578m-41.757-1.757 23.399 23.399m-41.552-1.5517 22.783 22.783m-40.525-0.52545 22.578 22.578m-41.552-1.5517 20.731 20.731m141.35-629.2c15.63-6.2969 31.834-11.835 48.115-16.69m-63.254-3.7139c15.845-6.3552 32.273-11.933 48.765-16.813m-64.099-3.053c16.181-6.5042 32.973-12.196 49.824-17.161m-64.098-1.0959c16.426-6.7965 33.542-12.736 50.759-17.91m-58.186-5.1441c11.718-4.608 23.734-8.7972 35.842-12.6m-48.416-8.3468c8.4639-3.2756 17.075-6.3354 25.756-9.1911m-40.617-10.697c5.3948-2.0076 10.857-3.9493 16.37-5.8252m172.35-88.082c-51.863 19.822-103.68-24.662-138.98-0.80982-46.432 31.378-6.4322 91.378 27.903 71.567 31.8-18.349 0.66502-60.189-14.335-50.189-9.3026 6.2017-14.888 18.309-10 25 6.1804 8.4588 10.489 9.6281 20 5m116.47-47.867c-39.705 38.323-22.12 103.88-58.726 125.39-48.317 28.389-85.238-33.553-52.57-56.007 30.256-20.796 54.606 25.324 39.12 34.554-9.6038 5.7243-22.937 5.5504-26.869-1.743-4.972-9.2211-4.1716-13.613 4.1019-20.203m-41.524 0.87845 90-60m-10 40c-10-10-45.467-11.357-55 5 22.008-11.038 34.763-24.757 25-45m-20 110c25 30 50 20 75 10 24.055 32.765 64.661 38.666 105 45m-250-155c-10-20 15-45 30-55-5.851-23.051 2.707-48.99 11.594-74.995m-66.594 89.995c10-25 25-25 25-25-8.4827-38.172 3.2889-47.867 8.1868-64.931m-305.22-0.050779c17.101 51.73 55.349 78.382 111.36 83.976m-92.649-83.951c15.96 38.8 45.366 61.656 86.47 70.639m-71.895-70.667c13.98 27.431 35.684 45.703 64.338 55.732m-48.588-55.64c10.384 16.345 24.002 28.856 40.641 37.786m-146.37-37.849c-14.92 40.152-30.346 80.031-66.568 100.24m50.912-100.24c-12.266 31.761-26.47 61.802-52.938 80.255m36.9-80.278c-9.837 23.176-21.679 44.51-39.856 59.863m25.442-59.799c-7.6919 14.638-16.88 27.881-28.889 38.46m8.7324 81.456c41.102-25.066 61.561-14.287 80 0 20 55-15 110-14.419 151.68 0.21559 15.477 11.727 13.449 19.419 13.324 4.9993-0.0811 15 10 15 10m-100-170c29.586-20.976 55.476-17.507 80-5m45 125c20 0 20 30 5 30-40 5-40-10-5 0m-65 40v10l5-5-5-5v0m90 5 5-5v10l-5-5v0m-85 0s5 5 10 5 5.2442-4.0098 12.322-4.4848c7.6778-0.5152 7.6778 4.4848 12.678 4.4848s15-10 20-10 15 5 20 5h10m-65 20c3.0696 28.452 45.614 8.6886 45 5-5 5-44.772 31.851-45-5v0m40-205c51.536-36.719 85.865-16.182 120 5-35.405-25.982-85-45-120-5v0m110 25c-15 0-36.47-25.385-56.386-23.549-29.815 2.7485-38.614 38.549-53.614 43.549 17.935-21.408 33.794-28.219 48.07-28.065 29.204 0.31575 36.93 33.065 71.93 23.065m-120 5c15-10 32.809 10.043 45.174 9.9454 28.908-0.22819 44.32-14.945 54.826-14.945m-150 0c-20 0-30.874-19.165-47.032-20.29-12.341-0.85961-29.195 12.612-29.195 17.612 0 7.0711 11.237 20.708 22.743 23.258 16.391 3.6335 36.296-20.231 53.483-20.581v0m-75-10c22.643-42.75 64.953-9.4921 65-5m450 105c15 15 35 10 45 5 20.519 14.656 42.757 20.72 62.683 23.229m-75.816 19.108c43.24-13.219 86.965-21.989 123.13-27.337-50.099-96.777-75.099-190.85-100.88-285m-22.251 312.34c43.24-13.219 86.965-21.989 123.13-27.337-50.099-96.777-75.099-190.85-100.88-285m-23.104 312-215.65-312m292.29 293.26c-19.897-2.5442-42.134-8.6082-62.653-23.265-10 5-30 10-45-5" fill="none" stroke="#44f" stroke-linecap="round" stroke-linejoin="round" stroke-width="6"/>
</g>
<g transform="matrix(-.12677 0 0 -.1304 45.18 93.191)">
<path d="m435 885a57.5 75 0 0 1-57.5 75 57.5 75 0 0 1-57.5-75 57.5 75 0 0 1 57.5-75 57.5 75 0 0 1 57.5 75v0m-17.923 55h458.95m-567.76 0h28.757m2.4631 30h561.99m-769.63-426.8 219.19-168.61m-351.03 270.03 44.832-34.486m1093.3 55.053c-60.174-37.999-118.04-78.629-172.87-122.72m243.28 165.45c-20.188-11.785-40.16-23.815-59.891-36.121m-591.17-671.79 407.93 542.58m334.28 517.19c-68.477 39.278-116.73 76.573-164.28 131.81-44.949-77.848-93.918-130.61-160.21-192.69-76.06-71.231-114.27-131.59-129.37-180.43-15.097-48.834-8.9085-86.603 7.9492-120.97 28.317-57.727 91.513-102.36 139.07-133.86m-493.2-563.59c99.152 212.42 198.83 423.74 390.66 443.81m-525.98 368.46c-44.288-126.9-35.856-269.68-43.028-408.14 76.717 39.852 163.36 77.441 457.88 5.7608-134.63 123.19-277.53 232.12-386.76 401.91m-36.48-355.72c29.63 11.748 64.921 21.562 110.04 25.154 51.306 4.0844 115.56 0.48617 200.58-14.406-98.578 87.128-198.39 177.48-282.25 298.86-24.965-94.927-24.797-201.06-28.375-309.61v0m511.37-15.718c-147.71 133.67-306.9 290.17-431.25 439.03m-212.2-406.57c-0.82324 183.17 37.986 343.48 98.116 466.27m-130.51-442.43c2.0865 150.92 30.405 286.39 75.553 398.74m162.46 44.016c149.28-176.43 317.04-345.7 470.4-484.63m-429.56 485.17c125.2-152.94 293.79-318.99 448.6-458.63m-393.96 458.62 160-185h120.42m-237.49 185.05 131.94-152.55h106.79m-195.18 151.89 103.26-119.39h97.264m-157.59 119.44 75.192-86.939h93.897m-126.08 86.899 47.049-54.399h95.046m-99.416 54.736 19.231-22.236h100.69m46.392-288.08 157.39 127.25m-191.86-138.86 171.32 139.2m-583.63-275.66c-44.75 92.165-53.167 188.28-74.619 283.65m-81.344-765c-44.562 162.79-165.04 327.08-94.233 483.48m30.677-25.194c-53.015-160.42 25.441-275.43 59.996-399.32m505.71 271.17c14.888-6.4454 30.422-12.16 46.149-17.214m-851.86 589.82c71.769-42.672 116.94-82.122 169.9-152.74 50 100 99.857 155.16 176.98 227.39 281.56 263.68 94.151 409.61-13.084 480.47m43.606-615.36c4.4232 0 9.3183 2.0026 14.867 9.2402 5.5489 7.2377 10.133 19.282 10.133 33.26s-4.5839 26.022-10.133 33.26c-5.5489 7.2377-10.444 9.2402-14.867 9.2402s-9.3183-2.0026-14.867-9.2402c-5.5489-7.2377-10.133-19.282-10.133-33.26s4.5839-26.022 10.133-33.26c5.5489-7.2377 10.444-9.2402 14.867-9.2402v0m752.5-77.5c16.819 30.213 26.654 60.208 30 90 47.231 18.324 82.887 51.837 115 90 2.3419-37.044-4.2974-71.387-30-100 23.35-4.9986 40.003-20.019 50-45-14.528-24.402-35.976-32.699-60-35 44.875-32.167 30.266-71.339 20-110-32.963 38.744-63.867 77.98-125 110v0m170-59.167-34.324 2.8603m34.324 221.86-26.171-11.632m-81.102-82.498c37.698 20.42 54.567 59.519 65.28 89.01m-75.038-140.51c26.555-0.86899 48.454-6.1717 77.031 15.077-14.637 19.516-30.136 29.721-67.201 34.643m41.83-155.49c-1.9945 40.389-12.783 83.276-52.204 104.58m-20.082-38.311c26.538 39.875 36.074 80.877 26.979 123.43m-59.322-103.86s-82.168-15-95-5-32.969 31.307-40 40c-31.97 39.527 3.6451 49.729 20 30m35-30c-59.312 25.45-64.226 120.61 20 25m-28.807 28.529c-14.944 32.294 0.7581 60.301 58.5-5.2485m-37.508 34.31c-21.191 38.702 41.57 35.553 97.815-27.591m-96.748-99.2c33.572-37.624 66.287-76.827 96.446-120.73m-81.24 122.62c32.493-36.683 64.095-75.006 93.255-117.83m-86.714 95.139c-4.9523-58.002-25.404-90.068-80-65 38.526 16.691 38.618 74.158 80 65v0m-80-65c37.807-6.2538 56.14 40.797 80 65m15-2.6683c35-15 50.673-47.071 67.282-5-32.282-2.0835-62.282 45-67.282 5v0m0.066 0.51364c26.326 8.2675 52.462-23.905 67.216-5.5136m-12.282-142.33c-75 45-75-100-1e-4 -55-45-75 100-75 55 0 75-45 75 100 1e-4 55 45 75-100 75-55 1e-5v0m87.5-27.5c-60 0-60 0-60-60 0 60 0 60-60 60 60 0 60 0 60 60 0-60 0-60 60-60v0m-119.53-36.157c-1.248-10.594-3.0726-20.44-5.4737-28.843 8.5766 2.4505 18.654 4.3004 29.498 5.55m-0.2429 118.93c-10.751 1.2491-20.742 3.0897-29.255 5.5219 2.4225-8.4786 4.2581-18.424 5.5069-29.126m118.94-0.3881c1.2496 10.85 3.1002 20.933 5.5519 29.514-8.4143-2.4041-18.274-4.2302-28.883-5.4784m-0.041-119.04c10.625-1.2483 20.499-3.076 28.924-5.4832-2.4151 8.4529-4.2469 18.364-5.4955 29.029m-884.05-135.27c-4.7848-2.3062-9.5238-4.6875-14.283-7.1261m404.39 4.8038c-125.62 29.149-209.18 36.599-268.28 33.139m-123.8 39.051c29.627 11.745 64.914 21.559 110.03 25.15 51.303 4.0842 115.56 0.48608 200.56-14.404-98.572 87.125-198.42 177.38-282.33 298.84-25.012-94.805-24.711-201.04-28.26-309.58v0m-270.99-321.13c10.787 31.13 5 90 35 90 65 0 20-95-35-145-55 50-100 145-35 145 30 0 24.213-58.87 35-90v0m-45 150s0-10 10-10c12.881 0 15 45-10 45-35 0-30-70 5-70 30 0 40 50 40 50s10-50 40-50c35 0 40 70 5 70-25 0-22.881-45-10-45 10 0 10 10 10 10m-10-10c-55 2.6683 15 250 14.491 296.29-0.32313 29.384-9.491 58.711-49.491 58.711s-49.168-29.327-49.491-58.711c-0.50903-46.289 69.491-293.62 14.491-296.29m20-10.016v-56.65m30 56.856v-56.445m3.2061 418.65c18.612 5.0957 31.794 17.774 31.794 32.607 0 19.33-22.386 35-50 35-27.614 0-50-15.67-50-35 0-14.83 13.177-27.506 31.782-32.604m-0.85085 65.08c-24.256 7.101-30.931 28.265-30.931 47.524 0 36.244 13.136 96.133 20.364 126.34m73.005-65.666c3.778-21.763 6.6306-43.787 6.6306-60.677 0-19.399-6.772-40.731-31.462-47.677m153.35 192.68h6.386m-263.28-1e-5 28.737 1e-5m216.83-15h11.901m-257.47 2e-5 51.088-2e-5m182.58-15h18.578m-252.25-1e-5 52.54 1e-5m170.39-15h24.093m-247.02 1e-5 49.346-1e-5m163.42-15h29.898m-242.67 2e-5 46.444-2e-5m156.75-15h34.543m-237.73 2e-5 43.541-2e-5m150.94-15h38.897m-103.92 0h5.2249m-134.69 1e-5 40.638-1e-5m145.43-15h42.961m-97.242 0h14.514m-146.3 1e-5 38.316-1e-5m139.91-15h46.734m-91.146 0h24.673m-148.49 0h26.284m98.403-15h86.502m-211.19 0h24.543m100.43-15h83.018m-203 0h20.123m97.532-15h72.345m-190 0h22.845m117.16-15h45m125-195c-11.823-17.571-24.455-31.947-45.421-47.163-21.678-15.732-32.015 9.6364-23.863 22.705m69.284 54.458c-13.684-15.717-40.727-39.318-62.257-51.807-20.397-11.832-26.523 15.099-9.5355 27.995m73.441 56.351c-13.684-15.717-40.423-39.856-62.257-51.807-33.042-18.086-43.839 14.159-2.7432 31.807m68.033 79.606c-13.684-15.717-40.423-39.856-62.257-51.807-30.812-16.866-37.656 16.866-5.1163 35.807m65.759-18.456c-13.861-13.59-33.316-27.705-50.773-39.513-22.074-14.93-34.105 4.4736-22.836 17.226m77.737 83.987c-13.77-13.233-32.62-26.885-49.583-38.358-24.045-16.263-36.173 12.272-19.252 25.316m72.12 40.26c-16.237-12.964-39.967-26.862-58.055-36.269-31.27-16.261-36.887 20.479-3.2983 37.121m65.316 22.485c-45.63-38.6-98.239-25.301-54.442 5.0564m60.578 28.858c-49.783-42.234-140.14-42.27-51.454 5.5m65.03 48.069c-62.846-40.071-141.74-29.441-43.897 10.661m40.895 7.6277c-43.416-18.163-92.791 0.20988-43.971 13.658m23.615 4.1773c-36.462-11.384-55.926 9.4266-11.424 20.211m-0.73532-386.37c-7.1925-7.5861-15.51-14.892-25.859-22.401-17.521-12.715-26.719 0.32727-25.123 12.488m49.503-29.247c-1.3178-1.0017-2.6701-2.0059-4.0589-3.0137-19.412-14.087-28.607 3.4419-24.227 16.361m57.628 327.77c-41.829-32.623-87.13-22.987-57.826 2.5989m102.83 33.088c97.552 1.0402 65.936 25.615 21.194 25.634m-7.4999-44.952c31.879-11.92 60.58-9.1721 74.958-1.6289 16.817 8.8226 14.04 24.205-26.164 30.349m-28.448-56.704c58.577-11 103.69 13.949 55.485 26.189m-34.411-54.317c67.421-18.097 125.45 10.742 49.426 33.663m-31.897-55.65c69.253-23.471 135.43 4.4751 67.152 28.145m-39.269-60.029c50.502-8.0078 88.675 9.6656 55.551 28.022m-38.523-47.188c77.254-19.945 157.96 17.262 48.763 27.753m-11.91-66.01c57.176-5.002 100.01 18.027 40.226 35.034m-22.25-52.405c75.248-19.798 151.84 14.609 51.224 34.336m-23.275-61.119c55.645-7.643 102.47 11.747 64.246 28.765m-40.349-50.813c71.57-16.516 140.67 14.62 53.46 34.064m-13.463-70.602c57.115-4.5253 99.001 18.874 36.455 35.786m-12.802-56.768c73.88-16.895 144.86 16.899 43.681 36.081m-5.2726-69.844c57.765-5.5039 101.75 17.66 42.025 34.797m-16.39-57.859c68.018-11.92 127.59 17.438 43.802 36.027m-146.68-199.93c-5.1 11.617-9.9585 23.398-35.552 21.138-14.372 81.302-73.773 98.388-130 120 0 0-19.419 15.646-29.419 15.646-15 0-25.581-5.6459-30.581-5.6459s-10 5-25 5-30-25-40-50c-30-40-55-96.045-55-125 0-20 5.003-150 5-155-2e-3 -3.0893-5.7278-42.446-10.104-72.074m328.04 212.4c-6.3169 10.231-13.74 24.421-7.9332 24.679 2.7343 0.12132 6.9697-10.378 10.244-19.906m278.92 249.72 50.564 54.175m-64.734-40.786 48.735 52.216m-63.377-39.332 48.019 51.449m-61.73-37.568 46.154 49.451m-60.775-36.544 45.963 49.246m-60.147-35.872 35.288 37.809m-49.458-24.419 24.026 25.742m-38.824-13.026 17.842 19.116m-31.643-5.3321 8.9278 9.5655m-316.23 314.29h55.419m-42.282-15h55.008m-42.693-15h55.829m-42.693-15h55.419m-42.282-15h55.419m-36.946-20h32.044m205-25v32.5m-25-32.5v32.5m-25-32.5v32.5m-36.732-19.232 22.578 22.578m-41.757-1.757 23.399 23.399m-41.552-1.5517 22.783 22.783m-40.525-0.52545 22.578 22.578m-41.552-1.5517 20.731 20.731m141.35-629.2c15.63-6.2969 31.834-11.835 48.115-16.69m-63.254-3.7139c15.845-6.3552 32.273-11.933 48.765-16.813m-64.099-3.053c16.181-6.5042 32.973-12.196 49.824-17.161m-64.098-1.0959c16.426-6.7965 33.542-12.736 50.759-17.91m-58.186-5.1441c11.718-4.608 23.734-8.7972 35.842-12.6m-48.416-8.3468c8.4639-3.2756 17.075-6.3354 25.756-9.1911m-40.617-10.697c5.3948-2.0076 10.857-3.9493 16.37-5.8252m172.35-88.082c-51.863 19.822-103.68-24.662-138.98-0.80982-46.432 31.378-6.4322 91.378 27.903 71.567 31.8-18.349 0.66502-60.189-14.335-50.189-9.3026 6.2017-14.888 18.309-10 25 6.1804 8.4588 10.489 9.6281 20 5m116.47-47.867c-39.705 38.323-22.12 103.88-58.726 125.39-48.317 28.389-85.238-33.553-52.57-56.007 30.256-20.796 54.606 25.324 39.12 34.554-9.6038 5.7243-22.937 5.5504-26.869-1.743-4.972-9.2211-4.1716-13.613 4.1019-20.203m-41.524 0.87845 90-60m-10 40c-10-10-45.467-11.357-55 5 22.008-11.038 34.763-24.757 25-45m-20 110c25 30 50 20 75 10 24.055 32.765 64.661 38.666 105 45m-250-155c-10-20 15-45 30-55-5.851-23.051 2.707-48.99 11.594-74.995m-66.594 89.995c10-25 25-25 25-25-8.4827-38.172 3.2889-47.867 8.1868-64.931m-305.22-0.050779c17.101 51.73 55.349 78.382 111.36 83.976m-92.649-83.951c15.96 38.8 45.366 61.656 86.47 70.639m-71.895-70.667c13.98 27.431 35.684 45.703 64.338 55.732m-48.588-55.64c10.384 16.345 24.002 28.856 40.641 37.786m-146.37-37.849c-14.92 40.152-30.346 80.031-66.568 100.24m50.912-100.24c-12.266 31.761-26.47 61.802-52.938 80.255m36.9-80.278c-9.837 23.176-21.679 44.51-39.856 59.863m25.442-59.799c-7.6919 14.638-16.88 27.881-28.889 38.46m8.7324 81.456c41.102-25.066 61.561-14.287 80 0 20 55-15 110-14.419 151.68 0.21559 15.477 11.727 13.449 19.419 13.324 4.9993-0.0811 15 10 15 10m-100-170c29.586-20.976 55.476-17.507 80-5m45 125c20 0 20 30 5 30-40 5-40-10-5 0m-65 40v10l5-5-5-5v0m90 5 5-5v10l-5-5v0m-85 0s5 5 10 5 5.2442-4.0098 12.322-4.4848c7.6778-0.5152 7.6778 4.4848 12.678 4.4848s15-10 20-10 15 5 20 5h10m-65 20c3.0696 28.452 45.614 8.6886 45 5-5 5-44.772 31.851-45-5v0m40-205c51.536-36.719 85.865-16.182 120 5-35.405-25.982-85-45-120-5v0m110 25c-15 0-36.47-25.385-56.386-23.549-29.815 2.7485-38.614 38.549-53.614 43.549 17.935-21.408 33.794-28.219 48.07-28.065 29.204 0.31575 36.93 33.065 71.93 23.065m-120 5c15-10 32.809 10.043 45.174 9.9454 28.908-0.22819 44.32-14.945 54.826-14.945m-150 0c-20 0-30.874-19.165-47.032-20.29-12.341-0.85961-29.195 12.612-29.195 17.612 0 7.0711 11.237 20.708 22.743 23.258 16.391 3.6335 36.296-20.231 53.483-20.581v0m-75-10c22.643-42.75 64.953-9.4921 65-5m450 105c15 15 35 10 45 5 20.519 14.656 42.757 20.72 62.683 23.229m-75.816 19.108c43.24-13.219 86.965-21.989 123.13-27.337-50.099-96.777-75.099-190.85-100.88-285m-22.251 312.34c43.24-13.219 86.965-21.989 123.13-27.337-50.099-96.777-75.099-190.85-100.88-285m-23.104 312-215.65-312m292.29 293.26c-19.897-2.5442-42.134-8.6082-62.653-23.265-10 5-30 10-45-5" fill="none" stroke="#44f" stroke-linecap="round" stroke-linejoin="round" stroke-width="6"/>
</g>
<g transform="matrix(.12677 0 0 .1304 -119.62 -167.61)">
<path d="m986.6 811.2 17.525 26.837m3.5763 5.4766 14.288 21.88m-28.503-64.528c12.595 20.813 26.365 39.794 40.672 57.94m3.6811 4.6368c6.0574 7.5794 12.2 15.026 18.38 22.414m3.5795 4.2682c4.9357 5.8722 9.8895 11.716 14.837 17.57m-72.351-116.42c25.655 42.892 56.331 77.957 86.527 113.77m-77.496-122.8c26.598 44.899 58.724 81.183 90.152 118.55m-83.262-125.39c27.228 45.115 59.987 81.61 91.79 119.6m-1018-485.91c5.3465 34.4 12.365 69.897 17.979 99.543s9.6075 54.847 9.5234 62.492c-0.14502 13.187-2.6038 25.095-7.3516 32.221-4.7477 7.1256-10.806 11.654-27.141 11.654-16.334 0-22.393-4.5287-27.141-11.654m37.371-91.922c2.7834 14.698 5.162 28.283 6.8125 38.99s2.4606 19.517 2.4492 20.547c-0.12561 11.422-3.0369 21.371-4.834 24.068-1.5544 2.3329-1.961 2.6713-3.3164 3.332s-4.561 1.6387-11.342 1.6387m14.244 41.859c14.239 3.8987 20.756 12.194 20.756 18.141 0 3.8746-2.1344 8.1827-8.2461 12.461s-15.784 7.5391-26.754 7.5391c-10.97 0-20.642-3.2608-26.754-7.5391m41.23 34.303c8.8357 2.4858 12.848 6.4358 15.93 11.998s4.5938 13.284 4.5938 21.238c0 15.201-2.7062 36.775-6.4102 58.111m-10.641-137.83c-3.0457 2.0548-10.089 4.7168-17.949 4.7168-7.9972 0-15.198-2.7602-18.152-4.8281m35.438 65.859c1.2377 2.2338 2.7148 7.9153 2.7148 13.969 0 13.42-2.5663 34.674-6.1895 55.545m627.95-427.27c-86.906 19.393-152.07 27.729-201.92 29.296m190.77-40.986c-65.672 14.19-118.49 21.873-161.44 25.042m148.87-37.371c-49.768 10.383-91.885 16.912-127.76 20.523m115.5-33.013c-38.303 7.6982-71.908 13.042-101.51 16.491m90.858-29.388c-30.036 5.8268-57.089 10.165-81.515 13.253m71.583-26.359c-23.347 4.3696-44.834 7.8156-64.642 10.458m54.01-23.508c-18.048 3.2392-34.946 5.9103-50.783 8.0727m-218.79 79.212c11.945-13.956 27.221-12.698 45 0m5-185c10 15 30 15 45 15m-175-5c50 25 60-30 70-30m-29.98-12.945c1.143 3.1783 1.7863 6.7663 1.7863 10.564 0 13.036-7.5814 23.604-16.934 23.604s-16.933-10.568-16.933-23.604c0-5.798 1.4996-11.108 3.9878-15.217m166.63-3.7956c1.9078 3.82 3.0263 8.463 3.0263 13.47 0 13.036-7.5814 23.604-16.934 23.604s-16.933-10.568-16.933-23.604c0-4.0326 0.72545-7.829 2.0044-11.149" fill="none" stroke="#44f" stroke-linecap="round" stroke-linejoin="round" stroke-width="3"/>
<g transform="matrix(.057453 -.046859 .048209 .055845 1188 935)">
<path d="m0-500c100 250 355 400 355 685a150 150 0 0 1-300 0 10 10 0 0 0-20 0c0 200 50 215 95 315h-260c45-100 95-115 95-315a10 10 0 0 0-20 0 150 150 0 0 1-300 0c0-285 255-435 355-685z"/>
</g>
<g transform="matrix(.057453 -.046859 .048209 .055845 1194 1043)">
<path d="m0-500c100 250 355 400 355 685a150 150 0 0 1-300 0 10 10 0 0 0-20 0c0 200 50 215 95 315h-260c45-100 95-115 95-315a10 10 0 0 0-20 0 150 150 0 0 1-300 0c0-285 255-435 355-685z"/>
</g>
<g transform="matrix(.057453 -.046859 .048209 .055845 1096 1033)">
<path d="m0-500c100 250 355 400 355 685a150 150 0 0 1-300 0 10 10 0 0 0-20 0c0 200 50 215 95 315h-260c45-100 95-115 95-315a10 10 0 0 0-20 0 150 150 0 0 1-300 0c0-285 255-435 355-685z"/>
</g>
<g transform="matrix(.057453 -.046859 .048209 .055845 1022 947)">
<path d="m0-500c100 250 355 400 355 685a150 150 0 0 1-300 0 10 10 0 0 0-20 0c0 200 50 215 95 315h-260c45-100 95-115 95-315a10 10 0 0 0-20 0 150 150 0 0 1-300 0c0-285 255-435 355-685z"/>
</g>
<g transform="matrix(.057453 -.046859 .048209 .055845 918 851)">
<path d="m0-500c100 250 355 400 355 685a150 150 0 0 1-300 0 10 10 0 0 0-20 0c0 200 50 215 95 315h-260c45-100 95-115 95-315a10 10 0 0 0-20 0 150 150 0 0 1-300 0c0-285 255-435 355-685z"/>
</g>
<g transform="matrix(.057453 -.046859 .048209 .055845 897 726)">
<path d="m0-500c100 250 355 400 355 685a150 150 0 0 1-300 0 10 10 0 0 0-20 0c0 200 50 215 95 315h-260c45-100 95-115 95-315a10 10 0 0 0-20 0 150 150 0 0 1-300 0c0-285 255-435 355-685z"/>
</g>
</g>
<g transform="matrix(-.12677 0 0 -.1304 45.18 93.191)">
<path d="m986.6 811.2 17.525 26.837m3.5763 5.4766 14.288 21.88m-28.503-64.528c12.595 20.813 26.365 39.794 40.672 57.94m3.6811 4.6368c6.0574 7.5794 12.2 15.026 18.38 22.414m3.5795 4.2682c4.9357 5.8722 9.8895 11.716 14.837 17.57m-72.351-116.42c25.655 42.892 56.331 77.957 86.527 113.77m-77.496-122.8c26.598 44.899 58.724 81.183 90.152 118.55m-83.262-125.39c27.228 45.115 59.987 81.61 91.79 119.6m-1018-485.91c5.3465 34.4 12.365 69.897 17.979 99.543s9.6075 54.847 9.5234 62.492c-0.14502 13.187-2.6038 25.095-7.3516 32.221-4.7477 7.1256-10.806 11.654-27.141 11.654-16.334 0-22.393-4.5287-27.141-11.654m37.371-91.922c2.7834 14.698 5.162 28.283 6.8125 38.99s2.4606 19.517 2.4492 20.547c-0.12561 11.422-3.0369 21.371-4.834 24.068-1.5544 2.3329-1.961 2.6713-3.3164 3.332s-4.561 1.6387-11.342 1.6387m14.244 41.859c14.239 3.8987 20.756 12.194 20.756 18.141 0 3.8746-2.1344 8.1827-8.2461 12.461s-15.784 7.5391-26.754 7.5391c-10.97 0-20.642-3.2608-26.754-7.5391m41.23 34.303c8.8357 2.4858 12.848 6.4358 15.93 11.998s4.5938 13.284 4.5938 21.238c0 15.201-2.7062 36.775-6.4102 58.111m-10.641-137.83c-3.0457 2.0548-10.089 4.7168-17.949 4.7168-7.9972 0-15.198-2.7602-18.152-4.8281m35.438 65.859c1.2377 2.2338 2.7148 7.9153 2.7148 13.969 0 13.42-2.5663 34.674-6.1895 55.545m627.95-427.27c-86.906 19.393-152.07 27.729-201.92 29.296m190.77-40.986c-65.672 14.19-118.49 21.873-161.44 25.042m148.87-37.371c-49.768 10.383-91.885 16.912-127.76 20.523m115.5-33.013c-38.303 7.6982-71.908 13.042-101.51 16.491m90.858-29.388c-30.036 5.8268-57.089 10.165-81.515 13.253m71.583-26.359c-23.347 4.3696-44.834 7.8156-64.642 10.458m54.01-23.508c-18.048 3.2392-34.946 5.9103-50.783 8.0727m-218.79 79.212c11.945-13.956 27.221-12.698 45 0m5-185c10 15 30 15 45 15m-175-5c50 25 60-30 70-30m-29.98-12.945c1.143 3.1783 1.7863 6.7663 1.7863 10.564 0 13.036-7.5814 23.604-16.934 23.604s-16.933-10.568-16.933-23.604c0-5.798 1.4996-11.108 3.9878-15.217m166.63-3.7956c1.9078 3.82 3.0263 8.463 3.0263 13.47 0 13.036-7.5814 23.604-16.934 23.604s-16.933-10.568-16.933-23.604c0-4.0326 0.72545-7.829 2.0044-11.149" fill="none" stroke="#44f" stroke-linecap="round" stroke-linejoin="round" stroke-width="3"/>
<g transform="matrix(.057453 -.046859 .048209 .055845 1188 935)">
<path d="m0-500c100 250 355 400 355 685a150 150 0 0 1-300 0 10 10 0 0 0-20 0c0 200 50 215 95 315h-260c45-100 95-115 95-315a10 10 0 0 0-20 0 150 150 0 0 1-300 0c0-285 255-435 355-685z"/>
</g>
<g transform="matrix(.057453 -.046859 .048209 .055845 1194 1043)">
<path d="m0-500c100 250 355 400 355 685a150 150 0 0 1-300 0 10 10 0 0 0-20 0c0 200 50 215 95 315h-260c45-100 95-115 95-315a10 10 0 0 0-20 0 150 150 0 0 1-300 0c0-285 255-435 355-685z"/>
</g>
<g transform="matrix(.057453 -.046859 .048209 .055845 1096 1033)">
<path d="m0-500c100 250 355 400 355 685a150 150 0 0 1-300 0 10 10 0 0 0-20 0c0 200 50 215 95 315h-260c45-100 95-115 95-315a10 10 0 0 0-20 0 150 150 0 0 1-300 0c0-285 255-435 355-685z"/>
</g>
<g transform="matrix(.057453 -.046859 .048209 .055845 1022 947)">
<path d="m0-500c100 250 355 400 355 685a150 150 0 0 1-300 0 10 10 0 0 0-20 0c0 200 50 215 95 315h-260c45-100 95-115 95-315a10 10 0 0 0-20 0 150 150 0 0 1-300 0c0-285 255-435 355-685z"/>
</g>
<g transform="matrix(.057453 -.046859 .048209 .055845 918 851)">
<path d="m0-500c100 250 355 400 355 685a150 150 0 0 1-300 0 10 10 0 0 0-20 0c0 200 50 215 95 315h-260c45-100 95-115 95-315a10 10 0 0 0-20 0 150 150 0 0 1-300 0c0-285 255-435 355-685z"/>
</g>
<g transform="matrix(.057453 -.046859 .048209 .055845 897 726)">
<path d="m0-500c100 250 355 400 355 685a150 150 0 0 1-300 0 10 10 0 0 0-20 0c0 200 50 215 95 315h-260c45-100 95-115 95-315a10 10 0 0 0-20 0 150 150 0 0 1-300 0c0-285 255-435 355-685z"/>
</g>
</g>
</svg>
