<?xml version="1.0" encoding="UTF-8"?>
<svg width="100%" height="100%" version="1.1" viewBox="-120 -168 165.58 261.58" xmlns="http://www.w3.org/2000/svg">
<g transform="matrix(.12677 0 0 .1304 -119.62 -167.54)">
<path d="m126.24 0c-20.132 115.73-15.567 243.29-96.244 330 33.589-7.9788 66.994-12.36 99.984-9.6074l203.66-320.39zm668.94 480-510.76 0.11719c-33.066 50.77-73.708 92.457-125.2 119.68l697.93 0.79296c-23.462-43.178-43.98-83.366-61.967-120.59zm322.31 57.5c-16.937 0-33.872 21.077-28.146 63.227a42.5 42.5 0 0 1 28.146-10.727 42.5 42.5 0 0 1 28.148 10.711c5.7195-42.139-11.214-63.211-28.148-63.211zm-260.1 63.127c-9.5702 10.815-18.211 22.757-25.723 35.768-37.37 64.728-37.814 140.45-7.7969 202.08-27.864 45.759-43.883 99.302-43.883 156.53 3e-5 168.45 138.79 305 310 305 80.432 0 153.71-30.138 208.8-79.562l-0.6914-0.5156 1.8887-2.541v-27.119l-376.05-279.64 80.025-114.68 296.03 219.98v-31.15l-303.94-226.04-105.27 150.76-0.44727-0.47656 10.658-15.369c-74.41-55.386-96.537-160.12-47.672-244.76 6.0376-10.457 12.883-20.128 20.404-28.98zm213.15 2.5938c-68.783-0.53957-63.724 68.144 15.172 57.426a42.5 42.5 0 0 1-10.727-28.146 42.5 42.5 0 0 1 10.711-28.148c-5.3969-0.73252-10.45-1.0939-15.156-1.1309zm93.891 0c-4.7103 0.037-9.769 0.39885-15.172 1.1328a42.5 42.5 0 0 1 10.727 28.146 42.5 42.5 0 0 1-10.711 28.148c78.881 10.706 83.934-57.967 15.156-57.428zm-754.28 26.498c5.6329 161.81 151.47 195.79 164.08 310.26l20.432-0.0117c-7.5681-118.94-148.83-148.39-154.51-309.87zm129.96 0.38867c4.0409 161.4 104.66 181.69 109.68 309.84l25.025-2e-3c-4.3412-127.98-91.331-143.77-94.73-309.83zm119.99 0.18164c2.7858 128.34 57.357 162.2 59.805 309.39h20.014c-2.0394-147.19-47.516-181.05-49.838-309.39zm574.89 9.7109c-13.07 39.21-55.139 75.15-53.707 109.75-4.3709-18.951-8.081-37.984-13.525-55.889l-21.678-2.0606c7.3497 20 11.636 41.876 16.582 63.76l22.328 9.4375c63.58-18.951 58.442-71.175 50-125zm-89.354 24.273a42.5 42.5 0 0 1-28.146 10.727 42.5 42.5 0 0 1-28.148-10.711c-4.562 33.611 5.2916 53.803 18.059 60.605l-1.6817-0.10547c-21.832 2.0768-44.951 12.789-70.728 10.211 17.417 28.272 67.468 31.437 130 25-12.934-21.018-25.868-30.534-39.141-33.959l-0.6387-0.0391c13.883-5.4789 25.272-26.052 20.426-61.729zm-230.86 270.79 280.14 208.25c-29.606 19.988-65.264 31.69-104.93 31.69-105.02 0-185-80.047-185-180-1e-5 -21.157 3.5828-40.965 10.252-59.441zm-259.41 29.967-137.86 0.0312c1.5934 13.112 2.4863 26.423 2.4863 39.94 0 9.8559-0.47481 19.602-1.4102 29.609l136.38 0.3906 0.0156-2.6992c-6.289 2.1562-15.595-0.074-15.582-6.711-7.0703 7.0974-22.088-7.9199-14.99-14.99-10.018 0.019-10.018-21.218 0-21.199-7.0973-7.0703 7.92-22.088 14.99-14.99-0.013-6.7682 9.6749-8.9668 15.961-6.5898zm325.17 18.986c-0.36194 3.5527-0.54492 7.2082-0.54492 10.984 0 58.883 44.645 105 110 105 13.872 0 26.585-2.2203 38.178-6.2949z" fill="#fc4"/>
</g>
<g transform="matrix(-.12677 0 0 -.1304 45.18 93.256)">
<path d="m126.24 0c-20.132 115.73-15.567 243.29-96.244 330 33.589-7.9788 66.994-12.36 99.984-9.6074l203.66-320.39zm668.94 480-510.76 0.11719c-33.066 50.77-73.708 92.457-125.2 119.68l697.93 0.79296c-23.462-43.178-43.98-83.366-61.967-120.59zm322.31 57.5c-16.937 0-33.872 21.077-28.146 63.227a42.5 42.5 0 0 1 28.146-10.727 42.5 42.5 0 0 1 28.148 10.711c5.7195-42.139-11.214-63.211-28.148-63.211zm-260.1 63.127c-9.5702 10.815-18.211 22.757-25.723 35.768-37.37 64.728-37.814 140.45-7.7969 202.08-27.864 45.759-43.883 99.302-43.883 156.53 3e-5 168.45 138.79 305 310 305 80.432 0 153.71-30.138 208.8-79.562l-0.6914-0.5156 1.8887-2.541v-27.119l-376.05-279.64 80.025-114.68 296.03 219.98v-31.15l-303.94-226.04-105.27 150.76-0.44727-0.47656 10.658-15.369c-74.41-55.386-96.537-160.12-47.672-244.76 6.0376-10.457 12.883-20.128 20.404-28.98zm213.15 2.5938c-68.783-0.53957-63.724 68.144 15.172 57.426a42.5 42.5 0 0 1-10.727-28.146 42.5 42.5 0 0 1 10.711-28.148c-5.3969-0.73252-10.45-1.0939-15.156-1.1309zm93.891 0c-4.7103 0.037-9.769 0.39885-15.172 1.1328a42.5 42.5 0 0 1 10.727 28.146 42.5 42.5 0 0 1-10.711 28.148c78.881 10.706 83.934-57.967 15.156-57.428zm-754.28 26.498c5.6329 161.81 151.47 195.79 164.08 310.26l20.432-0.0117c-7.5681-118.94-148.83-148.39-154.51-309.87zm129.96 0.38867c4.0409 161.4 104.66 181.69 109.68 309.84l25.025-2e-3c-4.3412-127.98-91.331-143.77-94.73-309.83zm119.99 0.18164c2.7858 128.34 57.357 162.2 59.805 309.39h20.014c-2.0394-147.19-47.516-181.05-49.838-309.39zm574.89 9.7109c-13.07 39.21-55.139 75.15-53.707 109.75-4.3709-18.951-8.081-37.984-13.525-55.889l-21.678-2.0606c7.3497 20 11.636 41.876 16.582 63.76l22.328 9.4375c63.58-18.951 58.442-71.175 50-125zm-89.354 24.273a42.5 42.5 0 0 1-28.146 10.727 42.5 42.5 0 0 1-28.148-10.711c-4.562 33.611 5.2916 53.803 18.059 60.605l-1.6817-0.10547c-21.832 2.0768-44.951 12.789-70.728 10.211 17.417 28.272 67.468 31.437 130 25-12.934-21.018-25.868-30.534-39.141-33.959l-0.6387-0.0391c13.883-5.4789 25.272-26.052 20.426-61.729zm-230.86 270.79 280.14 208.25c-29.606 19.988-65.264 31.69-104.93 31.69-105.02 0-185-80.047-185-180-1e-5 -21.157 3.5828-40.965 10.252-59.441zm-259.41 29.967-137.86 0.0312c1.5934 13.112 2.4863 26.423 2.4863 39.94 0 9.8559-0.47481 19.602-1.4102 29.609l136.38 0.3906 0.0156-2.6992c-6.289 2.1562-15.595-0.074-15.582-6.711-7.0703 7.0974-22.088-7.9199-14.99-14.99-10.018 0.019-10.018-21.218 0-21.199-7.0973-7.0703 7.92-22.088 14.99-14.99-0.013-6.7682 9.6749-8.9668 15.961-6.5898zm325.17 18.986c-0.36194 3.5527-0.54492 7.2082-0.54492 10.984 0 58.883 44.645 105 110 105 13.872 0 26.585-2.2203 38.178-6.2949z" fill="#fc4"/>
</g>
<g transform="matrix(.12677 0 0 .1304 -119.62 -167.54)">
<path d="m333.65 0-201 316.52 15.656-25.008c-20.85 2.6938-41.567 7.074-63.307-1.5156-11.597 15.062-27.312 25.967-42.447 36.918 29.806-5.9198 58.786-8.877 87.48-6.2129l0.18164-0.28906c17.627 1.9778 34.916 5.695 51.924 12.107l211.5-332.52zm308.79 0c34.353 141.48 46.363 258.03 152.87 480 17.86 37.224 38.378 77.411 62.105 121.18l16.316 18.732c115.15-158.38-128.97-277.61-230.81-619.91zm-382.45 55c-13.228 10.599-26.504 11.206-35 10 5.2874 8.6038 6.504 20.651 5 35 9.7829 8.1456 15.717 18.856 20.777 30.15l41.895-65.764c-12.075-0.7592-23.681-2.4583-32.672-9.3867zm857.5 565a12.5 12.5 0 0 0-12.5 12.5 12.5 12.5 0 0 0 12.5 12.5 12.5 12.5 0 0 0 12.5-12.5 12.5 12.5 0 0 0-12.5-12.5zm-707.18 9.8594-231.31 0.18945 39.631 70.182c144.49 3.7186 264.4 105 294.23 239.42l61.385 0.33008c-12.614-114.46-158.45-148.44-163.93-310.12zm425.5 0.0215-145.89 0.26367c2.4762 128.49 47.953 162.35 50.021 309.7l44.734 0.0547c7.1579-36.616 20.549-70.856 39.242-101.48-30.081-61.535-29.635-137.28 7.7441-202.02 1.2947-2.2425 2.6229-4.454 4.1465-6.5137zm37.805 35.119-11.668 25h74.246l-22.627-25zm-19.092 55-2.1211 25h131.88l-21.92-25zm0.70703 55 7.0703 25h103.95l18.031-25zm20.859 55 19.092 25h33.941l17.678-25zm-31.459 122.69a12.5 12.5 0 0 0-12.555 11.521 12.5 12.5 0 0 0 11.482 13.439 12.5 12.5 0 0 0 13.439-11.484 12.5 12.5 0 0 0-11.482-13.439 12.5 12.5 0 0 0-0.88477-0.0371zm-194.65 34.814a12.5 12.5 0 0 0-12.5 12.5 12.5 12.5 0 0 0 12.5 12.5 12.5 12.5 0 0 0 12.5-12.5 12.5 12.5 0 0 0-12.5-12.5zm355.3 14.949c3.4169 41.512 35.468 72.551 84.697 72.551 4.1768 0 8.1929-0.2454 12.059-0.7227zm-156.13 36.377a12.5 12.5 0 0 0-2.4883 0.1933 12.5 12.5 0 0 0-10.094 14.512 12.5 12.5 0 0 0 14.512 10.094 12.5 12.5 0 0 0 10.094-14.512 12.5 12.5 0 0 0-12.023-10.287zm34.365 78.182a12.5 12.5 0 0 0-4.8633 1.0078 12.5 12.5 0 0 0-6.5723 16.41 12.5 12.5 0 0 0 16.41 6.5742 12.5 12.5 0 0 0 6.5723-16.41 12.5 12.5 0 0 0-11.547-7.582zm58.17 60.033a12.5 12.5 0 0 0-8.8867 3.9746 12.5 12.5 0 0 0 0.62109 17.666 12.5 12.5 0 0 0 17.666-0.6211 12.5 12.5 0 0 0-0.6211-17.666 12.5 12.5 0 0 0-8.7793-3.3535zm252.18 25.92a12.5 12.5 0 0 0-4.8692 0.9746 12.5 12.5 0 0 0-6.6816 16.367 12.5 12.5 0 0 0 16.367 6.6817 12.5 12.5 0 0 0 6.6797-16.367 12.5 12.5 0 0 0-11.496-7.6563zm-177.21 11.217a12.5 12.5 0 0 0-12.213 8.9317 12.5 12.5 0 0 0 8.4141 15.547 12.5 12.5 0 0 0 15.547-8.414 12.5 12.5 0 0 0-8.4141-15.547 12.5 12.5 0 0 0-3.334-0.5176zm90.916 10.539a12.5 12.5 0 0 0-12.078 12.908 12.5 12.5 0 0 0 12.908 12.078 12.5 12.5 0 0 0 12.078-12.908 12.5 12.5 0 0 0-12.908-12.078z" fill="#f00"/>
</g>
<g transform="matrix(-.12677 0 0 -.1304 45.18 93.256)">
<path d="m333.65 0-201 316.52 15.656-25.008c-20.85 2.6938-41.567 7.074-63.307-1.5156-11.597 15.062-27.312 25.967-42.447 36.918 29.806-5.9198 58.786-8.877 87.48-6.2129l0.18164-0.28906c17.627 1.9778 34.916 5.695 51.924 12.107l211.5-332.52zm308.79 0c34.353 141.48 46.363 258.03 152.87 480 17.86 37.224 38.378 77.411 62.105 121.18l16.316 18.732c115.15-158.38-128.97-277.61-230.81-619.91zm-382.45 55c-13.228 10.599-26.504 11.206-35 10 5.2874 8.6038 6.504 20.651 5 35 9.7829 8.1456 15.717 18.856 20.777 30.15l41.895-65.764c-12.075-0.7592-23.681-2.4583-32.672-9.3867zm857.5 565a12.5 12.5 0 0 0-12.5 12.5 12.5 12.5 0 0 0 12.5 12.5 12.5 12.5 0 0 0 12.5-12.5 12.5 12.5 0 0 0-12.5-12.5zm-707.18 9.8594-231.31 0.18945 39.631 70.182c144.49 3.7186 264.4 105 294.23 239.42l61.385 0.33008c-12.614-114.46-158.45-148.44-163.93-310.12zm425.5 0.0215-145.89 0.26367c2.4762 128.49 47.953 162.35 50.021 309.7l44.734 0.0547c7.1579-36.616 20.549-70.856 39.242-101.48-30.081-61.535-29.635-137.28 7.7441-202.02 1.2947-2.2425 2.6229-4.454 4.1465-6.5137zm37.805 35.119-11.668 25h74.246l-22.627-25zm-19.092 55-2.1211 25h131.88l-21.92-25zm0.70703 55 7.0703 25h103.95l18.031-25zm20.859 55 19.092 25h33.941l17.678-25zm-31.459 122.69a12.5 12.5 0 0 0-12.555 11.521 12.5 12.5 0 0 0 11.482 13.439 12.5 12.5 0 0 0 13.439-11.484 12.5 12.5 0 0 0-11.482-13.439 12.5 12.5 0 0 0-0.88477-0.0371zm-194.65 34.814a12.5 12.5 0 0 0-12.5 12.5 12.5 12.5 0 0 0 12.5 12.5 12.5 12.5 0 0 0 12.5-12.5 12.5 12.5 0 0 0-12.5-12.5zm355.3 14.949c3.4169 41.512 35.468 72.551 84.697 72.551 4.1768 0 8.1929-0.2454 12.059-0.7227zm-156.13 36.377a12.5 12.5 0 0 0-2.4883 0.1933 12.5 12.5 0 0 0-10.094 14.512 12.5 12.5 0 0 0 14.512 10.094 12.5 12.5 0 0 0 10.094-14.512 12.5 12.5 0 0 0-12.023-10.287zm34.365 78.182a12.5 12.5 0 0 0-4.8633 1.0078 12.5 12.5 0 0 0-6.5723 16.41 12.5 12.5 0 0 0 16.41 6.5742 12.5 12.5 0 0 0 6.5723-16.41 12.5 12.5 0 0 0-11.547-7.582zm58.17 60.033a12.5 12.5 0 0 0-8.8867 3.9746 12.5 12.5 0 0 0 0.62109 17.666 12.5 12.5 0 0 0 17.666-0.6211 12.5 12.5 0 0 0-0.6211-17.666 12.5 12.5 0 0 0-8.7793-3.3535zm252.18 25.92a12.5 12.5 0 0 0-4.8692 0.9746 12.5 12.5 0 0 0-6.6816 16.367 12.5 12.5 0 0 0 16.367 6.6817 12.5 12.5 0 0 0 6.6797-16.367 12.5 12.5 0 0 0-11.496-7.6563zm-177.21 11.217a12.5 12.5 0 0 0-12.213 8.9317 12.5 12.5 0 0 0 8.4141 15.547 12.5 12.5 0 0 0 15.547-8.414 12.5 12.5 0 0 0-8.4141-15.547 12.5 12.5 0 0 0-3.334-0.5176zm90.916 10.539a12.5 12.5 0 0 0-12.078 12.908 12.5 12.5 0 0 0 12.908 12.078 12.5 12.5 0 0 0 12.078-12.908 12.5 12.5 0 0 0-12.908-12.078z" fill="#f00"/>
</g>
<g transform="matrix(.12677 0 0 .1304 -119.62 -167.54)">
<path d="m636.57 188.84a13.432 21.162 0 0 0-13.434 21.162 13.432 21.162 0 0 0 13.434 21.162 13.432 21.162 0 0 0 13.432-21.162 13.432 21.162 0 0 0-13.432-21.162zm-140 1.209a13.432 21.162 0 0 0-13.434 21.162 13.432 21.162 0 0 0 13.434 21.162 13.432 21.162 0 0 0 13.432-21.162 13.432 21.162 0 0 0-13.432-21.162zm-233.32 319.79c-3.3273 4.334-6.7382 8.5827-10.23 12.75l3.877-4.2109c2.0369-0.0686 4.0758-0.0931 6.1172-0.084 1.9324 9e-3 3.8673 0.0526 5.8027 0.11328 0.73332 0.023 1.4675 0.0572 2.2012 0.0859 1.1352 0.0445 2.2704 0.0871 3.4062 0.14258 3.8393 0.18758 7.6818 0.42136 11.523 0.64843 0.69671 0.0412 1.3932 0.0812 2.0898 0.1211 1.3163 0.0754 2.6315 0.14228 3.9473 0.20898 0.76628 0.0389 1.5328 0.0788 2.2988 0.11328 1.255 0.0565 2.5096 0.0977 3.7637 0.13867 0.77477 0.0253 1.5499 0.0582 2.3242 0.0762 0.2019 5e-3 0.40361 8e-3 0.60547 0.0117 1.666 0.0341 3.3306 0.0542 4.9941 0.0449-0.13638 0.29077-0.27846 0.57706-0.42968 0.86133-0.15092 0.28372-0.30958 0.56397-0.47657 0.84179-0.0474 0.0789-0.10157 0.15587-0.15039 0.23438-0.29463 0.47386-0.60904 0.94102-0.95703 1.4004-1e-3 2e-3 -2e-3 4e-3 -4e-3 6e-3 -0.20167 0.26593-0.4135 0.52914-0.63477 0.79101-2e-3 3e-3 -4e-3 5e-3 -6e-3 8e-3 -0.22093 0.26122-0.45168 0.52154-0.69336 0.7793l-8e-3 8e-3c-0.24168 0.2575-0.49417 0.51295-0.75781 0.76758-3e-3 3e-3 -6e-3 7e-3 -0.01 0.01-0.26338 0.25407-0.53773 0.50601-0.82422 0.75781-0.58 0.50994-1.2083 1.0154-1.8906 1.5195-0.68216 0.50405-1.4202 1.0067-2.2148 1.5098-0.7908 0.50064-1.6405 1.0015-2.5527 1.5059-4e-3 2e-3 -7e-3 5e-3 -0.0117 8e-3 -0.91733 0.50688-1.8991 1.0158-2.9492 1.5312-1.0437 0.51227-2.1569 1.0313-3.3418 1.5566-8e-3 3e-3 -0.0139 8e-3 -0.0215 0.0117-5.964 2.6427-13.783 5.4812-24.08 8.8125-4.1184 1.3323-8.6362 2.7448-13.59 4.2539 6.5524 3.5878 9.9143 7.0158 11.84 11.121-3.6259-0.0202-7.2584 0.0752-10.895 0.23047-10.908 0.46585-21.849 1.468-32.73 1.4766l11.787-12.803c-7.9815 7.8822-16.348 15.379-25.139 22.447l635.59 0.32617c-1.6393-3.0796-3.2222-6.1007-4.8242-9.1426-0.14916-2.2e-4 -0.29813-7e-3 -0.44726-8e-3 -0.92322-4e-3 -1.8472-0.01-2.7695-0.0293-8e-3 -1.8e-4 -0.0169 1.9e-4 -0.0254 0-0.0834-2e-3 -0.16663-8e-3 -0.25-0.01-0.98967-0.023-1.9782-0.0537-2.9668-0.0977-7e-3 -3.1e-4 -0.0143 3.2e-4 -0.0215 0-0.18052-8e-3 -0.36053-0.0226-0.54101-0.0312-0.84881-0.0414-1.697-0.0857-2.5449-0.14453-14.05-0.96289-27.956-4.3762-41.523-13.574l0.71289 0.19336c-0.31313-0.211-0.62654-0.40385-0.93945-0.62109-2.2187 0.20945-4.3077 0.83712-6.4727 1.4961 6.5541 3.5884 9.9063 7.0153 11.832 11.121-31.867-0.17702-64.258 8.5986-94.926-12.055-2.1609 0.67506-4.421 1.3687-6.7754 2.0859 6.5556 3.5887 9.91 7.0168 11.836 11.123-31.866-0.17702-64.258 8.5994-94.926-12.053-1.8449 0.57384-3.7225 1.1558-5.7051 1.7598 6.5555 3.5887 9.908 7.0149 11.834 11.121-28.75-0.15971-57.927 6.9618-85.881-6.8086 1.4404 1.5463 2.5001 3.1513 3.3086 4.875-31.866-0.17703-64.258 8.5994-94.926-12.053-1.8453 0.57397-3.722 1.1537-5.7051 1.7578 6.5556 3.5887 9.908 7.0168 11.834 11.123-31.939-0.17742-64.403 8.6453-95.133-12.188l20.211-7.7402c-7.1257 2.5942-15.911 5.4534-26.912 8.8047 6.5556 3.5887 9.908 7.0168 11.834 11.123-31.939-0.17742-64.403 8.6453-95.133-12.188l39.309-15.055c2.6959 0.82067 5.2395 1.6072 7.6836 2.373l-3.2285-1.2363c30.729-20.833 63.196-12.01 95.135-12.188-2.6978 5.7518-8.1969 10.172-21.393 15.57l11.803-4.5195c2.6959 0.82067 5.2395 1.6072 7.6836 2.373l-3.2285-1.2363c30.729-20.833 63.196-12.01 95.135-12.188-1.7828 3.801-4.8256 7.0203-10.461 10.324 2.5697 0.7831 5.0124 1.5384 7.3516 2.2715l-3.2285-1.2363c16.325-11.067 33.14-13.766 50.105-13.891 14.97-0.10954 30.056 1.7843 45.027 1.7012-2.3037 4.9116-6.6852 8.8562-16.117 13.264 2.3702 0.72371 4.6485 1.4287 6.8203 2.1094l-3.263-1.2504c30.729-20.833 63.194-12.01 95.133-12.188-1.7829 3.8012-4.8251 7.0201-10.461 10.324 2.5748 0.78466 5.0198 1.541 7.3633 2.2754l-3.2383-1.2402c30.729-20.833 63.194-12.01 95.133-12.188-1.708 3.6415-4.5649 6.7487-9.7539 9.9082l0.0312-0.0117c2.7065 0.82389 5.2583 1.6141 7.7109 2.3828l-3.2559-1.248c0.94181-0.63849 1.887-1.2384 2.832-1.8223 0.29742-0.18376 0.59485-0.36253 0.89258-0.54102 0.71004-0.4257 1.4211-0.83599 2.1328-1.2324 0.27154-0.15124 0.54267-0.308 0.81445-0.45508 0.93271-0.50473 1.8672-0.98826 2.8027-1.4453 0.22046-0.1077 0.4415-0.20542 0.66211-0.31055 0.75573-0.36014 1.5121-0.7065 2.2695-1.0371 0.3058-0.13347 0.61189-0.2638 0.91797-0.39258 0.74649-0.31414 1.4941-0.61532 2.2422-0.90235 0.22782-0.0874 0.45562-0.18067 0.68359-0.26562 0.94711-0.35299 1.8942-0.68211 2.8438-0.99414 0.2707-0.089 0.54161-0.17209 0.8125-0.25781 0.73082-0.23133 1.4632-0.45158 2.1953-0.66016 0.28381-0.0808 0.56756-0.16271 0.85156-0.24024 0.94441-0.25784 1.8895-0.50402 2.8359-0.72656 0.0514-0.0121 0.10293-0.0232 0.1543-0.0352 0.94963-0.2214 1.9-0.42129 2.8516-0.60938 0.28824-0.057 0.57683-0.11003 0.86524-0.16406 0.76453-0.14327 1.5292-0.27696 2.2949-0.40039 0.23179-0.0374 0.46342-0.0777 0.69531-0.11328 0.97768-0.15015 1.9561-0.28584 2.9356-0.40625 0.19251-0.0237 0.38554-0.0419 0.57812-0.0645 0.8028-0.0941 1.6063-0.18003 2.4102-0.25586 0.30136-0.0284 0.60282-0.0561 0.90429-0.082 0.78274-0.0674 1.566-0.12598 2.3496-0.17773 0.21494-0.0142 0.42954-0.0319 0.64454-0.0449 0.17757-0.0108 0.35558-0.0154 0.5332-0.0254 1.2527-0.0708 2.507-0.12216 3.7617-0.15821 0.4387-0.0126 0.87747-0.0245 1.3164-0.0332 1.3866-0.0276 2.7735-0.0438 4.1621-0.0371 1.8702 9e-3 3.7422 0.0515 5.6152 0.10938 0.57468 0.0177 1.1497 0.0411 1.7246 0.0625 1.3049 0.0485 2.6102 0.10248 3.916 0.16601 0.59174 0.0288 1.1835 0.0588 1.7754 0.0898 3.7139 0.19508 7.4294 0.42483 11.145 0.64063-1.7149-3.4153-3.4349-6.8361-5.1055-10.203zm261.74 35.729c-2.548 0.80059-5.198 1.6217-8.0234 2.4824 0.21503 0.11771 0.41097 0.23612 0.61914 0.35351zm530.01 24.434c0 11.187 2.7816 25.153 6.2695 33.605 6.9777-0.64368 14.9-0.48882 23.76 0.66601l-22.15-22.15c-1.9321-1.8769-0.6039-5.1517 2.0899-5.1523 0.8108 5e-5 1.5874 0.32837 2.1523 0.91016l22.15 22.15c-1.1548-8.8593-1.3097-16.782-0.666-23.76-8.4527-3.488-22.419-6.2695-33.606-6.2695zm125 0c-11.187 0-25.153 2.7816-33.606 6.2695 0.644 6.9808 0.4902 14.907-0.666 23.771l22.162-22.162c0.565-0.58182 1.3414-0.91014 2.1524-0.91016 2.6936 7e-4 4.0219 3.2755 2.0898 5.1523l-22.148 22.148c8.8537-1.1532 16.772-1.3074 23.746-0.66406 3.4879-8.4527 6.2695-22.419 6.2695-33.605zm-1058.6 48.908c-38.129 32.78-78.66 50.311-121.36 45.141v108.76l1.1973 6.7539c45.648-40.951 103.78-68.662 168.34-76.604zm963.68 41.82c-8.864 1.1562-16.791 1.31-23.772 0.66601-3.4879 8.4527-6.2695 22.419-6.2695 33.605 11.187 0 25.153-2.7816 33.606-6.2695-0.6434-6.9741-0.4891-14.892 0.664-23.746l-22.137 22.137c-2.8275 2.9448-7.187-1.4146-4.2422-4.2422zm64.93 0 22.15 22.15c2.9448 2.8275-1.4147 7.187-4.2422 4.2422l-22.15-22.15c1.1548 8.8593 1.3097 16.782 0.666 23.76 8.4527 3.488 22.419 6.2695 33.606 6.2695 0-11.187-2.7816-25.153-6.2695-33.605-6.9777 0.64368-14.9 0.48882-23.76-0.66601zm-146 135.22-80.025 114.68 376.05 279.64v-174.33z" fill="#44f"/>
</g>
<g transform="matrix(-.12677 0 0 -.1304 45.18 93.256)">
<path d="m636.57 188.84a13.432 21.162 0 0 0-13.434 21.162 13.432 21.162 0 0 0 13.434 21.162 13.432 21.162 0 0 0 13.432-21.162 13.432 21.162 0 0 0-13.432-21.162zm-140 1.209a13.432 21.162 0 0 0-13.434 21.162 13.432 21.162 0 0 0 13.434 21.162 13.432 21.162 0 0 0 13.432-21.162 13.432 21.162 0 0 0-13.432-21.162zm-233.32 319.79c-3.3273 4.334-6.7382 8.5827-10.23 12.75l3.877-4.2109c2.0369-0.0686 4.0758-0.0931 6.1172-0.084 1.9324 9e-3 3.8673 0.0526 5.8027 0.11328 0.73332 0.023 1.4675 0.0572 2.2012 0.0859 1.1352 0.0445 2.2704 0.0871 3.4062 0.14258 3.8393 0.18758 7.6818 0.42136 11.523 0.64843 0.69671 0.0412 1.3932 0.0812 2.0898 0.1211 1.3163 0.0754 2.6315 0.14228 3.9473 0.20898 0.76628 0.0389 1.5328 0.0788 2.2988 0.11328 1.255 0.0565 2.5096 0.0977 3.7637 0.13867 0.77477 0.0253 1.5499 0.0582 2.3242 0.0762 0.2019 5e-3 0.40361 8e-3 0.60547 0.0117 1.666 0.0341 3.3306 0.0542 4.9941 0.0449-0.13638 0.29077-0.27846 0.57706-0.42968 0.86133-0.15092 0.28372-0.30958 0.56397-0.47657 0.84179-0.0474 0.0789-0.10157 0.15587-0.15039 0.23438-0.29463 0.47386-0.60904 0.94102-0.95703 1.4004-1e-3 2e-3 -2e-3 4e-3 -4e-3 6e-3 -0.20167 0.26593-0.4135 0.52914-0.63477 0.79101-2e-3 3e-3 -4e-3 5e-3 -6e-3 8e-3 -0.22093 0.26122-0.45168 0.52154-0.69336 0.7793l-8e-3 8e-3c-0.24168 0.2575-0.49417 0.51295-0.75781 0.76758-3e-3 3e-3 -6e-3 7e-3 -0.01 0.01-0.26338 0.25407-0.53773 0.50601-0.82422 0.75781-0.58 0.50994-1.2083 1.0154-1.8906 1.5195-0.68216 0.50405-1.4202 1.0067-2.2148 1.5098-0.7908 0.50064-1.6405 1.0015-2.5527 1.5059-4e-3 2e-3 -7e-3 5e-3 -0.0117 8e-3 -0.91733 0.50688-1.8991 1.0158-2.9492 1.5312-1.0437 0.51227-2.1569 1.0313-3.3418 1.5566-8e-3 3e-3 -0.0139 8e-3 -0.0215 0.0117-5.964 2.6427-13.783 5.4812-24.08 8.8125-4.1184 1.3323-8.6362 2.7448-13.59 4.2539 6.5524 3.5878 9.9143 7.0158 11.84 11.121-3.6259-0.0202-7.2584 0.0752-10.895 0.23047-10.908 0.46585-21.849 1.468-32.73 1.4766l11.787-12.803c-7.9815 7.8822-16.348 15.379-25.139 22.447l635.59 0.32617c-1.6393-3.0796-3.2222-6.1007-4.8242-9.1426-0.14916-2.2e-4 -0.29813-7e-3 -0.44726-8e-3 -0.92322-4e-3 -1.8472-0.01-2.7695-0.0293-8e-3 -1.8e-4 -0.0169 1.9e-4 -0.0254 0-0.0834-2e-3 -0.16663-8e-3 -0.25-0.01-0.98967-0.023-1.9782-0.0537-2.9668-0.0977-7e-3 -3.1e-4 -0.0143 3.2e-4 -0.0215 0-0.18052-8e-3 -0.36053-0.0226-0.54101-0.0312-0.84881-0.0414-1.697-0.0857-2.5449-0.14453-14.05-0.96289-27.956-4.3762-41.523-13.574l0.71289 0.19336c-0.31313-0.211-0.62654-0.40385-0.93945-0.62109-2.2187 0.20945-4.3077 0.83712-6.4727 1.4961 6.5541 3.5884 9.9063 7.0153 11.832 11.121-31.867-0.17702-64.258 8.5986-94.926-12.055-2.1609 0.67506-4.421 1.3687-6.7754 2.0859 6.5556 3.5887 9.91 7.0168 11.836 11.123-31.866-0.17702-64.258 8.5994-94.926-12.053-1.8449 0.57384-3.7225 1.1558-5.7051 1.7598 6.5555 3.5887 9.908 7.0149 11.834 11.121-28.75-0.15971-57.927 6.9618-85.881-6.8086 1.4404 1.5463 2.5001 3.1513 3.3086 4.875-31.866-0.17703-64.258 8.5994-94.926-12.053-1.8453 0.57397-3.722 1.1537-5.7051 1.7578 6.5556 3.5887 9.908 7.0168 11.834 11.123-31.939-0.17742-64.403 8.6453-95.133-12.188l20.211-7.7402c-7.1257 2.5942-15.911 5.4534-26.912 8.8047 6.5556 3.5887 9.908 7.0168 11.834 11.123-31.939-0.17742-64.403 8.6453-95.133-12.188l39.309-15.055c2.6959 0.82067 5.2395 1.6072 7.6836 2.373l-3.2285-1.2363c30.729-20.833 63.196-12.01 95.135-12.188-2.6978 5.7518-8.1969 10.172-21.393 15.57l11.803-4.5195c2.6959 0.82067 5.2395 1.6072 7.6836 2.373l-3.2285-1.2363c30.729-20.833 63.196-12.01 95.135-12.188-1.7828 3.801-4.8256 7.0203-10.461 10.324 2.5697 0.7831 5.0124 1.5384 7.3516 2.2715l-3.2285-1.2363c16.325-11.067 33.14-13.766 50.105-13.891 14.97-0.10954 30.056 1.7843 45.027 1.7012-2.3037 4.9116-6.6852 8.8562-16.117 13.264 2.3702 0.72371 4.6485 1.4287 6.8203 2.1094l-3.263-1.2504c30.729-20.833 63.194-12.01 95.133-12.188-1.7829 3.8012-4.8251 7.0201-10.461 10.324 2.5748 0.78466 5.0198 1.541 7.3633 2.2754l-3.2383-1.2402c30.729-20.833 63.194-12.01 95.133-12.188-1.708 3.6415-4.5649 6.7487-9.7539 9.9082l0.0312-0.0117c2.7065 0.82389 5.2583 1.6141 7.7109 2.3828l-3.2559-1.248c0.94181-0.63849 1.887-1.2384 2.832-1.8223 0.29742-0.18376 0.59485-0.36253 0.89258-0.54102 0.71004-0.4257 1.4211-0.83599 2.1328-1.2324 0.27154-0.15124 0.54267-0.308 0.81445-0.45508 0.93271-0.50473 1.8672-0.98826 2.8027-1.4453 0.22046-0.1077 0.4415-0.20542 0.66211-0.31055 0.75573-0.36014 1.5121-0.7065 2.2695-1.0371 0.3058-0.13347 0.61189-0.2638 0.91797-0.39258 0.74649-0.31414 1.4941-0.61532 2.2422-0.90235 0.22782-0.0874 0.45562-0.18067 0.68359-0.26562 0.94711-0.35299 1.8942-0.68211 2.8438-0.99414 0.2707-0.089 0.54161-0.17209 0.8125-0.25781 0.73082-0.23133 1.4632-0.45158 2.1953-0.66016 0.28381-0.0808 0.56756-0.16271 0.85156-0.24024 0.94441-0.25784 1.8895-0.50402 2.8359-0.72656 0.0514-0.0121 0.10293-0.0232 0.1543-0.0352 0.94963-0.2214 1.9-0.42129 2.8516-0.60938 0.28824-0.057 0.57683-0.11003 0.86524-0.16406 0.76453-0.14327 1.5292-0.27696 2.2949-0.40039 0.23179-0.0374 0.46342-0.0777 0.69531-0.11328 0.97768-0.15015 1.9561-0.28584 2.9356-0.40625 0.19251-0.0237 0.38554-0.0419 0.57812-0.0645 0.8028-0.0941 1.6063-0.18003 2.4102-0.25586 0.30136-0.0284 0.60282-0.0561 0.90429-0.082 0.78274-0.0674 1.566-0.12598 2.3496-0.17773 0.21494-0.0142 0.42954-0.0319 0.64454-0.0449 0.17757-0.0108 0.35558-0.0154 0.5332-0.0254 1.2527-0.0708 2.507-0.12216 3.7617-0.15821 0.4387-0.0126 0.87747-0.0245 1.3164-0.0332 1.3866-0.0276 2.7735-0.0438 4.1621-0.0371 1.8702 9e-3 3.7422 0.0515 5.6152 0.10938 0.57468 0.0177 1.1497 0.0411 1.7246 0.0625 1.3049 0.0485 2.6102 0.10248 3.916 0.16601 0.59174 0.0288 1.1835 0.0588 1.7754 0.0898 3.7139 0.19508 7.4294 0.42483 11.145 0.64063-1.7149-3.4153-3.4349-6.8361-5.1055-10.203zm261.74 35.729c-2.548 0.80059-5.198 1.6217-8.0234 2.4824 0.21503 0.11771 0.41097 0.23612 0.61914 0.35351zm530.01 24.434c0 11.187 2.7816 25.153 6.2695 33.605 6.9777-0.64368 14.9-0.48882 23.76 0.66601l-22.15-22.15c-1.9321-1.8769-0.6039-5.1517 2.0899-5.1523 0.8108 5e-5 1.5874 0.32837 2.1523 0.91016l22.15 22.15c-1.1548-8.8593-1.3097-16.782-0.666-23.76-8.4527-3.488-22.419-6.2695-33.606-6.2695zm125 0c-11.187 0-25.153 2.7816-33.606 6.2695 0.644 6.9808 0.4902 14.907-0.666 23.771l22.162-22.162c0.565-0.58182 1.3414-0.91014 2.1524-0.91016 2.6936 7e-4 4.0219 3.2755 2.0898 5.1523l-22.148 22.148c8.8537-1.1532 16.772-1.3074 23.746-0.66406 3.4879-8.4527 6.2695-22.419 6.2695-33.605zm-1058.6 48.908c-38.129 32.78-78.66 50.311-121.36 45.141v108.76l1.1973 6.7539c45.648-40.951 103.78-68.662 168.34-76.604zm963.68 41.82c-8.864 1.1562-16.791 1.31-23.772 0.66601-3.4879 8.4527-6.2695 22.419-6.2695 33.605 11.187 0 25.153-2.7816 33.606-6.2695-0.6434-6.9741-0.4891-14.892 0.664-23.746l-22.137 22.137c-2.8275 2.9448-7.187-1.4146-4.2422-4.2422zm64.93 0 22.15 22.15c2.9448 2.8275-1.4147 7.187-4.2422 4.2422l-22.15-22.15c1.1548 8.8593 1.3097 16.782 0.666 23.76 8.4527 3.488 22.419 6.2695 33.606 6.2695 0-11.187-2.7816-25.153-6.2695-33.605-6.9777 0.64368-14.9 0.48882-23.76-0.66601zm-146 135.22-80.025 114.68 376.05 279.64v-174.33z" fill="#44f"/>
</g>
<g transform="matrix(.12677 0 0 .1304 -119.62 -167.54)">
<path d="m393.64 0-393.64 618.57v45.486c197.24 23.865 347.45-437.58 407.35-664.06zm252.58 316.48c-6.2805 30.762-13.875 58.081-21.217 63.516-17.901 13.25-60.727 84.764-70 90-5.4331 3.0677-11.62 4.1925-18.062 4.0078l1.2402 5.9922 173.7-0.09961c-27.651-61.226-48.883-115.04-65.662-163.42zm-487.22 283.43c-10.551 5.5376-21.688 10.518-33.309 14.807l-4.0098 4.4629 47.604 83.805c13.005-2.0837 26.754-2.9922 40.719-2.9922 2.9492 0 5.8879 0.0411 8.793 0.23438l-39.783-70.186 656.88-0.26758c6.4021-10.604 13.643-20.259 21.256-29.467zm714.74 19.994c-7.5217 8.8521-14.367 18.523-20.404 28.98-48.865 84.637-26.738 189.37 47.672 244.76l15.146-19.732c-64.205-47.79-83.715-138.13-40.949-212.2 4.7128-8.1628 9.9724-15.753 15.701-22.768zm-360.77 319.94c4.5759 20.89 7.0332 42.735 7.0332 65.145 0 9.9356-0.48293 19.761-1.4219 29.727l66.41 0.2734-0.20508-70 196.67-0.0762c0.87045-8.408 2.0413-16.642 3.2012-24.844z"/>
</g>
<g transform="matrix(-.12677 0 0 -.1304 45.18 93.256)">
<path d="m393.64 0-393.64 618.57v45.486c197.24 23.865 347.45-437.58 407.35-664.06zm252.58 316.48c-6.2805 30.762-13.875 58.081-21.217 63.516-17.901 13.25-60.727 84.764-70 90-5.4331 3.0677-11.62 4.1925-18.062 4.0078l1.2402 5.9922 173.7-0.09961c-27.651-61.226-48.883-115.04-65.662-163.42zm-487.22 283.43c-10.551 5.5376-21.688 10.518-33.309 14.807l-4.0098 4.4629 47.604 83.805c13.005-2.0837 26.754-2.9922 40.719-2.9922 2.9492 0 5.8879 0.0411 8.793 0.23438l-39.783-70.186 656.88-0.26758c6.4021-10.604 13.643-20.259 21.256-29.467zm714.74 19.994c-7.5217 8.8521-14.367 18.523-20.404 28.98-48.865 84.637-26.738 189.37 47.672 244.76l15.146-19.732c-64.205-47.79-83.715-138.13-40.949-212.2 4.7128-8.1628 9.9724-15.753 15.701-22.768zm-360.77 319.94c4.5759 20.89 7.0332 42.735 7.0332 65.145 0 9.9356-0.48293 19.761-1.4219 29.727l66.41 0.2734-0.20508-70 196.67-0.0762c0.87045-8.408 2.0413-16.642 3.2012-24.844z"/>
</g>
<g transform="matrix(.12677 0 0 .1304 -119.62 -167.54)">
<path d="m1300 984.78-303.72-225.78m-995.08 20.56c55.094-49.424 128.37-79.562 208.8-79.562 171.21 0 310 136.55 310 305 1e-5 57.291-16.055 110.89-43.98 156.69m-474.09-381.67 410.83 305.4m100.29-145.42h271.27m515.68 250.27-376.07-279.55m71.905-152.24-108.6 156.11m116.51-118.73-79.783 114.69m-66.767-309.68 138.62 157.64m-109.07 155.7c-84.962-62.772-110.23-182.27-55.071-277.81 7.5116-13.01 16.154-24.951 25.724-35.766m43.599 293.02c-74.41-55.386-96.537-160.12-47.672-244.76 6.0376-10.457 12.883-20.13 20.404-28.982m130.47 176.13 295.8 219.89m-383.85-142.01c-64.205-47.79-83.715-138.13-40.949-212.2 4.7128-8.1628 9.9723-15.754 15.701-22.768m104.16 121.05h-141.94m95.79-55h-91.436m99.564 110h-89.114m-11.03-215h-698.02m682.06-30h-636.08m605.16-60h-547m532.06-30h-510.58m358.01-479.84c34.326 141.41 46.349 257.95 152.82 479.84 17.86 37.224 38.379 77.412 62.106 121.18m-21.429 28.819h-656.6m510.7 0.28961c2.3215 128.34 47.798 162.2 49.837 309.39m-79.819-309.39c2.7858 128.34 57.357 162.2 59.805 309.39m-139.81-309.57c3.3994 166.06 90.388 181.85 94.73 309.83m-134.71-309.84c4.0409 161.4 104.66 181.69 109.68 309.84m-209.63-309.85c5.6731 161.47 146.94 190.92 154.51 309.87m-184.52-310.25c5.6329 161.81 151.47 195.79 164.08 310.26m-56.599 25.024h263.76m-272.27-40 62.516-1e-5m-67.084-15 62.916 1e-5m-68.365-15 62.156 1e-5m-61.451-15 53.32-1e-5m-52.352-15 42.537-2e-5m-41.57-15 30.053-1e-5m-29.084-15 16.242 2e-5m220.46 90h48.93m-49.563-15h53.465m-54.566-15 59.408 1e-5m-60.902-15h58.568m-60.4-15h53.879m-56.23-15h49.707m-52.541-15h46.02m-49.254-15h42.732m-264.99 2e-5 1.6895 1e-5m773.08 385.03c-50.216 43.539-116.05 69.974-188.48 69.974-157.92 0-285-125.29-285-280-1e-5 -47.532 11.992-92.13 33.2-131.29m377.73 295.37c-34.95 25.694-78.076 40.919-125.93 40.919-118.25 0-210-91.356-210-205-1e-5 -26.728 5.0737-51.778 14.401-74.884m207.66 154.16c-3.8657 0.4773-7.8822 0.7236-12.059 0.7236-49.229 0-81.28-31.039-84.697-72.551m122.87 91.256c-11.593 4.0746-24.306 6.2955-38.178 6.2955-65.355 0-110-46.117-110-105 0-3.7762 0.18355-7.4317 0.54549-10.984m214.54 159.19c-29.636 20.052-65.352 31.795-105.09 31.795-105.02 0-185-80.047-185-180-1e-5 -21.157 3.5819-40.966 10.251-59.442m-257.75 46.336c3.5355-24.749 35.355 7.0711 10.607 10.607 20-15 20 30 0 15 24.749 3.5355-7.0711 35.355-10.607 10.607 15 20-30 20-15 0-3.5355 24.749-35.355-7.0711-10.607-10.607-20 15-20-30 0-15-24.749-3.5355 7.0711-35.355 10.607-10.607-15-20 30-20 15 0v0m5 18.107a12.5 12.5 0 0 1-12.5 12.5 12.5 12.5 0 0 1-12.5-12.5 12.5 12.5 0 0 1 12.5-12.5 12.5 12.5 0 0 1 12.5 12.5v0m-77.5-35v70m-366.23-334.65-40.141-70.248m-8.8762 73.217-48.074-84.129m271.96-619.19-393.64 618.57m182.29-286.11c-49.865-18.458-100.86-14.676-152.29-2.4605 80.68-86.71 76.097-214.29 96.231-330.02m207.41 0.018536-203.69 320.08m277.56-320.58c-59.847 226.37-210.17 688.44-407.5 664.56m437.92-664.44c-48.183 224.09-98.679 536.29-312.23 615.1m14.684-311.02 48.889 17.46m-40.185-31.138 48.888 17.46m-39.259-32.593 48.889 17.46m-39.258-32.592 48.889 17.46m-25.723-27.758 35.351 12.625m-9.3518-21.911 18.981 6.7788m-194.6 79.827c15.803-10.817 31.518-21.723 43.115-36.784 21.739 8.5896 42.457 4.2098 63.307 1.5161m-75.32-25.09c27.732 5.5645 57.993 4.7917 88.322 3.845m-55.958-116.5c25.887 22.417-3.0606 72.378 34.649 91.233 36.056 18.028 59.083-37.958 35-50-20-10-45 25-20 35 14.131 5.6525 20.131-28.64 10-20m-59.846-56.655c33.418 11.492 60.155-41.413 96.812-19.505 34.602 20.681-0.18311 70.226-23.296 56.412-19.194-11.472-3.1561-51.381 18.729-35.696 12.371 8.866-13.299 32.383-11.472 19.194m47.025-15.329c-3.7807-20.768-8.8604-40.451-27.953-48.421 4.1848-27.894 1.4229-52.339-15-70 17.356-1.6187 34.466-1.9692 55-20 27.97 9.9307 52.531 3.1986 77.423-1.9125m-71.645 112.06c-5.0599-11.294-10.995-22.005-20.778-30.151 1.504-14.349 0.28739-26.396-5-35 8.4956 1.2058 21.772 0.59896 35-10 8.9905 6.9284 20.596 8.6269 32.671 9.3861m101.82-17.501c13.934-4.563 26.21-13.093 38.203-22.3m-45.138 46.655c14.724-4.3797 27.569-13.257 40.103-22.878m-46.772 45.551c15.639-5.4588 29.216-15.853 42.72-26.421m-50.69 52.46c16.641-3.7477 30.812-13.406 44.601-23.982m-51.607 46.988c17.686-4.808 32.63-16.179 47.473-27.792m-55.862 53.275c18.785-2.6602 34.356-13.013 49.436-24.542m-57.626 49.312c19.367-5.3531 37.923-20.228 54.055-33.012m-62.581 57.627c20.312-4.3397 39.847-19.82 56.77-33.234m-65.085 56.598c21.753-5.3091 42.553-23.03 60.13-36.835m-68.211 59.166c21.962-8.6598 47.288-25.829 63.013-37.795m-72.66 63.264c22.178-7.6378 48.957-25.451 65.936-38.211m-75.948 63.531c22.09-6.1852 50.266-24.471 68.662-38.076m-78.402 61.753c23.379-6.6316 53.476-26.685 71.603-40.397m-82.384 65.53c22.643-4.32 53.991-24.473 73.969-39.228m-84.628 63.1c23.431-4.1807 56.539-25.801 76.566-40.791m-85.339 59.673c24.057-6.3079 56.528-20.98 74.839-33.277m-86.67 57.495c24.159-6.0088 57.732-21.062 76.538-33.656m-89.718 59.147c21.064-3.6066 53.839-17.136 75.832-29.886m-88.627 53.231c22.278-4.3596 55.94-18.663 77.112-31.55m-91.729 56.475c22.427-4.4768 56.123-18.85 77.147-31.73m-90.402 52.678c26.144-6.7276 62.615-23.588 79.85-36.518m-96.412 60.661c24.044-5.9041 57.633-20.912 76.609-33.531m-95.366 58.145c19.156-4.0897 45.851-14.943 66.056-25.885m432.02-353.13c20.526 78.558 49.889 167.39 105.54 285.04m-99.267-366.3c-2.8896 36.667-8.1535 104.46-8.1535 111.71 0 15-18.164 142.54-35 155-17.901 13.25-60.727 84.764-70 90-25.806 14.571-68.619-14.676-75-20-40.525 11.388-131.54-97.081-100-115l-23.233-9.9571m299.1-60.225c19.063 61.807 45.052 131.48 84.196 215.33m-93.794-164.1c16.729 48.809 37.961 102.63 66.08 163.75m23.077-9.8h-27.443m20.586-15-27.271 1e-5m20.602-15h-27.287m20.728-15-27.109 1e-5m20.75-15-26.994-1e-5m20.736-15-26.98-1e-5m20.957-15h-26.807m20.854-15-26.652-1e-5m21.127-15h-26.82m21.32-15h-26.68m21.18-15h-26.539m21.342-15-20.007-1e-5m14.841-15h-12.789m-247.99 113.57c-18.422-18.289-35.836-38.596-51.879-61.652m148.44 138.17c-18.847-12.399-37.352-25.483-55.242-39.799m30.359 39.804c-47.3-32.468-91.934-70.275-129.44-122.35m105.18 122.33c-40.393-29.087-78.456-62.841-111.31-107.04m87.881 107.12c-33.898-25.697-65.875-55.24-94.157-92.185m71.145 92.047c-27.67-22.177-53.863-47.313-77.566-77.436m55.644 77.611c-22.013-18.661-42.964-39.45-62.318-63.437m40.674 63.27c-16.625-14.96-32.567-31.29-47.58-49.479m26.999 49.678c-11.772-11.229-23.161-23.226-34.075-36.172m13.697 35.966c-7.1876-7.2901-14.216-14.899-21.063-22.871m1.5084 22.886c-3.0876-3.3261-6.1427-6.7174-9.1634-10.178m82.607-121.22c-5.5589-7.2332-10.976-14.751-16.237-22.58m167.81 153.95c-11.007-6.9871-21.924-14.154-32.698-21.608m-92.302 91.608c-11.508 0.0844-22.758-3.17-33.797-9.1714m-21.337 6.9835c30.729 20.833 63.195 12.011 95.134 12.188-4.3643-9.3048-15.999-15.118-55.824-27.242m59.589-1.0521c-11.508-0.0844-22.758 3.17-33.797 9.1714m-21.337-6.9835c30.729-20.833 63.195-12.011 95.134-12.188-4.3643 9.3048-15.999 15.118-55.824 27.242m60.856 0.22346c-11.508 0.0844-22.758-3.17-33.797-9.1714m-21.337 6.9835c30.729 20.833 63.195 12.011 95.134 12.188-4.3643-9.3048-15.999-15.118-55.824-27.242m59.589-1.0521c-11.508-0.0844-22.758 3.17-33.797 9.1714m-21.337-6.9835c30.729-20.833 63.195-12.011 95.134-12.188-4.3643 9.3048-15.999 15.118-55.824 27.242m54.632 2.9866c-11.508 0.0844-22.758-3.17-33.797-9.1714m-21.337 6.9835c30.729 20.833 63.195 12.011 95.134 12.188-4.3643-9.3048-15.999-15.118-55.824-27.242m59.589-1.0521c-11.508-0.0844-22.758 3.17-33.797 9.1714m-21.337-6.9835c30.729-20.833 63.195-12.011 95.134-12.188-4.3643 9.3048-15.999 15.118-55.824 27.242m60.856 0.22346c-11.508 0.0844-22.758-3.17-33.797-9.1714m-21.337 6.9835c30.729 20.833 63.195 12.011 95.134 12.188-4.3643-9.3048-15.999-15.118-55.824-27.242m59.589-1.0521c-11.508-0.0844-22.758 3.17-33.797 9.1714m-21.337-6.9835c30.729-20.833 63.195-12.011 95.134-12.188-4.3643 9.3048-15.999 15.118-55.824 27.242m61.926-0.10278c-11.508 0.0844-22.758-3.17-33.797-9.1714m-21.337 6.9835c30.729 20.833 63.195 12.011 95.134 12.188-4.3643-9.3048-15.999-15.118-55.824-27.242m59.589-1.0521c-11.508-0.0844-22.758 3.17-33.797 9.1714m-21.337-6.9835c24.743-16.774 50.612-14.322 76.425-12.823m6.4424 11.996c-8.3327 4.473-21.699 9.2263-43.558 15.881m-467.97 1.9296c-11.508 0.0844-22.758-3.17-33.797-9.1714m-21.337 6.9835c30.729 20.833 63.195 12.011 95.134 12.188-4.3643-9.3048-15.999-15.118-55.824-27.242m59.589-1.0521c-11.508-0.0844-22.758 3.17-33.797 9.1714m-21.337-6.9835c30.729-20.833 63.195-12.011 95.134-12.188-4.3643 9.3048-15.999 15.118-55.824 27.242m-81.051-30.571c16.295-0.5488 32.754 1.7108 49.075 1.6201-4.3643 9.3048-15.999 15.118-55.824 27.242m15.824-17.242c-7.813-0.0573-15.508 1.4245-23.098 4.2602m-24.292 25.74c14.509-0.0114 29.121-1.7867 43.624-1.7061-2.9552-6.3007-9.2439-11-25.362-17.143m592.72 7.1345c-7.8885-1.3192-15.66-4.1628-23.328-8.3321m-21.337 6.9835c16.734 11.345 33.983 13.895 51.381 13.894m145.15 451.33-51.427 7.8412c-2.1965 12.537 1.9141 18.211 5 25l50.346-16.208m4.7004 11.785-46.358 21.575c1.1296 12.678 6.5711 17.092 11.312 22.848l43.329-29.894m8.2749 10.269-38.486 35.021c5.7805 11.34 12.476 13.403 19.023 16.974l31.678-40.556m15.46 9.9743-23.009 43.889c9.3547 8.6306 16.351 8.2438 23.73 9.3221l15.424-46.379m14.7 3.961-10.125 52.418c11.46 5.5378 18.041 3.1337 25.415 2.0199l2.6268-52.328m19.638-0.4105 5.6421 55.094c12.536 2.2042 18.212-1.9029 25.003-4.9846l-12.301-53.516m-142.83-113.78-50.64-7.4611c-5.776 11.342-3.5098 17.972-2.5502 25.367h55.238m-123.22-33.837a12.5 12.5 0 0 1-13.44 11.484 12.5 12.5 0 0 1-11.484-13.44 12.5 12.5 0 0 1 13.44-11.484 12.5 12.5 0 0 1 11.484 13.44v0m-25.901 10.506c-26.097 12.998-21.794-41.833 1.956-24.923-12.998-26.097 41.833-21.794 24.923 1.956 26.097-12.998 21.794 41.833-1.956 24.923 12.998 26.097-41.833 21.794-24.923-1.956v0m30.079 72.444a12.5 12.5 0 0 1-10.094 14.513 12.5 12.5 0 0 1-14.513-10.094 12.5 12.5 0 0 1 10.094-14.513 12.5 12.5 0 0 1 14.513 10.094v0m-22.397 16.722c-21.955 19.183-31.676-34.951-4.4188-24.606-19.183-21.955 34.951-31.676 24.606-4.4188 21.955-19.183 31.676 34.951 4.4188 24.606 19.183 21.955-34.951 31.676-24.606 4.4188v0m56.286 58.754a12.5 12.5 0 0 1-6.5729 16.41 12.5 12.5 0 0 1-16.41-6.573 12.5 12.5 0 0 1 6.5729-16.41 12.5 12.5 0 0 1 16.41 6.573v0m-18.065 21.329c-17.081 23.627-38.723-26.936-9.8373-22.983-23.627-17.081 26.936-38.723 22.983-9.8373 17.081-23.627 38.723 26.936 9.8373 22.983 23.627 17.081-26.936 38.723-22.983 9.8373v0m73.467 34.476a12.5 12.5 0 0 1 0.62058 17.667 12.5 12.5 0 0 1-17.667 0.6206 12.5 12.5 0 0 1-0.62058-17.667 12.5 12.5 0 0 1 17.667-0.6206v0m-7.9025 26.81c-6.0737 28.515-46.306-8.9864-18.287-17.046-28.515-6.0738 8.9865-46.306 17.046-18.287 6.0737-28.515 46.306 8.9864 18.287 17.046 28.515 6.0738-8.9865 46.306-17.046 18.287v0m77.419 7.4912a12.5 12.5 0 0 1 8.4134 15.547 12.5 12.5 0 0 1-15.547 8.4136 12.5 12.5 0 0 1-8.4134-15.547 12.5 12.5 0 0 1 15.547-8.4136v0m4.8467 27.527c7.2427 28.241-45.471 12.547-23.961-7.1335-28.241 7.2427-12.547-45.471 7.1335-23.961-7.2427-28.241 45.471-12.547 23.961 7.1335 28.241-7.2428 12.547 45.471-7.1335 23.961v0m82.735-17.507a12.5 12.5 0 0 1 12.908 12.078 12.5 12.5 0 0 1-12.078 12.909 12.5 12.5 0 0 1-12.908-12.078 12.5 12.5 0 0 1 12.078-12.909v0m13.324 24.571c15.823 24.488-39.147 26.316-24.986 0.8312-24.488 15.823-26.316-39.147-0.8311-24.986-15.823-24.488 39.147-26.316 24.986-0.8312 24.488-15.823 26.316 39.147 0.8311 24.986v0m68.106-45.351a12.5 12.5 0 0 1 16.366 6.681 12.5 12.5 0 0 1-6.6809 16.367 12.5 12.5 0 0 1-16.366-6.681 12.5 12.5 0 0 1 6.6809-16.367v0m21.209 18.205c23.514 17.236-27.19 38.545-23.048 9.6858-17.236 23.514-38.545-27.19-9.6857-23.048-23.514-17.236 27.19-38.545 23.048-9.6858 17.236-23.514 38.544 27.19 9.6857 23.048v0m-69.045-118.56 18.824 36.422c9.2047-1.8746 13.674-5.5798 17.47-9.5451m-534.51-1130.3c101.87 342.19 345.91 461.41 230.78 619.77m216.27-14.912c-15-90 70-90 55 0 90-15 90 70 0 55 15 90-70 90-55 0-90 15-90-70 0-55v0m27.5-37.5c0 60 5 65 65 65-60 0-65 5-65 65 0-60-5-65-65-65 60 0 65-5 65-65v0m12.5 65a12.5 12.5 0 0 1-12.5 12.5 12.5 12.5 0 0 1-12.5-12.5 12.5 12.5 0 0 1 12.5-12.5 12.5 12.5 0 0 1 12.5 12.5v0m-68.718-28.861c-3.4942-8.4494-6.2823-22.438-6.2823-33.639 11.201 0 25.19 2.7881 33.64 6.2822m57.721 0c8.4494-3.4942 22.438-6.2822 33.64-6.2822 0 11.201-2.7881 25.19-6.2823 33.639m-112.44 57.721c-3.4942 8.4494-6.2823 22.438-6.2823 33.639 11.201 0 25.19-2.7881 33.64-6.2822m57.721 0c8.4494 3.4942 22.438 6.2822 33.64 6.2822 0-11.201-2.7881-25.19-6.2823-33.639m-92.999 160.42c1.01-6.6864 3.4391-15.941 9.2812-21.783 10-10 70-40 80-40s20 15 30 15 15 25-5 25-35-10-35-10c1.7416 21.621-12.85 27.104-25 35m18.114-12.771c4.683 23.139 1.3128 41.743-5.9466 58.157m52.832-65.386c75-25 81.847 11.93 10 25-54.999 10.005-59.523-8.4924-10-25v0m-1.8004 26.716c70.636-18.931 77.554 15.292 8.5521 25.39-52.822 7.7303-56.804-12.458-8.5521-25.39v0m1.0968 28.595c71.881-9.6832 74.714 25.171 5.475 26.3-53.004 0.86373-54.578-19.685-5.475-26.3v0m0.6002-85.086c3.3162-3.5871 7.7743-7.1701 13.406-10.444 45.029-26.181 52.14 14.277 7.5923 31.666-9.1445 3.5693-16.142 4.2335-20.894 2.9491m-15-34.396c-18.207-39.306 35-80 50-125 8.4422 53.825 13.58 106.05-50 125v0m0 0c17.822-26.387 30.237-56.503 45-85m-104.14 46.041c13.272 3.4248 26.206 12.941 39.14 33.959-62.532 6.4369-112.58 3.2717-130-25 25.778 2.5778 48.897-8.1341 70.729-10.211m59.271 35.211c-24.021-10.251-51.599-16.772-85-17.184m-413.48-608.5c-18.879-6.5627-35.786-16.163-50.088-31.494-19.189-20.57-34.207-52.086-41.325-102.76m92.181 123.93c-16.649-6.0913-31.148-14.702-43.543-27.989-17.305-18.551-31.528-47.449-38.528-95.88m82.87 113.5c-14.338-5.566-26.503-13.159-37.029-24.443-15.445-16.557-28.858-42.869-35.726-89.005m67.196 88.792c-6.2952-3.6447-11.794-8.0147-16.845-13.43-11.806-12.656-23.557-33.897-30.107-75.282m49.737 101.37c-10.353-4.7677-19.137-10.896-26.942-19.263-13.611-14.591-26.2-38.348-32.918-82.137m54.002 74.55c-2.2664-1.8438-4.4031-3.8525-6.459-6.0563-10.033-10.755-20.927-29.519-27.289-68.445m-113.83-0.1148c-9.1114 52.945-27.571 93.811-54.968 123.18-16.31 17.484-34.989 29.931-54.087 38.912m98.909-162.1c-8.9599 50.73-26.61 89.007-52.135 116.37-13.337 14.297-28.342 25.033-43.924 33.185m85.905-149.58c-8.7939 48.478-25.622 84.195-49.294 109.57-10.328 11.072-21.714 19.879-33.646 26.941m72.782-136.55c-8.6122 46.192-24.607 79.376-46.448 102.79-7.2287 7.7491-15.006 14.317-23.161 19.911m11.372-52.896c11.807-16.758 21.409-39.169 27.668-69.743m20.406-0.12399c-8.4138 43.869-23.563 74.554-43.598 96.032-4.0387 4.3295-8.2594 8.2648-12.634 11.848m46.043-107.85c-8.4559 42.736-23.376 71.372-42.434 90.983m236.61-35.342c-7.0888-9.9221-14.48-26.147-19.421-55.545m-234.1 21.446c13.083-4.7038 24.733-12.839 36.127-21.587m-17.839 180c37.87-22.798 75.447-48.05 120-15v5c-60-35-70-10-120 10v0m170-10-3e-3 5.4723c20.003-20.472 45.347-16.786 70.003-10.472-37.171-18.904-54.466-8.2607-70 5v0m0 0s-5 15-5 45c0 25 20 85 20 95 0 13.032-12.277 22.123-20 20-4.8211-1.3256-20 20-20 20m-30-55c-10 0-30 35-5 35 40-15 60-5 0 0m-25 35-5 10 10-5-5-5v0m95 0-5 10-5-5 10-5v0m-90 5c10 0 20-5 30-5s15 5 20 5 10-5 15-5 10 5 15 5m-60 25c13.51 3.7539 21.865 20.501 45 0m-45-200c-52.197-18.082-74.36 28.531-100 30 40 0 35.054 8.7303 50 10 38.304 3.254 50.908-26.427 42.668-42.342m137.33 7.3424c-35-30-55 20-75 15 29.239 6.5917 50 30 75-5m502.67 545.56c-4.9463-21.883-9.234-43.761-16.584-63.761m38.911 73.198c-6.2271-23.877-10.324-48.418-17.232-71.138m38.081 193.09c-6.1481 4.4413-17.954 6.4312-27.298 7.3228m-596.19-229.28 56.467 2e-5m-50.994 35 55.961-1e-5m-46.461 35 54.646-1e-5m-40.238 35h51.09m-32.557 35 43.852-2e-5m-24.943 35 34.961 4e-5m-20.457 35h27.432m-19.234 35 23.131-3e-5m-110.46-227.5h54.275c9.7618 0.13806 17.749-7.7372 17.749-17.5s-7.9875-17.638-17.749-17.5h-56.467m9.666 70 51.768 2e-5c9.7618 0.13806 17.749-7.7372 17.749-17.5s-7.9875-17.638-17.749-17.5h-55.961m16.066 70 48.08-1e-5c9.7618 0.13806 17.749-7.7372 17.749-17.5s-7.9875-17.638-17.749-17.5h-54.646m23.35 70 42.148-1e-5c9.7618 0.13806 17.749-7.7372 17.749-17.5s-7.9875-17.638-17.749-17.5h-51.09m28.246 70 34.139-1e-5c9.7618 0.13806 17.749-7.7372 17.749-17.5s-7.9875-17.638-17.749-17.5h-43.852m26.914 70 26.955 1e-5c9.7618 0.13806 17.749-7.7372 17.749-17.5s-7.9875-17.638-17.749-17.5h-34.961m19.373 70 22.563 1e-5c9.7618 0.13806 17.749-7.7372 17.749-17.5s-7.9875-17.638-17.749-17.5h-27.432m10.426 70 20.902-1e-5c9.7618 0.13806 17.749-7.7372 17.749-17.5s-7.9875-17.638-17.749-17.5h-23.131m-204.28-227.5 75.16-1e-5m-65.219 35 71.77 2e-5m-53.875 35h65.541m-39.814 35h56.842m-26.58 35 47.914-1e-5m-19.48 35 40.912-1e-5m-19.52 35h35.867m-23.322 35h32.811m-105.6-262.5-73.408-1e-5c-9.7618-0.13806-17.749 7.7372-17.749 17.5s7.9875 17.638 17.749 17.5h75.16m2.6894 0h-67.908c-9.7618-0.13806-17.749 7.7372-17.749 17.5s7.9875 17.638 17.749 17.5h71.77m5.2734-1e-5 -59.148 1e-5c-9.7618-0.13806-17.749 7.7372-17.749 17.5s7.9875 17.638 17.749 17.5h65.541m7.8164 2e-5 -47.631-2e-5c-9.7618-0.13806-17.749 7.7372-17.749 17.5s7.9875 17.638 17.749 17.5h56.842m10.363 1e-5 -36.943-1e-5c-9.7618-0.13806-17.749 7.7372-17.749 17.5s7.9875 17.638 17.749 17.5h47.914m11.053 2e-5 -30.533-2e-5c-9.7618-0.13806-17.749 7.7372-17.749 17.5s7.9875 17.638 17.749 17.5h40.912m9.0195-1e-5 -28.539 1e-5c-9.7618-0.13806-17.749 7.7372-17.749 17.5s7.9875 17.638 17.749 17.5h35.867m5.5156 2e-5 -28.838-2e-5c-9.7618-0.13806-17.749 7.7372-17.749 17.5s7.9875 17.638 17.749 17.5h32.811" fill="none" stroke="#44f" stroke-linecap="round" stroke-linejoin="round" stroke-width="6"/>
</g>
<g transform="matrix(-.12677 0 0 -.1304 45.18 93.256)">
<path d="m1300 984.78-303.72-225.78m-995.08 20.56c55.094-49.424 128.37-79.562 208.8-79.562 171.21 0 310 136.55 310 305 1e-5 57.291-16.055 110.89-43.98 156.69m-474.09-381.67 410.83 305.4m100.29-145.42h271.27m515.68 250.27-376.07-279.55m71.905-152.24-108.6 156.11m116.51-118.73-79.783 114.69m-66.767-309.68 138.62 157.64m-109.07 155.7c-84.962-62.772-110.23-182.27-55.071-277.81 7.5116-13.01 16.154-24.951 25.724-35.766m43.599 293.02c-74.41-55.386-96.537-160.12-47.672-244.76 6.0376-10.457 12.883-20.13 20.404-28.982m130.47 176.13 295.8 219.89m-383.85-142.01c-64.205-47.79-83.715-138.13-40.949-212.2 4.7128-8.1628 9.9723-15.754 15.701-22.768m104.16 121.05h-141.94m95.79-55h-91.436m99.564 110h-89.114m-11.03-215h-698.02m682.06-30h-636.08m605.16-60h-547m532.06-30h-510.58m358.01-479.84c34.326 141.41 46.349 257.95 152.82 479.84 17.86 37.224 38.379 77.412 62.106 121.18m-21.429 28.819h-656.6m510.7 0.28961c2.3215 128.34 47.798 162.2 49.837 309.39m-79.819-309.39c2.7858 128.34 57.357 162.2 59.805 309.39m-139.81-309.57c3.3994 166.06 90.388 181.85 94.73 309.83m-134.71-309.84c4.0409 161.4 104.66 181.69 109.68 309.84m-209.63-309.85c5.6731 161.47 146.94 190.92 154.51 309.87m-184.52-310.25c5.6329 161.81 151.47 195.79 164.08 310.26m-56.599 25.024h263.76m-272.27-40 62.516-1e-5m-67.084-15 62.916 1e-5m-68.365-15 62.156 1e-5m-61.451-15 53.32-1e-5m-52.352-15 42.537-2e-5m-41.57-15 30.053-1e-5m-29.084-15 16.242 2e-5m220.46 90h48.93m-49.563-15h53.465m-54.566-15 59.408 1e-5m-60.902-15h58.568m-60.4-15h53.879m-56.23-15h49.707m-52.541-15h46.02m-49.254-15h42.732m-264.99 2e-5 1.6895 1e-5m773.08 385.03c-50.216 43.539-116.05 69.974-188.48 69.974-157.92 0-285-125.29-285-280-1e-5 -47.532 11.992-92.13 33.2-131.29m377.73 295.37c-34.95 25.694-78.076 40.919-125.93 40.919-118.25 0-210-91.356-210-205-1e-5 -26.728 5.0737-51.778 14.401-74.884m207.66 154.16c-3.8657 0.4773-7.8822 0.7236-12.059 0.7236-49.229 0-81.28-31.039-84.697-72.551m122.87 91.256c-11.593 4.0746-24.306 6.2955-38.178 6.2955-65.355 0-110-46.117-110-105 0-3.7762 0.18355-7.4317 0.54549-10.984m214.54 159.19c-29.636 20.052-65.352 31.795-105.09 31.795-105.02 0-185-80.047-185-180-1e-5 -21.157 3.5819-40.966 10.251-59.442m-257.75 46.336c3.5355-24.749 35.355 7.0711 10.607 10.607 20-15 20 30 0 15 24.749 3.5355-7.0711 35.355-10.607 10.607 15 20-30 20-15 0-3.5355 24.749-35.355-7.0711-10.607-10.607-20 15-20-30 0-15-24.749-3.5355 7.0711-35.355 10.607-10.607-15-20 30-20 15 0v0m5 18.107a12.5 12.5 0 0 1-12.5 12.5 12.5 12.5 0 0 1-12.5-12.5 12.5 12.5 0 0 1 12.5-12.5 12.5 12.5 0 0 1 12.5 12.5v0m-77.5-35v70m-366.23-334.65-40.141-70.248m-8.8762 73.217-48.074-84.129m271.96-619.19-393.64 618.57m182.29-286.11c-49.865-18.458-100.86-14.676-152.29-2.4605 80.68-86.71 76.097-214.29 96.231-330.02m207.41 0.018536-203.69 320.08m277.56-320.58c-59.847 226.37-210.17 688.44-407.5 664.56m437.92-664.44c-48.183 224.09-98.679 536.29-312.23 615.1m14.684-311.02 48.889 17.46m-40.185-31.138 48.888 17.46m-39.259-32.593 48.889 17.46m-39.258-32.592 48.889 17.46m-25.723-27.758 35.351 12.625m-9.3518-21.911 18.981 6.7788m-194.6 79.827c15.803-10.817 31.518-21.723 43.115-36.784 21.739 8.5896 42.457 4.2098 63.307 1.5161m-75.32-25.09c27.732 5.5645 57.993 4.7917 88.322 3.845m-55.958-116.5c25.887 22.417-3.0606 72.378 34.649 91.233 36.056 18.028 59.083-37.958 35-50-20-10-45 25-20 35 14.131 5.6525 20.131-28.64 10-20m-59.846-56.655c33.418 11.492 60.155-41.413 96.812-19.505 34.602 20.681-0.18311 70.226-23.296 56.412-19.194-11.472-3.1561-51.381 18.729-35.696 12.371 8.866-13.299 32.383-11.472 19.194m47.025-15.329c-3.7807-20.768-8.8604-40.451-27.953-48.421 4.1848-27.894 1.4229-52.339-15-70 17.356-1.6187 34.466-1.9692 55-20 27.97 9.9307 52.531 3.1986 77.423-1.9125m-71.645 112.06c-5.0599-11.294-10.995-22.005-20.778-30.151 1.504-14.349 0.28739-26.396-5-35 8.4956 1.2058 21.772 0.59896 35-10 8.9905 6.9284 20.596 8.6269 32.671 9.3861m101.82-17.501c13.934-4.563 26.21-13.093 38.203-22.3m-45.138 46.655c14.724-4.3797 27.569-13.257 40.103-22.878m-46.772 45.551c15.639-5.4588 29.216-15.853 42.72-26.421m-50.69 52.46c16.641-3.7477 30.812-13.406 44.601-23.982m-51.607 46.988c17.686-4.808 32.63-16.179 47.473-27.792m-55.862 53.275c18.785-2.6602 34.356-13.013 49.436-24.542m-57.626 49.312c19.367-5.3531 37.923-20.228 54.055-33.012m-62.581 57.627c20.312-4.3397 39.847-19.82 56.77-33.234m-65.085 56.598c21.753-5.3091 42.553-23.03 60.13-36.835m-68.211 59.166c21.962-8.6598 47.288-25.829 63.013-37.795m-72.66 63.264c22.178-7.6378 48.957-25.451 65.936-38.211m-75.948 63.531c22.09-6.1852 50.266-24.471 68.662-38.076m-78.402 61.753c23.379-6.6316 53.476-26.685 71.603-40.397m-82.384 65.53c22.643-4.32 53.991-24.473 73.969-39.228m-84.628 63.1c23.431-4.1807 56.539-25.801 76.566-40.791m-85.339 59.673c24.057-6.3079 56.528-20.98 74.839-33.277m-86.67 57.495c24.159-6.0088 57.732-21.062 76.538-33.656m-89.718 59.147c21.064-3.6066 53.839-17.136 75.832-29.886m-88.627 53.231c22.278-4.3596 55.94-18.663 77.112-31.55m-91.729 56.475c22.427-4.4768 56.123-18.85 77.147-31.73m-90.402 52.678c26.144-6.7276 62.615-23.588 79.85-36.518m-96.412 60.661c24.044-5.9041 57.633-20.912 76.609-33.531m-95.366 58.145c19.156-4.0897 45.851-14.943 66.056-25.885m432.02-353.13c20.526 78.558 49.889 167.39 105.54 285.04m-99.267-366.3c-2.8896 36.667-8.1535 104.46-8.1535 111.71 0 15-18.164 142.54-35 155-17.901 13.25-60.727 84.764-70 90-25.806 14.571-68.619-14.676-75-20-40.525 11.388-131.54-97.081-100-115l-23.233-9.9571m299.1-60.225c19.063 61.807 45.052 131.48 84.196 215.33m-93.794-164.1c16.729 48.809 37.961 102.63 66.08 163.75m23.077-9.8h-27.443m20.586-15-27.271 1e-5m20.602-15h-27.287m20.728-15-27.109 1e-5m20.75-15-26.994-1e-5m20.736-15-26.98-1e-5m20.957-15h-26.807m20.854-15-26.652-1e-5m21.127-15h-26.82m21.32-15h-26.68m21.18-15h-26.539m21.342-15-20.007-1e-5m14.841-15h-12.789m-247.99 113.57c-18.422-18.289-35.836-38.596-51.879-61.652m148.44 138.17c-18.847-12.399-37.352-25.483-55.242-39.799m30.359 39.804c-47.3-32.468-91.934-70.275-129.44-122.35m105.18 122.33c-40.393-29.087-78.456-62.841-111.31-107.04m87.881 107.12c-33.898-25.697-65.875-55.24-94.157-92.185m71.145 92.047c-27.67-22.177-53.863-47.313-77.566-77.436m55.644 77.611c-22.013-18.661-42.964-39.45-62.318-63.437m40.674 63.27c-16.625-14.96-32.567-31.29-47.58-49.479m26.999 49.678c-11.772-11.229-23.161-23.226-34.075-36.172m13.697 35.966c-7.1876-7.2901-14.216-14.899-21.063-22.871m1.5084 22.886c-3.0876-3.3261-6.1427-6.7174-9.1634-10.178m82.607-121.22c-5.5589-7.2332-10.976-14.751-16.237-22.58m167.81 153.95c-11.007-6.9871-21.924-14.154-32.698-21.608m-92.302 91.608c-11.508 0.0844-22.758-3.17-33.797-9.1714m-21.337 6.9835c30.729 20.833 63.195 12.011 95.134 12.188-4.3643-9.3048-15.999-15.118-55.824-27.242m59.589-1.0521c-11.508-0.0844-22.758 3.17-33.797 9.1714m-21.337-6.9835c30.729-20.833 63.195-12.011 95.134-12.188-4.3643 9.3048-15.999 15.118-55.824 27.242m60.856 0.22346c-11.508 0.0844-22.758-3.17-33.797-9.1714m-21.337 6.9835c30.729 20.833 63.195 12.011 95.134 12.188-4.3643-9.3048-15.999-15.118-55.824-27.242m59.589-1.0521c-11.508-0.0844-22.758 3.17-33.797 9.1714m-21.337-6.9835c30.729-20.833 63.195-12.011 95.134-12.188-4.3643 9.3048-15.999 15.118-55.824 27.242m54.632 2.9866c-11.508 0.0844-22.758-3.17-33.797-9.1714m-21.337 6.9835c30.729 20.833 63.195 12.011 95.134 12.188-4.3643-9.3048-15.999-15.118-55.824-27.242m59.589-1.0521c-11.508-0.0844-22.758 3.17-33.797 9.1714m-21.337-6.9835c30.729-20.833 63.195-12.011 95.134-12.188-4.3643 9.3048-15.999 15.118-55.824 27.242m60.856 0.22346c-11.508 0.0844-22.758-3.17-33.797-9.1714m-21.337 6.9835c30.729 20.833 63.195 12.011 95.134 12.188-4.3643-9.3048-15.999-15.118-55.824-27.242m59.589-1.0521c-11.508-0.0844-22.758 3.17-33.797 9.1714m-21.337-6.9835c30.729-20.833 63.195-12.011 95.134-12.188-4.3643 9.3048-15.999 15.118-55.824 27.242m61.926-0.10278c-11.508 0.0844-22.758-3.17-33.797-9.1714m-21.337 6.9835c30.729 20.833 63.195 12.011 95.134 12.188-4.3643-9.3048-15.999-15.118-55.824-27.242m59.589-1.0521c-11.508-0.0844-22.758 3.17-33.797 9.1714m-21.337-6.9835c24.743-16.774 50.612-14.322 76.425-12.823m6.4424 11.996c-8.3327 4.473-21.699 9.2263-43.558 15.881m-467.97 1.9296c-11.508 0.0844-22.758-3.17-33.797-9.1714m-21.337 6.9835c30.729 20.833 63.195 12.011 95.134 12.188-4.3643-9.3048-15.999-15.118-55.824-27.242m59.589-1.0521c-11.508-0.0844-22.758 3.17-33.797 9.1714m-21.337-6.9835c30.729-20.833 63.195-12.011 95.134-12.188-4.3643 9.3048-15.999 15.118-55.824 27.242m-81.051-30.571c16.295-0.5488 32.754 1.7108 49.075 1.6201-4.3643 9.3048-15.999 15.118-55.824 27.242m15.824-17.242c-7.813-0.0573-15.508 1.4245-23.098 4.2602m-24.292 25.74c14.509-0.0114 29.121-1.7867 43.624-1.7061-2.9552-6.3007-9.2439-11-25.362-17.143m592.72 7.1345c-7.8885-1.3192-15.66-4.1628-23.328-8.3321m-21.337 6.9835c16.734 11.345 33.983 13.895 51.381 13.894m145.15 451.33-51.427 7.8412c-2.1965 12.537 1.9141 18.211 5 25l50.346-16.208m4.7004 11.785-46.358 21.575c1.1296 12.678 6.5711 17.092 11.312 22.848l43.329-29.894m8.2749 10.269-38.486 35.021c5.7805 11.34 12.476 13.403 19.023 16.974l31.678-40.556m15.46 9.9743-23.009 43.889c9.3547 8.6306 16.351 8.2438 23.73 9.3221l15.424-46.379m14.7 3.961-10.125 52.418c11.46 5.5378 18.041 3.1337 25.415 2.0199l2.6268-52.328m19.638-0.4105 5.6421 55.094c12.536 2.2042 18.212-1.9029 25.003-4.9846l-12.301-53.516m-142.83-113.78-50.64-7.4611c-5.776 11.342-3.5098 17.972-2.5502 25.367h55.238m-123.22-33.837a12.5 12.5 0 0 1-13.44 11.484 12.5 12.5 0 0 1-11.484-13.44 12.5 12.5 0 0 1 13.44-11.484 12.5 12.5 0 0 1 11.484 13.44v0m-25.901 10.506c-26.097 12.998-21.794-41.833 1.956-24.923-12.998-26.097 41.833-21.794 24.923 1.956 26.097-12.998 21.794 41.833-1.956 24.923 12.998 26.097-41.833 21.794-24.923-1.956v0m30.079 72.444a12.5 12.5 0 0 1-10.094 14.513 12.5 12.5 0 0 1-14.513-10.094 12.5 12.5 0 0 1 10.094-14.513 12.5 12.5 0 0 1 14.513 10.094v0m-22.397 16.722c-21.955 19.183-31.676-34.951-4.4188-24.606-19.183-21.955 34.951-31.676 24.606-4.4188 21.955-19.183 31.676 34.951 4.4188 24.606 19.183 21.955-34.951 31.676-24.606 4.4188v0m56.286 58.754a12.5 12.5 0 0 1-6.5729 16.41 12.5 12.5 0 0 1-16.41-6.573 12.5 12.5 0 0 1 6.5729-16.41 12.5 12.5 0 0 1 16.41 6.573v0m-18.065 21.329c-17.081 23.627-38.723-26.936-9.8373-22.983-23.627-17.081 26.936-38.723 22.983-9.8373 17.081-23.627 38.723 26.936 9.8373 22.983 23.627 17.081-26.936 38.723-22.983 9.8373v0m73.467 34.476a12.5 12.5 0 0 1 0.62058 17.667 12.5 12.5 0 0 1-17.667 0.6206 12.5 12.5 0 0 1-0.62058-17.667 12.5 12.5 0 0 1 17.667-0.6206v0m-7.9025 26.81c-6.0737 28.515-46.306-8.9864-18.287-17.046-28.515-6.0738 8.9865-46.306 17.046-18.287 6.0737-28.515 46.306 8.9864 18.287 17.046 28.515 6.0738-8.9865 46.306-17.046 18.287v0m77.419 7.4912a12.5 12.5 0 0 1 8.4134 15.547 12.5 12.5 0 0 1-15.547 8.4136 12.5 12.5 0 0 1-8.4134-15.547 12.5 12.5 0 0 1 15.547-8.4136v0m4.8467 27.527c7.2427 28.241-45.471 12.547-23.961-7.1335-28.241 7.2427-12.547-45.471 7.1335-23.961-7.2427-28.241 45.471-12.547 23.961 7.1335 28.241-7.2428 12.547 45.471-7.1335 23.961v0m82.735-17.507a12.5 12.5 0 0 1 12.908 12.078 12.5 12.5 0 0 1-12.078 12.909 12.5 12.5 0 0 1-12.908-12.078 12.5 12.5 0 0 1 12.078-12.909v0m13.324 24.571c15.823 24.488-39.147 26.316-24.986 0.8312-24.488 15.823-26.316-39.147-0.8311-24.986-15.823-24.488 39.147-26.316 24.986-0.8312 24.488-15.823 26.316 39.147 0.8311 24.986v0m68.106-45.351a12.5 12.5 0 0 1 16.366 6.681 12.5 12.5 0 0 1-6.6809 16.367 12.5 12.5 0 0 1-16.366-6.681 12.5 12.5 0 0 1 6.6809-16.367v0m21.209 18.205c23.514 17.236-27.19 38.545-23.048 9.6858-17.236 23.514-38.545-27.19-9.6857-23.048-23.514-17.236 27.19-38.545 23.048-9.6858 17.236-23.514 38.544 27.19 9.6857 23.048v0m-69.045-118.56 18.824 36.422c9.2047-1.8746 13.674-5.5798 17.47-9.5451m-534.51-1130.3c101.87 342.19 345.91 461.41 230.78 619.77m216.27-14.912c-15-90 70-90 55 0 90-15 90 70 0 55 15 90-70 90-55 0-90 15-90-70 0-55v0m27.5-37.5c0 60 5 65 65 65-60 0-65 5-65 65 0-60-5-65-65-65 60 0 65-5 65-65v0m12.5 65a12.5 12.5 0 0 1-12.5 12.5 12.5 12.5 0 0 1-12.5-12.5 12.5 12.5 0 0 1 12.5-12.5 12.5 12.5 0 0 1 12.5 12.5v0m-68.718-28.861c-3.4942-8.4494-6.2823-22.438-6.2823-33.639 11.201 0 25.19 2.7881 33.64 6.2822m57.721 0c8.4494-3.4942 22.438-6.2822 33.64-6.2822 0 11.201-2.7881 25.19-6.2823 33.639m-112.44 57.721c-3.4942 8.4494-6.2823 22.438-6.2823 33.639 11.201 0 25.19-2.7881 33.64-6.2822m57.721 0c8.4494 3.4942 22.438 6.2822 33.64 6.2822 0-11.201-2.7881-25.19-6.2823-33.639m-92.999 160.42c1.01-6.6864 3.4391-15.941 9.2812-21.783 10-10 70-40 80-40s20 15 30 15 15 25-5 25-35-10-35-10c1.7416 21.621-12.85 27.104-25 35m18.114-12.771c4.683 23.139 1.3128 41.743-5.9466 58.157m52.832-65.386c75-25 81.847 11.93 10 25-54.999 10.005-59.523-8.4924-10-25v0m-1.8004 26.716c70.636-18.931 77.554 15.292 8.5521 25.39-52.822 7.7303-56.804-12.458-8.5521-25.39v0m1.0968 28.595c71.881-9.6832 74.714 25.171 5.475 26.3-53.004 0.86373-54.578-19.685-5.475-26.3v0m0.6002-85.086c3.3162-3.5871 7.7743-7.1701 13.406-10.444 45.029-26.181 52.14 14.277 7.5923 31.666-9.1445 3.5693-16.142 4.2335-20.894 2.9491m-15-34.396c-18.207-39.306 35-80 50-125 8.4422 53.825 13.58 106.05-50 125v0m0 0c17.822-26.387 30.237-56.503 45-85m-104.14 46.041c13.272 3.4248 26.206 12.941 39.14 33.959-62.532 6.4369-112.58 3.2717-130-25 25.778 2.5778 48.897-8.1341 70.729-10.211m59.271 35.211c-24.021-10.251-51.599-16.772-85-17.184m-413.48-608.5c-18.879-6.5627-35.786-16.163-50.088-31.494-19.189-20.57-34.207-52.086-41.325-102.76m92.181 123.93c-16.649-6.0913-31.148-14.702-43.543-27.989-17.305-18.551-31.528-47.449-38.528-95.88m82.87 113.5c-14.338-5.566-26.503-13.159-37.029-24.443-15.445-16.557-28.858-42.869-35.726-89.005m67.196 88.792c-6.2952-3.6447-11.794-8.0147-16.845-13.43-11.806-12.656-23.557-33.897-30.107-75.282m49.737 101.37c-10.353-4.7677-19.137-10.896-26.942-19.263-13.611-14.591-26.2-38.348-32.918-82.137m54.002 74.55c-2.2664-1.8438-4.4031-3.8525-6.459-6.0563-10.033-10.755-20.927-29.519-27.289-68.445m-113.83-0.1148c-9.1114 52.945-27.571 93.811-54.968 123.18-16.31 17.484-34.989 29.931-54.087 38.912m98.909-162.1c-8.9599 50.73-26.61 89.007-52.135 116.37-13.337 14.297-28.342 25.033-43.924 33.185m85.905-149.58c-8.7939 48.478-25.622 84.195-49.294 109.57-10.328 11.072-21.714 19.879-33.646 26.941m72.782-136.55c-8.6122 46.192-24.607 79.376-46.448 102.79-7.2287 7.7491-15.006 14.317-23.161 19.911m11.372-52.896c11.807-16.758 21.409-39.169 27.668-69.743m20.406-0.12399c-8.4138 43.869-23.563 74.554-43.598 96.032-4.0387 4.3295-8.2594 8.2648-12.634 11.848m46.043-107.85c-8.4559 42.736-23.376 71.372-42.434 90.983m236.61-35.342c-7.0888-9.9221-14.48-26.147-19.421-55.545m-234.1 21.446c13.083-4.7038 24.733-12.839 36.127-21.587m-17.839 180c37.87-22.798 75.447-48.05 120-15v5c-60-35-70-10-120 10v0m170-10-3e-3 5.4723c20.003-20.472 45.347-16.786 70.003-10.472-37.171-18.904-54.466-8.2607-70 5v0m0 0s-5 15-5 45c0 25 20 85 20 95 0 13.032-12.277 22.123-20 20-4.8211-1.3256-20 20-20 20m-30-55c-10 0-30 35-5 35 40-15 60-5 0 0m-25 35-5 10 10-5-5-5v0m95 0-5 10-5-5 10-5v0m-90 5c10 0 20-5 30-5s15 5 20 5 10-5 15-5 10 5 15 5m-60 25c13.51 3.7539 21.865 20.501 45 0m-45-200c-52.197-18.082-74.36 28.531-100 30 40 0 35.054 8.7303 50 10 38.304 3.254 50.908-26.427 42.668-42.342m137.33 7.3424c-35-30-55 20-75 15 29.239 6.5917 50 30 75-5m502.67 545.56c-4.9463-21.883-9.234-43.761-16.584-63.761m38.911 73.198c-6.2271-23.877-10.324-48.418-17.232-71.138m38.081 193.09c-6.1481 4.4413-17.954 6.4312-27.298 7.3228m-596.19-229.28 56.467 2e-5m-50.994 35 55.961-1e-5m-46.461 35 54.646-1e-5m-40.238 35h51.09m-32.557 35 43.852-2e-5m-24.943 35 34.961 4e-5m-20.457 35h27.432m-19.234 35 23.131-3e-5m-110.46-227.5h54.275c9.7618 0.13806 17.749-7.7372 17.749-17.5s-7.9875-17.638-17.749-17.5h-56.467m9.666 70 51.768 2e-5c9.7618 0.13806 17.749-7.7372 17.749-17.5s-7.9875-17.638-17.749-17.5h-55.961m16.066 70 48.08-1e-5c9.7618 0.13806 17.749-7.7372 17.749-17.5s-7.9875-17.638-17.749-17.5h-54.646m23.35 70 42.148-1e-5c9.7618 0.13806 17.749-7.7372 17.749-17.5s-7.9875-17.638-17.749-17.5h-51.09m28.246 70 34.139-1e-5c9.7618 0.13806 17.749-7.7372 17.749-17.5s-7.9875-17.638-17.749-17.5h-43.852m26.914 70 26.955 1e-5c9.7618 0.13806 17.749-7.7372 17.749-17.5s-7.9875-17.638-17.749-17.5h-34.961m19.373 70 22.563 1e-5c9.7618 0.13806 17.749-7.7372 17.749-17.5s-7.9875-17.638-17.749-17.5h-27.432m10.426 70 20.902-1e-5c9.7618 0.13806 17.749-7.7372 17.749-17.5s-7.9875-17.638-17.749-17.5h-23.131m-204.28-227.5 75.16-1e-5m-65.219 35 71.77 2e-5m-53.875 35h65.541m-39.814 35h56.842m-26.58 35 47.914-1e-5m-19.48 35 40.912-1e-5m-19.52 35h35.867m-23.322 35h32.811m-105.6-262.5-73.408-1e-5c-9.7618-0.13806-17.749 7.7372-17.749 17.5s7.9875 17.638 17.749 17.5h75.16m2.6894 0h-67.908c-9.7618-0.13806-17.749 7.7372-17.749 17.5s7.9875 17.638 17.749 17.5h71.77m5.2734-1e-5 -59.148 1e-5c-9.7618-0.13806-17.749 7.7372-17.749 17.5s7.9875 17.638 17.749 17.5h65.541m7.8164 2e-5 -47.631-2e-5c-9.7618-0.13806-17.749 7.7372-17.749 17.5s7.9875 17.638 17.749 17.5h56.842m10.363 1e-5 -36.943-1e-5c-9.7618-0.13806-17.749 7.7372-17.749 17.5s7.9875 17.638 17.749 17.5h47.914m11.053 2e-5 -30.533-2e-5c-9.7618-0.13806-17.749 7.7372-17.749 17.5s7.9875 17.638 17.749 17.5h40.912m9.0195-1e-5 -28.539 1e-5c-9.7618-0.13806-17.749 7.7372-17.749 17.5s7.9875 17.638 17.749 17.5h35.867m5.5156 2e-5 -28.838-2e-5c-9.7618-0.13806-17.749 7.7372-17.749 17.5s7.9875 17.638 17.749 17.5h32.811" fill="none" stroke="#44f" stroke-linecap="round" stroke-linejoin="round" stroke-width="6"/>
</g>
<g transform="matrix(.12677 0 0 .1304 -119.62 -167.54)">
<path d="m1184.5 767.2c0.3509 15.415 12.042 16.451 23.906 17.267m-26.929 27.271c3.6242 9.3177 6.2464 17.206 2.0451 21.086m-2.6979 4.0605c3.6242 9.3177 6.2464 17.206 2.0451 21.086m-2.0451 6.6561c3.6242 9.3177 6.2464 17.206 2.0451 21.086m30.874-75.441c1.8738 2.9483 2.8329 6.1422 2.5931 9.6579m3.6896 17.471c1.4567 3.1752 1.9738 6.4696 1.2594 9.9204m-2.7709 20.86c1.4826 3.1631 2.0267 6.4532 1.3407 9.9097m0.1708-103.1c1.8738 2.9483 2.8329 6.1422 2.5931 9.6579m-787.59-579.66c29.854-29.76 89.915-20.22 87.766-12.149m-42.766 57.149c21.575 13.391 40-25 45-40m65 5c17.561-51.28 55-40 60-25m-142.61 0.37282c4.6359 4.5785 7.611 11.669 7.611 19.627 0 13.807-8.9543 25-20 25s-20-11.193-20-25c0-4.3285 0.88005-8.4002 2.4287-11.951m176.06-2.6088c0.97572 2.9449 1.5142 6.1735 1.5142 9.5594 0 13.807-8.9543 25-20 25s-20-11.193-20-25c0-2.2482 0.2374-4.4271 0.68259-6.4996" fill="none" stroke="#44f" stroke-linecap="round" stroke-linejoin="round" stroke-width="3"/>
<g transform="matrix(.053033 -.051548 .053033 .051548 1017 901)">
<path d="m30 150c5 235 55 250 100 350h-260c45-100 95-115 100-350a10 10 0 0 0-20 0 210 210 0 1 1-74-201 10 10 0 0 0 14-14 230 230 0 1 1 220 0 10 10 0 0 0 14 14 210 210 0 1 1-74 201 10 10 0 0 0-20 0z"/>
</g>
<g transform="matrix(.053033 -.051548 .053033 .051548 1125 978)">
<path d="m30 150c5 235 55 250 100 350h-260c45-100 95-115 100-350a10 10 0 0 0-20 0 210 210 0 1 1-74-201 10 10 0 0 0 14-14 230 230 0 1 1 220 0 10 10 0 0 0 14 14 210 210 0 1 1-74 201 10 10 0 0 0-20 0z"/>
</g>
<g transform="matrix(.053033 -.051548 .053033 .051548 1229 1060)">
<path d="m30 150c5 235 55 250 100 350h-260c45-100 95-115 100-350a10 10 0 0 0-20 0 210 210 0 1 1-74-201 10 10 0 0 0 14-14 230 230 0 1 1 220 0 10 10 0 0 0 14 14 210 210 0 1 1-74 201 10 10 0 0 0-20 0z"/>
</g>
</g>
<g transform="matrix(-.12677 0 0 -.1304 45.18 93.256)">
<path d="m1184.5 767.2c0.3509 15.415 12.042 16.451 23.906 17.267m-26.929 27.271c3.6242 9.3177 6.2464 17.206 2.0451 21.086m-2.6979 4.0605c3.6242 9.3177 6.2464 17.206 2.0451 21.086m-2.0451 6.6561c3.6242 9.3177 6.2464 17.206 2.0451 21.086m30.874-75.441c1.8738 2.9483 2.8329 6.1422 2.5931 9.6579m3.6896 17.471c1.4567 3.1752 1.9738 6.4696 1.2594 9.9204m-2.7709 20.86c1.4826 3.1631 2.0267 6.4532 1.3407 9.9097m0.1708-103.1c1.8738 2.9483 2.8329 6.1422 2.5931 9.6579m-787.59-579.66c29.854-29.76 89.915-20.22 87.766-12.149m-42.766 57.149c21.575 13.391 40-25 45-40m65 5c17.561-51.28 55-40 60-25m-142.61 0.37282c4.6359 4.5785 7.611 11.669 7.611 19.627 0 13.807-8.9543 25-20 25s-20-11.193-20-25c0-4.3285 0.88005-8.4002 2.4287-11.951m176.06-2.6088c0.97572 2.9449 1.5142 6.1735 1.5142 9.5594 0 13.807-8.9543 25-20 25s-20-11.193-20-25c0-2.2482 0.2374-4.4271 0.68259-6.4996" fill="none" stroke="#44f" stroke-linecap="round" stroke-linejoin="round" stroke-width="3"/>
<g transform="matrix(.053033 -.051548 .053033 .051548 1017 901)">
<path d="m30 150c5 235 55 250 100 350h-260c45-100 95-115 100-350a10 10 0 0 0-20 0 210 210 0 1 1-74-201 10 10 0 0 0 14-14 230 230 0 1 1 220 0 10 10 0 0 0 14 14 210 210 0 1 1-74 201 10 10 0 0 0-20 0z"/>
</g>
<g transform="matrix(.053033 -.051548 .053033 .051548 1125 978)">
<path d="m30 150c5 235 55 250 100 350h-260c45-100 95-115 100-350a10 10 0 0 0-20 0 210 210 0 1 1-74-201 10 10 0 0 0 14-14 230 230 0 1 1 220 0 10 10 0 0 0 14 14 210 210 0 1 1-74 201 10 10 0 0 0-20 0z"/>
</g>
<g transform="matrix(.053033 -.051548 .053033 .051548 1229 1060)">
<path d="m30 150c5 235 55 250 100 350h-260c45-100 95-115 100-350a10 10 0 0 0-20 0 210 210 0 1 1-74-201 10 10 0 0 0 14-14 230 230 0 1 1 220 0 10 10 0 0 0 14 14 210 210 0 1 1-74 201 10 10 0 0 0-20 0z"/>
</g>
</g>
</svg>
